# Blender 3.4.1
# www.blender.org
mtllib armchair014.mtl
g armchair.014_Cube.061
v -1.365242 -0.318769 2.189432
v -1.206209 0.355716 2.026462
v -1.365244 -0.318769 -1.402556
v -1.365244 0.204142 -1.402556
v 1.378116 -0.318769 2.189436
v 1.378116 0.204142 2.189436
v 1.378115 -0.318769 -1.402553
v 1.378115 0.204142 -1.402553
v -1.299063 -0.380406 -1.336376
v -1.299067 -0.380406 2.123257
v -1.365242 0.204142 2.189432
v -1.206202 0.355716 -1.239582
v 1.311939 -0.380406 -1.336377
v 1.219081 0.355716 -1.239581
v 1.311935 -0.380406 2.123256
v 1.219075 0.355716 2.026462
v -1.404403 -1.146344 2.087978
v -1.316386 -0.363497 1.999961
v -1.404410 -1.146344 -1.441723
v -1.404410 -0.456106 -1.441723
v 1.417271 -1.146344 2.087971
v 1.417271 -0.456106 2.087971
v 1.417278 -1.146344 -1.441716
v 1.417278 -0.456106 -1.441716
v -1.316393 -1.238954 -1.353707
v -1.316386 -1.238954 1.999961
v -1.404403 -0.456106 2.087978
v -1.316393 -0.363497 -1.353707
v 1.329260 -1.238954 -1.353698
v 1.329260 -0.363497 -1.353698
v 1.329255 -1.238954 1.999955
v 1.329255 -0.363497 1.999955
v 1.326531 -1.116488 1.828670
v 1.551011 1.628816 1.982635
v 1.326532 -1.116488 -1.182410
v 1.326532 1.347033 -1.182410
v 2.176911 -1.180636 1.892815
v 2.176911 1.411181 1.892815
v 2.176916 -1.180636 -1.246556
v 2.176916 1.411181 -1.246556
v 1.551015 -1.398271 -1.336382
v 1.551011 -1.398271 1.982635
v 1.326531 1.347033 1.828670
v 1.551015 1.628816 -1.336382
v 1.962145 -1.398271 -1.336375
v 1.962145 1.628816 -1.336375
v 1.962144 -1.398271 1.982640
v 1.962144 1.628816 1.982640
v 2.028323 1.567178 -1.402553
v 2.028323 -1.336634 -1.402553
v 2.028326 1.567178 2.048819
v 2.028326 -1.336634 2.048819
v 1.484836 -1.336634 2.048809
v 1.484836 1.567178 2.048809
v 1.484847 1.567178 -1.402550
v 1.484847 -1.336634 -1.402550
v 1.798235 -1.072591 -1.338301
v 1.996102 1.629758 -1.660842
v -1.783752 -1.072591 -1.338297
v -1.783752 1.303136 -1.338297
v 1.752787 -1.027144 -2.411033
v 1.752787 1.257689 -2.411033
v -1.738314 -1.027144 -2.411039
v -1.738314 1.257689 -2.411039
v -1.981623 -1.398271 -1.625338
v 1.996097 -1.398271 -1.625339
v 1.798235 1.303136 -1.338301
v -1.981618 1.629758 -1.660841
v -1.981628 -1.398271 -2.036470
v -1.981621 1.629758 -2.000953
v 1.996092 -1.398271 -2.036472
v 1.996100 1.629758 -2.000956
v -2.047795 1.567178 -2.102638
v -2.047795 -1.336634 -2.102638
v 2.062268 1.567178 -2.102648
v 2.062268 -1.336634 -2.102648
v 2.062278 -1.336634 -1.559159
v 2.062278 1.567178 -1.559159
v -2.047799 1.567178 -1.559162
v -2.047799 -1.336634 -1.559162
v 2.317360 -2.034840 1.674682
v 2.143507 -2.034839 1.674688
v 2.143506 -2.034839 1.863533
v 2.317372 -2.034840 1.863541
v 2.317373 -2.034840 -1.730418
v 2.143507 -2.034839 -1.730427
v 2.143507 -2.034839 -1.919272
v 2.317361 -2.034840 -1.919278
v 2.143507 -0.752931 1.674688
v 2.317360 -0.752931 1.674682
v 2.143506 -0.752931 1.863533
v 2.317372 -0.752931 1.863541
v 2.143507 -0.752931 -1.730427
v 2.317373 -0.752931 -1.730418
v 2.143507 -0.752931 -1.919272
v 2.317361 -0.752931 -1.919278
v 2.317361 -0.554294 -1.919278
v 2.143507 -0.554294 -1.919272
v 2.317373 -0.554294 -1.730418
v 2.143507 -0.554294 -1.730427
v 2.143506 -0.554295 1.863533
v 2.317372 -0.554295 1.863541
v 2.317360 -0.554295 1.674682
v 2.143507 -0.554295 1.674688
v 2.317361 0.052299 -1.919278
v 2.143507 0.052299 -1.919272
v 2.317373 0.052299 -1.730418
v 2.143507 0.052299 -1.730427
v 2.143506 0.052299 1.863533
v 2.317372 0.052299 1.863541
v 2.317360 0.052299 1.674682
v 2.143507 0.052299 1.674688
v 2.317361 0.236554 -1.919278
v 2.143507 0.236554 -1.919272
v 2.317373 0.236554 -1.730418
v 2.143507 0.236554 -1.730427
v 2.143506 0.236554 1.863533
v 2.317372 0.236554 1.863541
v 2.317360 0.236554 1.674682
v 2.143507 0.236554 1.674688
v 2.317361 1.201937 -1.919278
v 2.143507 1.201937 -1.919272
v 2.317373 1.201937 -1.730418
v 2.143507 1.201937 -1.730427
v 2.317361 1.381735 -1.919278
v 2.143507 1.381735 -1.919272
v 2.317373 1.381735 -1.730418
v 2.143507 1.381735 -1.730427
v 2.317364 1.201937 1.161066
v 2.317360 0.681679 1.674682
v 2.317363 1.122523 1.422876
v 2.317362 0.919089 1.611398
v 2.143507 0.681679 1.674688
v 2.143511 1.201937 1.161072
v 2.143508 0.919089 1.611405
v 2.143509 1.122523 1.422883
v 2.143512 1.381735 1.166897
v 2.143506 0.685091 1.863533
v 2.143509 1.288402 1.515215
v 2.143507 1.033413 1.770203
v 2.317372 0.685091 1.863541
v 2.317366 1.381735 1.166891
v 2.317361 1.033413 1.770196
v 2.317362 1.288402 1.515209
v -1.328268 -1.116488 -1.182417
v -1.552747 1.628816 -1.336381
v -1.328254 -1.116488 1.828675
v -1.328254 1.347033 1.828675
v -2.178648 -1.180636 -1.246562
v -2.178648 1.411181 -1.246562
v -2.178638 -1.180636 1.892822
v -2.178638 1.411181 1.892822
v -1.552750 -1.398271 1.982635
v -1.552747 -1.398271 -1.336381
v -1.328268 1.347033 -1.182417
v -1.552750 1.628816 1.982635
v -1.963868 -1.398271 1.982642
v -1.963868 1.628816 1.982642
v -1.963866 -1.398271 -1.336373
v -1.963866 1.628816 -1.336373
v -2.030045 1.567178 2.048819
v -2.030045 -1.336634 2.048819
v -2.030049 1.567178 -1.402552
v -2.030049 -1.336634 -1.402552
v -1.486573 -1.336634 -1.402556
v -1.486573 1.567178 -1.402556
v -1.486569 1.567178 2.048815
v -1.486569 -1.336634 2.048815
v -2.148787 -2.034840 1.674692
v -2.322653 -2.034839 1.674684
v -2.322655 -2.034839 1.863531
v -2.148787 -2.034840 1.863538
v -2.148787 -2.034840 -1.730422
v -2.322654 -2.034839 -1.730429
v -2.322653 -2.034839 -1.919275
v -2.148786 -2.034840 -1.919268
v -2.322653 -0.752931 1.674684
v -2.148787 -0.752931 1.674692
v -2.322655 -0.752931 1.863531
v -2.148787 -0.752931 1.863538
v -2.322654 -0.752931 -1.730429
v -2.148787 -0.752931 -1.730422
v -2.322653 -0.752931 -1.919275
v -2.148786 -0.752931 -1.919268
v -2.148786 -0.554294 -1.919268
v -2.322653 -0.554294 -1.919275
v -2.148787 -0.554294 -1.730422
v -2.322654 -0.554294 -1.730429
v -2.322655 -0.554295 1.863531
v -2.148787 -0.554295 1.863538
v -2.148787 -0.554295 1.674692
v -2.322653 -0.554295 1.674684
v -2.148786 0.052299 -1.919268
v -2.322653 0.052299 -1.919275
v -2.148787 0.052299 -1.730422
v -2.322654 0.052299 -1.730429
v -2.322655 0.052299 1.863531
v -2.148787 0.052299 1.863538
v -2.148787 0.052299 1.674692
v -2.322653 0.052299 1.674684
v -2.148786 0.236554 -1.919268
v -2.322653 0.236554 -1.919275
v -2.148787 0.236554 -1.730422
v -2.322654 0.236554 -1.730429
v -2.322655 0.236554 1.863531
v -2.148787 0.236554 1.863538
v -2.148787 0.236554 1.674692
v -2.322653 0.236554 1.674684
v -2.148786 1.201937 -1.919268
v -2.322653 1.201937 -1.919275
v -2.148787 1.201937 -1.730422
v -2.322654 1.201937 -1.730429
v -2.148786 1.381735 -1.919268
v -2.322653 1.381735 -1.919275
v -2.148787 1.381735 -1.730422
v -2.322654 1.381735 -1.730429
v -2.148796 1.201937 1.161063
v -2.148787 0.681679 1.674692
v -2.148798 1.122523 1.422874
v -2.148784 0.919089 1.611409
v -2.322653 0.681679 1.674684
v -2.322649 1.201937 1.161069
v -2.322652 0.919089 1.611402
v -2.322651 1.122523 1.422880
v -2.322648 1.381735 1.166894
v -2.322655 0.685091 1.863531
v -2.322652 1.288402 1.515213
v -2.322653 1.033413 1.770199
v -2.148787 0.685091 1.863538
v -2.148794 1.381735 1.166888
v -2.148786 1.033413 1.770206
v -2.148784 1.288402 1.515219
vn -0.6473 -0.4024 0.6473
vn -0.6473 0.4008 0.6484
vn -0.6473 0.4008 -0.6484
vn -0.6473 -0.4024 -0.6473
vn 0.6473 0.4008 -0.6484
vn 0.6473 -0.4024 -0.6473
vn 0.6473 0.4008 0.6484
vn 0.6473 -0.4024 0.6473
vn -0.2863 -0.9144 -0.2863
vn 0.2863 -0.9144 -0.2863
vn 0.2863 -0.9144 0.2863
vn -0.2863 -0.9144 0.2863
vn 0.2914 0.9130 -0.2854
vn -0.2914 0.9130 -0.2854
vn -0.2914 0.9130 0.2854
vn 0.2914 0.9130 0.2854
vn -0.6531 -0.3832 0.6531
vn -0.6531 0.3832 0.6531
vn -0.6531 0.3832 -0.6531
vn -0.6531 -0.3832 -0.6531
vn 0.6531 0.3832 -0.6531
vn 0.6531 -0.3832 -0.6531
vn 0.6531 0.3832 0.6531
vn 0.6531 -0.3832 0.6531
vn -0.3101 -0.8987 -0.3101
vn 0.3101 -0.8987 -0.3101
vn 0.3101 -0.8987 0.3101
vn -0.3101 -0.8987 0.3101
vn 0.3101 0.8987 -0.3101
vn -0.3101 0.8987 -0.3101
vn -0.3101 0.8987 0.3101
vn 0.3101 0.8987 0.3101
vn -0.9422 -0.2370 0.2370
vn -0.9422 0.2370 0.2370
vn -0.9422 0.2370 -0.2370
vn -0.9422 -0.2370 -0.2370
vn -0.5313 -0.4828 -0.6961
vn -0.5313 0.4828 -0.6961
vn 0.4968 0.5013 -0.7084
vn 0.4968 -0.5013 -0.7084
vn 0.9116 -0.2907 -0.2907
vn 0.9116 0.2907 -0.2907
vn 0.9116 0.2907 0.2907
vn 0.9116 -0.2907 0.2907
vn 0.4968 -0.5013 0.7084
vn 0.4968 0.5013 0.7084
vn -0.5313 0.4828 0.6961
vn -0.5313 -0.4828 0.6961
vn 0.2863 0.9144 -0.2863
vn -0.2863 0.9144 -0.2863
vn -0.2863 0.9144 0.2863
vn 0.2863 0.9144 0.2863
vn 0.2655 -0.2655 0.9268
vn 0.2655 0.2655 0.9268
vn -0.2655 0.2655 0.9268
vn -0.2655 -0.2655 0.9268
vn -0.7026 -0.4926 0.5136
vn -0.6861 0.5223 0.5064
vn -0.6943 0.5337 -0.4829
vn -0.7105 -0.5044 -0.4907
vn -0.2995 -0.2995 -0.9059
vn -0.2995 0.2995 -0.9059
vn 0.2995 0.2995 -0.9059
vn 0.2995 -0.2995 -0.9059
vn 0.7105 -0.5044 -0.4907
vn 0.6942 0.5337 -0.4829
vn 0.6861 0.5223 0.5064
vn 0.7026 -0.4926 0.5136
vn -0.3032 0.9319 -0.1992
vn -0.3032 0.9319 0.1992
vn 0.3032 0.9319 0.1992
vn 0.3032 0.9319 -0.1992
vn -0.0000 -0.0000 -1.0000
vn -0.0000 -1.0000 -0.0000
vn 1.0000 -0.0000 -0.0001
vn 1.0000 -0.0000 -0.0000
vn -1.0000 -0.0000 -0.0000
vn -0.0000 -0.0000 1.0000
vn -0.0000 1.0000 -0.0000
vn -0.0000 0.1305 0.9914
vn -0.0000 -0.1299 -0.9915
vn -0.0000 0.9914 0.1305
vn -0.0000 -0.4829 -0.8757
vn -0.0000 -0.8478 -0.5303
vn -0.0000 -0.9892 -0.1467
vn -0.0000 0.8660 0.5000
vn -0.0000 0.5000 0.8660
vn 0.9422 -0.2370 -0.2370
vn 0.9422 0.2370 -0.2370
vn 0.9422 0.2370 0.2370
vn 0.9422 -0.2370 0.2370
vn 0.5313 -0.4828 0.6961
vn 0.5313 0.4828 0.6961
vn -0.4968 0.5014 0.7084
vn -0.4968 -0.5014 0.7084
vn -0.9116 -0.2907 0.2907
vn -0.9116 0.2907 0.2907
vn -0.9116 0.2907 -0.2907
vn -0.9116 -0.2907 -0.2907
vn -0.4968 -0.5014 -0.7084
vn -0.4968 0.5014 -0.7084
vn 0.5313 0.4828 -0.6961
vn 0.5313 -0.4828 -0.6961
vt 0.289068 0.931641
vt 0.289068 0.931641
vt 0.289068 0.931641
vt 0.289068 0.931641
vt 0.289068 0.931641
vt 0.289068 0.931641
vt 0.289068 0.931641
vt 0.289068 0.931641
vt 0.289068 0.931641
vt 0.289068 0.931641
vt 0.289068 0.931641
vt 0.289068 0.931641
vt 0.289068 0.931641
vt 0.289068 0.931641
vt 0.289068 0.931641
vt 0.289068 0.931641
vt 0.289068 0.902344
vt 0.289068 0.902344
vt 0.289068 0.902344
vt 0.289068 0.902344
vt 0.289068 0.902344
vt 0.289068 0.902344
vt 0.289068 0.902344
vt 0.289068 0.902344
vt 0.289068 0.902344
vt 0.289068 0.902344
vt 0.289068 0.902344
vt 0.289068 0.902344
vt 0.289068 0.902344
vt 0.289068 0.902344
vt 0.289068 0.902344
vt 0.289068 0.902344
vt 0.289068 0.902344
vt 0.289068 0.902344
vt 0.289068 0.902344
vt 0.289068 0.902344
vt 0.289068 0.902344
vt 0.289068 0.902344
vt 0.289068 0.902344
vt 0.289068 0.902344
vt 0.289068 0.902344
vt 0.289068 0.902344
vt 0.289068 0.902344
vt 0.289068 0.902344
vt 0.289068 0.902344
vt 0.289068 0.902344
vt 0.289068 0.902344
vt 0.289068 0.902344
vt 0.289068 0.902344
vt 0.289068 0.902344
vt 0.289068 0.902344
vt 0.289068 0.902344
vt 0.289068 0.902344
vt 0.289068 0.902344
vt 0.289068 0.902344
vt 0.289068 0.902344
vt 0.289068 0.902344
vt 0.289068 0.902344
vt 0.289068 0.902344
vt 0.289068 0.902344
vt 0.289068 0.902344
vt 0.289068 0.902344
vt 0.289068 0.902344
vt 0.289068 0.902344
vt 0.289068 0.902344
vt 0.289068 0.902344
vt 0.289068 0.902344
vt 0.289068 0.902344
vt 0.289068 0.902344
vt 0.289068 0.902344
vt 0.289068 0.902344
vt 0.289068 0.902344
vt 0.289068 0.902344
vt 0.289068 0.902344
vt 0.289068 0.902344
vt 0.289068 0.902344
vt 0.289068 0.902344
vt 0.289068 0.902344
vt 0.289068 0.902344
vt 0.289068 0.902344
vt 0.490984 0.088512
vt 0.490984 0.088512
vt 0.490984 0.088512
vt 0.490984 0.088512
vt 0.490984 0.088512
vt 0.490984 0.088512
vt 0.490984 0.088512
vt 0.490984 0.088512
vt 0.490984 0.088512
vt 0.490984 0.088512
vt 0.490984 0.088512
vt 0.490984 0.088512
vt 0.490984 0.088512
vt 0.490984 0.088512
vt 0.490984 0.088512
vt 0.490984 0.088512
vt 0.490984 0.088512
vt 0.490984 0.088512
vt 0.490984 0.088512
vt 0.490984 0.088512
vt 0.490984 0.088512
vt 0.490984 0.088512
vt 0.490984 0.088512
vt 0.490984 0.088512
vt 0.490984 0.088512
vt 0.490984 0.088512
vt 0.490984 0.088512
vt 0.490984 0.088512
vt 0.490984 0.088512
vt 0.490984 0.088512
vt 0.490984 0.088512
vt 0.490984 0.088512
vt 0.490984 0.088512
vt 0.490984 0.088512
vt 0.490984 0.088512
vt 0.490984 0.088512
vt 0.490984 0.088512
vt 0.490984 0.088512
vt 0.490984 0.088512
vt 0.490984 0.088512
vt 0.490984 0.088512
vt 0.490984 0.088512
vt 0.490984 0.088512
vt 0.490984 0.088512
vt 0.490984 0.088512
vt 0.490984 0.088512
vt 0.490984 0.088512
vt 0.490984 0.088512
vt 0.490984 0.088512
vt 0.490984 0.088512
vt 0.490984 0.088512
vt 0.490984 0.088512
vt 0.490984 0.088512
vt 0.490984 0.088512
vt 0.490984 0.088512
vt 0.490984 0.088512
vt 0.490984 0.088512
vt 0.490984 0.088512
vt 0.490984 0.088512
vt 0.490984 0.088512
vt 0.490984 0.088512
vt 0.490984 0.088512
vt 0.490984 0.088512
vt 0.490984 0.088512
vt 0.289068 0.902344
vt 0.289068 0.902344
vt 0.289068 0.902344
vt 0.289068 0.902344
vt 0.289068 0.902344
vt 0.289068 0.902344
vt 0.289068 0.902344
vt 0.289068 0.902344
vt 0.289068 0.902344
vt 0.289068 0.902344
vt 0.289068 0.902344
vt 0.289068 0.902344
vt 0.289068 0.902344
vt 0.289068 0.902344
vt 0.289068 0.902344
vt 0.289068 0.902344
vt 0.289068 0.902344
vt 0.289068 0.902344
vt 0.289068 0.902344
vt 0.289068 0.902344
vt 0.289068 0.902344
vt 0.289068 0.902344
vt 0.289068 0.902344
vt 0.289068 0.902344
vt 0.490984 0.088512
vt 0.490984 0.088512
vt 0.490984 0.088512
vt 0.490984 0.088512
vt 0.490984 0.088512
vt 0.490984 0.088512
vt 0.490984 0.088512
vt 0.490984 0.088512
vt 0.490984 0.088512
vt 0.490984 0.088512
vt 0.490984 0.088512
vt 0.490984 0.088512
vt 0.490984 0.088512
vt 0.490984 0.088512
vt 0.490984 0.088512
vt 0.490984 0.088512
vt 0.490984 0.088512
vt 0.490984 0.088512
vt 0.490984 0.088512
vt 0.490984 0.088512
vt 0.490984 0.088512
vt 0.490984 0.088512
vt 0.490984 0.088512
vt 0.490984 0.088512
vt 0.490984 0.088512
vt 0.490984 0.088512
vt 0.490984 0.088512
vt 0.490984 0.088512
vt 0.490984 0.088512
vt 0.490984 0.088512
vt 0.490984 0.088512
vt 0.490984 0.088512
vt 0.490984 0.088512
vt 0.490984 0.088512
vt 0.490984 0.088512
vt 0.490984 0.088512
vt 0.490984 0.088512
vt 0.490984 0.088512
vt 0.490984 0.088512
vt 0.490984 0.088512
vt 0.490984 0.088512
vt 0.490984 0.088512
vt 0.490984 0.088512
vt 0.490984 0.088512
vt 0.490984 0.088512
vt 0.490984 0.088512
vt 0.490984 0.088512
vt 0.490984 0.088512
vt 0.490984 0.088512
vt 0.490984 0.088512
vt 0.490984 0.088512
vt 0.490984 0.088512
vt 0.490984 0.088512
vt 0.490984 0.088512
vt 0.490984 0.088512
vt 0.490984 0.088512
vt 0.490984 0.088512
vt 0.490984 0.088512
vt 0.490984 0.088512
vt 0.490984 0.088512
vt 0.490984 0.088512
vt 0.490984 0.088512
vt 0.490984 0.088512
vt 0.490984 0.088512
s 1
g armchair.014_Material
usemtl Material
f 1/1/1 11/11/2 4/4/3 3/3/4
f 3/3/4 4/4/3 8/8/5 7/7/6
f 7/7/6 8/8/5 6/6/7 5/5/8
f 5/5/8 6/6/7 11/11/2 1/1/1
f 9/9/9 13/13/10 15/15/11 10/10/12
f 14/14/13 12/12/14 2/2/15 16/16/16
f 1/1/1 3/3/4 9/9/9 10/10/12
f 4/4/3 11/11/2 2/2/15 12/12/14
f 3/3/4 7/7/6 13/13/10 9/9/9
f 8/8/5 4/4/3 12/12/14 14/14/13
f 7/7/6 5/5/8 15/15/11 13/13/10
f 6/6/7 8/8/5 14/14/13 16/16/16
f 5/5/8 1/1/1 10/10/12 15/15/11
f 11/11/2 6/6/7 16/16/16 2/2/15
f 17/17/17 27/27/18 20/20/19 19/19/20
f 19/19/20 20/20/19 24/24/21 23/23/22
f 23/23/22 24/24/21 22/22/23 21/21/24
f 21/21/24 22/22/23 27/27/18 17/17/17
f 25/25/25 29/29/26 31/31/27 26/26/28
f 30/30/29 28/28/30 18/18/31 32/32/32
f 17/17/17 19/19/20 25/25/25 26/26/28
f 20/20/19 27/27/18 18/18/31 28/28/30
f 19/19/20 23/23/22 29/29/26 25/25/25
f 24/24/21 20/20/19 28/28/30 30/30/29
f 23/23/22 21/21/24 31/31/27 29/29/26
f 22/22/23 24/24/21 30/30/29 32/32/32
f 21/21/24 17/17/17 26/26/28 31/31/27
f 27/27/18 22/22/23 32/32/32 18/18/31
f 33/33/33 43/43/34 36/36/35 35/35/36
f 56/56/37 55/55/38 49/49/39 50/50/40
f 39/39/41 40/40/42 38/38/43 37/37/44
f 52/52/45 51/51/46 54/54/47 53/53/48
f 41/41/9 45/45/10 47/47/11 42/42/12
f 46/46/49 44/44/50 34/34/51 48/48/52
f 53/53/48 56/56/37 41/41/9 42/42/12
f 55/55/38 54/54/47 34/34/51 44/44/50
f 56/56/37 50/50/40 45/45/10 41/41/9
f 49/49/39 55/55/38 44/44/50 46/46/49
f 50/50/40 52/52/45 47/47/11 45/45/10
f 51/51/46 49/49/39 46/46/49 48/48/52
f 52/52/45 53/53/48 42/42/12 47/47/11
f 54/54/47 51/51/46 48/48/52 34/34/51
f 40/40/42 39/39/41 50/50/40 49/49/39
f 37/37/44 38/38/43 51/51/46 52/52/45
f 39/39/41 37/37/44 52/52/45 50/50/40
f 38/38/43 40/40/42 49/49/39 51/51/46
f 43/43/34 33/33/33 53/53/48 54/54/47
f 35/35/36 36/36/35 55/55/38 56/56/37
f 33/33/33 35/35/36 56/56/37 53/53/48
f 36/36/35 43/43/34 54/54/47 55/55/38
f 57/57/53 67/67/54 60/60/55 59/59/56
f 80/80/57 79/79/58 73/73/59 74/74/60
f 63/63/61 64/64/62 62/62/63 61/61/64
f 76/76/65 75/75/66 78/78/67 77/77/68
f 65/65/12 69/69/9 71/71/10 66/66/11
f 70/70/69 68/68/70 58/58/71 72/72/72
f 77/77/68 80/80/57 65/65/12 66/66/11
f 79/79/58 78/78/67 58/58/71 68/68/70
f 80/80/57 74/74/60 69/69/9 65/65/12
f 73/73/59 79/79/58 68/68/70 70/70/69
f 74/74/60 76/76/65 71/71/10 69/69/9
f 75/75/66 73/73/59 70/70/69 72/72/72
f 76/76/65 77/77/68 66/66/11 71/71/10
f 78/78/67 75/75/66 72/72/72 58/58/71
f 64/64/62 63/63/61 74/74/60 73/73/59
f 61/61/64 62/62/63 75/75/66 76/76/65
f 63/63/61 61/61/64 76/76/65 74/74/60
f 62/62/63 64/64/62 73/73/59 75/75/66
f 67/67/54 57/57/53 77/77/68 78/78/67
f 59/59/56 60/60/55 79/79/58 80/80/57
f 57/57/53 59/59/56 80/80/57 77/77/68
f 60/60/55 67/67/54 78/78/67 79/79/58
f 90/90/73 81/81/73 82/82/73 89/89/73
f 81/81/74 84/84/74 83/83/74 82/82/74
f 96/96/75 97/97/75 99/99/76 94/94/76
f 93/93/77 100/100/77 98/98/77 95/95/77
f 94/94/78 93/93/78 86/86/78 85/85/78
f 85/85/74 86/86/74 87/87/74 88/88/74
f 88/88/73 87/87/73 95/95/73 96/96/73
f 83/83/78 84/84/78 92/92/78 91/91/78
f 92/92/75 84/84/75 81/81/75 90/90/76
f 96/96/75 94/94/76 85/85/75 88/88/75
f 87/87/77 86/86/77 93/93/77 95/95/77
f 89/89/77 82/82/77 83/83/77 91/91/77
f 98/98/73 106/106/73 105/105/73 97/97/73
f 102/102/78 110/110/78 109/109/78 101/101/78
f 92/92/78 102/102/78 101/101/78 91/91/78
f 95/95/73 98/98/73 97/97/73 96/96/73
f 91/91/77 101/101/77 104/104/77 89/89/77
f 103/103/79 99/99/79 100/100/79 104/104/79
f 90/90/76 103/103/76 102/102/75 92/92/75
f 90/90/76 94/94/76 99/99/76 103/103/76
f 105/105/75 113/113/75 115/115/76 107/107/76
f 108/108/77 116/116/77 114/114/77 106/106/77
f 101/101/77 109/109/77 112/112/77 104/104/77
f 104/104/73 112/112/73 111/111/73 103/103/73
f 103/103/76 111/111/76 110/110/75 102/102/75
f 99/99/78 107/107/78 108/108/78 100/100/78
f 100/100/77 108/108/77 106/106/77 98/98/77
f 97/97/75 105/105/75 107/107/76 99/99/76
f 115/115/78 123/123/78 124/124/78 116/116/78
f 110/110/78 118/118/78 117/117/78 109/109/78
f 106/106/73 114/114/73 113/113/73 105/105/73
f 109/109/77 117/117/77 120/120/77 112/112/77
f 119/119/79 115/115/79 116/116/79 120/120/79
f 111/111/76 119/119/76 118/118/76 110/110/75
f 111/111/76 107/107/76 115/115/76 119/119/76
f 117/117/78 118/118/78 141/141/80 138/138/80
f 116/116/77 124/124/77 122/122/77 114/114/77
f 113/113/75 121/121/75 123/123/76 115/115/76
f 114/114/73 122/122/73 121/121/73 113/113/73
f 118/118/76 119/119/76 130/130/76 132/132/76 131/131/76 129/129/76 123/123/76 127/127/76 142/142/76 144/144/76 143/143/76 141/141/76
f 126/126/79 128/128/79 127/127/79 125/125/79
f 124/124/77 128/128/77 126/126/77 122/122/77
f 121/121/75 125/125/75 127/127/76 123/123/76
f 122/122/73 126/126/73 125/125/73 121/121/73
f 117/117/77 138/138/77 140/140/77 139/139/77 137/137/77 128/128/77 124/124/77 134/134/77 136/136/77 135/135/77 133/133/77 120/120/77
f 120/120/73 133/133/81 130/130/81 119/119/73
f 120/120/77 116/116/77 108/108/77 112/112/77
f 112/112/74 108/108/74 107/107/74 111/111/74
f 104/104/77 100/100/77 93/93/77 89/89/77
f 89/89/74 93/93/74 94/94/74 90/90/74
f 142/142/82 127/127/79 128/128/79 137/137/82
f 133/133/81 135/135/83 132/132/83 130/130/81
f 135/135/83 136/136/84 131/131/84 132/132/83
f 136/136/84 134/134/85 129/129/85 131/131/84
f 137/137/82 139/139/86 144/144/86 142/142/82
f 139/139/86 140/140/87 143/143/87 144/144/86
f 140/140/87 138/138/80 141/141/80 143/143/87
f 134/134/85 124/124/74 123/123/74 129/129/85
f 145/145/88 155/155/89 148/148/90 147/147/91
f 168/168/92 167/167/93 161/161/94 162/162/95
f 151/151/96 152/152/97 150/150/98 149/149/99
f 164/164/100 163/163/101 166/166/102 165/165/103
f 153/153/11 157/157/12 159/159/9 154/154/10
f 158/158/51 156/156/52 146/146/49 160/160/50
f 165/165/103 168/168/92 153/153/11 154/154/10
f 167/167/93 166/166/102 146/146/49 156/156/52
f 168/168/92 162/162/95 157/157/12 153/153/11
f 161/161/94 167/167/93 156/156/52 158/158/51
f 162/162/95 164/164/100 159/159/9 157/157/12
f 163/163/101 161/161/94 158/158/51 160/160/50
f 164/164/100 165/165/103 154/154/10 159/159/9
f 166/166/102 163/163/101 160/160/50 146/146/49
f 152/152/97 151/151/96 162/162/95 161/161/94
f 149/149/99 150/150/98 163/163/101 164/164/100
f 151/151/96 149/149/99 164/164/100 162/162/95
f 150/150/98 152/152/97 161/161/94 163/163/101
f 155/155/89 145/145/88 165/165/103 166/166/102
f 147/147/91 148/148/90 167/167/93 168/168/92
f 145/145/88 147/147/91 168/168/92 165/165/103
f 148/148/90 155/155/89 166/166/102 167/167/93
f 178/178/73 169/169/73 170/170/73 177/177/73
f 169/169/74 172/172/74 171/171/74 170/170/74
f 184/184/76 185/185/76 187/187/76 182/182/76
f 181/181/77 188/188/77 186/186/77 183/183/77
f 182/182/78 181/181/78 174/174/78 173/173/78
f 173/173/74 174/174/74 175/175/74 176/176/74
f 176/176/73 175/175/73 183/183/73 184/184/73
f 171/171/78 172/172/78 180/180/78 179/179/78
f 180/180/76 172/172/76 169/169/76 178/178/76
f 184/184/76 182/182/76 173/173/76 176/176/76
f 175/175/77 174/174/77 181/181/77 183/183/77
f 177/177/77 170/170/77 171/171/77 179/179/77
f 186/186/73 194/194/73 193/193/73 185/185/73
f 190/190/78 198/198/78 197/197/78 189/189/78
f 180/180/78 190/190/78 189/189/78 179/179/78
f 183/183/73 186/186/73 185/185/73 184/184/73
f 179/179/77 189/189/77 192/192/77 177/177/77
f 191/191/79 187/187/79 188/188/79 192/192/79
f 178/178/76 191/191/76 190/190/76 180/180/76
f 178/178/76 182/182/76 187/187/76 191/191/76
f 193/193/76 201/201/76 203/203/76 195/195/76
f 196/196/77 204/204/77 202/202/77 194/194/77
f 189/189/77 197/197/77 200/200/77 192/192/77
f 192/192/73 200/200/73 199/199/73 191/191/73
f 191/191/76 199/199/76 198/198/76 190/190/76
f 187/187/78 195/195/78 196/196/78 188/188/78
f 188/188/77 196/196/77 194/194/77 186/186/77
f 185/185/76 193/193/76 195/195/76 187/187/76
f 203/203/78 211/211/78 212/212/78 204/204/78
f 198/198/78 206/206/78 205/205/78 197/197/78
f 194/194/73 202/202/73 201/201/73 193/193/73
f 197/197/77 205/205/77 208/208/77 200/200/77
f 207/207/79 203/203/79 204/204/79 208/208/79
f 199/199/76 207/207/76 206/206/76 198/198/76
f 199/199/76 195/195/76 203/203/76 207/207/76
f 205/205/78 206/206/78 229/229/80 226/226/80
f 204/204/77 212/212/77 210/210/77 202/202/77
f 201/201/76 209/209/76 211/211/76 203/203/76
f 202/202/73 210/210/73 209/209/73 201/201/73
f 206/206/76 207/207/76 218/218/76 220/220/76 219/219/76 217/217/76 211/211/76 215/215/76 230/230/76 232/232/76 231/231/76 229/229/76
f 214/214/79 216/216/79 215/215/79 213/213/79
f 212/212/77 216/216/77 214/214/77 210/210/77
f 209/209/76 213/213/76 215/215/76 211/211/76
f 210/210/73 214/214/73 213/213/73 209/209/73
f 205/205/77 226/226/77 228/228/77 227/227/77 225/225/77 216/216/77 212/212/77 222/222/77 224/224/77 223/223/77 221/221/77 208/208/77
f 208/208/73 221/221/81 218/218/81 207/207/73
f 208/208/77 204/204/77 196/196/77 200/200/77
f 200/200/74 196/196/74 195/195/74 199/199/74
f 192/192/77 188/188/77 181/181/77 177/177/77
f 177/177/74 181/181/74 182/182/74 178/178/74
f 230/230/82 215/215/79 216/216/79 225/225/82
f 221/221/81 223/223/83 220/220/83 218/218/81
f 223/223/83 224/224/84 219/219/84 220/220/83
f 224/224/84 222/222/85 217/217/85 219/219/84
f 225/225/82 227/227/86 232/232/86 230/230/82
f 227/227/86 228/228/87 231/231/87 232/232/86
f 228/228/87 226/226/80 229/229/80 231/231/87
f 222/222/85 212/212/74 211/211/74 217/217/85
