# Blender 3.4.1
# www.blender.org
mtllib armchair017.mtl
g armchair.017_Cube.029
v -2.127938 -0.332132 2.899393
v 2.123518 -0.332132 2.899388
v 2.003418 0.411188 2.681638
v -2.007851 0.411188 2.681634
v -2.186240 -0.390427 -0.197452
v -0.514529 -0.390427 -1.869163
v -1.928090 -0.390427 -0.814599
v -1.350382 -0.390427 -1.494834
v -0.491045 0.411188 -1.690773
v -2.007850 0.411188 -0.173968
v -1.258038 0.411188 -1.334891
v -1.768146 0.411188 -0.722254
v 0.510102 -0.390427 -1.869160
v 2.181814 -0.390427 -0.197447
v 1.304945 -0.390427 -1.477067
v 1.990647 -0.390427 -0.738057
v 2.003419 0.411188 -0.173964
v 0.486618 0.411188 -1.690765
v 1.830707 0.411188 -0.645713
v 1.212601 0.411188 -1.317126
v 2.123518 0.135315 2.899388
v -2.127938 0.135315 2.899393
v -1.350382 0.193610 -1.494834
v -0.514528 0.193610 -1.869163
v -1.928090 0.193610 -0.814599
v -2.186240 0.193610 -0.197452
v 1.990647 0.193610 -0.738057
v 2.181814 0.193610 -0.197447
v 1.304945 0.193610 -1.477067
v 0.510102 0.193610 -1.869160
v -2.186244 -0.390427 2.860026
v -2.186244 0.193610 2.860026
v 2.181810 0.193610 2.860031
v 2.181810 -0.390427 2.860031
v 2.735847 2.163169 0.208282
v 2.466270 2.163169 -0.926919
v 1.706548 2.163169 -1.879560
v 0.609110 2.163169 -2.408060
v -0.608952 2.163169 -2.408062
v -1.706388 2.163169 -1.879561
v -2.466113 2.163169 -0.926917
v -2.735685 2.163169 0.208276
v -2.739029 2.163169 1.978605
v 2.739187 2.163169 1.978616
v 2.358662 2.163169 0.250288
v 2.127147 2.163169 -0.764044
v 1.472053 2.163169 -1.585506
v 0.525417 2.163169 -2.041383
v -0.525271 2.163169 -2.041386
v -1.471894 2.163169 -1.585500
v -2.126993 2.163169 -0.764052
v -2.358497 2.163169 0.250291
v -2.358508 2.163169 1.978606
v 2.358665 2.163169 1.978616
v 2.628932 1.770287 -1.006125
v 1.819398 1.770295 -2.021083
v 2.913973 1.770139 0.187252
v -1.819240 1.770295 -2.021074
v -2.628775 1.770287 -1.006132
v 0.649388 1.770294 -2.584529
v -2.913808 1.770139 0.187250
v -0.649225 1.770294 -2.584525
v 2.548117 2.083935 -0.966768
v 2.824649 2.083935 0.197785
v 1.763358 2.083935 -1.950801
v 0.629381 2.083935 -2.496899
v -0.629228 2.083935 -2.496895
v -1.763197 2.083935 -1.950798
v -2.547960 2.083935 -0.966777
v -2.824495 2.083935 0.197795
v 2.045049 2.083935 -0.724512
v 2.269831 2.083935 0.260301
v 1.415242 2.083935 -1.514265
v 0.505146 2.083935 -1.952543
v -0.504995 2.083935 -1.952552
v -1.415084 2.083935 -1.514264
v -2.044900 2.083935 -0.724519
v -2.269668 2.083935 0.260295
v 2.341022 1.965904 2.200830
v -2.340878 1.965904 2.200829
v -2.731528 1.965904 2.200841
v 2.731685 1.965904 2.200831
v -2.772706 1.762960 2.200830
v 2.772850 1.762960 2.200829
v 2.548117 -1.688273 -0.966768
v 2.738683 -1.668068 0.317091
v 1.763358 -1.688273 -1.950801
v 0.629381 -1.688273 -2.496899
v -0.629228 -1.688273 -2.496895
v -1.763197 -1.688273 -1.950798
v -2.547960 -1.688273 -0.966777
v -2.738524 -1.668068 0.317096
v -2.715010 0.318820 2.200832
v 2.715168 0.309173 2.200840
v 2.045049 -1.688273 -0.724512
v 2.361654 -1.673062 0.364956
v 1.415242 -1.688273 -1.514265
v 0.505146 -1.688273 -1.952543
v -0.504995 -1.688273 -1.952552
v -1.415084 -1.688273 -1.514264
v -2.044900 -1.688273 -0.724519
v -2.361501 -1.673062 0.364966
v -2.380153 0.318820 2.200829
v 2.380296 0.309173 2.200830
v 2.127447 1.663204 0.276339
v 1.915959 1.663204 -0.662344
v 1.325908 1.663204 -1.402245
v 0.473254 1.663204 -1.812864
v -0.473106 1.663204 -1.812859
v -1.325748 1.663204 -1.402240
v -1.915802 1.663204 -0.662345
v -2.127291 1.663204 0.276335
v -2.285666 1.861184 2.200832
v 2.285823 1.861184 2.200840
v -2.828028 2.083935 2.094389
v -2.269668 2.083935 2.094391
v 2.828177 2.083935 2.094385
v 2.269831 2.083935 2.094397
v 2.891401 1.772270 2.094388
v -2.891251 1.772270 2.094385
v -2.165684 1.886699 2.094391
v 2.165833 1.886699 2.094383
v -2.828028 0.315549 2.094389
v -2.824495 -1.688273 0.197795
v 2.824649 -1.688273 0.197785
v 2.828177 0.315549 2.094385
v -2.269668 0.315549 2.094391
v -2.269668 -1.688273 0.260295
v 2.269831 -1.688273 0.260301
v 2.269831 0.315549 2.094397
v -2.127946 -2.449192 2.915101
v 2.123522 -2.449192 2.915110
v 2.003418 -0.372905 2.681638
v -2.007851 -0.372905 2.681634
v -2.186240 -2.507487 -0.197452
v -0.514528 -2.507487 -1.869163
v -1.928090 -2.507487 -0.814599
v -1.350382 -2.507487 -1.494834
v -0.491045 -0.372905 -1.690773
v -2.007850 -0.372905 -0.173968
v -1.258038 -0.372905 -1.334891
v -1.768146 -0.372905 -0.722254
v 0.510102 -2.507487 -1.869160
v 2.181814 -2.507487 -0.197447
v 1.304945 -2.507487 -1.477067
v 1.990648 -2.507487 -0.738057
v 2.003420 -0.372905 -0.173964
v 0.486618 -0.372905 -1.690765
v 1.830707 -0.372905 -0.645713
v 1.212601 -0.372905 -1.317127
v 2.123522 -0.550388 2.915110
v -2.127946 -0.550388 2.915101
v -1.350382 -0.492093 -1.494834
v -0.514528 -0.492093 -1.869163
v -1.928090 -0.492093 -0.814599
v -2.186240 -0.492093 -0.197452
v 1.990648 -0.492093 -0.738057
v 2.181814 -0.492093 -0.197447
v 1.304945 -0.492093 -1.477067
v 0.510102 -0.492093 -1.869160
v -2.186244 -2.507487 2.860026
v -2.186244 -0.492093 2.860026
v 2.181810 -0.492093 2.860031
v 2.181810 -2.507487 2.860031
v -1.937317 -2.475564 -0.146693
v -0.461325 -2.475564 -1.619772
v -1.713785 -2.475564 -0.682800
v -1.197144 -2.475564 -1.290236
v 0.452032 -2.475564 -1.619818
v 1.933160 -2.475564 -0.153902
v 1.153727 -2.475564 -1.273816
v 1.773066 -2.475564 -0.606064
v -0.461325 -2.998545 -1.619772
v -1.197144 -2.998545 -1.290236
v -1.713785 -2.998545 -0.682800
v -1.937317 -2.998545 -0.146693
v 1.933160 -2.998545 -0.153902
v 1.773066 -2.998545 -0.606064
v 1.153727 -2.998545 -1.273816
v 0.452032 -2.998545 -1.619818
v -1.984079 -2.475564 2.377548
v -1.702900 -2.475564 2.663982
v 1.698479 -2.475564 2.663968
v 1.979692 -2.475564 2.377549
v -1.702900 -2.998545 2.663982
v -1.984079 -2.998545 2.377548
v 1.979692 -2.998545 2.377549
v 1.698479 -2.998545 2.663968
vn -0.0000 -1.0000 -0.0000
vn -1.0000 -0.0000 -0.0000
vn -0.9651 0.2620 -0.0000
vn -0.9262 0.3284 -0.1850
vn -0.9804 -0.0000 -0.1968
vn 0.2255 -0.2255 0.9478
vn 0.2255 0.2255 0.9478
vn -0.2255 0.2255 0.9478
vn -0.2255 -0.2255 0.9478
vn -0.1026 0.8835 -0.4571
vn -0.2879 0.8830 -0.3706
vn -0.3880 0.8899 -0.2397
vn -0.4566 0.8844 -0.0962
vn -0.3388 0.8777 0.3388
vn 0.3388 0.8777 0.3388
vn 0.4544 0.8872 -0.0805
vn 0.3967 0.8855 -0.2419
vn 0.2814 0.8867 -0.3670
vn 0.1135 0.8816 -0.4582
vn 0.9856 -0.0000 -0.1691
vn 0.9307 0.3292 -0.1595
vn 0.9651 0.2620 -0.0000
vn 1.0000 -0.0000 -0.0000
vn -0.1958 0.3280 -0.9242
vn -0.2090 -0.0000 -0.9779
vn -0.6003 -0.0000 -0.7998
vn -0.5652 0.3271 -0.7573
vn -0.8525 -0.0000 -0.5228
vn -0.8052 0.3286 -0.4937
vn 0.8557 -0.0000 -0.5175
vn 0.8083 0.3281 -0.4888
vn 0.5976 -0.0000 -0.8018
vn 0.5632 0.3275 -0.7586
vn 0.2271 -0.0000 -0.9739
vn 0.2124 0.3274 -0.9207
vn -0.1927 0.4427 0.8757
vn 0.1927 0.4427 0.8757
vn -0.3047 -0.3046 0.9024
vn 0.3046 -0.3047 0.9024
vn 0.6187 0.1236 -0.7758
vn 0.2208 0.1236 -0.9675
vn 0.1901 0.5197 -0.8330
vn 0.5327 0.5197 -0.6680
vn 0.9875 0.1136 -0.1091
vn 0.9122 0.0863 0.4006
vn 0.8680 -0.2232 0.4437
vn 0.7088 -0.7020 0.0693
vn -0.8919 0.1242 -0.4348
vn -0.9875 0.1135 -0.1091
vn -0.8514 0.5152 -0.0986
vn -0.7677 0.5203 -0.3741
vn -0.6187 0.1236 -0.7758
vn -0.6233 -0.0260 -0.7816
vn -0.8986 -0.0261 -0.4380
vn 0.6233 -0.0260 -0.7816
vn 0.2224 -0.0260 -0.9746
vn -0.7061 -0.7045 0.0715
vn -0.2208 0.1236 -0.9675
vn -0.2224 -0.0260 -0.9746
vn 0.8919 0.1242 -0.4348
vn 0.8986 -0.0261 -0.4380
vn -0.9121 0.0862 0.4008
vn -0.8640 -0.2322 0.4468
vn -0.8915 0.1468 0.4286
vn -0.9004 -0.0429 0.4329
vn -0.6325 -0.7347 0.2455
vn -0.9821 0.1464 0.1186
vn 0.3745 0.9262 -0.0442
vn 0.3525 0.9199 -0.1716
vn -0.2748 0.9524 0.1323
vn -0.3301 0.9432 0.0372
vn 0.2448 0.9197 -0.3069
vn -0.1901 0.9524 0.2384
vn 0.0874 0.9197 -0.3827
vn -0.0679 0.9524 0.2973
vn -0.0874 0.9197 -0.3827
vn 0.0679 0.9524 0.2973
vn -0.2448 0.9197 -0.3069
vn 0.1901 0.9524 0.2384
vn -0.3525 0.9200 -0.1716
vn 0.2748 0.9524 0.1323
vn -0.3745 0.9262 -0.0442
vn 0.3301 0.9432 0.0372
vn -0.2863 0.9323 0.2209
vn 0.2861 0.9323 0.2213
vn 0.2863 0.9323 0.2209
vn -0.2861 0.9323 0.2213
vn 0.8514 0.5152 -0.0986
vn 0.6311 0.6057 0.4846
vn -0.5327 0.5197 -0.6680
vn 0.7677 0.5203 -0.3741
vn -0.6311 0.6057 0.4846
vn -0.1901 0.5197 -0.8330
vn -0.7365 0.5761 0.3544
vn -0.8151 0.5724 0.0888
vn -0.5099 0.5755 0.6394
vn -0.1820 0.5755 0.7973
vn 0.1820 0.5755 0.7973
vn 0.5099 0.5755 0.6394
vn 0.7366 0.5761 0.3544
vn 0.8151 0.5724 0.0889
vn 0.5688 0.6678 0.4801
vn -0.5688 0.6678 0.4801
vn -0.6168 0.1461 0.7734
vn -0.6229 -0.0427 0.7811
vn -0.2201 0.1461 0.9645
vn -0.2223 -0.0427 0.9740
vn 0.2201 0.1461 0.9645
vn 0.2223 -0.0427 0.9740
vn 0.6168 0.1461 0.7734
vn 0.6229 -0.0427 0.7811
vn 0.8915 0.1468 0.4286
vn 0.9004 -0.0429 0.4329
vn 0.9821 0.1464 0.1186
vn 0.6292 -0.7367 0.2477
vn 0.9041 0.1749 0.3898
vn 0.8542 -0.2432 0.4595
vn -0.8585 -0.2344 0.4560
vn -0.9043 0.1749 0.3895
vn -0.2142 0.3550 0.9100
vn -0.3966 0.0839 0.9141
vn -0.3111 -0.3421 0.8867
vn 0.3467 -0.3352 0.8760
vn 0.3820 0.0301 0.9237
vn 0.2581 0.3157 0.9131
vn 0.3086 -0.3371 0.8895
vn 0.3963 0.0839 0.9143
vn 0.2141 0.3550 0.9100
vn -0.2581 0.3157 0.9131
vn -0.3818 0.0301 0.9238
vn -0.3442 -0.3302 0.8789
vn -0.2709 -0.8217 0.5014
vn 0.2091 -0.8236 0.5272
vn -0.2167 -0.8234 0.5245
vn 0.2785 -0.8210 0.4983
vn -0.0000 -0.9555 0.2951
vn -0.9555 -0.0000 0.2951
vn 0.2891 -0.2891 0.9126
vn 0.2891 0.2891 0.9126
vn -0.2891 0.2891 0.9126
vn -0.2891 -0.2891 0.9126
vn -0.0709 0.9471 -0.3129
vn -0.1980 0.9469 -0.2533
vn -0.2651 0.9502 -0.1640
vn -0.3125 0.9476 -0.0663
vn -0.2236 0.9487 0.2236
vn 0.2236 0.9487 0.2236
vn 0.3107 0.9489 -0.0553
vn 0.2712 0.9482 -0.1656
vn 0.1931 0.9486 -0.2507
vn 0.0787 0.9462 -0.3139
vn 0.9555 -0.0000 0.2950
vn -0.1982 0.8564 0.4767
vn 0.1982 0.8564 0.4767
vn -0.1107 0.8370 -0.5359
vn -0.3238 0.8370 -0.4412
vn -0.4708 0.8338 -0.2883
vn -0.5375 0.8366 -0.1055
vn 0.5416 0.8356 -0.0921
vn 0.4686 0.8368 -0.2831
vn 0.3258 0.8345 -0.4443
vn 0.1191 0.8376 -0.5332
vn -0.9291 -0.0000 0.3698
vn -0.9787 -0.0000 -0.2053
vn 0.8556 -0.0000 -0.5176
vn 0.9840 -0.0000 -0.1784
vn -0.6000 -0.0000 -0.8000
vn 0.9291 -0.0000 0.3699
vn -0.8526 -0.0000 -0.5226
vn 0.2270 -0.0000 -0.9739
vn -0.0000 1.0000 -0.0000
vn -0.3870 -0.0000 0.9221
vn 0.3869 -0.0000 0.9221
vt 0.282136 0.263389
vt 0.282136 0.263389
vt 0.282136 0.263389
vt 0.282136 0.263389
vt 0.282136 0.263389
vt 0.282136 0.263389
vt 0.282136 0.263389
vt 0.282136 0.263389
vt 0.282136 0.263389
vt 0.282136 0.263389
vt 0.282136 0.263389
vt 0.282136 0.263389
vt 0.282136 0.263389
vt 0.282136 0.263389
vt 0.282136 0.263389
vt 0.282136 0.263389
vt 0.282136 0.263389
vt 0.282136 0.263389
vt 0.282136 0.263389
vt 0.282136 0.263389
vt 0.282136 0.263389
vt 0.282136 0.263389
vt 0.282136 0.263389
vt 0.282136 0.263389
vt 0.282136 0.263389
vt 0.282136 0.263389
vt 0.282136 0.263389
vt 0.282136 0.263389
vt 0.282136 0.263389
vt 0.282136 0.263389
vt 0.282136 0.263389
vt 0.282136 0.263389
vt 0.282136 0.263389
vt 0.282136 0.263389
vt 0.309480 0.263389
vt 0.309480 0.263389
vt 0.309480 0.263389
vt 0.309480 0.263389
vt 0.309480 0.263389
vt 0.309480 0.263389
vt 0.309480 0.263389
vt 0.309480 0.263389
vt 0.309480 0.263389
vt 0.309480 0.263389
vt 0.309480 0.263389
vt 0.309480 0.263389
vt 0.309480 0.263389
vt 0.309480 0.263389
vt 0.309480 0.263389
vt 0.309480 0.263389
vt 0.309480 0.263389
vt 0.309480 0.263389
vt 0.309480 0.263389
vt 0.309480 0.263389
vt 0.309480 0.263389
vt 0.309480 0.263389
vt 0.309480 0.263389
vt 0.309480 0.263389
vt 0.309480 0.263389
vt 0.309480 0.263389
vt 0.309480 0.263389
vt 0.309480 0.263389
vt 0.309480 0.263389
vt 0.309480 0.263389
vt 0.309480 0.263389
vt 0.309480 0.263389
vt 0.309480 0.263389
vt 0.309480 0.263389
vt 0.309480 0.263389
vt 0.309480 0.263389
vt 0.309480 0.263389
vt 0.309480 0.263389
vt 0.309480 0.263389
vt 0.309480 0.263389
vt 0.309480 0.263389
vt 0.309480 0.263389
vt 0.309480 0.263389
vt 0.309480 0.263389
vt 0.309480 0.263389
vt 0.309480 0.263389
vt 0.309480 0.263389
vt 0.309480 0.263389
vt 0.309480 0.263389
vt 0.309480 0.263389
vt 0.309480 0.263389
vt 0.309480 0.263389
vt 0.309480 0.263389
vt 0.309480 0.263389
vt 0.309480 0.263389
vt 0.309480 0.263389
vt 0.309480 0.263389
vt 0.309480 0.263389
vt 0.309480 0.263389
vt 0.309480 0.263389
vt 0.309480 0.263389
vt 0.309480 0.263389
vt 0.309480 0.263389
vt 0.309480 0.263389
vt 0.309480 0.263389
vt 0.309480 0.263389
vt 0.309480 0.263389
vt 0.309480 0.263389
vt 0.309480 0.263389
vt 0.309480 0.263389
vt 0.309480 0.263389
vt 0.309480 0.263389
vt 0.309480 0.263389
vt 0.309480 0.263389
vt 0.309480 0.263389
vt 0.309480 0.263389
vt 0.309480 0.263389
vt 0.309480 0.263389
vt 0.309480 0.263389
vt 0.309480 0.263389
vt 0.309480 0.263389
vt 0.309480 0.263389
vt 0.309480 0.263389
vt 0.309480 0.263389
vt 0.309480 0.263389
vt 0.309480 0.263389
vt 0.309480 0.263389
vt 0.309480 0.263389
vt 0.309480 0.263389
vt 0.309480 0.263389
vt 0.309480 0.263389
vt 0.309480 0.263389
vt 0.309480 0.263389
vt 0.309480 0.263389
vt 0.309480 0.263389
vt 0.309480 0.263389
vt 0.282136 0.263389
vt 0.282136 0.263389
vt 0.282136 0.263389
vt 0.282136 0.263389
vt 0.282136 0.263389
vt 0.282136 0.263389
vt 0.282136 0.263389
vt 0.282136 0.263389
vt 0.282136 0.263389
vt 0.282136 0.263389
vt 0.282136 0.263389
vt 0.282136 0.263389
vt 0.282136 0.263389
vt 0.282136 0.263389
vt 0.282136 0.263389
vt 0.282136 0.263389
vt 0.282136 0.263389
vt 0.282136 0.263389
vt 0.282136 0.263389
vt 0.282136 0.263389
vt 0.282136 0.263389
vt 0.282136 0.263389
vt 0.282136 0.263389
vt 0.282136 0.263389
vt 0.282136 0.263389
vt 0.282136 0.263389
vt 0.282136 0.263389
vt 0.282136 0.263389
vt 0.282136 0.263389
vt 0.282136 0.263389
vt 0.282136 0.263389
vt 0.282136 0.263389
vt 0.282136 0.263389
vt 0.282136 0.263389
vt 0.737214 0.943077
vt 0.737214 0.943077
vt 0.737214 0.943077
vt 0.737214 0.943077
vt 0.737214 0.943077
vt 0.737214 0.943077
vt 0.737214 0.943077
vt 0.737214 0.943077
vt 0.737214 0.943077
vt 0.737214 0.943077
vt 0.737214 0.943077
vt 0.737214 0.943077
vt 0.737214 0.943077
vt 0.737214 0.943077
vt 0.737214 0.943077
vt 0.737214 0.943077
vt 0.737214 0.943077
vt 0.737214 0.943077
vt 0.737214 0.943077
vt 0.737214 0.943077
vt 0.737214 0.943077
vt 0.737214 0.943077
vt 0.737214 0.943077
vt 0.737214 0.943077
s 1
g armchair.017_Material
usemtl Material
f 31/31/1 5/5/1 7/7/1 8/8/1 6/6/1 13/13/1 15/15/1 16/16/1 14/14/1 34/34/1
f 31/31/2 32/32/3 26/26/4 5/5/5
f 2/2/6 21/21/7 22/22/8 1/1/9
f 9/9/10 11/11/11 12/12/12 10/10/13 4/4/14 3/3/15 17/17/16 19/19/17 20/20/18 18/18/19
f 14/14/20 28/28/21 33/33/22 34/34/23
f 24/24/24 6/6/25 8/8/26 23/23/27
f 23/23/27 8/8/26 7/7/28 25/25/29
f 25/25/29 7/7/28 5/5/5 26/26/4
f 28/28/21 14/14/20 16/16/30 27/27/31
f 27/27/31 16/16/30 15/15/32 29/29/33
f 29/29/33 15/15/32 13/13/34 30/30/35
f 6/6/25 24/24/24 30/30/35 13/13/34
f 3/3/15 4/4/14 32/32/36 33/33/37
f 11/11/11 9/9/10 24/24/24 23/23/27
f 12/12/12 11/11/11 23/23/27 25/25/29
f 10/10/13 12/12/12 25/25/29 26/26/4
f 19/19/17 17/17/16 28/28/21 27/27/31
f 20/20/18 19/19/17 27/27/31 29/29/33
f 18/18/19 20/20/18 29/29/33 30/30/35
f 9/9/10 18/18/19 30/30/35 24/24/24
f 4/4/14 10/10/13 26/26/4 32/32/3
f 17/17/16 3/3/15 33/33/22 28/28/21
f 1/1/9 22/22/8 32/32/36 31/31/38
f 21/21/7 2/2/6 34/34/39 33/33/37
f 2/2/6 1/1/9 31/31/38 34/34/39
f 22/22/8 21/21/7 33/33/37 32/32/36
f 56/56/40 60/60/41 66/66/42 65/65/43
f 57/57/44 119/119/45 126/126/46 125/125/47
f 59/59/48 61/61/49 70/70/50 69/69/51
f 59/59/48 58/58/52 90/90/53 91/91/54
f 60/60/41 56/56/40 87/87/55 88/88/56
f 61/61/49 59/59/48 91/91/54 124/124/57
f 62/62/58 60/60/41 88/88/56 89/89/59
f 55/55/60 57/57/44 125/125/47 85/85/61
f 120/120/62 61/61/49 124/124/57 123/123/63
f 106/106/64 95/95/65 129/129/66 105/105/67
f 35/35/68 36/36/69 46/46/70 45/45/71
f 36/36/69 37/37/72 47/47/73 46/46/70
f 37/37/72 38/38/74 48/48/75 47/47/73
f 38/38/74 39/39/76 49/49/77 48/48/75
f 39/39/76 40/40/78 50/50/79 49/49/77
f 40/40/78 41/41/80 51/51/81 50/50/79
f 41/41/80 42/42/82 52/52/83 51/51/81
f 42/42/82 43/43/84 53/53/85 52/52/83
f 44/44/86 35/35/68 45/45/71 54/54/87
f 119/119/45 57/57/44 64/64/88 117/117/89
f 58/58/52 59/59/48 69/69/51 68/68/90
f 55/55/60 56/56/40 65/65/43 63/63/91
f 61/61/49 120/120/62 115/115/92 70/70/50
f 60/60/41 62/62/58 67/67/93 66/66/42
f 85/85/61 87/87/55 56/56/40 55/55/60
f 62/62/58 58/58/52 68/68/90 67/67/93
f 57/57/44 55/55/60 63/63/91 64/64/88
f 36/36/69 35/35/68 64/64/88 63/63/91
f 37/37/72 36/36/69 63/63/91 65/65/43
f 38/38/74 37/37/72 65/65/43 66/66/42
f 39/39/76 38/38/74 66/66/42 67/67/93
f 40/40/78 39/39/76 67/67/93 68/68/90
f 41/41/80 40/40/78 68/68/90 69/69/51
f 42/42/82 41/41/80 69/69/51 70/70/50
f 43/43/84 42/42/82 70/70/50 115/115/92
f 35/35/68 44/44/86 117/117/89 64/64/88
f 45/45/71 46/46/70 71/71/94 72/72/95
f 46/46/70 47/47/73 73/73/96 71/71/94
f 47/47/73 48/48/75 74/74/97 73/73/96
f 48/48/75 49/49/77 75/75/98 74/74/97
f 49/49/77 50/50/79 76/76/99 75/75/98
f 50/50/79 51/51/81 77/77/100 76/76/99
f 51/51/81 52/52/83 78/78/101 77/77/100
f 52/52/83 53/53/85 116/116/102 78/78/101
f 54/54/87 45/45/71 72/72/95 118/118/103
f 53/53/85 43/43/84 115/115/92 116/116/102
f 44/44/86 54/54/87 118/118/103 117/117/89
f 107/107/104 97/97/105 95/95/65 106/106/64
f 108/108/106 98/98/107 97/97/105 107/107/104
f 109/109/108 99/99/109 98/98/107 108/108/106
f 110/110/110 100/100/111 99/99/109 109/109/108
f 111/111/112 101/101/113 100/100/111 110/110/110
f 112/112/114 128/128/115 101/101/113 111/111/112
f 121/121/116 127/127/117 128/128/115 112/112/114
f 105/105/67 129/129/66 130/130/118 122/122/119
f 79/79/120 114/114/121 104/104/122 94/94/123 84/84/124 82/82/125
f 103/103/126 113/113/127 80/80/128 81/81/129 83/83/130 93/93/131
f 58/58/52 62/62/58 89/89/59 90/90/53
f 92/92/132 102/102/133 103/103/126 93/93/131
f 72/72/95 105/105/67 122/122/119 118/118/103
f 116/116/102 121/121/116 112/112/114 78/78/101
f 78/78/101 112/112/114 111/111/112 77/77/100
f 77/77/100 111/111/112 110/110/110 76/76/99
f 76/76/99 110/110/110 109/109/108 75/75/98
f 75/75/98 109/109/108 108/108/106 74/74/97
f 74/74/97 108/108/106 107/107/104 73/73/96
f 73/73/96 107/107/104 106/106/64 71/71/94
f 71/71/94 106/106/64 105/105/67 72/72/95
f 81/81/129 80/80/128 116/116/102 115/115/92
f 79/79/120 82/82/125 117/117/89 118/118/103
f 84/84/124 94/94/123 126/126/46 119/119/45
f 82/82/125 84/84/124 119/119/45 117/117/89
f 83/83/130 81/81/129 115/115/92 120/120/62
f 93/93/131 83/83/130 120/120/62 123/123/63
f 113/113/127 103/103/126 127/127/117 121/121/116
f 114/114/121 79/79/120 118/118/103 122/122/119
f 80/80/128 113/113/127 121/121/116 116/116/102
f 104/104/122 114/114/121 122/122/119 130/130/118
f 91/91/1 101/101/1 128/128/115 124/124/57
f 90/90/1 100/100/1 101/101/1 91/91/1
f 99/99/1 100/100/1 90/90/1 89/89/1
f 104/104/122 96/96/134 86/86/135 94/94/123
f 129/129/66 95/95/1 85/85/1 125/125/47
f 95/95/1 97/97/1 87/87/1 85/85/1
f 97/97/1 98/98/1 88/88/1 87/87/1
f 98/98/1 99/99/1 89/89/1 88/88/1
f 92/92/132 93/93/131 123/123/63 124/124/57
f 94/94/123 86/86/135 125/125/47 126/126/46
f 103/103/126 102/102/133 128/128/115 127/127/117
f 96/96/134 104/104/122 130/130/118 129/129/66
f 102/102/133 92/92/132 124/124/57 128/128/115
f 86/86/135 96/96/134 129/129/66 125/125/47
f 161/161/136 135/135/1 137/137/1 138/138/1 136/136/1 143/143/1 145/145/1 146/146/1 144/144/1 164/164/136
f 161/161/137 162/162/137 156/156/5 135/135/5
f 132/132/138 151/151/139 152/152/140 131/131/141
f 139/139/142 141/141/143 142/142/144 140/140/145 134/134/146 133/133/147 147/147/148 149/149/149 150/150/150 148/148/151
f 144/144/20 158/158/20 163/163/152 164/164/152
f 154/154/25 136/136/25 138/138/26 153/153/26
f 153/153/26 138/138/26 137/137/28 155/155/28
f 155/155/28 137/137/28 135/135/5 156/156/5
f 158/158/20 144/144/20 146/146/30 157/157/30
f 157/157/30 146/146/30 145/145/32 159/159/32
f 159/159/32 145/145/32 143/143/34 160/160/34
f 136/136/25 154/154/25 160/160/34 143/143/34
f 133/133/147 134/134/146 162/162/153 163/163/154
f 141/141/143 139/139/142 154/154/155 153/153/156
f 142/142/144 141/141/143 153/153/156 155/155/157
f 140/140/145 142/142/144 155/155/157 156/156/158
f 149/149/149 147/147/148 158/158/159 157/157/160
f 150/150/150 149/149/149 157/157/160 159/159/161
f 148/148/151 150/150/150 159/159/161 160/160/162
f 139/139/142 148/148/151 160/160/162 154/154/155
f 134/134/146 140/140/145 156/156/158 162/162/153
f 147/147/148 133/133/147 163/163/154 158/158/159
f 131/131/141 152/152/140 162/162/137 161/161/137
f 151/151/139 132/132/138 164/164/152 163/163/152
f 132/132/138 131/131/141 161/161/136 164/164/136
f 152/152/140 151/151/139 163/163/154 162/162/153
f 181/181/163 165/165/164 176/176/164 186/186/163
f 172/172/165 170/170/166 177/177/166 178/178/165
f 168/168/167 166/166/25 173/173/25 174/174/167
f 170/170/166 184/184/168 187/187/168 177/177/166
f 171/171/32 172/172/165 178/178/165 179/179/32
f 167/167/169 168/168/167 174/174/167 175/175/169
f 185/185/1 186/186/1 176/176/1 175/175/1 174/174/1 173/173/1 180/180/1 179/179/1 178/178/1 177/177/1 187/187/1 188/188/1
f 169/169/170 171/171/32 179/179/32 180/180/170
f 165/165/164 167/167/169 175/175/169 176/176/164
f 181/181/171 182/182/171 183/183/171 184/184/171 170/170/171 172/172/171 171/171/171 169/169/171 166/166/171 168/168/171 167/167/171 165/165/171
f 166/166/25 169/169/170 180/180/170 173/173/25
f 185/185/172 182/182/172 181/181/163 186/186/163
f 183/183/173 188/188/173 187/187/168 184/184/168
f 183/183/173 182/182/172 185/185/172 188/188/173
