# Blender 3.4.1
# www.blender.org
mtllib armchair007.mtl
g armchair.007_Circle.001
v 1.423423 -0.283703 0.099203
v 1.282206 -0.283703 -0.487149
v 0.886516 -0.283703 -0.983327
v 0.314745 -0.283703 -1.258674
v -0.319892 -0.283703 -1.258681
v -0.891669 -0.283703 -0.983320
v -1.287359 -0.283703 -0.487152
v -1.428571 -0.283703 0.099212
v 1.147196 0.465043 0.068385
v 1.029145 0.465043 -0.421772
v 0.714990 0.465043 -0.815712
v 0.262655 0.465043 -1.033546
v -0.239405 0.465043 -1.033553
v -0.691730 0.465043 -0.815712
v -1.005901 0.465043 -0.421779
v -1.123939 0.465043 0.068392
v 1.147191 0.465043 1.669512
v 1.316149 -0.176428 2.094035
v -1.321306 -0.176428 2.094028
v -1.123944 0.465043 1.669519
v 1.282206 0.322752 -0.487149
v 1.423423 0.322752 0.099203
v 0.886516 0.322752 -0.983327
v 0.314745 0.322752 -1.258674
v -0.319892 0.322752 -1.258681
v -0.891669 0.322752 -0.983320
v -1.287359 0.322752 -0.487152
v -1.428571 0.322752 0.099212
v 1.316149 0.215477 2.094035
v -1.321306 0.215477 2.094028
v 1.423427 0.322752 2.025250
v 1.423427 -0.283703 2.025250
v -1.428580 -0.283703 2.025243
v -1.428580 0.322752 2.025243
v 1.423423 -0.283702 0.099203
v 1.282206 -0.283702 -0.487149
v 0.886516 -0.283702 -0.983327
v 0.314744 -0.283702 -1.258672
v -0.319892 -0.283702 -1.258681
v -0.891669 -0.283702 -0.983320
v -1.287359 -0.283702 -0.487152
v -1.428571 -0.283702 0.099212
v 1.423423 0.726060 0.099203
v 1.282206 0.726060 -0.487149
v 0.886516 0.726060 -0.983327
v 0.314744 0.726060 -1.258672
v -0.319892 0.726060 -1.258681
v -0.891669 0.726060 -0.983320
v -1.287359 0.726060 -0.487152
v -1.428571 0.726060 0.099212
v 1.544279 -0.283702 -0.613353
v 1.707002 -0.283702 0.099201
v 1.067881 -0.283702 -1.210736
v 0.379466 -0.283702 -1.542262
v -0.384621 -0.283702 -1.542267
v -1.073036 -0.283702 -1.210745
v -1.549423 -0.283702 -0.613352
v -1.712164 -0.283702 0.099200
v 1.544279 0.726060 -0.613353
v 1.707002 0.726060 0.099201
v 1.067881 0.726060 -1.210736
v 0.379466 0.726060 -1.542262
v -0.384621 0.726060 -1.542267
v -1.073036 0.726060 -1.210745
v -1.549423 0.726060 -0.613352
v -1.712164 0.726060 0.099200
v 1.423427 0.726060 2.025250
v 1.423427 -0.283702 2.025250
v -1.428580 -0.283702 2.025243
v -1.428580 0.726060 2.025243
v 1.707008 0.726060 2.025247
v 1.707008 -0.283702 2.025247
v -1.712161 -0.283702 2.025247
v -1.712161 0.726060 2.025247
v 0.886516 1.721236 -0.983327
v 1.282206 1.721236 -0.487149
v -1.287359 1.721236 -0.487152
v -0.891669 1.721236 -0.983320
v 1.067881 1.721236 -1.210736
v 1.544279 1.721236 -0.613353
v -1.549423 1.721236 -0.613352
v -1.073036 1.721236 -1.210745
v 0.886516 2.369534 -0.983327
v -0.891669 2.369534 -0.983320
v 1.067881 2.369534 -1.210736
v -1.073036 2.369534 -1.210745
v -0.384621 1.721236 -1.542267
v -0.319892 1.721236 -1.258681
v 0.379466 1.721236 -1.542262
v 0.314745 1.721236 -1.258674
v -0.384621 2.369534 -1.542267
v -0.319892 2.369534 -1.258681
v 0.379466 2.369534 -1.542262
v 0.314745 2.369534 -1.258674
v 1.282206 1.961041 -0.487149
v 1.020958 2.369534 -0.814743
v -1.026124 2.369534 -0.814743
v -1.287359 1.961041 -0.487152
v 1.283031 2.369534 -0.940947
v 1.544279 1.961041 -0.613353
v -1.549423 1.961041 -0.613352
v -1.288187 2.369534 -0.940944
v 1.492996 -0.276763 1.645480
v 1.437752 -0.276763 1.721710
v 1.491935 -1.938852 1.744348
v 1.523687 -1.938852 1.700512
v 1.692681 -0.276763 1.721712
v 1.637443 -0.276763 1.645478
v 1.606735 -1.938852 1.700517
v 1.638490 -1.938852 1.744343
v 1.437757 -0.276763 1.828225
v 1.492996 -0.276763 1.904457
v 1.523691 -1.938852 1.849405
v 1.491934 -1.938852 1.805581
v 1.637442 -0.276763 1.904457
v 1.692672 -0.276763 1.828213
v 1.638490 -1.938852 1.805574
v 1.606738 -1.938852 1.849410
v 1.359345 -0.276763 -0.624170
v 1.304114 -0.276763 -0.547926
v 1.358290 -1.938852 -1.186574
v 1.390053 -1.938852 -1.230395
v 1.559030 -0.276763 -0.547938
v 1.503791 -0.276763 -0.624170
v 1.473089 -1.938852 -1.230405
v 1.504858 -1.938852 -1.186566
v 1.304106 -0.276763 -0.441425
v 1.359345 -0.276763 -0.365193
v 1.390056 -1.938852 -1.081502
v 1.358288 -1.938852 -1.125342
v 1.503791 -0.276763 -0.365193
v 1.559035 -0.276763 -0.441423
v 1.504856 -1.938852 -1.125333
v 1.473092 -1.938852 -1.081512
v -1.626977 -0.276763 1.645480
v -1.682221 -0.276763 1.721710
v -1.628039 -1.938852 1.744350
v -1.596287 -1.938852 1.700514
v -1.427292 -0.276763 1.721712
v -1.482531 -0.276763 1.645480
v -1.513239 -1.938852 1.700519
v -1.481482 -1.938852 1.744343
v -1.682230 -0.276763 1.828212
v -1.626977 -0.276763 1.904457
v -1.596284 -1.938852 1.849407
v -1.628039 -1.938852 1.805581
v -1.482531 -0.276763 1.904457
v -1.427300 -0.276763 1.828213
v -1.481484 -1.938852 1.805576
v -1.513236 -1.938852 1.849412
v -1.506702 -0.276763 -0.624163
v -1.561946 -0.276763 -0.547933
v -1.507758 -1.938852 -1.186566
v -1.476007 -1.938852 -1.230402
v -1.307016 -0.276763 -0.547931
v -1.362256 -0.276763 -0.624163
v -1.392959 -1.938852 -1.230397
v -1.361204 -1.938852 -1.186571
v -1.561941 -0.276763 -0.441418
v -1.506703 -0.276763 -0.365184
v -1.476003 -1.938852 -1.081509
v -1.507760 -1.938852 -1.125333
v -1.362256 -0.276763 -0.365186
v -1.307011 -0.276763 -0.441416
v -1.361204 -1.938852 -1.125340
v -1.392956 -1.938852 -1.081504
vn 0.6235 -0.0000 -0.7818
vn 0.2225 -0.0000 -0.9749
vn 0.1976 0.4604 -0.8654
vn 0.5545 0.4658 -0.6896
vn 0.9930 -0.0000 -0.1179
vn 0.8984 -0.0000 -0.4393
vn 0.7908 0.4794 -0.3805
vn 0.8598 0.5011 -0.0984
vn -0.6235 -0.0000 -0.7818
vn -0.8984 -0.0000 -0.4393
vn -0.7832 0.4948 -0.3764
vn -0.5518 0.4784 -0.6830
vn -0.2225 -0.0000 -0.9749
vn -0.2003 0.4654 -0.8622
vn -0.9930 -0.0000 -0.1179
vn -0.8504 0.5170 -0.0976
vn 0.6606 0.5539 0.5068
vn 0.6304 -0.6304 0.4530
vn -0.6304 -0.6304 0.4530
vn -0.6605 0.5569 0.5036
vn 0.2163 0.2163 0.9521
vn -0.2163 0.2163 0.9520
vn -0.2163 -0.2163 0.9520
vn 0.2163 -0.2163 0.9521
vn 0.2517 0.9587 -0.1325
vn 0.1835 0.9535 -0.2390
vn 0.0683 0.9515 -0.3000
vn -0.0620 0.9533 -0.2955
vn -0.1713 0.9583 -0.2287
vn -0.2328 0.9646 -0.1239
vn -0.2346 0.9716 -0.0318
vn -0.1693 0.9756 0.1398
vn 0.1873 0.9726 0.1376
vn 0.2550 0.9663 -0.0347
vn -0.0000 -1.0000 -0.0000
vn -0.6235 -0.0000 0.7818
vn -0.8768 -0.0000 0.4809
vn -0.2225 -0.0000 0.9749
vn -0.9930 -0.0000 0.1179
vn -0.6616 -0.0000 0.7498
vn -0.8984 -0.0000 0.4393
vn 0.6235 -0.0000 0.7818
vn 0.8768 -0.0000 0.4809
vn 0.6616 -0.0000 0.7498
vn 0.8984 -0.0000 0.4393
vn 0.2225 -0.0000 0.9749
vn 0.9930 -0.0000 0.1179
vn 0.6810 -0.0000 -0.7323
vn 0.9937 -0.0000 -0.1120
vn 0.9009 -0.0000 -0.4339
vn 0.8654 -0.0000 -0.5010
vn -0.9009 -0.0000 -0.4339
vn -0.8654 -0.0000 -0.5010
vn -0.6810 -0.0000 -0.7323
vn -0.9937 -0.0000 -0.1120
vn -0.0000 1.0000 -0.0000
vn 0.7818 -0.0000 -0.6235
vn 1.0000 -0.0000 -0.0000
vn -0.7818 -0.0000 -0.6235
vn -1.0000 -0.0000 -0.0000
vn -0.0000 -0.0000 1.0000
vn 0.7818 -0.0000 0.6235
vn 0.1472 0.2908 0.9454
vn -0.4339 -0.0000 0.9010
vn 0.4339 -0.0000 0.9010
vn -0.4044 0.3621 0.8398
vn 0.4044 0.3621 0.8398
vn -0.1472 0.2908 0.9454
vn 0.1459 0.9417 0.3031
vn 0.1865 0.9029 0.3873
vn -0.1459 0.9417 0.3031
vn -0.1865 0.9029 0.3873
vn -0.7818 -0.0000 0.6235
vn 0.9509 -0.0352 -0.3076
vn 0.9505 -0.0352 -0.3087
vn 0.9505 -0.0352 0.3087
vn 0.9509 -0.0352 0.3076
vn -0.4546 -0.0379 0.8899
vn -0.4539 -0.0379 0.8903
vn 0.4539 -0.0379 0.8902
vn 0.4546 -0.0379 0.8899
vn -0.4546 -0.0379 -0.8899
vn 0.4546 -0.0379 -0.8899
vn 0.4539 -0.0379 -0.8903
vn -0.4539 -0.0379 -0.8903
vn -0.9508 -0.0352 -0.3077
vn -0.9505 -0.0352 -0.3087
vn -0.9505 -0.0352 0.3088
vn -0.9508 -0.0352 0.3077
vn 0.7245 0.6657 -0.1786
vn 0.3470 0.7259 -0.5939
vn -0.3471 0.7258 -0.5939
vn -0.7245 0.6657 -0.1786
vn 0.9221 0.1122 -0.3703
vn 0.9130 -0.1803 0.3658
vn 0.7025 -0.6907 0.1718
vn -0.3875 -0.3709 0.8440
vn -0.3337 -0.7496 0.5716
vn 0.3337 -0.7496 0.5716
vn 0.3875 -0.3709 0.8440
vn -0.7025 -0.6907 0.1717
vn 0.3946 0.3084 -0.8656
vn -0.3946 0.3084 -0.8655
vn -0.9221 0.1122 -0.3703
vn -0.9131 -0.1803 0.3658
vn 0.9508 -0.0352 -0.3077
vn -0.9505 -0.0352 -0.3088
vn -0.9505 -0.0352 0.3087
vn 0.3471 0.7259 -0.5939
vn -0.3470 0.7259 -0.5939
vn 0.9131 -0.1803 0.3658
vn 0.7024 -0.6907 0.1717
vn 0.3338 -0.7496 0.5716
vn -0.7025 -0.6907 0.1718
vn 0.3946 0.3084 -0.8655
vt 0.060547 0.279851
vt 0.060547 0.279851
vt 0.060547 0.279851
vt 0.060547 0.279851
vt 0.060547 0.279851
vt 0.060547 0.279851
vt 0.060547 0.279851
vt 0.060547 0.279851
vt 0.060547 0.279851
vt 0.060547 0.279851
vt 0.060547 0.279851
vt 0.060547 0.279851
vt 0.060547 0.279851
vt 0.060547 0.279851
vt 0.060547 0.279851
vt 0.060547 0.279851
vt 0.060547 0.279851
vt 0.060547 0.279851
vt 0.060547 0.279851
vt 0.060547 0.279851
vt 0.060547 0.279851
vt 0.060547 0.279851
vt 0.060547 0.279851
vt 0.060547 0.279851
vt 0.060547 0.279851
vt 0.060547 0.279851
vt 0.060547 0.279851
vt 0.060547 0.279851
vt 0.060547 0.279851
vt 0.060547 0.279851
vt 0.060547 0.279851
vt 0.060547 0.279851
vt 0.060547 0.279851
vt 0.060547 0.279851
vt 0.814453 0.094305
vt 0.814453 0.094305
vt 0.814453 0.094305
vt 0.814453 0.094305
vt 0.814453 0.094305
vt 0.814453 0.094305
vt 0.814453 0.094305
vt 0.814453 0.094305
vt 0.814453 0.094305
vt 0.814453 0.094305
vt 0.814453 0.094305
vt 0.814453 0.094305
vt 0.814453 0.094305
vt 0.814453 0.094305
vt 0.814453 0.094305
vt 0.814453 0.094305
vt 0.814453 0.094305
vt 0.814453 0.094305
vt 0.814453 0.094305
vt 0.814453 0.094305
vt 0.814453 0.094305
vt 0.814453 0.094305
vt 0.814453 0.094305
vt 0.814453 0.094305
vt 0.814453 0.094305
vt 0.814453 0.094305
vt 0.814453 0.094305
vt 0.814453 0.094305
vt 0.814453 0.094305
vt 0.814453 0.094305
vt 0.814453 0.094305
vt 0.814453 0.094305
vt 0.814453 0.094305
vt 0.814453 0.094305
vt 0.814453 0.094305
vt 0.814453 0.094305
vt 0.814453 0.094305
vt 0.814453 0.094305
vt 0.814453 0.094305
vt 0.814453 0.094305
vt 0.814453 0.094305
vt 0.814453 0.094305
vt 0.814453 0.094305
vt 0.814453 0.094305
vt 0.814453 0.094305
vt 0.814453 0.094305
vt 0.814453 0.094305
vt 0.814453 0.094305
vt 0.814453 0.094305
vt 0.814453 0.094305
vt 0.814453 0.094305
vt 0.814453 0.094305
vt 0.814453 0.094305
vt 0.814453 0.094305
vt 0.814453 0.094305
vt 0.814453 0.094305
vt 0.814453 0.094305
vt 0.814453 0.094305
vt 0.814453 0.094305
vt 0.814453 0.094305
vt 0.814453 0.094305
vt 0.814453 0.094305
vt 0.814453 0.094305
vt 0.814453 0.094305
vt 0.814453 0.094305
vt 0.814453 0.094305
vt 0.814453 0.094305
vt 0.814453 0.094305
vt 0.806641 0.092351
vt 0.806641 0.092351
vt 0.806641 0.092351
vt 0.806641 0.092351
vt 0.806641 0.092351
vt 0.806641 0.092351
vt 0.806641 0.092351
vt 0.806641 0.092351
vt 0.806641 0.092351
vt 0.806641 0.092351
vt 0.806641 0.092351
vt 0.806641 0.092351
vt 0.806641 0.092351
vt 0.806641 0.092351
vt 0.806641 0.092351
vt 0.806641 0.092351
vt 0.806641 0.092351
vt 0.806641 0.092351
vt 0.806641 0.092351
vt 0.806641 0.092351
vt 0.806641 0.092351
vt 0.806641 0.092351
vt 0.806641 0.092351
vt 0.806641 0.092351
vt 0.806641 0.092351
vt 0.806641 0.092351
vt 0.806641 0.092351
vt 0.806641 0.092351
vt 0.806641 0.092351
vt 0.806641 0.092351
vt 0.806641 0.092351
vt 0.806641 0.092351
vt 0.806641 0.092351
vt 0.806641 0.092351
vt 0.806641 0.092351
vt 0.806641 0.092351
vt 0.806641 0.092351
vt 0.806641 0.092351
vt 0.806641 0.092351
vt 0.806641 0.092351
vt 0.806641 0.092351
vt 0.806641 0.092351
vt 0.806641 0.092351
vt 0.806641 0.092351
vt 0.806641 0.092351
vt 0.806641 0.092351
vt 0.806641 0.092351
vt 0.806641 0.092351
vt 0.806641 0.092351
vt 0.806641 0.092351
vt 0.806641 0.092351
vt 0.806641 0.092351
vt 0.806641 0.092351
vt 0.806641 0.092351
vt 0.806641 0.092351
vt 0.806641 0.092351
vt 0.806641 0.092351
vt 0.806641 0.092351
vt 0.806641 0.092351
vt 0.806641 0.092351
vt 0.806641 0.092351
vt 0.806641 0.092351
vt 0.806641 0.092351
vt 0.806641 0.092351
s 1
g armchair.007_Material
usemtl Material
f 3/3/1 4/4/2 24/24/3 23/23/4
f 1/1/5 2/2/6 21/21/7 22/22/8
f 6/6/9 7/7/10 27/27/11 26/26/12
f 4/4/2 5/5/13 25/25/14 24/24/3
f 2/2/6 3/3/1 23/23/4 21/21/7
f 7/7/10 8/8/15 28/28/16 27/27/11
f 5/5/13 6/6/9 26/26/12 25/25/14
f 22/22/8 31/31/17 32/32/18 1/1/5
f 8/8/15 33/33/19 34/34/20 28/28/16
f 29/29/21 30/30/22 19/19/23 18/18/24
f 10/10/25 11/11/26 12/12/27 13/13/28 14/14/29 15/15/30 16/16/31 20/20/32 17/17/33 9/9/34
f 2/2/35 1/1/35 32/32/18 33/33/19 8/8/35 7/7/35 6/6/35 5/5/35 4/4/35 3/3/35
f 9/9/34 22/22/8 21/21/7 10/10/25
f 10/10/25 21/21/7 23/23/4 11/11/26
f 11/11/26 23/23/4 24/24/3 12/12/27
f 12/12/27 24/24/3 25/25/14 13/13/28
f 13/13/28 25/25/14 26/26/12 14/14/29
f 14/14/29 26/26/12 27/27/11 15/15/30
f 15/15/30 27/27/11 28/28/16 16/16/31
f 17/17/33 31/31/17 22/22/8 9/9/34
f 16/16/31 28/28/16 34/34/20 20/20/32
f 20/20/32 34/34/20 31/31/17 17/17/33
f 18/18/24 32/32/18 31/31/17 29/29/21
f 30/30/22 34/34/20 33/33/19 19/19/23
f 29/29/21 31/31/17 34/34/20 30/30/22
f 19/19/23 33/33/19 32/32/18 18/18/24
f 37/37/36 45/45/37 46/46/38 38/38/38
f 35/35/39 43/43/39 44/44/40 36/36/41
f 40/40/42 48/48/43 49/49/44 41/41/45
f 38/38/38 46/46/38 47/47/46 39/39/46
f 36/36/41 44/44/40 45/45/37 37/37/36
f 41/41/45 49/49/44 50/50/47 42/42/47
f 39/39/46 47/47/46 48/48/43 40/40/42
f 53/53/1 54/54/2 62/62/2 61/61/48
f 52/52/49 51/51/50 59/59/51 60/60/49
f 56/56/9 57/57/52 65/65/53 64/64/54
f 54/54/2 55/55/13 63/63/13 62/62/2
f 51/51/50 53/53/1 61/61/48 59/59/51
f 57/57/52 58/58/55 66/66/55 65/65/53
f 55/55/13 56/56/9 64/64/54 63/63/13
f 48/48/56 47/47/56 63/63/56 64/64/56
f 39/39/35 40/40/35 56/56/35 55/55/35
f 48/48/43 64/64/57 82/82/57 78/78/43
f 40/40/35 41/41/35 57/57/35 56/56/35
f 50/50/56 49/49/56 65/65/56 66/66/56
f 41/41/35 42/42/35 58/58/35 57/57/35
f 52/52/49 60/60/49 71/71/58 72/72/58
f 44/44/56 43/43/56 60/60/56 59/59/56
f 35/35/35 36/36/35 51/51/35 52/52/35
f 61/61/59 45/45/37 75/75/37 79/79/59
f 36/36/35 37/37/35 53/53/35 51/51/35
f 43/43/39 35/35/39 68/68/60 67/67/60
f 46/46/56 45/45/56 61/61/56 62/62/56
f 37/37/35 38/38/35 54/54/35 53/53/35
f 47/47/56 46/46/56 62/62/56 63/63/56
f 38/38/35 39/39/35 55/55/35 54/54/35
f 69/69/61 70/70/61 74/74/61 73/73/61
f 67/67/61 68/68/61 72/72/61 71/71/61
f 42/42/47 50/50/47 70/70/58 69/69/58
f 66/66/55 58/58/55 73/73/60 74/74/60
f 60/60/56 43/43/56 67/67/56 71/71/56
f 50/50/56 66/66/56 74/74/56 70/70/56
f 35/35/35 52/52/35 72/72/35 68/68/35
f 58/58/35 42/42/35 69/69/35 73/73/35
f 82/82/54 86/86/9 91/91/13 87/87/13
f 77/77/46 78/78/43 84/84/42 97/97/62 98/98/63
f 49/49/44 48/48/43 78/78/43 77/77/46
f 64/64/54 65/65/53 81/81/59 82/82/54
f 45/45/37 44/44/40 76/76/38 75/75/37
f 59/59/51 61/61/48 79/79/48 80/80/57
f 65/65/64 49/49/44 77/77/46 81/81/64
f 44/44/40 59/59/65 80/80/65 76/76/38
f 81/81/64 77/77/46 98/98/63 101/101/66
f 76/76/38 80/80/65 100/100/67 95/95/68
f 82/82/54 81/81/59 101/101/59 102/102/59 86/86/9
f 83/83/56 96/96/69 99/99/70 85/85/56
f 85/85/1 79/79/48 89/89/2 93/93/2
f 80/80/57 79/79/48 85/85/1 99/99/57 100/100/57
f 97/97/71 84/84/56 86/86/56 102/102/72
f 94/94/56 93/93/56 91/91/56 92/92/56
f 90/90/38 94/94/38 92/92/46 88/88/46
f 78/78/35 82/82/35 87/87/35 88/88/35
f 86/86/56 84/84/56 92/92/56 91/91/56
f 75/75/37 83/83/36 94/94/38 90/90/38
f 79/79/35 75/75/35 90/90/35 89/89/35
f 84/84/42 78/78/43 88/88/46 92/92/46
f 83/83/56 85/85/56 93/93/56 94/94/56
f 93/93/2 89/89/2 87/87/13 91/91/13
f 89/89/35 90/90/35 88/88/35 87/87/35
f 101/101/66 98/98/63 97/97/71 102/102/72
f 99/99/70 96/96/69 95/95/68 100/100/67
f 75/75/37 76/76/38 95/95/68 96/96/73 83/83/36
f 107/107/56 108/108/56 103/103/56 104/104/56 111/111/56 112/112/56 115/115/56 116/116/56
f 110/110/74 107/107/75 116/116/76 117/117/77
f 112/112/78 113/113/79 118/118/80 115/115/81
f 105/105/35 106/106/35 109/109/35 110/110/35 117/117/35 118/118/35 113/113/35 114/114/35
f 103/103/82 108/108/83 109/109/84 106/106/85
f 103/103/82 106/106/85 105/105/86 104/104/87
f 107/107/75 110/110/74 109/109/84 108/108/83
f 111/111/88 114/114/89 113/113/79 112/112/78
f 115/115/81 118/118/80 117/117/77 116/116/76
f 104/104/87 105/105/86 114/114/89 111/111/88
f 123/123/90 124/124/91 119/119/92 120/120/93 127/127/56 128/128/56 131/131/56 132/132/56
f 126/126/94 123/123/90 132/132/95 133/133/96
f 128/128/97 129/129/98 134/134/99 131/131/100
f 121/121/35 122/122/35 125/125/35 126/126/35 133/133/96 134/134/99 129/129/98 130/130/101
f 119/119/92 124/124/91 125/125/102 122/122/103
f 119/119/92 122/122/103 121/121/104 120/120/93
f 123/123/90 126/126/94 125/125/102 124/124/91
f 127/127/105 130/130/101 129/129/98 128/128/97
f 131/131/100 134/134/99 133/133/96 132/132/95
f 120/120/93 121/121/104 130/130/101 127/127/105
f 139/139/56 140/140/56 135/135/56 136/136/56 143/143/56 144/144/56 147/147/56 148/148/56
f 142/142/106 139/139/75 148/148/76 149/149/77
f 144/144/78 145/145/79 150/150/80 147/147/81
f 137/137/35 138/138/35 141/141/35 142/142/35 149/149/35 150/150/35 145/145/35 146/146/35
f 135/135/82 140/140/83 141/141/84 138/138/85
f 135/135/82 138/138/85 137/137/86 136/136/107
f 139/139/75 142/142/106 141/141/84 140/140/83
f 143/143/108 146/146/89 145/145/79 144/144/78
f 147/147/81 150/150/80 149/149/77 148/148/76
f 136/136/107 137/137/86 146/146/89 143/143/108
f 155/155/90 156/156/109 151/151/110 152/152/93 159/159/56 160/160/56 163/163/56 164/164/56
f 158/158/94 155/155/90 164/164/111 165/165/112
f 160/160/97 161/161/98 166/166/113 163/163/100
f 153/153/35 154/154/35 157/157/35 158/158/35 165/165/112 166/166/113 161/161/98 162/162/114
f 151/151/110 156/156/109 157/157/115 154/154/103
f 151/151/110 154/154/103 153/153/104 152/152/93
f 155/155/90 158/158/94 157/157/115 156/156/109
f 159/159/105 162/162/114 161/161/98 160/160/97
f 163/163/100 166/166/113 165/165/112 164/164/111
f 152/152/93 153/153/104 162/162/114 159/159/105
