# Blender 3.4.1
# www.blender.org
mtllib armchair013.mtl
g armchair.013_Cube.058
v 2.023246 -0.586484 -1.467285
v 1.764545 -0.586484 -1.467292
v 2.023243 -2.247431 1.969419
v 1.764555 -2.247430 1.969426
v 1.764555 -2.247430 2.158272
v 2.023242 -2.247431 2.158265
v 2.023246 -0.807099 -1.057820
v 1.764545 -0.807100 -1.057827
v 1.477938 -0.798971 2.152437
v 2.023242 -0.586484 2.158265
v 2.023244 -2.247431 -1.278439
v 1.764544 -2.247430 -1.278445
v 1.764545 -2.247430 -1.467292
v 2.023246 -2.247431 -1.467285
v 2.023240 -0.807100 1.748802
v 1.764554 -0.807100 1.748808
v 1.764554 -1.487103 1.748808
v 2.023240 -1.487103 1.748802
v 1.477938 -1.495232 2.152437
v 2.023242 -1.707719 2.158265
v 1.764545 -1.487103 -1.057827
v 2.023246 -1.487103 -1.057820
v 1.764545 -1.707719 -1.467292
v 2.023246 -1.707719 -1.467285
v -1.758213 -0.586484 -1.467282
v -2.016914 -0.586484 -1.467288
v -1.758216 -2.247431 1.969423
v -2.016917 -2.247430 1.969416
v -2.016917 -2.247430 2.158261
v -1.758216 -2.247431 2.158268
v -1.758212 -0.807100 -1.057817
v -2.016913 -0.807099 -1.057824
v -2.016917 -0.586484 2.158261
v -1.471609 -0.798971 2.152433
v -1.758214 -2.247431 -1.278436
v -2.016914 -2.247430 -1.278443
v -2.016914 -2.247430 -1.467288
v -1.758213 -2.247431 -1.467282
v -1.758218 -0.807100 1.748804
v -2.016905 -0.807100 1.748811
v -2.016905 -1.487103 1.748811
v -1.758218 -1.487103 1.748804
v -2.016917 -1.707719 2.158261
v -1.471609 -1.495232 2.152433
v -2.016913 -1.487103 -1.057824
v -1.758212 -1.487103 -1.057817
v -2.016914 -1.707719 -1.467288
v -1.758213 -1.707719 -1.467282
v 1.697697 0.176382 -1.278440
v 1.697699 0.176382 -1.467287
v -1.691367 0.176382 -1.278441
v -1.691365 0.176382 -1.467288
v -1.691367 1.740708 -1.278441
v -1.051464 2.380610 -1.278440
v -1.051463 2.380610 -1.467286
v -1.691365 1.740708 -1.467288
v 1.057795 2.380610 -1.278442
v 1.697697 1.740708 -1.278440
v 1.697699 1.740708 -1.467287
v 1.057795 2.380610 -1.467287
v 1.764544 -1.707719 -1.278445
v 1.764552 -0.380852 -1.072804
v 2.023248 -0.380852 1.763792
v 2.023243 -1.707719 1.969419
v 1.477935 -1.495232 1.975248
v 1.477935 -0.798971 1.975248
v 2.023240 -0.380852 -1.072811
v 2.023244 -1.707719 -1.278439
v -2.016914 -1.707719 -1.278443
v -2.016906 -0.380852 -1.072801
v -1.471612 -0.798971 1.975243
v -1.471612 -1.495232 1.975243
v -2.016917 -1.707719 1.969416
v -2.016912 -0.380852 1.763788
v -1.758219 -0.380852 -1.072808
v -1.758214 -1.707719 -1.278436
v 1.764555 -1.707719 1.969426
v 1.764547 -0.380852 1.763785
v 1.764555 -1.707719 2.158272
v 1.764555 -0.586484 2.158272
v -1.758211 -0.380852 1.763795
v -1.758216 -1.707719 1.969423
v -1.758216 -1.707719 2.158268
v -1.758216 -0.586484 2.158268
v 2.023244 -0.149165 -1.278439
v -2.016914 -0.149165 -1.278443
v -2.016914 -0.149165 -1.467288
v 2.023246 -0.149165 -1.467285
v 2.023244 1.875554 -1.278439
v 1.192638 2.706157 -1.278442
v 1.192640 2.706157 -1.467288
v 2.023246 1.875554 -1.467285
v -2.016914 1.875554 -1.467288
v -1.186307 2.706157 -1.467285
v -1.186308 2.706157 -1.278439
v -2.016914 1.875554 -1.278443
v 2.023240 0.862631 -0.603221
v 2.023240 0.393039 -1.072811
v 1.764552 0.393039 -1.072804
v 1.764552 0.862631 -0.603214
v 1.764548 0.862631 1.294194
v 1.764547 0.393039 1.763785
v 2.023248 0.393039 1.763792
v 2.023249 0.862631 1.294201
v -1.758220 0.862631 -0.603217
v -1.758219 0.393039 -1.072808
v -2.016906 0.393039 -1.072801
v -2.016907 0.862631 -0.603211
v -2.016910 0.862631 1.294197
v -2.016912 0.393039 1.763788
v -1.758211 0.393039 1.763795
v -1.758224 0.862631 1.294191
v 1.764544 -0.586484 -1.278445
v 1.764555 -0.586484 1.969426
v 2.023243 -0.586484 1.969419
v 2.023244 -0.586484 -1.278439
v -2.016914 -0.586484 -1.278443
v -2.016917 -0.586484 1.969416
v -1.758216 -0.586484 1.969423
v -1.758214 -0.586484 -1.278436
v 2.023244 0.478215 -1.278439
v 2.023248 1.068264 -0.688386
v 1.764547 1.068263 -0.688393
v 1.764544 0.478214 -1.278445
v 1.764555 0.478214 1.969426
v 1.764552 1.068263 1.379374
v 2.023239 1.068263 1.379367
v 2.023243 0.478214 1.969419
v -1.758214 0.478214 -1.278436
v -1.758224 1.068263 -0.688397
v -2.016911 1.068264 -0.688390
v -2.016914 0.478215 -1.278443
v -2.016917 0.478214 1.969416
v -2.016907 1.068263 1.379377
v -1.758220 1.068263 1.379370
v -1.758216 0.478214 1.969423
v -1.745609 -0.531360 2.264670
v -1.612419 0.143125 2.101701
v -1.745616 -0.531360 -1.263736
v -1.745616 -0.008449 -1.263736
v 1.761448 -0.531360 2.264662
v 1.761448 -0.008449 2.264662
v 1.761455 -0.531360 -1.263731
v 1.761455 -0.008449 -1.263731
v -1.690193 -0.592997 -1.197560
v -1.690188 -0.592997 2.146075
v -1.745609 -0.008449 2.264670
v -1.612431 0.143125 -1.100773
v 1.706024 -0.592997 -1.197564
v 1.628266 0.143125 -1.100763
v 1.706029 -0.592997 2.146072
v 1.628263 0.143125 2.101699
v 1.697697 0.176382 -1.278440
v -1.691367 0.176382 -1.278441
v -1.691367 1.740708 -1.278441
v -1.051464 2.380610 -1.278440
v 1.057795 2.380610 -1.278442
v 1.697697 1.740708 -1.278440
v 1.305605 0.530807 -0.918447
v -1.299267 0.530807 -0.918453
v 1.305605 1.686371 -0.918447
v 0.813766 2.178205 -0.918452
v -0.807428 2.178205 -0.918448
v -1.299267 1.686371 -0.918453
v -0.857500 0.117529 -0.200824
v -0.969349 0.227482 -0.231721
v -0.969344 1.876703 -0.694977
v -0.857509 1.986656 -0.725864
v 0.781374 1.986656 -0.725861
v 0.893210 1.876703 -0.694978
v 0.893218 0.227482 -0.231708
v 0.781368 0.117529 -0.200834
v -0.344232 0.793283 0.114522
v -0.344238 1.468800 -0.075235
v 0.320004 1.468800 -0.075241
v 0.320009 0.793283 0.114515
v 0.507631 1.747134 -0.315252
v 0.643793 1.613269 -0.277648
v 0.643793 0.564548 0.016935
v 0.507630 0.430683 0.054535
v -0.531868 0.430683 0.054536
v -0.668030 0.564547 0.016932
v -0.668030 1.613269 -0.277651
v -0.531868 1.747134 -0.315250
v -0.468494 0.422023 -0.721841
v -0.468490 1.350263 -0.982575
v 0.444260 1.350263 -0.982579
v 0.444269 0.422023 -0.721830
v 0.507642 1.568357 -0.951687
v 0.643792 1.434493 -0.914097
v 0.643792 0.385771 -0.619515
v 0.507642 0.251907 -0.581901
v -0.531869 0.251907 -0.581913
v -0.668019 0.385771 -0.619503
v -0.668019 1.434493 -0.914086
v -0.531869 1.568357 -0.951699
vn -0.0000 -0.0000 -1.0000
vn -0.0000 -1.0000 -0.0000
vn 1.0000 -0.0000 -0.0000
vn -0.0000 -0.0000 1.0000
vn -0.0060 -0.0056 1.0000
vn -0.0040 0.0037 1.0000
vn -0.0000 1.0000 -0.0000
vn -1.0000 -0.0000 -0.0000
vn -0.0000 0.3827 0.9239
vn 0.0040 0.0037 1.0000
vn 0.0060 -0.0056 1.0000
vn -0.0000 -0.3827 -0.9239
vn -0.0000 -0.9239 -0.3827
vn -0.9239 -0.3827 -0.0000
vn -0.3827 -0.9239 -0.0000
vn -0.9239 0.3827 -0.0000
vn -0.3827 0.9239 -0.0000
vn 0.3827 0.9239 -0.0000
vn 0.9239 0.3827 -0.0000
vn -0.0095 -0.0146 -0.9998
vn -0.0121 -0.0111 -0.9999
vn -0.0121 0.0111 -0.9999
vn -0.0095 0.0146 -0.9998
vn -0.0095 0.0146 0.9998
vn -0.0095 -0.0146 0.9998
vn 0.0095 0.0146 -0.9998
vn 0.0121 0.0111 -0.9999
vn 0.0121 -0.0111 -0.9999
vn 0.0095 -0.0146 -0.9998
vn 0.0095 -0.0146 0.9998
vn 0.0095 0.0146 0.9998
vn 0.3827 -0.9239 -0.0000
vn 0.9239 -0.3827 -0.0000
vn -0.0000 0.9239 0.3827
vn -0.0000 0.9239 -0.3827
vn -0.0000 0.3827 -0.9239
vn -0.0000 -0.9239 0.3827
vn -0.0000 -0.3827 0.9239
vn -0.6195 -0.4446 0.6469
vn -0.6469 0.3880 0.6564
vn -0.6469 0.3880 -0.6564
vn -0.6471 -0.3895 -0.6554
vn 0.6469 0.3880 -0.6564
vn 0.6471 -0.3895 -0.6554
vn 0.6469 0.3880 0.6564
vn 0.6195 -0.4446 0.6469
vn -0.3258 -0.9024 -0.2821
vn 0.3257 -0.9024 -0.2821
vn 0.3470 -0.9229 0.1670
vn -0.3470 -0.9229 0.1670
vn 0.3309 0.9008 -0.2813
vn -0.3309 0.9008 -0.2813
vn -0.3309 0.9008 0.2813
vn 0.3309 0.9008 0.2813
vn 0.2810 -0.3060 0.9096
vn 0.4015 0.1962 0.8946
vn 0.1550 0.5093 0.8465
vn -0.1550 0.5093 0.8465
vn -0.4015 0.1962 0.8946
vn -0.2810 -0.3060 0.9096
vn -0.4031 -0.3934 0.8263
vn 0.4031 -0.3934 0.8263
vn 0.3429 0.7002 0.6262
vn -0.3429 0.7002 0.6262
vn 0.6388 0.2378 0.7317
vn -0.6388 0.2378 0.7317
vn -0.4616 -0.8540 0.2399
vn 0.4483 -0.8606 0.2417
vn 0.1916 -0.3409 0.9204
vn -0.1787 -0.3372 0.9243
vn 0.1745 0.4250 0.8882
vn -0.1745 0.4250 0.8882
vn -0.1745 0.0997 0.9796
vn 0.1745 0.0997 0.9796
vn 0.2614 0.7477 0.6104
vn -0.2600 0.7300 0.6320
vn -0.1712 0.7099 0.6832
vn 0.1826 0.7117 0.6784
vn 0.9025 -0.4147 0.1165
vn 0.8892 0.4405 -0.1237
vn 0.5634 0.3786 0.7343
vn 0.5685 0.0326 0.8221
vn -0.5318 0.0440 0.8457
vn -0.5941 -0.0606 0.8021
vn -0.5426 0.4759 0.6922
vn -0.5262 0.3824 0.7595
vn -0.1747 -0.7731 -0.6098
vn 0.1876 -0.7742 -0.6045
vn 0.1724 -0.0983 -0.9801
vn 0.1724 -0.4265 -0.8879
vn -0.1724 -0.4265 -0.8879
vn -0.1724 -0.0983 -0.9801
vn 0.2614 0.3205 -0.9105
vn 0.1788 0.2597 -0.9490
vn -0.1674 0.2556 -0.9522
vn -0.2600 0.2941 -0.9197
vn 0.5730 -0.3949 -0.7182
vn 0.5679 -0.0632 -0.8207
vn -0.5941 -0.4694 -0.6532
vn -0.5363 -0.3977 -0.7444
vn -0.5307 -0.0731 -0.8444
vn -0.5426 0.0459 -0.8387
vt 0.447630 0.898426
vt 0.447630 0.898426
vt 0.447630 0.898426
vt 0.447630 0.898426
vt 0.447630 0.898426
vt 0.447630 0.898426
vt 0.447630 0.898426
vt 0.447630 0.898426
vt 0.447630 0.898426
vt 0.447630 0.898426
vt 0.447630 0.898426
vt 0.447630 0.898426
vt 0.447630 0.898426
vt 0.447630 0.898426
vt 0.447630 0.898426
vt 0.447630 0.898426
vt 0.447630 0.898426
vt 0.447630 0.898426
vt 0.447630 0.898426
vt 0.447630 0.898426
vt 0.447630 0.898426
vt 0.447630 0.898426
vt 0.447630 0.898426
vt 0.447630 0.898426
vt 0.447630 0.898426
vt 0.447630 0.898426
vt 0.447630 0.898426
vt 0.447630 0.898426
vt 0.447630 0.898426
vt 0.447630 0.898426
vt 0.447630 0.898426
vt 0.447630 0.898426
vt 0.447630 0.898426
vt 0.447630 0.898426
vt 0.447630 0.898426
vt 0.447630 0.898426
vt 0.447630 0.898426
vt 0.447630 0.898426
vt 0.447630 0.898426
vt 0.447630 0.898426
vt 0.447630 0.898426
vt 0.447630 0.898426
vt 0.447630 0.898426
vt 0.447630 0.898426
vt 0.447630 0.898426
vt 0.447630 0.898426
vt 0.447630 0.898426
vt 0.447630 0.898426
vt 0.447630 0.898426
vt 0.447630 0.898426
vt 0.447630 0.898426
vt 0.447630 0.898426
vt 0.447630 0.898426
vt 0.447630 0.898426
vt 0.447630 0.898426
vt 0.447630 0.898426
vt 0.447630 0.898426
vt 0.447630 0.898426
vt 0.447630 0.898426
vt 0.447630 0.898426
vt 0.447630 0.898426
vt 0.447630 0.898426
vt 0.447630 0.898426
vt 0.447630 0.898426
vt 0.447630 0.898426
vt 0.447630 0.898426
vt 0.447630 0.898426
vt 0.447630 0.898426
vt 0.447630 0.898426
vt 0.447630 0.898426
vt 0.447630 0.898426
vt 0.447630 0.898426
vt 0.447630 0.898426
vt 0.447630 0.898426
vt 0.447630 0.898426
vt 0.447630 0.898426
vt 0.447630 0.898426
vt 0.447630 0.898426
vt 0.447630 0.898426
vt 0.447630 0.898426
vt 0.447630 0.898426
vt 0.447630 0.898426
vt 0.447630 0.898426
vt 0.447630 0.898426
vt 0.447630 0.898426
vt 0.447630 0.898426
vt 0.447630 0.898426
vt 0.447630 0.898426
vt 0.447630 0.898426
vt 0.447630 0.898426
vt 0.447630 0.898426
vt 0.447630 0.898426
vt 0.447630 0.898426
vt 0.447630 0.898426
vt 0.447630 0.898426
vt 0.447630 0.898426
vt 0.447630 0.898426
vt 0.447630 0.898426
vt 0.447630 0.898426
vt 0.447630 0.898426
vt 0.447630 0.898426
vt 0.447630 0.898426
vt 0.447630 0.898426
vt 0.447630 0.898426
vt 0.447630 0.898426
vt 0.447630 0.898426
vt 0.447630 0.898426
vt 0.447630 0.898426
vt 0.447630 0.898426
vt 0.447630 0.898426
vt 0.447630 0.898426
vt 0.447630 0.898426
vt 0.447630 0.898426
vt 0.447630 0.898426
vt 0.447630 0.898426
vt 0.447630 0.898426
vt 0.447630 0.898426
vt 0.447630 0.898426
vt 0.447630 0.898426
vt 0.447630 0.898426
vt 0.447630 0.898426
vt 0.447630 0.898426
vt 0.447630 0.898426
vt 0.447630 0.898426
vt 0.447630 0.898426
vt 0.447630 0.898426
vt 0.447630 0.898426
vt 0.447630 0.898426
vt 0.447630 0.898426
vt 0.447630 0.898426
vt 0.447630 0.898426
vt 0.447630 0.898426
vt 0.447630 0.898426
vt 0.447630 0.898426
vt 0.447630 0.898426
vt 0.447630 0.898426
vt 0.116969 0.914342
vt 0.116969 0.914342
vt 0.116969 0.914342
vt 0.116969 0.914342
vt 0.116969 0.914342
vt 0.116969 0.914342
vt 0.116969 0.914342
vt 0.116969 0.914342
vt 0.116969 0.914342
vt 0.116969 0.914342
vt 0.116969 0.914342
vt 0.116969 0.914342
vt 0.116969 0.914342
vt 0.116969 0.914342
vt 0.116969 0.914342
vt 0.116969 0.914342
vt 0.116969 0.914342
vt 0.116969 0.914342
vt 0.116969 0.914342
vt 0.116969 0.914342
vt 0.116969 0.914342
vt 0.116969 0.914342
vt 0.116969 0.914342
vt 0.116969 0.914342
vt 0.116969 0.914342
vt 0.116969 0.914342
vt 0.116969 0.914342
vt 0.116969 0.914342
vt 0.116969 0.914342
vt 0.116969 0.914342
vt 0.116969 0.914342
vt 0.116969 0.914342
vt 0.116969 0.914342
vt 0.116969 0.914342
vt 0.116969 0.914342
vt 0.116969 0.914342
vt 0.116969 0.914342
vt 0.116969 0.914342
vt 0.116969 0.914342
vt 0.116969 0.914342
vt 0.116969 0.914342
vt 0.116969 0.914342
vt 0.116969 0.914342
vt 0.116969 0.914342
vt 0.116969 0.914342
vt 0.116969 0.914342
vt 0.116969 0.914342
vt 0.116969 0.914342
vt 0.116969 0.914342
vt 0.116969 0.914342
vt 0.116969 0.914342
vt 0.116969 0.914342
vt 0.116969 0.914342
vt 0.116969 0.914342
vt 0.116969 0.914342
vt 0.116969 0.914342
vt 0.116969 0.914342
vt 0.116969 0.914342
vt 0.116969 0.914342
vt 0.116969 0.914342
s 1
g armchair.013_Material
usemtl Material
f 64/64/1 3/3/1 4/4/1 77/77/1
f 3/3/2 6/6/2 5/5/2 4/4/2
f 24/24/3 1/1/3 116/116/3 68/68/3
f 77/77/2 61/61/2 68/68/2 64/64/2
f 64/64/3 115/115/3 10/10/3 20/20/3
f 68/68/4 61/61/4 12/12/4 11/11/4
f 11/11/2 12/12/2 13/13/2 14/14/2
f 20/20/4 10/10/4 80/80/5 79/79/6
f 114/114/7 80/80/7 10/10/7 115/115/7
f 23/23/1 2/2/1 1/1/1 24/24/1
f 14/14/1 13/13/1 23/23/1 24/24/1
f 25/25/1 2/2/1 23/23/1 48/48/1
f 5/5/4 6/6/4 20/20/4 79/79/6
f 20/20/3 6/6/3 3/3/3 64/64/3
f 24/24/3 68/68/3 11/11/3 14/14/3
f 117/117/8 86/86/8 87/87/8 26/26/8
f 13/13/8 12/12/8 61/61/8 23/23/8
f 77/77/8 4/4/8 5/5/8 79/79/8
f 44/44/3 72/72/3 71/71/3 34/34/3
f 18/18/1 17/17/1 16/16/1 15/15/1
f 22/22/7 21/21/7 17/17/7 18/18/7
f 119/119/4 136/136/9 133/133/9 118/118/4
f 82/82/1 27/27/1 28/28/1 73/73/1
f 27/27/2 30/30/2 29/29/2 28/28/2
f 116/116/4 85/85/4 86/86/4 117/117/4 120/120/4 113/113/4
f 73/73/2 69/69/2 76/76/2 82/82/2
f 82/82/2 77/77/2 79/79/2 83/83/2
f 76/76/4 69/69/4 36/36/4 35/35/4
f 35/35/2 36/36/2 37/37/2 38/38/2
f 83/83/10 84/84/11 33/33/4 43/43/4
f 118/118/7 33/33/7 84/84/7 119/119/7
f 47/47/1 26/26/1 25/25/1 48/48/1
f 38/38/1 37/37/1 47/47/1 48/48/1
f 69/69/8 117/117/8 26/26/8 47/47/8
f 29/29/4 30/30/4 83/83/10 43/43/4
f 83/83/3 30/30/3 27/27/3 82/82/3
f 48/48/3 76/76/3 35/35/3 38/38/3
f 37/37/8 36/36/8 69/69/8 47/47/8
f 73/73/8 28/28/8 29/29/8 43/43/8
f 43/43/8 33/33/8 118/118/8 73/73/8
f 42/42/1 41/41/1 40/40/1 39/39/1
f 46/46/7 45/45/7 41/41/7 42/42/7
f 103/103/12 102/102/12 101/101/13 104/104/13
f 84/84/7 80/80/7 114/114/7 119/119/7
f 19/19/7 65/65/7 72/72/7 44/44/7
f 48/48/2 23/23/2 61/61/2 76/76/2
f 76/76/4 61/61/4 113/113/4 120/120/4
f 59/59/14 58/58/14 57/57/15 60/60/15
f 25/25/1 26/26/1 87/87/1 88/88/1 1/1/1 2/2/1
f 86/86/8 96/96/16 93/93/16 87/87/8
f 1/1/3 88/88/3 85/85/3 116/116/3
f 94/94/17 95/95/17 90/90/18 91/91/18
f 88/88/3 92/92/19 89/89/19 85/85/3
f 90/90/18 89/89/19 92/92/19 91/91/18
f 94/94/17 93/93/16 96/96/16 95/95/17
f 50/50/8 49/49/8 58/58/14 59/59/14
f 8/8/8 113/113/8 61/61/8 21/21/8
f 15/15/3 115/115/3 64/64/3 18/18/3
f 17/17/8 77/77/8 114/114/8 16/16/8
f 22/22/3 68/68/3 116/116/3 7/7/3
f 16/16/8 114/114/8 113/113/8 8/8/8
f 21/21/8 61/61/8 77/77/8 17/17/8
f 18/18/3 64/64/3 68/68/3 22/22/3
f 7/7/3 116/116/3 115/115/3 15/15/3
f 32/32/8 117/117/8 69/69/8 45/45/8
f 39/39/3 119/119/3 82/82/3 42/42/3
f 41/41/8 73/73/8 118/118/8 40/40/8
f 46/46/3 76/76/3 120/120/3 31/31/3
f 40/40/8 118/118/8 117/117/8 32/32/8
f 45/45/8 69/69/8 73/73/8 41/41/8
f 42/42/3 82/82/3 76/76/3 46/46/3
f 31/31/3 120/120/3 119/119/3 39/39/3
f 15/15/2 16/16/2 8/8/2 7/7/2
f 7/7/4 8/8/4 21/21/4 22/22/4
f 39/39/2 40/40/2 32/32/2 31/31/2
f 31/31/4 32/32/4 45/45/4 46/46/4
f 66/66/20 114/114/21 77/77/22 65/65/23
f 19/19/24 79/79/6 80/80/5 9/9/25
f 72/72/26 82/82/27 119/119/28 71/71/29
f 34/34/30 84/84/11 83/83/10 44/44/31
f 65/65/23 77/77/22 82/82/27 72/72/26
f 44/44/31 83/83/10 79/79/6 19/19/24
f 9/9/25 80/80/5 84/84/11 34/34/30
f 71/71/29 119/119/28 114/114/21 66/66/20
f 34/34/2 71/71/2 66/66/2 9/9/2
f 9/9/8 66/66/8 65/65/8 19/19/8
f 51/51/4 86/86/4 85/85/4 49/49/4
f 50/50/1 88/88/1 87/87/1 52/52/1
f 58/58/4 89/89/4 90/90/4 57/57/4
f 60/60/1 91/91/1 92/92/1 59/59/1
f 56/56/1 93/93/1 94/94/1 55/55/1
f 54/54/4 95/95/4 96/96/4 53/53/4
f 49/49/4 85/85/4 89/89/4 58/58/4
f 53/53/4 96/96/4 86/86/4 51/51/4
f 57/57/4 90/90/4 95/95/4 54/54/4
f 55/55/1 94/94/1 91/91/1 60/60/1
f 52/52/1 87/87/1 93/93/1 56/56/1
f 59/59/1 92/92/1 88/88/1 50/50/1
f 60/60/15 57/57/15 54/54/32 55/55/32
f 55/55/32 54/54/32 53/53/33 56/56/33
f 56/56/33 53/53/33 51/51/3 52/52/3
f 52/52/7 51/51/7 49/49/7 50/50/7
f 63/63/1 78/78/1 102/102/12 103/103/12
f 111/111/12 110/110/12 109/109/13 112/112/13
f 135/135/34 130/130/35 131/131/35 134/134/34
f 127/127/34 122/122/35 123/123/35 126/126/34
f 81/81/1 74/74/1 110/110/12 111/111/12
f 117/117/1 132/132/36 129/129/36 120/120/1
f 115/115/4 128/128/9 125/125/9 114/114/4
f 122/122/35 121/121/36 124/124/36 123/123/35
f 126/126/34 125/125/9 128/128/9 127/127/34
f 130/130/35 129/129/36 132/132/36 131/131/35
f 134/134/34 133/133/9 136/136/9 135/135/34
f 113/113/1 124/124/36 121/121/36 116/116/1
f 62/62/8 113/113/8 114/114/8 78/78/8
f 63/63/3 115/115/3 116/116/3 67/67/3
f 70/70/8 117/117/8 118/118/8 74/74/8
f 81/81/3 119/119/3 120/120/3 75/75/3
f 98/98/3 121/121/3 122/122/3 97/97/3
f 100/100/8 123/123/8 124/124/8 99/99/8
f 102/102/8 125/125/8 126/126/8 101/101/8
f 104/104/3 127/127/3 128/128/3 103/103/3
f 106/106/3 129/129/3 130/130/3 105/105/3
f 108/108/8 131/131/8 132/132/8 107/107/8
f 110/110/8 133/133/8 134/134/8 109/109/8
f 112/112/3 135/135/3 136/136/3 111/111/3
f 99/99/8 124/124/8 113/113/8 62/62/8
f 67/67/3 116/116/3 121/121/3 98/98/3
f 97/97/3 122/122/3 127/127/3 104/104/3
f 101/101/8 126/126/8 123/123/8 100/100/8
f 103/103/3 128/128/3 115/115/3 63/63/3
f 78/78/8 114/114/8 125/125/8 102/102/8
f 107/107/8 132/132/8 117/117/8 70/70/8
f 75/75/3 120/120/3 129/129/3 106/106/3
f 105/105/3 130/130/3 135/135/3 112/112/3
f 109/109/8 134/134/8 131/131/8 108/108/8
f 111/111/3 136/136/3 119/119/3 81/81/3
f 74/74/8 118/118/8 133/133/8 110/110/8
f 104/104/13 101/101/13 100/100/37 97/97/37
f 97/97/37 100/100/37 99/99/38 98/98/38
f 98/98/38 99/99/38 62/62/4 67/67/4
f 67/67/7 62/62/7 78/78/7 63/63/7
f 112/112/13 109/109/13 108/108/37 105/105/37
f 105/105/37 108/108/37 107/107/38 106/106/38
f 106/106/38 107/107/38 70/70/4 75/75/4
f 75/75/7 70/70/7 74/74/7 81/81/7
f 137/137/39 147/147/40 140/140/41 139/139/42
f 139/139/42 140/140/41 144/144/43 143/143/44
f 143/143/44 144/144/43 142/142/45 141/141/46
f 141/141/46 142/142/45 147/147/40 137/137/39
f 145/145/47 149/149/48 151/151/49 146/146/50
f 150/150/51 148/148/52 138/138/53 152/152/54
f 137/137/39 139/139/42 145/145/47 146/146/50
f 140/140/41 147/147/40 138/138/53 148/148/52
f 139/139/42 143/143/44 149/149/48 145/145/47
f 144/144/43 140/140/41 148/148/52 150/150/51
f 143/143/44 141/141/46 151/151/49 149/149/48
f 142/142/45 144/144/43 150/150/51 152/152/54
f 141/141/46 137/137/39 146/146/50 151/151/49
f 147/147/40 142/142/45 152/152/54 138/138/53
f 153/153/1 154/154/1 155/155/1 156/156/1 157/157/1 158/158/1
f 159/159/55 161/161/56 162/162/57 163/163/58 164/164/59 160/160/60
f 154/154/61 153/153/62 159/159/55 160/160/60
f 157/157/63 156/156/64 163/163/58 162/162/57
f 153/153/62 158/158/65 161/161/56 159/159/55
f 158/158/65 157/157/63 162/162/57 161/161/56
f 155/155/66 154/154/61 160/160/60 164/164/59
f 156/156/64 155/155/66 164/164/59 163/163/58
f 165/165/67 172/172/68 180/180/69 181/181/70
f 175/175/71 174/174/72 173/173/73 176/176/74
f 169/169/75 168/168/76 184/184/77 177/177/78
f 171/171/79 170/170/80 178/178/81 179/179/82
f 169/169/75 177/177/78 178/178/81 170/170/80
f 180/180/69 172/172/68 171/171/79 179/179/82
f 165/165/67 181/181/70 182/182/83 166/166/84
f 184/184/77 168/168/76 167/167/85 183/183/86
f 167/167/85 166/166/84 182/182/83 183/183/86
f 175/175/71 178/178/81 177/177/78
f 176/176/74 180/180/69 179/179/82
f 173/173/73 182/182/83 181/181/70
f 174/174/72 184/184/77 183/183/86
f 173/173/73 174/174/72 183/183/86 182/182/83
f 176/176/74 173/173/73 181/181/70 180/180/69
f 174/174/72 175/175/71 177/177/78 184/184/77
f 175/175/71 176/176/74 179/179/82 178/178/81
f 165/165/67 193/193/87 192/192/88 172/172/68
f 187/187/89 188/188/90 185/185/91 186/186/92
f 169/169/93 189/189/94 196/196/95 168/168/96
f 171/171/79 191/191/97 190/190/98 170/170/80
f 169/169/93 170/170/80 190/190/98 189/189/94
f 192/192/88 191/191/97 171/171/79 172/172/68
f 165/165/67 166/166/99 194/194/100 193/193/87
f 196/196/95 195/195/101 167/167/102 168/168/96
f 167/167/102 195/195/101 194/194/100 166/166/99
f 187/187/89 189/189/94 190/190/98
f 188/188/90 191/191/97 192/192/88
f 185/185/91 193/193/87 194/194/100
f 186/186/92 195/195/101 196/196/95
f 185/185/91 194/194/100 195/195/101 186/186/92
f 188/188/90 192/192/88 193/193/87 185/185/91
f 186/186/92 196/196/95 189/189/94 187/187/89
f 187/187/89 190/190/98 191/191/97 188/188/90
