# Blender 3.4.1
# www.blender.org
mtllib armchair011.mtl
g armchair.011_Cube.034
v -1.962197 -0.182829 2.410640
v -1.803165 0.491656 2.247670
v -1.962199 -0.182829 -1.181349
v -1.962199 0.340083 -1.181349
v 1.489174 -0.182829 2.410643
v 1.489174 0.340083 2.410643
v 1.489173 -0.182829 -1.181346
v 1.489173 0.340083 -1.181346
v -1.896031 -0.244466 -1.115182
v -1.896022 -0.244466 2.344465
v -1.962197 0.340083 2.410640
v -1.803172 0.491656 -1.018387
v 1.422997 -0.244466 -1.115170
v 1.330126 0.491656 -1.018387
v 1.422993 -0.244466 2.344463
v 1.330133 0.491656 2.247669
v -2.001358 -1.172668 2.309186
v -1.913341 -0.227556 2.221169
v -2.001365 -1.172668 -1.220515
v -2.001365 -0.320166 -1.220515
v 1.528329 -1.172668 2.309179
v 1.528329 -0.320166 2.309179
v 1.528336 -1.172668 -1.220509
v 1.528336 -0.320166 -1.220509
v -1.913349 -1.265277 -1.132499
v -1.913341 -1.265277 2.221169
v -2.001358 -0.320166 2.309186
v -1.913349 -0.227556 -1.132499
v 1.440318 -1.265277 -1.132491
v 1.440318 -0.227556 -1.132491
v 1.440313 -1.265277 2.221163
v 1.440313 -0.227556 2.221163
v 1.437590 -0.980547 2.049876
v 1.662070 1.764756 2.203841
v 1.437590 -0.980547 -0.961203
v 1.437590 1.482973 -0.961203
v 2.287969 -1.044695 2.114023
v 2.287969 1.547121 2.114023
v 2.287974 -1.044695 -1.025348
v 2.287974 1.547121 -1.025348
v 1.662073 -1.262330 -1.115175
v 1.662070 -1.262330 2.203841
v 1.437590 1.482973 2.049876
v 1.662073 1.764756 -1.115175
v 2.073203 -1.262330 -1.115168
v 2.073203 1.764756 -1.115168
v 2.073202 -1.262330 2.203847
v 2.073202 1.764756 2.203847
v 2.139380 1.703119 -1.181346
v 2.139380 -1.200693 -1.181346
v 2.139370 1.703119 2.270012
v 2.139370 -1.200693 2.270012
v 1.595894 -1.200693 2.270017
v 1.595894 1.703119 2.270017
v 1.595892 1.703119 -1.181356
v 1.595892 -1.200693 -1.181356
v 1.909293 -0.936651 -1.117094
v 2.107147 1.765698 -1.439648
v -2.380720 -0.936651 -1.117104
v -2.380720 1.439076 -1.117104
v 1.863845 -0.891203 -2.189825
v 1.863845 1.393629 -2.189825
v -2.335270 -0.891203 -2.189831
v -2.335270 1.393629 -2.189831
v -2.578579 -1.262330 -1.404130
v 2.107155 -1.262330 -1.404132
v 1.909293 1.439076 -1.117094
v -2.578587 1.765698 -1.439646
v -2.578584 -1.262330 -1.815262
v -2.578589 1.765698 -1.779759
v 2.107150 -1.262330 -1.815264
v 2.107159 1.765698 -1.779748
v -2.644764 1.703119 -1.881443
v -2.644764 -1.200693 -1.881443
v 2.173326 1.703119 -1.881440
v 2.173326 -1.200693 -1.881440
v 2.173322 -1.200693 -1.337965
v 2.173322 1.703119 -1.337965
v -2.644755 1.703119 -1.337953
v -2.644755 -1.200693 -1.337953
v 1.728569 -1.375988 1.895898
v 1.987255 -1.375988 1.895893
v 1.987255 -1.898899 1.895893
v 1.728569 -1.898899 1.895898
v 1.728568 -1.898899 2.084743
v 1.987254 -1.898899 2.084738
v 1.728568 -1.250844 2.084743
v 1.987254 -1.250844 2.084738
v 1.728569 -1.375988 -1.509216
v 1.987254 -1.375988 -1.509221
v 1.987254 -1.898899 -1.509221
v 1.728569 -1.898899 -1.509216
v 1.728570 -1.898899 -1.698063
v 1.987256 -1.898899 -1.698068
v 1.728570 -1.250844 -1.698063
v 1.987256 -1.250844 -1.698068
v -1.925226 -0.980547 -0.961206
v -2.149706 1.764756 -1.115171
v -1.925224 -0.980547 2.049871
v -1.925224 1.482973 2.049871
v -2.775606 -1.044695 -1.025352
v -2.775606 1.547121 -1.025352
v -2.775609 -1.044695 2.114018
v -2.775609 1.547121 2.114018
v -2.149708 -1.262330 2.203845
v -2.149706 -1.262330 -1.115171
v -1.925226 1.482973 -0.961206
v -2.149708 1.764756 2.203845
v -2.560839 -1.262330 2.203839
v -2.560839 1.764756 2.203839
v -2.560838 -1.262330 -1.115176
v -2.560838 1.764756 -1.115176
v -2.627016 1.703119 2.270016
v -2.627016 -1.200693 2.270016
v -2.627020 1.703119 -1.181356
v -2.627020 -1.200693 -1.181356
v -2.083530 -1.200693 -1.181347
v -2.083530 1.703119 -1.181347
v -2.083540 1.703119 2.270012
v -2.083540 -1.200693 2.270012
v -2.467445 -1.375988 1.895894
v -2.208760 -1.375988 1.895889
v -2.208760 -1.898899 1.895889
v -2.467445 -1.898899 1.895894
v -2.467445 -1.898899 2.084738
v -2.208760 -1.898899 2.084733
v -2.467445 -1.250844 2.084738
v -2.208760 -1.250844 2.084733
v -2.467445 -1.375988 -1.509221
v -2.208760 -1.375988 -1.509226
v -2.208760 -1.898899 -1.509226
v -2.467445 -1.898899 -1.509221
v -2.467444 -1.898899 -1.698067
v -2.208758 -1.898899 -1.698073
v -2.467444 -1.250844 -1.698067
v -2.208758 -1.250844 -1.698073
v 0.775758 0.466061 -1.210012
v 0.806647 0.576014 -1.321850
v 1.269903 2.225235 -1.321855
v 1.300798 2.335188 -1.210004
v 1.300790 2.335188 0.428863
v 1.269902 2.225235 0.540700
v 0.806646 0.576014 0.540705
v 0.775763 0.466061 0.428869
v 0.460421 1.141814 -0.696740
v 0.650164 1.817331 -0.696748
v 0.650171 1.817331 -0.032493
v 0.460415 1.141814 -0.032499
v 0.890173 2.095665 0.155123
v 0.852573 1.961801 0.291286
v 0.557990 0.913079 0.291286
v 0.520386 0.779215 0.155124
v 0.520389 0.779215 -0.884376
v 0.557987 0.913079 -1.020537
v 0.852570 1.961801 -1.020537
v 0.890175 2.095665 -0.884376
v 1.296766 0.770555 -0.820999
v 1.557499 1.698794 -0.821002
v 1.557510 1.698794 0.091761
v 1.296761 0.770555 0.091752
v 1.526621 1.916889 0.155126
v 1.489023 1.783025 0.291287
v 1.194439 0.734303 0.291288
v 1.156835 0.600438 0.155126
v 1.156838 0.600438 -0.884374
v 1.194437 0.734303 -1.020535
v 1.489019 1.783025 -1.020535
v 1.526625 1.916889 -0.884374
vn -0.9549 -0.2968 -0.0000
vn -0.9565 0.2916 -0.0000
vn -0.0000 -0.2968 -0.9549
vn -0.0000 0.2993 -0.9541
vn 0.9549 -0.2968 -0.0000
vn 0.9565 0.2917 -0.0000
vn 0.9565 0.2916 -0.0000
vn -0.0000 -0.2968 0.9549
vn -0.0000 0.2994 0.9541
vn -0.2863 -0.9144 -0.2863
vn 0.2863 -0.9144 -0.2863
vn 0.2863 -0.9144 0.2863
vn -0.2863 -0.9144 0.2863
vn 0.2914 0.9130 -0.2854
vn -0.2915 0.9130 -0.2854
vn -0.2915 0.9130 0.2854
vn 0.2914 0.9130 0.2854
vn -0.9596 -0.2815 -0.0000
vn -0.9596 0.2815 -0.0000
vn -0.0000 -0.2815 -0.9596
vn -0.0000 0.2815 -0.9596
vn 0.9596 -0.2815 -0.0000
vn 0.9596 0.2815 -0.0000
vn -0.0000 -0.2815 0.9596
vn -0.0000 0.2815 0.9596
vn -0.3101 -0.8987 -0.3101
vn 0.3101 -0.8987 -0.3101
vn 0.3101 -0.8987 0.3101
vn -0.3101 -0.8987 0.3101
vn 0.3101 0.8987 -0.3101
vn -0.3101 0.8987 -0.3101
vn -0.3101 0.8987 0.3101
vn 0.3101 0.8987 0.3101
vn -0.9422 -0.2370 0.2370
vn -0.9422 0.2370 0.2370
vn -0.9422 0.2370 -0.2370
vn -0.9422 -0.2370 -0.2370
vn -0.0000 0.2968 -0.9549
vn 0.2262 0.2274 -0.9472
vn 0.2262 -0.2274 -0.9471
vn 0.9116 -0.2907 -0.2907
vn 0.9116 0.2907 -0.2907
vn 0.9116 0.2907 0.2907
vn 0.9116 -0.2907 0.2907
vn 0.2262 -0.2274 0.9472
vn 0.2262 0.2274 0.9472
vn -0.0000 0.2968 0.9549
vn 0.2863 0.9144 -0.2863
vn -0.2863 0.9144 -0.2863
vn -0.2863 0.9144 0.2863
vn 0.2863 0.9144 0.2863
vn -0.8460 -0.4898 0.2107
vn -0.8460 -0.4898 -0.2107
vn -0.8460 0.4898 -0.2107
vn -0.8460 0.4898 0.2107
vn 0.7032 -0.7110 -0.0000
vn 0.7032 0.7110 -0.0000
vn 0.2655 -0.2655 0.9268
vn 0.2655 0.2655 0.9268
vn -0.2655 0.2655 0.9268
vn -0.2655 -0.2655 0.9268
vn -0.9688 0.2480 -0.0000
vn -0.9544 0.1844 -0.2349
vn -0.9484 -0.2259 -0.2223
vn -0.2995 -0.2995 -0.9059
vn -0.2995 0.2995 -0.9059
vn 0.2995 0.2995 -0.9059
vn 0.2995 -0.2995 -0.9059
vn 0.9484 -0.2259 -0.2223
vn 0.9544 0.1844 -0.2349
vn 0.9687 0.2480 -0.0000
vn -0.3032 0.9319 -0.1992
vn -0.3032 0.9319 0.1992
vn 0.3032 0.9319 0.1992
vn 0.3032 0.9319 -0.1992
vn -0.0000 -0.6885 0.7252
vn -0.0000 0.7643 0.6448
vn -0.0000 -0.7188 -0.6952
vn -0.0000 0.7882 -0.6155
vn 0.6416 -0.0000 0.7670
vn -0.6416 -0.0000 0.7670
vn -0.0000 -0.0000 -1.0000
vn -0.0000 -1.0000 -0.0000
vn 1.0000 -0.0000 -0.0000
vn -1.0000 -0.0000 -0.0000
vn -0.0000 -0.0000 1.0000
vn -0.0000 1.0000 -0.0000
vn 0.9422 -0.2370 -0.2370
vn 0.9422 0.2370 -0.2370
vn 0.9422 0.2370 0.2370
vn 0.9422 -0.2370 0.2370
vn -0.2262 0.2274 0.9472
vn -0.2262 -0.2274 0.9472
vn -0.9116 -0.2907 0.2907
vn -0.9116 0.2907 0.2907
vn -0.9116 0.2907 -0.2907
vn -0.9116 -0.2907 -0.2907
vn -0.2262 -0.2274 -0.9472
vn -0.2262 0.2274 -0.9472
vn 0.8460 -0.4898 -0.2107
vn 0.8460 -0.4898 0.2107
vn 0.8460 0.4898 0.2107
vn 0.8460 0.4898 -0.2107
vn -0.7032 -0.7110 -0.0000
vn -0.7032 0.7110 -0.0000
vn -0.8691 -0.3824 -0.3139
vn -0.8516 -0.4174 0.3170
vn -0.9204 -0.3409 0.1917
vn -0.9243 -0.3372 -0.1787
vn -0.8882 0.4250 0.1745
vn -0.8882 0.4250 -0.1745
vn -0.9796 0.0997 -0.1744
vn -0.9796 0.0997 0.1745
vn -0.6104 0.7477 0.2614
vn -0.6320 0.7300 -0.2600
vn -0.6832 0.7099 -0.1711
vn -0.6784 0.7117 0.1826
vn -0.7679 -0.0981 0.6330
vn -0.6539 0.4912 0.5754
vn -0.7343 0.3786 0.5634
vn -0.8220 0.0326 0.5685
vn -0.8458 0.0440 -0.5318
vn -0.8021 -0.0606 -0.5941
vn -0.6922 0.4759 -0.5426
vn -0.7596 0.3824 -0.5261
vn 0.5429 -0.7790 -0.3138
vn 0.6098 -0.7731 -0.1747
vn 0.6045 -0.7742 0.1876
vn 0.5098 -0.7998 0.3170
vn 0.9801 -0.0983 0.1724
vn 0.8879 -0.4265 0.1724
vn 0.8879 -0.4265 -0.1724
vn 0.9801 -0.0983 -0.1724
vn 0.9105 0.3205 0.2614
vn 0.9490 0.2597 0.1788
vn 0.9522 0.2556 -0.1674
vn 0.9197 0.2941 -0.2600
vn 0.6045 -0.4836 0.6330
vn 0.7181 -0.3949 0.5730
vn 0.8207 -0.0632 0.5679
vn 0.8141 0.0788 0.5754
vn 0.6532 -0.4694 -0.5941
vn 0.7445 -0.3977 -0.5363
vn 0.8444 -0.0731 -0.5307
vn 0.8387 0.0459 -0.5426
vt 0.089480 0.900391
vt 0.089480 0.900391
vt 0.089480 0.900391
vt 0.089480 0.900391
vt 0.089480 0.900391
vt 0.089480 0.900391
vt 0.089480 0.900391
vt 0.089480 0.900391
vt 0.089480 0.900391
vt 0.089480 0.900391
vt 0.089480 0.900391
vt 0.089480 0.900391
vt 0.089480 0.900391
vt 0.089480 0.900391
vt 0.089480 0.900391
vt 0.089480 0.900391
vt 0.114870 0.890625
vt 0.114870 0.890625
vt 0.114870 0.890625
vt 0.114870 0.890625
vt 0.114870 0.890625
vt 0.114870 0.890625
vt 0.114870 0.890625
vt 0.114870 0.890625
vt 0.114870 0.890625
vt 0.114870 0.890625
vt 0.114870 0.890625
vt 0.114870 0.890625
vt 0.114870 0.890625
vt 0.114870 0.890625
vt 0.114870 0.890625
vt 0.114870 0.890625
vt 0.114870 0.890625
vt 0.114870 0.890625
vt 0.114870 0.890625
vt 0.114870 0.890625
vt 0.114870 0.890625
vt 0.114870 0.890625
vt 0.114870 0.890625
vt 0.114870 0.890625
vt 0.114870 0.890625
vt 0.114870 0.890625
vt 0.114870 0.890625
vt 0.114870 0.890625
vt 0.114870 0.890625
vt 0.114870 0.890625
vt 0.114870 0.890625
vt 0.114870 0.890625
vt 0.114870 0.890625
vt 0.114870 0.890625
vt 0.114870 0.890625
vt 0.114870 0.890625
vt 0.114870 0.890625
vt 0.114870 0.890625
vt 0.114870 0.890625
vt 0.114870 0.890625
vt 0.114870 0.890625
vt 0.114870 0.890625
vt 0.114870 0.890625
vt 0.114870 0.890625
vt 0.114870 0.890625
vt 0.114870 0.890625
vt 0.114870 0.890625
vt 0.114870 0.890625
vt 0.114870 0.890625
vt 0.114870 0.890625
vt 0.114870 0.890625
vt 0.114870 0.890625
vt 0.114870 0.890625
vt 0.114870 0.890625
vt 0.114870 0.890625
vt 0.114870 0.890625
vt 0.114870 0.890625
vt 0.114870 0.890625
vt 0.114870 0.890625
vt 0.114870 0.890625
vt 0.114870 0.890625
vt 0.114870 0.890625
vt 0.114870 0.890625
vt 0.114870 0.890625
vt 0.851198 0.093750
vt 0.851198 0.093750
vt 0.851198 0.093750
vt 0.851198 0.093750
vt 0.851198 0.093750
vt 0.851198 0.093750
vt 0.851198 0.093750
vt 0.851198 0.093750
vt 0.851198 0.093750
vt 0.851198 0.093750
vt 0.851198 0.093750
vt 0.851198 0.093750
vt 0.851198 0.093750
vt 0.851198 0.093750
vt 0.851198 0.093750
vt 0.851198 0.093750
vt 0.114870 0.890625
vt 0.114870 0.890625
vt 0.114870 0.890625
vt 0.114870 0.890625
vt 0.114870 0.890625
vt 0.114870 0.890625
vt 0.114870 0.890625
vt 0.114870 0.890625
vt 0.114870 0.890625
vt 0.114870 0.890625
vt 0.114870 0.890625
vt 0.114870 0.890625
vt 0.114870 0.890625
vt 0.114870 0.890625
vt 0.114870 0.890625
vt 0.114870 0.890625
vt 0.114870 0.890625
vt 0.114870 0.890625
vt 0.114870 0.890625
vt 0.114870 0.890625
vt 0.114870 0.890625
vt 0.114870 0.890625
vt 0.114870 0.890625
vt 0.114870 0.890625
vt 0.851198 0.093750
vt 0.851198 0.093750
vt 0.851198 0.093750
vt 0.851198 0.093750
vt 0.851198 0.093750
vt 0.851198 0.093750
vt 0.851198 0.093750
vt 0.851198 0.093750
vt 0.851198 0.093750
vt 0.851198 0.093750
vt 0.851198 0.093750
vt 0.851198 0.093750
vt 0.851198 0.093750
vt 0.851198 0.093750
vt 0.851198 0.093750
vt 0.851198 0.093750
vt 0.089479 0.900391
vt 0.089480 0.900391
vt 0.089480 0.900391
vt 0.089480 0.900391
vt 0.089479 0.900391
vt 0.089480 0.900391
vt 0.089480 0.900391
vt 0.089480 0.900391
vt 0.089480 0.900391
vt 0.089479 0.900391
vt 0.089480 0.900391
vt 0.089480 0.900391
vt 0.089480 0.900391
vt 0.089480 0.900391
vt 0.089480 0.900391
vt 0.089480 0.900391
vt 0.089480 0.900391
vt 0.089480 0.900391
vt 0.089480 0.900391
vt 0.089480 0.900391
vt 0.089480 0.900391
vt 0.089479 0.900391
vt 0.089480 0.900391
vt 0.089480 0.900391
vt 0.089480 0.900391
vt 0.089480 0.900391
vt 0.089480 0.900391
vt 0.089480 0.900391
vt 0.089480 0.900391
vt 0.089480 0.900391
vt 0.089480 0.900391
vt 0.089480 0.900391
s 1
g armchair.011_Material
usemtl Material
f 1/1/1 11/11/2 4/4/2 3/3/1
f 3/3/3 4/4/4 8/8/4 7/7/3
f 7/7/5 8/8/6 6/6/7 5/5/5
f 5/5/8 6/6/9 11/11/9 1/1/8
f 9/9/10 13/13/11 15/15/12 10/10/13
f 14/14/14 12/12/15 2/2/16 16/16/17
f 1/1/1 3/3/1 9/9/10 10/10/13
f 4/4/2 11/11/2 2/2/16 12/12/15
f 3/3/3 7/7/3 13/13/11 9/9/10
f 8/8/4 4/4/4 12/12/15 14/14/14
f 7/7/5 5/5/5 15/15/12 13/13/11
f 6/6/7 8/8/6 14/14/14 16/16/17
f 5/5/8 1/1/8 10/10/13 15/15/12
f 11/11/9 6/6/9 16/16/17 2/2/16
f 17/17/18 27/27/19 20/20/19 19/19/18
f 19/19/20 20/20/21 24/24/21 23/23/20
f 23/23/22 24/24/23 22/22/23 21/21/22
f 21/21/24 22/22/25 27/27/25 17/17/24
f 25/25/26 29/29/27 31/31/28 26/26/29
f 30/30/30 28/28/31 18/18/32 32/32/33
f 17/17/18 19/19/18 25/25/26 26/26/29
f 20/20/19 27/27/19 18/18/32 28/28/31
f 19/19/20 23/23/20 29/29/27 25/25/26
f 24/24/21 20/20/21 28/28/31 30/30/30
f 23/23/22 21/21/22 31/31/28 29/29/27
f 22/22/23 24/24/23 30/30/30 32/32/33
f 21/21/24 17/17/24 26/26/29 31/31/28
f 27/27/25 22/22/25 32/32/33 18/18/32
f 33/33/34 43/43/35 36/36/36 35/35/37
f 56/56/3 55/55/38 49/49/39 50/50/40
f 39/39/41 40/40/42 38/38/43 37/37/44
f 52/52/45 51/51/46 54/54/47 53/53/8
f 41/41/10 45/45/11 47/47/12 42/42/13
f 46/46/48 44/44/49 34/34/50 48/48/51
f 53/53/52 56/56/53 41/41/10 42/42/13
f 55/55/54 54/54/55 34/34/50 44/44/49
f 56/56/3 50/50/40 45/45/11 41/41/10
f 49/49/39 55/55/38 44/44/49 46/46/48
f 50/50/56 52/52/56 47/47/12 45/45/11
f 51/51/57 49/49/57 46/46/48 48/48/51
f 52/52/45 53/53/8 42/42/13 47/47/12
f 54/54/47 51/51/46 48/48/51 34/34/50
f 40/40/42 39/39/41 50/50/40 49/49/39
f 37/37/44 38/38/43 51/51/46 52/52/45
f 39/39/41 37/37/44 52/52/56 50/50/56
f 38/38/43 40/40/42 49/49/57 51/51/57
f 43/43/35 33/33/34 53/53/52 54/54/55
f 35/35/37 36/36/36 55/55/54 56/56/53
f 33/33/34 35/35/37 56/56/53 53/53/52
f 36/36/36 43/43/35 54/54/55 55/55/54
f 57/57/58 67/67/59 60/60/60 59/59/61
f 80/80/1 79/79/62 73/73/63 74/74/64
f 63/63/65 64/64/66 62/62/67 61/61/68
f 76/76/69 75/75/70 78/78/71 77/77/5
f 65/65/13 69/69/10 71/71/11 66/66/12
f 70/70/72 68/68/73 58/58/74 72/72/75
f 77/77/76 80/80/76 65/65/13 66/66/12
f 79/79/77 78/78/77 58/58/74 68/68/73
f 80/80/1 74/74/64 69/69/10 65/65/13
f 73/73/63 79/79/62 68/68/73 70/70/72
f 74/74/78 76/76/78 71/71/11 69/69/10
f 75/75/79 73/73/79 70/70/72 72/72/75
f 76/76/69 77/77/5 66/66/12 71/71/11
f 78/78/71 75/75/70 72/72/75 58/58/74
f 64/64/66 63/63/65 74/74/64 73/73/63
f 61/61/68 62/62/67 75/75/70 76/76/69
f 63/63/65 61/61/68 76/76/78 74/74/78
f 62/62/67 64/64/66 73/73/79 75/75/79
f 67/67/59 57/57/58 77/77/80 78/78/80
f 59/59/61 60/60/60 79/79/81 80/80/81
f 57/57/58 59/59/61 80/80/76 77/77/76
f 60/60/60 67/67/59 78/78/77 79/79/77
f 82/82/82 83/83/82 84/84/82 81/81/82
f 83/83/83 86/86/83 85/85/83 84/84/83
f 96/96/84 88/88/84 86/86/84 83/83/84 82/82/84 90/90/84 91/91/84 94/94/84
f 93/93/85 92/92/85 89/89/85 81/81/85 84/84/85 85/85/85 87/87/85 95/95/85
f 89/89/83 90/90/83 82/82/83 81/81/83
f 90/90/86 89/89/86 92/92/86 91/91/86
f 91/91/83 92/92/83 93/93/83 94/94/83
f 95/95/87 87/87/87 88/88/87 96/96/87
f 85/85/86 86/86/86 88/88/86 87/87/86
f 94/94/82 93/93/82 95/95/82 96/96/82
f 97/97/88 107/107/89 100/100/90 99/99/91
f 120/120/8 119/119/47 113/113/92 114/114/93
f 103/103/94 104/104/95 102/102/96 101/101/97
f 116/116/98 115/115/99 118/118/38 117/117/3
f 105/105/12 109/109/13 111/111/10 106/106/11
f 110/110/50 108/108/51 98/98/48 112/112/49
f 117/117/100 120/120/101 105/105/12 106/106/11
f 119/119/102 118/118/103 98/98/48 108/108/51
f 120/120/8 114/114/93 109/109/13 105/105/12
f 113/113/92 119/119/47 108/108/51 110/110/50
f 114/114/104 116/116/104 111/111/10 109/109/13
f 115/115/105 113/113/105 110/110/50 112/112/49
f 116/116/98 117/117/3 106/106/11 111/111/10
f 118/118/38 115/115/99 112/112/49 98/98/48
f 104/104/95 103/103/94 114/114/93 113/113/92
f 101/101/97 102/102/96 115/115/99 116/116/98
f 103/103/94 101/101/97 116/116/104 114/114/104
f 102/102/96 104/104/95 113/113/105 115/115/105
f 107/107/89 97/97/88 117/117/100 118/118/103
f 99/99/91 100/100/90 119/119/102 120/120/101
f 97/97/88 99/99/91 120/120/101 117/117/100
f 100/100/90 107/107/89 118/118/103 119/119/102
f 122/122/82 123/123/82 124/124/82 121/121/82
f 123/123/83 126/126/83 125/125/83 124/124/83
f 136/136/84 128/128/84 126/126/84 123/123/84 122/122/84 130/130/84 131/131/84 134/134/84
f 133/133/85 132/132/85 129/129/85 121/121/85 124/124/85 125/125/85 127/127/85 135/135/85
f 129/129/83 130/130/83 122/122/83 121/121/83
f 130/130/86 129/129/86 132/132/86 131/131/86
f 131/131/83 132/132/83 133/133/83 134/134/83
f 135/135/87 127/127/87 128/128/87 136/136/87
f 125/125/86 126/126/86 128/128/86 127/127/86
f 134/134/82 133/133/82 135/135/82 136/136/82
f 137/137/106 144/144/107 152/152/108 153/153/109
f 147/147/110 146/146/111 145/145/112 148/148/113
f 141/141/114 140/140/115 156/156/116 149/149/117
f 143/143/118 142/142/119 150/150/120 151/151/121
f 141/141/114 149/149/117 150/150/120 142/142/119
f 152/152/108 144/144/107 143/143/118 151/151/121
f 137/137/106 153/153/109 154/154/122 138/138/123
f 156/156/116 140/140/115 139/139/124 155/155/125
f 139/139/124 138/138/123 154/154/122 155/155/125
f 147/147/110 150/150/120 149/149/117
f 148/148/113 152/152/108 151/151/121
f 145/145/112 154/154/122 153/153/109
f 146/146/111 156/156/116 155/155/125
f 145/145/112 146/146/111 155/155/125 154/154/122
f 148/148/113 145/145/112 153/153/109 152/152/108
f 146/146/111 147/147/110 149/149/117 156/156/116
f 147/147/110 148/148/113 151/151/121 150/150/120
f 137/137/126 165/165/127 164/164/128 144/144/129
f 159/159/130 160/160/131 157/157/132 158/158/133
f 141/141/134 161/161/135 168/168/136 140/140/137
f 143/143/138 163/163/139 162/162/140 142/142/141
f 141/141/134 142/142/141 162/162/140 161/161/135
f 164/164/128 163/163/139 143/143/138 144/144/129
f 137/137/126 138/138/142 166/166/143 165/165/127
f 168/168/136 167/167/144 139/139/145 140/140/137
f 139/139/145 167/167/144 166/166/143 138/138/142
f 159/159/130 161/161/135 162/162/140
f 160/160/131 163/163/139 164/164/128
f 157/157/132 165/165/127 166/166/143
f 158/158/133 167/167/144 168/168/136
f 157/157/132 166/166/143 167/167/144 158/158/133
f 160/160/131 164/164/128 165/165/127 157/157/132
f 158/158/133 168/168/136 161/161/135 159/159/130
f 159/159/130 162/162/140 163/163/139 160/160/131
