# Blender 3.4.1
# www.blender.org
mtllib bathroomaccessory019.mtl
g bathroom_accessory.018_Cube.203
v -0.227282 -0.677962 0.279814
v -0.227282 0.238846 0.279814
v -0.227282 -0.677962 -0.174751
v -0.227282 0.238846 -0.174751
v 0.227282 -0.677962 0.279814
v 0.227282 0.238846 0.279814
v 0.227282 -0.677962 -0.174751
v 0.227282 0.238846 -0.174751
v -0.227282 -0.677962 0.279814
v -0.227282 0.238846 0.279814
v -0.227282 -0.677962 -0.174751
v -0.227282 0.238846 -0.174751
v 0.227282 -0.677962 0.279814
v 0.227282 0.238846 0.279814
v 0.227282 -0.677962 -0.174751
v 0.227282 0.238846 -0.174751
v -0.227282 -0.760255 -0.174751
v -0.227282 -0.760255 0.279814
v -0.046170 0.321139 0.098702
v -0.046170 0.321139 0.006361
v 0.227282 -0.760255 -0.174751
v 0.046170 0.321139 0.006361
v 0.227282 -0.760255 0.279814
v 0.046170 0.321139 0.098702
v -0.227282 0.321139 0.279814
v -0.227282 0.321139 -0.174751
v 0.227282 0.321139 -0.174751
v 0.227282 0.321139 0.279814
v -0.046170 0.321139 0.098702
v -0.046170 0.321139 0.006361
v 0.046170 0.321139 0.006361
v 0.046170 0.321139 0.098702
v -0.046170 1.114187 0.098702
v -0.046170 1.114187 0.006361
v 0.046170 1.114187 0.006361
v 0.046170 1.114187 0.098702
v 0.053544 -0.449943 -0.174751
v -0.053544 0.010826 -0.174751
v -0.053544 -0.449943 -0.174751
v 0.053544 0.010826 -0.174751
v 0.053544 -0.449943 -0.298029
v -0.053544 -0.449943 -0.298029
v -0.053544 0.010826 -0.298029
v 0.053544 0.010826 -0.298029
vn -1.0000 -0.0000 -0.0000
vn -0.0000 1.0000 -0.0000
vn 1.0000 -0.0000 -0.0000
vn -0.0000 -0.0000 1.0000
vn -0.0000 -1.0000 -0.0000
vn -0.0000 -0.0000 -1.0000
vt 0.121039 0.931218
vt 0.121039 0.931218
vt 0.121039 0.931218
vt 0.121039 0.931218
vt 0.121039 0.931218
vt 0.121039 0.931218
vt 0.121039 0.931218
vt 0.121039 0.931218
vt 0.818671 0.100088
vt 0.818671 0.100088
vt 0.818671 0.100088
vt 0.818671 0.100088
vt 0.818671 0.100088
vt 0.818671 0.100088
vt 0.818671 0.100088
vt 0.818671 0.100088
vt 0.818671 0.100088
vt 0.818671 0.100088
vt 0.818671 0.100088
vt 0.818671 0.100088
vt 0.818671 0.100088
vt 0.818671 0.100088
vt 0.818671 0.100088
vt 0.818671 0.100088
vt 0.818671 0.100088
vt 0.818671 0.100088
vt 0.818671 0.100088
vt 0.818671 0.100088
vt 0.818671 0.100088
vt 0.818671 0.100088
vt 0.818671 0.100088
vt 0.818671 0.100088
vt 0.818671 0.100088
vt 0.818671 0.100088
vt 0.818671 0.100088
vt 0.818671 0.100088
vt 0.121039 0.931218
vt 0.818671 0.100088
vt 0.121039 0.931218
vt 0.818671 0.100088
vt 0.121039 0.931218
vt 0.818671 0.100088
vt 0.121039 0.931218
vt 0.818671 0.100088
vt 0.818671 0.100088
vt 0.818671 0.100088
vt 0.818671 0.100088
vt 0.818671 0.100088
s 0
g bathroom_accessory.018_Material
usemtl Material
f 1/1/1 2/2/1 4/4/1 3/3/1
f 38/40/2 40/44/2 44/48/2 43/47/2
f 7/7/3 8/8/3 6/6/3 5/5/3
f 5/5/4 6/6/4 2/2/4 1/1/4
f 10/10/4 14/14/4 28/28/4 25/25/4
f 12/12/1 10/10/1 25/25/1 26/26/1
f 17/17/5 21/21/5 23/23/5 18/18/5
f 9/9/1 11/11/1 17/17/1 18/18/1
f 15/15/3 13/13/3 23/23/3 21/21/3
f 16/16/6 12/12/6 26/26/6 27/27/6
f 13/13/4 9/9/4 18/18/4 23/23/4
f 14/14/3 16/16/3 27/27/3 28/28/3
f 11/11/6 15/15/6 21/21/6 17/17/6
f 19/19/2 20/20/2 26/26/2 25/25/2
f 20/20/2 22/22/2 27/27/2 26/26/2
f 22/22/2 24/24/2 28/28/2 27/27/2
f 24/24/2 19/19/2 25/25/2 28/28/2
f 29/29/4 32/32/4 36/36/4 33/33/4
f 35/35/2 34/34/2 33/33/2 36/36/2
f 31/31/6 30/30/6 34/34/6 35/35/6
f 32/32/3 31/31/3 35/35/3 36/36/3
f 30/30/1 29/29/1 33/33/1 34/34/1
f 38/39/6 39/41/6 3/3/6 4/4/6
f 39/41/6 37/37/6 7/7/6 3/3/6
f 40/43/6 38/39/6 4/4/6 8/8/6
f 37/37/6 40/43/6 8/8/6 7/7/6
f 42/46/6 43/47/6 44/48/6 41/45/6
f 39/42/1 38/40/1 43/47/1 42/46/1
f 37/38/5 39/42/5 42/46/5 41/45/5
f 40/44/3 37/38/3 41/45/3 44/48/3
