# Blender 3.4.1
# www.blender.org
mtllib bathroomfurniture007.mtl
g bathroom_furniture.007_Cube.158
v -1.581565 -0.645574 1.417315
v -0.637289 -0.266260 1.152453
v -1.581565 0.111631 1.417315
v -1.206098 -0.266260 0.724052
v -1.581565 -0.645574 -0.851046
v -0.854963 -0.266260 1.119843
v -1.581565 0.111631 -0.851046
v -1.039498 -0.266260 1.026977
v 1.556787 -0.645574 1.417315
v -1.162801 -0.266260 0.887995
v 1.556787 0.111631 1.417315
v 1.556787 -0.645574 -0.851046
v 1.556787 0.111631 -0.851046
v -1.206098 -0.266260 0.225913
v -0.637289 -0.266260 -0.202488
v -1.162801 -0.266260 0.061972
v -1.039498 -0.266260 -0.077012
v -0.854963 -0.266260 -0.169878
v 1.183203 -0.266260 0.724052
v 0.614393 -0.266260 1.152453
v 1.139905 -0.266260 0.887995
v 1.016603 -0.266260 1.026977
v 0.832067 -0.266260 1.119843
v 0.614393 -0.266260 -0.202488
v 1.183203 -0.266260 0.225913
v 0.832067 -0.266260 -0.169878
v 1.016603 -0.266260 -0.077012
v 1.139905 -0.266260 0.061972
v -1.468619 0.111631 0.778783
v -1.468619 0.111631 0.171182
v -1.415806 0.111631 -0.028787
v -1.335157 0.111631 1.069658
v -1.415806 0.111631 0.978752
v -1.040323 0.111631 -0.311583
v 1.242513 0.111631 -0.198311
v 0.751920 0.111631 -0.351360
v 1.017427 0.111631 -0.311583
v -0.774815 0.111631 -0.351360
v -1.265409 0.111631 -0.198311
v -1.265409 0.111631 1.148276
v -1.040323 0.111631 1.261549
v 1.017427 0.111631 1.261549
v -0.774815 0.111631 1.301325
v 1.445723 0.111631 0.171182
v 1.445723 0.111631 0.778783
v 1.242513 0.111631 1.148276
v 1.392910 0.111631 0.978752
v 1.392910 0.111631 -0.028787
v 0.751920 0.111631 1.301325
v 0.356111 0.166088 -0.490811
v 0.314718 0.166088 -0.490811
v 0.356111 0.166088 -0.717507
v 0.314718 0.166088 -0.717507
v 0.356111 0.262124 -0.490811
v 0.314718 0.262124 -0.490811
v 0.356111 0.262124 -0.717507
v 0.314718 0.262124 -0.717507
v -0.058392 0.195976 -0.554016
v -0.058392 0.709829 -0.554016
v -0.058392 0.971993 -0.264053
v -0.058392 0.797236 -0.533083
v -0.058392 0.880240 -0.473473
v -0.058392 0.944383 -0.384264
v -0.058392 0.944383 -0.143843
v -0.058392 0.880239 -0.054631
v 0.060771 0.195976 -0.554016
v 0.060771 0.709829 -0.554016
v 0.060771 0.971993 -0.264053
v 0.060771 0.797236 -0.533083
v 0.060771 0.880240 -0.473473
v 0.060771 0.944383 -0.384264
v 0.060771 0.944383 -0.143843
v 0.060771 0.880239 -0.054631
v -0.058392 1.017324 -0.264053
v -0.058392 0.985689 -0.125170
v -0.058392 0.715144 -0.599034
v -0.058392 0.816089 -0.574308
v -0.058392 0.912285 -0.505536
v -0.058392 0.985689 -0.402937
v -0.058392 0.912284 -0.022569
v -0.058392 0.195976 -0.599346
v 0.060771 1.017324 -0.264053
v 0.060771 0.985689 -0.125170
v 0.060771 0.715144 -0.599034
v 0.060771 0.816089 -0.574308
v 0.060771 0.912285 -0.505536
v 0.060771 0.985689 -0.402937
v 0.060771 0.912284 -0.022569
v 0.060771 0.195976 -0.599346
v 0.060771 0.105766 -0.554016
v -0.058392 0.105766 -0.554016
v 0.060771 0.105766 -0.599346
v -0.058392 0.105766 -0.599346
v 0.147150 0.195976 -0.403857
v -0.144776 0.195976 -0.403857
v 0.147150 0.195976 -0.713711
v -0.144776 0.195976 -0.713711
v 0.147150 0.105766 -0.403857
v -0.144776 0.105766 -0.403857
v 0.147150 0.105766 -0.713711
v -0.144776 0.105766 -0.713711
v 0.453573 0.166088 -0.490811
v 0.223454 0.166088 -0.490811
v 0.453573 0.166088 -0.717507
v 0.223454 0.166088 -0.717507
v 0.453573 0.106923 -0.490811
v 0.223454 0.106923 -0.490811
v 0.453573 0.106923 -0.717507
v 0.223454 0.106923 -0.717507
v -0.220889 0.166088 -0.490811
v -0.451007 0.166088 -0.490811
v -0.220889 0.166088 -0.717507
v -0.451007 0.166088 -0.717507
v -0.220889 0.106923 -0.490811
v -0.451007 0.106923 -0.490811
v -0.220889 0.106923 -0.717507
v -0.451007 0.106923 -0.717507
v -0.315251 0.166088 -0.490811
v -0.356644 0.166088 -0.490811
v -0.315251 0.166088 -0.717507
v -0.356644 0.166088 -0.717507
v -0.315251 0.262124 -0.490811
v -0.356644 0.262124 -0.490811
v -0.315251 0.262124 -0.717507
v -0.356644 0.262124 -0.717507
v -0.015998 -0.279626 0.336997
v 0.043807 -0.279626 0.349707
v 0.093271 -0.279626 0.385647
v 0.123842 -0.279626 0.438597
v 0.130233 -0.279626 0.499401
v 0.111339 -0.279626 0.557551
v 0.070428 -0.279626 0.602987
v 0.014573 -0.279626 0.627856
v -0.046568 -0.279626 0.627856
v -0.102423 -0.279626 0.602987
v -0.143335 -0.279626 0.557551
v -0.162228 -0.279626 0.499401
v -0.155837 -0.279626 0.438597
v -0.125267 -0.279626 0.385647
v -0.075803 -0.279626 0.349707
v -0.015998 -0.201935 0.362081
v -0.015998 -0.226471 0.336997
v 0.033605 -0.201935 0.372623
v 0.043807 -0.226471 0.349707
v 0.074630 -0.201935 0.402431
v 0.093271 -0.226471 0.385647
v 0.099986 -0.201935 0.446348
v 0.123842 -0.226471 0.438597
v 0.105286 -0.201935 0.496779
v 0.130233 -0.226471 0.499401
v 0.089616 -0.201935 0.545009
v 0.111339 -0.226471 0.557551
v 0.055684 -0.201935 0.582693
v 0.070428 -0.226471 0.602987
v 0.009357 -0.201935 0.603320
v 0.014573 -0.226471 0.627856
v -0.041353 -0.201935 0.603320
v -0.046568 -0.226471 0.627856
v -0.087679 -0.201935 0.582693
v -0.102423 -0.226471 0.602987
v -0.121611 -0.201935 0.545009
v -0.143335 -0.226471 0.557551
v -0.137282 -0.201935 0.496779
v -0.162228 -0.226471 0.499401
v -0.131981 -0.201935 0.446348
v -0.155837 -0.226471 0.438597
v -0.106625 -0.201935 0.402431
v -0.125267 -0.226471 0.385647
v -0.065600 -0.201935 0.372623
v -0.075803 -0.226471 0.349707
v -3.211042 -1.354265 -1.096517
v 2.947938 -1.354265 -1.096517
v 2.947938 -0.639021 -1.096517
v -3.211042 -0.639021 -1.096517
v -3.211042 -1.354265 1.524797
v 2.947938 -1.354265 1.524797
v 2.947938 -0.639021 1.524797
v -3.211042 -0.639021 1.524797
v -3.211042 -2.444907 -1.096517
v 4.373125 -2.444907 -1.096517
v 4.373125 -1.729662 -1.096517
v -3.211042 -1.729662 -1.096517
v -3.211042 -2.444907 1.524797
v 4.373125 -2.444907 1.524797
v 4.373125 -1.729662 1.524797
v -3.211042 -1.729662 1.524797
v -3.211042 -2.444907 -1.096517
v 2.947938 -2.444907 -1.096517
v 2.947938 4.304740 -1.096517
v -3.211042 4.304740 -1.096517
v -3.211042 -2.444907 -1.234237
v 2.947938 -2.444907 -1.234237
v 2.947938 4.304740 -1.234237
v -3.211042 4.304740 -1.234237
vn -1.0000 -0.0000 -0.0000
vn -0.0000 -0.0000 -1.0000
vn 1.0000 -0.0000 -0.0000
vn -0.0000 -0.0000 1.0000
vn -0.0000 -1.0000 -0.0000
vn -0.0000 1.0000 -0.0000
vn -0.0553 0.3833 -0.9220
vn 0.0553 0.3833 -0.9220
vn 0.0810 0.3907 -0.9169
vn -0.0810 0.3907 -0.9169
vn -0.8100 0.5775 0.1020
vn -0.8100 0.5775 -0.1020
vn -0.8091 0.5777 -0.1078
vn -0.8091 0.5777 0.1078
vn 0.8091 0.5777 -0.1078
vn 0.8100 0.5775 -0.1020
vn 0.8100 0.5775 0.1020
vn 0.8091 0.5777 0.1078
vn 0.0810 0.3907 0.9169
vn 0.0553 0.3833 0.9220
vn -0.0553 0.3833 0.9220
vn -0.0810 0.3907 0.9169
vn 0.2431 0.4428 -0.8630
vn 0.2933 0.4585 -0.8389
vn 0.4995 0.5208 -0.6923
vn 0.5338 0.5305 -0.6585
vn 0.7158 0.5746 -0.3969
vn 0.7248 0.5760 -0.3780
vn 0.6243 0.5510 -0.5538
vn 0.2933 0.4585 0.8389
vn 0.2431 0.4428 0.8630
vn 0.5338 0.5305 0.6585
vn 0.4995 0.5208 0.6923
vn 0.7248 0.5760 0.3780
vn 0.7158 0.5746 0.3969
vn -0.7158 0.5746 0.3969
vn -0.7248 0.5760 0.3780
vn -0.4995 0.5208 0.6923
vn -0.5338 0.5305 0.6585
vn -0.2933 0.4585 0.8389
vn -0.2431 0.4428 0.8630
vn -0.2431 0.4428 -0.8630
vn -0.2933 0.4585 -0.8389
vn -0.4995 0.5208 -0.6923
vn -0.5338 0.5305 -0.6585
vn -0.7158 0.5746 -0.3969
vn -0.7248 0.5760 -0.3780
vn -0.0000 -0.9112 -0.4119
vn -0.0000 -0.9112 0.4119
vn -0.0000 -0.4159 0.9094
vn -0.0000 -0.1173 0.9931
vn -0.0000 -0.8119 -0.5838
vn -0.0000 -0.7069 0.7073
vn -0.0000 0.9121 0.4100
vn -0.0000 0.9121 -0.4100
vn -0.0000 0.4173 -0.9088
vn -0.0000 0.1201 -0.9928
vn -0.0000 0.0006 -1.0000
vn -0.0000 0.8133 0.5819
vn -0.0000 0.7070 -0.7072
vn -0.0000 -0.7073 0.7069
vn -0.4067 -0.0000 -0.9135
vn 0.7432 -0.0000 -0.6691
vn 0.9511 -0.0000 -0.3090
vn 0.9945 -0.0000 0.1045
vn 0.8660 -0.0000 0.5000
vn 0.5878 -0.0000 0.8090
vn 0.2079 -0.0000 0.9781
vn -0.2079 -0.0000 0.9781
vn -0.5878 -0.0000 0.8090
vn -0.8660 -0.0000 0.5000
vn -0.9945 -0.0000 0.1045
vn -0.9511 -0.0000 -0.3090
vn -0.7432 -0.0000 -0.6691
vn 0.4067 -0.0000 -0.9135
vn 0.2844 0.7149 -0.6388
vn -0.0000 0.7149 -0.6993
vn 0.5197 0.7149 -0.4679
vn 0.6650 0.7149 -0.2161
vn 0.6954 0.7149 0.0731
vn 0.6056 0.7149 0.3496
vn 0.4110 0.7149 0.5657
vn 0.1454 0.7149 0.6840
vn -0.1454 0.7149 0.6840
vn -0.4110 0.7149 0.5657
vn -0.6056 0.7149 0.3496
vn -0.6954 0.7149 0.0731
vn -0.6650 0.7149 -0.2161
vn -0.5197 0.7149 -0.4679
vn -0.2844 0.7149 -0.6388
vt 0.419390 0.103150
vt 0.419390 0.103150
vt 0.419390 0.103150
vt 0.419390 0.103150
vt 0.419390 0.103150
vt 0.419390 0.103150
vt 0.419390 0.103150
vt 0.419390 0.103150
vt 0.419390 0.103150
vt 0.419390 0.103150
vt 0.419390 0.103150
vt 0.419390 0.103150
vt 0.419390 0.103150
vt 0.419390 0.103150
vt 0.419390 0.103150
vt 0.419390 0.103150
vt 0.419390 0.103150
vt 0.419390 0.103150
vt 0.419390 0.103150
vt 0.419390 0.103150
vt 0.419390 0.103150
vt 0.419390 0.103150
vt 0.419390 0.103150
vt 0.419390 0.103150
vt 0.419390 0.103150
vt 0.419390 0.103150
vt 0.419390 0.103150
vt 0.419390 0.103150
vt 0.419390 0.103150
vt 0.419390 0.103150
vt 0.419390 0.103150
vt 0.419390 0.103150
vt 0.419390 0.103150
vt 0.419390 0.103150
vt 0.419390 0.103150
vt 0.419390 0.103150
vt 0.419390 0.103150
vt 0.419390 0.103150
vt 0.419390 0.103150
vt 0.419390 0.103150
vt 0.419390 0.103150
vt 0.419390 0.103150
vt 0.419390 0.103150
vt 0.419390 0.103150
vt 0.419390 0.103150
vt 0.419390 0.103150
vt 0.419390 0.103150
vt 0.419390 0.103150
vt 0.419390 0.103150
vt 0.689124 0.118652
vt 0.689124 0.118652
vt 0.689124 0.118652
vt 0.689124 0.118652
vt 0.689124 0.118652
vt 0.689124 0.118652
vt 0.689124 0.118652
vt 0.689124 0.118652
vt 0.689124 0.118652
vt 0.689124 0.118652
vt 0.689124 0.118652
vt 0.689124 0.118652
vt 0.689124 0.118652
vt 0.689124 0.118652
vt 0.689124 0.118652
vt 0.689124 0.118652
vt 0.689124 0.118652
vt 0.689124 0.118652
vt 0.689124 0.118652
vt 0.689124 0.118652
vt 0.689124 0.118652
vt 0.689124 0.118652
vt 0.689124 0.118652
vt 0.689124 0.118652
vt 0.689124 0.118652
vt 0.689124 0.118652
vt 0.689124 0.118652
vt 0.689124 0.118652
vt 0.689124 0.118652
vt 0.689124 0.118652
vt 0.689124 0.118652
vt 0.689124 0.118652
vt 0.689124 0.118652
vt 0.689124 0.118652
vt 0.689124 0.118652
vt 0.689124 0.118652
vt 0.689124 0.118652
vt 0.689124 0.118652
vt 0.689124 0.118652
vt 0.689124 0.118652
vt 0.689124 0.118652
vt 0.689124 0.118652
vt 0.689124 0.118652
vt 0.689124 0.118652
vt 0.689124 0.118652
vt 0.689124 0.118652
vt 0.689124 0.118652
vt 0.689124 0.118652
vt 0.689124 0.118652
vt 0.689124 0.118652
vt 0.689124 0.118652
vt 0.689124 0.118652
vt 0.689124 0.118652
vt 0.689124 0.118652
vt 0.689124 0.118652
vt 0.689124 0.118652
vt 0.689124 0.118652
vt 0.689124 0.118652
vt 0.689124 0.118652
vt 0.689124 0.118652
vt 0.689124 0.118652
vt 0.689124 0.118652
vt 0.689124 0.118652
vt 0.689124 0.118652
vt 0.689124 0.118652
vt 0.689124 0.118652
vt 0.689124 0.118652
vt 0.689124 0.118652
vt 0.689124 0.118652
vt 0.689124 0.118652
vt 0.689124 0.118652
vt 0.689124 0.118652
vt 0.689124 0.118652
vt 0.689124 0.118652
vt 0.689124 0.118652
vt 0.689124 0.118652
vt 0.689124 0.118652
vt 0.689124 0.118652
vt 0.689124 0.118652
vt 0.689124 0.118652
vt 0.689124 0.118652
vt 0.689124 0.118652
vt 0.689124 0.118652
vt 0.689124 0.118652
vt 0.689124 0.118652
vt 0.689124 0.118652
vt 0.689124 0.118652
vt 0.689124 0.118652
vt 0.689124 0.118652
vt 0.689124 0.118652
vt 0.689124 0.118652
vt 0.689124 0.118652
vt 0.689124 0.118652
vt 0.689124 0.118652
vt 0.689124 0.118652
vt 0.689124 0.118652
vt 0.689124 0.118652
vt 0.689124 0.118652
vt 0.689124 0.118652
vt 0.689124 0.118652
vt 0.689124 0.118652
vt 0.689124 0.118652
vt 0.689124 0.118652
vt 0.689124 0.118652
vt 0.689124 0.118652
vt 0.689124 0.118652
vt 0.689124 0.118652
vt 0.689124 0.118652
vt 0.689124 0.118652
vt 0.689124 0.118652
vt 0.689124 0.118652
vt 0.689124 0.118652
vt 0.689124 0.118652
vt 0.689124 0.118652
vt 0.689124 0.118652
vt 0.689124 0.118652
vt 0.689124 0.118652
vt 0.689124 0.118652
vt 0.689124 0.118652
vt 0.689124 0.118652
vt 0.689124 0.118652
vt 0.534104 0.496900
vt 0.534104 0.496900
vt 0.534104 0.496900
vt 0.534104 0.496900
vt 0.534104 0.496900
vt 0.534104 0.496900
vt 0.534104 0.496900
vt 0.534104 0.496900
vt 0.689124 0.093849
vt 0.689124 0.093849
vt 0.689124 0.093849
vt 0.689124 0.093849
vt 0.689124 0.093849
vt 0.689124 0.093849
vt 0.689124 0.093849
vt 0.689124 0.093849
vt 0.515502 0.490699
vt 0.515502 0.490699
vt 0.515502 0.490699
vt 0.515502 0.490699
vt 0.515502 0.490699
vt 0.515502 0.490699
vt 0.515502 0.490699
vt 0.515502 0.490699
s 1
g bathroom_furniture.007_Material
usemtl Material
f 1/1/1 3/3/1 7/7/1 5/5/1
f 5/5/2 7/7/2 13/13/2 12/12/2
f 12/12/3 13/13/3 11/11/3 9/9/3
f 9/9/4 11/11/4 3/3/4 1/1/4
f 5/5/5 12/12/5 9/9/5 1/1/5
f 31/31/6 7/7/6 3/3/6 32/32/6 33/33/6 29/29/6 30/30/6
f 32/32/6 3/3/6 11/11/6 13/13/6 7/7/6 31/31/6 39/39/6 34/34/6 38/38/6 36/36/6 37/37/6 35/35/6 48/48/6 44/44/6 45/45/6 47/47/6 46/46/6 42/42/6 49/49/6 43/43/6 41/41/6 40/40/6
f 20/20/7 2/2/8 43/43/9 49/49/10
f 25/25/11 19/19/12 45/45/13 44/44/14
f 29/29/15 4/4/16 14/14/17 30/30/18
f 38/38/19 15/15/20 24/24/21 36/36/22
f 2/2/8 6/6/23 41/41/24 43/43/9
f 6/6/23 8/8/25 40/40/26 41/41/24
f 40/40/26 8/8/25 10/10/27 33/33/28 32/32/29
f 33/33/28 10/10/27 4/4/16 29/29/15
f 34/34/30 18/18/31 15/15/20 38/38/19
f 39/39/32 17/17/33 18/18/31 34/34/30
f 31/31/34 16/16/35 17/17/33 39/39/32
f 30/30/18 14/14/17 16/16/35 31/31/34
f 28/28/36 25/25/11 44/44/14 48/48/37
f 27/27/38 28/28/36 48/48/37 35/35/39
f 37/37/40 26/26/41 27/27/38 35/35/39
f 36/36/22 24/24/21 26/26/41 37/37/40
f 23/23/42 20/20/7 49/49/10 42/42/43
f 22/22/44 23/23/42 42/42/43 46/46/45
f 21/21/46 22/22/44 46/46/45 47/47/47
f 19/19/12 21/21/46 47/47/47 45/45/13
f 2/2/6 20/20/6 23/23/6 22/22/6 21/21/6 19/19/6 25/25/6 28/28/6 27/27/6 26/26/6 24/24/6 15/15/6 18/18/6 17/17/6 16/16/6 14/14/6 4/4/6 10/10/6 8/8/6 6/6/6
f 51/51/5 53/53/5 52/52/5 50/50/5
f 55/55/6 54/54/6 56/56/6 57/57/6
f 50/50/3 52/52/3 56/56/3 54/54/3
f 52/52/2 53/53/2 57/57/2 56/56/2
f 53/53/1 51/51/1 55/55/1 57/57/1
f 51/51/4 50/50/4 54/54/4 55/55/4
f 64/64/48 60/60/5 68/68/5 72/72/48
f 60/60/5 63/63/49 71/71/49 68/68/5
f 61/61/50 59/59/51 67/67/51 69/69/50
f 58/58/4 66/66/4 67/67/51 59/59/51
f 65/65/52 64/64/48 72/72/48 73/73/52
f 62/62/53 61/61/50 69/69/50 70/70/53
f 63/63/49 62/62/53 70/70/53 71/71/49
f 75/75/54 83/83/54 82/82/6 74/74/6
f 74/74/6 82/82/6 87/87/55 79/79/55
f 77/77/56 85/85/56 84/84/57 76/76/57
f 81/81/58 76/76/57 84/84/57 89/89/58
f 80/80/59 88/88/59 83/83/54 75/75/54
f 78/78/60 86/86/60 85/85/56 77/77/56
f 65/65/61 73/73/61 88/88/61 80/80/61
f 79/79/55 87/87/55 86/86/60 78/78/60
f 60/60/1 64/64/1 75/75/1 74/74/1
f 73/73/3 72/72/3 83/83/3 88/88/3
f 58/58/1 59/59/1 76/76/1 81/81/1
f 59/59/1 61/61/1 77/77/1 76/76/1
f 61/61/1 62/62/1 78/78/1 77/77/1
f 72/72/3 68/68/3 82/82/3 83/83/3
f 62/62/1 63/63/1 79/79/1 78/78/1
f 67/67/3 66/66/3 89/89/3 84/84/3
f 69/69/3 67/67/3 84/84/3 85/85/3
f 63/63/1 60/60/1 74/74/1 79/79/1
f 70/70/3 69/69/3 85/85/3 86/86/3
f 58/58/6 81/81/6 97/97/6 95/95/6
f 64/64/1 65/65/1 80/80/1 75/75/1
f 71/71/3 70/70/3 86/86/3 87/87/3
f 68/68/3 71/71/3 87/87/3 82/82/3
f 90/90/5 91/91/5 93/93/5 92/92/5
f 66/66/6 58/58/6 95/95/6 94/94/6
f 91/91/5 90/90/5 98/98/5 99/99/5
f 93/93/5 91/91/5 99/99/5 101/101/5
f 94/94/4 95/95/4 99/99/4 98/98/4
f 95/95/1 97/97/1 101/101/1 99/99/1
f 97/97/2 96/96/2 100/100/2 101/101/2
f 96/96/3 94/94/3 98/98/3 100/100/3
f 81/81/6 89/89/6 96/96/6 97/97/6
f 89/89/6 66/66/6 94/94/6 96/96/6
f 90/90/5 92/92/5 100/100/5 98/98/5
f 92/92/5 93/93/5 101/101/5 100/100/5
f 102/102/4 103/103/4 107/107/4 106/106/4
f 103/103/1 105/105/1 109/109/1 107/107/1
f 105/105/2 104/104/2 108/108/2 109/109/2
f 104/104/3 102/102/3 106/106/3 108/108/3
f 103/103/6 102/102/6 104/104/6 105/105/6
f 107/107/5 109/109/5 108/108/5 106/106/5
f 110/110/4 111/111/4 115/115/4 114/114/4
f 111/111/1 113/113/1 117/117/1 115/115/1
f 113/113/2 112/112/2 116/116/2 117/117/2
f 112/112/3 110/110/3 114/114/3 116/116/3
f 111/111/6 110/110/6 112/112/6 113/113/6
f 115/115/5 117/117/5 116/116/5 114/114/5
f 119/119/5 121/121/5 120/120/5 118/118/5
f 123/123/6 122/122/6 124/124/6 125/125/6
f 118/118/3 120/120/3 124/124/3 122/122/3
f 120/120/2 121/121/2 125/125/2 124/124/2
f 121/121/1 119/119/1 123/123/1 125/125/1
f 119/119/4 118/118/4 122/122/4 123/123/4
f 140/140/62 170/170/62 142/142/2 126/126/2
f 128/128/63 146/146/63 148/148/64 129/129/64
f 129/129/64 148/148/64 150/150/65 130/130/65
f 130/130/65 150/150/65 152/152/66 131/131/66
f 131/131/66 152/152/66 154/154/67 132/132/67
f 132/132/67 154/154/67 156/156/68 133/133/68
f 133/133/68 156/156/68 158/158/69 134/134/69
f 134/134/69 158/158/69 160/160/70 135/135/70
f 135/135/70 160/160/70 162/162/71 136/136/71
f 136/136/71 162/162/71 164/164/72 137/137/72
f 137/137/72 164/164/72 166/166/73 138/138/73
f 138/138/73 166/166/73 168/168/74 139/139/74
f 139/139/74 168/168/74 170/170/62 140/140/62
f 126/126/2 142/142/2 144/144/75 127/127/75
f 127/127/75 144/144/75 146/146/63 128/128/63
f 126/126/5 127/127/5 128/128/5 129/129/5 130/130/5 131/131/5 132/132/5 133/133/5 134/134/5 135/135/5 136/136/5 137/137/5 138/138/5 139/139/5 140/140/5
f 144/144/76 142/142/77 141/141/77 143/143/76
f 146/146/78 144/144/76 143/143/76 145/145/78
f 148/148/79 146/146/78 145/145/78 147/147/79
f 150/150/80 148/148/79 147/147/79 149/149/80
f 152/152/81 150/150/80 149/149/80 151/151/81
f 154/154/82 152/152/81 151/151/81 153/153/82
f 156/156/83 154/154/82 153/153/82 155/155/83
f 158/158/84 156/156/83 155/155/83 157/157/84
f 160/160/85 158/158/84 157/157/84 159/159/85
f 162/162/86 160/160/85 159/159/85 161/161/86
f 164/164/87 162/162/86 161/161/86 163/163/87
f 166/166/88 164/164/87 163/163/87 165/165/88
f 168/168/89 166/166/88 165/165/88 167/167/89
f 170/170/90 168/168/89 167/167/89 169/169/90
f 142/142/77 170/170/90 169/169/90 141/141/77
f 143/143/6 141/141/6 169/169/6 167/167/6 165/165/6 163/163/6 161/161/6 159/159/6 157/157/6 155/155/6 153/153/6 151/151/6 149/149/6 147/147/6 145/145/6
s 0
f 172/172/2 171/171/2 174/174/2 173/173/2
f 176/176/4 177/177/4 178/178/4 175/175/4
f 172/172/3 173/173/3 177/177/3 176/176/3
f 173/173/6 174/174/6 178/178/6 177/177/6
f 174/174/1 171/171/1 175/175/1 178/178/1
f 171/171/5 172/172/5 176/176/5 175/175/5
f 180/180/2 179/179/2 182/182/2 181/181/2
f 184/184/4 185/185/4 186/186/4 183/183/4
f 180/180/3 181/181/3 185/185/3 184/184/3
f 181/181/6 182/182/6 186/186/6 185/185/6
f 182/182/1 179/179/1 183/183/1 186/186/1
f 179/179/5 180/180/5 184/184/5 183/183/5
f 188/188/4 189/189/4 190/190/4 187/187/4
f 192/192/2 191/191/2 194/194/2 193/193/2
f 188/188/5 187/187/5 191/191/5 192/192/5
f 189/189/3 188/188/3 192/192/3 193/193/3
f 190/190/6 189/189/6 193/193/6 194/194/6
f 187/187/1 190/190/1 194/194/1 191/191/1
