# Blender 3.4.1
# www.blender.org
mtllib bathroomfurniture001.mtl
g bathroom_furniture.001_Cube.129
v -0.469616 1.263290 0.997299
v -0.331804 1.831034 0.859486
v -0.469616 1.263290 -1.045798
v -0.331804 1.831034 -0.907986
v 2.948009 1.263290 0.997299
v 2.810196 1.831034 0.859486
v 2.948009 1.263290 -1.045798
v 2.810196 1.831034 -0.907986
v -0.469616 1.831034 0.997299
v -0.469616 1.831034 -1.045798
v 2.948009 1.831034 -1.045798
v 2.948009 1.831034 0.997299
v 0.104764 1.406774 0.542925
v 0.104764 1.406774 -0.591425
v 2.373629 1.406774 -0.591425
v 2.373629 1.406774 0.542925
v -1.177069 1.263290 -1.045798
v -1.177069 1.263290 0.997299
v -1.177069 1.831034 0.997299
v -1.177069 1.831034 -1.045798
v -0.522325 1.927955 0.944590
v -0.469616 1.875247 0.997299
v -0.469616 1.875247 -1.045798
v -0.522325 1.927955 -0.993090
v -1.177069 1.875247 0.997299
v -1.124361 1.927955 0.944590
v -1.124361 1.927955 -0.993090
v -1.177069 1.875247 -1.045798
v -0.754839 1.948859 0.120136
v -0.919725 1.948859 0.120136
v -0.919725 3.347667 0.120136
v -0.754839 1.948859 -0.125539
v -0.919725 1.948859 -0.125539
v -0.919725 3.347667 -0.125539
v -0.772406 3.415246 0.102569
v -0.902158 3.415246 0.102569
v -0.772406 3.415246 -0.107971
v -0.902158 3.415246 -0.107971
v -0.120880 3.415246 -0.125539
v -0.120880 3.415246 0.120136
v -0.754839 3.289943 0.120136
v -0.697116 3.347667 0.120136
v -0.754839 3.405391 0.120136
v -0.812563 3.347667 0.120136
v -0.747105 3.318805 0.120136
v -0.725979 3.339934 0.120136
v -0.697116 3.347667 -0.125539
v -0.754839 3.289943 -0.125539
v -0.812563 3.347667 -0.125539
v -0.754839 3.405391 -0.125539
v -0.725979 3.339934 -0.125539
v -0.747105 3.318805 -0.125539
v -0.754839 3.415246 0.120136
v -0.919725 3.415246 0.120136
v -0.754839 3.415246 -0.125539
v -0.919725 3.415246 -0.125539
v -0.772406 3.438598 0.102569
v -0.902158 3.438598 0.102569
v -0.772406 3.438598 -0.107971
v -0.902158 3.438598 -0.107971
v -0.756184 3.447475 0.128893
v -0.918383 3.447475 0.128893
v -0.756184 3.447475 -0.134295
v -0.918383 3.447475 -0.134295
v -0.756184 3.499234 0.128893
v -0.918383 3.499234 0.128893
v -0.756184 3.499234 -0.134295
v -0.918383 3.499234 -0.134295
v -0.754839 1.922451 0.120136
v -0.919725 1.922451 0.120136
v -0.754839 1.922451 -0.125539
v -0.919725 1.922451 -0.125539
v -0.693349 1.948859 0.181626
v -0.981216 1.948859 0.181626
v -0.693349 1.948859 -0.187029
v -0.981216 1.948859 -0.187029
v -0.693349 1.922451 0.181626
v -0.981216 1.922451 0.181626
v -0.693349 1.922451 -0.187029
v -0.981216 1.922451 -0.187029
v -0.051931 3.347667 -0.125539
v -0.051931 3.347667 0.120136
v -0.051931 3.415246 -0.125539
v -0.051931 3.415246 0.120136
v -0.120880 3.271974 -0.125539
v -0.120880 3.271974 0.120136
v -0.051931 3.271974 -0.125539
v -0.051931 3.271974 0.120136
v -0.120880 3.317688 -0.125539
v -0.150858 3.347667 -0.125539
v -0.120880 3.377646 -0.125539
v -0.090901 3.347667 -0.125539
v -0.129661 3.338886 -0.125539
v -0.150858 3.347667 0.120136
v -0.120880 3.317688 0.120136
v -0.090901 3.347667 0.120136
v -0.120880 3.377646 0.120136
v -0.129661 3.338886 0.120136
v -0.768759 2.454411 -0.301902
v -0.768759 2.454411 -0.353842
v -0.405256 2.454411 -0.301902
v -0.405256 2.454411 -0.353842
v -0.768759 2.319230 -0.353842
v -0.768759 2.319230 -0.301902
v -0.405256 2.319230 -0.301902
v -0.405256 2.319230 -0.353842
v -0.907111 2.454411 -0.353842
v -0.907111 2.454411 -0.301902
v -0.907111 2.319230 -0.353842
v -0.907111 2.319230 -0.301902
v -0.768759 2.319230 -0.020735
v -0.768759 2.454411 -0.020735
v -0.907111 2.319230 -0.020735
v -0.907111 2.454411 -0.020735
v 0.768378 1.382316 -0.159543
v 0.828182 1.382316 -0.146832
v 0.877647 1.382316 -0.110893
v 0.908217 1.382316 -0.057943
v 0.914608 1.382316 0.002861
v 0.895714 1.382316 0.061011
v 0.854803 1.382316 0.106447
v 0.798948 1.382316 0.131316
v 0.737807 1.382316 0.131316
v 0.681952 1.382316 0.106447
v 0.641041 1.382316 0.061011
v 0.622147 1.382316 0.002861
v 0.628538 1.382316 -0.057943
v 0.659109 1.382316 -0.110893
v 0.708573 1.382316 -0.146832
v 0.768378 1.460007 -0.134459
v 0.768378 1.435471 -0.159543
v 0.817980 1.460007 -0.123917
v 0.828182 1.435471 -0.146832
v 0.859005 1.460007 -0.094109
v 0.877647 1.435471 -0.110893
v 0.884361 1.460007 -0.050191
v 0.908217 1.435471 -0.057943
v 0.889661 1.460007 0.000239
v 0.914608 1.435471 0.002861
v 0.873991 1.460007 0.048469
v 0.895714 1.435471 0.061011
v 0.840059 1.460007 0.086153
v 0.854803 1.435471 0.106447
v 0.793733 1.460007 0.106780
v 0.798948 1.435471 0.131316
v 0.743022 1.460007 0.106780
v 0.737807 1.435471 0.131316
v 0.696696 1.460007 0.086153
v 0.681952 1.435471 0.106447
v 0.662764 1.460007 0.048469
v 0.641041 1.435471 0.061011
v 0.647094 1.460007 0.000239
v 0.622147 1.435471 0.002861
v 0.652395 1.460007 -0.050191
v 0.628538 1.435471 -0.057943
v 0.677750 1.460007 -0.094109
v 0.659109 1.435471 -0.110893
v 0.718775 1.460007 -0.123917
v 0.708573 1.435471 -0.146832
v -3.740142 -1.051639 -1.343527
v 3.844025 -1.051639 -1.343527
v -3.740142 1.085314 -1.343527
v 3.844025 1.085314 -1.343527
v -3.740142 -1.051639 1.257940
v 3.844025 -1.051639 1.257940
v 3.844025 1.085314 1.257940
v -3.740142 1.085314 1.257940
v -3.740142 -1.051639 -1.534517
v 3.844025 -1.051639 -1.534517
v 3.844025 1.085314 -1.534517
v -3.740142 1.085314 -1.534517
v 3.844025 7.365993 -1.343527
v -3.740142 7.365993 -1.343527
v 3.844025 7.365993 -1.534517
v -3.740142 7.365993 -1.534517
v 0.051941 -1.051639 1.257940
v 0.051942 1.085314 1.257940
v -3.740142 0.016837 1.257940
v 3.844025 0.016837 1.257940
v 0.051942 0.016837 1.257940
v 0.002622 0.087794 1.381404
v 0.002622 1.014357 1.381404
v -3.690822 1.014357 1.381404
v -3.690822 0.087794 1.381404
v 0.002622 -0.980683 1.381404
v 0.002622 -0.054119 1.381404
v -3.690822 -0.054119 1.381404
v -3.690822 -0.980683 1.381404
v 3.794705 -0.980683 1.381404
v 3.794705 -0.054119 1.381404
v 0.101261 -0.054119 1.381404
v 0.101261 -0.980683 1.381404
v 3.794705 0.087794 1.381404
v 3.794705 1.014357 1.381404
v 0.101261 1.014357 1.381404
v 0.101261 0.087794 1.381404
v -3.882334 1.081831 -1.392301
v 3.986217 1.081831 -1.392301
v 3.986217 1.081831 1.306714
v -3.882334 1.081831 1.306714
v 3.986217 1.274562 -1.392301
v -3.882334 1.274562 -1.392301
v 3.986217 1.274562 1.306714
v -3.882334 1.274562 1.306714
v -0.322081 1.085314 -1.343524
v 2.626508 1.085314 -1.343524
v 2.626508 7.365993 -1.343524
v -0.322081 7.365993 -1.343524
v 2.626508 1.085314 -1.247714
v -0.322081 1.085314 -1.247714
v 2.626508 7.365993 -1.247714
v -0.322081 7.365993 -1.247714
vn -1.0000 -0.0000 -0.0000
vn -0.0000 -0.0000 -1.0000
vn 1.0000 -0.0000 -0.0000
vn -0.0000 -0.0000 1.0000
vn -0.0000 -1.0000 -0.0000
vn -0.0000 0.5980 -0.8015
vn -0.0000 1.0000 -0.0000
vn -0.0000 0.5980 0.8015
vn -0.6969 0.7171 -0.0000
vn 0.6969 0.7171 -0.0000
vn 0.7071 0.7071 -0.0000
vn -0.7071 0.7071 -0.0000
vn -0.0000 0.7071 -0.7071
vn -0.0000 0.7071 0.7071
vn 0.2588 -0.9659 -0.0000
vn 0.7071 -0.7071 -0.0000
vn 0.9659 -0.2588 -0.0000
vn 0.4801 -0.8772 -0.0000
vn -0.0000 -0.9476 -0.3196
vn -0.4800 -0.8773 -0.0000
vn -0.0000 -0.9476 0.3196
vn -0.9239 -0.3827 -0.0000
vn -0.3827 -0.9239 -0.0000
vn -0.4067 -0.0000 -0.9135
vn 0.7432 -0.0000 -0.6691
vn 0.9511 -0.0000 -0.3090
vn 0.9945 -0.0000 0.1045
vn 0.8660 -0.0000 0.5000
vn 0.5878 -0.0000 0.8090
vn 0.2079 -0.0000 0.9781
vn -0.2079 -0.0000 0.9781
vn -0.5878 -0.0000 0.8090
vn -0.8660 -0.0000 0.5000
vn -0.9945 -0.0000 0.1045
vn -0.9511 -0.0000 -0.3090
vn -0.7432 -0.0000 -0.6691
vn 0.4067 -0.0000 -0.9135
vn 0.2844 0.7149 -0.6388
vn -0.0000 0.7149 -0.6993
vn 0.5197 0.7149 -0.4679
vn 0.6650 0.7149 -0.2161
vn 0.6954 0.7149 0.0731
vn 0.6056 0.7149 0.3496
vn 0.4110 0.7149 0.5657
vn 0.1454 0.7149 0.6840
vn -0.1454 0.7149 0.6840
vn -0.4110 0.7149 0.5657
vn -0.6056 0.7149 0.3496
vn -0.6954 0.7149 0.0731
vn -0.6650 0.7149 -0.2161
vn -0.5197 0.7149 -0.4679
vn -0.2844 0.7149 -0.6388
vn 0.9286 -0.0000 0.3710
vn -0.0000 0.8670 0.4983
vn -0.9286 -0.0000 0.3710
vn -0.0000 -0.8670 0.4983
vt 0.419390 0.103150
vt 0.419390 0.103150
vt 0.419390 0.103150
vt 0.419390 0.103150
vt 0.419390 0.103150
vt 0.419390 0.103150
vt 0.419390 0.103150
vt 0.419390 0.103150
vt 0.419390 0.103150
vt 0.419390 0.103150
vt 0.419390 0.103150
vt 0.419390 0.103150
vt 0.419390 0.103150
vt 0.419390 0.103150
vt 0.419390 0.103150
vt 0.419390 0.103150
vt 0.419390 0.103150
vt 0.419390 0.103150
vt 0.419390 0.103150
vt 0.419390 0.103150
vt 0.419390 0.103150
vt 0.419390 0.103150
vt 0.419390 0.103150
vt 0.419390 0.103150
vt 0.419390 0.103150
vt 0.419390 0.103150
vt 0.419390 0.103150
vt 0.419390 0.103150
vt 0.751132 0.112451
vt 0.751132 0.112451
vt 0.751132 0.112451
vt 0.751132 0.112451
vt 0.751132 0.112451
vt 0.751132 0.112451
vt 0.751132 0.112451
vt 0.751132 0.112451
vt 0.751132 0.112451
vt 0.751132 0.112451
vt 0.751132 0.112451
vt 0.751132 0.112451
vt 0.751132 0.112451
vt 0.751132 0.112451
vt 0.751132 0.112451
vt 0.751132 0.112451
vt 0.751132 0.112451
vt 0.751132 0.112451
vt 0.751132 0.112451
vt 0.751132 0.112451
vt 0.751132 0.112451
vt 0.751132 0.112451
vt 0.751132 0.112451
vt 0.751132 0.112451
vt 0.751132 0.112451
vt 0.751132 0.112451
vt 0.751132 0.112451
vt 0.751132 0.112451
vt 0.751132 0.112451
vt 0.751132 0.112451
vt 0.751132 0.112451
vt 0.751132 0.112451
vt 0.751132 0.112451
vt 0.751132 0.112451
vt 0.751132 0.112451
vt 0.751132 0.112451
vt 0.751132 0.112451
vt 0.751132 0.112451
vt 0.751132 0.112451
vt 0.751132 0.112451
vt 0.751132 0.112451
vt 0.751132 0.112451
vt 0.751132 0.112451
vt 0.751132 0.112451
vt 0.751132 0.112451
vt 0.751132 0.112451
vt 0.751132 0.112451
vt 0.751132 0.112451
vt 0.751132 0.112451
vt 0.751132 0.112451
vt 0.751132 0.112451
vt 0.751132 0.112451
vt 0.751132 0.112451
vt 0.751132 0.112451
vt 0.751132 0.112451
vt 0.751132 0.112451
vt 0.751132 0.112451
vt 0.751132 0.112451
vt 0.751132 0.112451
vt 0.751132 0.112451
vt 0.751132 0.112451
vt 0.751132 0.112451
vt 0.751132 0.112451
vt 0.751132 0.112451
vt 0.751132 0.112451
vt 0.751132 0.112451
vt 0.751132 0.112451
vt 0.751132 0.112451
vt 0.751132 0.112451
vt 0.751132 0.112451
vt 0.751132 0.112451
vt 0.751132 0.112451
vt 0.751132 0.112451
vt 0.751132 0.112451
vt 0.751132 0.112451
vt 0.751132 0.112451
vt 0.751132 0.112451
vt 0.751132 0.112451
vt 0.751132 0.112451
vt 0.751132 0.112451
vt 0.751132 0.112451
vt 0.751132 0.112451
vt 0.751132 0.112451
vt 0.751132 0.112451
vt 0.751132 0.112451
vt 0.751132 0.112451
vt 0.751132 0.112451
vt 0.751132 0.112451
vt 0.751132 0.112451
vt 0.751132 0.112451
vt 0.751132 0.112451
vt 0.751132 0.112451
vt 0.751132 0.112451
vt 0.751132 0.112451
vt 0.751132 0.112451
vt 0.751132 0.112451
vt 0.751132 0.112451
vt 0.751132 0.112451
vt 0.751132 0.112451
vt 0.751132 0.112451
vt 0.751132 0.112451
vt 0.751132 0.112451
vt 0.751132 0.112451
vt 0.751132 0.112451
vt 0.751132 0.112451
vt 0.751132 0.112451
vt 0.751132 0.112451
vt 0.751132 0.112451
vt 0.751132 0.112451
vt 0.751132 0.112451
vt 0.751132 0.112451
vt 0.751132 0.112451
vt 0.751132 0.112451
vt 0.751132 0.112451
vt 0.751132 0.112451
vt 0.751132 0.112451
vt 0.751132 0.112451
vt 0.751132 0.112451
vt 0.751132 0.112451
vt 0.751132 0.112451
vt 0.751132 0.112451
vt 0.751132 0.112451
vt 0.751132 0.112451
vt 0.751132 0.112451
vt 0.751132 0.112451
vt 0.751132 0.112451
vt 0.751132 0.112451
vt 0.751132 0.112451
vt 0.751132 0.112451
vt 0.751132 0.112451
vt 0.751132 0.112451
vt 0.096949 0.927854
vt 0.096949 0.927854
vt 0.096949 0.927854
vt 0.096949 0.927854
vt 0.096949 0.927854
vt 0.096949 0.927854
vt 0.096949 0.927854
vt 0.096949 0.927854
vt 0.096949 0.927854
vt 0.096949 0.927854
vt 0.096949 0.927854
vt 0.096949 0.927854
vt 0.096949 0.927854
vt 0.096949 0.927854
vt 0.096949 0.927854
vt 0.096949 0.927854
vt 0.096949 0.927854
vt 0.096949 0.927854
vt 0.096949 0.927854
vt 0.096949 0.927854
vt 0.096949 0.927854
vt 0.096949 0.927854
vt 0.096949 0.927854
vt 0.096949 0.927854
vt 0.096949 0.927854
vt 0.096949 0.927854
vt 0.096949 0.927854
vt 0.096949 0.927854
vt 0.096949 0.927854
vt 0.096949 0.927854
vt 0.096949 0.927854
vt 0.096949 0.927854
vt 0.096949 0.927854
vt 0.096949 0.927854
vt 0.096949 0.927854
vt 0.096949 0.927854
vt 0.096949 0.927854
vt 0.261270 0.887549
vt 0.261270 0.887549
vt 0.261270 0.887549
vt 0.261270 0.887549
vt 0.261270 0.887549
vt 0.261270 0.887549
vt 0.261270 0.887549
vt 0.261270 0.887549
vt 0.493799 0.534104
vt 0.493799 0.534104
vt 0.493799 0.534104
vt 0.493799 0.534104
vt 0.493799 0.534104
vt 0.493799 0.534104
vt 0.493799 0.534104
vt 0.493799 0.534104
s 1
g bathroom_furniture.001_Material
usemtl Material
f 20/20/1 19/19/1 25/25/1 28/28/1
f 3/3/2 10/10/2 11/11/2 7/7/2
f 7/7/3 11/11/3 12/12/3 5/5/3
f 5/5/4 12/12/4 9/9/4 1/1/4
f 3/3/5 7/7/5 5/5/5 1/1/5
f 2/2/6 6/6/6 16/16/6 13/13/6
f 2/2/7 4/4/7 10/10/7 9/9/7
f 4/4/7 8/8/7 11/11/7 10/10/7
f 8/8/7 6/6/7 12/12/7 11/11/7
f 6/6/7 2/2/7 9/9/7 12/12/7
f 15/15/7 14/14/7 13/13/7 16/16/7
f 8/8/8 4/4/8 14/14/8 15/15/8
f 6/6/9 8/8/9 15/15/9 16/16/9
f 4/4/10 2/2/10 13/13/10 14/14/10
f 18/18/1 19/19/1 20/20/1 17/17/1
f 3/3/5 1/1/5 18/18/5 17/17/5
f 10/10/2 3/3/2 17/17/2 20/20/2
f 1/1/4 9/9/4 19/19/4 18/18/4
f 19/19/4 9/9/4 22/22/4 25/25/4
f 21/21/7 24/24/7 27/27/7 26/26/7
f 10/10/2 20/20/2 28/28/2 23/23/2
f 22/22/11 23/23/11 24/24/11 21/21/11
f 26/26/12 27/27/12 28/28/12 25/25/12
f 23/23/13 28/28/13 27/27/13 24/24/13
f 25/25/14 22/22/14 21/21/14 26/26/14
f 9/9/3 10/10/3 23/23/3 22/22/3
s 0
f 41/41/3 29/29/3 32/32/3 48/48/3
f 89/89/2 92/92/2 81/81/2 87/87/2 85/85/2
f 30/30/1 31/31/1 34/34/1 33/33/1
f 33/33/7 32/32/7 75/75/7 76/76/7
f 92/92/2 91/91/2 39/39/2 83/83/2 81/81/2
f 34/34/1 31/31/1 54/54/1 56/56/1
f 36/36/4 35/35/4 57/57/4 58/58/4
f 29/29/4 41/41/4 44/44/4 31/31/4 30/30/4
f 32/32/2 33/33/2 34/34/2 49/49/2 48/48/2
f 82/82/4 96/96/4 95/95/4 86/86/4 88/88/4
f 55/55/7 53/53/7 40/40/7 39/39/7
f 50/50/2 49/49/2 34/34/2 56/56/2 55/55/2
f 41/41/4 45/45/4 46/46/4 42/42/4 43/43/4 44/44/4
f 47/47/2 51/51/2 52/52/2 48/48/2 49/49/2 50/50/2
f 47/47/15 42/42/15 46/46/15 51/51/15
f 51/51/16 46/46/16 45/45/16 52/52/16
f 52/52/17 45/45/17 41/41/17 48/48/17
f 31/31/4 44/44/4 43/43/4 53/53/4 54/54/4
f 35/35/7 36/36/7 54/54/7 53/53/7
f 38/38/7 37/37/7 55/55/7 56/56/7
f 36/36/7 38/38/7 56/56/7 54/54/7
f 37/37/7 35/35/7 53/53/7 55/55/7
f 57/57/18 59/59/18 63/63/18 61/61/18
f 35/35/3 37/37/3 59/59/3 57/57/3
f 37/37/2 38/38/2 60/60/2 59/59/2
f 38/38/1 36/36/1 58/58/1 60/60/1
f 61/61/3 63/63/3 67/67/3 65/65/3
f 59/59/19 60/60/19 64/64/19 63/63/19
f 60/60/20 58/58/20 62/62/20 64/64/20
f 58/58/21 57/57/21 61/61/21 62/62/21
f 66/66/7 65/65/7 67/67/7 68/68/7
f 63/63/2 64/64/2 68/68/2 67/67/2
f 64/64/1 62/62/1 66/66/1 68/68/1
f 62/62/4 61/61/4 65/65/4 66/66/4
f 69/69/5 70/70/5 72/72/5 71/71/5
f 32/32/7 29/29/7 73/73/7 75/75/7
f 71/71/5 72/72/5 80/80/5 79/79/5
f 69/69/5 71/71/5 79/79/5 77/77/5
f 75/75/3 73/73/3 77/77/3 79/79/3
f 76/76/2 75/75/2 79/79/2 80/80/2
f 73/73/4 74/74/4 78/78/4 77/77/4
f 74/74/1 76/76/1 80/80/1 78/78/1
f 72/72/5 70/70/5 78/78/5 80/80/5
f 29/29/7 30/30/7 74/74/7 73/73/7
f 70/70/5 69/69/5 77/77/5 78/78/5
f 30/30/7 33/33/7 76/76/7 74/74/7
f 82/82/3 81/81/3 83/83/3 84/84/3
f 39/39/7 40/40/7 84/84/7 83/83/7
f 47/47/2 50/50/2 55/55/2 39/39/2 91/91/2 90/90/2
f 53/53/4 43/43/4 42/42/4 94/94/4 97/97/4 40/40/4
f 86/86/5 85/85/5 87/87/5 88/88/5
f 42/42/5 47/47/5 90/90/5 94/94/5
f 81/81/3 82/82/3 88/88/3 87/87/3
f 40/40/4 97/97/4 96/96/4 82/82/4 84/84/4
f 89/89/2 93/93/2 90/90/2 91/91/2 92/92/2
f 94/94/4 98/98/4 95/95/4 96/96/4 97/97/4
f 89/89/22 95/95/22 98/98/22 93/93/22
f 93/93/23 98/98/23 94/94/23 90/90/23
f 95/95/1 89/89/1 85/85/1 86/86/1
f 101/101/7 102/102/7 100/100/7 99/99/7
f 105/105/5 104/104/5 103/103/5 106/106/5
f 104/104/3 99/99/3 112/112/3 111/111/3
f 100/100/2 102/102/2 106/106/2 103/103/2
f 102/102/3 101/101/3 105/105/3 106/106/3
f 101/101/4 99/99/4 104/104/4 105/105/4
f 108/108/1 107/107/1 109/109/1 110/110/1
f 100/100/2 103/103/2 109/109/2 107/107/2
f 103/103/5 104/104/5 110/110/5 109/109/5
f 99/99/7 100/100/7 107/107/7 108/108/7
f 111/111/4 112/112/4 114/114/4 113/113/4
f 99/99/7 108/108/7 114/114/7 112/112/7
f 110/110/5 104/104/5 111/111/5 113/113/5
f 108/108/1 110/110/1 113/113/1 114/114/1
s 1
f 129/129/24 159/159/24 131/131/2 115/115/2
f 117/117/25 135/135/25 137/137/26 118/118/26
f 118/118/26 137/137/26 139/139/27 119/119/27
f 119/119/27 139/139/27 141/141/28 120/120/28
f 120/120/28 141/141/28 143/143/29 121/121/29
f 121/121/29 143/143/29 145/145/30 122/122/30
f 122/122/30 145/145/30 147/147/31 123/123/31
f 123/123/31 147/147/31 149/149/32 124/124/32
f 124/124/32 149/149/32 151/151/33 125/125/33
f 125/125/33 151/151/33 153/153/34 126/126/34
f 126/126/34 153/153/34 155/155/35 127/127/35
f 127/127/35 155/155/35 157/157/36 128/128/36
f 128/128/36 157/157/36 159/159/24 129/129/24
f 115/115/2 131/131/2 133/133/37 116/116/37
f 116/116/37 133/133/37 135/135/25 117/117/25
f 115/115/5 116/116/5 117/117/5 118/118/5 119/119/5 120/120/5 121/121/5 122/122/5 123/123/5 124/124/5 125/125/5 126/126/5 127/127/5 128/128/5 129/129/5
f 133/133/38 131/131/39 130/130/39 132/132/38
f 135/135/40 133/133/38 132/132/38 134/134/40
f 137/137/41 135/135/40 134/134/40 136/136/41
f 139/139/42 137/137/41 136/136/41 138/138/42
f 141/141/43 139/139/42 138/138/42 140/140/43
f 143/143/44 141/141/43 140/140/43 142/142/44
f 145/145/45 143/143/44 142/142/44 144/144/45
f 147/147/46 145/145/45 144/144/45 146/146/46
f 149/149/47 147/147/46 146/146/46 148/148/47
f 151/151/48 149/149/47 148/148/47 150/150/48
f 153/153/49 151/151/48 150/150/48 152/152/49
f 155/155/50 153/153/49 152/152/49 154/154/50
f 157/157/51 155/155/50 154/154/50 156/156/51
f 159/159/52 157/157/51 156/156/51 158/158/52
f 131/131/39 159/159/52 158/158/52 130/130/39
f 132/132/7 130/130/7 158/158/7 156/156/7 154/154/7 152/152/7 150/150/7 148/148/7 146/146/7 144/144/7 142/142/7 140/140/7 138/138/7 136/136/7 134/134/7
s 0
f 160/160/1 162/162/1 171/171/1 168/168/1
f 162/162/1 160/160/1 164/164/1 178/178/1 167/167/1
f 160/160/5 161/161/5 165/165/5 176/176/5 164/164/5
f 161/161/3 163/163/3 166/166/3 179/179/3 165/165/3
f 163/163/7 162/162/7 167/167/7 177/177/7 166/166/7
f 169/169/2 168/168/2 171/171/2 170/170/2
f 161/161/5 160/160/5 168/168/5 169/169/5
f 163/163/3 161/161/3 169/169/3 170/170/3
f 170/170/2 171/171/2 175/175/2 174/174/2
f 173/173/7 172/172/7 174/174/7 175/175/7
f 171/171/1 162/162/1 173/173/1 175/175/1
f 162/162/4 163/163/4 172/172/4 173/173/4
f 163/163/3 170/170/3 174/174/3 172/172/3
f 181/181/4 182/182/4 183/183/4 184/184/4
f 177/177/53 182/182/53 181/181/53 180/180/53
f 167/167/54 183/183/54 182/182/54 177/177/54
f 178/178/55 184/184/55 183/183/55 167/167/55
f 180/180/56 181/181/56 184/184/56 178/178/56
f 185/185/4 186/186/4 187/187/4 188/188/4
f 180/180/53 186/186/53 185/185/53 176/176/53
f 178/178/54 187/187/54 186/186/54 180/180/54
f 164/164/55 188/188/55 187/187/55 178/178/55
f 176/176/56 185/185/56 188/188/56 164/164/56
f 189/189/4 190/190/4 191/191/4 192/192/4
f 179/179/53 190/190/53 189/189/53 165/165/53
f 180/180/54 191/191/54 190/190/54 179/179/54
f 176/176/55 192/192/55 191/191/55 180/180/55
f 165/165/56 189/189/56 192/192/56 176/176/56
f 193/193/4 194/194/4 195/195/4 196/196/4
f 166/166/53 194/194/53 193/193/53 179/179/53
f 177/177/54 195/195/54 194/194/54 166/166/54
f 180/180/55 196/196/55 195/195/55 177/177/55
f 179/179/56 193/193/56 196/196/56 180/180/56
f 198/198/5 199/199/5 200/200/5 197/197/5
f 201/201/7 202/202/7 204/204/7 203/203/7
f 197/197/1 200/200/1 204/204/1 202/202/1
f 198/198/2 197/197/2 202/202/2 201/201/2
f 199/199/3 198/198/3 201/201/3 203/203/3
f 200/200/4 199/199/4 203/203/4 204/204/4
f 205/205/2 208/208/2 207/207/2 206/206/2
f 210/210/4 209/209/4 211/211/4 212/212/4
f 206/206/3 207/207/3 211/211/3 209/209/3
f 207/207/7 208/208/7 212/212/7 211/211/7
f 208/208/1 205/205/1 210/210/1 212/212/1
f 205/205/5 206/206/5 209/209/5 210/210/5
