# Blender 3.4.1
# www.blender.org
mtllib bathroomaccessory008.mtl
g bathroom_accessory.007_Cube.194
v -0.605896 -0.159059 0.705438
v -0.605896 0.110798 0.705438
v -0.721067 0.110798 0.674578
v -0.721067 -0.159059 0.674578
v -0.805377 0.110798 0.590267
v -0.805378 -0.159059 0.590267
v -0.836237 0.110798 0.475097
v -0.836237 -0.159059 0.475097
v -0.605896 0.110798 -0.803298
v -0.605896 -0.159059 -0.803298
v -0.721067 -0.159059 -0.772438
v -0.721067 0.110798 -0.772438
v -0.805377 -0.159059 -0.688128
v -0.805378 0.110798 -0.688128
v -0.836237 -0.159059 -0.572957
v -0.836237 0.110798 -0.572957
v 0.836237 0.110798 -0.572957
v 0.836237 -0.159059 -0.572957
v 0.805377 -0.159059 -0.688128
v 0.805377 0.110798 -0.688128
v 0.721067 -0.159059 -0.772438
v 0.721067 0.110798 -0.772438
v 0.605897 -0.159059 -0.803298
v 0.605897 0.110798 -0.803298
v 0.605897 0.110798 0.705438
v 0.605897 -0.159059 0.705438
v 0.721067 -0.159059 0.674578
v 0.721067 0.110798 0.674578
v 0.805377 -0.159059 0.590267
v 0.805377 0.110798 0.590267
v 0.836237 -0.159059 0.475097
v 0.836237 0.110798 0.475097
v -0.600139 -0.602369 0.661710
v -0.792510 -0.602369 0.469340
v -0.697881 -0.602369 0.634419
v -0.765218 -0.602369 0.567082
v -0.836237 0.554109 0.475097
v -0.605896 0.554109 0.705438
v -0.805377 0.554109 0.590267
v -0.721067 0.554109 0.674578
v -0.792510 -0.602369 -0.567200
v -0.600140 -0.602369 -0.759570
v -0.765218 -0.602369 -0.664942
v -0.697881 -0.602369 -0.732279
v -0.605896 0.554109 -0.803298
v -0.836237 0.554109 -0.572957
v -0.721067 0.554109 -0.772438
v -0.805377 0.554109 -0.688128
v 0.792510 -0.602369 0.469340
v 0.600140 -0.602369 0.661710
v 0.765218 -0.602369 0.567082
v 0.697881 -0.602369 0.634419
v 0.605897 0.554109 0.705438
v 0.836237 0.554109 0.475097
v 0.721067 0.554109 0.674578
v 0.805377 0.554109 0.590267
v 0.600140 -0.602369 -0.759570
v 0.792510 -0.602369 -0.567200
v 0.697881 -0.602369 -0.732279
v 0.765218 -0.602369 -0.664942
v 0.836237 0.554109 -0.572957
v 0.605897 0.554109 -0.803298
v 0.805377 0.554109 -0.688128
v 0.721067 0.554109 -0.772438
v -0.721067 -0.602369 0.674578
v -0.605896 -0.602369 0.705438
v -0.805377 -0.602369 0.590267
v -0.836237 -0.602369 0.475097
v -0.605896 -0.602369 -0.803298
v -0.721067 -0.602369 -0.772438
v -0.805377 -0.602369 -0.688128
v -0.836237 -0.602369 -0.572957
v 0.836237 -0.602369 -0.572957
v 0.805377 -0.602369 -0.688128
v 0.721067 -0.602369 -0.772438
v 0.605897 -0.602369 -0.803298
v 0.605897 -0.602369 0.705438
v 0.721067 -0.602369 0.674578
v 0.805377 -0.602369 0.590267
v 0.836237 -0.602369 0.475097
v -0.836237 0.577806 0.475097
v -0.812540 0.554109 0.471977
v -0.602777 0.554109 0.681741
v -0.605896 0.577806 0.705438
v -0.805377 0.577806 0.590267
v -0.784131 0.554109 0.578001
v -0.721067 0.577806 0.674578
v -0.708800 0.554109 0.653332
v -0.605896 0.577806 -0.803298
v -0.602777 0.554109 -0.779601
v -0.812540 0.554109 -0.569837
v -0.836237 0.577806 -0.572957
v -0.708800 0.554109 -0.751192
v -0.721067 0.577806 -0.772438
v -0.784131 0.554109 -0.675861
v -0.805377 0.577806 -0.688128
v 0.605897 0.577806 0.705438
v 0.602777 0.554109 0.681741
v 0.812540 0.554109 0.471977
v 0.836237 0.577806 0.475097
v 0.708800 0.554109 0.653332
v 0.721067 0.577806 0.674578
v 0.784131 0.554109 0.578001
v 0.805377 0.577806 0.590267
v 0.836237 0.577806 -0.572957
v 0.812540 0.554109 -0.569837
v 0.602777 0.554109 -0.779601
v 0.605897 0.577806 -0.803298
v 0.784131 0.554109 -0.675861
v 0.805377 0.577806 -0.688128
v 0.708800 0.554109 -0.751192
v 0.721067 0.577806 -0.772438
v -0.605896 0.658806 0.705438
v -0.602777 0.682503 0.681741
v -0.708800 0.682503 0.653332
v -0.721067 0.658806 0.674578
v -0.784131 0.682503 0.578001
v -0.805377 0.658806 0.590267
v -0.812540 0.682503 0.471977
v -0.836237 0.658806 0.475097
v -0.721067 0.658806 -0.772438
v -0.708800 0.682503 -0.751192
v -0.602777 0.682503 -0.779601
v -0.605896 0.658806 -0.803298
v -0.805377 0.658806 -0.688128
v -0.784132 0.682503 -0.675861
v -0.836237 0.658806 -0.572957
v -0.812540 0.682503 -0.569837
v 0.805377 0.658806 -0.688128
v 0.784131 0.682503 -0.675861
v 0.812540 0.682503 -0.569837
v 0.836237 0.658806 -0.572957
v 0.721067 0.658806 -0.772438
v 0.708800 0.682503 -0.751192
v 0.605897 0.658806 -0.803298
v 0.602777 0.682503 -0.779601
v 0.721067 0.658806 0.674578
v 0.708800 0.682503 0.653332
v 0.602777 0.682503 0.681741
v 0.605897 0.658806 0.705438
v 0.805377 0.658806 0.590267
v 0.784132 0.682503 0.578001
v 0.836237 0.658806 0.475097
v 0.812540 0.682503 0.471977
v -0.600139 -0.602369 0.661710
v -0.792510 -0.602369 0.469340
v -0.697881 -0.602369 0.634419
v -0.765218 -0.602369 0.567082
v -0.792510 -0.602369 -0.567200
v -0.600140 -0.602369 -0.759570
v -0.765218 -0.602369 -0.664942
v -0.697881 -0.602369 -0.732279
v 0.792510 -0.602369 0.469340
v 0.600140 -0.602369 0.661710
v 0.765218 -0.602369 0.567082
v 0.697881 -0.602369 0.634419
v 0.600140 -0.602369 -0.759570
v 0.792510 -0.602369 -0.567200
v 0.697881 -0.602369 -0.732279
v 0.765218 -0.602369 -0.664942
v -0.697881 -0.752374 0.634419
v -0.600139 -0.752374 0.661710
v -0.765218 -0.752374 0.567082
v -0.792510 -0.752374 0.469340
v -0.600140 -0.752374 -0.759570
v -0.697881 -0.752374 -0.732279
v -0.765218 -0.752374 -0.664942
v -0.792510 -0.752374 -0.567200
v 0.792510 -0.752374 -0.567200
v 0.765218 -0.752374 -0.664942
v 0.697881 -0.752374 -0.732279
v 0.600140 -0.752374 -0.759570
v 0.600140 -0.752374 0.661710
v 0.697881 -0.752374 0.634419
v 0.765218 -0.752374 0.567082
v 0.792510 -0.752374 0.469340
v -0.605896 -0.159059 0.705438
v -0.605896 0.110798 0.705438
v -0.721067 0.110798 0.674578
v -0.721067 -0.159059 0.674578
v -0.805377 0.110798 0.590267
v -0.805378 -0.159059 0.590267
v -0.836237 0.110798 0.475097
v -0.836237 -0.159059 0.475097
v -0.605896 0.110798 -0.803298
v -0.605896 -0.159059 -0.803298
v -0.721067 -0.159059 -0.772438
v -0.721067 0.110798 -0.772438
v -0.805377 -0.159059 -0.688128
v -0.805378 0.110798 -0.688128
v -0.836237 -0.159059 -0.572957
v -0.836237 0.110798 -0.572957
v 0.836237 0.110798 -0.572957
v 0.836237 -0.159059 -0.572957
v 0.805377 -0.159059 -0.688128
v 0.805377 0.110798 -0.688128
v 0.721067 -0.159059 -0.772438
v 0.721067 0.110798 -0.772438
v 0.605897 -0.159059 -0.803298
v 0.605897 0.110798 -0.803298
v 0.605897 0.110798 0.705438
v 0.605897 -0.159059 0.705438
v 0.721067 -0.159059 0.674578
v 0.721067 0.110798 0.674578
v 0.805377 -0.159059 0.590267
v 0.805377 0.110798 0.590267
v 0.836237 -0.159059 0.475097
v 0.836237 0.110798 0.475097
v -0.278618 -0.602369 0.669987
v 0.278618 -0.602369 0.669987
v -0.278618 -0.387839 0.669987
v 0.278618 -0.387839 0.669987
v 0.278618 -0.387839 0.914461
v 0.233161 -0.433296 0.959918
v 0.233161 -0.556912 0.959918
v 0.278618 -0.602369 0.914461
v -0.233161 -0.556912 0.959918
v -0.278618 -0.602369 0.914461
v -0.233161 -0.433296 0.959918
v -0.278618 -0.387839 0.914461
vn 0.8660 -0.0000 0.5000
vn 0.9914 -0.0000 0.1305
vn 0.5000 -0.0000 0.8660
vn 0.1305 -0.0000 0.9914
vn 0.5000 -0.0000 -0.8660
vn 0.1305 -0.0000 -0.9914
vn 0.8660 -0.0000 -0.5000
vn 0.9914 -0.0000 -0.1305
vn -0.8660 -0.0000 -0.5000
vn -0.9914 -0.0000 -0.1305
vn -0.5000 -0.0000 -0.8660
vn -0.1305 -0.0000 -0.9914
vn -0.8660 -0.0000 0.5000
vn -0.9914 -0.0000 0.1305
vn -0.5000 -0.0000 0.8660
vn -0.1305 -0.0000 0.9914
vn -0.0000 -1.0000 -0.0000
vn -0.0000 1.0000 -0.0000
vn -0.0919 -0.7101 0.6980
vn -0.3474 -0.7193 0.6017
vn -0.6017 -0.7193 0.3474
vn -0.6980 -0.7101 0.0919
vn -0.3474 -0.7193 -0.6017
vn -0.0919 -0.7101 -0.6980
vn -0.6017 -0.7193 -0.3474
vn -0.6980 -0.7101 -0.0919
vn 0.6017 -0.7193 -0.3474
vn 0.6980 -0.7101 -0.0919
vn 0.3474 -0.7193 -0.6017
vn 0.0919 -0.7101 -0.6980
vn 0.3474 -0.7193 0.6017
vn 0.0919 -0.7101 0.6980
vn 0.6017 -0.7193 0.3474
vn 0.6980 -0.7101 0.0919
vn -0.0919 0.7101 0.6980
vn -0.3474 0.7193 0.6017
vn -0.6017 0.7193 0.3474
vn -0.6980 0.7101 0.0919
vn -0.3474 0.7193 -0.6017
vn -0.0919 0.7101 -0.6980
vn -0.6017 0.7193 -0.3474
vn -0.6980 0.7101 -0.0919
vn 0.6017 0.7193 -0.3474
vn 0.6980 0.7101 -0.0919
vn 0.3474 0.7193 -0.6017
vn 0.0919 0.7101 -0.6980
vn 0.3474 0.7193 0.6017
vn 0.0919 0.7101 0.6980
vn 0.6017 0.7193 0.3474
vn 0.6980 0.7101 0.0919
vn 0.9907 -0.0000 -0.1357
vn 0.9907 -0.0000 0.1357
vn 0.5045 -0.0000 -0.8634
vn 0.8634 -0.0000 -0.5045
vn -0.1357 -0.0000 0.9907
vn -0.5045 -0.0000 0.8634
vn 0.1357 -0.0000 0.9907
vn 0.1357 -0.0000 -0.9907
vn -0.8634 -0.0000 0.5045
vn 0.5045 -0.0000 0.8634
vn -0.9907 -0.0000 0.1357
vn 0.8634 -0.0000 0.5045
vn -0.5045 -0.0000 -0.8634
vn -0.1357 -0.0000 -0.9907
vn -0.8634 -0.0000 -0.5045
vn -0.9907 -0.0000 -0.1357
vn -0.0000 -0.0000 -1.0000
vn -1.0000 -0.0000 -0.0000
vn -0.0000 -0.0000 1.0000
vn 0.7071 -0.0000 0.7071
vn -0.0000 -0.7071 0.7071
vn -0.7071 -0.0000 0.7071
vn -0.0000 0.7071 0.7071
vn 1.0000 -0.0000 -0.0000
vt 0.741079 0.095201
vt 0.741079 0.095201
vt 0.741079 0.095201
vt 0.741079 0.095201
vt 0.741079 0.095201
vt 0.741079 0.095201
vt 0.741079 0.095201
vt 0.741079 0.095201
vt 0.741079 0.095201
vt 0.741079 0.095201
vt 0.741079 0.095201
vt 0.741079 0.095201
vt 0.741079 0.095201
vt 0.741079 0.095201
vt 0.741079 0.095201
vt 0.741079 0.095201
vt 0.741079 0.095201
vt 0.741079 0.095201
vt 0.741079 0.095201
vt 0.741079 0.095201
vt 0.741079 0.095201
vt 0.741079 0.095201
vt 0.741079 0.095201
vt 0.741079 0.095201
vt 0.741079 0.095201
vt 0.741079 0.095201
vt 0.741079 0.095201
vt 0.741079 0.095201
vt 0.741079 0.095201
vt 0.741079 0.095201
vt 0.741079 0.095201
vt 0.741079 0.095201
vt 0.369500 0.504922
vt 0.369500 0.504922
vt 0.369500 0.504922
vt 0.369500 0.504922
vt 0.369500 0.504922
vt 0.369500 0.504922
vt 0.369500 0.504922
vt 0.369500 0.504922
vt 0.369500 0.504922
vt 0.369500 0.504922
vt 0.369500 0.504922
vt 0.369500 0.504922
vt 0.369500 0.504922
vt 0.369500 0.504922
vt 0.369500 0.504922
vt 0.369500 0.504922
vt 0.369500 0.504922
vt 0.369500 0.504922
vt 0.369500 0.504922
vt 0.369500 0.504922
vt 0.369500 0.504922
vt 0.369500 0.504922
vt 0.369500 0.504922
vt 0.369500 0.504922
vt 0.369500 0.504922
vt 0.369500 0.504922
vt 0.369500 0.504922
vt 0.369500 0.504922
vt 0.369500 0.504922
vt 0.369500 0.504922
vt 0.369500 0.504922
vt 0.369500 0.504922
vt 0.369500 0.504922
vt 0.369500 0.504922
vt 0.369500 0.504922
vt 0.369500 0.504922
vt 0.369500 0.504922
vt 0.369500 0.504922
vt 0.369500 0.504922
vt 0.369500 0.504922
vt 0.369500 0.504922
vt 0.369500 0.504922
vt 0.369500 0.504922
vt 0.369500 0.504922
vt 0.369500 0.504922
vt 0.369500 0.504922
vt 0.369500 0.504922
vt 0.369500 0.504922
vt 0.741079 0.095201
vt 0.741079 0.095201
vt 0.741079 0.095201
vt 0.741079 0.095201
vt 0.741079 0.095201
vt 0.741079 0.095201
vt 0.741079 0.095201
vt 0.741079 0.095201
vt 0.741079 0.095201
vt 0.741079 0.095201
vt 0.741079 0.095201
vt 0.741079 0.095201
vt 0.741079 0.095201
vt 0.741079 0.095201
vt 0.741079 0.095201
vt 0.741079 0.095201
vt 0.741079 0.095201
vt 0.741079 0.095201
vt 0.741079 0.095201
vt 0.741079 0.095201
vt 0.741079 0.095201
vt 0.741079 0.095201
vt 0.741079 0.095201
vt 0.741079 0.095201
vt 0.741079 0.095201
vt 0.741079 0.095201
vt 0.741079 0.095201
vt 0.741079 0.095201
vt 0.741079 0.095201
vt 0.741079 0.095201
vt 0.741079 0.095201
vt 0.741079 0.095201
vt 0.741079 0.095201
vt 0.741079 0.095201
vt 0.741079 0.095201
vt 0.741079 0.095201
vt 0.741079 0.095201
vt 0.741079 0.095201
vt 0.741079 0.095201
vt 0.741079 0.095201
vt 0.741079 0.095201
vt 0.741079 0.095201
vt 0.741079 0.095201
vt 0.741079 0.095201
vt 0.741079 0.095201
vt 0.741079 0.095201
vt 0.741079 0.095201
vt 0.741079 0.095201
vt 0.741079 0.095201
vt 0.741079 0.095201
vt 0.741079 0.095201
vt 0.741079 0.095201
vt 0.741079 0.095201
vt 0.741079 0.095201
vt 0.741079 0.095201
vt 0.741079 0.095201
vt 0.741079 0.095201
vt 0.741079 0.095201
vt 0.741079 0.095201
vt 0.741079 0.095201
vt 0.741079 0.095201
vt 0.741079 0.095201
vt 0.741079 0.095201
vt 0.741079 0.095201
vt 0.741079 0.095201
vt 0.741079 0.095201
vt 0.741079 0.095201
vt 0.741079 0.095201
vt 0.741079 0.095201
vt 0.741079 0.095201
vt 0.741079 0.095201
vt 0.741079 0.095201
vt 0.741079 0.095201
vt 0.741079 0.095201
vt 0.741079 0.095201
vt 0.741079 0.095201
vt 0.741079 0.095201
vt 0.741079 0.095201
vt 0.741079 0.095201
vt 0.741079 0.095201
vt 0.741079 0.095201
vt 0.741079 0.095201
vt 0.741079 0.095201
vt 0.741079 0.095201
vt 0.741079 0.095201
vt 0.741079 0.095201
vt 0.741079 0.095201
vt 0.741079 0.095201
vt 0.741079 0.095201
vt 0.741079 0.095201
vt 0.741079 0.095201
vt 0.741079 0.095201
vt 0.741079 0.095201
vt 0.741079 0.095201
vt 0.741079 0.095201
vt 0.741079 0.095201
vt 0.369500 0.504922
vt 0.369500 0.504922
vt 0.369500 0.504922
vt 0.369500 0.504922
vt 0.369500 0.504922
vt 0.369500 0.504922
vt 0.369500 0.504922
vt 0.369500 0.504922
vt 0.369500 0.504922
vt 0.369500 0.504922
vt 0.369500 0.504922
vt 0.369500 0.504922
vt 0.369500 0.504922
vt 0.369500 0.504922
vt 0.369500 0.504922
vt 0.369500 0.504922
vt 0.369500 0.504922
vt 0.369500 0.504922
vt 0.369500 0.504922
vt 0.369500 0.504922
vt 0.369500 0.504922
vt 0.369500 0.504922
vt 0.369500 0.504922
vt 0.369500 0.504922
vt 0.369500 0.504922
vt 0.369500 0.504922
vt 0.369500 0.504922
vt 0.369500 0.504922
vt 0.369500 0.504922
vt 0.369500 0.504922
vt 0.369500 0.504922
vt 0.369500 0.504922
vt 0.741079 0.095201
vt 0.741079 0.095201
vt 0.741079 0.095201
vt 0.741079 0.095201
vt 0.741079 0.095201
vt 0.741079 0.095201
vt 0.741079 0.095201
vt 0.741079 0.095201
vt 0.741079 0.095201
vt 0.741079 0.095201
vt 0.741079 0.095201
vt 0.741079 0.095201
s 1
g bathroom_accessory.007_Material
usemtl Material
f 30/30/1 29/29/1 31/31/2 32/32/2
f 28/28/3 27/27/3 29/29/1 30/30/1
f 25/25/4 26/26/4 27/27/3 28/28/3
f 22/22/5 21/21/5 23/23/6 24/24/6
f 20/20/7 19/19/7 21/21/5 22/22/5
f 17/17/8 18/18/8 19/19/7 20/20/7
f 14/14/9 13/13/9 15/15/10 16/16/10
f 12/12/11 11/11/11 13/13/9 14/14/9
f 9/9/12 10/10/12 11/11/11 12/12/11
f 6/6/13 5/5/13 7/7/14 8/8/14
f 4/4/15 3/3/15 5/5/13 6/6/13
f 1/1/16 2/2/16 3/3/15 4/4/15
f 10/10/12 9/9/12 24/24/6 23/23/6
f 8/8/14 7/7/14 16/16/10 15/15/10
f 18/18/8 17/17/8 32/32/2 31/31/2
f 26/26/4 25/25/4 2/2/16 1/1/16
f 201/201/4 53/53/4 38/38/16 178/178/16
f 193/193/8 61/61/8 54/54/2 208/208/2
f 183/183/14 37/37/14 46/46/10 192/192/10
f 185/185/12 45/45/12 62/62/6 200/200/6
f 178/178/16 38/38/16 40/40/15 179/179/15
f 179/179/15 40/40/15 39/39/13 181/181/13
f 181/181/13 39/39/13 37/37/14 183/183/14
f 186/186/12 69/69/12 70/70/11 187/187/11
f 187/187/11 70/70/11 71/71/9 189/189/9
f 189/189/9 71/71/9 72/72/10 191/191/10
f 194/194/8 73/73/8 74/74/7 195/195/7
f 195/195/7 74/74/7 75/75/5 197/197/5
f 197/197/5 75/75/5 76/76/6 199/199/6
f 202/202/4 77/77/4 78/78/3 203/203/3
f 203/203/3 78/78/3 79/79/1 205/205/1
f 205/205/1 79/79/1 80/80/2 207/207/2
f 35/35/17 33/33/17 66/66/17 65/65/17
f 36/36/17 35/35/17 65/65/17 67/67/17
f 34/34/17 36/36/17 67/67/17 68/68/17
f 42/42/17 44/44/17 70/70/17 69/69/17
f 44/44/17 43/43/17 71/71/17 70/70/17
f 43/43/17 41/41/17 72/72/17 71/71/17
f 58/58/17 60/60/17 74/74/17 73/73/17
f 60/60/17 59/59/17 75/75/17 74/74/17
f 59/59/17 57/57/17 76/76/17 75/75/17
f 50/50/17 52/52/17 78/78/17 77/77/17
f 52/52/17 51/51/17 79/79/17 78/78/17
f 51/51/17 49/49/17 80/80/17 79/79/17
f 41/41/17 34/34/17 68/68/17 72/72/17
f 57/57/17 42/42/17 69/69/17 76/76/17
f 49/49/17 58/58/17 73/73/17 80/80/17
f 33/33/17 50/50/17 77/77/17 66/66/17
f 92/92/10 81/81/14 120/120/14 127/127/10
f 100/100/2 105/105/8 132/132/8 143/143/2
f 97/97/4 102/102/3 137/137/3 140/140/4
f 87/87/15 84/84/16 113/113/16 116/116/15
f 94/94/11 96/96/9 125/125/9 121/121/11
f 85/85/13 87/87/15 116/116/15 118/118/13
f 112/112/5 108/108/6 135/135/6 133/133/5
f 102/102/3 104/104/1 141/141/1 137/137/3
f 131/131/18 130/130/18 134/134/18 136/136/18 123/123/18 122/122/18 126/126/18 128/128/18 119/119/18 117/117/18 115/115/18 114/114/18 139/139/18 138/138/18 142/142/18 144/144/18
f 84/84/16 97/97/4 140/140/4 113/113/16
f 96/96/9 92/92/10 127/127/10 125/125/9
f 110/110/7 112/112/5 133/133/5 129/129/7
f 89/89/12 94/94/11 121/121/11 124/124/12
f 104/104/1 100/100/2 143/143/2 141/141/1
f 106/106/17 99/99/17 103/103/17 101/101/17 98/98/17 83/83/17 88/88/17 86/86/17 82/82/17 91/91/17 95/95/17 93/93/17 90/90/17 107/107/17 111/111/17 109/109/17
f 105/105/8 110/110/7 129/129/7 132/132/8
f 108/108/6 89/89/12 124/124/12 135/135/6
f 84/84/19 87/87/20 88/88/20 83/83/19
f 87/87/20 85/85/21 86/86/21 88/88/20
f 85/85/21 81/81/22 82/82/22 86/86/21
f 94/94/23 89/89/24 90/90/24 93/93/23
f 96/96/25 94/94/23 93/93/23 95/95/25
f 92/92/26 96/96/25 95/95/25 91/91/26
f 110/110/27 105/105/28 106/106/28 109/109/27
f 112/112/29 110/110/27 109/109/27 111/111/29
f 108/108/30 112/112/29 111/111/29 107/107/30
f 102/102/31 97/97/32 98/98/32 101/101/31
f 104/104/33 102/102/31 101/101/31 103/103/33
f 100/100/34 104/104/33 103/103/33 99/99/34
f 81/81/22 92/92/26 91/91/26 82/82/22
f 97/97/32 84/84/19 83/83/19 98/98/32
f 99/99/34 106/106/28 105/105/28 100/100/34
f 107/107/30 90/90/24 89/89/24 108/108/30
f 114/114/35 115/115/36 116/116/36 113/113/35
f 115/115/36 117/117/37 118/118/37 116/116/36
f 117/117/37 119/119/38 120/120/38 118/118/37
f 122/122/39 123/123/40 124/124/40 121/121/39
f 126/126/41 122/122/39 121/121/39 125/125/41
f 128/128/42 126/126/41 125/125/41 127/127/42
f 130/130/43 131/131/44 132/132/44 129/129/43
f 134/134/45 130/130/43 129/129/43 133/133/45
f 136/136/46 134/134/45 133/133/45 135/135/46
f 138/138/47 139/139/48 140/140/48 137/137/47
f 142/142/49 138/138/47 137/137/47 141/141/49
f 144/144/50 142/142/49 141/141/49 143/143/50
f 119/119/38 128/128/42 127/127/42 120/120/38
f 139/139/48 114/114/35 113/113/35 140/140/48
f 143/143/50 132/132/44 131/131/44 144/144/50
f 135/135/46 124/124/40 123/123/40 136/136/46
f 81/81/14 85/85/13 118/118/13 120/120/14
f 158/158/51 153/153/52 176/176/52 169/169/51
f 168/168/17 167/167/17 166/166/17 165/165/17 172/172/17 171/171/17 170/170/17 169/169/17 176/176/17 175/175/17 174/174/17 173/173/17 162/162/17 161/161/17 163/163/17 164/164/17
f 159/159/53 160/160/54 170/170/54 171/171/53
f 145/145/55 147/147/56 161/161/56 162/162/55
f 154/154/57 145/145/55 162/162/55 173/173/57
f 157/157/58 159/159/53 171/171/53 172/172/58
f 147/147/56 148/148/59 163/163/59 161/161/56
f 156/156/60 154/154/57 173/173/57 174/174/60
f 148/148/59 146/146/61 164/164/61 163/163/59
f 155/155/62 156/156/60 174/174/60 175/175/62
f 152/152/63 150/150/64 165/165/64 166/166/63
f 153/153/52 155/155/62 175/175/62 176/176/52
f 151/151/65 152/152/63 166/166/63 167/167/65
f 146/146/61 149/149/66 168/168/66 164/164/61
f 149/149/66 151/151/65 167/167/65 168/168/66
f 150/150/64 157/157/58 172/172/58 165/165/64
f 160/160/54 158/158/51 169/169/51 170/170/54
f 56/56/1 206/206/1 208/208/2 54/54/2
f 55/55/3 204/204/3 206/206/1 56/56/1
f 53/53/4 201/201/4 204/204/3 55/55/3
f 64/64/5 198/198/5 200/200/6 62/62/6
f 63/63/7 196/196/7 198/198/5 64/64/5
f 61/61/8 193/193/8 196/196/7 63/63/7
f 48/48/9 190/190/9 192/192/10 46/46/10
f 47/47/11 188/188/11 190/190/9 48/48/9
f 45/45/12 185/185/12 188/188/11 47/47/11
f 67/67/13 182/182/13 184/184/14 68/68/14
f 65/65/15 180/180/15 182/182/13 67/67/13
f 66/66/16 177/177/16 180/180/15 65/65/15
f 69/69/12 186/186/12 199/199/6 76/76/6
f 68/68/14 184/184/14 191/191/10 72/72/10
f 73/73/8 194/194/8 207/207/2 80/80/2
f 77/77/4 202/202/4 177/177/16 66/66/16
f 210/210/67 209/209/67 211/211/67 212/212/67
f 212/212/18 211/211/18 220/220/18 213/213/18
f 211/211/68 209/209/68 218/218/68 220/220/68
f 215/215/69 214/214/69 219/219/69 217/217/69
f 209/209/17 210/210/17 216/216/17 218/218/17
f 214/214/70 215/215/70 216/216/70 213/213/70
f 215/215/71 217/217/71 218/218/71 216/216/71
f 217/217/72 219/219/72 220/220/72 218/218/72
f 219/219/73 214/214/73 213/213/73 220/220/73
f 210/210/74 212/212/74 213/213/74 216/216/74
