# Blender 3.4.1
# www.blender.org
mtllib bathroomaccessory005.mtl
g bathroom_accessory.004_Cube.186
v -0.467757 -1.268217 0.557580
v -0.660127 -1.268217 0.365210
v -0.565498 -1.268217 0.530289
v -0.632836 -1.268217 0.462951
v -0.703855 0.984144 0.370967
v -0.473514 0.984144 0.601308
v -0.672995 0.984144 0.486137
v -0.588684 0.984144 0.570448
v -0.660127 -1.268217 -0.365210
v -0.467757 -1.268217 -0.557580
v -0.632836 -1.268217 -0.462951
v -0.565498 -1.268217 -0.530289
v -0.473514 0.984144 -0.601308
v -0.703855 0.984144 -0.370967
v -0.588684 0.984144 -0.570448
v -0.672995 0.984144 -0.486137
v 0.455032 -1.268217 0.365210
v 0.262663 -1.268217 0.557580
v 0.427741 -1.268217 0.462951
v 0.360404 -1.268217 0.530289
v 0.268419 0.984144 0.601308
v 0.498760 0.984144 0.370967
v 0.383590 0.984144 0.570448
v 0.467900 0.984144 0.486137
v 0.262662 -1.268217 -0.557580
v 0.455032 -1.268217 -0.365210
v 0.360404 -1.268217 -0.530289
v 0.427741 -1.268217 -0.462951
v 0.498760 0.984144 -0.370967
v 0.268419 0.984144 -0.601308
v 0.467900 0.984144 -0.486137
v 0.383590 0.984144 -0.570448
v -0.588684 -1.268217 0.570448
v -0.473514 -1.268217 0.601308
v -0.672995 -1.268217 0.486137
v -0.703855 -1.268217 0.370967
v -0.473514 -1.268217 -0.601308
v -0.588684 -1.268217 -0.570448
v -0.672995 -1.268217 -0.486137
v -0.703855 -1.268217 -0.370967
v 0.498760 -1.268217 -0.370967
v 0.467900 -1.268217 -0.486137
v 0.383590 -1.268217 -0.570448
v 0.268419 -1.268217 -0.601308
v 0.268419 -1.268217 0.601308
v 0.383590 -1.268217 0.570448
v 0.467900 -1.268217 0.486137
v 0.498760 -1.268217 0.370967
v -0.703855 1.007841 0.370967
v -0.680158 0.984144 0.367847
v -0.470394 0.984144 0.577611
v -0.473514 1.007841 0.601308
v -0.672995 1.007841 0.486137
v -0.651749 0.984144 0.473871
v -0.588684 1.007841 0.570448
v -0.576418 0.984144 0.549202
v -0.473514 1.007841 -0.601308
v -0.470394 0.984144 -0.577611
v -0.680158 0.984144 -0.367847
v -0.703855 1.007841 -0.370967
v -0.576418 0.984144 -0.549202
v -0.588684 1.007841 -0.570448
v -0.651749 0.984144 -0.473871
v -0.672995 1.007841 -0.486137
v 0.268419 1.007841 0.601308
v 0.265300 0.984144 0.577611
v 0.475063 0.984144 0.367847
v 0.498760 1.007841 0.370967
v 0.371323 0.984144 0.549202
v 0.383590 1.007841 0.570448
v 0.446654 0.984144 0.473871
v 0.467900 1.007841 0.486137
v 0.498760 1.007841 -0.370967
v 0.475063 0.984144 -0.367847
v 0.265300 0.984144 -0.577611
v 0.268419 1.007841 -0.601308
v 0.446654 0.984144 -0.473871
v 0.467900 1.007841 -0.486137
v 0.371323 0.984144 -0.549202
v 0.383590 1.007841 -0.570448
v -0.473514 1.088842 0.601308
v -0.470394 1.112539 0.577611
v -0.576418 1.112539 0.549202
v -0.588684 1.088842 0.570448
v -0.651749 1.112539 0.473871
v -0.672995 1.088842 0.486137
v -0.680158 1.112539 0.367847
v -0.703855 1.088842 0.370967
v -0.588684 1.088842 -0.570448
v -0.576418 1.112539 -0.549202
v -0.470394 1.112539 -0.577611
v -0.473514 1.088842 -0.601308
v -0.672995 1.088842 -0.486137
v -0.651749 1.112539 -0.473871
v -0.703855 1.088842 -0.370967
v -0.680158 1.112539 -0.367847
v 0.467900 1.088842 -0.486137
v 0.446654 1.112539 -0.473871
v 0.475063 1.112539 -0.367847
v 0.498760 1.088842 -0.370967
v 0.383590 1.088842 -0.570448
v 0.371323 1.112539 -0.549202
v 0.268419 1.088842 -0.601308
v 0.265300 1.112539 -0.577611
v 0.383590 1.088842 0.570448
v 0.371323 1.112539 0.549202
v 0.265300 1.112539 0.577611
v 0.268419 1.088842 0.601308
v 0.467900 1.088842 0.486137
v 0.446654 1.112539 0.473871
v 0.498760 1.088842 0.370967
v 0.475063 1.112539 0.367847
v -0.467757 -1.268217 0.557580
v -0.660127 -1.268217 0.365210
v -0.565498 -1.268217 0.530289
v -0.632836 -1.268217 0.462951
v -0.660127 -1.268217 -0.365210
v -0.467757 -1.268217 -0.557580
v -0.632836 -1.268217 -0.462951
v -0.565498 -1.268217 -0.530289
v 0.455032 -1.268217 0.365210
v 0.262663 -1.268217 0.557580
v 0.427741 -1.268217 0.462951
v 0.360404 -1.268217 0.530289
v 0.262662 -1.268217 -0.557580
v 0.455032 -1.268217 -0.365210
v 0.360404 -1.268217 -0.530289
v 0.427741 -1.268217 -0.462951
v -0.565498 -1.418221 0.530289
v -0.467757 -1.418221 0.557580
v -0.632836 -1.418221 0.462951
v -0.660127 -1.418221 0.365210
v -0.467757 -1.418221 -0.557580
v -0.565498 -1.418221 -0.530289
v -0.632836 -1.418221 -0.462951
v -0.660127 -1.418221 -0.365210
v 0.455032 -1.418221 -0.365210
v 0.427741 -1.418221 -0.462951
v 0.360404 -1.418221 -0.530289
v 0.262662 -1.418221 -0.557580
v 0.262663 -1.418221 0.557580
v 0.360404 -1.418221 0.530289
v 0.427741 -1.418221 0.462951
v 0.455032 -1.418221 0.365210
v 0.544661 0.374965 0.175454
v 0.544661 0.374965 -0.175454
v 0.498760 -0.847068 -0.221355
v 0.498760 -0.847068 0.221355
v 0.594483 0.374965 -0.175454
v 0.594483 -0.847068 -0.221355
v 0.594483 -0.847068 0.221355
v 0.594483 0.374965 0.175454
v 0.706707 0.374965 -0.175454
v 0.752608 -0.555386 -0.221355
v 0.752608 -0.555386 0.221355
v 0.706707 0.374965 0.175454
v 0.498760 0.374965 0.221355
v 0.498760 0.374965 -0.221355
v 0.594483 0.374965 0.221355
v 0.594483 0.374965 -0.221355
v 0.752608 0.374965 0.221355
v 0.752608 0.374965 -0.221355
v 0.544661 0.120874 0.175454
v 0.544661 0.120874 -0.175454
v 0.594483 0.120874 0.175454
v 0.594483 0.120874 -0.175454
v 0.706707 0.120874 0.175454
v 0.706707 0.120874 -0.175454
vn 0.1305 -0.0000 0.9914
vn -0.1305 -0.0000 0.9914
vn 0.9914 -0.0000 -0.1305
vn 0.9914 -0.0000 0.1305
vn -0.9914 -0.0000 0.1305
vn -0.9914 -0.0000 -0.1305
vn -0.1305 -0.0000 -0.9914
vn 0.1305 -0.0000 -0.9914
vn -0.5000 -0.0000 0.8660
vn -0.8660 -0.0000 0.5000
vn -0.5000 -0.0000 -0.8660
vn -0.8660 -0.0000 -0.5000
vn 0.8660 -0.0000 -0.5000
vn 0.5000 -0.0000 -0.8660
vn 0.5000 -0.0000 0.8660
vn 0.8660 -0.0000 0.5000
vn -0.0000 -1.0000 -0.0000
vn -0.0000 1.0000 -0.0000
vn -0.0919 -0.7101 0.6980
vn -0.3474 -0.7193 0.6017
vn -0.6017 -0.7193 0.3474
vn -0.6980 -0.7101 0.0919
vn -0.3474 -0.7193 -0.6017
vn -0.0919 -0.7101 -0.6980
vn -0.6017 -0.7193 -0.3474
vn -0.6980 -0.7101 -0.0919
vn 0.6017 -0.7193 -0.3474
vn 0.6980 -0.7101 -0.0919
vn 0.3474 -0.7193 -0.6017
vn 0.0919 -0.7101 -0.6980
vn 0.3474 -0.7193 0.6017
vn 0.0919 -0.7101 0.6980
vn 0.6017 -0.7193 0.3474
vn 0.6980 -0.7101 0.0919
vn -0.0919 0.7101 0.6980
vn -0.3474 0.7193 0.6017
vn -0.6017 0.7193 0.3474
vn -0.6980 0.7101 0.0919
vn -0.3474 0.7193 -0.6017
vn -0.0919 0.7101 -0.6980
vn -0.6017 0.7193 -0.3474
vn -0.6980 0.7101 -0.0919
vn 0.6017 0.7193 -0.3474
vn 0.6980 0.7101 -0.0919
vn 0.3474 0.7193 -0.6017
vn 0.0919 0.7101 -0.6980
vn 0.3474 0.7193 0.6017
vn 0.0919 0.7101 0.6980
vn 0.6017 0.7193 0.3474
vn 0.6980 0.7101 0.0919
vn 0.9907 -0.0000 -0.1357
vn 0.9907 -0.0000 0.1357
vn 0.5045 -0.0000 -0.8634
vn 0.8634 -0.0000 -0.5045
vn -0.1357 -0.0000 0.9907
vn -0.5045 -0.0000 0.8634
vn 0.1357 -0.0000 0.9907
vn 0.1357 -0.0000 -0.9907
vn -0.8634 -0.0000 0.5045
vn 0.5045 -0.0000 0.8634
vn -0.9907 -0.0000 0.1357
vn 0.8634 -0.0000 0.5045
vn -0.5045 -0.0000 -0.8634
vn -0.1357 -0.0000 -0.9907
vn -0.8634 -0.0000 -0.5045
vn -0.9907 -0.0000 -0.1357
vn -1.0000 -0.0000 -0.0000
vn 0.8791 -0.4766 -0.0000
vn 0.9693 -0.2458 -0.0000
vn -0.0000 -0.0000 1.0000
vn -0.0000 -0.0000 -1.0000
vn 1.0000 -0.0000 -0.0000
vt 0.755843 0.133343
vt 0.755843 0.133343
vt 0.755843 0.133343
vt 0.755843 0.133343
vt 0.755843 0.133343
vt 0.755843 0.133343
vt 0.755843 0.133343
vt 0.755843 0.133343
vt 0.755843 0.133343
vt 0.755843 0.133343
vt 0.755843 0.133343
vt 0.755843 0.133343
vt 0.755843 0.133343
vt 0.755843 0.133343
vt 0.755843 0.133343
vt 0.755843 0.133343
vt 0.755843 0.133343
vt 0.755843 0.133343
vt 0.755843 0.133343
vt 0.755843 0.133343
vt 0.755843 0.133343
vt 0.755843 0.133343
vt 0.755843 0.133343
vt 0.755843 0.133343
vt 0.755843 0.133343
vt 0.755843 0.133343
vt 0.755843 0.133343
vt 0.755843 0.133343
vt 0.755843 0.133343
vt 0.755843 0.133343
vt 0.755843 0.133343
vt 0.755843 0.133343
vt 0.755843 0.133343
vt 0.755843 0.133343
vt 0.755843 0.133343
vt 0.755843 0.133343
vt 0.755843 0.133343
vt 0.755843 0.133343
vt 0.755843 0.133343
vt 0.755843 0.133343
vt 0.755843 0.133343
vt 0.755843 0.133343
vt 0.755843 0.133343
vt 0.755843 0.133343
vt 0.755843 0.133343
vt 0.755843 0.133343
vt 0.755843 0.133343
vt 0.755843 0.133343
vt 0.416255 0.101353
vt 0.416255 0.101353
vt 0.416255 0.101353
vt 0.416255 0.101353
vt 0.416255 0.101353
vt 0.416255 0.101353
vt 0.416255 0.101353
vt 0.416255 0.101353
vt 0.416255 0.101353
vt 0.416255 0.101353
vt 0.416255 0.101353
vt 0.416255 0.101353
vt 0.416255 0.101353
vt 0.416255 0.101353
vt 0.416255 0.101353
vt 0.416255 0.101353
vt 0.416255 0.101353
vt 0.416255 0.101353
vt 0.416255 0.101353
vt 0.416255 0.101353
vt 0.416255 0.101353
vt 0.416255 0.101353
vt 0.416255 0.101353
vt 0.416255 0.101353
vt 0.416255 0.101353
vt 0.416255 0.101353
vt 0.416255 0.101353
vt 0.416255 0.101353
vt 0.416255 0.101353
vt 0.416255 0.101353
vt 0.416255 0.101353
vt 0.416255 0.101353
vt 0.416255 0.101353
vt 0.416255 0.101353
vt 0.416255 0.101353
vt 0.416255 0.101353
vt 0.416255 0.101353
vt 0.416255 0.101353
vt 0.416255 0.101353
vt 0.416255 0.101353
vt 0.416255 0.101353
vt 0.416255 0.101353
vt 0.416255 0.101353
vt 0.416255 0.101353
vt 0.416255 0.101353
vt 0.416255 0.101353
vt 0.416255 0.101353
vt 0.416255 0.101353
vt 0.416255 0.101353
vt 0.416255 0.101353
vt 0.416255 0.101353
vt 0.416255 0.101353
vt 0.416255 0.101353
vt 0.416255 0.101353
vt 0.416255 0.101353
vt 0.416255 0.101353
vt 0.416255 0.101353
vt 0.416255 0.101353
vt 0.416255 0.101353
vt 0.416255 0.101353
vt 0.416255 0.101353
vt 0.416255 0.101353
vt 0.416255 0.101353
vt 0.416255 0.101353
vt 0.416255 0.101353
vt 0.416255 0.101353
vt 0.416255 0.101353
vt 0.416255 0.101353
vt 0.416255 0.101353
vt 0.416255 0.101353
vt 0.416255 0.101353
vt 0.416255 0.101353
vt 0.416255 0.101353
vt 0.416255 0.101353
vt 0.416255 0.101353
vt 0.416255 0.101353
vt 0.416255 0.101353
vt 0.416255 0.101353
vt 0.416255 0.101353
vt 0.416255 0.101353
vt 0.416255 0.101353
vt 0.416255 0.101353
vt 0.416255 0.101353
vt 0.416255 0.101353
vt 0.416255 0.101353
vt 0.416255 0.101353
vt 0.416255 0.101353
vt 0.416255 0.101353
vt 0.416255 0.101353
vt 0.416255 0.101353
vt 0.416255 0.101353
vt 0.416255 0.101353
vt 0.416255 0.101353
vt 0.416255 0.101353
vt 0.416255 0.101353
vt 0.416255 0.101353
vt 0.416255 0.101353
vt 0.416255 0.101353
vt 0.416255 0.101353
vt 0.416255 0.101353
vt 0.416255 0.101353
vt 0.416255 0.101353
vt 0.416255 0.101353
vt 0.416255 0.101353
vt 0.416255 0.101353
vt 0.416255 0.101353
vt 0.416255 0.101353
vt 0.416255 0.101353
vt 0.416255 0.101353
vt 0.416255 0.101353
vt 0.416255 0.101353
vt 0.416255 0.101353
vt 0.416255 0.101353
vt 0.416255 0.101353
vt 0.416255 0.101353
vt 0.416255 0.101353
vt 0.416255 0.101353
vt 0.416255 0.101353
vt 0.416255 0.101353
vt 0.416255 0.101353
s 1
g bathroom_accessory.004_Material
usemtl Material
f 45/45/1 21/21/1 6/6/2 34/34/2
f 41/41/3 29/29/3 22/22/4 48/48/4
f 36/36/5 5/5/5 14/14/6 40/40/6
f 37/37/7 13/13/7 30/30/8 44/44/8
f 34/34/2 6/6/2 8/8/9 33/33/9
f 33/33/9 8/8/9 7/7/10 35/35/10
f 35/35/10 7/7/10 5/5/5 36/36/5
f 13/13/7 37/37/7 38/38/11 15/15/11
f 15/15/11 38/38/11 39/39/12 16/16/12
f 16/16/12 39/39/12 40/40/6 14/14/6
f 29/29/3 41/41/3 42/42/13 31/31/13
f 31/31/13 42/42/13 43/43/14 32/32/14
f 32/32/14 43/43/14 44/44/8 30/30/8
f 21/21/1 45/45/1 46/46/15 23/23/15
f 23/23/15 46/46/15 47/47/16 24/24/16
f 24/24/16 47/47/16 48/48/4 22/22/4
f 3/3/17 1/1/17 34/34/17 33/33/17
f 4/4/17 3/3/17 33/33/17 35/35/17
f 2/2/17 4/4/17 35/35/17 36/36/17
f 10/10/17 12/12/17 38/38/17 37/37/17
f 12/12/17 11/11/17 39/39/17 38/38/17
f 11/11/17 9/9/17 40/40/17 39/39/17
f 26/26/17 28/28/17 42/42/17 41/41/17
f 28/28/17 27/27/17 43/43/17 42/42/17
f 27/27/17 25/25/17 44/44/17 43/43/17
f 18/18/17 20/20/17 46/46/17 45/45/17
f 20/20/17 19/19/17 47/47/17 46/46/17
f 19/19/17 17/17/17 48/48/17 47/47/17
f 9/9/17 2/2/17 36/36/17 40/40/17
f 25/25/17 10/10/17 37/37/17 44/44/17
f 17/17/17 26/26/17 41/41/17 48/48/17
f 1/1/17 18/18/17 45/45/17 34/34/17
f 60/60/6 49/49/5 88/88/5 95/95/6
f 68/68/4 73/73/3 100/100/3 111/111/4
f 65/65/1 70/70/15 105/105/15 108/108/1
f 55/55/9 52/52/2 81/81/2 84/84/9
f 62/62/11 64/64/12 93/93/12 89/89/11
f 53/53/10 55/55/9 84/84/9 86/86/10
f 80/80/14 76/76/8 103/103/8 101/101/14
f 70/70/15 72/72/16 109/109/16 105/105/15
f 99/99/18 98/98/18 102/102/18 104/104/18 91/91/18 90/90/18 94/94/18 96/96/18 87/87/18 85/85/18 83/83/18 82/82/18 107/107/18 106/106/18 110/110/18 112/112/18
f 52/52/2 65/65/1 108/108/1 81/81/2
f 64/64/12 60/60/6 95/95/6 93/93/12
f 78/78/13 80/80/14 101/101/14 97/97/13
f 57/57/7 62/62/11 89/89/11 92/92/7
f 72/72/16 68/68/4 111/111/4 109/109/16
f 74/74/17 67/67/17 71/71/17 69/69/17 66/66/17 51/51/17 56/56/17 54/54/17 50/50/17 59/59/17 63/63/17 61/61/17 58/58/17 75/75/17 79/79/17 77/77/17
f 73/73/3 78/78/13 97/97/13 100/100/3
f 76/76/8 57/57/7 92/92/7 103/103/8
f 52/52/19 55/55/20 56/56/20 51/51/19
f 55/55/20 53/53/21 54/54/21 56/56/20
f 53/53/21 49/49/22 50/50/22 54/54/21
f 62/62/23 57/57/24 58/58/24 61/61/23
f 64/64/25 62/62/23 61/61/23 63/63/25
f 60/60/26 64/64/25 63/63/25 59/59/26
f 78/78/27 73/73/28 74/74/28 77/77/27
f 80/80/29 78/78/27 77/77/27 79/79/29
f 76/76/30 80/80/29 79/79/29 75/75/30
f 70/70/31 65/65/32 66/66/32 69/69/31
f 72/72/33 70/70/31 69/69/31 71/71/33
f 68/68/34 72/72/33 71/71/33 67/67/34
f 49/49/22 60/60/26 59/59/26 50/50/22
f 65/65/32 52/52/19 51/51/19 66/66/32
f 67/67/34 74/74/28 73/73/28 68/68/34
f 75/75/30 58/58/24 57/57/24 76/76/30
f 82/82/35 83/83/36 84/84/36 81/81/35
f 83/83/36 85/85/37 86/86/37 84/84/36
f 85/85/37 87/87/38 88/88/38 86/86/37
f 90/90/39 91/91/40 92/92/40 89/89/39
f 94/94/41 90/90/39 89/89/39 93/93/41
f 96/96/42 94/94/41 93/93/41 95/95/42
f 98/98/43 99/99/44 100/100/44 97/97/43
f 102/102/45 98/98/43 97/97/43 101/101/45
f 104/104/46 102/102/45 101/101/45 103/103/46
f 106/106/47 107/107/48 108/108/48 105/105/47
f 110/110/49 106/106/47 105/105/47 109/109/49
f 112/112/50 110/110/49 109/109/49 111/111/50
f 87/87/38 96/96/42 95/95/42 88/88/38
f 107/107/48 82/82/35 81/81/35 108/108/48
f 111/111/50 100/100/44 99/99/44 112/112/50
f 103/103/46 92/92/40 91/91/40 104/104/46
f 49/49/5 53/53/10 86/86/10 88/88/5
f 126/126/51 121/121/52 144/144/52 137/137/51
f 136/136/17 135/135/17 134/134/17 133/133/17 140/140/17 139/139/17 138/138/17 137/137/17 144/144/17 143/143/17 142/142/17 141/141/17 130/130/17 129/129/17 131/131/17 132/132/17
f 127/127/53 128/128/54 138/138/54 139/139/53
f 113/113/55 115/115/56 129/129/56 130/130/55
f 122/122/57 113/113/55 130/130/55 141/141/57
f 125/125/58 127/127/53 139/139/53 140/140/58
f 115/115/56 116/116/59 131/131/59 129/129/56
f 124/124/60 122/122/57 141/141/57 142/142/60
f 116/116/59 114/114/61 132/132/61 131/131/59
f 123/123/62 124/124/60 142/142/60 143/143/62
f 120/120/63 118/118/64 133/133/64 134/134/63
f 121/121/52 123/123/62 143/143/62 144/144/52
f 119/119/65 120/120/63 134/134/63 135/135/65
f 114/114/61 117/117/66 136/136/66 132/132/61
f 117/117/66 119/119/65 135/135/65 136/136/66
f 118/118/64 125/125/58 140/140/58 133/133/64
f 128/128/54 126/126/51 137/137/51 138/138/54
f 147/147/67 148/148/67 157/157/67 158/158/67
f 151/151/68 150/150/68 154/154/69 155/155/69
f 157/157/70 148/148/70 151/151/70 159/159/70
f 148/148/17 147/147/17 150/150/17 151/151/17
f 147/147/71 158/158/71 160/160/71 150/150/71
f 154/154/69 162/162/72 161/161/72 155/155/69
f 150/150/71 160/160/71 162/162/71 154/154/71
f 159/159/70 151/151/70 155/155/70 161/161/70
f 153/153/70 149/149/70 166/166/70 168/168/70
f 145/145/18 146/146/18 158/158/18 157/157/18
f 152/152/18 145/145/18 157/157/18 159/159/18
f 146/146/18 149/149/18 160/160/18 158/158/18
f 153/153/18 156/156/18 161/161/18 162/162/18
f 149/149/18 153/153/18 162/162/18 160/160/18
f 156/156/18 152/152/18 159/159/18 161/161/18
f 165/165/18 167/167/18 168/168/18 166/166/18 164/164/18 163/163/18
f 149/149/70 146/146/70 164/164/70 166/166/70
f 146/146/72 145/145/72 163/163/72 164/164/72
f 152/152/71 156/156/71 167/167/71 165/165/71
f 156/156/67 153/153/67 168/168/67 167/167/67
f 145/145/71 152/152/71 165/165/71 163/163/71
