# Blender 3.4.1
# www.blender.org
mtllib bathroomaccessory002.mtl
g bathroom_accessory.001_Cylinder.004
v -0.015465 -0.922358 -0.766712
v 0.311683 -0.922358 -0.686077
v 0.563887 -0.922358 -0.462644
v 0.683367 -0.922358 -0.147600
v 0.642754 -0.922358 0.186883
v 0.451350 -0.922358 0.464180
v 0.153004 -0.922358 0.620763
v -0.183935 -0.922358 0.620763
v -0.482281 -0.922358 0.464180
v -0.673684 -0.922358 0.186883
v -0.714298 -0.922358 -0.147600
v -0.594818 -0.922358 -0.462644
v -0.342615 -0.922358 -0.686077
v -0.015466 1.064141 -0.707179
v -0.015465 1.006338 -0.766712
v 0.284017 1.064141 -0.633363
v 0.311683 1.006338 -0.686077
v 0.514892 1.064141 -0.428826
v 0.563887 1.006338 -0.462644
v 0.624268 1.064141 -0.140424
v 0.683367 1.006338 -0.147600
v 0.587089 1.064141 0.165773
v 0.642754 1.006338 0.186883
v 0.411872 1.064141 0.419619
v 0.451350 1.006338 0.464180
v 0.138757 1.064141 0.562960
v 0.153004 1.006338 0.620763
v -0.169688 1.064141 0.562960
v -0.183935 1.006338 0.620763
v -0.442803 1.064141 0.419619
v -0.482281 1.006338 0.464180
v -0.618020 1.064141 0.165773
v -0.673684 1.006338 0.186883
v -0.655199 1.064141 -0.140424
v -0.714298 1.006338 -0.147600
v -0.545823 1.064141 -0.428825
v -0.594818 1.006338 -0.462644
v -0.314948 1.064141 -0.633363
v -0.342615 1.006338 -0.686077
v -0.015465 -0.922358 -0.766712
v 0.311683 -0.922358 -0.686077
v 0.563887 -0.922358 -0.462644
v 0.683367 -0.922358 -0.147600
v 0.642754 -0.922358 0.186883
v 0.451350 -0.922358 0.464180
v 0.153004 -0.922358 0.620763
v -0.183935 -0.922358 0.620763
v -0.482281 -0.922358 0.464180
v -0.673684 -0.922358 0.186883
v -0.714298 -0.922358 -0.147600
v -0.594818 -0.922358 -0.462644
v -0.342615 -0.922358 -0.686077
v -0.015465 -0.984408 -0.766712
v 0.311683 -0.984408 -0.686077
v 0.563887 -0.984408 -0.462644
v 0.683367 -0.984408 -0.147600
v 0.642754 -0.984408 0.186883
v 0.451350 -0.984408 0.464180
v 0.153004 -0.984408 0.620763
v -0.183935 -0.984408 0.620763
v -0.482281 -0.984408 0.464180
v -0.673684 -0.984408 0.186883
v -0.714298 -0.984408 -0.147600
v -0.594818 -0.984408 -0.462644
v -0.342615 -0.984408 -0.686077
v -0.015465 -0.922358 -0.807317
v 0.330554 -0.922358 -0.722031
v 0.597304 -0.922358 -0.485711
v 0.723677 -0.922358 -0.152494
v 0.680720 -0.922358 0.201282
v 0.478276 -0.922358 0.494573
v 0.162722 -0.922358 0.660189
v -0.193653 -0.922358 0.660189
v -0.509207 -0.922358 0.494573
v -0.711651 -0.922358 0.201282
v -0.754608 -0.922358 -0.152494
v -0.628235 -0.922358 -0.485710
v -0.361485 -0.922358 -0.722031
v -0.015465 -0.984408 -0.807317
v 0.330554 -0.984408 -0.722031
v 0.597304 -0.984408 -0.485711
v 0.723677 -0.984408 -0.152494
v 0.680720 -0.984408 0.201282
v 0.478276 -0.984408 0.494573
v 0.162722 -0.984408 0.660189
v -0.193653 -0.984408 0.660189
v -0.509207 -0.984408 0.494573
v -0.711651 -0.984408 0.201282
v -0.754608 -0.984408 -0.152494
v -0.628235 -0.984408 -0.485710
v -0.361485 -0.984408 -0.722031
v -0.341911 1.064141 -0.684735
v -0.593571 1.064141 -0.461783
v -0.712794 1.064141 -0.147417
v -0.672268 1.064141 0.186346
v -0.481276 1.064141 0.463046
v -0.183573 1.064141 0.619292
v 0.152642 1.064141 0.619292
v 0.450345 1.064141 0.463046
v 0.641337 1.064141 0.186346
v 0.681863 1.064141 -0.147417
v 0.562640 1.064141 -0.461784
v 0.310980 1.064141 -0.684735
v -0.015465 1.064141 -0.765197
v -0.341911 1.158070 -0.684735
v -0.310490 1.223718 -0.624867
v -0.015466 1.223718 -0.697584
v -0.015465 1.158070 -0.765197
v -0.593571 1.158070 -0.461783
v -0.537927 1.223718 -0.423375
v -0.712794 1.158070 -0.147417
v -0.645675 1.223718 -0.139267
v -0.672268 1.158070 0.186346
v -0.609049 1.223718 0.162371
v -0.481276 1.158070 0.463046
v -0.436441 1.223718 0.412437
v -0.183573 1.158070 0.619292
v -0.167392 1.223718 0.553645
v 0.152642 1.158070 0.619292
v 0.136461 1.223718 0.553645
v 0.450345 1.158070 0.463046
v 0.405510 1.223718 0.412437
v 0.641337 1.158070 0.186346
v 0.578119 1.223718 0.162371
v 0.681863 1.158070 -0.147417
v 0.614744 1.223718 -0.139267
v 0.562640 1.158070 -0.461784
v 0.506996 1.223718 -0.423375
v 0.310980 1.158070 -0.684735
v 0.279559 1.223718 -0.624867
v 0.451350 -0.988572 0.464180
v 0.153004 -0.988572 0.620763
v -0.183935 -0.988572 0.620763
v 0.451350 -0.665543 0.464180
v 0.153004 -0.665543 0.620763
v -0.183935 -0.665543 0.620763
v 0.431052 -0.980245 0.713319
v 0.203971 -0.980245 0.827542
v -0.050182 -0.980245 0.831932
v 0.203971 -0.747878 0.827542
v 0.431052 -0.747878 0.713319
v -0.050182 -0.747878 0.831932
vn -0.4647 -0.0000 -0.8855
vn -0.0000 -0.0000 -1.0000
vn 0.8230 -0.0000 -0.5681
vn 0.9927 -0.0000 -0.1205
vn 0.9350 -0.0000 0.3546
vn 0.6631 -0.0000 0.7485
vn 0.2393 -0.0000 0.9709
vn -0.2393 -0.0000 0.9709
vn -0.6631 -0.0000 0.7485
vn -0.9350 -0.0000 0.3546
vn -0.9927 -0.0000 -0.1205
vn -0.8230 -0.0000 -0.5681
vn 0.4647 -0.0000 -0.8855
vn 0.3237 0.7175 -0.6168
vn -0.0000 0.7175 -0.6966
vn 0.5733 0.7175 -0.3957
vn 0.6915 0.7175 -0.0840
vn 0.6513 0.7175 0.2470
vn 0.4619 0.7175 0.5214
vn 0.1667 0.7175 0.6764
vn -0.1667 0.7175 0.6764
vn -0.4619 0.7175 0.5214
vn -0.6513 0.7175 0.2470
vn -0.6915 0.7175 -0.0840
vn -0.5733 0.7175 -0.3957
vn -0.3237 0.7175 -0.6168
vn -0.0000 1.0000 -0.0000
vn -0.0000 -1.0000 -0.0000
vn -0.2393 -0.0000 -0.9709
vn 0.4494 -0.0000 0.8934
vn 0.0173 -0.0000 0.9999
vn 0.0854 0.9342 0.3465
vn 0.0027 0.9308 0.3655
vn 0.0003 -0.9992 0.0397
vn 0.0092 -0.9993 0.0375
vn -0.8448 -0.0000 0.5351
vn 0.9967 -0.0000 0.0812
vn 0.1675 0.9308 0.3249
vn 0.0182 -0.9992 0.0353
vt 0.436515 0.113657
vt 0.436515 0.113657
vt 0.436515 0.113657
vt 0.436515 0.113657
vt 0.436515 0.113657
vt 0.436515 0.113657
vt 0.436515 0.113657
vt 0.436515 0.113657
vt 0.436515 0.113657
vt 0.436515 0.113657
vt 0.436515 0.113657
vt 0.436515 0.113657
vt 0.436515 0.113657
vt 0.436515 0.113657
vt 0.436515 0.113657
vt 0.436515 0.113657
vt 0.436515 0.113657
vt 0.436515 0.113657
vt 0.436515 0.113657
vt 0.436515 0.113657
vt 0.436515 0.113657
vt 0.436515 0.113657
vt 0.436515 0.113657
vt 0.436515 0.113657
vt 0.436515 0.113657
vt 0.436515 0.113657
vt 0.436515 0.113657
vt 0.436515 0.113657
vt 0.436515 0.113657
vt 0.436515 0.113657
vt 0.436515 0.113657
vt 0.436515 0.113657
vt 0.436515 0.113657
vt 0.436515 0.113657
vt 0.436515 0.113657
vt 0.436515 0.113657
vt 0.436515 0.113657
vt 0.436515 0.113657
vt 0.436515 0.113657
vt 0.832701 0.093971
vt 0.832701 0.093971
vt 0.832701 0.093971
vt 0.832701 0.093971
vt 0.832701 0.093971
vt 0.832701 0.093971
vt 0.832701 0.093971
vt 0.832701 0.093971
vt 0.832701 0.093971
vt 0.832701 0.093971
vt 0.832701 0.093971
vt 0.832701 0.093971
vt 0.832701 0.093971
vt 0.832701 0.093971
vt 0.832701 0.093971
vt 0.832701 0.093971
vt 0.832701 0.093971
vt 0.832701 0.093971
vt 0.832701 0.093971
vt 0.832701 0.093971
vt 0.832701 0.093971
vt 0.832701 0.093971
vt 0.832701 0.093971
vt 0.832701 0.093971
vt 0.832701 0.093971
vt 0.832701 0.093971
vt 0.832701 0.093971
vt 0.832701 0.093971
vt 0.832701 0.093971
vt 0.832701 0.093971
vt 0.832701 0.093971
vt 0.832701 0.093971
vt 0.832701 0.093971
vt 0.832701 0.093971
vt 0.832701 0.093971
vt 0.832701 0.093971
vt 0.832701 0.093971
vt 0.832701 0.093971
vt 0.832701 0.093971
vt 0.832701 0.093971
vt 0.832701 0.093971
vt 0.832701 0.093971
vt 0.832701 0.093971
vt 0.832701 0.093971
vt 0.832701 0.093971
vt 0.832701 0.093971
vt 0.832701 0.093971
vt 0.832701 0.093971
vt 0.832701 0.093971
vt 0.832701 0.093971
vt 0.832701 0.093971
vt 0.832701 0.093971
vt 0.810554 0.116118
vt 0.810554 0.116118
vt 0.810554 0.116118
vt 0.810554 0.116118
vt 0.810554 0.116118
vt 0.810554 0.116118
vt 0.810554 0.116118
vt 0.810554 0.116118
vt 0.810554 0.116118
vt 0.810554 0.116118
vt 0.810554 0.116118
vt 0.810554 0.116118
vt 0.810554 0.116118
vt 0.810554 0.116118
vt 0.810554 0.116118
vt 0.810554 0.116118
vt 0.810554 0.116118
vt 0.810554 0.116118
vt 0.810554 0.116118
vt 0.810554 0.116118
vt 0.810554 0.116118
vt 0.810554 0.116118
vt 0.810554 0.116118
vt 0.810554 0.116118
vt 0.810554 0.116118
vt 0.810554 0.116118
vt 0.810554 0.116118
vt 0.810554 0.116118
vt 0.810554 0.116118
vt 0.810554 0.116118
vt 0.810554 0.116118
vt 0.810554 0.116118
vt 0.810554 0.116118
vt 0.810554 0.116118
vt 0.810554 0.116118
vt 0.810554 0.116118
vt 0.810554 0.116118
vt 0.810554 0.116118
vt 0.810554 0.116118
vt 0.832701 0.093971
vt 0.832701 0.093971
vt 0.832701 0.093971
vt 0.832701 0.093971
vt 0.832701 0.093971
vt 0.832701 0.093971
vt 0.832701 0.093971
vt 0.832701 0.093971
vt 0.832701 0.093971
vt 0.832701 0.093971
vt 0.832701 0.093971
vt 0.832701 0.093971
s 1
g bathroom_accessory.001_Material
usemtl Material
f 13/13/1 39/39/1 15/15/2 1/1/2
f 3/3/3 19/19/3 21/21/4 4/4/4
f 4/4/4 21/21/4 23/23/5 5/5/5
f 5/5/5 23/23/5 25/25/6 6/6/6
f 6/6/6 25/25/6 27/27/7 7/7/7
f 7/7/7 27/27/7 29/29/8 8/8/8
f 8/8/8 29/29/8 31/31/9 9/9/9
f 9/9/9 31/31/9 33/33/10 10/10/10
f 10/10/10 33/33/10 35/35/11 11/11/11
f 11/11/11 35/35/11 37/37/12 12/12/12
f 12/12/12 37/37/12 39/39/1 13/13/1
f 1/1/2 15/15/2 17/17/13 2/2/13
f 2/2/13 17/17/13 19/19/3 3/3/3
f 17/17/14 15/15/15 14/14/15 16/16/14
f 19/19/16 17/17/14 16/16/14 18/18/16
f 21/21/17 19/19/16 18/18/16 20/20/17
f 23/23/18 21/21/17 20/20/17 22/22/18
f 25/25/19 23/23/18 22/22/18 24/24/19
f 27/27/20 25/25/19 24/24/19 26/26/20
f 29/29/21 27/27/20 26/26/20 28/28/21
f 31/31/22 29/29/21 28/28/21 30/30/22
f 33/33/23 31/31/22 30/30/22 32/32/23
f 35/35/24 33/33/23 32/32/23 34/34/24
f 37/37/25 35/35/24 34/34/24 36/36/25
f 39/39/26 37/37/25 36/36/25 38/38/26
f 15/15/15 39/39/26 38/38/26 14/14/15
f 16/16/27 14/14/27 38/38/27 36/36/27 34/34/27 32/32/27 30/30/27 28/28/27 26/26/27 24/24/27 22/22/27 20/20/27 18/18/27
f 59/59/28 58/58/28 84/84/28 85/85/28
f 53/53/28 54/54/28 55/55/28 56/56/28 57/57/28 58/58/28 59/59/28 60/60/28 61/61/28 62/62/28 63/63/28 64/64/28 65/65/28
f 53/53/28 65/65/28 91/91/28 79/79/28
f 58/58/28 57/57/28 83/83/28 84/84/28
f 49/49/27 50/50/27 76/76/27 75/75/27
f 44/44/27 45/45/27 71/71/27 70/70/27
f 65/65/28 64/64/28 90/90/28 91/91/28
f 57/57/28 56/56/28 82/82/28 83/83/28
f 64/64/28 63/63/28 89/89/28 90/90/28
f 51/51/27 52/52/27 78/78/27 77/77/27
f 46/46/27 47/47/27 73/73/27 72/72/27
f 41/41/27 42/42/27 68/68/27 67/67/27
f 56/56/28 55/55/28 81/81/28 82/82/28
f 63/63/28 62/62/28 88/88/28 89/89/28
f 67/67/13 68/68/3 81/81/3 80/80/13
f 72/72/7 73/73/8 86/86/8 85/85/7
f 77/77/12 78/78/1 91/91/1 90/90/12
f 70/70/5 71/71/6 84/84/6 83/83/5
f 75/75/10 76/76/11 89/89/11 88/88/10
f 68/68/3 69/69/4 82/82/4 81/81/3
f 73/73/8 74/74/9 87/87/9 86/86/8
f 66/66/2 67/67/13 80/80/13 79/79/2
f 78/78/1 66/66/2 79/79/2 91/91/1
f 71/71/6 72/72/7 85/85/7 84/84/6
f 76/76/11 77/77/12 90/90/12 89/89/11
f 69/69/4 70/70/5 83/83/5 82/82/4
f 74/74/9 75/75/10 88/88/10 87/87/9
f 42/42/27 43/43/27 69/69/27 68/68/27
f 47/47/27 48/48/27 74/74/27 73/73/27
f 40/40/27 41/41/27 67/67/27 66/66/27
f 52/52/27 40/40/27 66/66/27 78/78/27
f 60/60/28 59/59/28 85/85/28 86/86/28
f 45/45/27 46/46/27 72/72/27 71/71/27
f 50/50/27 51/51/27 77/77/27 76/76/27
f 61/61/28 60/60/28 86/86/28 87/87/28
f 54/54/28 53/53/28 79/79/28 80/80/28
f 62/62/28 61/61/28 87/87/28 88/88/28
f 43/43/27 44/44/27 70/70/27 69/69/27
f 48/48/27 49/49/27 75/75/27 74/74/27
f 55/55/28 54/54/28 80/80/28 81/81/28
f 103/103/28 102/102/28 101/101/28 100/100/28 99/99/28 98/98/28 97/97/28 96/96/28 95/95/28 94/94/28 93/93/28 92/92/28 104/104/28
f 92/92/1 93/93/12 109/109/12 105/105/1
f 96/96/9 97/97/8 117/117/8 115/115/9
f 93/93/12 94/94/11 111/111/11 109/109/12
f 97/97/8 98/98/7 119/119/7 117/117/8
f 98/98/7 99/99/6 121/121/6 119/119/7
f 99/99/6 100/100/5 123/123/5 121/121/6
f 130/130/27 107/107/27 106/106/27 110/110/27 112/112/27 114/114/27 116/116/27 118/118/27 120/120/27 122/122/27 124/124/27 126/126/27 128/128/27
f 100/100/5 101/101/4 125/125/4 123/123/5
f 103/103/13 104/104/2 108/108/2 129/129/13
f 101/101/4 102/102/3 127/127/3 125/125/4
f 94/94/11 95/95/10 113/113/10 111/111/11
f 102/102/3 103/103/13 129/129/13 127/127/3
f 95/95/10 96/96/9 115/115/9 113/113/10
f 106/106/26 107/107/15 108/108/15 105/105/26
f 110/110/25 106/106/26 105/105/26 109/109/25
f 112/112/24 110/110/25 109/109/25 111/111/24
f 114/114/23 112/112/24 111/111/24 113/113/23
f 116/116/22 114/114/23 113/113/23 115/115/22
f 118/118/21 116/116/22 115/115/22 117/117/21
f 120/120/20 118/118/21 117/117/21 119/119/20
f 122/122/19 120/120/20 119/119/20 121/121/19
f 124/124/18 122/122/19 121/121/19 123/123/18
f 126/126/17 124/124/18 123/123/18 125/125/17
f 128/128/16 126/126/17 125/125/17 127/127/16
f 130/130/14 128/128/16 127/127/16 129/129/14
f 107/107/15 130/130/14 129/129/14 108/108/15
f 104/104/2 92/92/1 105/105/1 108/108/2
f 131/131/1 132/132/29 135/135/29 134/134/1
f 132/132/29 133/133/2 136/136/2 135/135/29
f 137/137/30 141/141/30 140/140/7 138/138/7
f 138/138/7 140/140/7 142/142/31 139/139/31
f 135/135/32 136/136/33 142/142/33 140/140/32
f 133/133/34 132/132/35 138/138/35 139/139/34
f 136/136/36 133/133/36 139/139/36 142/142/36
f 131/131/37 134/134/37 141/141/37 137/137/37
f 134/134/38 135/135/32 140/140/32 141/141/38
f 132/132/35 131/131/39 137/137/39 138/138/35
