# Blender 3.4.1
# www.blender.org
mtllib carpet014.mtl
g carpet.013_Plane.115
v -5.000000 -0.091304 7.173913
v 5.000000 -0.091304 7.173913
v -5.000000 -0.091304 -7.826087
v 5.000000 -0.091304 -7.826087
v 5.000000 0.008696 -7.826087
v 5.000000 0.008696 7.173913
v -5.000000 0.008696 7.173913
v -5.000000 0.008696 -7.826087
v 5.000000 0.008696 5.673912
v 5.000000 0.008696 4.173913
v 5.000000 0.008696 2.673915
v 5.000000 0.008696 1.173913
v 5.000000 0.008696 -0.326087
v 5.000000 0.008696 -1.826088
v 5.000000 0.008696 -3.326087
v 5.000000 0.008696 -4.826087
v 5.000000 0.008696 -6.326087
v -5.000000 0.008696 -6.326087
v -5.000000 0.008696 -4.826087
v -5.000000 0.008696 -3.326087
v -5.000000 0.008696 -1.826088
v -5.000000 0.008696 -0.326087
v -5.000000 0.008696 1.173913
v -5.000000 0.008696 2.673913
v -5.000000 0.008696 4.173913
v -5.000000 0.008696 5.673912
v 5.000000 0.008696 7.173913
v -5.000000 0.008696 7.173913
v 5.000000 0.008696 5.673912
v 5.000000 0.008696 4.173913
v 5.000000 0.008696 2.673915
v 5.000000 0.008696 1.173913
v 5.000000 0.008696 -0.326087
v 5.000000 0.008696 -1.826088
v 5.000000 0.008696 -3.326087
v 5.000000 0.008696 -4.826087
v 5.000000 0.008696 -6.326087
v -5.000000 0.008696 -6.326087
v -5.000000 0.008696 -4.826087
v -5.000000 0.008696 -3.326087
v -5.000000 0.008696 -1.826088
v -5.000000 0.008696 -0.326087
v -5.000000 0.008696 1.173913
v -5.000000 0.008696 2.673913
v -5.000000 0.008696 4.173913
v -5.000000 0.008696 5.673912
vn -0.0000 -1.0000 -0.0000
vn -1.0000 -0.0000 -0.0000
vn 1.0000 -0.0000 -0.0000
vn -0.0000 -0.0000 1.0000
vn -0.0000 -0.0000 -1.0000
vn -0.0000 1.0000 -0.0000
vt 0.248447 0.957706
vt 0.248447 0.957706
vt 0.248447 0.957706
vt 0.248447 0.957706
vt 0.248447 0.957706
vt 0.248447 0.957706
vt 0.248447 0.957706
vt 0.248447 0.957706
vt 0.248447 0.957706
vt 0.248447 0.957706
vt 0.248447 0.957706
vt 0.248447 0.957706
vt 0.248447 0.957706
vt 0.248447 0.957706
vt 0.248447 0.957706
vt 0.248447 0.957706
vt 0.248447 0.957706
vt 0.248447 0.957706
vt 0.248447 0.957706
vt 0.248447 0.957706
vt 0.248447 0.957706
vt 0.248447 0.957706
vt 0.248447 0.957706
vt 0.248447 0.957706
vt 0.248447 0.957706
vt 0.248447 0.957706
vt 0.127868 0.928176
vt 0.127868 0.928176
vt 0.127868 0.928176
vt 0.127868 0.928176
vt 0.127868 0.928176
vt 0.127868 0.928176
vt 0.127868 0.928176
vt 0.127868 0.928176
vt 0.127868 0.928176
vt 0.127868 0.928176
vt 0.127868 0.928176
vt 0.127868 0.928176
vt 0.127868 0.928176
vt 0.127868 0.928176
vt 0.127868 0.928176
vt 0.127868 0.928176
vt 0.127868 0.928176
vt 0.127868 0.928176
vt 0.127868 0.928176
vt 0.127868 0.928176
s 1
g carpet.013_Material
usemtl Material
f 1/1/1 3/3/1 4/4/1 2/2/1
f 1/1/2 7/7/2 26/26/2 25/25/2 24/24/2 23/23/2 22/22/2 21/21/2 20/20/2 19/19/2 18/18/2 8/8/2 3/3/2
f 4/4/3 5/5/3 17/17/3 16/16/3 15/15/3 14/14/3 13/13/3 12/12/3 11/11/3 10/10/3 9/9/3 6/6/3 2/2/3
f 2/2/4 6/6/4 7/7/4 1/1/4
f 3/3/5 8/8/5 5/5/5 4/4/5
f 18/18/6 17/17/6 5/5/6 8/8/6
f 26/26/6 9/9/6 10/10/6 25/25/6
f 24/24/6 11/11/6 12/12/6 23/23/6
f 22/22/6 13/13/6 14/14/6 21/21/6
f 20/20/6 15/15/6 16/16/6 19/19/6
f 28/28/6 27/27/6 29/29/6 46/46/6
f 45/45/6 30/30/6 31/31/6 44/44/6
f 43/43/6 32/32/6 33/33/6 42/42/6
f 41/41/6 34/34/6 35/35/6 40/40/6
f 39/39/6 36/36/6 37/37/6 38/38/6
