# Blender 3.4.1
# www.blender.org
mtllib chair012.mtl
o chair.012
v -1.095352 0.488062 1.617750
v -1.169664 0.488062 1.543436
v -1.095350 0.413746 1.543435
v 1.132056 0.488062 1.617746
v 1.132057 0.413746 1.543432
v 1.206372 0.488062 1.543430
v -1.095345 0.488062 -0.897473
v -1.095347 0.413746 -0.823158
v -1.169661 0.488062 -0.823157
v 1.132062 0.488062 -0.897476
v 1.206375 0.488062 -0.823163
v 1.132061 0.413746 -0.823162
v 1.132056 0.549745 1.617746
v 1.206372 0.549745 1.543430
v 1.132057 0.624061 1.543432
v -1.095352 0.549745 1.617750
v -1.095350 0.624061 1.543435
v -1.169664 0.549745 1.543436
v -1.095345 0.549745 -0.897473
v -1.169661 0.549745 -0.823157
v -1.095347 0.624061 -0.823158
v 1.132062 0.549745 -0.897476
v 1.132061 0.624061 -0.823162
v 1.206375 0.549745 -0.823163
v -1.031384 -1.756273 1.513779
v -1.077584 -1.756273 1.559980
v -1.074324 0.232056 1.557691
v -1.024887 0.188260 1.513892
v -1.155404 -1.756273 1.559980
v -1.201597 -1.756273 1.513787
v -1.208092 0.188260 1.513889
v -1.158660 0.232056 1.557679
v -1.077577 -1.756273 1.389766
v -1.031383 -1.756273 1.435959
v -1.022053 0.116784 1.442409
v -1.068021 0.068906 1.394534
v -1.201596 -1.756273 1.435966
v -1.155397 -1.756273 1.389766
v -1.164964 0.068906 1.394532
v -1.210932 0.116784 1.442416
v -1.031387 0.188153 -0.910369
v -1.077577 0.234353 -0.910359
v -1.155397 0.234353 -0.910359
v -1.201601 0.188153 -0.910361
v -1.201601 0.110332 -0.910361
v -1.155397 0.064132 -0.910359
v -1.077577 0.064132 -0.910359
v -1.031387 0.110332 -0.910369
v 1.191562 -1.756273 1.513786
v 1.145362 -1.756273 1.559987
v 1.148608 0.232056 1.557685
v 1.198044 0.188260 1.513886
v 1.067542 -1.756273 1.559987
v 1.021335 -1.756273 1.513781
v 1.014840 0.188260 1.513882
v 1.064286 0.232056 1.557686
v 1.145356 -1.756273 1.389760
v 1.191562 -1.756273 1.435966
v 1.200892 0.116784 1.442417
v 1.154910 0.068906 1.394529
v 1.021335 -1.756273 1.435961
v 1.067536 -1.756273 1.389760
v 1.057981 0.068906 1.394540
v 1.012001 0.116784 1.442409
v 1.191559 0.188153 -0.910362
v 1.145355 0.234353 -0.910365
v 1.067535 0.234353 -0.910365
v 1.021332 0.188153 -0.910368
v 1.021332 0.110332 -0.910368
v 1.067535 0.064132 -0.910365
v 1.145355 0.064132 -0.910365
v 1.191559 0.110332 -0.910362
v -1.017788 -1.768218 -0.855940
v -1.071952 -1.768218 -0.801776
v -1.161026 -1.768218 -0.801769
v -1.215191 -1.768218 -0.855932
v -1.071945 -1.768218 -0.999178
v -1.017781 -1.768218 -0.945015
v -1.215198 -1.768218 -0.945020
v -1.161034 -1.768218 -0.999184
v -1.007123 1.298788 -0.850555
v -1.067761 1.300838 -0.790727
v -1.225861 1.298788 -0.850549
v -1.165226 1.300838 -0.790718
v -1.165924 1.293266 -1.009939
v -1.226581 1.295641 -0.948716
v -1.006404 1.295642 -0.948704
v -1.067058 1.293266 -1.009946
v -1.018088 2.758230 -1.099188
v -1.072339 2.759943 -1.045827
v -1.214892 2.758230 -1.099186
v -1.160651 2.759943 -1.045828
v -1.161322 2.754260 -1.243011
v -1.215568 2.755863 -1.188306
v -1.017418 2.755863 -1.188305
v -1.071658 2.754260 -1.243013
v 1.205157 -1.768218 -0.855932
v 1.150994 -1.768218 -0.801769
v 1.061905 -1.768218 -0.801775
v 1.007741 -1.768218 -0.855938
v 1.150987 -1.768218 -0.999184
v 1.205151 -1.768218 -0.945021
v 1.007735 -1.768218 -0.945027
v 1.061911 -1.768218 -0.999177
v 1.215823 1.298788 -0.850548
v 1.155185 1.300838 -0.790720
v 0.997071 1.298788 -0.850555
v 1.057706 1.300838 -0.790724
v 1.057009 1.293266 -1.009946
v 0.996364 1.295641 -0.948708
v 1.216528 1.295642 -0.948710
v 1.155888 1.293266 -1.009938
v 1.204844 2.758230 -1.099193
v 1.150607 2.759943 -1.045820
v 1.008041 2.758230 -1.099193
v 1.062296 2.759943 -1.045821
v 1.061611 2.754260 -1.243018
v 1.007365 2.755863 -1.188313
v 1.205515 2.755863 -1.188312
v 1.151273 2.754260 -1.243019
v -1.119646 0.098893 1.453010
v 1.113074 0.098893 1.453008
v -1.119644 0.098893 -0.897477
v 1.113076 0.098893 -0.897480
v 1.113074 0.169629 1.453008
v -1.119646 0.169629 1.453010
v -1.119644 0.169629 -0.897477
v 1.113076 0.169629 -0.897480
v -1.095352 0.235422 1.617750
v -1.169664 0.235422 1.543436
v -1.095350 0.161106 1.543435
v 1.132056 0.235422 1.617746
v 1.132057 0.161106 1.543432
v 1.206372 0.235422 1.543430
v -1.095345 0.235422 -0.897473
v -1.095347 0.161106 -0.823158
v -1.169661 0.235422 -0.823157
v 1.132062 0.235422 -0.897476
v 1.206375 0.235422 -0.823163
v 1.132061 0.161106 -0.823162
v 1.132056 0.429219 1.617746
v 1.206372 0.429219 1.543430
v 1.132057 0.503535 1.543432
v -1.095352 0.429219 1.617750
v -1.095350 0.503535 1.543435
v -1.169664 0.429219 1.543436
v -1.095345 0.429219 -0.897473
v -1.169661 0.429219 -0.823157
v -1.095347 0.503535 -0.823158
v 1.132062 0.429219 -0.897476
v 1.132061 0.503535 -0.823162
v 1.206375 0.429219 -0.823163
v -1.119648 1.345957 -0.929788
v 1.113085 1.345957 -0.929777
v -1.119650 2.703117 -1.146900
v 1.113084 2.703117 -1.146889
v 1.113079 1.357131 -0.859935
v -1.119641 1.357131 -0.859933
v -1.119642 2.714292 -1.077045
v 1.113078 2.714291 -1.077048
v -1.060761 -1.546298 1.455356
v -1.092463 -1.514591 1.455364
v -1.092460 -1.514591 -0.873061
v -1.060758 -1.546298 -0.873068
v -1.149785 -1.514591 1.455366
v -1.181502 -1.546298 1.455361
v -1.181498 -1.546298 -0.873063
v -1.149795 -1.514591 -0.873072
v -1.092463 -1.635330 1.455364
v -1.060761 -1.603624 1.455356
v -1.060758 -1.603624 -0.873068
v -1.092460 -1.635330 -0.873061
v -1.181502 -1.603624 1.455361
v -1.149785 -1.635330 1.455366
v -1.149795 -1.635330 -0.873072
v -1.181498 -1.603624 -0.873063
v 1.165589 -1.546298 1.455358
v 1.133887 -1.514591 1.455366
v 1.133890 -1.514591 -0.873059
v 1.165592 -1.546298 -0.873066
v 1.076564 -1.514591 1.455369
v 1.044848 -1.546298 1.455363
v 1.044852 -1.546298 -0.873061
v 1.076554 -1.514591 -0.873069
v 1.133887 -1.635330 1.455366
v 1.165589 -1.603624 1.455358
v 1.165592 -1.603624 -0.873066
v 1.133890 -1.635330 -0.873059
v 1.044848 -1.603624 1.455363
v 1.076564 -1.635330 1.455369
v 1.076554 -1.635330 -0.873069
v 1.044852 -1.603624 -0.873061
v -1.119641 -1.546298 0.336660
v -1.119648 -1.514591 0.304946
v 1.113086 -1.514591 0.304957
v 1.113079 -1.546298 0.336658
v -1.119645 -1.514591 0.247623
v -1.119638 -1.546298 0.215922
v 1.113082 -1.546298 0.215920
v 1.113076 -1.514591 0.247620
v -1.119648 -1.635331 0.304946
v -1.119641 -1.603624 0.336660
v 1.113079 -1.603623 0.336658
v 1.113086 -1.635330 0.304957
v -1.119638 -1.603624 0.215922
v -1.119645 -1.635331 0.247623
v 1.113076 -1.635330 0.247620
v 1.113082 -1.603623 0.215920
v 0.955608 1.422916 -0.884620
v -0.962172 1.422916 -0.884609
v -0.962174 2.651752 -1.081193
v 0.955619 2.651752 -1.081190
v -0.902789 1.496347 -0.730763
v 0.896218 1.496347 -0.730767
v 0.896221 2.607887 -0.908582
v -0.902786 2.607887 -0.908578
v 0.955611 1.437699 -0.792209
v -0.962183 1.437699 -0.792212
v 0.955608 2.666534 -0.988793
v -0.962171 2.666534 -0.988783
vn -0.8756 -0.3416 -0.3416
vn -0.8756 -0.3416 0.3416
vn -0.8756 0.3416 0.3416
vn -0.8756 0.3416 -0.3416
vn 0.3416 -0.3416 -0.8756
vn -0.3416 -0.3416 -0.8756
vn -0.3416 0.3416 -0.8756
vn 0.3416 0.3416 -0.8756
vn -0.3416 0.8756 0.3416
vn 0.3416 0.8756 0.3416
vn 0.3416 0.8756 -0.3416
vn -0.3416 0.8756 -0.3416
vn 0.8756 -0.3416 0.3416
vn 0.8756 -0.3416 -0.3416
vn 0.8756 0.3416 -0.3416
vn 0.8756 0.3416 0.3416
vn -0.3416 -0.8756 0.3416
vn -0.3416 -0.8756 -0.3416
vn 0.3416 -0.8756 -0.3416
vn 0.3416 -0.8756 0.3416
vn -0.3416 -0.3416 0.8756
vn 0.3416 -0.3416 0.8756
vn 0.3416 0.3416 0.8756
vn -0.3416 0.3416 0.8756
vn 0.9294 -0.0031 -0.3691
vn 0.9897 -0.1014 -0.1007
vn 0.8965 0.3131 0.3134
vn 0.9135 -0.0030 0.4067
vn -0.3863 0.0006 -0.9224
vn -0.4520 0.0002 -0.8920
vn 0.4519 0.0002 -0.8920
vn 0.3863 0.0006 -0.9224
vn -0.9897 -0.1014 -0.1007
vn -0.8965 0.3131 0.3134
vn -0.9137 0.4065 -0.0024
vn -0.9294 -0.3691 -0.0025
vn 0.3680 -0.0001 0.9298
vn 0.2834 0.0002 0.9590
vn -0.2834 0.0002 0.9590
vn -0.3680 -0.0001 0.9298
vn -0.9135 -0.0030 0.4068
vn -0.9294 -0.0031 -0.3691
vn -0.0000 -1.0000 -0.0000
vn -0.0000 -0.0000 -1.0000
vn 0.4517 -0.8922 0.0002
vn 0.3866 -0.9222 0.0005
vn 0.9294 -0.3691 -0.0025
vn 0.9137 0.4064 -0.0024
vn -0.4517 -0.8922 0.0002
vn -0.3866 -0.9223 0.0005
vn -0.2833 0.9590 0.0002
vn -0.3681 0.9298 -0.0001
vn 0.2834 0.9590 0.0002
vn 0.3681 0.9298 -0.0001
vn 0.9135 -0.0030 0.4068
vn -0.4519 0.0002 -0.8921
vn 0.4519 0.0002 -0.8921
vn -0.9897 -0.1014 -0.1008
vn -0.9136 0.4065 -0.0024
vn -0.9294 -0.0031 -0.3692
vn 0.4516 -0.8922 0.0002
vn 0.3865 -0.9223 0.0005
vn 0.9136 0.4065 -0.0024
vn -0.4516 -0.8922 0.0002
vn -0.3865 -0.9223 0.0005
vn 0.2833 0.9590 0.0002
vn -0.9326 -0.0270 -0.3599
vn -0.9144 0.0364 0.4033
vn -0.9313 0.0680 0.3579
vn -0.9132 -0.0592 -0.4032
vn -0.9225 -0.0039 0.3861
vn -0.3810 -0.0039 0.9246
vn -0.3732 0.0781 0.9245
vn -0.3915 -0.0746 -0.9171
vn -0.3838 -0.0038 -0.9234
vn -0.9251 -0.0039 -0.3798
vn 0.9326 -0.0270 -0.3599
vn 0.9251 -0.0039 -0.3797
vn 0.3839 -0.0038 -0.9234
vn 0.3916 -0.0746 -0.9171
vn 0.3811 -0.0039 0.9245
vn 0.3732 0.0781 0.9245
vn 0.9144 0.0364 0.4033
vn 0.9225 -0.0039 0.3861
vn -0.0000 0.9996 -0.0285
vn -0.3710 -0.1452 -0.9172
vn 0.3710 -0.1452 -0.9172
vn 0.9132 -0.0592 -0.4031
vn 0.9313 0.0680 0.3579
vn -0.3878 0.1599 0.9077
vn 0.3879 0.1599 0.9077
vn 0.9144 0.0364 0.4032
vn 0.9132 -0.0592 -0.4032
vn 0.9313 0.0680 0.3578
vn -0.9144 0.0364 0.4032
vn -0.9225 -0.0039 0.3860
vn -0.3811 -0.0039 0.9245
vn -0.3916 -0.0746 -0.9171
vn 0.9251 -0.0039 -0.3798
vn 0.3810 -0.0039 0.9246
vn 0.9225 -0.0039 0.3860
vn -0.3879 0.1599 0.9077
vn -0.9313 0.0680 0.3578
vn 0.3711 -0.1452 -0.9172
vn -0.0000 1.0000 -0.0000
vn 1.0000 -0.0000 -0.0000
vn -1.0000 -0.0000 -0.0000
vn -0.0000 -0.0000 1.0000
vn -0.0000 -0.1580 -0.9874
vn -0.0000 0.1580 0.9874
vn 1.0000 -0.0000 0.0001
vn -0.0000 0.9874 -0.1580
vn -1.0000 -0.0000 0.0001
vn -0.0000 -0.9874 0.1580
vn 0.9239 -0.3827 -0.0000
vn 0.9239 -0.3826 -0.0000
vn 0.9239 0.3826 -0.0000
vn 0.9239 0.3827 -0.0000
vn -0.3827 -0.9239 -0.0000
vn 0.3827 -0.9239 -0.0000
vn 0.3827 0.9239 -0.0000
vn -0.3827 0.9239 -0.0000
vn -0.9239 0.3827 -0.0000
vn -0.9239 -0.3827 -0.0000
vn -0.0000 -0.3827 0.9239
vn -0.0000 0.3827 0.9239
vn -0.0000 -0.9239 -0.3827
vn -0.0000 -0.9239 0.3827
vn -0.0000 0.9239 0.3827
vn -0.0000 0.9239 -0.3827
vn -0.0000 0.3827 -0.9239
vn -0.0000 0.3826 -0.9239
vn -0.0000 -0.3826 -0.9239
vn -0.0000 -0.3827 -0.9239
vn -0.4751 0.1390 0.8689
vn 0.4751 0.1390 0.8689
vn 0.3366 0.4320 0.8367
vn -0.3366 0.4320 0.8367
vn -0.0000 -0.9266 0.3760
vn 0.9675 0.0399 0.2495
vn 0.9596 0.0445 0.2779
vn -0.0000 0.9887 0.1497
vn -0.9596 0.0445 0.2778
vn -0.9676 0.0399 0.2495
vn -0.0000 -0.7234 0.6904
vt 0.086667 0.876842
vt 0.086667 0.876842
vt 0.086667 0.876842
vt 0.086667 0.876842
vt 0.086667 0.876842
vt 0.086667 0.876842
vt 0.086667 0.876842
vt 0.086667 0.876842
vt 0.086667 0.876842
vt 0.086667 0.876842
vt 0.086667 0.876842
vt 0.086667 0.876842
vt 0.086667 0.876842
vt 0.086667 0.876842
vt 0.086667 0.876842
vt 0.086667 0.876842
vt 0.086667 0.876842
vt 0.086667 0.876842
vt 0.086667 0.876842
vt 0.086667 0.876842
vt 0.086667 0.876842
vt 0.086667 0.876842
vt 0.086667 0.876842
vt 0.086667 0.876842
vt 0.449412 0.929548
vt 0.449412 0.929548
vt 0.449412 0.929548
vt 0.449412 0.929548
vt 0.449412 0.929548
vt 0.449412 0.929548
vt 0.449412 0.929548
vt 0.449412 0.929548
vt 0.449412 0.929548
vt 0.449412 0.929548
vt 0.449412 0.929548
vt 0.449412 0.929548
vt 0.449412 0.929548
vt 0.449412 0.929548
vt 0.449412 0.929548
vt 0.449412 0.929548
vt 0.449412 0.929548
vt 0.449412 0.929548
vt 0.449412 0.929548
vt 0.449412 0.929548
vt 0.449412 0.929548
vt 0.449412 0.929548
vt 0.449412 0.929548
vt 0.449412 0.929548
vt 0.449412 0.929548
vt 0.449412 0.929548
vt 0.449412 0.929548
vt 0.449412 0.929548
vt 0.449412 0.929548
vt 0.449412 0.929548
vt 0.449412 0.929548
vt 0.449412 0.929548
vt 0.449412 0.929548
vt 0.449412 0.929548
vt 0.449412 0.929548
vt 0.449412 0.929548
vt 0.449412 0.929548
vt 0.449412 0.929548
vt 0.449412 0.929548
vt 0.449412 0.929548
vt 0.449412 0.929548
vt 0.449412 0.929548
vt 0.449412 0.929548
vt 0.449412 0.929548
vt 0.449412 0.929548
vt 0.449412 0.929548
vt 0.449412 0.929548
vt 0.449412 0.929548
vt 0.449412 0.929548
vt 0.449412 0.929548
vt 0.449412 0.929548
vt 0.449412 0.929548
vt 0.449412 0.929548
vt 0.449412 0.929548
vt 0.449412 0.929548
vt 0.449412 0.929548
vt 0.449412 0.929548
vt 0.449412 0.929548
vt 0.449412 0.929548
vt 0.449412 0.929548
vt 0.449412 0.929548
vt 0.449412 0.929548
vt 0.449412 0.929548
vt 0.449412 0.929548
vt 0.449412 0.929548
vt 0.449412 0.929548
vt 0.449412 0.929548
vt 0.449412 0.929548
vt 0.449412 0.929548
vt 0.449412 0.929548
vt 0.449412 0.929548
vt 0.449412 0.929548
vt 0.449412 0.929548
vt 0.449412 0.929548
vt 0.449412 0.929548
vt 0.449412 0.929548
vt 0.449412 0.929548
vt 0.449412 0.929548
vt 0.449412 0.929548
vt 0.449412 0.929548
vt 0.449412 0.929548
vt 0.449412 0.929548
vt 0.449412 0.929548
vt 0.449412 0.929548
vt 0.449412 0.929548
vt 0.449412 0.929548
vt 0.449412 0.929548
vt 0.449412 0.929548
vt 0.449412 0.929548
vt 0.449412 0.929548
vt 0.449412 0.929548
vt 0.449412 0.929548
vt 0.449412 0.929548
vt 0.449412 0.929548
vt 0.449412 0.929548
vt 0.449412 0.929548
vt 0.449412 0.929548
vt 0.449412 0.929548
vt 0.449412 0.929548
vt 0.449412 0.929548
vt 0.449412 0.929548
vt 0.449412 0.929548
vt 0.449412 0.929548
vt 0.449412 0.929548
vt 0.086667 0.876842
vt 0.086667 0.876842
vt 0.086667 0.876842
vt 0.086667 0.876842
vt 0.086667 0.876842
vt 0.086667 0.876842
vt 0.086667 0.876842
vt 0.086667 0.876842
vt 0.086667 0.876842
vt 0.086667 0.876842
vt 0.086667 0.876842
vt 0.086667 0.876842
vt 0.086667 0.876842
vt 0.086667 0.876842
vt 0.086667 0.876842
vt 0.086667 0.876842
vt 0.086667 0.876842
vt 0.086667 0.876842
vt 0.086667 0.876842
vt 0.086667 0.876842
vt 0.086667 0.876842
vt 0.086667 0.876842
vt 0.086667 0.876842
vt 0.086667 0.876842
vt 0.449412 0.929548
vt 0.449412 0.929548
vt 0.449412 0.929548
vt 0.449412 0.929548
vt 0.449412 0.929548
vt 0.449412 0.929548
vt 0.449412 0.929548
vt 0.449412 0.929548
vt 0.449412 0.929548
vt 0.449412 0.929548
vt 0.449412 0.929548
vt 0.449412 0.929548
vt 0.449412 0.929548
vt 0.449412 0.929548
vt 0.449412 0.929548
vt 0.449412 0.929548
vt 0.449412 0.929548
vt 0.449412 0.929548
vt 0.449412 0.929548
vt 0.449412 0.929548
vt 0.449412 0.929548
vt 0.449412 0.929548
vt 0.449412 0.929548
vt 0.449412 0.929548
vt 0.449412 0.929548
vt 0.449412 0.929548
vt 0.449412 0.929548
vt 0.449412 0.929548
vt 0.449412 0.929548
vt 0.449412 0.929548
vt 0.449412 0.929548
vt 0.449412 0.929548
vt 0.449412 0.929548
vt 0.449412 0.929548
vt 0.449412 0.929548
vt 0.449412 0.929548
vt 0.449412 0.929548
vt 0.449412 0.929548
vt 0.449412 0.929548
vt 0.449412 0.929548
vt 0.449412 0.929548
vt 0.449412 0.929548
vt 0.449412 0.929548
vt 0.449412 0.929548
vt 0.449412 0.929548
vt 0.449412 0.929548
vt 0.449412 0.929548
vt 0.449412 0.929548
vt 0.449412 0.929548
vt 0.449412 0.929548
vt 0.449412 0.929548
vt 0.449412 0.929548
vt 0.449412 0.929548
vt 0.449412 0.929548
vt 0.449412 0.929548
vt 0.449412 0.929548
vt 0.086667 0.876842
vt 0.086667 0.876842
vt 0.086667 0.876842
vt 0.086667 0.876842
vt 0.086667 0.876842
vt 0.086667 0.876842
vt 0.086667 0.876842
vt 0.086667 0.876842
vt 0.086667 0.876842
vt 0.086667 0.876842
vt 0.086667 0.876842
vt 0.086667 0.876842
s 1
usemtl Material
f 9/9/1 2/2/2 18/18/3 20/20/4
f 10/10/5 7/7/6 19/19/7 22/22/8
f 17/17/9 15/15/10 23/23/11 21/21/12
f 6/6/13 11/11/14 24/24/15 14/14/16
f 3/3/17 8/8/18 12/12/19 5/5/20
f 1/1/21 2/2/2 3/3/17
f 4/4/22 5/5/20 6/6/13
f 7/7/6 8/8/18 9/9/1
f 10/10/5 11/11/14 12/12/19
f 13/13/23 14/14/16 15/15/10
f 16/16/24 17/17/9 18/18/3
f 19/19/7 20/20/4 21/21/12
f 22/22/8 23/23/11 24/24/15
f 4/4/22 1/1/21 3/3/17 5/5/20
f 7/7/6 10/10/5 12/12/19 8/8/18
f 2/2/2 9/9/1 8/8/18 3/3/17
f 5/5/20 12/12/19 11/11/14 6/6/13
f 15/15/10 17/17/9 16/16/24 13/13/23
f 21/21/12 23/23/11 22/22/8 19/19/7
f 17/17/9 21/21/12 20/20/4 18/18/3
f 14/14/16 24/24/15 23/23/11 15/15/10
f 10/10/5 22/22/8 24/24/15 11/11/14
f 13/13/23 4/4/22 6/6/13 14/14/16
f 9/9/1 20/20/4 19/19/7 7/7/6
f 1/1/21 16/16/24 18/18/3 2/2/2
f 1/1/21 4/4/22 13/13/23 16/16/24
f 34/34/25 35/35/26 28/28/27 25/25/28
f 38/38/29 39/39/30 36/36/31 33/33/32
f 40/40/33 31/31/34 44/44/35 45/45/36
f 26/26/37 27/27/38 32/32/39 29/29/40
f 30/30/41 31/31/34 40/40/33 37/37/42
f 25/25/28 28/28/27 27/27/38 26/26/37
f 31/31/34 30/30/41 29/29/40 32/32/39
f 39/39/30 38/38/29 37/37/42 40/40/33
f 35/35/26 34/34/25 33/33/32 36/36/31
f 29/29/43 30/30/43 37/37/43 38/38/43 33/33/43 34/34/43 25/25/43 26/26/43
f 46/46/44 45/45/44 44/44/44 43/43/44 42/42/44 41/41/44 48/48/44 47/47/44
f 35/35/26 36/36/45 47/47/46 48/48/47
f 28/28/27 35/35/26 48/48/47 41/41/48
f 39/39/49 40/40/33 45/45/36 46/46/50
f 31/31/34 32/32/51 43/43/52 44/44/35
f 27/27/53 28/28/27 41/41/48 42/42/54
f 36/36/45 39/39/49 46/46/50 47/47/46
f 32/32/51 27/27/53 42/42/54 43/43/52
f 58/58/25 59/59/26 52/52/27 49/49/55
f 62/62/29 63/63/56 60/60/57 57/57/32
f 64/64/58 55/55/34 68/68/59 69/69/36
f 50/50/37 51/51/38 56/56/39 53/53/40
f 54/54/41 55/55/34 64/64/58 61/61/60
f 49/49/55 52/52/27 51/51/38 50/50/37
f 55/55/34 54/54/41 53/53/40 56/56/39
f 63/63/56 62/62/29 61/61/60 64/64/58
f 59/59/26 58/58/25 57/57/32 60/60/57
f 53/53/43 54/54/43 61/61/43 62/62/43 57/57/43 58/58/43 49/49/43 50/50/43
f 70/70/44 69/69/44 68/68/44 67/67/44 66/66/44 65/65/44 72/72/44 71/71/44
f 59/59/26 60/60/61 71/71/62 72/72/47
f 52/52/27 59/59/26 72/72/47 65/65/63
f 63/63/64 64/64/58 69/69/36 70/70/65
f 55/55/34 56/56/51 67/67/52 68/68/59
f 51/51/66 52/52/27 65/65/63 66/66/54
f 60/60/61 63/63/64 70/70/65 71/71/62
f 56/56/51 51/51/66 66/66/54 67/67/52
f 86/86/67 83/83/68 91/91/69 94/94/70
f 83/83/68 76/76/71 75/75/72 84/84/73
f 85/85/74 80/80/75 79/79/76 86/86/67
f 87/87/77 78/78/78 77/77/79 88/88/80
f 75/75/43 76/76/43 79/79/43 80/80/43 77/77/43 78/78/43 73/73/43 74/74/43
f 80/80/75 85/85/74 88/88/80 77/77/79
f 76/76/71 83/83/68 86/86/67 79/79/76
f 74/74/81 82/82/82 84/84/73 75/75/72
f 78/78/78 87/87/77 81/81/83 73/73/84
f 73/73/84 81/81/83 82/82/82 74/74/81
f 92/92/85 90/90/85 89/89/85 95/95/85 96/96/85 93/93/85 94/94/85 91/91/85
f 88/88/80 85/85/74 93/93/86 96/96/87
f 81/81/83 87/87/77 95/95/88 89/89/89
f 83/83/68 84/84/73 92/92/90 91/91/69
f 85/85/74 86/86/67 94/94/70 93/93/86
f 87/87/77 88/88/80 96/96/87 95/95/88
f 82/82/82 81/81/83 89/89/89 90/90/91
f 84/84/73 82/82/82 90/90/91 92/92/90
f 105/105/92 111/111/77 119/119/93 113/113/94
f 107/107/95 100/100/96 99/99/97 108/108/73
f 109/109/98 104/104/75 103/103/76 110/110/67
f 111/111/77 102/102/99 101/101/79 112/112/80
f 99/99/43 100/100/43 103/103/43 104/104/43 101/101/43 102/102/43 97/97/43 98/98/43
f 104/104/75 109/109/98 112/112/80 101/101/79
f 100/100/96 107/107/95 110/110/67 103/103/76
f 98/98/100 106/106/82 108/108/73 99/99/97
f 102/102/99 111/111/77 105/105/92 97/97/101
f 97/97/101 105/105/92 106/106/82 98/98/100
f 116/116/85 114/114/85 113/113/85 119/119/85 120/120/85 117/117/85 118/118/85 115/115/85
f 107/107/95 108/108/73 116/116/102 115/115/103
f 109/109/98 110/110/67 118/118/70 117/117/86
f 111/111/77 112/112/80 120/120/104 119/119/93
f 106/106/82 105/105/92 113/113/94 114/114/91
f 108/108/73 106/106/82 114/114/91 116/116/102
f 110/110/67 107/107/95 115/115/103 118/118/70
f 112/112/80 109/109/98 117/117/86 120/120/104
f 121/121/43 123/123/43 124/124/43 122/122/43
f 126/126/105 125/125/105 128/128/105 127/127/105
f 122/122/106 124/124/106 128/128/106 125/125/106
f 124/124/44 123/123/44 127/127/44 128/128/44
f 123/123/107 121/121/107 126/126/107 127/127/107
f 121/121/108 122/122/108 125/125/108 126/126/108
f 137/137/1 130/130/2 146/146/3 148/148/4
f 138/138/5 135/135/6 147/147/7 150/150/8
f 145/145/9 143/143/10 151/151/11 149/149/12
f 134/134/13 139/139/14 152/152/15 142/142/16
f 131/131/17 136/136/18 140/140/19 133/133/20
f 129/129/21 130/130/2 131/131/17
f 132/132/22 133/133/20 134/134/13
f 135/135/6 136/136/18 137/137/1
f 138/138/5 139/139/14 140/140/19
f 141/141/23 142/142/16 143/143/10
f 144/144/24 145/145/9 146/146/3
f 147/147/7 148/148/4 149/149/12
f 150/150/8 151/151/11 152/152/15
f 132/132/22 129/129/21 131/131/17 133/133/20
f 135/135/6 138/138/5 140/140/19 136/136/18
f 130/130/2 137/137/1 136/136/18 131/131/17
f 133/133/20 140/140/19 139/139/14 134/134/13
f 143/143/10 145/145/9 144/144/24 141/141/23
f 149/149/12 151/151/11 150/150/8 147/147/7
f 145/145/9 149/149/12 148/148/4 146/146/3
f 142/142/16 152/152/15 151/151/11 143/143/10
f 138/138/5 150/150/8 152/152/15 139/139/14
f 141/141/23 132/132/22 134/134/13 142/142/16
f 137/137/1 148/148/4 147/147/7 135/135/6
f 129/129/21 144/144/24 146/146/3 130/130/2
f 129/129/21 132/132/22 141/141/23 144/144/24
f 153/153/109 155/155/109 156/156/109 154/154/109
f 158/158/110 157/157/110 160/160/110 159/159/110
f 154/154/111 156/156/111 160/160/111 157/157/111
f 156/156/112 155/155/112 159/159/112 160/160/112
f 155/155/113 153/153/113 158/158/113 159/159/113
f 153/153/114 154/154/114 157/157/114 158/158/114
f 170/170/115 171/171/116 164/164/117 161/161/118
f 174/174/119 175/175/119 172/172/120 169/169/120
f 175/175/44 176/176/44 167/167/44 168/168/44 163/163/44 164/164/44 171/171/44 172/172/44
f 162/162/121 163/163/121 168/168/122 165/165/122
f 166/166/123 167/167/123 176/176/124 173/173/124
f 161/161/118 164/164/117 163/163/121 162/162/121
f 167/167/123 166/166/123 165/165/122 168/168/122
f 175/175/119 174/174/119 173/173/124 176/176/124
f 171/171/116 170/170/115 169/169/120 172/172/120
f 165/165/108 166/166/108 173/173/108 174/174/108 169/169/108 170/170/108 161/161/108 162/162/108
f 186/186/115 187/187/116 180/180/117 177/177/118
f 190/190/119 191/191/119 188/188/120 185/185/120
f 191/191/44 192/192/44 183/183/44 184/184/44 179/179/44 180/180/44 187/187/44 188/188/44
f 178/178/121 179/179/121 184/184/122 181/181/122
f 182/182/123 183/183/123 192/192/124 189/189/124
f 177/177/118 180/180/117 179/179/121 178/178/121
f 183/183/123 182/182/123 181/181/122 184/184/122
f 191/191/119 190/190/119 189/189/124 192/192/124
f 187/187/116 186/186/115 185/185/120 188/188/120
f 181/181/108 182/182/108 189/189/108 190/190/108 185/185/108 186/186/108 177/177/108 178/178/108
f 202/202/125 203/203/125 196/196/126 193/193/126
f 206/206/127 207/207/127 204/204/128 201/201/128
f 207/207/106 208/208/106 199/199/106 200/200/106 195/195/106 196/196/106 203/203/106 204/204/106
f 194/194/129 195/195/129 200/200/130 197/197/130
f 198/198/131 199/199/132 208/208/133 205/205/134
f 193/193/126 196/196/126 195/195/129 194/194/129
f 199/199/132 198/198/131 197/197/130 200/200/130
f 207/207/127 206/206/127 205/205/134 208/208/133
f 203/203/125 202/202/125 201/201/128 204/204/128
f 197/197/107 198/198/107 205/205/107 206/206/107 201/201/107 202/202/107 193/193/107 194/194/107
f 213/213/135 214/214/136 215/215/137 216/216/138
f 209/209/114 217/217/139 218/218/139 210/210/114
f 212/212/106 219/219/140 217/217/141 209/209/106
f 211/211/112 220/220/142 219/219/142 212/212/112
f 210/210/107 218/218/143 220/220/144 211/211/107
f 214/214/145 213/213/145 218/218/139 217/217/139
f 215/215/137 214/214/136 217/217/141 219/219/140
f 216/216/138 215/215/137 219/219/142 220/220/142
f 213/213/135 216/216/138 220/220/144 218/218/143
