# Blender 3.4.1
# www.blender.org
mtllib chair014.mtl
o chair.014
v -0.976418 -0.369899 2.013201
v -1.050732 -0.369899 1.938888
v -0.976417 -0.444215 1.938887
v 0.988879 -0.369899 2.013201
v 0.988881 -0.444215 1.938887
v 1.063192 -0.369899 1.938888
v -0.976412 -0.369899 -0.502020
v -0.976414 -0.444215 -0.427705
v -1.050728 -0.369899 -0.427705
v 0.988886 -0.369899 -0.502021
v 1.063196 -0.369899 -0.427704
v 0.988884 -0.444215 -0.427706
v 0.988879 -0.201237 2.013201
v 1.063192 -0.201237 1.938888
v 0.988881 -0.126922 1.938887
v -0.976418 -0.201238 2.013201
v -0.976417 -0.126922 1.938887
v -1.050732 -0.201238 1.938888
v -0.976412 -0.201238 -0.502020
v -1.050728 -0.201238 -0.427705
v -0.976414 -0.126922 -0.427705
v 0.988886 -0.201237 -0.502021
v 0.988884 -0.126922 -0.427706
v 1.063196 -0.201237 -0.427704
v -1.076772 -2.316862 1.886947
v -1.093112 -2.317129 1.904204
v -1.069569 1.067050 1.953140
v -1.020132 1.023253 1.909341
v -1.130340 -2.317129 1.904207
v -1.146682 -2.316862 1.886941
v -1.203336 1.023253 1.909337
v -1.153891 1.067050 1.953141
v -1.094074 -2.316915 1.835870
v -1.077642 -2.316865 1.851672
v -1.017285 0.951777 1.837872
v -1.063253 0.903899 1.789997
v -1.145818 -2.316865 1.851684
v -1.129390 -2.316915 1.835877
v -1.160195 0.903899 1.789995
v -1.206176 0.951777 1.837864
v -1.068819 1.004368 -0.477237
v -1.089891 1.026216 -0.477475
v -1.133560 1.026216 -0.477477
v -1.154640 1.004368 -0.477247
v -1.153914 0.962375 -0.477245
v -1.132763 0.941774 -0.477303
v -1.090690 0.941774 -0.477296
v -1.069546 0.962375 -0.477239
v 1.146158 -2.316862 1.886943
v 1.129818 -2.317129 1.904200
v 1.153361 1.067050 1.953136
v 1.202811 1.023253 1.909351
v 1.092590 -2.317129 1.904204
v 1.076247 -2.316862 1.886937
v 1.019607 1.023253 1.909348
v 1.069039 1.067050 1.953137
v 1.128870 -2.316915 1.835879
v 1.145301 -2.316865 1.851681
v 1.205645 0.951777 1.837867
v 1.159679 0.903899 1.789991
v 1.077112 -2.316865 1.851681
v 1.093540 -2.316915 1.835873
v 1.062732 0.903899 1.789994
v 1.016767 0.951777 1.837874
v 1.154111 1.004368 -0.477241
v 1.133042 1.026216 -0.477481
v 1.089367 1.026216 -0.477477
v 1.068303 1.004368 -0.477237
v 1.069029 0.962375 -0.477235
v 1.090165 0.941774 -0.477304
v 1.132243 0.941774 -0.477303
v 1.153383 0.962375 -0.477242
v -1.013019 -2.373538 -0.460477
v -1.067182 -2.373538 -0.406314
v -1.156271 -2.373538 -0.406320
v -1.210436 -2.373538 -0.460483
v -1.067190 -2.373538 -0.603729
v -1.013025 -2.373538 -0.549566
v -1.210428 -2.373538 -0.549559
v -1.156265 -2.373538 -0.603722
v -1.002354 0.693468 -0.455093
v -1.062991 0.695518 -0.395265
v -1.221106 0.693468 -0.455100
v -1.160471 0.695518 -0.395269
v -1.161169 0.687946 -0.614490
v -1.221812 0.690321 -0.553253
v -1.001649 0.690321 -0.553255
v -1.062289 0.687946 -0.614483
v -1.007389 1.363254 -0.569202
v -1.065090 1.365149 -0.512337
v -1.216062 1.363254 -0.569200
v -1.158363 1.365149 -0.512341
v -1.159054 1.358444 -0.721453
v -1.216756 1.360465 -0.663211
v -1.006705 1.360465 -0.663216
v -1.064406 1.358444 -0.721449
v 1.209911 -2.373538 -0.460481
v 1.155750 -2.373538 -0.406320
v 1.066656 -2.373538 -0.406322
v 1.012494 -2.373538 -0.460487
v 1.155756 -2.373538 -0.603721
v 1.209904 -2.373538 -0.549569
v 1.012502 -2.373538 -0.549563
v 1.066662 -2.373538 -0.603723
v 1.220573 0.693468 -0.455094
v 1.159941 0.695518 -0.395271
v 1.001840 0.693468 -0.455093
v 1.062457 0.695518 -0.395271
v 1.061772 0.687946 -0.614478
v 1.001118 0.690321 -0.553257
v 1.221281 0.690321 -0.553259
v 1.160641 0.687946 -0.614487
v 1.215543 1.363254 -0.569208
v 1.157839 1.365149 -0.512340
v 1.006866 1.363254 -0.569201
v 1.064567 1.365149 -0.512344
v 1.063890 1.358444 -0.721443
v 1.006174 1.360465 -0.663215
v 1.216239 1.360465 -0.663206
v 1.158524 1.358444 -0.721453
v -1.114877 -0.623433 1.848473
v 1.117842 -0.623433 1.848471
v -1.114876 -0.623433 -0.502015
v 1.117845 -0.623433 -0.502018
v 1.117842 -0.435691 1.848471
v -1.114877 -0.435692 1.848473
v -1.114876 -0.435692 -0.502015
v 1.117845 -0.435691 -0.502018
v -1.114887 1.123129 -0.595521
v 1.117847 1.123129 -0.595511
v -1.114883 1.246938 -0.615325
v 1.117837 1.246938 -0.615327
v 1.117841 1.134303 -0.525670
v -1.114880 1.134303 -0.525666
v -1.114876 1.258112 -0.545470
v 1.117844 1.258112 -0.545472
v 0.373601 1.024262 -0.579698
v -0.370637 1.024262 -0.579699
v -0.370641 1.370212 -0.635045
v 0.373598 1.370212 -0.635045
v 0.373595 1.035436 -0.509856
v -0.370643 1.035436 -0.509857
v -0.370634 1.381385 -0.565190
v 0.373604 1.381385 -0.565189
v -1.114889 1.003599 -0.447109
v -1.114883 1.035306 -0.478809
v 1.117828 1.032438 -0.483955
v 1.117832 1.006415 -0.457929
v -1.114880 1.035306 -0.536132
v -1.114887 1.003599 -0.567847
v 1.117828 1.006415 -0.557028
v 1.117832 1.032438 -0.531001
v -1.114883 0.914566 -0.478809
v -1.114889 0.946273 -0.447109
v 1.117832 0.959367 -0.457929
v 1.117828 0.933344 -0.483955
v -1.114887 0.946273 -0.567847
v -1.114880 0.914566 -0.536132
v 1.117832 0.933344 -0.531001
v 1.117828 0.959367 -0.557028
v -1.114889 -0.897408 -0.447109
v -1.114883 -0.865701 -0.478809
v 1.117828 -0.868569 -0.483955
v 1.117832 -0.894592 -0.457929
v -1.114880 -0.865701 -0.536132
v -1.114887 -0.897408 -0.567847
v 1.117828 -0.894592 -0.557028
v 1.117832 -0.868569 -0.531001
v -1.114883 -0.986441 -0.478809
v -1.114889 -0.954733 -0.447109
v 1.117832 -0.941640 -0.457929
v 1.117828 -0.967663 -0.483955
v -1.114887 -0.954733 -0.567847
v -1.114880 -0.986441 -0.536132
v 1.117832 -0.967663 -0.531001
v 1.117828 -0.941640 -0.557028
v 0.018258 0.973181 -0.459190
v 0.043615 0.973181 -0.484547
v 0.052834 -0.902346 -0.483948
v 0.026812 -0.902346 -0.457925
v 0.043610 0.973181 -0.530398
v 0.018253 0.973181 -0.555753
v 0.026808 -0.902346 -0.557024
v 0.052837 -0.902346 -0.530994
v -0.052949 0.973181 -0.484550
v -0.027592 0.973181 -0.459196
v -0.020234 -0.902346 -0.457922
v -0.046265 -0.902346 -0.483951
v -0.027596 0.973181 -0.555759
v -0.052954 0.973181 -0.530401
v -0.046262 -0.902346 -0.530997
v -0.020238 -0.902346 -0.557021
v -0.517813 0.973181 -0.459200
v -0.492456 0.973181 -0.484557
v -0.483223 -0.902346 -0.483944
v -0.509245 -0.902346 -0.457923
v -0.492448 0.973181 -0.530394
v -0.517804 0.973181 -0.555749
v -0.509249 -0.902346 -0.557021
v -0.483233 -0.902346 -0.531004
v -0.589005 0.973181 -0.484548
v -0.563650 0.973181 -0.459192
v -0.556304 -0.902346 -0.457933
v -0.582322 -0.902346 -0.483948
v -0.563653 0.973181 -0.555756
v -0.589011 0.973181 -0.530398
v -0.582319 -0.902346 -0.530994
v -0.556295 -0.902346 -0.557018
v 0.543445 0.973181 -0.459194
v 0.568803 0.973181 -0.484552
v 0.578023 -0.902346 -0.483953
v 0.552000 -0.902346 -0.457930
v 0.568798 0.973181 -0.530403
v 0.543442 0.973181 -0.555758
v 0.551997 -0.902346 -0.557029
v 0.578026 -0.902346 -0.530999
v 0.472240 0.973181 -0.484555
v 0.497596 0.973181 -0.459201
v 0.504954 -0.902346 -0.457927
v 0.478923 -0.902346 -0.483955
v 0.497606 0.973181 -0.555750
v 0.472248 0.973181 -0.530393
v 0.478926 -0.902346 -0.531001
v 0.504951 -0.902346 -0.557026
vn -0.8756 -0.3416 -0.3416
vn -0.8756 -0.3416 0.3416
vn -0.8756 0.3416 0.3416
vn -0.8756 0.3416 -0.3416
vn 0.3416 -0.3416 -0.8756
vn -0.3416 -0.3416 -0.8756
vn -0.3416 0.3416 -0.8756
vn 0.3416 0.3416 -0.8756
vn -0.3416 0.8756 0.3416
vn 0.3416 0.8756 0.3416
vn 0.3416 0.8756 -0.3416
vn -0.3416 0.8756 -0.3416
vn 0.8756 -0.3416 0.3416
vn 0.8756 -0.3416 -0.3416
vn 0.8756 0.3416 -0.3416
vn 0.8756 0.3416 0.3416
vn -0.3416 -0.8756 0.3416
vn -0.3416 -0.8756 -0.3416
vn 0.3416 -0.8756 -0.3416
vn 0.3416 -0.8756 0.3416
vn -0.3416 -0.3416 0.8756
vn 0.3416 -0.3416 0.8756
vn 0.3416 0.3416 0.8756
vn -0.3416 0.3416 0.8756
vn 0.9325 -0.0186 -0.3608
vn 0.9891 -0.1028 -0.1058
vn 0.8966 0.3139 0.3123
vn 0.9081 -0.0182 0.4184
vn -0.3903 -0.0167 -0.9205
vn -0.4560 -0.0169 -0.8898
vn 0.4560 -0.0169 -0.8898
vn 0.3903 -0.0167 -0.9205
vn -0.9891 -0.1028 -0.1059
vn -0.8966 0.3140 0.3123
vn -0.9079 0.4186 -0.0219
vn -0.9328 -0.3598 -0.0224
vn 0.3604 -0.0163 0.9327
vn 0.2779 -0.0160 0.9605
vn -0.2778 -0.0160 0.9605
vn -0.3604 -0.0163 0.9327
vn -0.9081 -0.0182 0.4184
vn -0.9324 -0.0186 -0.3608
vn -0.0000 -1.0000 -0.0028
vn 0.0001 -0.0018 -1.0000
vn 0.4568 -0.8893 -0.0201
vn 0.3904 -0.9204 -0.0199
vn 0.9328 -0.3597 -0.0224
vn 0.9079 0.4186 -0.0219
vn -0.4567 -0.8894 -0.0201
vn -0.3904 -0.9204 -0.0199
vn -0.2781 0.9604 -0.0188
vn -0.3609 0.9324 -0.0191
vn 0.2781 0.9604 -0.0188
vn 0.3610 0.9324 -0.0191
vn 0.8966 0.3139 0.3124
vn 0.9080 -0.0182 0.4185
vn -0.4561 -0.0169 -0.8898
vn -0.9891 -0.1028 -0.1058
vn -0.8966 0.3139 0.3123
vn -0.9079 0.4185 -0.0219
vn -0.9328 -0.3597 -0.0224
vn 0.3603 -0.0163 0.9327
vn 0.2778 -0.0160 0.9605
vn -0.3603 -0.0163 0.9327
vn -0.9325 -0.0186 -0.3607
vn -0.0001 -0.0018 -1.0000
vn -0.4568 -0.8893 -0.0201
vn -0.2782 0.9603 -0.0188
vn -0.3610 0.9324 -0.0191
vn 0.3609 0.9324 -0.0191
vn -0.9326 -0.0270 -0.3598
vn -0.9144 0.0364 0.4031
vn -0.9312 0.0680 0.3580
vn -0.9137 -0.0591 -0.4022
vn -0.9225 -0.0039 0.3860
vn -0.3811 -0.0039 0.9245
vn -0.3733 0.0781 0.9244
vn -0.3917 -0.0746 -0.9171
vn -0.3839 -0.0038 -0.9234
vn -0.9251 -0.0039 -0.3798
vn 0.9326 -0.0270 -0.3599
vn 0.9251 -0.0039 -0.3798
vn 0.3838 -0.0038 -0.9234
vn 0.3917 -0.0746 -0.9171
vn -0.0000 -1.0000 -0.0000
vn 0.3810 -0.0039 0.9246
vn 0.3733 0.0781 0.9244
vn 0.9144 0.0364 0.4031
vn 0.9225 -0.0039 0.3860
vn -0.0000 0.9995 -0.0317
vn -0.3717 -0.1451 -0.9169
vn 0.3717 -0.1451 -0.9169
vn 0.9136 -0.0591 -0.4022
vn 0.9312 0.0680 0.3580
vn -0.3880 0.1599 0.9077
vn 0.3880 0.1599 0.9077
vn 0.9326 -0.0270 -0.3598
vn -0.3916 -0.0746 -0.9171
vn -0.3838 -0.0038 -0.9234
vn -0.9326 -0.0270 -0.3599
vn 0.3916 -0.0746 -0.9171
vn 0.3810 -0.0039 0.9245
vn -0.9312 0.0680 0.3581
vn -0.9136 -0.0591 -0.4023
vn -0.3717 -0.1451 -0.9170
vn 0.3717 -0.1451 -0.9170
vn -0.0000 1.0000 -0.0000
vn 1.0000 -0.0000 -0.0000
vn -0.0000 -0.0000 -1.0000
vn -1.0000 -0.0000 -0.0000
vn -0.0000 -0.0000 1.0000
vn -0.0000 -0.1580 -0.9874
vn -0.0000 0.1579 0.9874
vn -0.0830 0.9840 -0.1574
vn -0.1654 0.9738 -0.1558
vn -1.0000 0.0001 0.0001
vn 0.0668 -0.9852 0.1576
vn 0.1333 -0.9786 0.1566
vn -0.1333 -0.9786 0.1566
vn -0.0668 -0.9852 0.1576
vn 0.1654 0.9738 -0.1558
vn 0.0830 0.9840 -0.1574
vn 0.0067 -0.3834 0.9235
vn 0.0067 -0.3818 0.9242
vn 0.0040 0.3833 0.9236
vn 0.0040 0.3820 0.9242
vn 0.0086 -0.9240 -0.3824
vn 0.0086 -0.9238 -0.3829
vn 0.0087 -0.9237 0.3829
vn 0.0087 -0.9239 0.3825
vn 0.0021 0.9237 0.3831
vn 0.0021 0.9240 0.3823
vn 0.0021 0.9240 -0.3823
vn 0.0021 0.9237 -0.3830
vn 0.0040 0.3820 -0.9241
vn 0.0040 0.3834 -0.9236
vn 0.0067 -0.3819 -0.9242
vn 0.0067 -0.3835 -0.9235
vn -0.3836 -0.0009 0.9235
vn -0.3818 -0.0009 0.9242
vn 0.3836 0.0024 0.9235
vn 0.3818 0.0024 0.9243
vn -0.9240 -0.0032 -0.3823
vn -0.9237 -0.0032 -0.3830
vn -0.9237 -0.0032 0.3831
vn -0.9240 -0.0032 0.3823
vn 0.9237 0.0047 0.3830
vn 0.9240 0.0047 0.3823
vn 0.9240 0.0047 -0.3823
vn 0.9237 0.0047 -0.3830
vn 0.3818 0.0024 -0.9242
vn 0.3836 0.0024 -0.9235
vn -0.3818 -0.0009 -0.9242
vn -0.3835 -0.0009 -0.9235
vn -0.9240 -0.0032 -0.3824
vn -0.9237 -0.0032 -0.3831
vn -0.9237 -0.0032 0.3830
vn 0.3817 0.0024 -0.9243
vn 0.3835 0.0024 -0.9235
vn -0.3819 -0.0009 -0.9242
vn -0.3836 -0.0009 -0.9235
vt 0.744848 0.950714
vt 0.744848 0.950714
vt 0.744848 0.950714
vt 0.744848 0.950714
vt 0.744848 0.950714
vt 0.744848 0.950714
vt 0.744848 0.950714
vt 0.744848 0.950714
vt 0.744848 0.950714
vt 0.744848 0.950714
vt 0.744848 0.950714
vt 0.744848 0.950714
vt 0.744848 0.950714
vt 0.744848 0.950714
vt 0.744848 0.950714
vt 0.744848 0.950714
vt 0.744848 0.950714
vt 0.744848 0.950714
vt 0.744848 0.950714
vt 0.744848 0.950714
vt 0.744848 0.950714
vt 0.744848 0.950714
vt 0.744848 0.950714
vt 0.744848 0.950714
vt 0.269917 0.859665
vt 0.269917 0.859665
vt 0.269917 0.859665
vt 0.269917 0.859665
vt 0.269917 0.859665
vt 0.269917 0.859665
vt 0.269917 0.859665
vt 0.269917 0.859665
vt 0.269917 0.859665
vt 0.269917 0.859665
vt 0.269917 0.859665
vt 0.269917 0.859665
vt 0.269917 0.859665
vt 0.269917 0.859665
vt 0.269917 0.859665
vt 0.269917 0.859665
vt 0.269917 0.859665
vt 0.269917 0.859665
vt 0.269917 0.859665
vt 0.269917 0.859665
vt 0.269917 0.859665
vt 0.269917 0.859665
vt 0.269917 0.859665
vt 0.269917 0.859665
vt 0.269917 0.859665
vt 0.269917 0.859665
vt 0.269917 0.859665
vt 0.269917 0.859665
vt 0.269917 0.859665
vt 0.269917 0.859665
vt 0.269917 0.859665
vt 0.269917 0.859665
vt 0.269917 0.859665
vt 0.269917 0.859665
vt 0.269917 0.859665
vt 0.269917 0.859665
vt 0.269917 0.859665
vt 0.269917 0.859665
vt 0.269917 0.859665
vt 0.269917 0.859665
vt 0.269917 0.859665
vt 0.269917 0.859665
vt 0.269917 0.859665
vt 0.269917 0.859665
vt 0.269917 0.859665
vt 0.269917 0.859665
vt 0.269917 0.859665
vt 0.269917 0.859665
vt 0.269917 0.859665
vt 0.269917 0.859665
vt 0.269917 0.859665
vt 0.269917 0.859665
vt 0.269917 0.859665
vt 0.269917 0.859665
vt 0.269917 0.859665
vt 0.269917 0.859665
vt 0.269917 0.859665
vt 0.269917 0.859665
vt 0.269917 0.859665
vt 0.269917 0.859665
vt 0.269917 0.859665
vt 0.269917 0.859665
vt 0.269917 0.859665
vt 0.269917 0.859665
vt 0.269917 0.859665
vt 0.269917 0.859665
vt 0.269917 0.859665
vt 0.269917 0.859665
vt 0.269917 0.859665
vt 0.269917 0.859665
vt 0.269917 0.859665
vt 0.269917 0.859665
vt 0.269917 0.859665
vt 0.269917 0.859665
vt 0.269917 0.859665
vt 0.269917 0.859665
vt 0.269917 0.859665
vt 0.269917 0.859665
vt 0.269917 0.859665
vt 0.269917 0.859665
vt 0.269917 0.859665
vt 0.269917 0.859665
vt 0.269917 0.859665
vt 0.269917 0.859665
vt 0.269917 0.859665
vt 0.269917 0.859665
vt 0.269917 0.859665
vt 0.269917 0.859665
vt 0.269917 0.859665
vt 0.269917 0.859665
vt 0.269917 0.859665
vt 0.269917 0.859665
vt 0.269917 0.859665
vt 0.269917 0.859665
vt 0.269917 0.859665
vt 0.269917 0.859665
vt 0.269917 0.859665
vt 0.269917 0.859665
vt 0.269917 0.859665
vt 0.269917 0.859665
vt 0.269917 0.859665
vt 0.269917 0.859665
vt 0.269917 0.859665
vt 0.269917 0.859665
vt 0.269917 0.859665
vt 0.269917 0.859665
vt 0.269917 0.859665
vt 0.269917 0.859665
vt 0.269917 0.859665
vt 0.269917 0.859665
vt 0.269917 0.859665
vt 0.269917 0.859665
vt 0.269917 0.859665
vt 0.269917 0.859665
vt 0.269917 0.859665
vt 0.269917 0.859665
vt 0.269917 0.859665
vt 0.269917 0.859665
vt 0.269917 0.859665
vt 0.269917 0.859665
vt 0.269917 0.859665
vt 0.269917 0.859665
vt 0.269917 0.859665
vt 0.269917 0.859665
vt 0.269917 0.859665
vt 0.269917 0.859665
vt 0.269917 0.859665
vt 0.269917 0.859665
vt 0.269917 0.859665
vt 0.269917 0.859665
vt 0.269917 0.859665
vt 0.269917 0.859665
vt 0.269917 0.859665
vt 0.269917 0.859665
vt 0.269917 0.859665
vt 0.269917 0.859665
vt 0.269917 0.859665
vt 0.269917 0.859665
vt 0.269917 0.859665
vt 0.269917 0.859665
vt 0.269917 0.859665
vt 0.269917 0.859665
vt 0.269917 0.859665
vt 0.269917 0.859665
vt 0.269917 0.859665
vt 0.269917 0.859665
vt 0.269917 0.859665
vt 0.269917 0.859665
vt 0.269917 0.859665
vt 0.269917 0.859665
vt 0.269917 0.859665
vt 0.269917 0.859665
vt 0.269917 0.859665
vt 0.269917 0.859665
vt 0.269917 0.859665
vt 0.269917 0.859665
vt 0.269917 0.859665
vt 0.269917 0.859665
vt 0.269917 0.859665
vt 0.269917 0.859665
vt 0.269917 0.859665
vt 0.269917 0.859665
vt 0.269917 0.859665
vt 0.269917 0.859665
vt 0.269917 0.859665
vt 0.269917 0.859665
vt 0.269917 0.859665
vt 0.269917 0.859665
vt 0.269917 0.859665
vt 0.269917 0.859665
vt 0.269917 0.859665
vt 0.269917 0.859665
vt 0.269917 0.859665
vt 0.269917 0.859665
vt 0.269917 0.859665
vt 0.269917 0.859665
vt 0.269917 0.859665
vt 0.269917 0.859665
vt 0.269917 0.859665
vt 0.269917 0.859665
vt 0.269917 0.859665
vt 0.269917 0.859665
vt 0.269917 0.859665
vt 0.269917 0.859665
vt 0.269917 0.859665
vt 0.269917 0.859665
vt 0.269917 0.859665
vt 0.269917 0.859665
vt 0.269917 0.859665
vt 0.269917 0.859665
vt 0.269917 0.859665
vt 0.269917 0.859665
vt 0.269917 0.859665
vt 0.269917 0.859665
vt 0.269917 0.859665
vt 0.269917 0.859665
vt 0.269917 0.859665
vt 0.269917 0.859665
vt 0.269917 0.859665
vt 0.269917 0.859665
s 1
usemtl Material
f 9/9/1 2/2/2 18/18/3 20/20/4
f 10/10/5 7/7/6 19/19/7 22/22/8
f 17/17/9 15/15/10 23/23/11 21/21/12
f 6/6/13 11/11/14 24/24/15 14/14/16
f 3/3/17 8/8/18 12/12/19 5/5/20
f 1/1/21 2/2/2 3/3/17
f 4/4/22 5/5/20 6/6/13
f 7/7/6 8/8/18 9/9/1
f 10/10/5 11/11/14 12/12/19
f 13/13/23 14/14/16 15/15/10
f 16/16/24 17/17/9 18/18/3
f 19/19/7 20/20/4 21/21/12
f 22/22/8 23/23/11 24/24/15
f 4/4/22 1/1/21 3/3/17 5/5/20
f 7/7/6 10/10/5 12/12/19 8/8/18
f 2/2/2 9/9/1 8/8/18 3/3/17
f 5/5/20 12/12/19 11/11/14 6/6/13
f 15/15/10 17/17/9 16/16/24 13/13/23
f 21/21/12 23/23/11 22/22/8 19/19/7
f 17/17/9 21/21/12 20/20/4 18/18/3
f 14/14/16 24/24/15 23/23/11 15/15/10
f 10/10/5 22/22/8 24/24/15 11/11/14
f 13/13/23 4/4/22 6/6/13 14/14/16
f 9/9/1 20/20/4 19/19/7 7/7/6
f 1/1/21 16/16/24 18/18/3 2/2/2
f 1/1/21 4/4/22 13/13/23 16/16/24
f 34/34/25 35/35/26 28/28/27 25/25/28
f 38/38/29 39/39/30 36/36/31 33/33/32
f 40/40/33 31/31/34 44/44/35 45/45/36
f 26/26/37 27/27/38 32/32/39 29/29/40
f 30/30/41 31/31/34 40/40/33 37/37/42
f 25/25/28 28/28/27 27/27/38 26/26/37
f 31/31/34 30/30/41 29/29/40 32/32/39
f 39/39/30 38/38/29 37/37/42 40/40/33
f 35/35/26 34/34/25 33/33/32 36/36/31
f 29/29/43 30/30/43 37/37/43 38/38/43 33/33/43 34/34/43 25/25/43 26/26/43
f 46/46/44 45/45/44 44/44/44 43/43/44 42/42/44 41/41/44 48/48/44 47/47/44
f 35/35/26 36/36/45 47/47/46 48/48/47
f 28/28/27 35/35/26 48/48/47 41/41/48
f 39/39/49 40/40/33 45/45/36 46/46/50
f 31/31/34 32/32/51 43/43/52 44/44/35
f 27/27/53 28/28/27 41/41/48 42/42/54
f 36/36/45 39/39/49 46/46/50 47/47/46
f 32/32/51 27/27/53 42/42/54 43/43/52
f 58/58/25 59/59/26 52/52/55 49/49/56
f 62/62/29 63/63/57 60/60/31 57/57/32
f 64/64/58 55/55/59 68/68/60 69/69/61
f 50/50/62 51/51/63 56/56/39 53/53/64
f 54/54/41 55/55/59 64/64/58 61/61/65
f 49/49/56 52/52/55 51/51/63 50/50/62
f 55/55/59 54/54/41 53/53/64 56/56/39
f 63/63/57 62/62/29 61/61/65 64/64/58
f 59/59/26 58/58/25 57/57/32 60/60/31
f 53/53/43 54/54/43 61/61/43 62/62/43 57/57/43 58/58/43 49/49/43 50/50/43
f 70/70/66 69/69/66 68/68/66 67/67/66 66/66/66 65/65/66 72/72/66 71/71/66
f 59/59/26 60/60/45 71/71/46 72/72/47
f 52/52/55 59/59/26 72/72/47 65/65/48
f 63/63/67 64/64/58 69/69/61 70/70/50
f 55/55/59 56/56/68 67/67/69 68/68/60
f 51/51/53 52/52/55 65/65/48 66/66/70
f 60/60/45 63/63/67 70/70/50 71/71/46
f 56/56/68 51/51/53 66/66/70 67/67/69
f 86/86/71 83/83/72 91/91/73 94/94/74
f 83/83/72 76/76/75 75/75/76 84/84/77
f 85/85/78 80/80/79 79/79/80 86/86/71
f 87/87/81 78/78/82 77/77/83 88/88/84
f 75/75/85 76/76/85 79/79/85 80/80/85 77/77/85 78/78/85 73/73/85 74/74/85
f 80/80/79 85/85/78 88/88/84 77/77/83
f 76/76/75 83/83/72 86/86/71 79/79/80
f 74/74/86 82/82/87 84/84/77 75/75/76
f 78/78/82 87/87/81 81/81/88 73/73/89
f 73/73/89 81/81/88 82/82/87 74/74/86
f 92/92/90 90/90/90 89/89/90 95/95/90 96/96/90 93/93/90 94/94/90 91/91/90
f 88/88/84 85/85/78 93/93/91 96/96/92
f 81/81/88 87/87/81 95/95/93 89/89/94
f 83/83/72 84/84/77 92/92/95 91/91/73
f 85/85/78 86/86/71 94/94/74 93/93/91
f 87/87/81 88/88/84 96/96/92 95/95/93
f 82/82/87 81/81/88 89/89/94 90/90/96
f 84/84/77 82/82/87 90/90/96 92/92/95
f 105/105/88 111/111/97 119/119/93 113/113/94
f 107/107/72 100/100/75 99/99/76 108/108/77
f 109/109/98 104/104/99 103/103/80 110/110/100
f 111/111/97 102/102/82 101/101/83 112/112/101
f 99/99/85 100/100/85 103/103/85 104/104/85 101/101/85 102/102/85 97/97/85 98/98/85
f 104/104/99 109/109/98 112/112/101 101/101/83
f 100/100/75 107/107/72 110/110/100 103/103/80
f 98/98/102 106/106/87 108/108/77 99/99/76
f 102/102/82 111/111/97 105/105/88 97/97/89
f 97/97/89 105/105/88 106/106/87 98/98/102
f 116/116/90 114/114/90 113/113/90 119/119/90 120/120/90 117/117/90 118/118/90 115/115/90
f 107/107/72 108/108/77 116/116/95 115/115/103
f 109/109/98 110/110/100 118/118/104 117/117/105
f 111/111/97 112/112/101 120/120/106 119/119/93
f 106/106/87 105/105/88 113/113/94 114/114/96
f 108/108/77 106/106/87 114/114/96 116/116/95
f 110/110/100 107/107/72 115/115/103 118/118/104
f 112/112/101 109/109/98 117/117/105 120/120/106
f 121/121/85 123/123/85 124/124/85 122/122/85
f 126/126/107 125/125/107 128/128/107 127/127/107
f 122/122/108 124/124/108 128/128/108 125/125/108
f 124/124/109 123/123/109 127/127/109 128/128/109
f 123/123/110 121/121/110 126/126/110 127/127/110
f 121/121/111 122/122/111 125/125/111 126/126/111
f 137/137/112 140/140/112 132/132/112 130/130/112
f 141/141/113 133/133/113 136/136/113 144/144/113
f 130/130/108 132/132/108 136/136/108 133/133/108
f 139/139/114 131/131/115 135/135/115 143/143/114
f 131/131/116 129/129/116 134/134/116 135/135/116
f 137/137/117 130/130/118 133/133/118 141/141/117
f 129/129/119 138/138/120 142/142/120 134/134/119
f 138/138/120 137/137/117 141/141/117 142/142/120
f 132/132/121 140/140/122 144/144/122 136/136/121
f 140/140/122 139/139/114 143/143/114 144/144/122
f 134/134/113 142/142/113 143/143/113 135/135/113
f 142/142/113 141/141/113 144/144/113 143/143/113
f 129/129/112 131/131/112 139/139/112 138/138/112
f 138/138/112 139/139/112 140/140/112 137/137/112
f 154/154/123 155/155/124 148/148/125 145/145/126
f 158/158/127 159/159/128 156/156/129 153/153/130
f 159/159/108 160/160/108 151/151/108 152/152/108 147/147/108 148/148/108 155/155/108 156/156/108
f 146/146/131 147/147/132 152/152/133 149/149/134
f 150/150/135 151/151/136 160/160/137 157/157/138
f 145/145/126 148/148/125 147/147/132 146/146/131
f 151/151/136 150/150/135 149/149/134 152/152/133
f 159/159/128 158/158/127 157/157/138 160/160/137
f 155/155/124 154/154/123 153/153/130 156/156/129
f 149/149/110 150/150/110 157/157/110 158/158/110 153/153/110 154/154/110 145/145/110 146/146/110
f 170/170/123 171/171/124 164/164/125 161/161/126
f 174/174/127 175/175/128 172/172/129 169/169/130
f 175/175/108 176/176/108 167/167/108 168/168/108 163/163/108 164/164/108 171/171/108 172/172/108
f 162/162/131 163/163/132 168/168/133 165/165/134
f 166/166/135 167/167/136 176/176/137 173/173/138
f 161/161/126 164/164/125 163/163/132 162/162/131
f 167/167/136 166/166/135 165/165/134 168/168/133
f 175/175/128 174/174/127 173/173/138 176/176/137
f 171/171/124 170/170/123 169/169/130 172/172/129
f 165/165/110 166/166/110 173/173/110 174/174/110 169/169/110 170/170/110 161/161/110 162/162/110
f 186/186/139 187/187/140 180/180/141 177/177/142
f 190/190/143 191/191/144 188/188/145 185/185/146
f 191/191/85 192/192/85 183/183/85 184/184/85 179/179/85 180/180/85 187/187/85 188/188/85
f 178/178/147 179/179/148 184/184/149 181/181/150
f 182/182/151 183/183/152 192/192/153 189/189/154
f 177/177/142 180/180/141 179/179/148 178/178/147
f 183/183/152 182/182/151 181/181/150 184/184/149
f 191/191/144 190/190/143 189/189/154 192/192/153
f 187/187/140 186/186/139 185/185/146 188/188/145
f 181/181/107 182/182/107 189/189/107 190/190/107 185/185/107 186/186/107 177/177/107 178/178/107
f 202/202/139 203/203/140 196/196/141 193/193/142
f 206/206/143 207/207/144 204/204/145 201/201/146
f 207/207/85 208/208/85 199/199/85 200/200/85 195/195/85 196/196/85 203/203/85 204/204/85
f 194/194/147 195/195/148 200/200/149 197/197/150
f 198/198/151 199/199/152 208/208/153 205/205/154
f 193/193/142 196/196/141 195/195/148 194/194/147
f 199/199/152 198/198/151 197/197/150 200/200/149
f 207/207/144 206/206/143 205/205/154 208/208/153
f 203/203/140 202/202/139 201/201/146 204/204/145
f 197/197/107 198/198/107 205/205/107 206/206/107 201/201/107 202/202/107 193/193/107 194/194/107
f 218/218/139 219/219/140 212/212/141 209/209/142
f 222/222/155 223/223/156 220/220/157 217/217/146
f 223/223/85 224/224/85 215/215/85 216/216/85 211/211/85 212/212/85 219/219/85 220/220/85
f 210/210/147 211/211/148 216/216/149 213/213/150
f 214/214/158 215/215/159 224/224/160 221/221/161
f 209/209/142 212/212/141 211/211/148 210/210/147
f 215/215/159 214/214/158 213/213/150 216/216/149
f 223/223/156 222/222/155 221/221/161 224/224/160
f 219/219/140 218/218/139 217/217/146 220/220/157
f 213/213/107 214/214/107 221/221/107 222/222/107 217/217/107 218/218/107 209/209/107 210/210/107
