# Blender 3.4.1
# www.blender.org
mtllib chair015.mtl
o chair.015
v -1.140457 -0.432915 1.807334
v -1.214785 -0.432915 1.733009
v -1.140456 -0.507231 1.733020
v 1.112822 -0.432915 1.807328
v 1.112823 -0.507231 1.733014
v 1.187139 -0.432915 1.733010
v -1.140468 -0.432915 -0.551476
v -1.140455 -0.507231 -0.477148
v -1.214785 -0.432915 -0.477158
v 1.112824 -0.432915 -0.551469
v 1.187139 -0.432915 -0.477157
v 1.112823 -0.507231 -0.477154
v 1.112822 -0.179271 1.807328
v 1.187139 -0.179271 1.733010
v 1.112823 -0.104955 1.733014
v -1.140457 -0.179271 1.807334
v -1.140456 -0.104955 1.733020
v -1.214785 -0.179271 1.733009
v -1.140468 -0.179271 -0.551476
v -1.214785 -0.179271 -0.477158
v -1.140455 -0.104955 -0.477148
v 1.112824 -0.179271 -0.551469
v 1.112823 -0.104955 -0.477154
v 1.187139 -0.179271 -0.477157
v -1.112868 -0.751512 1.716681
v 1.119852 -0.751512 1.716678
v -1.112866 -0.751512 -0.633807
v 1.119854 -0.751512 -0.633809
v 1.119852 -0.485852 1.716678
v -1.112868 -0.485853 1.716681
v -1.112866 -0.485853 -0.633807
v 1.119854 -0.485852 -0.633809
v 0.934078 -2.411472 1.961498
v 1.132901 -2.411472 1.961500
v 0.934077 -2.411472 1.773329
v 1.132901 -2.411472 1.773329
v 1.132894 -0.462301 1.760929
v 0.934070 -0.462301 1.760927
v 0.934069 -0.462301 1.572758
v 1.132894 -0.462301 1.572759
v 0.934076 -2.411472 -0.771018
v 1.132905 -2.411472 -0.771022
v 0.934076 -2.411472 -0.959189
v 1.132904 -2.411472 -0.959191
v 1.132911 0.927741 -0.350045
v 0.934082 0.927741 -0.350041
v 0.934081 0.927741 -0.538211
v 1.132910 0.927741 -0.538214
v -1.123390 -2.411472 -0.771019
v -0.924562 -2.411472 -0.771023
v -1.123391 -2.411472 -0.959189
v -0.924563 -2.411472 -0.959192
v -0.924561 0.927741 -0.350040
v -1.123385 0.927741 -0.350042
v -1.123385 0.927741 -0.538212
v -0.924562 0.927741 -0.538210
v 1.132897 1.145946 -0.361117
v 0.934074 1.145946 -0.361119
v 0.934077 1.145946 -0.728535
v 1.132901 1.145946 -0.728533
v -0.924569 1.145946 -0.361118
v -1.123393 1.145946 -0.361120
v -1.123390 1.145946 -0.728536
v -0.924566 1.145946 -0.728534
v 0.934077 1.336816 -0.728535
v 1.132901 1.336816 -0.728533
v -1.123390 1.336816 -0.728536
v -0.924566 1.336816 -0.728534
v 0.934078 1.145946 -1.144960
v 1.132902 1.145946 -1.144960
v -1.123389 1.145946 -1.144961
v -0.924565 1.145946 -1.144960
v 0.934078 1.475946 -1.144960
v 1.132902 1.475946 -1.144960
v -1.123389 1.475946 -1.144961
v -0.924565 1.475946 -1.144960
v 0.934073 1.145946 -1.280203
v -0.924570 1.145946 -1.280202
v 0.934073 1.475946 -1.280203
v -0.924570 1.475946 -1.280202
v 1.041480 1.145946 -1.280200
v 1.132893 1.145946 -1.188783
v -1.123384 1.145946 -1.188771
v -1.031976 1.145946 -1.280206
v 1.132893 1.475946 -1.188783
v 1.041480 1.475946 -1.280200
v -1.031976 1.475946 -1.280206
v -1.123384 1.475946 -1.188771
v 1.132897 1.215316 -0.361117
v 0.934074 1.215316 -0.361119
v -0.924569 1.215316 -0.361118
v -1.123393 1.215316 -0.361120
v -1.134668 -2.411472 1.961501
v -0.935844 -2.411472 1.961502
v -1.134668 -2.411472 1.773331
v -0.935845 -2.411472 1.773333
v -0.935851 -0.462301 1.760931
v -1.134675 -0.462301 1.760930
v -1.134676 -0.462301 1.572760
v -0.935852 -0.462301 1.572762
v -0.949007 0.062258 -0.508127
v 0.966657 0.062258 -0.508126
v -0.948994 0.062258 -0.607404
v 0.966671 0.062258 -0.607404
v 0.966662 0.327918 -0.474683
v -0.949004 0.327918 -0.474683
v -0.949004 0.327918 -0.573974
v 0.966661 0.327918 -0.573973
vn -0.8756 -0.3416 -0.3416
vn -0.8756 -0.3416 0.3416
vn -0.8756 0.3416 0.3416
vn -0.8756 0.3416 -0.3416
vn 0.3416 -0.3416 -0.8756
vn -0.3416 -0.3416 -0.8756
vn -0.3416 0.3416 -0.8756
vn 0.3416 0.3416 -0.8756
vn -0.3416 0.8756 0.3416
vn 0.3416 0.8756 0.3416
vn 0.3416 0.8756 -0.3416
vn -0.3415 0.8756 -0.3416
vn 0.8756 -0.3416 0.3416
vn 0.8756 -0.3416 -0.3416
vn 0.8756 0.3416 -0.3416
vn 0.8756 0.3416 0.3416
vn -0.3416 -0.8756 0.3416
vn -0.3415 -0.8756 -0.3416
vn 0.3416 -0.8756 -0.3416
vn 0.3416 -0.8756 0.3416
vn -0.3416 -0.3416 0.8756
vn 0.3416 -0.3416 0.8756
vn 0.3416 0.3416 0.8756
vn -0.3416 0.3416 0.8756
vn -0.0000 -1.0000 -0.0000
vn -0.0000 1.0000 -0.0000
vn 1.0000 -0.0000 -0.0000
vn -0.0000 -0.0000 -1.0000
vn -1.0000 -0.0000 -0.0000
vn -0.0000 -0.0000 1.0000
vn -0.0000 -0.1024 -0.9947
vn -0.0000 0.1024 0.9947
vn -0.0000 -0.2916 -0.9565
vn -0.0000 -0.9103 -0.4139
vn -0.0000 0.1251 -0.9921
vn -0.0000 -0.1251 0.9921
vn -0.0000 -0.0373 0.9993
vn 1.0000 -0.0000 -0.0001
vn -0.0000 0.0254 0.9997
vn -0.0000 0.9494 0.3140
vn -0.0000 0.9490 0.3154
vn -0.0000 0.9943 0.1069
vn -0.0000 0.9870 0.1605
vn -1.0000 -0.0000 -0.0001
vn -0.9239 -0.0000 -0.3827
vn 0.9238 -0.0000 -0.3828
vn -0.3827 -0.0000 -0.9239
vn 0.3827 -0.0000 -0.9239
vn 1.0000 -0.0000 0.0001
vn -0.0000 0.1249 -0.9922
vn -0.0000 -0.1249 0.9922
vt 0.063211 0.461018
vt 0.063211 0.461018
vt 0.063211 0.461018
vt 0.063211 0.461018
vt 0.063211 0.461018
vt 0.063211 0.461018
vt 0.063211 0.461018
vt 0.063211 0.461018
vt 0.063211 0.461018
vt 0.063211 0.461018
vt 0.063211 0.461018
vt 0.063211 0.461018
vt 0.063211 0.461018
vt 0.063211 0.461018
vt 0.063211 0.461018
vt 0.063211 0.461018
vt 0.063211 0.461018
vt 0.063211 0.461018
vt 0.063211 0.461018
vt 0.063211 0.461018
vt 0.063211 0.461018
vt 0.063211 0.461018
vt 0.063211 0.461018
vt 0.063211 0.461018
vt 0.459397 0.928567
vt 0.459397 0.928567
vt 0.459397 0.928567
vt 0.459397 0.928567
vt 0.459397 0.928567
vt 0.459397 0.928567
vt 0.459397 0.928567
vt 0.459397 0.928567
vt 0.459397 0.928567
vt 0.459397 0.928567
vt 0.459397 0.928567
vt 0.459397 0.928567
vt 0.459397 0.928567
vt 0.459397 0.928567
vt 0.459397 0.928567
vt 0.459397 0.928567
vt 0.459397 0.928567
vt 0.459397 0.928567
vt 0.459397 0.928567
vt 0.459397 0.928567
vt 0.459397 0.928567
vt 0.459397 0.928567
vt 0.459397 0.928567
vt 0.459397 0.928567
vt 0.459397 0.928567
vt 0.459397 0.928567
vt 0.459397 0.928567
vt 0.459397 0.928567
vt 0.459397 0.928567
vt 0.459397 0.928567
vt 0.459397 0.928567
vt 0.459397 0.928567
vt 0.459397 0.928567
vt 0.459397 0.928567
vt 0.459397 0.928567
vt 0.459397 0.928567
vt 0.459397 0.928567
vt 0.459397 0.928567
vt 0.459397 0.928567
vt 0.459397 0.928567
vt 0.459397 0.928567
vt 0.459397 0.928567
vt 0.459397 0.928567
vt 0.459397 0.928567
vt 0.459397 0.928567
vt 0.459397 0.928567
vt 0.459397 0.928567
vt 0.459397 0.928567
vt 0.459397 0.928567
vt 0.459397 0.928567
vt 0.459397 0.928567
vt 0.459397 0.928567
vt 0.459397 0.928567
vt 0.459397 0.928567
vt 0.459397 0.928567
vt 0.459397 0.928567
vt 0.459397 0.928567
vt 0.459397 0.928567
vt 0.459397 0.928567
vt 0.459397 0.928567
vt 0.459397 0.928567
vt 0.459397 0.928567
vt 0.459397 0.928567
vt 0.459397 0.928567
vt 0.459397 0.928567
vt 0.459397 0.928567
vt 0.459397 0.928567
vt 0.459397 0.928567
vt 0.459397 0.928567
vt 0.459397 0.928567
vt 0.459397 0.928567
vt 0.459397 0.928567
vt 0.459397 0.928567
vt 0.459397 0.928567
vt 0.459397 0.928567
vt 0.459397 0.928567
vt 0.459397 0.928567
vt 0.459397 0.928567
vt 0.459397 0.928567
vt 0.459397 0.928567
vt 0.459397 0.928567
vt 0.459397 0.928567
vt 0.459397 0.928567
vt 0.459397 0.928567
s 1
usemtl Material
f 9/9/1 2/2/2 18/18/3 20/20/4
f 10/10/5 7/7/6 19/19/7 22/22/8
f 17/17/9 15/15/10 23/23/11 21/21/12
f 6/6/13 11/11/14 24/24/15 14/14/16
f 3/3/17 8/8/18 12/12/19 5/5/20
f 1/1/21 2/2/2 3/3/17
f 4/4/22 5/5/20 6/6/13
f 7/7/6 8/8/18 9/9/1
f 10/10/5 11/11/14 12/12/19
f 13/13/23 14/14/16 15/15/10
f 16/16/24 17/17/9 18/18/3
f 19/19/7 20/20/4 21/21/12
f 22/22/8 23/23/11 24/24/15
f 4/4/22 1/1/21 3/3/17 5/5/20
f 7/7/6 10/10/5 12/12/19 8/8/18
f 2/2/2 9/9/1 8/8/18 3/3/17
f 5/5/20 12/12/19 11/11/14 6/6/13
f 15/15/10 17/17/9 16/16/24 13/13/23
f 21/21/12 23/23/11 22/22/8 19/19/7
f 17/17/9 21/21/12 20/20/4 18/18/3
f 14/14/16 24/24/15 23/23/11 15/15/10
f 10/10/5 22/22/8 24/24/15 11/11/14
f 13/13/23 4/4/22 6/6/13 14/14/16
f 9/9/1 20/20/4 19/19/7 7/7/6
f 1/1/21 16/16/24 18/18/3 2/2/2
f 1/1/21 4/4/22 13/13/23 16/16/24
f 25/25/25 27/27/25 28/28/25 26/26/25
f 30/30/26 29/29/26 32/32/26 31/31/26
f 26/26/27 28/28/27 32/32/27 29/29/27
f 28/28/28 27/27/28 31/31/28 32/32/28
f 27/27/29 25/25/29 30/30/29 31/31/29
f 25/25/30 26/26/30 29/29/30 30/30/30
f 33/33/25 35/35/25 36/36/25 34/34/25
f 38/38/26 37/37/26 40/40/26 39/39/26
f 34/34/27 36/36/27 40/40/27 37/37/27
f 36/36/31 35/35/31 39/39/31 40/40/31
f 35/35/29 33/33/29 38/38/29 39/39/29
f 33/33/32 34/34/32 37/37/32 38/38/32
f 41/41/25 43/43/25 44/44/25 42/42/25
f 56/56/33 55/55/33 63/63/34 64/64/34
f 42/42/27 44/44/27 48/48/27 45/45/27
f 44/44/35 43/43/35 47/47/33 48/48/33
f 43/43/29 41/41/29 46/46/29 47/47/29
f 41/41/36 42/42/36 45/45/37 46/46/37
f 49/49/25 51/51/25 52/52/25 50/50/25
f 53/53/27 56/56/27 64/64/27 61/61/27
f 50/50/27 52/52/27 56/56/27 53/53/27
f 52/52/35 51/51/35 55/55/33 56/56/33
f 51/51/29 49/49/29 54/54/29 55/55/29
f 49/49/36 50/50/36 53/53/37 54/54/37
f 66/66/27 60/60/27 70/70/38 74/74/38
f 63/63/29 62/62/29 92/92/29 67/67/29
f 47/47/29 46/46/29 58/58/29 59/59/29
f 46/46/37 45/45/37 57/57/39 58/58/39
f 55/55/29 54/54/29 62/62/29 63/63/29
f 45/45/27 48/48/27 60/60/27 57/57/27
f 54/54/37 53/53/37 61/61/39 62/62/39
f 48/48/33 47/47/33 59/59/34 60/60/34
f 57/57/27 60/60/27 66/66/27 89/89/27
f 61/61/27 64/64/27 68/68/27 91/91/27
f 59/59/29 58/58/29 90/90/29 65/65/29
f 59/59/29 65/65/29 73/73/29 69/69/29
f 89/89/40 66/66/41 65/65/41 90/90/40
f 62/62/39 61/61/39 91/91/30 92/92/30
f 79/79/28 77/77/28 78/78/28 80/80/28
f 72/72/25 71/71/25 83/83/25 84/84/25 78/78/25
f 64/64/34 63/63/34 71/71/25 72/72/25
f 60/60/34 59/59/34 69/69/25 70/70/25
f 67/67/41 68/68/41 76/76/42 75/75/43
f 65/65/41 66/66/41 74/74/43 73/73/42
f 63/63/29 67/67/29 75/75/44 71/71/29
f 68/68/27 64/64/27 72/72/27 76/76/27
f 71/71/29 75/75/44 88/88/45 83/83/45
f 74/74/38 70/70/38 82/82/46 85/85/46
f 73/73/42 74/74/43 85/85/26 86/86/26 79/79/26
f 78/78/28 84/84/47 87/87/47 80/80/28
f 70/70/25 69/69/25 77/77/25 81/81/25 82/82/25
f 73/73/42 79/79/26 80/80/26 76/76/42
f 75/75/43 76/76/42 80/80/26 87/87/26 88/88/26
f 77/77/25 69/69/25 72/72/25 78/78/25
f 69/69/30 73/73/30 76/76/30 72/72/30
f 83/83/45 88/88/45 87/87/47 84/84/47
f 81/81/48 86/86/48 85/85/46 82/82/46
f 81/81/48 77/77/28 79/79/28 86/86/48
f 91/91/40 68/68/41 67/67/41 92/92/40
f 58/58/39 57/57/39 89/89/30 90/90/30
f 93/93/25 95/95/25 96/96/25 94/94/25
f 98/98/26 97/97/26 100/100/26 99/99/26
f 94/94/27 96/96/27 100/100/27 97/97/27
f 96/96/31 95/95/31 99/99/31 100/100/31
f 95/95/29 93/93/29 98/98/29 99/99/29
f 93/93/32 94/94/32 97/97/32 98/98/32
f 101/101/25 103/103/25 104/104/25 102/102/25
f 106/106/26 105/105/26 108/108/26 107/107/26
f 102/102/49 104/104/49 108/108/49 105/105/49
f 104/104/50 103/103/50 107/107/50 108/108/50
f 103/103/44 101/101/44 106/106/44 107/107/44
f 101/101/51 102/102/51 105/105/51 106/106/51
