# Blender 3.4.1
# www.blender.org
mtllib chair003.mtl
o chair.003
v -1.015939 -0.468601 1.513606
v -1.015941 -0.400138 1.582067
v -1.084401 -0.400138 1.513608
v -1.015941 -0.153869 1.582067
v -1.015939 -0.085406 1.513606
v -1.084401 -0.153869 1.513608
v -1.015932 -0.468601 -0.519781
v -1.084394 -0.400138 -0.519779
v -1.015930 -0.400138 -0.588242
v -1.015932 -0.085406 -0.519781
v -1.015930 -0.153869 -0.588242
v -1.084394 -0.153869 -0.519779
v 1.017461 -0.468601 1.513613
v 1.085923 -0.400138 1.513611
v 1.017459 -0.400138 1.582074
v 1.017461 -0.085406 1.513613
v 1.017459 -0.153869 1.582074
v 1.085923 -0.153869 1.513611
v 1.017453 -0.468601 -0.519786
v 1.017454 -0.400138 -0.588247
v 1.085914 -0.400138 -0.519787
v 1.017453 -0.085406 -0.519786
v 1.085914 -0.153869 -0.519787
v 1.017454 -0.153869 -0.588247
v -1.015932 -0.380406 -0.918537
v -1.015934 -0.448870 -0.850075
v -1.084395 -0.380406 -0.850074
v -1.015942 -0.448870 -0.644660
v -1.015930 -0.380406 -0.576185
v -1.084404 -0.380406 -0.644658
v -0.829774 2.695112 -0.918547
v -0.885700 2.695112 -0.850079
v -0.829778 2.763575 -0.850084
v -0.829774 2.695112 -0.576193
v -0.829773 2.763575 -0.644655
v -0.885695 2.695112 -0.644650
v 1.017453 -0.380406 -0.918542
v 1.085913 -0.380406 -0.850082
v 1.017451 -0.448870 -0.850080
v 1.017454 -0.380406 -0.576190
v 1.017456 -0.448870 -0.644651
v 1.085918 -0.380406 -0.644653
v 0.831283 2.695112 -0.918547
v 0.831282 2.763575 -0.850085
v 0.887217 2.695112 -0.850077
v 0.831283 2.695112 -0.576193
v 0.887221 2.695112 -0.644646
v 0.831285 2.763575 -0.644655
v -0.497563 2.695112 -0.576193
v -0.165351 2.695112 -0.576193
v 0.166860 2.695112 -0.576193
v 0.499072 2.695112 -0.576193
v 0.610771 -0.380406 -0.576193
v 0.204103 -0.380406 -0.576185
v -0.202579 -0.380406 -0.576190
v -0.609262 -0.380406 -0.576193
v -0.575880 2.601169 -0.476297
v -0.775845 2.601169 -0.476290
v -0.931475 -0.286464 -0.476300
v -0.669246 -0.286464 -0.476288
v 0.777371 2.601169 -0.476290
v 0.577392 2.601169 -0.476297
v 0.670771 -0.286464 -0.476292
v 0.932987 -0.286464 -0.476293
v 0.439090 2.601169 -0.476290
v 0.239054 2.601169 -0.476293
v 0.270181 -0.286464 -0.476292
v 0.532455 -0.286464 -0.476298
v 0.100786 2.601169 -0.476293
v -0.099274 2.601169 -0.476300
v -0.130386 -0.286464 -0.476288
v 0.131912 -0.286464 -0.476292
v -0.237542 2.601169 -0.476300
v -0.437564 2.601169 -0.476290
v -0.530943 -0.286464 -0.476295
v -0.268655 -0.286464 -0.476288
v -0.817043 2.644643 -0.518199
v -0.530979 2.644643 -0.518204
v -0.977349 -0.329938 -0.518199
v -0.627166 -0.329938 -0.518206
v 0.532493 2.644643 -0.518199
v 0.818555 2.644643 -0.518203
v 0.628678 -0.329938 -0.518196
v 0.978863 -0.329938 -0.518204
v 0.195105 2.644643 -0.518203
v 0.481181 2.644643 -0.518192
v 0.227172 -0.329938 -0.518198
v 0.577355 -0.329938 -0.518204
v -0.142282 2.644643 -0.518206
v 0.143796 2.644643 -0.518198
v -0.174335 -0.329938 -0.518198
v 0.175848 -0.329938 -0.518204
v -0.479656 2.644643 -0.518196
v -0.193591 2.644643 -0.518201
v -0.575843 -0.329938 -0.518198
v -0.225658 -0.329938 -0.518206
v -0.865568 -2.178593 1.305915
v -0.912238 -0.459653 1.256557
v -0.774283 -2.178593 1.305910
v -0.727607 -0.459653 1.256564
v -0.865568 -2.178593 1.402454
v -0.912231 -0.459653 1.451815
v -0.727612 -0.459653 1.451807
v -0.774283 -2.178593 1.402449
v 0.780705 -2.178593 1.305918
v 0.734034 -0.459653 1.256563
v 0.871989 -2.178593 1.305915
v 0.918665 -0.459653 1.256568
v 0.780705 -2.178593 1.402458
v 0.734029 -0.459653 1.451805
v 0.918660 -0.459653 1.451810
v 0.871989 -2.178593 1.402455
v -0.865572 -2.178593 -0.446742
v -0.912231 -0.459653 -0.496084
v -0.774276 -2.178593 -0.446732
v -0.727612 -0.459653 -0.496092
v -0.865572 -2.178593 -0.350202
v -0.912236 -0.459653 -0.300841
v -0.727604 -0.459653 -0.300836
v -0.774276 -2.178593 -0.350192
v 0.780700 -2.178593 -0.446738
v 0.734029 -0.459653 -0.496094
v 0.871997 -2.178593 -0.446728
v 0.918660 -0.459653 -0.496089
v 0.780700 -2.178593 -0.350198
v 0.734037 -0.459653 -0.300838
v 0.918655 -0.459653 -0.300846
v 0.871997 -2.178593 -0.350188
v -0.779006 -0.919159 1.283228
v -0.779005 -0.919159 1.422655
v 0.768034 -0.919159 1.283226
v 0.768036 -0.919159 1.422653
v -0.779005 -1.021603 1.422655
v -0.779006 -1.021603 1.283228
v 0.768036 -1.021603 1.422653
v 0.768034 -1.021603 1.283226
v -0.779011 -0.919159 -0.471479
v -0.779010 -0.919159 -0.332052
v 0.768029 -0.919159 -0.471480
v 0.768031 -0.919159 -0.332053
v -0.779010 -1.021603 -0.332052
v -0.779011 -1.021603 -0.471479
v 0.768031 -1.021603 -0.332053
v 0.768029 -1.021603 -0.471480
v -0.779006 -1.132735 1.283228
v -0.779005 -1.132735 1.422655
v 0.768034 -1.132735 1.283226
v 0.768036 -1.132735 1.422653
v -0.779005 -1.235178 1.422655
v -0.779006 -1.235178 1.283228
v 0.768036 -1.235178 1.422653
v 0.768034 -1.235178 1.283226
v -0.779011 -1.132735 -0.471479
v -0.779010 -1.132735 -0.332052
v 0.768029 -1.132735 -0.471480
v 0.768031 -1.132735 -0.332053
v -0.779010 -1.235178 -0.332052
v -0.779011 -1.235178 -0.471479
v 0.768031 -1.235178 -0.332053
v 0.768029 -1.235178 -0.471480
vn 0.3416 -0.3416 0.8756
vn 0.3416 0.3416 0.8756
vn -0.3416 0.3416 0.8756
vn -0.3416 -0.3416 0.8756
vn 0.8756 -0.3416 -0.3416
vn 0.8756 0.3416 -0.3416
vn 0.8756 0.3416 0.3416
vn 0.8756 -0.3416 0.3416
vn 0.3416 0.8756 -0.3416
vn -0.3416 0.8756 -0.3416
vn -0.3416 0.8756 0.3416
vn 0.3416 0.8756 0.3416
vn -0.8756 -0.3416 0.3416
vn -0.8756 0.3416 0.3416
vn -0.8756 0.3416 -0.3416
vn -0.8756 -0.3416 -0.3416
vn -0.3416 -0.3416 -0.8756
vn -0.3416 0.3416 -0.8756
vn 0.3416 0.3416 -0.8756
vn 0.3416 -0.3416 -0.8756
vn -0.3416 -0.8756 0.3416
vn -0.3416 -0.8756 -0.3416
vn 0.3416 -0.8756 0.3416
vn 0.3416 -0.8756 -0.3416
vn 0.8866 0.3351 -0.3188
vn 0.8866 0.3351 0.3188
vn 0.8913 -0.3119 0.3292
vn 0.8913 -0.3119 -0.3292
vn -0.8913 -0.3119 -0.3292
vn -0.8913 -0.3119 0.3292
vn -0.8866 0.3351 0.3188
vn -0.8866 0.3351 -0.3188
vn -0.3819 0.8610 -0.3359
vn -0.3819 0.8610 0.3359
vn 0.3819 0.8610 0.3359
vn 0.3819 0.8610 -0.3359
vn -0.3632 -0.3315 -0.8707
vn -0.4973 -0.4590 0.7362
vn -0.3592 0.3450 -0.8671
vn -0.4704 0.5127 0.7183
vn 0.3632 -0.3315 -0.8707
vn 0.4973 -0.4590 0.7362
vn 0.3592 0.3450 -0.8671
vn 0.4703 0.5127 0.7183
vn -0.0000 0.7285 0.6851
vn -0.0000 -0.7285 0.6851
vn 0.2960 0.2865 0.9112
vn -0.2876 0.3035 0.9084
vn -0.2977 -0.2821 0.9120
vn 0.2899 -0.2994 0.9090
vn -0.0000 0.7333 0.6799
vn -0.0000 0.7357 0.6773
vn -0.8622 0.0487 0.5043
vn -0.8606 0.0486 0.5070
vn -0.0000 -0.7339 0.6792
vn -0.0000 -0.7361 0.6768
vn 0.9140 -0.0314 0.4045
vn 0.8625 -0.0292 0.5051
vn 0.8616 -0.0292 0.5067
vn 0.2877 0.3035 0.9084
vn -0.2959 0.2865 0.9112
vn -0.2898 -0.2994 0.9090
vn 0.2978 -0.2821 0.9120
vn -0.9140 -0.0314 0.4045
vn -0.8616 -0.0292 0.5068
vn -0.8625 -0.0292 0.5052
vn -0.0000 -0.7362 0.6768
vn -0.0000 -0.7340 0.6792
vn 0.8606 0.0486 0.5070
vn 0.8622 0.0487 0.5043
vn 0.2898 0.2994 0.9091
vn -0.2940 0.2909 0.9105
vn -0.2920 -0.2951 0.9097
vn 0.2959 -0.2865 0.9112
vn -0.0000 0.7351 0.6779
vn -0.0000 0.7340 0.6792
vn -0.9144 -0.0105 0.4046
vn -0.8623 -0.0097 0.5063
vn -0.8626 -0.0097 0.5058
vn -0.0000 -0.7356 0.6774
vn -0.0000 -0.7345 0.6786
vn 0.9141 0.0314 0.4043
vn 0.8616 0.0292 0.5067
vn 0.8626 0.0292 0.5051
vn 0.2920 0.2951 0.9097
vn -0.2920 0.2951 0.9097
vn -0.2940 -0.2909 0.9105
vn 0.2940 -0.2909 0.9105
vn -0.0000 0.7346 0.6785
vn -0.9144 0.0105 0.4046
vn -0.8626 0.0097 0.5058
vn -0.8623 0.0097 0.5063
vn -0.0000 -0.7351 0.6779
vn 0.9144 0.0105 0.4046
vn 0.8623 0.0097 0.5064
vn 0.8626 0.0097 0.5058
vn 0.2940 0.2909 0.9105
vn -0.2898 0.2994 0.9091
vn -0.2959 -0.2865 0.9112
vn 0.2920 -0.2951 0.9097
vn -0.9140 0.0314 0.4045
vn -0.8625 0.0292 0.5052
vn -0.8616 0.0292 0.5068
vn -0.0000 -0.7346 0.6785
vn -0.0000 -0.7357 0.6773
vn 0.9144 -0.0105 0.4046
vn 0.8626 -0.0097 0.5058
vn 0.8623 -0.0097 0.5064
vn -0.0000 -0.0287 -0.9996
vn -0.0000 -0.0287 0.9996
vn -0.0000 1.0000 -0.0000
vn 0.9996 -0.0271 -0.0000
vn -0.0000 -1.0000 -0.0000
vn -0.9996 -0.0271 -0.0000
vn -0.0001 -0.0287 0.9996
vn 0.0001 -0.0287 -0.9996
vn -1.0000 -0.0000 -0.0000
vn -0.0000 -0.0000 1.0000
vn 1.0000 -0.0000 -0.0000
vn -0.0000 -0.0000 -1.0000
vt 0.279760 0.923645
vt 0.279760 0.923645
vt 0.279760 0.923645
vt 0.279760 0.923645
vt 0.279760 0.923645
vt 0.279760 0.923645
vt 0.279760 0.923645
vt 0.279760 0.923645
vt 0.279760 0.923645
vt 0.279760 0.923645
vt 0.279760 0.923645
vt 0.279760 0.923645
vt 0.279760 0.923645
vt 0.279760 0.923645
vt 0.279760 0.923645
vt 0.279760 0.923645
vt 0.279760 0.923645
vt 0.279760 0.923645
vt 0.279760 0.923645
vt 0.279760 0.923645
vt 0.279760 0.923645
vt 0.279760 0.923645
vt 0.279760 0.923645
vt 0.279760 0.923645
vt 0.279760 0.923645
vt 0.279760 0.923645
vt 0.279760 0.923645
vt 0.279760 0.923645
vt 0.279760 0.923645
vt 0.279760 0.923645
vt 0.279760 0.923645
vt 0.279760 0.923645
vt 0.279760 0.923645
vt 0.279760 0.923645
vt 0.279760 0.923645
vt 0.279760 0.923645
vt 0.279760 0.923645
vt 0.279760 0.923645
vt 0.279760 0.923645
vt 0.279760 0.923645
vt 0.279760 0.923645
vt 0.279760 0.923645
vt 0.279760 0.923645
vt 0.279760 0.923645
vt 0.279760 0.923645
vt 0.279760 0.923645
vt 0.279760 0.923645
vt 0.279760 0.923645
vt 0.279760 0.923645
vt 0.279760 0.923645
vt 0.279760 0.923645
vt 0.279760 0.923645
vt 0.279760 0.923645
vt 0.279760 0.923645
vt 0.279760 0.923645
vt 0.279760 0.923645
vt 0.279760 0.923645
vt 0.279760 0.923645
vt 0.279760 0.923645
vt 0.279760 0.923645
vt 0.279760 0.923645
vt 0.279760 0.923645
vt 0.279760 0.923645
vt 0.279760 0.923645
vt 0.279760 0.923645
vt 0.279760 0.923645
vt 0.279760 0.923645
vt 0.279760 0.923645
vt 0.279760 0.923645
vt 0.279760 0.923645
vt 0.279760 0.923645
vt 0.279760 0.923645
vt 0.279760 0.923645
vt 0.279760 0.923645
vt 0.279760 0.923645
vt 0.279760 0.923645
vt 0.279760 0.923645
vt 0.279760 0.923645
vt 0.279760 0.923645
vt 0.279760 0.923645
vt 0.279760 0.923645
vt 0.279760 0.923645
vt 0.279760 0.923645
vt 0.279760 0.923645
vt 0.279760 0.923645
vt 0.279760 0.923645
vt 0.279760 0.923645
vt 0.279760 0.923645
vt 0.279760 0.923645
vt 0.279760 0.923645
vt 0.279760 0.923645
vt 0.279760 0.923645
vt 0.279760 0.923645
vt 0.279760 0.923645
vt 0.279760 0.923645
vt 0.279760 0.923645
vt 0.828515 0.099283
vt 0.828515 0.099283
vt 0.828515 0.099283
vt 0.828515 0.099283
vt 0.828515 0.099283
vt 0.828515 0.099283
vt 0.828515 0.099283
vt 0.828515 0.099283
vt 0.828515 0.099283
vt 0.828515 0.099283
vt 0.828515 0.099283
vt 0.828515 0.099283
vt 0.828515 0.099283
vt 0.828515 0.099283
vt 0.828515 0.099283
vt 0.828515 0.099283
vt 0.828515 0.099283
vt 0.828515 0.099283
vt 0.828515 0.099283
vt 0.828515 0.099283
vt 0.828515 0.099283
vt 0.828515 0.099283
vt 0.828515 0.099283
vt 0.828515 0.099283
vt 0.828515 0.099283
vt 0.828515 0.099283
vt 0.828515 0.099283
vt 0.828515 0.099283
vt 0.828515 0.099283
vt 0.828515 0.099283
vt 0.828515 0.099283
vt 0.828515 0.099283
vt 0.828515 0.099283
vt 0.828515 0.099283
vt 0.828515 0.099283
vt 0.828515 0.099283
vt 0.828515 0.099283
vt 0.828515 0.099283
vt 0.828515 0.099283
vt 0.828515 0.099283
vt 0.828515 0.099283
vt 0.828515 0.099283
vt 0.828515 0.099283
vt 0.828515 0.099283
vt 0.828515 0.099283
vt 0.828515 0.099283
vt 0.828515 0.099283
vt 0.828515 0.099283
vt 0.828515 0.099283
vt 0.828515 0.099283
vt 0.828515 0.099283
vt 0.828515 0.099283
vt 0.828515 0.099283
vt 0.828515 0.099283
vt 0.828515 0.099283
vt 0.828515 0.099283
vt 0.828515 0.099283
vt 0.828515 0.099283
vt 0.828515 0.099283
vt 0.828515 0.099283
vt 0.828515 0.099283
vt 0.828515 0.099283
vt 0.828515 0.099283
vt 0.828515 0.099283
s 1
usemtl Material
f 15/15/1 17/17/2 4/4/3 2/2/4
f 21/21/5 23/23/6 18/18/7 14/14/8
f 22/22/9 10/10/10 5/5/11 16/16/12
f 3/3/13 6/6/14 12/12/15 8/8/16
f 9/9/17 11/11/18 24/24/19 20/20/20
f 1/1/21 2/2/4 3/3/13
f 4/4/3 5/5/11 6/6/14
f 7/7/22 8/8/16 9/9/17
f 10/10/10 11/11/18 12/12/15
f 13/13/23 14/14/8 15/15/1
f 16/16/12 17/17/2 18/18/7
f 19/19/24 20/20/20 21/21/5
f 22/22/9 23/23/6 24/24/19
f 7/7/22 1/1/21 3/3/13 8/8/16
f 2/2/4 4/4/3 6/6/14 3/3/13
f 5/5/11 10/10/10 12/12/15 6/6/14
f 11/11/18 9/9/17 8/8/16 12/12/15
f 19/19/24 7/7/22 9/9/17 20/20/20
f 10/10/10 22/22/9 24/24/19 11/11/18
f 23/23/6 21/21/5 20/20/20 24/24/19
f 13/13/23 19/19/24 21/21/5 14/14/8
f 22/22/9 16/16/12 18/18/7 23/23/6
f 17/17/2 15/15/1 14/14/8 18/18/7
f 1/1/21 13/13/23 15/15/1 2/2/4
f 16/16/12 5/5/11 4/4/3 17/17/2
f 7/7/22 19/19/24 13/13/23 1/1/21
f 39/39/24 41/41/23 28/28/21 26/26/22
f 45/45/25 47/47/26 42/42/27 38/38/28
f 27/27/29 30/30/30 36/36/31 32/32/32
f 33/33/33 35/35/34 48/48/35 44/44/36
f 25/25/37 26/26/22 27/27/29
f 28/28/21 29/29/38 30/30/30
f 31/31/39 32/32/32 33/33/33
f 34/34/40 35/35/34 36/36/31
f 37/37/41 38/38/28 39/39/24
f 40/40/42 41/41/23 42/42/27
f 43/43/43 44/44/36 45/45/25
f 46/46/44 47/47/26 48/48/35
f 31/31/39 25/25/37 27/27/29 32/32/32
f 26/26/22 28/28/21 30/30/30 27/27/29
f 29/29/38 34/34/40 36/36/31 30/30/30
f 35/35/34 33/33/33 32/32/32 36/36/31
f 43/43/43 31/31/39 33/33/33 44/44/36
f 34/34/40 49/49/45 50/50/45 51/51/45 52/52/45 46/46/44 48/48/35 35/35/34
f 47/47/26 45/45/25 44/44/36 48/48/35
f 37/37/41 43/43/43 45/45/25 38/38/28
f 46/46/44 40/40/42 42/42/27 47/47/26
f 41/41/23 39/39/24 38/38/28 42/42/27
f 25/25/37 37/37/41 39/39/24 26/26/22
f 40/40/42 53/53/46 54/54/46 55/55/46 56/56/46 29/29/38 28/28/21 41/41/23
f 31/31/39 43/43/43 37/37/41 25/25/37
f 57/57/47 58/58/48 59/59/49 60/60/50
f 34/34/40 77/77/51 78/78/52 49/49/45
f 29/29/38 79/79/53 77/77/54 34/34/40
f 56/56/46 80/80/55 79/79/56 29/29/38
f 49/49/57 78/78/58 80/80/59 56/56/57
f 61/61/60 62/62/61 63/63/62 64/64/63
f 52/52/45 81/81/52 82/82/51 46/46/44
f 53/53/64 83/83/65 81/81/66 52/52/64
f 40/40/42 84/84/67 83/83/68 53/53/46
f 46/46/44 82/82/69 84/84/70 40/40/42
f 65/65/71 66/66/72 67/67/73 68/68/74
f 51/51/45 85/85/75 86/86/76 52/52/45
f 54/54/77 87/87/78 85/85/79 51/51/77
f 53/53/46 88/88/80 87/87/81 54/54/46
f 52/52/82 86/86/83 88/88/84 53/53/82
f 69/69/85 70/70/86 71/71/87 72/72/88
f 50/50/45 89/89/89 90/90/89 51/51/45
f 55/55/90 91/91/91 89/89/92 50/50/90
f 54/54/46 92/92/93 91/91/93 55/55/46
f 51/51/94 90/90/95 92/92/96 54/54/94
f 73/73/97 74/74/98 75/75/99 76/76/100
f 49/49/45 93/93/76 94/94/75 50/50/45
f 56/56/101 95/95/102 93/93/103 49/49/101
f 55/55/46 96/96/104 95/95/105 56/56/46
f 50/50/106 94/94/107 96/96/108 55/55/106
f 58/58/48 57/57/47 78/78/52 77/77/51
f 59/59/49 58/58/48 77/77/54 79/79/53
f 60/60/50 59/59/49 79/79/56 80/80/55
f 57/57/47 60/60/50 80/80/59 78/78/58
f 62/62/61 61/61/60 82/82/51 81/81/52
f 63/63/62 62/62/61 81/81/66 83/83/65
f 64/64/63 63/63/62 83/83/68 84/84/67
f 61/61/60 64/64/63 84/84/70 82/82/69
f 66/66/72 65/65/71 86/86/76 85/85/75
f 67/67/73 66/66/72 85/85/79 87/87/78
f 68/68/74 67/67/73 87/87/81 88/88/80
f 65/65/71 68/68/74 88/88/84 86/86/83
f 70/70/86 69/69/85 90/90/89 89/89/89
f 71/71/87 70/70/86 89/89/92 91/91/91
f 72/72/88 71/71/87 91/91/93 92/92/93
f 69/69/85 72/72/88 92/92/96 90/90/95
f 74/74/98 73/73/97 94/94/75 93/93/76
f 75/75/99 74/74/98 93/93/103 95/95/102
f 76/76/100 75/75/99 95/95/105 96/96/104
f 73/73/97 76/76/100 96/96/108 94/94/107
f 99/99/109 97/97/109 98/98/109 100/100/109
f 104/104/110 103/103/110 102/102/110 101/101/110
f 100/100/111 98/98/111 102/102/111 103/103/111
f 99/99/112 100/100/112 103/103/112 104/104/112
f 97/97/113 99/99/113 104/104/113 101/101/113
f 98/98/114 97/97/114 101/101/114 102/102/114
f 107/107/109 105/105/109 106/106/109 108/108/109
f 112/112/110 111/111/110 110/110/110 109/109/110
f 108/108/111 106/106/111 110/110/111 111/111/111
f 107/107/112 108/108/112 111/111/112 112/112/112
f 105/105/113 107/107/113 112/112/113 109/109/113
f 106/106/114 105/105/114 109/109/114 110/110/114
f 115/115/109 113/113/109 114/114/109 116/116/109
f 120/120/115 119/119/115 118/118/115 117/117/115
f 116/116/111 114/114/111 118/118/111 119/119/111
f 115/115/112 116/116/112 119/119/112 120/120/112
f 113/113/113 115/115/113 120/120/113 117/117/113
f 114/114/114 113/113/114 117/117/114 118/118/114
f 123/123/116 121/121/116 122/122/116 124/124/116
f 128/128/110 127/127/110 126/126/110 125/125/110
f 124/124/111 122/122/111 126/126/111 127/127/111
f 123/123/112 124/124/112 127/127/112 128/128/112
f 121/121/113 123/123/113 128/128/113 125/125/113
f 122/122/114 121/121/114 125/125/114 126/126/114
s 0
f 129/129/111 130/130/111 132/132/111 131/131/111
f 134/134/113 136/136/113 135/135/113 133/133/113
f 129/129/117 134/134/117 133/133/117 130/130/117
f 130/130/118 133/133/118 135/135/118 132/132/118
f 132/132/119 135/135/119 136/136/119 131/131/119
f 131/131/120 136/136/120 134/134/120 129/129/120
f 137/137/111 138/138/111 140/140/111 139/139/111
f 142/142/113 144/144/113 143/143/113 141/141/113
f 137/137/117 142/142/117 141/141/117 138/138/117
f 138/138/118 141/141/118 143/143/118 140/140/118
f 140/140/119 143/143/119 144/144/119 139/139/119
f 139/139/120 144/144/120 142/142/120 137/137/120
f 145/145/111 146/146/111 148/148/111 147/147/111
f 150/150/113 152/152/113 151/151/113 149/149/113
f 145/145/117 150/150/117 149/149/117 146/146/117
f 146/146/118 149/149/118 151/151/118 148/148/118
f 148/148/119 151/151/119 152/152/119 147/147/119
f 147/147/120 152/152/120 150/150/120 145/145/120
f 153/153/111 154/154/111 156/156/111 155/155/111
f 158/158/113 160/160/113 159/159/113 157/157/113
f 153/153/117 158/158/117 157/157/117 154/154/117
f 154/154/118 157/157/118 159/159/118 156/156/118
f 156/156/119 159/159/119 160/160/119 155/155/119
f 155/155/120 160/160/120 158/158/120 153/153/120
