# Blender 3.4.1
# www.blender.org
mtllib chair005.mtl
o chair.005
v -1.197889 -0.076136 1.481385
v -1.272202 -0.076136 1.407072
v -1.197887 -0.150452 1.407070
v 1.199879 -0.076136 1.481389
v 1.199867 -0.150452 1.407060
v 1.274196 -0.076136 1.407072
v -1.197887 -0.076136 -0.869103
v -1.197889 -0.150452 -0.794788
v -1.272204 -0.076136 -0.794786
v 1.199867 -0.076136 -0.869112
v 1.274194 -0.076136 -0.794786
v 1.199879 -0.150452 -0.794784
v 1.199879 0.117662 1.481389
v 1.274196 0.117662 1.407072
v 1.199867 0.191978 1.407060
v -1.197889 0.117661 1.481385
v -1.197887 0.191977 1.407070
v -1.272202 0.117661 1.407072
v -1.197887 0.117661 -0.869103
v -1.272204 0.117661 -0.794786
v -1.197889 0.191977 -0.794788
v 1.199867 0.117662 -0.869112
v 1.199879 0.191978 -0.794784
v 1.274194 0.117662 -0.794786
v -1.183940 -2.245919 1.542154
v -1.230140 -2.245919 1.588354
v -1.226895 1.033936 1.586053
v -1.177458 0.990139 1.542254
v -1.307960 -2.245919 1.588354
v -1.354166 -2.245919 1.542147
v -1.360647 0.990139 1.542262
v -1.311217 1.033936 1.586054
v -1.230145 -2.245919 1.418126
v -1.183940 -2.245919 1.464334
v -1.174609 0.918663 1.470783
v -1.220578 0.870785 1.422909
v -1.354166 -2.245919 1.464327
v -1.307966 -2.245919 1.418128
v -1.317520 0.870785 1.422907
v -1.363501 0.918663 1.470776
v -1.183943 0.990032 -0.881994
v -1.230146 1.036232 -0.881998
v -1.307966 1.036232 -0.881998
v -1.354169 0.990032 -0.882001
v -1.354169 0.912211 -0.882001
v -1.307966 0.866011 -0.881998
v -1.230146 0.866011 -0.881998
v -1.183943 0.912211 -0.881994
v -1.272211 -0.577116 1.563610
v -1.272204 -0.545409 1.531909
v 1.274194 -0.545408 1.531909
v 1.274189 -0.577116 1.563609
v -1.272214 -0.545409 1.474573
v -1.272207 -0.577116 1.442871
v 1.274191 -0.577116 1.442871
v 1.274184 -0.545408 1.474573
v -1.272204 -0.666149 1.531909
v -1.272211 -0.634441 1.563610
v 1.274189 -0.634441 1.563609
v 1.274194 -0.666149 1.531909
v -1.272207 -0.634441 1.442871
v -1.272214 -0.666149 1.474573
v 1.274184 -0.666149 1.474573
v 1.274191 -0.634441 1.442871
v 1.352671 -2.245919 1.542149
v 1.306472 -2.245919 1.588349
v 1.309732 1.033936 1.586059
v 1.359167 0.990139 1.542262
v 1.228652 -2.245919 1.588349
v 1.182459 -2.245919 1.542156
v 1.175965 0.990139 1.542257
v 1.225396 1.033936 1.586048
v 1.306480 -2.245919 1.418135
v 1.352673 -2.245919 1.464328
v 1.362003 0.918663 1.470778
v 1.316034 0.870785 1.422904
v 1.182459 -2.245919 1.464336
v 1.228658 -2.245919 1.418136
v 1.219091 0.870785 1.422902
v 1.173124 0.918663 1.470785
v 1.352670 0.990032 -0.882001
v 1.306480 1.036232 -0.881991
v 1.228658 1.036232 -0.881989
v 1.182456 0.990032 -0.881993
v 1.182456 0.912211 -0.881993
v 1.228658 0.866011 -0.881989
v 1.306480 0.866011 -0.881991
v 1.352670 0.912211 -0.882001
v -1.170345 -2.257864 -0.827564
v -1.224507 -2.257864 -0.773402
v -1.313597 -2.257864 -0.773407
v -1.367761 -2.257864 -0.827571
v -1.224514 -2.257864 -0.970818
v -1.170350 -2.257864 -0.916654
v -1.367752 -2.257864 -0.916648
v -1.313590 -2.257864 -0.970810
v -1.159679 0.987231 -0.822181
v -1.220316 0.989281 -0.762353
v -1.378431 0.987231 -0.822188
v -1.317797 0.989281 -0.762356
v -1.318495 0.981709 -0.981577
v -1.379137 0.984084 -0.920341
v -1.158974 0.984084 -0.920343
v -1.219615 0.981709 -0.981571
v -1.170647 2.655342 -1.081924
v -1.224898 2.657054 -1.028563
v -1.367464 2.655342 -1.081936
v -1.313208 2.657054 -1.028566
v -1.313880 2.651371 -1.225748
v -1.368125 2.652975 -1.171044
v -1.169976 2.652975 -1.171043
v -1.224217 2.651371 -1.225749
v 1.366268 -2.257864 -0.827571
v 1.312104 -2.257864 -0.773407
v 1.223029 -2.257864 -0.773400
v 1.168866 -2.257864 -0.827564
v 1.312111 -2.257864 -0.970809
v 1.366275 -2.257864 -0.916646
v 1.168859 -2.257864 -0.916652
v 1.223021 -2.257864 -0.970814
v 1.376933 0.987231 -0.822186
v 1.316309 0.989281 -0.762344
v 1.158194 0.987231 -0.822179
v 1.218830 0.989281 -0.762349
v 1.218130 0.981709 -0.981569
v 1.157489 0.984084 -0.920334
v 1.377651 0.984084 -0.920334
v 1.316997 0.981709 -0.981575
v 1.365966 2.655342 -1.081930
v 1.311713 2.657054 -1.028567
v 1.169162 2.655342 -1.081929
v 1.223404 2.657054 -1.028571
v 1.222731 2.651371 -1.225752
v 1.168486 2.652975 -1.171049
v 1.366636 2.652975 -1.171047
v 1.312394 2.651371 -1.225754
v -1.272205 -1.287709 -0.811049
v -1.272212 -1.256002 -0.842764
v 1.274186 -1.256002 -0.842764
v 1.274194 -1.287709 -0.811051
v -1.272209 -1.256002 -0.900087
v -1.272202 -1.287709 -0.931788
v 1.274196 -1.287709 -0.931788
v 1.274189 -1.256002 -0.900087
v -1.272212 -1.376742 -0.842764
v -1.272205 -1.345035 -0.811049
v 1.274194 -1.345035 -0.811051
v 1.274186 -1.376742 -0.842764
v -1.272202 -1.345035 -0.931788
v -1.272209 -1.376742 -0.900087
v 1.274189 -1.376742 -0.900087
v 1.274196 -1.345035 -0.931788
v -1.272204 -0.212664 1.481387
v 1.274194 -0.212664 1.481387
v -1.272202 -0.212664 -0.869101
v 1.274196 -0.212664 -0.869101
v 1.274194 -0.141929 1.481387
v -1.272204 -0.141929 1.481387
v -1.272202 -0.141929 -0.869101
v 1.274196 -0.141929 -0.869101
v -1.272204 1.353965 -0.952530
v 1.274196 1.353965 -0.952531
v -1.272207 2.391561 -1.118524
v 1.274191 2.391560 -1.118524
v 1.274189 1.365139 -0.882689
v -1.272209 1.365139 -0.882689
v -1.272214 2.402734 -1.048682
v 1.274184 2.402734 -1.048681
vn -0.8756 -0.3416 -0.3416
vn -0.8756 -0.3416 0.3416
vn -0.8756 0.3416 0.3416
vn -0.8756 0.3416 -0.3416
vn 0.3416 -0.3416 -0.8756
vn -0.3416 -0.3416 -0.8756
vn -0.3416 0.3416 -0.8756
vn 0.3416 0.3416 -0.8756
vn -0.3416 0.8756 0.3416
vn 0.3416 0.8756 0.3416
vn 0.3416 0.8756 -0.3416
vn -0.3416 0.8756 -0.3416
vn 0.8756 -0.3416 0.3416
vn 0.8756 -0.3416 -0.3416
vn 0.8756 0.3416 -0.3416
vn 0.8756 0.3416 0.3416
vn -0.3416 -0.8756 0.3416
vn -0.3416 -0.8756 -0.3416
vn 0.3416 -0.8756 -0.3416
vn 0.3416 -0.8756 0.3416
vn -0.3416 -0.3416 0.8756
vn 0.3416 -0.3416 0.8756
vn 0.3416 0.3416 0.8756
vn -0.3416 0.3416 0.8756
vn 0.9294 -0.0018 -0.3691
vn 0.9897 -0.1006 -0.1013
vn 0.8964 0.3135 0.3132
vn 0.9138 -0.0018 0.4062
vn -0.3867 0.0003 -0.9222
vn -0.4513 0.0001 -0.8924
vn 0.4514 0.0001 -0.8923
vn 0.3868 0.0003 -0.9222
vn -0.9897 -0.1007 -0.1013
vn -0.8964 0.3135 0.3133
vn -0.9136 0.4065 -0.0024
vn -0.9294 -0.3691 -0.0025
vn 0.3682 -0.0000 0.9297
vn 0.2833 0.0001 0.9590
vn -0.2832 0.0001 0.9591
vn -0.3682 -0.0000 0.9297
vn -0.9138 -0.0018 0.4062
vn -0.9294 -0.0018 -0.3691
vn -0.0000 -1.0000 -0.0000
vn -0.0000 -0.0000 -1.0000
vn 0.4517 -0.8922 0.0002
vn 0.3865 -0.9223 0.0005
vn 0.9294 -0.3691 -0.0025
vn 0.9136 0.4065 -0.0024
vn -0.4516 -0.8922 0.0002
vn -0.3865 -0.9223 0.0005
vn -0.2833 0.9590 0.0002
vn -0.3681 0.9298 -0.0001
vn 0.2833 0.9590 0.0002
vn 0.3681 0.9298 -0.0001
vn -0.0000 -0.3826 0.9239
vn -0.0000 0.3826 0.9239
vn -0.0000 -0.9239 -0.3827
vn -0.0000 -0.9239 0.3827
vn 1.0000 -0.0000 -0.0000
vn -0.0000 0.9239 0.3827
vn -0.0000 0.9239 -0.3827
vn -0.0000 0.3827 -0.9239
vn -0.0000 0.3826 -0.9239
vn -0.0000 -0.3826 -0.9239
vn -0.0000 -0.3827 -0.9239
vn -1.0000 -0.0000 -0.0000
vn 0.9897 -0.1007 -0.1014
vn -0.3868 0.0003 -0.9222
vn -0.4514 0.0001 -0.8923
vn -0.9137 0.4065 -0.0024
vn 0.2832 0.0001 0.9591
vn -0.2833 0.0001 0.9590
vn -0.3683 -0.0000 0.9297
vn 0.3866 -0.9222 0.0005
vn 0.9137 0.4064 -0.0024
vn -0.4517 -0.8922 0.0002
vn -0.3866 -0.9223 0.0005
vn 0.2834 0.9590 0.0002
vn 0.3682 0.9298 -0.0001
vn -0.9320 -0.0252 -0.3615
vn -0.9150 0.0329 0.4020
vn -0.9304 0.0624 0.3611
vn -0.9146 -0.0541 -0.4007
vn -0.9225 -0.0037 0.3860
vn -0.3811 -0.0037 0.9245
vn -0.3738 0.0715 0.9247
vn -0.3910 -0.0685 -0.9178
vn -0.3839 -0.0036 -0.9234
vn -0.9251 -0.0037 -0.3798
vn 0.9320 -0.0252 -0.3615
vn 0.9251 -0.0037 -0.3798
vn 0.3838 -0.0036 -0.9234
vn 0.3910 -0.0685 -0.9178
vn 0.3810 -0.0037 0.9246
vn 0.3738 0.0715 0.9248
vn 0.9150 0.0330 0.4020
vn 0.9225 -0.0037 0.3860
vn -0.0000 0.9996 -0.0285
vn -0.3726 -0.1333 -0.9184
vn 0.3727 -0.1333 -0.9183
vn 0.9146 -0.0541 -0.4006
vn 0.9304 0.0624 0.3611
vn -0.3873 0.1463 0.9103
vn 0.3872 0.1463 0.9103
vn 0.9321 -0.0252 -0.3614
vn -0.9150 0.0330 0.4020
vn 0.9251 -0.0037 -0.3797
vn 0.3811 -0.0037 0.9245
vn 0.3738 0.0715 0.9247
vn -0.9146 -0.0541 -0.4006
vn -0.3727 -0.1333 -0.9183
vn 0.3726 -0.1333 -0.9184
vn 0.3873 0.1463 0.9103
vn -0.0000 -0.3827 0.9239
vn -0.0000 0.3827 0.9239
vn -0.0000 -0.9239 -0.3828
vn -0.0000 -0.9239 0.3826
vn -0.0000 0.9239 0.3826
vn -0.0000 0.9239 -0.3828
vn -0.0000 1.0000 -0.0000
vn -0.0000 -0.0000 1.0000
vn -0.0000 -0.1580 -0.9874
vn -0.0000 0.1580 0.9874
vn 1.0000 -0.0000 0.0001
vn -0.0000 0.9874 -0.1580
vn -1.0000 -0.0000 -0.0001
vn -0.0000 -0.9874 0.1580
vt 0.117348 0.448714
vt 0.117348 0.448714
vt 0.117348 0.448714
vt 0.117348 0.448714
vt 0.117348 0.448714
vt 0.117348 0.448714
vt 0.117348 0.448714
vt 0.117348 0.448714
vt 0.117348 0.448714
vt 0.117348 0.448714
vt 0.117348 0.448714
vt 0.117348 0.448714
vt 0.117348 0.448714
vt 0.117348 0.448714
vt 0.117348 0.448714
vt 0.117348 0.448714
vt 0.117348 0.448714
vt 0.117348 0.448714
vt 0.117348 0.448714
vt 0.117348 0.448714
vt 0.117348 0.448714
vt 0.117348 0.448714
vt 0.117348 0.448714
vt 0.117348 0.448714
vt 0.855583 0.096822
vt 0.855583 0.096822
vt 0.855583 0.096822
vt 0.855583 0.096822
vt 0.855583 0.096822
vt 0.855583 0.096822
vt 0.855583 0.096822
vt 0.855583 0.096822
vt 0.855583 0.096822
vt 0.855583 0.096822
vt 0.855583 0.096822
vt 0.855583 0.096822
vt 0.855583 0.096822
vt 0.855583 0.096822
vt 0.855583 0.096822
vt 0.855583 0.096822
vt 0.855583 0.096822
vt 0.855583 0.096822
vt 0.855583 0.096822
vt 0.855583 0.096822
vt 0.855583 0.096822
vt 0.855583 0.096822
vt 0.855583 0.096822
vt 0.855583 0.096822
vt 0.855583 0.096822
vt 0.855583 0.096822
vt 0.855583 0.096822
vt 0.855583 0.096822
vt 0.855583 0.096822
vt 0.855583 0.096822
vt 0.855583 0.096822
vt 0.855583 0.096822
vt 0.855583 0.096822
vt 0.855583 0.096822
vt 0.855583 0.096822
vt 0.855583 0.096822
vt 0.855583 0.096822
vt 0.855583 0.096822
vt 0.855583 0.096822
vt 0.855583 0.096822
vt 0.855583 0.096822
vt 0.855583 0.096822
vt 0.855583 0.096822
vt 0.855583 0.096822
vt 0.855583 0.096822
vt 0.855583 0.096822
vt 0.855583 0.096822
vt 0.855583 0.096822
vt 0.855583 0.096822
vt 0.855583 0.096822
vt 0.855583 0.096822
vt 0.855583 0.096822
vt 0.855583 0.096822
vt 0.855583 0.096822
vt 0.855583 0.096822
vt 0.855583 0.096822
vt 0.855583 0.096822
vt 0.855583 0.096822
vt 0.855583 0.096822
vt 0.855583 0.096822
vt 0.855583 0.096822
vt 0.855583 0.096822
vt 0.855583 0.096822
vt 0.855583 0.096822
vt 0.855583 0.096822
vt 0.855583 0.096822
vt 0.855583 0.096822
vt 0.855583 0.096822
vt 0.855583 0.096822
vt 0.855583 0.096822
vt 0.855583 0.096822
vt 0.855583 0.096822
vt 0.855583 0.096822
vt 0.855583 0.096822
vt 0.855583 0.096822
vt 0.855583 0.096822
vt 0.855583 0.096822
vt 0.855583 0.096822
vt 0.855583 0.096822
vt 0.855583 0.096822
vt 0.855583 0.096822
vt 0.855583 0.096822
vt 0.855583 0.096822
vt 0.855583 0.096822
vt 0.855583 0.096822
vt 0.855583 0.096822
vt 0.855583 0.096822
vt 0.855583 0.096822
vt 0.855583 0.096822
vt 0.855583 0.096822
vt 0.855583 0.096822
vt 0.855583 0.096822
vt 0.855583 0.096822
vt 0.855583 0.096822
vt 0.855583 0.096822
vt 0.855583 0.096822
vt 0.855583 0.096822
vt 0.855583 0.096822
vt 0.855583 0.096822
vt 0.855583 0.096822
vt 0.855583 0.096822
vt 0.855583 0.096822
vt 0.855583 0.096822
vt 0.855583 0.096822
vt 0.855583 0.096822
vt 0.855583 0.096822
vt 0.855583 0.096822
vt 0.855583 0.096822
vt 0.855583 0.096822
vt 0.855583 0.096822
vt 0.855583 0.096822
vt 0.855583 0.096822
vt 0.855583 0.096822
vt 0.855583 0.096822
vt 0.855583 0.096822
vt 0.855583 0.096822
vt 0.855583 0.096822
vt 0.855583 0.096822
vt 0.855583 0.096822
vt 0.855583 0.096822
vt 0.855583 0.096822
vt 0.855583 0.096822
vt 0.855583 0.096822
vt 0.855583 0.096822
vt 0.855583 0.096822
vt 0.855583 0.096822
vt 0.855583 0.096822
vt 0.855583 0.096822
vt 0.855583 0.096822
vt 0.855583 0.096822
vt 0.855583 0.096822
vt 0.855583 0.096822
vt 0.855583 0.096822
vt 0.855583 0.096822
vt 0.855583 0.096822
vt 0.855583 0.096822
vt 0.304368 0.448714
vt 0.304368 0.448714
vt 0.304368 0.448714
vt 0.304368 0.448714
vt 0.304368 0.448714
vt 0.304368 0.448714
vt 0.304368 0.448714
vt 0.304368 0.448714
s 1
usemtl Material
f 9/9/1 2/2/2 18/18/3 20/20/4
f 10/10/5 7/7/6 19/19/7 22/22/8
f 17/17/9 15/15/10 23/23/11 21/21/12
f 6/6/13 11/11/14 24/24/15 14/14/16
f 3/3/17 8/8/18 12/12/19 5/5/20
f 1/1/21 2/2/2 3/3/17
f 4/4/22 5/5/20 6/6/13
f 7/7/6 8/8/18 9/9/1
f 10/10/5 11/11/14 12/12/19
f 13/13/23 14/14/16 15/15/10
f 16/16/24 17/17/9 18/18/3
f 19/19/7 20/20/4 21/21/12
f 22/22/8 23/23/11 24/24/15
f 4/4/22 1/1/21 3/3/17 5/5/20
f 7/7/6 10/10/5 12/12/19 8/8/18
f 2/2/2 9/9/1 8/8/18 3/3/17
f 5/5/20 12/12/19 11/11/14 6/6/13
f 15/15/10 17/17/9 16/16/24 13/13/23
f 21/21/12 23/23/11 22/22/8 19/19/7
f 17/17/9 21/21/12 20/20/4 18/18/3
f 14/14/16 24/24/15 23/23/11 15/15/10
f 10/10/5 22/22/8 24/24/15 11/11/14
f 13/13/23 4/4/22 6/6/13 14/14/16
f 9/9/1 20/20/4 19/19/7 7/7/6
f 1/1/21 16/16/24 18/18/3 2/2/2
f 1/1/21 4/4/22 13/13/23 16/16/24
f 34/34/25 35/35/26 28/28/27 25/25/28
f 38/38/29 39/39/30 36/36/31 33/33/32
f 40/40/33 31/31/34 44/44/35 45/45/36
f 26/26/37 27/27/38 32/32/39 29/29/40
f 30/30/41 31/31/34 40/40/33 37/37/42
f 25/25/28 28/28/27 27/27/38 26/26/37
f 31/31/34 30/30/41 29/29/40 32/32/39
f 39/39/30 38/38/29 37/37/42 40/40/33
f 35/35/26 34/34/25 33/33/32 36/36/31
f 29/29/43 30/30/43 37/37/43 38/38/43 33/33/43 34/34/43 25/25/43 26/26/43
f 46/46/44 45/45/44 44/44/44 43/43/44 42/42/44 41/41/44 48/48/44 47/47/44
f 35/35/26 36/36/45 47/47/46 48/48/47
f 28/28/27 35/35/26 48/48/47 41/41/48
f 39/39/49 40/40/33 45/45/36 46/46/50
f 31/31/34 32/32/51 43/43/52 44/44/35
f 27/27/53 28/28/27 41/41/48 42/42/54
f 36/36/45 39/39/49 46/46/50 47/47/46
f 32/32/51 27/27/53 42/42/54 43/43/52
f 58/58/55 59/59/55 52/52/56 49/49/56
f 62/62/57 63/63/57 60/60/58 57/57/58
f 63/63/59 64/64/59 55/55/59 56/56/59 51/51/59 52/52/59 59/59/59 60/60/59
f 50/50/60 51/51/60 56/56/61 53/53/61
f 54/54/62 55/55/63 64/64/64 61/61/65
f 49/49/56 52/52/56 51/51/60 50/50/60
f 55/55/63 54/54/62 53/53/61 56/56/61
f 63/63/57 62/62/57 61/61/65 64/64/64
f 59/59/55 58/58/55 57/57/58 60/60/58
f 53/53/66 54/54/66 61/61/66 62/62/66 57/57/66 58/58/66 49/49/66 50/50/66
f 74/74/25 75/75/67 68/68/27 65/65/28
f 78/78/68 79/79/69 76/76/31 73/73/32
f 80/80/33 71/71/34 84/84/70 85/85/36
f 66/66/37 67/67/71 72/72/72 69/69/73
f 70/70/41 71/71/34 80/80/33 77/77/42
f 65/65/28 68/68/27 67/67/71 66/66/37
f 71/71/34 70/70/41 69/69/73 72/72/72
f 79/79/69 78/78/68 77/77/42 80/80/33
f 75/75/67 74/74/25 73/73/32 76/76/31
f 69/69/43 70/70/43 77/77/43 78/78/43 73/73/43 74/74/43 65/65/43 66/66/43
f 86/86/44 85/85/44 84/84/44 83/83/44 82/82/44 81/81/44 88/88/44 87/87/44
f 75/75/67 76/76/45 87/87/74 88/88/47
f 68/68/27 75/75/67 88/88/47 81/81/75
f 79/79/76 80/80/33 85/85/36 86/86/77
f 71/71/34 72/72/51 83/83/52 84/84/70
f 67/67/78 68/68/27 81/81/75 82/82/79
f 76/76/45 79/79/76 86/86/77 87/87/74
f 72/72/51 67/67/78 82/82/79 83/83/52
f 102/102/80 99/99/81 107/107/82 110/110/83
f 99/99/81 92/92/84 91/91/85 100/100/86
f 101/101/87 96/96/88 95/95/89 102/102/80
f 103/103/90 94/94/91 93/93/92 104/104/93
f 91/91/43 92/92/43 95/95/43 96/96/43 93/93/43 94/94/43 89/89/43 90/90/43
f 96/96/88 101/101/87 104/104/93 93/93/92
f 92/92/84 99/99/81 102/102/80 95/95/89
f 90/90/94 98/98/95 100/100/86 91/91/85
f 94/94/91 103/103/90 97/97/96 89/89/97
f 89/89/97 97/97/96 98/98/95 90/90/94
f 108/108/98 106/106/98 105/105/98 111/111/98 112/112/98 109/109/98 110/110/98 107/107/98
f 104/104/93 101/101/87 109/109/99 112/112/100
f 97/97/96 103/103/90 111/111/101 105/105/102
f 99/99/81 100/100/86 108/108/103 107/107/82
f 101/101/87 102/102/80 110/110/83 109/109/99
f 103/103/90 104/104/93 112/112/100 111/111/101
f 98/98/95 97/97/96 105/105/102 106/106/104
f 100/100/86 98/98/95 106/106/104 108/108/103
f 121/121/96 127/127/105 135/135/101 129/129/102
f 123/123/106 116/116/84 115/115/85 124/124/86
f 125/125/87 120/120/88 119/119/89 126/126/80
f 127/127/105 118/118/107 117/117/92 128/128/93
f 115/115/43 116/116/43 119/119/43 120/120/43 117/117/43 118/118/43 113/113/43 114/114/43
f 120/120/88 125/125/87 128/128/93 117/117/92
f 116/116/84 123/123/106 126/126/80 119/119/89
f 114/114/108 122/122/109 124/124/86 115/115/85
f 118/118/107 127/127/105 121/121/96 113/113/97
f 113/113/97 121/121/96 122/122/109 114/114/108
f 132/132/98 130/130/98 129/129/98 135/135/98 136/136/98 133/133/98 134/134/98 131/131/98
f 123/123/106 124/124/86 132/132/103 131/131/82
f 125/125/87 126/126/80 134/134/110 133/133/111
f 127/127/105 128/128/93 136/136/112 135/135/101
f 122/122/109 121/121/96 129/129/102 130/130/113
f 124/124/86 122/122/109 130/130/113 132/132/103
f 126/126/80 123/123/106 131/131/82 134/134/110
f 128/128/93 125/125/87 133/133/111 136/136/112
f 146/146/114 147/147/114 140/140/115 137/137/115
f 150/150/57 151/151/116 148/148/58 145/145/117
f 151/151/59 152/152/59 143/143/59 144/144/59 139/139/59 140/140/59 147/147/59 148/148/59
f 138/138/118 139/139/60 144/144/119 141/141/61
f 142/142/62 143/143/63 152/152/64 149/149/65
f 137/137/115 140/140/115 139/139/60 138/138/118
f 143/143/63 142/142/62 141/141/61 144/144/119
f 151/151/116 150/150/57 149/149/65 152/152/64
f 147/147/114 146/146/114 145/145/117 148/148/58
f 141/141/66 142/142/66 149/149/66 150/150/66 145/145/66 146/146/66 137/137/66 138/138/66
f 153/153/43 155/155/43 156/156/43 154/154/43
f 158/158/120 157/157/120 160/160/120 159/159/120
f 154/154/59 156/156/59 160/160/59 157/157/59
f 156/156/44 155/155/44 159/159/44 160/160/44
f 155/155/66 153/153/66 158/158/66 159/159/66
f 153/153/121 154/154/121 157/157/121 158/158/121
f 161/161/122 163/163/122 164/164/122 162/162/122
f 166/166/123 165/165/123 168/168/123 167/167/123
f 162/162/124 164/164/124 168/168/124 165/165/124
f 164/164/125 163/163/125 167/167/125 168/168/125
f 163/163/126 161/161/126 166/166/126 167/167/126
f 161/161/127 162/162/127 165/165/127 166/166/127
