# Blender 3.4.1
# www.blender.org
mtllib childrenchair006.mtl
o children_chair.005
v -0.275329 0.114336 0.587325
v -0.437720 0.114336 0.439438
v -0.356524 0.114336 0.567512
v -0.415963 0.114336 0.513382
v 0.449171 0.114336 0.439438
v 0.286781 0.114336 0.587325
v 0.427415 0.114336 0.513382
v 0.367976 0.114336 0.567512
v 0.286781 0.114336 -0.312284
v 0.449171 0.114336 -0.164397
v 0.367976 0.114336 -0.292471
v 0.427415 0.114336 -0.238341
v -0.437720 0.114336 -0.164397
v -0.275329 0.114336 -0.312284
v -0.415963 0.114336 -0.238341
v -0.356524 0.114336 -0.292471
v -0.437720 0.179787 0.439438
v -0.275329 0.179787 0.587325
v -0.415963 0.179787 0.513382
v -0.356524 0.179787 0.567512
v 0.286781 0.179787 0.587325
v 0.449171 0.179787 0.439438
v 0.367976 0.179787 0.567512
v 0.427415 0.179787 0.513382
v 0.449171 0.179787 -0.164397
v 0.286781 0.179787 -0.312284
v 0.427415 0.179787 -0.238341
v 0.367976 0.179787 -0.292471
v -0.275329 0.179787 -0.312284
v -0.437720 0.179787 -0.164397
v -0.356524 0.179787 -0.292471
v -0.415963 0.179787 -0.238341
v 0.194005 0.114336 0.483080
v 0.315972 0.114336 0.483080
v 0.315972 0.114336 0.361112
v 0.194005 0.114336 0.361112
v -0.306477 0.114336 0.361112
v -0.306477 0.114336 0.483080
v -0.184510 0.114336 0.483080
v -0.184510 0.114336 0.361112
v -0.184510 0.114336 -0.211292
v -0.306477 0.114336 -0.211292
v -0.306477 0.114336 -0.089325
v -0.184510 0.114336 -0.089325
v 0.315972 0.114336 -0.089325
v 0.315972 0.114336 -0.211292
v 0.194005 0.114336 -0.211292
v 0.194005 0.114336 -0.089325
v 0.303027 -0.645658 0.556225
v 0.397560 -0.645658 0.556225
v 0.397560 -0.645658 0.664076
v 0.303027 -0.645658 0.664076
v 0.337315 -0.645658 -0.243639
v 0.337315 -0.645658 -0.351490
v 0.431848 -0.645658 -0.351490
v 0.431848 -0.645658 -0.243639
v -0.327820 -0.645658 0.515426
v -0.327820 -0.645658 0.623277
v -0.422353 -0.645658 0.623277
v -0.422353 -0.645658 0.515426
v -0.293532 -0.645658 -0.284438
v -0.388065 -0.645658 -0.284438
v -0.388065 -0.645658 -0.392289
v -0.293532 -0.645658 -0.392289
v 0.417963 -0.835714 0.709339
v 0.417963 -0.835714 0.605018
v 0.330291 -0.835714 0.709339
v 0.330291 -0.835714 0.605018
v -0.451330 -0.835714 0.658338
v -0.363658 -0.835714 0.658338
v -0.451330 -0.835714 0.554016
v -0.363658 -0.835714 0.554016
v -0.408468 -0.835714 -0.437552
v -0.408468 -0.835714 -0.333231
v -0.320796 -0.835714 -0.437552
v -0.320796 -0.835714 -0.333231
v 0.460825 -0.835714 -0.386550
v 0.373153 -0.835714 -0.386550
v 0.460826 -0.835714 -0.282229
v 0.373153 -0.835714 -0.282229
v 0.303027 -0.645658 0.556225
v 0.397560 -0.645658 0.556225
v 0.397560 -0.645658 0.664077
v 0.303027 -0.645658 0.664077
v 0.337315 -0.645658 -0.243639
v 0.337315 -0.645658 -0.351490
v 0.431848 -0.645658 -0.351490
v 0.431848 -0.645658 -0.243639
v -0.327820 -0.645658 0.515426
v -0.327820 -0.645658 0.623277
v -0.422353 -0.645658 0.623277
v -0.422353 -0.645658 0.515426
v -0.293532 -0.645658 -0.284438
v -0.388065 -0.645658 -0.284438
v -0.388065 -0.645658 -0.392289
v -0.293532 -0.645658 -0.392289
v 0.435705 0.113739 -0.312284
v -0.421401 0.114336 -0.312284
v 0.058047 0.690007 -0.312284
v 0.431508 0.605146 -0.312284
v -0.008970 0.877156 -0.312284
v -0.428878 0.624911 -0.312284
v -0.356786 0.551729 -0.312284
v 0.150189 0.890801 -0.312284
v 0.471119 0.715320 -0.312284
v 0.307195 0.981135 -0.312284
v 0.461300 0.901642 -0.312284
v 0.530065 0.238406 -0.312284
v 0.546006 0.495093 -0.312284
v 0.576200 0.323538 -0.312284
v 0.582140 0.417272 -0.312284
v -0.156178 0.987081 -0.312284
v -0.461928 0.767523 -0.312284
v -0.312801 1.002015 -0.312284
v -0.444500 0.929792 -0.312284
v -0.434344 0.551085 -0.312284
v -0.563705 0.159312 -0.312284
v -0.577488 0.496718 -0.312284
v -0.626029 0.314816 -0.312284
v 0.435705 0.113739 -0.257188
v -0.421401 0.114336 -0.257188
v 0.058047 0.690007 -0.257188
v 0.431508 0.605146 -0.257188
v -0.008970 0.877156 -0.257188
v -0.428878 0.624911 -0.257188
v -0.356786 0.551729 -0.257188
v 0.150189 0.890801 -0.257188
v 0.471119 0.715320 -0.257188
v 0.307195 0.981135 -0.257188
v 0.461300 0.901642 -0.257188
v 0.530065 0.238406 -0.257188
v 0.546006 0.495093 -0.257188
v 0.576200 0.323538 -0.257188
v 0.582140 0.417272 -0.257188
v -0.156178 0.987081 -0.257188
v -0.461928 0.767523 -0.257188
v -0.312801 1.002015 -0.257188
v -0.444500 0.929792 -0.257188
v -0.434344 0.551085 -0.257188
v -0.563705 0.159312 -0.257188
v -0.577488 0.496718 -0.257188
v -0.626029 0.314816 -0.257188
vn -0.9897 -0.0000 -0.1431
vn -0.9897 -0.0000 0.1431
vn 0.9897 -0.0000 0.1431
vn 0.9897 -0.0000 -0.1431
vn 0.1190 -0.0000 -0.9929
vn -0.1190 -0.0000 -0.9929
vn -0.0000 1.0000 -0.0000
vn -0.0000 -1.0000 -0.0000
vn -0.1190 -0.0000 0.9929
vn -0.4654 -0.0000 0.8851
vn -0.8446 -0.0000 0.5354
vn -0.4654 -0.0000 -0.8851
vn -0.8446 -0.0000 -0.5354
vn 0.4654 -0.0000 -0.8851
vn 0.8446 -0.0000 -0.5354
vn 0.1190 -0.0000 0.9929
vn 0.4654 -0.0000 0.8851
vn 0.8446 -0.0000 0.5354
vn -0.0000 -0.2487 -0.9686
vn -0.0000 0.2317 0.9728
vn -0.9899 -0.1420 -0.0000
vn 0.9943 0.1067 -0.0000
vn 0.9827 -0.1853 -0.0000
vn -0.9886 0.1507 -0.0000
vn -0.0000 -0.1990 -0.9800
vn -0.0000 0.1814 0.9834
vn -0.0000 -0.2487 0.9686
vn -0.0000 0.2317 -0.9728
vn 0.9899 -0.1420 -0.0000
vn -0.9943 0.1067 -0.0000
vn -0.9827 -0.1853 -0.0000
vn 0.9886 0.1507 -0.0000
vn -0.0000 -0.1990 0.9800
vn -0.0000 0.1814 -0.9834
vn 0.9070 0.4211 -0.0000
vn -0.4987 0.8668 -0.0000
vn -0.3551 0.9348 -0.0000
vn 0.7973 -0.6035 -0.0000
vn 0.4584 0.8887 -0.0000
vn -0.9662 0.2578 -0.0000
vn 0.6930 0.7210 -0.0000
vn 0.9986 0.0526 -0.0000
vn -0.9282 -0.3720 -0.0000
vn 0.0949 0.9955 -0.0000
vn -0.9089 0.4171 -0.0000
vn -0.0083 1.0000 -0.0000
vn -0.4808 0.8768 -0.0000
vn 0.9410 -0.3383 -0.0000
vn -0.3014 -0.9535 -0.0000
vn -0.0007 -1.0000 -0.0000
vn -0.9943 0.1068 -0.0000
vn 0.8792 -0.4765 -0.0000
vn 0.9415 0.3371 -0.0000
vn 0.5983 0.8013 -0.0000
vn 0.9980 -0.0632 -0.0000
vn -0.7124 -0.7018 -0.0000
vn -0.9742 -0.2258 -0.0000
vn -0.0000 -0.0000 1.0000
vn -0.0000 -0.0000 -1.0000
vt 0.422490 0.097569
vt 0.422490 0.097569
vt 0.422490 0.097569
vt 0.422490 0.097569
vt 0.422490 0.097569
vt 0.422490 0.097569
vt 0.422490 0.097569
vt 0.422490 0.097569
vt 0.422490 0.097569
vt 0.422490 0.097569
vt 0.422490 0.097569
vt 0.422490 0.097569
vt 0.422490 0.097569
vt 0.422490 0.097569
vt 0.422490 0.097569
vt 0.422490 0.097569
vt 0.422490 0.097569
vt 0.422490 0.097569
vt 0.422490 0.097569
vt 0.422490 0.097569
vt 0.422490 0.097569
vt 0.422490 0.097569
vt 0.422490 0.097569
vt 0.422490 0.097569
vt 0.422490 0.097569
vt 0.422490 0.097569
vt 0.422490 0.097569
vt 0.422490 0.097569
vt 0.422490 0.097569
vt 0.422490 0.097569
vt 0.422490 0.097569
vt 0.422490 0.097569
vt 0.422490 0.097569
vt 0.422490 0.097569
vt 0.422490 0.097569
vt 0.422490 0.097569
vt 0.422490 0.097569
vt 0.422490 0.097569
vt 0.422490 0.097569
vt 0.422490 0.097569
vt 0.422490 0.097569
vt 0.422490 0.097569
vt 0.422490 0.097569
vt 0.422490 0.097569
vt 0.422490 0.097569
vt 0.422490 0.097569
vt 0.422490 0.097569
vt 0.422490 0.097569
vt 0.422490 0.097569
vt 0.422490 0.097569
vt 0.422490 0.097569
vt 0.422490 0.097569
vt 0.422490 0.097569
vt 0.422490 0.097569
vt 0.422490 0.097569
vt 0.422490 0.097569
vt 0.422490 0.097569
vt 0.422490 0.097569
vt 0.422490 0.097569
vt 0.422490 0.097569
vt 0.422490 0.097569
vt 0.422490 0.097569
vt 0.422490 0.097569
vt 0.422490 0.097569
vt 0.890649 0.354902
vt 0.890649 0.354902
vt 0.890649 0.354902
vt 0.890649 0.354902
vt 0.890649 0.354902
vt 0.890649 0.354902
vt 0.890649 0.354902
vt 0.890649 0.354902
vt 0.890649 0.354902
vt 0.890649 0.354902
vt 0.890649 0.354902
vt 0.890649 0.354902
vt 0.890649 0.354902
vt 0.890649 0.354902
vt 0.890649 0.354902
vt 0.890649 0.354902
vt 0.890649 0.354902
vt 0.890649 0.354902
vt 0.890649 0.354902
vt 0.890649 0.354902
vt 0.890649 0.354902
vt 0.890649 0.354902
vt 0.890649 0.354902
vt 0.890649 0.354902
vt 0.890649 0.354902
vt 0.890649 0.354902
vt 0.890649 0.354902
vt 0.890649 0.354902
vt 0.890649 0.354902
vt 0.890649 0.354902
vt 0.890649 0.354902
vt 0.890649 0.354902
vt 0.422490 0.097569
vt 0.422490 0.097569
vt 0.422490 0.097569
vt 0.422490 0.097569
vt 0.422490 0.097569
vt 0.422490 0.097569
vt 0.422490 0.097569
vt 0.422490 0.097569
vt 0.422490 0.097569
vt 0.422490 0.097569
vt 0.422490 0.097569
vt 0.422490 0.097569
vt 0.422490 0.097569
vt 0.422490 0.097569
vt 0.422490 0.097569
vt 0.422490 0.097569
vt 0.422490 0.097569
vt 0.422490 0.097569
vt 0.422490 0.097569
vt 0.422490 0.097569
vt 0.422490 0.097569
vt 0.422490 0.097569
vt 0.422490 0.097569
vt 0.422490 0.097569
vt 0.422490 0.097569
vt 0.422490 0.097569
vt 0.422490 0.097569
vt 0.422490 0.097569
vt 0.422490 0.097569
vt 0.422490 0.097569
vt 0.422490 0.097569
vt 0.422490 0.097569
vt 0.422490 0.097569
vt 0.422490 0.097569
vt 0.422490 0.097569
vt 0.422490 0.097569
vt 0.422490 0.097569
vt 0.422490 0.097569
vt 0.422490 0.097569
vt 0.422490 0.097569
vt 0.422490 0.097569
vt 0.422490 0.097569
vt 0.422490 0.097569
vt 0.422490 0.097569
vt 0.422490 0.097569
vt 0.422490 0.097569
s 1
usemtl Material
f 13/13/1 2/2/2 17/17/2 30/30/1
f 5/5/3 10/10/4 25/25/4 22/22/3
f 9/9/5 14/14/6 29/29/6 26/26/5
f 21/21/7 23/23/7 24/24/7 22/22/7 25/25/7 27/27/7 28/28/7 26/26/7 29/29/7 31/31/7 32/32/7 30/30/7 17/17/7 19/19/7 20/20/7 18/18/7
f 5/5/8 7/7/8 8/8/8 6/6/8 1/1/8 3/3/8 4/4/8 2/2/8 13/13/8 15/15/8 16/16/8 14/14/8 9/9/8 11/11/8 12/12/8 10/10/8
f 1/1/9 18/18/9 20/20/10 3/3/10
f 3/3/10 20/20/10 19/19/11 4/4/11
f 4/4/11 19/19/11 17/17/2 2/2/2
f 29/29/6 14/14/6 16/16/12 31/31/12
f 31/31/12 16/16/12 15/15/13 32/32/13
f 32/32/13 15/15/13 13/13/1 30/30/1
f 9/9/5 26/26/5 28/28/14 11/11/14
f 11/11/14 28/28/14 27/27/15 12/12/15
f 12/12/15 27/27/15 25/25/4 10/10/4
f 21/21/16 6/6/16 8/8/17 23/23/17
f 23/23/17 8/8/17 7/7/18 24/24/18
f 24/24/18 7/7/18 5/5/3 22/22/3
f 1/1/9 6/6/16 21/21/16 18/18/9
f 34/34/7 35/35/7 36/36/7 33/33/7
f 50/50/19 49/49/19 36/36/19 35/35/19
f 52/52/20 51/51/20 34/34/20 33/33/20
f 49/49/21 52/52/21 33/33/21 36/36/21
f 51/51/22 50/50/22 35/35/22 34/34/22
f 38/38/7 39/39/7 40/40/7 37/37/7
f 58/58/23 57/57/23 40/40/23 39/39/23
f 60/60/24 59/59/24 38/38/24 37/37/24
f 57/57/25 60/60/25 37/37/25 40/40/25
f 59/59/26 58/58/26 39/39/26 38/38/26
f 42/42/7 43/43/7 44/44/7 41/41/7
f 62/62/27 61/61/27 44/44/27 43/43/27
f 64/64/28 63/63/28 42/42/28 41/41/28
f 61/61/29 64/64/29 41/41/29 44/44/29
f 63/63/30 62/62/30 43/43/30 42/42/30
f 46/46/7 47/47/7 48/48/7 45/45/7
f 54/54/31 53/53/31 48/48/31 47/47/31
f 56/56/32 55/55/32 46/46/32 45/45/32
f 53/53/33 56/56/33 45/45/33 48/48/33
f 55/55/34 54/54/34 47/47/34 46/46/34
f 65/65/8 67/67/8 68/68/8 66/66/8
f 69/69/8 71/71/8 72/72/8 70/70/8
f 73/73/8 75/75/8 76/76/8 74/74/8
f 77/77/8 79/79/8 80/80/8 78/78/8
f 65/65/22 66/66/22 82/82/22 83/83/22
f 68/68/21 67/67/21 84/84/21 81/81/21
f 67/67/20 65/65/20 83/83/20 84/84/20
f 66/66/19 68/68/19 81/81/19 82/82/19
f 77/77/34 78/78/34 86/86/34 87/87/34
f 80/80/33 79/79/33 88/88/33 85/85/33
f 79/79/32 77/77/32 87/87/32 88/88/32
f 78/78/31 80/80/31 85/85/31 86/86/31
f 69/69/26 70/70/26 90/90/26 91/91/26
f 72/72/25 71/71/25 92/92/25 89/89/25
f 71/71/24 69/69/24 91/91/24 92/92/24
f 70/70/23 72/72/23 89/89/23 90/90/23
f 73/73/30 74/74/30 94/94/30 95/95/30
f 76/76/29 75/75/29 96/96/29 93/93/29
f 75/75/28 73/73/28 95/95/28 96/96/28
f 74/74/27 76/76/27 93/93/27 94/94/27
s 0
f 109/109/35 132/132/35 134/134/35 111/111/35
f 106/106/36 104/104/36 127/127/36 129/129/36
f 118/118/37 141/141/37 139/139/37 116/116/37
f 97/97/38 108/108/38 131/131/38 120/120/38
f 107/107/39 106/106/39 129/129/39 130/130/39
f 119/119/40 142/142/40 141/141/40 118/118/40
f 100/100/41 123/123/41 132/132/41 109/109/41
f 105/105/42 107/107/42 130/130/42 128/128/42
f 117/117/43 140/140/43 142/142/43 119/119/43
f 114/114/44 137/137/44 135/135/44 112/112/44
f 99/99/45 122/122/45 127/127/45 104/104/45
f 103/103/46 116/116/46 139/139/46 126/126/46
f 115/115/47 138/138/47 137/137/47 114/114/47
f 100/100/48 105/105/48 128/128/48 123/123/48
f 98/98/49 121/121/49 140/140/49 117/117/49
f 97/97/50 120/120/50 121/121/50 98/98/50
f 113/113/51 136/136/51 138/138/51 115/115/51
f 110/110/52 133/133/52 131/131/52 108/108/52
f 101/101/53 124/124/53 122/122/53 99/99/53
f 101/101/54 112/112/54 135/135/54 124/124/54
f 111/111/55 134/134/55 133/133/55 110/110/55
f 103/103/56 126/126/56 125/125/56 102/102/56
f 102/102/57 125/125/57 136/136/57 113/113/57
f 120/120/58 131/131/58 133/133/58 134/134/58 132/132/58 123/123/58 128/128/58 130/130/58 129/129/58 127/127/58 122/122/58 124/124/58 135/135/58 137/137/58 138/138/58 136/136/58 125/125/58 126/126/58 139/139/58 141/141/58 142/142/58 140/140/58 121/121/58
f 97/97/59 98/98/59 117/117/59 119/119/59 118/118/59 116/116/59 103/103/59 102/102/59 113/113/59 115/115/59 114/114/59 112/112/59 101/101/59 99/99/59 104/104/59 106/106/59 107/107/59 105/105/59 100/100/59 109/109/59 111/111/59 110/110/59 108/108/59
