# Blender 3.4.1
# www.blender.org
mtllib childrenchair010.mtl
o children_chair.009
v -0.314030 0.116176 0.580123
v -0.395369 0.116176 0.502451
v 0.394216 0.116176 0.502451
v 0.312878 0.116176 0.580123
v 0.312878 0.116176 -0.264389
v 0.394216 0.116176 -0.186717
v -0.395369 0.116176 -0.186717
v -0.314030 0.116176 -0.264389
v -0.395369 0.235375 0.502451
v -0.314030 0.235375 0.580123
v 0.312878 0.235375 0.580123
v 0.394216 0.235375 0.502451
v 0.394216 0.235375 -0.186717
v 0.312878 0.235375 -0.264389
v -0.314030 0.235375 -0.264389
v -0.395369 0.235375 -0.186717
v 0.188405 0.116176 0.506148
v 0.310373 0.116176 0.506148
v 0.310373 0.116176 0.384181
v 0.188405 0.116176 0.384181
v -0.312077 0.116176 0.384181
v -0.312077 0.116176 0.506148
v -0.190109 0.116176 0.506148
v -0.190109 0.116176 0.384181
v -0.190109 0.116176 -0.188224
v -0.312077 0.116176 -0.188224
v -0.312077 0.116176 -0.066256
v -0.190109 0.116176 -0.066256
v 0.310373 0.116176 -0.066256
v 0.310373 0.116176 -0.188224
v 0.188405 0.116176 -0.188224
v 0.188405 0.116176 -0.066256
v 0.361368 -0.358849 0.506134
v 0.361368 -0.358849 0.619278
v 0.277979 -0.358849 -0.162708
v 0.382799 -0.358849 -0.275853
v -0.279683 -0.358849 0.480633
v -0.384504 -0.358849 0.480633
v -0.258253 -0.358849 -0.188209
v -0.363072 -0.358849 -0.188209
v -0.363072 -0.358849 -0.301354
v 0.256548 -0.358849 0.506134
v 0.256548 -0.358849 0.619278
v 0.277979 -0.358849 -0.275853
v 0.382799 -0.358849 -0.162708
v -0.279683 -0.358849 0.593777
v -0.384504 -0.358849 0.593777
v -0.258253 -0.358849 -0.301354
v 0.361368 -0.358849 0.506134
v 0.361368 -0.358849 0.619278
v 0.277979 -0.358849 -0.162708
v 0.382799 -0.358849 -0.275853
v -0.279683 -0.358849 0.480633
v -0.384504 -0.358849 0.480633
v -0.258253 -0.358849 -0.188209
v -0.363072 -0.358849 -0.188209
v -0.363072 -0.358849 -0.301354
v 0.388541 -0.833873 0.704062
v 0.388541 -0.833873 0.656433
v 0.348514 -0.833873 0.704062
v 0.348514 -0.833873 0.656433
v -0.433107 -0.833873 0.653060
v -0.393080 -0.833873 0.653060
v -0.433107 -0.833873 0.605431
v -0.393080 -0.833873 0.605431
v -0.390245 -0.833873 -0.386138
v -0.390245 -0.833873 -0.338509
v -0.350218 -0.833873 -0.386137
v -0.350218 -0.833873 -0.338509
v 0.431403 -0.833873 -0.335135
v 0.391375 -0.833873 -0.335135
v 0.431403 -0.833873 -0.287507
v 0.391375 -0.833873 -0.287507
v 0.256548 -0.358849 0.506134
v 0.256548 -0.358849 0.619278
v 0.277979 -0.358849 -0.275853
v 0.382799 -0.358849 -0.162708
v -0.279683 -0.358849 0.593777
v -0.384504 -0.358849 0.593777
v -0.258253 -0.358849 -0.301354
v -0.314030 0.484124 -0.375857
v -0.395369 0.559151 -0.395960
v 0.394216 0.559151 -0.395960
v 0.312878 0.484124 -0.375857
v 0.312878 1.003390 -0.514993
v 0.394216 0.928364 -0.494890
v -0.395369 0.928364 -0.494890
v -0.314030 1.003390 -0.514993
v -0.395369 0.590001 -0.280823
v -0.314030 0.514975 -0.260720
v 0.312878 0.514975 -0.260720
v 0.394216 0.590001 -0.280823
v 0.394216 0.959215 -0.379753
v 0.312878 1.034241 -0.399856
v -0.314030 1.034241 -0.399856
v -0.395369 0.959215 -0.379753
v -0.042258 0.497473 -0.353889
v 0.048373 0.497473 -0.353889
v -0.042258 0.517179 -0.280343
v 0.048373 0.517179 -0.280343
v -0.042258 0.150069 -0.260803
v 0.048373 0.150069 -0.260803
v -0.042258 0.169775 -0.187257
v 0.048373 0.169775 -0.187257
v 0.129995 0.497473 -0.353889
v 0.220625 0.497473 -0.353889
v 0.129995 0.517179 -0.280343
v 0.220625 0.517179 -0.280343
v 0.129995 0.150069 -0.260803
v 0.220625 0.150069 -0.260803
v 0.129995 0.169775 -0.187257
v 0.220625 0.169775 -0.187257
v -0.214561 0.497473 -0.353889
v -0.123930 0.497473 -0.353889
v -0.214561 0.517179 -0.280343
v -0.123930 0.517179 -0.280343
v -0.214561 0.150069 -0.260803
v -0.123930 0.150069 -0.260803
v -0.214561 0.169775 -0.187257
v -0.123930 0.169775 -0.187257
vn -0.9194 -0.0000 -0.3933
vn -0.9194 -0.0000 0.3933
vn 0.9194 -0.0000 0.3933
vn 0.9194 -0.0000 -0.3933
vn 0.3720 -0.0000 -0.9282
vn -0.3720 -0.0000 -0.9282
vn -0.0000 1.0000 -0.0000
vn -0.0000 -1.0000 -0.0000
vn -0.3720 -0.0000 0.9282
vn 0.3720 -0.0000 0.9282
vn -0.0000 -0.2487 -0.9686
vn -0.0000 0.2317 0.9728
vn -0.9899 -0.1420 -0.0000
vn 0.9943 0.1067 -0.0000
vn 0.9827 -0.1853 -0.0000
vn -0.9886 0.1507 -0.0000
vn -0.0000 -0.1990 -0.9800
vn -0.0000 0.1814 0.9834
vn -0.0000 -0.2487 0.9686
vn -0.0000 0.2317 -0.9728
vn 0.9899 -0.1420 -0.0000
vn -0.9943 0.1067 -0.0000
vn -0.9827 -0.1853 -0.0000
vn 0.9886 0.1507 -0.0000
vn -0.0000 -0.1990 0.9800
vn -0.0000 0.1814 -0.9834
vn 0.9984 0.0571 -0.0000
vn -0.9818 -0.1901 -0.0000
vn -0.0000 0.1757 0.9844
vn -0.0000 -0.3017 -0.9534
vn -0.0000 0.1238 -0.9923
vn -0.0000 -0.2541 0.9672
vn 0.9948 0.1018 -0.0000
vn -0.9727 -0.2322 -0.0000
vn -0.0000 0.1238 0.9923
vn -0.0000 -0.2541 -0.9672
vn -0.9948 0.1018 -0.0000
vn 0.9727 -0.2322 -0.0000
vn -0.9984 0.0571 -0.0000
vn 0.9818 -0.1901 -0.0000
vn -0.0000 0.1757 -0.9844
vn -0.0000 -0.3017 0.9534
vn -0.9194 0.3799 -0.1018
vn -0.9194 -0.3799 0.1018
vn 0.9194 -0.3799 0.1018
vn 0.9194 0.3799 -0.1018
vn 0.3720 0.8966 -0.2402
vn -0.3720 0.8966 -0.2402
vn -0.0000 0.2588 0.9659
vn -0.0000 -0.2588 -0.9659
vn -0.3720 -0.8966 0.2402
vn 0.3720 -0.8966 0.2402
vn -0.0000 0.9659 -0.2588
vn -0.0000 -0.9659 0.2588
vn 1.0000 -0.0000 -0.0000
vn -1.0000 -0.0000 -0.0000
vt 0.422490 0.097569
vt 0.422490 0.097569
vt 0.422490 0.097569
vt 0.422490 0.097569
vt 0.422490 0.097569
vt 0.422490 0.097569
vt 0.422490 0.097569
vt 0.422490 0.097569
vt 0.422490 0.097569
vt 0.422490 0.097569
vt 0.422490 0.097569
vt 0.422490 0.097569
vt 0.422490 0.097569
vt 0.422490 0.097569
vt 0.422490 0.097569
vt 0.422490 0.097569
vt 0.422490 0.097569
vt 0.422490 0.097569
vt 0.422490 0.097569
vt 0.422490 0.097569
vt 0.422490 0.097569
vt 0.422490 0.097569
vt 0.422490 0.097569
vt 0.422490 0.097569
vt 0.422490 0.097569
vt 0.422490 0.097569
vt 0.422490 0.097569
vt 0.422490 0.097569
vt 0.422490 0.097569
vt 0.422490 0.097569
vt 0.422490 0.097569
vt 0.422490 0.097569
vt 0.422490 0.097569
vt 0.422490 0.097569
vt 0.422490 0.097569
vt 0.422490 0.097569
vt 0.422490 0.097569
vt 0.422490 0.097569
vt 0.422490 0.097569
vt 0.422490 0.097569
vt 0.422490 0.097569
vt 0.422490 0.097569
vt 0.422490 0.097569
vt 0.422490 0.097569
vt 0.422490 0.097569
vt 0.422490 0.097569
vt 0.422490 0.097569
vt 0.422490 0.097569
vt 0.890649 0.354902
vt 0.890649 0.354902
vt 0.890649 0.354902
vt 0.890649 0.354902
vt 0.890649 0.354902
vt 0.890649 0.354902
vt 0.890649 0.354902
vt 0.890649 0.354902
vt 0.890649 0.354902
vt 0.890649 0.354902
vt 0.890649 0.354902
vt 0.890649 0.354902
vt 0.890649 0.354902
vt 0.890649 0.354902
vt 0.890649 0.354902
vt 0.890649 0.354902
vt 0.890649 0.354902
vt 0.890649 0.354902
vt 0.890649 0.354902
vt 0.890649 0.354902
vt 0.890649 0.354902
vt 0.890649 0.354902
vt 0.890649 0.354902
vt 0.890649 0.354902
vt 0.890649 0.354902
vt 0.890649 0.354902
vt 0.890649 0.354902
vt 0.890649 0.354902
vt 0.890649 0.354902
vt 0.890649 0.354902
vt 0.890649 0.354902
vt 0.890649 0.354902
vt 0.422490 0.097569
vt 0.422490 0.097569
vt 0.422490 0.097569
vt 0.422490 0.097569
vt 0.422490 0.097569
vt 0.422490 0.097569
vt 0.422490 0.097569
vt 0.422490 0.097569
vt 0.422490 0.097569
vt 0.422490 0.097569
vt 0.422490 0.097569
vt 0.422490 0.097569
vt 0.422490 0.097569
vt 0.422490 0.097569
vt 0.422490 0.097569
vt 0.422490 0.097569
vt 0.422490 0.097569
vt 0.422490 0.097569
vt 0.422490 0.097569
vt 0.422490 0.097569
vt 0.422490 0.097569
vt 0.422490 0.097569
vt 0.422490 0.097569
vt 0.422490 0.097569
vt 0.422490 0.097569
vt 0.422490 0.097569
vt 0.422490 0.097569
vt 0.422490 0.097569
vt 0.422490 0.097569
vt 0.422490 0.097569
vt 0.422490 0.097569
vt 0.422490 0.097569
vt 0.422490 0.097569
vt 0.422490 0.097569
vt 0.422490 0.097569
vt 0.422490 0.097569
vt 0.422490 0.097569
vt 0.422490 0.097569
vt 0.422490 0.097569
vt 0.422490 0.097569
s 1
usemtl Material
f 7/7/1 2/2/2 9/9/2 16/16/1
f 3/3/3 6/6/4 13/13/4 12/12/3
f 5/5/5 8/8/6 15/15/6 14/14/5
f 11/11/7 12/12/7 13/13/7 14/14/7 15/15/7 16/16/7 9/9/7 10/10/7
f 3/3/8 4/4/8 1/1/8 2/2/8 7/7/8 8/8/8 5/5/8 6/6/8
f 1/1/9 10/10/9 9/9/2 2/2/2
f 15/15/6 8/8/6 7/7/1 16/16/1
f 5/5/5 14/14/5 13/13/4 6/6/4
f 11/11/10 4/4/10 3/3/3 12/12/3
f 1/1/9 4/4/10 11/11/10 10/10/9
f 18/18/7 19/19/7 20/20/7 17/17/7
f 33/33/11 42/42/11 20/20/11 19/19/11
f 43/43/12 34/34/12 18/18/12 17/17/12
f 42/42/13 43/43/13 17/17/13 20/20/13
f 34/34/14 33/33/14 19/19/14 18/18/14
f 22/22/7 23/23/7 24/24/7 21/21/7
f 46/46/15 37/37/15 24/24/15 23/23/15
f 38/38/16 47/47/16 22/22/16 21/21/16
f 37/37/17 38/38/17 21/21/17 24/24/17
f 47/47/18 46/46/18 23/23/18 22/22/18
f 26/26/7 27/27/7 28/28/7 25/25/7
f 40/40/19 39/39/19 28/28/19 27/27/19
f 48/48/20 41/41/20 26/26/20 25/25/20
f 39/39/21 48/48/21 25/25/21 28/28/21
f 41/41/22 40/40/22 27/27/22 26/26/22
f 30/30/7 31/31/7 32/32/7 29/29/7
f 44/44/23 35/35/23 32/32/23 31/31/23
f 45/45/24 36/36/24 30/30/24 29/29/24
f 35/35/25 45/45/25 29/29/25 32/32/25
f 36/36/26 44/44/26 31/31/26 30/30/26
f 58/58/8 60/60/8 61/61/8 59/59/8
f 62/62/8 64/64/8 65/65/8 63/63/8
f 66/66/8 68/68/8 69/69/8 67/67/8
f 70/70/8 72/72/8 73/73/8 71/71/8
f 58/58/27 59/59/27 49/49/27 50/50/27
f 61/61/28 60/60/28 75/75/28 74/74/28
f 60/60/29 58/58/29 50/50/29 75/75/29
f 59/59/30 61/61/30 74/74/30 49/49/30
f 70/70/31 71/71/31 76/76/31 52/52/31
f 73/73/32 72/72/32 77/77/32 51/51/32
f 72/72/33 70/70/33 52/52/33 77/77/33
f 71/71/34 73/73/34 51/51/34 76/76/34
f 62/62/35 63/63/35 78/78/35 79/79/35
f 65/65/36 64/64/36 54/54/36 53/53/36
f 64/64/37 62/62/37 79/79/37 54/54/37
f 63/63/38 65/65/38 53/53/38 78/78/38
f 66/66/39 67/67/39 56/56/39 57/57/39
f 69/69/40 68/68/40 80/80/40 55/55/40
f 68/68/41 66/66/41 57/57/41 80/80/41
f 67/67/42 69/69/42 55/55/42 56/56/42
f 87/87/43 82/82/44 89/89/44 96/96/43
f 83/83/45 86/86/46 93/93/46 92/92/45
f 85/85/47 88/88/48 95/95/48 94/94/47
f 91/91/49 92/92/49 93/93/49 94/94/49 95/95/49 96/96/49 89/89/49 90/90/49
f 83/83/50 84/84/50 81/81/50 82/82/50 87/87/50 88/88/50 85/85/50 86/86/50
f 81/81/51 90/90/51 89/89/44 82/82/44
f 95/95/48 88/88/48 87/87/43 96/96/43
f 85/85/47 94/94/47 93/93/46 86/86/46
f 91/91/52 84/84/52 83/83/45 92/92/45
f 81/81/51 84/84/52 91/91/52 90/90/51
f 97/97/53 99/99/53 100/100/53 98/98/53
f 101/101/54 102/102/54 104/104/54 103/103/54
f 100/100/49 99/99/49 103/103/49 104/104/49
f 98/98/55 100/100/55 104/104/55 102/102/55
f 97/97/50 98/98/50 102/102/50 101/101/50
f 99/99/56 97/97/56 101/101/56 103/103/56
f 105/105/53 107/107/53 108/108/53 106/106/53
f 109/109/54 110/110/54 112/112/54 111/111/54
f 108/108/49 107/107/49 111/111/49 112/112/49
f 106/106/55 108/108/55 112/112/55 110/110/55
f 105/105/50 106/106/50 110/110/50 109/109/50
f 107/107/56 105/105/56 109/109/56 111/111/56
f 113/113/53 115/115/53 116/116/53 114/114/53
f 117/117/54 118/118/54 120/120/54 119/119/54
f 116/116/49 115/115/49 119/119/49 120/120/49
f 114/114/55 116/116/55 120/120/55 118/118/55
f 113/113/50 114/114/50 118/118/50 117/117/50
f 115/115/56 113/113/56 117/117/56 119/119/56
