# Blender 3.4.1
# www.blender.org
mtllib childrenchair018.mtl
o children_chair.017
v 0.429999 0.063245 -0.320537
v -0.427106 0.063842 -0.320537
v 0.444576 0.745536 -0.320537
v -0.441683 0.745536 -0.320537
v 0.287260 0.924447 -0.320537
v -0.284368 0.924447 -0.320537
v 0.198021 1.009355 -0.320537
v -0.195129 1.009354 -0.320537
v 0.514706 0.841027 -0.320537
v 0.518960 0.930431 -0.320537
v -0.511813 0.841027 -0.320537
v -0.516067 0.930431 -0.320537
v 0.477633 0.997306 -0.320537
v 0.400603 1.007030 -0.320537
v -0.474741 0.997306 -0.320537
v -0.397711 1.007030 -0.320537
v 0.518230 0.427155 -0.320537
v 0.509849 0.614411 -0.320537
v -0.515319 0.427156 -0.320537
v -0.506957 0.614411 -0.320537
v 0.001446 1.051808 -0.320537
v 0.429999 0.063245 -0.265442
v -0.427106 0.063842 -0.265442
v 0.444576 0.745536 -0.265442
v -0.441683 0.745536 -0.265442
v 0.287260 0.924447 -0.265442
v -0.284368 0.924447 -0.265442
v 0.198021 1.009355 -0.265442
v -0.195129 1.009354 -0.265442
v 0.514706 0.841027 -0.265442
v 0.518960 0.930431 -0.265442
v -0.511813 0.841027 -0.265442
v -0.516067 0.930431 -0.265442
v 0.477633 0.997306 -0.265442
v 0.400603 1.007030 -0.265442
v -0.474741 0.997306 -0.265442
v -0.397711 1.007030 -0.265442
v 0.518230 0.427155 -0.265442
v 0.509849 0.614411 -0.265442
v -0.515319 0.427156 -0.265442
v -0.506957 0.614411 -0.265442
v 0.001446 1.051808 -0.265442
v -0.281036 0.063842 0.579072
v -0.443426 0.063842 0.431185
v -0.362231 0.063842 0.559259
v -0.421670 0.063842 0.505129
v 0.443464 0.063842 0.431185
v 0.281074 0.063842 0.579072
v 0.421708 0.063842 0.505129
v 0.362269 0.063842 0.559259
v 0.281074 0.063842 -0.320537
v 0.443464 0.063842 -0.172650
v 0.362269 0.063842 -0.300724
v 0.421708 0.063842 -0.246594
v -0.443426 0.063842 -0.172650
v -0.281036 0.063842 -0.320537
v -0.421670 0.063842 -0.246594
v -0.362231 0.063842 -0.300724
v -0.443426 0.129293 0.431185
v -0.281036 0.129293 0.579072
v -0.421670 0.129293 0.505129
v -0.362231 0.129293 0.559259
v 0.281074 0.129293 0.579072
v 0.443464 0.129293 0.431185
v 0.362269 0.129293 0.559259
v 0.421708 0.129293 0.505129
v 0.443464 0.129293 -0.172650
v 0.281074 0.129293 -0.320537
v 0.421708 0.129293 -0.246594
v 0.362269 0.129293 -0.300724
v -0.281036 0.129293 -0.320537
v -0.443426 0.129293 -0.172650
v -0.362231 0.129293 -0.300724
v -0.421670 0.129293 -0.246594
v 0.188298 0.063842 0.474827
v 0.310265 0.063842 0.474827
v 0.310265 0.063842 0.352859
v 0.188298 0.063842 0.352859
v -0.312184 0.063842 0.352859
v -0.312184 0.063842 0.474827
v -0.190216 0.063842 0.474827
v -0.190216 0.063842 0.352859
v -0.190216 0.063842 -0.219546
v -0.312184 0.063842 -0.219546
v -0.312184 0.063842 -0.097578
v -0.190216 0.063842 -0.097578
v 0.310265 0.063842 -0.097578
v 0.310265 0.063842 -0.219546
v 0.188298 0.063842 -0.219546
v 0.188298 0.063842 -0.097578
v 0.297320 -0.696152 0.547972
v 0.391853 -0.696152 0.547972
v 0.391853 -0.696152 0.655823
v 0.297320 -0.696152 0.655823
v 0.331608 -0.696152 -0.251892
v 0.331608 -0.696152 -0.359743
v 0.426141 -0.696152 -0.359743
v 0.426141 -0.696152 -0.251892
v -0.333526 -0.696152 0.507173
v -0.333526 -0.696152 0.615024
v -0.428059 -0.696152 0.615024
v -0.428059 -0.696152 0.507173
v -0.299239 -0.696152 -0.292691
v -0.393772 -0.696152 -0.292691
v -0.393772 -0.696152 -0.400543
v -0.299239 -0.696152 -0.400542
v 0.412256 -0.886208 0.701086
v 0.412256 -0.886208 0.596765
v 0.324584 -0.886208 0.701086
v 0.324584 -0.886208 0.596765
v -0.457037 -0.886208 0.650084
v -0.369365 -0.886208 0.650084
v -0.457037 -0.886208 0.545763
v -0.369365 -0.886208 0.545763
v -0.414175 -0.886208 -0.445805
v -0.414175 -0.886208 -0.341484
v -0.326502 -0.886208 -0.445805
v -0.326502 -0.886208 -0.341484
v 0.455119 -0.886208 -0.394803
v 0.367446 -0.886208 -0.394803
v 0.455119 -0.886208 -0.290482
v 0.367446 -0.886208 -0.290482
v 0.297320 -0.696152 0.547972
v 0.391853 -0.696152 0.547972
v 0.391853 -0.696152 0.655823
v 0.297320 -0.696152 0.655823
v 0.331608 -0.696152 -0.251892
v 0.331608 -0.696152 -0.359743
v 0.426141 -0.696152 -0.359743
v 0.426141 -0.696152 -0.251892
v -0.333526 -0.696152 0.507173
v -0.333526 -0.696152 0.615024
v -0.428059 -0.696152 0.615024
v -0.428059 -0.696152 0.507173
v -0.299239 -0.696152 -0.292691
v -0.393772 -0.696152 -0.292691
v -0.393772 -0.696152 -0.400542
v -0.299239 -0.696152 -0.400542
vn 0.6893 0.7245 -0.0000
vn 0.9718 -0.2356 -0.0000
vn 0.8507 0.5257 -0.0000
vn -0.6893 0.7245 -0.0000
vn 0.8952 0.4456 -0.0000
vn -0.8060 -0.5919 -0.0000
vn -0.2111 0.9775 -0.0000
vn -0.9718 -0.2359 -0.0000
vn -0.8507 0.5257 -0.0000
vn 0.9989 -0.0475 -0.0000
vn -0.8952 0.4456 -0.0000
vn -0.5889 0.8082 -0.0000
vn -0.9989 -0.0475 -0.0000
vn 0.2111 0.9775 -0.0000
vn 0.5889 0.8082 -0.0000
vn 0.1252 0.9921 -0.0000
vn 0.9990 0.0447 -0.0000
vn -0.1252 0.9921 -0.0000
vn -0.0007 -1.0000 -0.0000
vn -0.9990 0.0446 -0.0000
vn 0.8060 -0.5919 -0.0000
vn -0.0000 -0.0000 1.0000
vn -0.0000 -0.0000 -1.0000
vn -0.9897 -0.0000 -0.1431
vn -0.9897 -0.0000 0.1431
vn 0.9897 -0.0000 0.1431
vn 0.9897 -0.0000 -0.1431
vn 0.1190 -0.0000 -0.9929
vn -0.1190 -0.0000 -0.9929
vn -0.0000 1.0000 -0.0000
vn -0.0000 -1.0000 -0.0000
vn -0.1190 -0.0000 0.9929
vn -0.4654 -0.0000 0.8851
vn -0.8446 -0.0000 0.5354
vn -0.4654 -0.0000 -0.8851
vn -0.8446 -0.0000 -0.5354
vn 0.4654 -0.0000 -0.8851
vn 0.8446 -0.0000 -0.5354
vn 0.1190 -0.0000 0.9929
vn 0.4654 -0.0000 0.8851
vn 0.8446 -0.0000 0.5354
vn -0.0000 -0.2487 -0.9686
vn -0.0000 0.2317 0.9728
vn -0.9899 -0.1420 -0.0000
vn 0.9943 0.1067 -0.0000
vn 0.9827 -0.1853 -0.0000
vn -0.9886 0.1507 -0.0000
vn -0.0000 -0.1990 -0.9800
vn -0.0000 0.1814 0.9834
vn -0.0000 -0.2487 0.9686
vn -0.0000 0.2317 -0.9728
vn 0.9899 -0.1420 -0.0000
vn -0.9943 0.1067 -0.0000
vn -0.9827 -0.1853 -0.0000
vn 0.9886 0.1507 -0.0000
vn -0.0000 -0.1990 0.9800
vn -0.0000 0.1814 -0.9834
vt 0.493799 0.943976
vt 0.493799 0.943976
vt 0.493799 0.943976
vt 0.493799 0.943976
vt 0.493799 0.943976
vt 0.493799 0.943976
vt 0.493799 0.943976
vt 0.493799 0.943976
vt 0.493799 0.943976
vt 0.493799 0.943976
vt 0.493799 0.943976
vt 0.493799 0.943976
vt 0.493799 0.943976
vt 0.493799 0.943976
vt 0.493799 0.943976
vt 0.493799 0.943976
vt 0.493799 0.943976
vt 0.493799 0.943976
vt 0.493799 0.943976
vt 0.493799 0.943976
vt 0.493799 0.943976
vt 0.493799 0.943976
vt 0.493799 0.943976
vt 0.493799 0.943976
vt 0.493799 0.943976
vt 0.493799 0.943976
vt 0.493799 0.943976
vt 0.493799 0.943976
vt 0.493799 0.943976
vt 0.493799 0.943976
vt 0.493799 0.943976
vt 0.493799 0.943976
vt 0.493799 0.943976
vt 0.493799 0.943976
vt 0.493799 0.943976
vt 0.493799 0.943976
vt 0.493799 0.943976
vt 0.493799 0.943976
vt 0.493799 0.943976
vt 0.493799 0.943976
vt 0.493799 0.943976
vt 0.493799 0.943976
vt 0.493799 0.943976
vt 0.493799 0.943976
vt 0.493799 0.943976
vt 0.493799 0.943976
vt 0.493799 0.943976
vt 0.493799 0.943976
vt 0.493799 0.943976
vt 0.493799 0.943976
vt 0.493799 0.943976
vt 0.493799 0.943976
vt 0.493799 0.943976
vt 0.493799 0.943976
vt 0.493799 0.943976
vt 0.493799 0.943976
vt 0.493799 0.943976
vt 0.493799 0.943976
vt 0.493799 0.943976
vt 0.493799 0.943976
vt 0.493799 0.943976
vt 0.493799 0.943976
vt 0.493799 0.943976
vt 0.493799 0.943976
vt 0.493799 0.943976
vt 0.493799 0.943976
vt 0.493799 0.943976
vt 0.493799 0.943976
vt 0.493799 0.943976
vt 0.493799 0.943976
vt 0.493799 0.943976
vt 0.493799 0.943976
vt 0.493799 0.943976
vt 0.493799 0.943976
vt 0.493799 0.943976
vt 0.493799 0.943976
vt 0.493799 0.943976
vt 0.493799 0.943976
vt 0.493799 0.943976
vt 0.493799 0.943976
vt 0.493799 0.943976
vt 0.493799 0.943976
vt 0.493799 0.943976
vt 0.493799 0.943976
vt 0.493799 0.943976
vt 0.493799 0.943976
vt 0.493799 0.943976
vt 0.493799 0.943976
vt 0.493799 0.943976
vt 0.493799 0.943976
vt 0.493799 0.943976
vt 0.493799 0.943976
vt 0.493799 0.943976
vt 0.493799 0.943976
vt 0.493799 0.943976
vt 0.493799 0.943976
vt 0.493799 0.943976
vt 0.493799 0.943976
vt 0.493799 0.943976
vt 0.493799 0.943976
vt 0.493799 0.943976
vt 0.493799 0.943976
vt 0.493799 0.943976
vt 0.493799 0.943976
vt 0.493799 0.943976
vt 0.493799 0.943976
vt 0.831742 0.094469
vt 0.831742 0.094469
vt 0.831742 0.094469
vt 0.831742 0.094469
vt 0.831742 0.094469
vt 0.831742 0.094469
vt 0.831742 0.094469
vt 0.831742 0.094469
vt 0.831742 0.094469
vt 0.831742 0.094469
vt 0.831742 0.094469
vt 0.831742 0.094469
vt 0.831742 0.094469
vt 0.831742 0.094469
vt 0.831742 0.094469
vt 0.831742 0.094469
vt 0.831742 0.094469
vt 0.831742 0.094469
vt 0.831742 0.094469
vt 0.831742 0.094469
vt 0.831742 0.094469
vt 0.831742 0.094469
vt 0.831742 0.094469
vt 0.831742 0.094469
vt 0.831742 0.094469
vt 0.831742 0.094469
vt 0.831742 0.094469
vt 0.831742 0.094469
vt 0.831742 0.094469
vt 0.831742 0.094469
vt 0.831742 0.094469
vt 0.831742 0.094469
s 0
usemtl Material
f 7/7/1 28/28/1 26/26/1 5/5/1
f 1/1/2 17/17/2 38/38/2 22/22/2
f 13/13/3 34/34/3 31/31/3 10/10/3
f 6/6/4 27/27/4 29/29/4 8/8/4
f 3/3/5 24/24/5 39/39/5 18/18/5
f 4/4/6 25/25/6 32/32/6 11/11/6
f 8/8/7 29/29/7 42/42/7 21/21/7
f 2/2/8 23/23/8 40/40/8 19/19/8
f 15/15/9 12/12/9 33/33/9 36/36/9
f 10/10/10 31/31/10 30/30/10 9/9/10
f 4/4/11 20/20/11 41/41/11 25/25/11
f 5/5/12 26/26/12 35/35/12 14/14/12
f 12/12/13 11/11/13 32/32/13 33/33/13
f 21/21/14 42/42/14 28/28/14 7/7/14
f 6/6/15 16/16/15 37/37/15 27/27/15
f 14/14/16 35/35/16 34/34/16 13/13/16
f 18/18/17 39/39/17 38/38/17 17/17/17
f 16/16/18 15/15/18 36/36/18 37/37/18
f 1/1/19 22/22/19 23/23/19 2/2/19
f 20/20/20 19/19/20 40/40/20 41/41/20
f 3/3/21 9/9/21 30/30/21 24/24/21
f 23/23/22 22/22/22 38/38/22 39/39/22 24/24/22 30/30/22 31/31/22 34/34/22 35/35/22 26/26/22 28/28/22 42/42/22 29/29/22 27/27/22 37/37/22 36/36/22 33/33/22 32/32/22 25/25/22 41/41/22 40/40/22
f 2/2/23 19/19/23 20/20/23 4/4/23 11/11/23 12/12/23 15/15/23 16/16/23 6/6/23 8/8/23 21/21/23 7/7/23 5/5/23 14/14/23 13/13/23 10/10/23 9/9/23 3/3/23 18/18/23 17/17/23 1/1/23
s 1
f 55/55/24 44/44/25 59/59/25 72/72/24
f 47/47/26 52/52/27 67/67/27 64/64/26
f 51/51/28 56/56/29 71/71/29 68/68/28
f 63/63/30 65/65/30 66/66/30 64/64/30 67/67/30 69/69/30 70/70/30 68/68/30 71/71/30 73/73/30 74/74/30 72/72/30 59/59/30 61/61/30 62/62/30 60/60/30
f 47/47/31 49/49/31 50/50/31 48/48/31 43/43/31 45/45/31 46/46/31 44/44/31 55/55/31 57/57/31 58/58/31 56/56/31 51/51/31 53/53/31 54/54/31 52/52/31
f 43/43/32 60/60/32 62/62/33 45/45/33
f 45/45/33 62/62/33 61/61/34 46/46/34
f 46/46/34 61/61/34 59/59/25 44/44/25
f 71/71/29 56/56/29 58/58/35 73/73/35
f 73/73/35 58/58/35 57/57/36 74/74/36
f 74/74/36 57/57/36 55/55/24 72/72/24
f 51/51/28 68/68/28 70/70/37 53/53/37
f 53/53/37 70/70/37 69/69/38 54/54/38
f 54/54/38 69/69/38 67/67/27 52/52/27
f 63/63/39 48/48/39 50/50/40 65/65/40
f 65/65/40 50/50/40 49/49/41 66/66/41
f 66/66/41 49/49/41 47/47/26 64/64/26
f 43/43/32 48/48/39 63/63/39 60/60/32
f 76/76/30 77/77/30 78/78/30 75/75/30
f 92/92/42 91/91/42 78/78/42 77/77/42
f 94/94/43 93/93/43 76/76/43 75/75/43
f 91/91/44 94/94/44 75/75/44 78/78/44
f 93/93/45 92/92/45 77/77/45 76/76/45
f 80/80/30 81/81/30 82/82/30 79/79/30
f 100/100/46 99/99/46 82/82/46 81/81/46
f 102/102/47 101/101/47 80/80/47 79/79/47
f 99/99/48 102/102/48 79/79/48 82/82/48
f 101/101/49 100/100/49 81/81/49 80/80/49
f 84/84/30 85/85/30 86/86/30 83/83/30
f 104/104/50 103/103/50 86/86/50 85/85/50
f 106/106/51 105/105/51 84/84/51 83/83/51
f 103/103/52 106/106/52 83/83/52 86/86/52
f 105/105/53 104/104/53 85/85/53 84/84/53
f 88/88/30 89/89/30 90/90/30 87/87/30
f 96/96/54 95/95/54 90/90/54 89/89/54
f 98/98/55 97/97/55 88/88/55 87/87/55
f 95/95/56 98/98/56 87/87/56 90/90/56
f 97/97/57 96/96/57 89/89/57 88/88/57
f 107/107/31 109/109/31 110/110/31 108/108/31
f 111/111/31 113/113/31 114/114/31 112/112/31
f 115/115/31 117/117/31 118/118/31 116/116/31
f 119/119/31 121/121/31 122/122/31 120/120/31
f 107/107/45 108/108/45 124/124/45 125/125/45
f 110/110/44 109/109/44 126/126/44 123/123/44
f 109/109/43 107/107/43 125/125/43 126/126/43
f 108/108/42 110/110/42 123/123/42 124/124/42
f 119/119/57 120/120/57 128/128/57 129/129/57
f 122/122/56 121/121/56 130/130/56 127/127/56
f 121/121/55 119/119/55 129/129/55 130/130/55
f 120/120/54 122/122/54 127/127/54 128/128/54
f 111/111/49 112/112/49 132/132/49 133/133/49
f 114/114/48 113/113/48 134/134/48 131/131/48
f 113/113/47 111/111/47 133/133/47 134/134/47
f 112/112/46 114/114/46 131/131/46 132/132/46
f 115/115/53 116/116/53 136/136/53 137/137/53
f 118/118/52 117/117/52 138/138/52 135/135/52
f 117/117/51 115/115/51 137/137/51 138/138/51
f 116/116/50 118/118/50 135/135/50 136/136/50
