# Blender 3.4.1
# www.blender.org
mtllib childrenchair011.mtl
o children_chair.010
v -0.006397 0.339309 0.656560
v -0.006397 0.209080 0.790138
v -0.006397 0.301166 0.751014
v -0.217969 0.339309 0.608270
v -0.275926 0.209080 0.728619
v -0.258951 0.301166 0.693370
v -0.387636 0.339309 0.472965
v -0.492072 0.209080 0.556249
v -0.461483 0.301166 0.531856
v -0.481795 0.339309 0.277444
v -0.612023 0.209080 0.307167
v -0.573880 0.301166 0.298461
v -0.481795 0.339309 0.060431
v -0.612023 0.209080 0.030707
v -0.573880 0.301166 0.039413
v -0.387636 0.339309 -0.135091
v -0.492072 0.209080 -0.218375
v -0.461483 0.301166 -0.193982
v -0.217969 0.339309 -0.270396
v -0.275926 0.209080 -0.390745
v -0.258951 0.301166 -0.355496
v -0.006397 0.339309 -0.318686
v -0.006397 0.209080 -0.452263
v -0.006397 0.301166 -0.413139
v 0.205174 0.339309 -0.270396
v 0.263131 0.209080 -0.390745
v 0.246156 0.301166 -0.355496
v 0.374842 0.339309 -0.135091
v 0.479277 0.209080 -0.218375
v 0.448688 0.301166 -0.193981
v 0.469000 0.339309 0.060431
v 0.599228 0.209080 0.030707
v 0.561085 0.301166 0.039413
v 0.469000 0.339309 0.277444
v 0.599228 0.209080 0.307167
v 0.561085 0.301166 0.298462
v 0.374842 0.339309 0.472965
v 0.479277 0.209080 0.556249
v 0.448688 0.301166 0.531856
v 0.205174 0.339309 0.608270
v 0.263131 0.209080 0.728619
v 0.246156 0.301166 0.693370
v -0.006397 -0.946666 0.790138
v -0.006397 -1.065573 0.668173
v -0.006397 -1.030746 0.754415
v -0.223008 -1.065573 0.618733
v -0.275926 -0.946666 0.728619
v -0.260427 -1.030746 0.696434
v -0.396716 -1.065573 0.480205
v -0.492072 -0.946666 0.556249
v -0.464142 -1.030746 0.533977
v -0.493116 -1.065573 0.280028
v -0.612023 -0.946666 0.307167
v -0.577196 -1.030746 0.299218
v -0.493116 -1.065573 0.057847
v -0.612023 -0.946666 0.030707
v -0.577196 -1.030746 0.038656
v -0.396716 -1.065573 -0.142331
v -0.492072 -0.946666 -0.218375
v -0.464142 -1.030746 -0.196102
v -0.223008 -1.065573 -0.280858
v -0.275926 -0.946666 -0.390745
v -0.260427 -1.030746 -0.358560
v -0.006397 -1.065573 -0.330298
v -0.006397 -0.946666 -0.452263
v -0.006397 -1.030746 -0.416540
v 0.210213 -1.065573 -0.280858
v 0.263131 -0.946666 -0.390745
v 0.247632 -1.030746 -0.358560
v 0.383921 -1.065573 -0.142331
v 0.479277 -0.946666 -0.218375
v 0.451348 -1.030746 -0.196102
v 0.480321 -1.065573 0.057847
v 0.599228 -0.946666 0.030707
v 0.564401 -1.030746 0.038656
v 0.480321 -1.065573 0.280028
v 0.599228 -0.946666 0.307167
v 0.564401 -1.030746 0.299218
v 0.383921 -1.065573 0.480205
v 0.479277 -0.946666 0.556249
v 0.451348 -1.030746 0.533977
v 0.210213 -1.065573 0.618733
v 0.263131 -0.946666 0.728619
v 0.247632 -1.030746 0.696434
v -0.259339 0.266713 -0.309251
v -0.005076 0.266713 -0.368913
v 0.246545 0.266713 -0.309251
v 0.006011 0.397005 -0.364166
v 0.277477 0.397383 -0.302215
v -0.259339 0.388858 -0.309253
v 0.010189 0.388826 -0.370771
v 0.032258 0.759346 -0.374077
v 0.362047 0.759292 -0.298805
v -0.308110 0.785155 -0.305195
v -0.005101 0.785123 -0.374352
v 0.055113 1.158075 -0.373688
v 0.450802 1.157968 -0.305201
v -0.408177 1.184753 -0.304854
v -0.008673 1.184825 -0.373999
v 0.150822 1.290555 -0.357096
v 0.357253 1.290555 -0.321368
v -0.316932 1.317991 -0.321198
v -0.108514 1.317991 -0.357270
v -0.275926 0.266713 -0.381925
v -0.006397 0.266713 -0.443443
v 0.263131 0.266713 -0.381925
v 0.022593 0.395551 -0.436826
v 0.294059 0.395552 -0.374866
v -0.275926 0.388187 -0.381925
v -0.006397 0.388187 -0.443443
v 0.047824 0.756452 -0.446919
v 0.377431 0.756452 -0.371689
v -0.323482 0.783579 -0.378119
v -0.020605 0.783579 -0.447249
v 0.068942 1.156450 -0.446919
v 0.464558 1.156450 -0.378449
v -0.421868 1.183577 -0.378119
v -0.022443 1.183577 -0.447249
v 0.163535 1.290555 -0.430548
v 0.369966 1.290555 -0.394820
v -0.329643 1.317681 -0.394648
v -0.121224 1.317681 -0.430720
vn -0.4256 0.1942 0.8838
vn -0.4256 -0.1942 0.8838
vn -0.7669 -0.1942 0.6116
vn -0.7669 0.1942 0.6116
vn -0.9564 0.1942 0.2183
vn -0.9564 -0.1942 0.2183
vn -0.9564 -0.1942 -0.2183
vn -0.9564 0.1942 -0.2183
vn -0.7669 -0.1942 -0.6116
vn -0.7669 0.1942 -0.6116
vn -0.4256 -0.1942 -0.8838
vn -0.4256 0.1942 -0.8838
vn -0.0000 -0.1942 -0.9810
vn -0.0000 0.1942 -0.9810
vn 0.4256 -0.1942 -0.8838
vn 0.4256 0.1942 -0.8838
vn 0.7669 -0.1942 -0.6116
vn 0.7669 0.1942 -0.6116
vn 0.9564 -0.1942 -0.2183
vn 0.9564 0.1942 -0.2183
vn 0.9564 -0.1942 0.2183
vn 0.9564 0.1942 0.2183
vn 0.7669 -0.1942 0.6116
vn 0.7669 0.1942 0.6116
vn 0.4256 -0.1942 0.8838
vn 0.4256 0.1942 0.8838
vn -0.0000 -0.1942 0.9810
vn -0.0000 0.1942 0.9810
vn -0.0940 -0.9762 0.1952
vn -0.0000 -0.9762 0.2167
vn 0.0940 -0.9762 0.1952
vn 0.1694 -0.9762 0.1351
vn 0.2113 -0.9762 0.0482
vn 0.2113 -0.9762 -0.0482
vn 0.1694 -0.9762 -0.1351
vn 0.0940 -0.9762 -0.1952
vn -0.0000 -0.9762 -0.2167
vn -0.0940 -0.9762 -0.1952
vn -0.1694 -0.9762 -0.1351
vn -0.2113 -0.9762 -0.0482
vn -0.2113 -0.9762 0.0482
vn -0.1694 -0.9762 0.1351
vn -0.3152 0.6872 0.6545
vn -0.0000 0.6872 0.7265
vn -0.0940 0.9762 0.1952
vn -0.0000 0.9762 0.2167
vn -0.5680 0.6872 0.4529
vn -0.1694 0.9762 0.1351
vn -0.7082 0.6872 0.1617
vn -0.2113 0.9762 0.0482
vn -0.7082 0.6872 -0.1617
vn -0.2113 0.9762 -0.0482
vn -0.5680 0.6872 -0.4529
vn -0.1694 0.9762 -0.1351
vn -0.3152 0.6872 -0.6545
vn -0.0940 0.9762 -0.1952
vn -0.0000 0.6872 -0.7265
vn -0.0000 0.9762 -0.2167
vn 0.3152 0.6872 -0.6545
vn 0.0940 0.9762 -0.1952
vn 0.5680 0.6872 -0.4529
vn 0.1694 0.9762 -0.1351
vn 0.7082 0.6872 -0.1617
vn 0.2113 0.9762 -0.0482
vn 0.7082 0.6872 0.1617
vn 0.2113 0.9762 0.0482
vn 0.5680 0.6872 0.4529
vn 0.1694 0.9762 0.1351
vn 0.3152 0.6872 0.6545
vn 0.0940 0.9762 0.1952
vn -0.0000 -0.6872 0.7265
vn -0.3152 -0.6872 0.6545
vn -0.5680 -0.6872 0.4529
vn -0.7082 -0.6872 0.1617
vn -0.7082 -0.6872 -0.1617
vn -0.5680 -0.6872 -0.4529
vn -0.3152 -0.6872 -0.6545
vn -0.0000 -0.6872 -0.7265
vn 0.3152 -0.6872 -0.6545
vn 0.5680 -0.6872 -0.4529
vn 0.7082 -0.6872 -0.1617
vn 0.7082 -0.6872 0.1617
vn 0.5680 -0.6872 0.4529
vn 0.3152 -0.6872 0.6545
vn -0.2264 -0.0075 0.9740
vn 0.2254 -0.0067 0.9742
vn -0.2223 0.0428 0.9740
vn 0.2225 0.0174 0.9748
vn 0.1931 0.0242 0.9809
vn -0.1943 0.0346 0.9803
vn 0.1705 0.0041 0.9853
vn -0.1705 -0.0002 0.9854
vn 0.2225 -0.0000 -0.9749
vn -0.2225 -0.0000 -0.9749
vn 0.2223 -0.0428 -0.9740
vn -0.2225 -0.0174 -0.9748
vn -0.1931 -0.0242 -0.9809
vn 0.1943 -0.0346 -0.9803
vn -0.1705 -0.0042 -0.9853
vn 0.1705 -0.0000 -0.9854
vn -0.0000 -1.0000 -0.0000
vn 0.9464 -0.2375 0.2190
vn -0.9823 0.1565 -0.1034
vn 0.9907 -0.0630 -0.1203
vn -0.9749 -0.0000 0.2225
vn 0.9506 -0.2228 0.2160
vn -0.9741 0.0633 -0.2171
vn 0.9759 0.0343 -0.2156
vn -0.9693 -0.1201 0.2146
vn 0.9805 0.0067 -0.1965
vn -0.9521 -0.2364 0.1937
vn 0.9581 -0.2077 0.1972
vn -0.9786 0.0540 -0.1986
vn -0.0000 1.0000 -0.0000
vn -0.0007 1.0000 -0.0041
vn 0.7849 0.6017 -0.1481
vn -0.8083 0.5719 0.1397
vn 0.8012 0.5821 0.1385
vn -0.7957 0.5866 -0.1505
vt 0.493799 0.943976
vt 0.493799 0.943976
vt 0.493799 0.943976
vt 0.493799 0.943976
vt 0.493799 0.943976
vt 0.493799 0.943976
vt 0.493799 0.943976
vt 0.493799 0.943976
vt 0.493799 0.943976
vt 0.493799 0.943976
vt 0.493799 0.943976
vt 0.493799 0.943976
vt 0.493799 0.943976
vt 0.493799 0.943976
vt 0.493799 0.943976
vt 0.493799 0.943976
vt 0.493799 0.943976
vt 0.493799 0.943976
vt 0.493799 0.943976
vt 0.493799 0.943976
vt 0.493799 0.943976
vt 0.493799 0.943976
vt 0.493799 0.943976
vt 0.493799 0.943976
vt 0.493799 0.943976
vt 0.493799 0.943976
vt 0.493799 0.943976
vt 0.493799 0.943976
vt 0.493799 0.943976
vt 0.493799 0.943976
vt 0.493799 0.943976
vt 0.493799 0.943976
vt 0.493799 0.943976
vt 0.493799 0.943976
vt 0.493799 0.943976
vt 0.493799 0.943976
vt 0.493799 0.943976
vt 0.493799 0.943976
vt 0.493799 0.943976
vt 0.493799 0.943976
vt 0.493799 0.943976
vt 0.493799 0.943976
vt 0.493799 0.943976
vt 0.493799 0.943976
vt 0.493799 0.943976
vt 0.493799 0.943976
vt 0.493799 0.943976
vt 0.493799 0.943976
vt 0.493799 0.943976
vt 0.493799 0.943976
vt 0.493799 0.943976
vt 0.493799 0.943976
vt 0.493799 0.943976
vt 0.493799 0.943976
vt 0.493799 0.943976
vt 0.493799 0.943976
vt 0.493799 0.943976
vt 0.493799 0.943976
vt 0.493799 0.943976
vt 0.493799 0.943976
vt 0.493799 0.943976
vt 0.493799 0.943976
vt 0.493799 0.943976
vt 0.493799 0.943976
vt 0.493799 0.943976
vt 0.493799 0.943976
vt 0.493799 0.943976
vt 0.493799 0.943976
vt 0.493799 0.943976
vt 0.493799 0.943976
vt 0.493799 0.943976
vt 0.493799 0.943976
vt 0.493799 0.943976
vt 0.493799 0.943976
vt 0.493799 0.943976
vt 0.493799 0.943976
vt 0.493799 0.943976
vt 0.493799 0.943976
vt 0.493799 0.943976
vt 0.493799 0.943976
vt 0.493799 0.943976
vt 0.493799 0.943976
vt 0.493799 0.943976
vt 0.493799 0.943976
vt 0.493799 0.943976
vt 0.493799 0.943976
vt 0.493799 0.943976
vt 0.493799 0.943976
vt 0.493799 0.943976
vt 0.493799 0.943976
vt 0.493799 0.943976
vt 0.493799 0.943976
vt 0.493799 0.943976
vt 0.493799 0.943976
vt 0.493799 0.943976
vt 0.493799 0.943976
vt 0.493799 0.943976
vt 0.493799 0.943976
vt 0.493799 0.943976
vt 0.493799 0.943976
vt 0.493799 0.943976
vt 0.493799 0.943976
vt 0.493799 0.943976
vt 0.493799 0.943976
vt 0.493799 0.943976
vt 0.493799 0.943976
vt 0.493799 0.943976
vt 0.493799 0.943976
vt 0.493799 0.943976
vt 0.493799 0.943976
vt 0.493799 0.943976
vt 0.493799 0.943976
vt 0.493799 0.943976
vt 0.493799 0.943976
vt 0.493799 0.943976
vt 0.493799 0.943976
vt 0.493799 0.943976
vt 0.493799 0.943976
vt 0.493799 0.943976
vt 0.493799 0.943976
vt 0.493799 0.943976
vt 0.493799 0.943976
s 1
usemtl Material
f 5/5/1 8/8/4 50/50/3 47/47/2
f 11/11/5 14/14/8 56/56/7 53/53/6
f 14/14/8 17/17/10 59/59/9 56/56/7
f 17/17/10 20/20/12 62/62/11 59/59/9
f 20/20/12 23/23/14 65/65/13 62/62/11
f 23/23/14 26/26/16 68/68/15 65/65/13
f 26/26/16 29/29/18 71/71/17 68/68/15
f 29/29/18 32/32/20 74/74/19 71/71/17
f 32/32/20 35/35/22 77/77/21 74/74/19
f 35/35/22 38/38/24 80/80/23 77/77/21
f 38/38/24 41/41/26 83/83/25 80/80/23
f 41/41/26 2/2/28 43/43/27 83/83/25
f 8/8/4 11/11/5 53/53/6 50/50/3
f 46/46/29 49/49/42 52/52/41 55/55/40 58/58/39 61/61/38 64/64/37 67/67/36 70/70/35 73/73/34 76/76/33 79/79/32 82/82/31 44/44/30
f 2/2/28 3/3/44 6/6/43 5/5/1
f 3/3/44 1/1/46 4/4/45 6/6/43
f 5/5/1 6/6/43 9/9/47 8/8/4
f 6/6/43 4/4/45 7/7/48 9/9/47
f 8/8/4 9/9/47 12/12/49 11/11/5
f 9/9/47 7/7/48 10/10/50 12/12/49
f 11/11/5 12/12/49 15/15/51 14/14/8
f 12/12/49 10/10/50 13/13/52 15/15/51
f 14/14/8 15/15/51 18/18/53 17/17/10
f 15/15/51 13/13/52 16/16/54 18/18/53
f 17/17/10 18/18/53 21/21/55 20/20/12
f 18/18/53 16/16/54 19/19/56 21/21/55
f 20/20/12 21/21/55 24/24/57 23/23/14
f 21/21/55 19/19/56 22/22/58 24/24/57
f 23/23/14 24/24/57 27/27/59 26/26/16
f 24/24/57 22/22/58 25/25/60 27/27/59
f 26/26/16 27/27/59 30/30/61 29/29/18
f 27/27/59 25/25/60 28/28/62 30/30/61
f 29/29/18 30/30/61 33/33/63 32/32/20
f 30/30/61 28/28/62 31/31/64 33/33/63
f 32/32/20 33/33/63 36/36/65 35/35/22
f 33/33/63 31/31/64 34/34/66 36/36/65
f 35/35/22 36/36/65 39/39/67 38/38/24
f 36/36/65 34/34/66 37/37/68 39/39/67
f 38/38/24 39/39/67 42/42/69 41/41/26
f 39/39/67 37/37/68 40/40/70 42/42/69
f 41/41/26 42/42/69 3/3/44 2/2/28
f 42/42/69 40/40/70 1/1/46 3/3/44
f 1/1/46 40/40/70 37/37/68 34/34/66 31/31/64 28/28/62 25/25/60 22/22/58 19/19/56 16/16/54 13/13/52 10/10/50 7/7/48 4/4/45
f 47/47/2 48/48/72 45/45/71 43/43/27
f 48/48/72 46/46/29 44/44/30 45/45/71
f 50/50/3 51/51/73 48/48/72 47/47/2
f 51/51/73 49/49/42 46/46/29 48/48/72
f 53/53/6 54/54/74 51/51/73 50/50/3
f 54/54/74 52/52/41 49/49/42 51/51/73
f 56/56/7 57/57/75 54/54/74 53/53/6
f 57/57/75 55/55/40 52/52/41 54/54/74
f 59/59/9 60/60/76 57/57/75 56/56/7
f 60/60/76 58/58/39 55/55/40 57/57/75
f 62/62/11 63/63/77 60/60/76 59/59/9
f 63/63/77 61/61/38 58/58/39 60/60/76
f 65/65/13 66/66/78 63/63/77 62/62/11
f 66/66/78 64/64/37 61/61/38 63/63/77
f 68/68/15 69/69/79 66/66/78 65/65/13
f 69/69/79 67/67/36 64/64/37 66/66/78
f 71/71/17 72/72/80 69/69/79 68/68/15
f 72/72/80 70/70/35 67/67/36 69/69/79
f 74/74/19 75/75/81 72/72/80 71/71/17
f 75/75/81 73/73/34 70/70/35 72/72/80
f 77/77/21 78/78/82 75/75/81 74/74/19
f 78/78/82 76/76/33 73/73/34 75/75/81
f 80/80/23 81/81/83 78/78/82 77/77/21
f 81/81/83 79/79/32 76/76/33 78/78/82
f 83/83/25 84/84/84 81/81/83 80/80/23
f 84/84/84 82/82/31 79/79/32 81/81/83
f 43/43/27 45/45/71 84/84/84 83/83/25
f 45/45/71 44/44/30 82/82/31 84/84/84
f 2/2/28 5/5/1 47/47/2 43/43/27
s 0
f 87/87/85 89/89/85 88/88/85 86/86/85
f 86/86/86 91/91/86 90/90/86 85/85/86
f 89/89/87 93/93/87 92/92/87 88/88/87
f 91/91/88 95/95/88 94/94/88 90/90/88
f 95/95/89 99/99/89 98/98/89 94/94/89
f 93/93/90 97/97/90 96/96/90 92/92/90
f 99/99/91 103/103/91 102/102/91 98/98/91
f 97/97/92 101/101/92 100/100/92 96/96/92
f 106/106/93 105/105/93 107/107/93 108/108/93
f 105/105/94 104/104/94 109/109/94 110/110/94
f 108/108/95 107/107/95 111/111/95 112/112/95
f 110/110/96 109/109/96 113/113/96 114/114/96
f 114/114/97 113/113/97 117/117/97 118/118/97
f 112/112/98 111/111/98 115/115/98 116/116/98
f 118/118/99 117/117/99 121/121/99 122/122/99
f 116/116/100 115/115/100 119/119/100 120/120/100
f 85/85/101 104/104/101 105/105/101 86/86/101
f 86/86/101 105/105/101 106/106/101 87/87/101
f 87/87/102 106/106/102 108/108/102 89/89/102
f 88/88/103 107/107/103 105/105/103 86/86/103
f 86/86/104 105/105/104 110/110/104 91/91/104
f 90/90/105 109/109/105 104/104/105 85/85/105
f 89/89/106 108/108/106 112/112/106 93/93/106
f 92/92/107 111/111/107 107/107/107 88/88/107
f 91/91/108 110/110/108 114/114/108 95/95/108
f 94/94/109 113/113/109 109/109/109 90/90/109
f 95/95/110 114/114/110 118/118/110 99/99/110
f 98/98/111 117/117/111 113/113/111 94/94/111
f 93/93/112 112/112/112 116/116/112 97/97/112
f 96/96/113 115/115/113 111/111/113 92/92/113
f 101/101/114 120/120/114 119/119/114 100/100/114
f 103/103/115 122/122/115 121/121/115 102/102/115
f 99/99/116 118/118/116 122/122/116 103/103/116
f 102/102/117 121/121/117 117/117/117 98/98/117
f 97/97/118 116/116/118 120/120/118 101/101/118
f 100/100/119 119/119/119 115/115/119 96/96/119
