# Blender 3.4.1
# www.blender.org
mtllib console007.mtl
o consoles.007
v -2.422231 1.131968 0.930449
v 2.424798 1.131968 0.930429
v -2.422255 1.131968 -0.868962
v 2.424801 1.131968 -0.868955
v -2.494762 0.991131 -0.941466
v -2.494747 0.991131 1.002965
v 2.497333 0.991131 1.002960
v 2.497317 0.991131 -0.941472
v 2.497317 1.165256 -0.941472
v 2.497333 1.165256 1.002960
v -2.494747 1.165256 1.002965
v -2.494762 1.165256 -0.941466
v -2.422231 1.165256 0.930449
v 2.424798 1.165256 0.930429
v 2.424801 1.165256 -0.868955
v -2.422255 1.165256 -0.868962
v -2.422231 1.131968 0.930449
v 2.424798 1.131968 0.930429
v -2.422255 1.131968 -0.868962
v 2.424801 1.131968 -0.868955
v -2.321851 -2.132211 0.832388
v -2.096402 -2.132211 0.832388
v -2.096402 1.015867 0.832388
v -2.321851 1.015867 0.832388
v -2.321831 -2.132211 -0.869960
v -2.096382 -2.132211 -0.869960
v -2.096382 1.015867 -0.869960
v -2.321831 1.015867 -0.869960
v -2.096390 -2.053695 0.753882
v -2.096394 -2.053695 -0.791454
v -2.096394 0.937351 -0.791454
v -2.096390 0.937351 0.753882
v -2.321839 0.937351 0.753882
v -2.321842 0.937351 -0.791454
v -2.321842 -2.053695 -0.791454
v -2.321839 -2.053695 0.753882
v 2.321673 -2.132211 0.093942
v 2.321676 -2.132211 -0.131510
v 2.321676 1.015867 -0.131510
v 2.321673 1.015867 0.093942
v 0.619299 -2.132211 0.093933
v 0.619303 -2.132211 -0.131519
v 0.619303 1.015867 -0.131519
v 0.619299 1.015867 0.093933
v 2.243170 -2.053695 -0.131499
v 0.697834 -2.053695 -0.131502
v 0.697834 0.937351 -0.131502
v 2.243170 0.937351 -0.131499
v 2.243169 0.937351 0.093952
v 0.697832 0.937351 0.093948
v 0.697832 -2.053695 0.093948
v 2.243169 -2.053695 0.093952
v 0.688415 -2.063346 -0.018773
v 0.688415 0.943142 -0.018773
v 2.259670 0.943142 -0.018793
v 2.259670 -2.063346 -0.018793
v 0.688400 -2.063346 0.015338
v 0.688400 0.943142 0.015338
v 2.259682 0.943142 0.015345
v 2.259682 -2.063346 0.015345
vn -0.0000 1.0000 -0.0000
vn -0.0000 -1.0000 -0.0000
vn 1.0000 -0.0000 -0.0000
vn -0.0000 -0.0000 -1.0000
vn -1.0000 -0.0000 -0.0000
vn -0.0000 -0.0000 1.0000
vn 1.0000 -0.0000 0.0001
vn 1.0000 -0.0000 0.0002
vn -1.0000 -0.0000 -0.0001
vn -0.0000 0.0002 -1.0000
vn 0.0002 -0.0000 -1.0000
vn -0.0000 -0.0002 -1.0000
vn -0.0001 -0.0000 -1.0000
vn -0.0000 0.0002 1.0000
vn -0.0002 -0.0000 1.0000
vn -0.0000 -0.0002 1.0000
vn 0.0001 -0.0000 1.0000
vn -1.0000 -0.0000 -0.0004
vn 1.0000 -0.0000 -0.0003
vt 0.675768 0.506677
vt 0.675768 0.506677
vt 0.675768 0.506677
vt 0.675768 0.506677
vt 0.691106 0.933645
vt 0.691106 0.933645
vt 0.691106 0.933645
vt 0.691106 0.933645
vt 0.691106 0.933645
vt 0.691106 0.933645
vt 0.691106 0.933645
vt 0.691106 0.933645
vt 0.691106 0.933645
vt 0.691106 0.933645
vt 0.691106 0.933645
vt 0.691106 0.933645
vt 0.691106 0.933645
vt 0.691106 0.933645
vt 0.691106 0.933645
vt 0.691106 0.933645
vt 0.691106 0.933645
vt 0.691106 0.933645
vt 0.691106 0.933645
vt 0.691106 0.933645
vt 0.691106 0.933645
vt 0.691106 0.933645
vt 0.691106 0.933645
vt 0.691106 0.933645
vt 0.691106 0.933645
vt 0.691106 0.933645
vt 0.691106 0.933645
vt 0.691106 0.933645
vt 0.691106 0.933645
vt 0.691106 0.933645
vt 0.691106 0.933645
vt 0.691106 0.933645
vt 0.691106 0.933645
vt 0.691106 0.933645
vt 0.691106 0.933645
vt 0.691106 0.933645
vt 0.691106 0.933645
vt 0.691106 0.933645
vt 0.691106 0.933645
vt 0.691106 0.933645
vt 0.691106 0.933645
vt 0.691106 0.933645
vt 0.691106 0.933645
vt 0.691106 0.933645
vt 0.691106 0.933645
vt 0.691106 0.933645
vt 0.691106 0.933645
vt 0.691106 0.933645
vt 0.675768 0.506677
vt 0.675768 0.506677
vt 0.675768 0.506677
vt 0.675768 0.506677
vt 0.675768 0.506677
vt 0.675768 0.506677
vt 0.675768 0.506677
vt 0.675768 0.506677
s 0
usemtl Material
f 1/1/1 2/2/1 4/4/1 3/3/1
f 6/6/2 5/5/2 8/8/2 7/7/2
f 7/7/3 8/8/3 9/9/3 10/10/3
f 8/8/4 5/5/4 12/12/4 9/9/4
f 5/5/5 6/6/5 11/11/5 12/12/5
f 14/14/5 15/15/5 20/20/5 18/18/5
f 6/6/6 7/7/6 10/10/6 11/11/6
f 11/11/1 10/10/1 14/14/1 13/13/1
f 10/10/1 9/9/1 15/15/1 14/14/1
f 9/9/1 12/12/1 16/16/1 15/15/1
f 12/12/1 11/11/1 13/13/1 16/16/1
f 13/13/4 14/14/4 18/18/4 17/17/4
f 15/15/6 16/16/6 19/19/6 20/20/6
f 16/16/3 13/13/3 17/17/3 19/19/3
f 21/21/6 22/22/6 23/23/6 24/24/6
f 25/25/4 28/28/4 27/27/4 26/26/4
f 23/23/1 27/27/1 28/28/1 24/24/1
f 33/33/2 34/34/2 31/31/2 32/32/2
f 36/36/4 33/33/4 32/32/4 29/29/4
f 21/21/2 25/25/2 26/26/2 22/22/2
f 22/22/3 26/26/3 30/30/3 29/29/3
f 26/26/7 27/27/7 31/31/7 30/30/7
f 27/27/3 23/23/3 32/32/3 31/31/3
f 23/23/8 22/22/8 29/29/8 32/32/8
f 24/24/5 28/28/5 34/34/5 33/33/5
f 28/28/9 25/25/9 35/35/9 34/34/9
f 25/25/5 21/21/5 36/36/5 35/35/5
f 21/21/9 24/24/9 33/33/9 36/36/9
f 34/34/6 35/35/6 30/30/6 31/31/6
f 35/35/1 36/36/1 29/29/1 30/30/1
f 37/37/3 38/38/3 39/39/3 40/40/3
f 41/41/5 44/44/5 43/43/5 42/42/5
f 39/39/1 43/43/1 44/44/1 40/40/1
f 49/49/2 50/50/2 47/47/2 48/48/2
f 52/52/5 49/49/5 48/48/5 45/45/5
f 37/37/2 41/41/2 42/42/2 38/38/2
f 38/38/10 42/42/10 46/46/10 45/45/10
f 42/42/11 43/43/11 47/47/11 46/46/11
f 43/43/12 39/39/12 48/48/12 47/47/12
f 39/39/13 38/38/13 45/45/13 48/48/13
f 40/40/14 44/44/14 50/50/14 49/49/14
f 44/44/15 41/41/15 51/51/15 50/50/15
f 41/41/16 37/37/16 52/52/16 51/51/16
f 37/37/17 40/40/17 49/49/17 52/52/17
f 50/50/3 51/51/3 46/46/3 47/47/3
f 51/51/1 52/52/1 45/45/1 46/46/1
f 56/56/4 53/53/4 54/54/4 55/55/4
f 60/60/6 59/59/6 58/58/6 57/57/6
f 54/54/18 53/53/18 57/57/18 58/58/18
f 55/55/1 54/54/1 58/58/1 59/59/1
f 56/56/19 55/55/19 59/59/19 60/60/19
f 53/53/2 56/56/2 60/60/2 57/57/2
