# Blender 3.4.1
# www.blender.org
mtllib console002.mtl
o consoles.002
v 2.951379 1.515790 -1.058340
v -2.957258 1.515790 -1.058354
v -2.957260 1.515790 1.060886
v 2.951376 1.515790 1.060901
v 2.951379 1.302670 -1.058340
v -2.957258 1.302670 -1.058354
v -2.957260 1.302670 1.060886
v 2.951376 1.302670 1.060901
v 1.557492 1.307123 -0.198052
v -1.563408 1.307123 -0.198042
v -1.563408 1.307123 0.197504
v 1.557492 1.307123 0.197494
v 1.557492 -1.979897 -0.198052
v -1.563408 -1.979897 -0.198042
v -1.563408 -1.979897 0.197504
v 1.557492 -1.979897 0.197494
v -0.214183 -1.301181 -0.198029
v -0.608420 -1.125663 -0.198044
v 0.611555 -1.125663 -0.198039
v 0.217347 -1.301181 -0.198029
v 1.033654 -0.394568 -0.198049
v 0.900298 -0.804975 -0.198052
v 0.988546 0.034596 -0.198042
v 0.772795 0.408310 -0.198029
v -1.030512 -0.394568 -0.198040
v -0.985408 0.034596 -0.198044
v -0.897156 -0.804975 -0.198037
v -0.769631 0.408310 -0.198029
v 0.001570 0.751675 -0.198044
v -0.420522 0.661956 -0.198041
v 0.423664 0.661956 -0.198049
v -1.030512 -0.394568 0.197506
v -0.985406 0.034596 0.197501
v -0.897156 -0.804975 0.197509
v -0.769631 0.408310 0.197518
v -0.608420 -1.125663 0.197503
v -0.214183 -1.301181 0.197518
v 0.611555 -1.125663 0.197508
v 0.217347 -1.301181 0.197518
v -0.420522 0.661956 0.197506
v 0.423662 0.661956 0.197499
v 0.001570 0.751675 0.197503
v 0.900298 -0.804975 0.197494
v 0.772795 0.408310 0.197518
v 1.033654 -0.394568 0.197498
v 0.988546 0.034596 0.197504
vn -0.0000 1.0000 -0.0000
vn 1.0000 -0.0000 -0.0000
vn -0.0000 -0.0000 -1.0000
vn -1.0000 -0.0000 -0.0000
vn -0.0000 -0.0000 1.0000
vn -0.0000 -1.0000 -0.0000
vn -0.2079 -0.9781 -0.0000
vn -0.5878 -0.8090 -0.0000
vn -0.8660 -0.5000 -0.0000
vn -0.9945 -0.1045 -0.0000
vn -0.9511 0.3090 -0.0000
vn -0.7432 0.6691 -0.0000
vn -0.4067 0.9135 -0.0000
vn 0.4067 0.9136 -0.0000
vn 0.7432 0.6691 -0.0000
vn 0.9511 0.3090 -0.0000
vn 0.9945 -0.1045 -0.0000
vn 0.8660 -0.5000 -0.0000
vn 0.5878 -0.8090 -0.0000
vn 0.2079 -0.9781 -0.0000
vt 0.846126 0.096539
vt 0.846126 0.096539
vt 0.846126 0.096539
vt 0.846126 0.096539
vt 0.846126 0.096539
vt 0.846126 0.096539
vt 0.846126 0.096539
vt 0.846126 0.096539
vt 0.266352 0.474787
vt 0.266352 0.474787
vt 0.266352 0.474787
vt 0.266352 0.474787
vt 0.266352 0.474787
vt 0.266352 0.474787
vt 0.266352 0.474787
vt 0.266352 0.474787
vt 0.266352 0.474787
vt 0.266352 0.474787
vt 0.266352 0.474787
vt 0.266352 0.474787
vt 0.266352 0.474787
vt 0.266352 0.474787
vt 0.266352 0.474787
vt 0.266352 0.474787
vt 0.266352 0.474787
vt 0.266352 0.474787
vt 0.266352 0.474787
vt 0.266352 0.474787
vt 0.266352 0.474787
vt 0.266352 0.474787
vt 0.266352 0.474787
vt 0.266352 0.474787
vt 0.266352 0.474787
vt 0.266352 0.474787
vt 0.266352 0.474787
vt 0.266352 0.474787
vt 0.266352 0.474787
vt 0.266352 0.474787
vt 0.266352 0.474787
vt 0.266352 0.474787
vt 0.266352 0.474787
vt 0.266352 0.474787
vt 0.266352 0.474787
vt 0.266352 0.474787
vt 0.266352 0.474787
vt 0.266352 0.474787
s 1
usemtl Material
f 2/2/1 3/3/1 4/4/1 1/1/1
f 4/4/2 8/8/2 5/5/2 1/1/2
f 1/1/3 5/5/3 6/6/3 2/2/3
f 2/2/4 6/6/4 7/7/4 3/3/4
f 3/3/5 7/7/5 8/8/5 4/4/5
f 5/5/6 8/8/6 7/7/6 6/6/6
f 10/10/1 11/11/1 12/12/1 9/9/1
f 12/12/2 16/16/2 13/13/2 9/9/2
f 23/23/3 9/9/3 13/13/3 14/14/3 10/10/3 26/26/3 25/25/3 27/27/3 18/18/3 17/17/3 20/20/3 19/19/3 22/22/3 21/21/3
f 10/10/3 9/9/3 23/23/3 24/24/3 31/31/3 29/29/3 30/30/3 28/28/3 26/26/3
f 10/10/4 14/14/4 15/15/4 11/11/4
f 33/33/5 11/11/5 15/15/5 16/16/5 12/12/5 46/46/5 45/45/5 43/43/5 38/38/5 39/39/5 37/37/5 36/36/5 34/34/5 32/32/5
f 46/46/5 12/12/5 11/11/5 33/33/5 35/35/5 40/40/5 42/42/5 41/41/5 44/44/5
f 13/13/6 16/16/6 15/15/6 14/14/6
f 31/31/7 41/41/7 42/42/7 29/29/7
f 24/24/8 44/44/8 41/41/8 31/31/8
f 23/23/9 46/46/9 44/44/9 24/24/9
f 23/23/10 21/21/10 45/45/10 46/46/10
f 21/21/11 22/22/11 43/43/11 45/45/11
f 22/22/12 19/19/12 38/38/12 43/43/12
f 19/19/13 20/20/13 39/39/13 38/38/13
f 20/20/1 17/17/1 37/37/1 39/39/1
f 17/17/14 18/18/14 36/36/14 37/37/14
f 18/18/15 27/27/15 34/34/15 36/36/15
f 25/25/16 32/32/16 34/34/16 27/27/16
f 26/26/17 33/33/17 32/32/17 25/25/17
f 28/28/18 35/35/18 33/33/18 26/26/18
f 35/35/19 28/28/19 30/30/19 40/40/19
f 29/29/20 42/42/20 40/40/20 30/30/20
