# Blender 3.4.1
# www.blender.org
mtllib console019.mtl
o consoles.019
v 2.964880 1.476262 0.216297
v 2.219084 1.476262 0.962093
v 2.863442 1.476262 0.594812
v 2.597599 1.476262 0.860655
v -2.966280 1.476262 0.216309
v -2.220504 1.476262 0.962086
v -2.864871 1.476262 0.594821
v -2.599013 1.476262 0.860674
v -2.220477 1.476262 -0.967551
v -2.966270 1.476262 -0.221758
v -2.599044 1.476262 -0.866169
v -2.864889 1.476262 -0.600324
v 2.219057 1.476262 -0.967599
v 2.964889 1.476262 -0.221769
v 2.597621 1.476262 -0.866135
v 2.863477 1.476262 -0.600279
v 3.081675 0.887848 0.231674
v 2.234461 0.887848 1.078888
v 2.968165 0.887848 0.655277
v 2.658063 0.887848 0.965379
v -3.083076 0.887848 0.231683
v -2.235879 0.887848 1.078884
v -2.969576 0.887848 0.655289
v -2.659480 0.887848 0.965379
v -2.235854 0.887848 -1.084347
v -3.083066 0.887848 -0.237135
v -2.659454 0.887848 -0.970839
v -2.969558 0.887848 -0.660735
v 2.234485 0.887848 -1.084342
v 3.081685 0.887848 -0.237143
v 2.658090 0.887848 -0.970840
v 2.968183 0.887848 -0.660747
v 3.081675 0.766317 0.231674
v 2.234461 0.766317 1.078888
v 2.968165 0.766317 0.655277
v 2.658066 0.766317 0.965376
v -3.083076 0.766317 0.231683
v -2.235876 0.766317 1.078881
v -2.969573 0.766317 0.655286
v -2.659483 0.766317 0.965382
v -2.235852 0.766317 -1.084349
v -3.083066 0.766317 -0.237135
v -2.659457 0.766317 -0.970837
v -2.969556 0.766317 -0.660737
v 2.234485 0.766317 -1.084342
v 3.081685 0.766317 -0.237143
v 2.658092 0.766317 -0.970843
v 2.968183 0.766317 -0.660747
v -3.083066 0.650669 -0.237135
v -3.083076 0.650669 0.231683
v -2.969573 0.650669 0.655286
v -2.659483 0.650669 0.965382
v -2.235876 0.650669 1.078881
v 2.234461 0.650669 1.078888
v 2.658066 0.650669 0.965376
v 2.968165 0.650669 0.655277
v 3.081675 0.650669 0.231674
v 3.081685 0.650669 -0.237143
v 2.968183 0.650669 -0.660747
v 2.658092 0.650669 -0.970843
v 2.234485 0.650669 -1.084342
v -2.235852 0.650669 -1.084349
v -2.659457 0.650669 -0.970837
v -2.969556 0.650669 -0.660737
v -3.003505 0.766317 0.221166
v -2.898232 0.766317 0.614048
v -2.618296 0.766317 0.893984
v -2.225412 0.766317 0.999255
v 2.223978 0.766317 0.999278
v 2.616882 0.766317 0.894025
v 2.896813 0.766317 0.614094
v 3.002065 0.766317 0.221191
v 3.002060 0.766317 -0.226680
v 2.896784 0.766317 -0.619560
v 2.616851 0.766317 -0.899499
v 2.223967 0.766317 -1.004770
v -2.225369 0.766317 -1.004738
v -2.618273 0.766317 -0.899485
v -2.898206 0.766317 -0.619552
v -3.003456 0.766317 -0.226651
v -3.003505 0.650669 0.221166
v -3.003456 0.650669 -0.226651
v -2.898206 0.650669 -0.619552
v -2.618273 0.650669 -0.899485
v -2.225369 0.650669 -1.004738
v 2.223967 0.650669 -1.004770
v 2.616851 0.650669 -0.899499
v 2.896784 0.650669 -0.619560
v 3.002060 0.650669 -0.226680
v 3.002065 0.650669 0.221191
v 2.896813 0.650669 0.614094
v 2.616882 0.650669 0.894025
v 2.223978 0.650669 0.999278
v -2.225412 0.650669 0.999255
v -2.618296 0.650669 0.893984
v -2.898232 0.650669 0.614048
v 3.081675 -1.567647 0.231674
v 2.234461 -1.567647 1.078888
v 2.968165 -1.567647 0.655277
v 2.658066 -1.567647 0.965376
v -3.083076 -1.567647 0.231683
v -2.235876 -1.567647 1.078881
v -2.969573 -1.567647 0.655286
v -2.659483 -1.567647 0.965382
v -2.235852 -1.567647 -1.084349
v -3.083066 -1.567647 -0.237135
v -2.659457 -1.567647 -0.970837
v -2.969556 -1.567647 -0.660737
v 2.234485 -1.567647 -1.084342
v 3.081685 -1.567647 -0.237143
v 2.658092 -1.567647 -0.970843
v 2.968183 -1.567647 -0.660747
v -3.083066 -1.683295 -0.237135
v -3.083076 -1.683295 0.231683
v -2.969573 -1.683295 0.655286
v -2.659483 -1.683295 0.965382
v -2.235876 -1.683295 1.078881
v 2.234461 -1.683295 1.078888
v 2.658066 -1.683295 0.965376
v 2.968165 -1.683295 0.655277
v 3.081675 -1.683295 0.231674
v 3.081685 -1.683295 -0.237143
v 2.968183 -1.683295 -0.660747
v 2.658092 -1.683295 -0.970843
v 2.234485 -1.683295 -1.084342
v -2.235852 -1.683295 -1.084349
v -2.659457 -1.683295 -0.970837
v -2.969556 -1.683295 -0.660737
v -3.003505 -1.567647 0.221166
v -2.898232 -1.567647 0.614048
v -2.618296 -1.567647 0.893984
v -2.225412 -1.567647 0.999255
v 2.223978 -1.567647 0.999278
v 2.616882 -1.567647 0.894025
v 2.896813 -1.567647 0.614094
v 3.002065 -1.567647 0.221191
v 3.002060 -1.567647 -0.226680
v 2.896784 -1.567647 -0.619560
v 2.616851 -1.567647 -0.899499
v 2.223967 -1.567647 -1.004770
v -2.225369 -1.567647 -1.004738
v -2.618273 -1.567647 -0.899485
v -2.898206 -1.567647 -0.619552
v -3.003456 -1.567647 -0.226651
v -3.003505 -1.683295 0.221166
v -3.003456 -1.683295 -0.226651
v -2.898206 -1.683295 -0.619552
v -2.618273 -1.683295 -0.899485
v -2.225369 -1.683295 -1.004738
v 2.223967 -1.683295 -1.004770
v 2.616851 -1.683295 -0.899499
v 2.896784 -1.683295 -0.619560
v 3.002060 -1.683295 -0.226680
v 3.002065 -1.683295 0.221191
v 2.896813 -1.683295 0.614094
v 2.616882 -1.683295 0.894025
v 2.223978 -1.683295 0.999278
v -2.225412 -1.683295 0.999255
v -2.618296 -1.683295 0.893984
v -2.898232 -1.683295 0.614048
v -2.082520 0.834142 0.962425
v -2.235846 0.834142 0.962431
v -2.235846 -1.683295 0.962431
v -2.082520 -1.683295 0.962425
v -2.082564 0.834142 1.108129
v -2.235890 0.834142 1.108135
v -2.235890 -1.683295 1.108135
v -2.082564 -1.683295 1.108129
v -1.827220 0.834142 0.962407
v -1.980546 0.834142 0.962413
v -1.980546 -1.683295 0.962413
v -1.827220 -1.683295 0.962407
v -1.827211 0.834142 1.108165
v -1.980537 0.834142 1.108171
v -1.980537 -1.683295 1.108171
v -1.827211 -1.683295 1.108165
v 1.984756 0.834142 0.962395
v 1.831430 0.834142 0.962400
v 1.831430 -1.683295 0.962400
v 1.984756 -1.683295 0.962395
v 1.984765 0.834142 1.108153
v 1.831439 0.834142 1.108158
v 1.831439 -1.683295 1.108158
v 1.984765 -1.683295 1.108153
v 2.240109 0.834142 0.962430
v 2.086730 0.834142 0.962382
v 2.086730 -1.683295 0.962382
v 2.240109 -1.683295 0.962430
v 2.240065 0.834142 1.108135
v 2.086739 0.834142 1.108140
v 2.086739 -1.683295 1.108140
v 2.240065 -1.683295 1.108135
v -2.082564 0.834142 -1.091761
v -2.235890 0.834142 -1.091755
v -2.235890 -1.683295 -1.091755
v -2.082564 -1.683295 -1.091761
v -2.082555 0.834142 -0.946003
v -2.235881 0.834142 -0.945997
v -2.235881 -1.683295 -0.945997
v -2.082555 -1.683295 -0.946003
v -1.827211 0.834142 -1.091725
v -1.980536 0.834142 -1.091719
v -1.980536 -1.683295 -1.091719
v -1.827211 -1.683295 -1.091725
v -1.827201 0.834142 -0.945967
v -1.980527 0.834142 -0.945961
v -1.980527 -1.683295 -0.945961
v -1.827201 -1.683295 -0.945967
v 1.984765 0.834142 -1.091738
v 1.831439 0.834142 -1.091731
v 1.831439 -1.683295 -1.091731
v 1.984765 -1.683295 -1.091738
v 1.984774 0.834142 -0.945979
v 1.831449 0.834142 -0.945974
v 1.831449 -1.683295 -0.945974
v 1.984774 -1.683295 -0.945979
v 2.240065 0.834142 -1.091756
v 2.086739 0.834142 -1.091750
v 2.086739 -1.683295 -1.091750
v 2.240065 -1.683295 -1.091756
v 2.240074 0.834142 -0.945998
v 2.086748 0.834142 -0.945992
v 2.086748 -1.683295 -0.945992
v 2.240074 -1.683295 -0.945998
v -3.083066 1.476262 -0.237135
v -3.083076 1.476262 0.231683
v -2.969576 1.476262 0.655289
v -2.659480 1.476262 0.965379
v -2.235879 1.476262 1.078884
v 2.234461 1.476262 1.078888
v 2.658063 1.476262 0.965379
v 2.968165 1.476262 0.655277
v 3.081675 1.476262 0.231674
v 3.081685 1.476262 -0.237143
v 2.968183 1.476262 -0.660747
v 2.658090 1.476262 -0.970840
v 2.234485 1.476262 -1.084342
v -2.235854 1.476262 -1.084347
v -2.659454 1.476262 -0.970839
v -2.969558 1.476262 -0.660735
v -2.966270 1.525855 -0.221758
v -2.966280 1.525855 0.216309
v -2.864871 1.525855 0.594821
v -2.599013 1.525855 0.860674
v -2.220504 1.525855 0.962086
v 2.219084 1.525855 0.962093
v 2.597599 1.525855 0.860655
v 2.863442 1.525855 0.594812
v 2.964880 1.525855 0.216297
v 2.964889 1.525855 -0.221769
v 2.863477 1.525855 -0.600279
v 2.597621 1.525855 -0.866135
v 2.219057 1.525855 -0.967599
v -2.220477 1.525855 -0.967551
v -2.599044 1.525855 -0.866169
v -2.864889 1.525855 -0.600324
vn 0.2589 -0.0000 -0.9659
vn -0.0000 -1.0000 -0.0000
vn -0.9659 -0.0000 -0.2588
vn 1.0000 -0.0000 -0.0000
vn -0.9659 -0.0000 0.2588
vn 0.9659 -0.0000 -0.2588
vn -0.7071 -0.0000 0.7071
vn 0.7071 -0.0000 -0.7071
vn -0.2588 -0.0000 0.9659
vn 0.2588 -0.0000 -0.9659
vn -0.0000 -0.0000 1.0000
vn -0.0000 -0.0000 -1.0000
vn 0.2588 -0.0000 0.9659
vn -0.2588 -0.0000 -0.9659
vn 0.7071 -0.0000 0.7071
vn -0.7071 -0.0000 -0.7071
vn 0.9659 -0.0000 0.2588
vn -1.0000 -0.0000 -0.0000
vn 1.0000 -0.0000 0.0001
vn -0.0000 1.0000 -0.0000
vn 1.0000 -0.0000 0.0003
vn -1.0000 -0.0000 -0.0003
vn 1.0000 -0.0000 -0.0001
vn -1.0000 -0.0000 0.0001
vn 0.0003 -0.0000 -1.0000
vn 0.2589 -0.0000 0.9659
vn -0.2587 -0.0000 -0.9660
vn 0.9659 -0.0000 0.2589
vn -0.9660 -0.0000 -0.2587
vt 0.256934 0.937585
vt 0.256934 0.937585
vt 0.256934 0.937585
vt 0.256934 0.937585
vt 0.256934 0.937585
vt 0.256934 0.937585
vt 0.256934 0.937585
vt 0.256934 0.937585
vt 0.256934 0.937585
vt 0.256934 0.937585
vt 0.256934 0.937585
vt 0.256934 0.937585
vt 0.256934 0.937585
vt 0.256934 0.937585
vt 0.256934 0.937585
vt 0.256934 0.937585
vt 0.256934 0.937585
vt 0.256934 0.937585
vt 0.256934 0.937585
vt 0.256934 0.937585
vt 0.256934 0.937585
vt 0.256934 0.937585
vt 0.256934 0.937585
vt 0.256934 0.937585
vt 0.256934 0.937585
vt 0.256934 0.937585
vt 0.256934 0.937585
vt 0.256934 0.937585
vt 0.256934 0.937585
vt 0.256934 0.937585
vt 0.256934 0.937585
vt 0.256934 0.937585
vt 0.682650 0.940046
vt 0.682650 0.940046
vt 0.682650 0.940046
vt 0.682650 0.940046
vt 0.682650 0.940046
vt 0.682650 0.940046
vt 0.682650 0.940046
vt 0.682650 0.940046
vt 0.682650 0.940046
vt 0.682650 0.940046
vt 0.682650 0.940046
vt 0.682650 0.940046
vt 0.682650 0.940046
vt 0.682650 0.940046
vt 0.682650 0.940046
vt 0.682650 0.940046
vt 0.682650 0.940046
vt 0.682650 0.940046
vt 0.682650 0.940046
vt 0.682650 0.940046
vt 0.682650 0.940046
vt 0.682650 0.940046
vt 0.682650 0.940046
vt 0.682650 0.940046
vt 0.682650 0.940046
vt 0.682650 0.940046
vt 0.682650 0.940046
vt 0.682650 0.940046
vt 0.682650 0.940046
vt 0.682650 0.940046
vt 0.682650 0.940046
vt 0.682650 0.940046
vt 0.682650 0.940046
vt 0.682650 0.940046
vt 0.682650 0.940046
vt 0.682650 0.940046
vt 0.682650 0.940046
vt 0.682650 0.940046
vt 0.682650 0.940046
vt 0.682650 0.940046
vt 0.682650 0.940046
vt 0.682650 0.940046
vt 0.682650 0.940046
vt 0.682650 0.940046
vt 0.682650 0.940046
vt 0.682650 0.940046
vt 0.682650 0.940046
vt 0.682650 0.940046
vt 0.682650 0.940046
vt 0.682650 0.940046
vt 0.682650 0.940046
vt 0.682650 0.940046
vt 0.682650 0.940046
vt 0.682650 0.940046
vt 0.682650 0.940046
vt 0.682650 0.940046
vt 0.682650 0.940046
vt 0.682650 0.940046
vt 0.682650 0.940046
vt 0.682650 0.940046
vt 0.682650 0.940046
vt 0.682650 0.940046
vt 0.682650 0.940046
vt 0.682650 0.940046
vt 0.682650 0.940046
vt 0.682650 0.940046
vt 0.682650 0.940046
vt 0.682650 0.940046
vt 0.682650 0.940046
vt 0.682650 0.940046
vt 0.682650 0.940046
vt 0.682650 0.940046
vt 0.682650 0.940046
vt 0.682650 0.940046
vt 0.682650 0.940046
vt 0.682650 0.940046
vt 0.682650 0.940046
vt 0.682650 0.940046
vt 0.682650 0.940046
vt 0.682650 0.940046
vt 0.682650 0.940046
vt 0.682650 0.940046
vt 0.682650 0.940046
vt 0.682650 0.940046
vt 0.682650 0.940046
vt 0.682650 0.940046
vt 0.682650 0.940046
vt 0.682650 0.940046
vt 0.682650 0.940046
vt 0.682650 0.940046
vt 0.682650 0.940046
vt 0.682650 0.940046
vt 0.682650 0.940046
vt 0.682650 0.940046
vt 0.682650 0.940046
vt 0.682650 0.940046
vt 0.682650 0.940046
vt 0.682650 0.940046
vt 0.682650 0.940046
vt 0.682650 0.940046
vt 0.682650 0.940046
vt 0.682650 0.940046
vt 0.682650 0.940046
vt 0.682650 0.940046
vt 0.682650 0.940046
vt 0.682650 0.940046
vt 0.682650 0.940046
vt 0.682650 0.940046
vt 0.682650 0.940046
vt 0.682650 0.940046
vt 0.682650 0.940046
vt 0.682650 0.940046
vt 0.682650 0.940046
vt 0.682650 0.940046
vt 0.682650 0.940046
vt 0.682650 0.940046
vt 0.682650 0.940046
vt 0.682650 0.940046
vt 0.682650 0.940046
vt 0.682650 0.940046
vt 0.682650 0.940046
vt 0.682650 0.940046
vt 0.682650 0.940046
vt 0.682650 0.940046
vt 0.682650 0.940046
vt 0.682650 0.940046
vt 0.682650 0.940046
vt 0.682650 0.940046
vt 0.682650 0.940046
vt 0.682650 0.940046
vt 0.682650 0.940046
vt 0.682650 0.940046
vt 0.682650 0.940046
vt 0.682650 0.940046
vt 0.682650 0.940046
vt 0.682650 0.940046
vt 0.682650 0.940046
vt 0.682650 0.940046
vt 0.682650 0.940046
vt 0.682650 0.940046
vt 0.682650 0.940046
vt 0.682650 0.940046
vt 0.682650 0.940046
vt 0.682650 0.940046
vt 0.682650 0.940046
vt 0.682650 0.940046
vt 0.682650 0.940046
vt 0.682650 0.940046
vt 0.682650 0.940046
vt 0.682650 0.940046
vt 0.682650 0.940046
vt 0.682650 0.940046
vt 0.682650 0.940046
vt 0.682650 0.940046
vt 0.682650 0.940046
vt 0.682650 0.940046
vt 0.682650 0.940046
vt 0.682650 0.940046
vt 0.682650 0.940046
vt 0.682650 0.940046
vt 0.682650 0.940046
vt 0.682650 0.940046
vt 0.682650 0.940046
vt 0.682650 0.940046
vt 0.682650 0.940046
vt 0.682650 0.940046
vt 0.682650 0.940046
vt 0.682650 0.940046
vt 0.682650 0.940046
vt 0.682650 0.940046
vt 0.682650 0.940046
vt 0.682650 0.940046
vt 0.682650 0.940046
vt 0.682650 0.940046
vt 0.682650 0.940046
vt 0.682650 0.940046
vt 0.682650 0.940046
vt 0.682650 0.940046
vt 0.682650 0.940046
vt 0.682650 0.940046
vt 0.682650 0.940046
vt 0.682650 0.940046
vt 0.682650 0.940046
vt 0.682650 0.940046
vt 0.682650 0.940046
vt 0.682650 0.940046
vt 0.682650 0.940046
vt 0.682650 0.940046
vt 0.682650 0.940046
vt 0.682650 0.940046
vt 0.682650 0.940046
vt 0.682650 0.940046
vt 0.256934 0.937585
vt 0.256934 0.937585
vt 0.256934 0.937585
vt 0.256934 0.937585
vt 0.256934 0.937585
vt 0.256934 0.937585
vt 0.256934 0.937585
vt 0.256934 0.937585
vt 0.256934 0.937585
vt 0.256934 0.937585
vt 0.256934 0.937585
vt 0.256934 0.937585
vt 0.256934 0.937585
vt 0.256934 0.937585
vt 0.256934 0.937585
vt 0.256934 0.937585
vt 0.256934 0.937585
vt 0.256934 0.937585
vt 0.256934 0.937585
vt 0.256934 0.937585
vt 0.256934 0.937585
vt 0.256934 0.937585
vt 0.256934 0.937585
vt 0.256934 0.937585
vt 0.256934 0.937585
vt 0.256934 0.937585
vt 0.256934 0.937585
vt 0.256934 0.937585
vt 0.256934 0.937585
vt 0.256934 0.937585
vt 0.256934 0.937585
vt 0.256934 0.937585
s 0
usemtl Material
f 15/15/1 13/13/1 253/253/1 252/252/1
f 21/21/2 26/26/2 28/28/2 27/27/2 25/25/2 29/29/2 31/31/2 32/32/2 30/30/2 17/17/2 19/19/2 20/20/2 18/18/2 22/22/2 24/24/2 23/23/2
f 240/240/3 28/28/3 26/26/3 225/225/3
f 233/233/4 17/17/4 30/30/4 234/234/4
f 226/226/5 21/21/5 23/23/5 227/227/5
f 234/234/6 30/30/6 32/32/6 235/235/6
f 227/227/7 23/23/7 24/24/7 228/228/7
f 235/235/8 32/32/8 31/31/8 236/236/8
f 228/228/9 24/24/9 22/22/9 229/229/9
f 236/236/10 31/31/10 29/29/10 237/237/10
f 229/229/11 22/22/11 18/18/11 230/230/11
f 237/237/12 29/29/12 25/25/12 238/238/12
f 230/230/13 18/18/13 20/20/13 231/231/13
f 238/238/14 25/25/14 27/27/14 239/239/14
f 231/231/15 20/20/15 19/19/15 232/232/15
f 239/239/16 27/27/16 28/28/16 240/240/16
f 232/232/17 19/19/17 17/17/17 233/233/17
f 225/225/18 26/26/18 21/21/18 226/226/18
f 82/82/17 83/83/17 79/79/17 80/80/17
f 81/81/19 82/82/19 80/80/19 65/65/19
f 48/48/6 46/46/6 58/58/6 59/59/6
f 40/40/7 39/39/7 51/51/7 52/52/7
f 47/47/8 48/48/8 59/59/8 60/60/8
f 38/38/9 40/40/9 52/52/9 53/53/9
f 45/45/10 47/47/10 60/60/10 61/61/10
f 34/34/11 38/38/11 53/53/11 54/54/11
f 41/41/12 45/45/12 61/61/12 62/62/12
f 36/36/13 34/34/13 54/54/13 55/55/13
f 43/43/14 41/41/14 62/62/14 63/63/14
f 35/35/15 36/36/15 55/55/15 56/56/15
f 44/44/16 43/43/16 63/63/16 64/64/16
f 33/33/17 35/35/17 56/56/17 57/57/17
f 37/37/18 42/42/18 49/49/18 50/50/18
f 42/42/3 44/44/3 64/64/3 49/49/3
f 46/46/4 33/33/4 57/57/4 58/58/4
f 39/39/5 37/37/5 50/50/5 51/51/5
f 37/37/20 39/39/20 66/66/20 65/65/20
f 39/39/20 40/40/20 67/67/20 66/66/20
f 40/40/20 38/38/20 68/68/20 67/67/20
f 38/38/20 34/34/20 69/69/20 68/68/20
f 34/34/20 36/36/20 70/70/20 69/69/20
f 36/36/20 35/35/20 71/71/20 70/70/20
f 35/35/20 33/33/20 72/72/20 71/71/20
f 33/33/20 46/46/20 73/73/20 72/72/20
f 46/46/20 48/48/20 74/74/20 73/73/20
f 48/48/20 47/47/20 75/75/20 74/74/20
f 47/47/20 45/45/20 76/76/20 75/75/20
f 45/45/20 41/41/20 77/77/20 76/76/20
f 41/41/20 43/43/20 78/78/20 77/77/20
f 43/43/20 44/44/20 79/79/20 78/78/20
f 44/44/20 42/42/20 80/80/20 79/79/20
f 42/42/20 37/37/20 65/65/20 80/80/20
f 50/50/2 49/49/2 82/82/2 81/81/2
f 49/49/2 64/64/2 83/83/2 82/82/2
f 64/64/2 63/63/2 84/84/2 83/83/2
f 63/63/2 62/62/2 85/85/2 84/84/2
f 62/62/2 61/61/2 86/86/2 85/85/2
f 61/61/2 60/60/2 87/87/2 86/86/2
f 60/60/2 59/59/2 88/88/2 87/87/2
f 59/59/2 58/58/2 89/89/2 88/88/2
f 58/58/2 57/57/2 90/90/2 89/89/2
f 57/57/2 56/56/2 91/91/2 90/90/2
f 56/56/2 55/55/2 92/92/2 91/91/2
f 55/55/2 54/54/2 93/93/2 92/92/2
f 54/54/2 53/53/2 94/94/2 93/93/2
f 53/53/2 52/52/2 95/95/2 94/94/2
f 52/52/2 51/51/2 96/96/2 95/95/2
f 51/51/2 50/50/2 81/81/2 96/96/2
f 83/83/15 84/84/15 78/78/15 79/79/15
f 84/84/13 85/85/13 77/77/13 78/78/13
f 85/85/11 86/86/11 76/76/11 77/77/11
f 86/86/9 87/87/9 75/75/9 76/76/9
f 87/87/7 88/88/7 74/74/7 75/75/7
f 88/88/5 89/89/5 73/73/5 74/74/5
f 89/89/18 90/90/18 72/72/18 73/73/18
f 90/90/3 91/91/3 71/71/3 72/72/3
f 91/91/16 92/92/16 70/70/16 71/71/16
f 92/92/14 93/93/14 69/69/14 70/70/14
f 93/93/12 94/94/12 68/68/12 69/69/12
f 94/94/10 95/95/10 67/67/10 68/68/10
f 95/95/8 96/96/8 66/66/8 67/67/8
f 96/96/6 81/81/6 65/65/6 66/66/6
f 146/146/17 147/147/17 143/143/17 144/144/17
f 145/145/19 146/146/19 144/144/19 129/129/19
f 112/112/6 110/110/6 122/122/6 123/123/6
f 104/104/7 103/103/7 115/115/7 116/116/7
f 111/111/8 112/112/8 123/123/8 124/124/8
f 102/102/9 104/104/9 116/116/9 117/117/9
f 109/109/10 111/111/10 124/124/10 125/125/10
f 98/98/11 102/102/11 117/117/11 118/118/11
f 105/105/12 109/109/12 125/125/12 126/126/12
f 100/100/13 98/98/13 118/118/13 119/119/13
f 107/107/14 105/105/14 126/126/14 127/127/14
f 99/99/15 100/100/15 119/119/15 120/120/15
f 108/108/16 107/107/16 127/127/16 128/128/16
f 97/97/17 99/99/17 120/120/17 121/121/17
f 101/101/18 106/106/18 113/113/18 114/114/18
f 106/106/3 108/108/3 128/128/3 113/113/3
f 110/110/4 97/97/4 121/121/4 122/122/4
f 103/103/5 101/101/5 114/114/5 115/115/5
f 101/101/20 103/103/20 130/130/20 129/129/20
f 103/103/20 104/104/20 131/131/20 130/130/20
f 104/104/20 102/102/20 132/132/20 131/131/20
f 102/102/20 98/98/20 133/133/20 132/132/20
f 98/98/20 100/100/20 134/134/20 133/133/20
f 100/100/20 99/99/20 135/135/20 134/134/20
f 99/99/20 97/97/20 136/136/20 135/135/20
f 97/97/20 110/110/20 137/137/20 136/136/20
f 110/110/20 112/112/20 138/138/20 137/137/20
f 112/112/20 111/111/20 139/139/20 138/138/20
f 111/111/20 109/109/20 140/140/20 139/139/20
f 109/109/20 105/105/20 141/141/20 140/140/20
f 105/105/20 107/107/20 142/142/20 141/141/20
f 107/107/20 108/108/20 143/143/20 142/142/20
f 108/108/20 106/106/20 144/144/20 143/143/20
f 106/106/20 101/101/20 129/129/20 144/144/20
f 114/114/2 113/113/2 146/146/2 145/145/2
f 113/113/2 128/128/2 147/147/2 146/146/2
f 128/128/2 127/127/2 148/148/2 147/147/2
f 127/127/2 126/126/2 149/149/2 148/148/2
f 126/126/2 125/125/2 150/150/2 149/149/2
f 125/125/2 124/124/2 151/151/2 150/150/2
f 124/124/2 123/123/2 152/152/2 151/151/2
f 123/123/2 122/122/2 153/153/2 152/152/2
f 122/122/2 121/121/2 154/154/2 153/153/2
f 121/121/2 120/120/2 155/155/2 154/154/2
f 120/120/2 119/119/2 156/156/2 155/155/2
f 119/119/2 118/118/2 157/157/2 156/156/2
f 118/118/2 117/117/2 158/158/2 157/157/2
f 117/117/2 116/116/2 159/159/2 158/158/2
f 116/116/2 115/115/2 160/160/2 159/159/2
f 115/115/2 114/114/2 145/145/2 160/160/2
f 147/147/15 148/148/15 142/142/15 143/143/15
f 148/148/13 149/149/13 141/141/13 142/142/13
f 149/149/11 150/150/11 140/140/11 141/141/11
f 150/150/9 151/151/9 139/139/9 140/140/9
f 151/151/7 152/152/7 138/138/7 139/139/7
f 152/152/5 153/153/5 137/137/5 138/138/5
f 153/153/18 154/154/18 136/136/18 137/137/18
f 154/154/3 155/155/3 135/135/3 136/136/3
f 155/155/16 156/156/16 134/134/16 135/135/16
f 156/156/14 157/157/14 133/133/14 134/134/14
f 157/157/12 158/158/12 132/132/12 133/133/12
f 158/158/10 159/159/10 131/131/10 132/132/10
f 159/159/8 160/160/8 130/130/8 131/131/8
f 160/160/6 145/145/6 129/129/6 130/130/6
f 161/161/12 164/164/12 163/163/12 162/162/12
f 165/165/11 166/166/11 167/167/11 168/168/11
f 164/164/21 161/161/21 165/165/21 168/168/21
f 163/163/2 164/164/2 168/168/2 167/167/2
f 162/162/22 163/163/22 167/167/22 166/166/22
f 161/161/20 162/162/20 166/166/20 165/165/20
f 169/169/12 172/172/12 171/171/12 170/170/12
f 173/173/11 174/174/11 175/175/11 176/176/11
f 172/172/23 169/169/23 173/173/23 176/176/23
f 171/171/2 172/172/2 176/176/2 175/175/2
f 170/170/24 171/171/24 175/175/24 174/174/24
f 169/169/20 170/170/20 174/174/20 173/173/20
f 177/177/12 180/180/12 179/179/12 178/178/12
f 181/181/11 182/182/11 183/183/11 184/184/11
f 180/180/23 177/177/23 181/181/23 184/184/23
f 179/179/2 180/180/2 184/184/2 183/183/2
f 178/178/24 179/179/24 183/183/24 182/182/24
f 177/177/20 178/178/20 182/182/20 181/181/20
f 185/185/25 188/188/25 187/187/25 186/186/25
f 189/189/11 190/190/11 191/191/11 192/192/11
f 188/188/21 185/185/21 189/189/21 192/192/21
f 187/187/2 188/188/2 192/192/2 191/191/2
f 186/186/24 187/187/24 191/191/24 190/190/24
f 185/185/20 186/186/20 190/190/20 189/189/20
f 193/193/12 196/196/12 195/195/12 194/194/12
f 197/197/11 198/198/11 199/199/11 200/200/11
f 196/196/23 193/193/23 197/197/23 200/200/23
f 195/195/2 196/196/2 200/200/2 199/199/2
f 194/194/24 195/195/24 199/199/24 198/198/24
f 193/193/20 194/194/20 198/198/20 197/197/20
f 201/201/12 204/204/12 203/203/12 202/202/12
f 205/205/11 206/206/11 207/207/11 208/208/11
f 204/204/23 201/201/23 205/205/23 208/208/23
f 203/203/2 204/204/2 208/208/2 207/207/2
f 202/202/24 203/203/24 207/207/24 206/206/24
f 201/201/20 202/202/20 206/206/20 205/205/20
f 209/209/12 212/212/12 211/211/12 210/210/12
f 213/213/11 214/214/11 215/215/11 216/216/11
f 212/212/23 209/209/23 213/213/23 216/216/23
f 211/211/2 212/212/2 216/216/2 215/215/2
f 210/210/24 211/211/24 215/215/24 214/214/24
f 209/209/20 210/210/20 214/214/20 213/213/20
f 217/217/12 220/220/12 219/219/12 218/218/12
f 221/221/11 222/222/11 223/223/11 224/224/11
f 220/220/23 217/217/23 221/221/23 224/224/23
f 219/219/2 220/220/2 224/224/2 223/223/2
f 218/218/24 219/219/24 223/223/24 222/222/24
f 217/217/20 218/218/20 222/222/20 221/221/20
f 5/5/20 10/10/20 225/225/20 226/226/20
f 7/7/20 5/5/20 226/226/20 227/227/20
f 8/8/20 7/7/20 227/227/20 228/228/20
f 6/6/20 8/8/20 228/228/20 229/229/20
f 2/2/20 6/6/20 229/229/20 230/230/20
f 4/4/20 2/2/20 230/230/20 231/231/20
f 3/3/20 4/4/20 231/231/20 232/232/20
f 1/1/20 3/3/20 232/232/20 233/233/20
f 14/14/20 1/1/20 233/233/20 234/234/20
f 16/16/20 14/14/20 234/234/20 235/235/20
f 15/15/20 16/16/20 235/235/20 236/236/20
f 13/13/20 15/15/20 236/236/20 237/237/20
f 9/9/20 13/13/20 237/237/20 238/238/20
f 11/11/20 9/9/20 238/238/20 239/239/20
f 12/12/20 11/11/20 239/239/20 240/240/20
f 10/10/20 12/12/20 240/240/20 225/225/20
f 242/242/20 243/243/20 244/244/20 245/245/20 246/246/20 247/247/20 248/248/20 249/249/20 250/250/20 251/251/20 252/252/20 253/253/20 254/254/20 255/255/20 256/256/20 241/241/20
f 6/6/11 2/2/11 246/246/11 245/245/11
f 13/13/12 9/9/12 254/254/12 253/253/12
f 2/2/26 4/4/26 247/247/26 246/246/26
f 9/9/27 11/11/27 255/255/27 254/254/27
f 4/4/15 3/3/15 248/248/15 247/247/15
f 11/11/16 12/12/16 256/256/16 255/255/16
f 3/3/28 1/1/28 249/249/28 248/248/28
f 10/10/18 5/5/18 242/242/18 241/241/18
f 12/12/29 10/10/29 241/241/29 256/256/29
f 1/1/4 14/14/4 250/250/4 249/249/4
f 5/5/5 7/7/5 243/243/5 242/242/5
f 14/14/6 16/16/6 251/251/6 250/250/6
f 7/7/7 8/8/7 244/244/7 243/243/7
f 16/16/8 15/15/8 252/252/8 251/251/8
f 8/8/9 6/6/9 245/245/9 244/244/9
