# Blender 3.4.1
# www.blender.org
mtllib console003.mtl
o consoles.003
v -2.509131 0.194446 0.396735
v 2.482949 0.194446 0.396730
v -2.509128 0.194446 -2.104458
v 2.482952 0.194446 -2.104463
v -2.509128 0.863293 -2.104458
v -2.509131 0.863293 0.396735
v 2.482949 0.863293 0.396730
v 2.482952 0.863293 -2.104463
v -0.013078 0.194446 0.396747
v -0.013078 0.863293 0.396747
v 0.084304 0.291836 0.396740
v 2.385566 0.291836 0.396736
v 2.385566 0.765902 0.396736
v 0.084304 0.765902 0.396740
v -2.411750 0.291836 0.396730
v -0.110488 0.291836 0.396726
v -0.110488 0.765902 0.396726
v -2.411750 0.765902 0.396730
v 0.084289 0.291836 0.332557
v 2.385576 0.291836 0.332582
v 0.084289 0.765902 0.332557
v 2.385576 0.765902 0.332582
v -2.411736 0.291836 0.332572
v -0.110476 0.291836 0.332570
v -2.411736 0.765902 0.332572
v -0.110476 0.765902 0.332570
v 0.121992 0.332174 0.408684
v 2.347890 0.332174 0.408679
v 0.121992 0.725564 0.408684
v 2.347890 0.725564 0.408679
v -2.374062 0.332174 0.408674
v -0.148164 0.332174 0.408669
v -2.374062 0.725564 0.408674
v -0.148164 0.725564 0.408669
v 2.233342 0.208948 0.110472
v 2.183831 0.208948 0.159982
v 2.183817 0.208948 0.276146
v 2.233345 0.208948 0.325667
v 2.338271 0.208948 0.325670
v 2.387781 0.208948 0.276159
v 2.387768 0.208948 0.159969
v 2.338267 0.208948 0.110475
v 2.226446 -2.705246 0.206543
v 2.275950 -2.705246 0.157039
v 2.275947 -2.705246 0.276753
v 2.226423 -2.705246 0.227228
v 2.345159 -2.705246 0.227232
v 2.295652 -2.705246 0.276739
v 2.295658 -2.705246 0.157022
v 2.345155 -2.705246 0.206519
v -2.296128 0.208948 0.110470
v -2.345639 0.208948 0.159981
v -2.345652 0.208948 0.276144
v -2.296126 0.208948 0.325667
v -2.191199 0.208948 0.325668
v -2.141686 0.208948 0.276156
v -2.141700 0.208948 0.159966
v -2.191201 0.208948 0.110472
v -2.303023 -2.705246 0.206541
v -2.253517 -2.705246 0.157036
v -2.253522 -2.705246 0.276751
v -2.303045 -2.705246 0.227225
v -2.184309 -2.705246 0.227229
v -2.233816 -2.705246 0.276736
v -2.233811 -2.705246 0.157020
v -2.184289 -2.705246 0.206546
v 2.233338 0.208948 -2.019067
v 2.183824 0.208948 -1.969553
v 2.183814 0.208948 -1.853393
v 2.233338 0.208948 -1.803869
v 2.338264 0.208948 -1.803865
v 2.387778 0.208948 -1.853379
v 2.387788 0.208948 -1.969539
v 2.338264 0.208948 -2.019064
v 2.226440 -2.705246 -1.922992
v 2.275947 -2.705246 -1.972500
v 2.275940 -2.705246 -1.852782
v 2.226446 -2.705246 -1.902283
v 2.345156 -2.705246 -1.902307
v 2.295675 -2.705246 -1.852772
v 2.295655 -2.705246 -1.972517
v 2.345176 -2.705246 -1.922989
v -2.296133 0.208948 -2.019067
v -2.345644 0.208948 -1.969556
v -2.345630 0.208948 -1.853366
v -2.296129 0.208948 -1.803872
v -2.191204 0.208948 -1.803869
v -2.141692 0.208948 -1.853381
v -2.141680 0.208948 -1.969543
v -2.191206 0.208948 -2.019065
v -2.303030 -2.705246 -1.922994
v -2.253522 -2.705246 -1.972502
v -2.253527 -2.705246 -1.852786
v -2.303023 -2.705246 -1.902285
v -2.184287 -2.705246 -1.902282
v -2.233794 -2.705246 -1.852774
v -2.233814 -2.705246 -1.972518
v -2.184294 -2.705246 -1.922991
v 1.238110 0.652991 0.401629
v 1.238117 0.652991 0.451038
v 1.293895 0.641134 0.401625
v 1.293904 0.641134 0.451033
v 1.340054 0.607610 0.401646
v 1.340036 0.607610 0.451026
v 1.368554 0.558218 0.401630
v 1.368563 0.558218 0.451038
v 1.374529 0.501496 0.401644
v 1.374509 0.501496 0.451026
v 1.356896 0.447254 0.401636
v 1.356903 0.447254 0.451045
v 1.318747 0.404870 0.401644
v 1.318728 0.404870 0.451025
v 1.266636 0.381673 0.401641
v 1.266616 0.381673 0.451023
v 1.209610 0.381673 0.401644
v 1.209590 0.381673 0.451026
v 1.157498 0.404870 0.401642
v 1.157479 0.404870 0.451023
v 1.119323 0.447254 0.401622
v 1.119330 0.447254 0.451032
v 1.101717 0.501496 0.401641
v 1.101697 0.501496 0.451023
v 1.107664 0.558218 0.401629
v 1.107672 0.558218 0.451037
v 1.136190 0.607610 0.401641
v 1.136172 0.607610 0.451021
v 1.182323 0.641134 0.401634
v 1.182331 0.641134 0.451042
v 1.274636 0.597849 0.451042
v 1.238117 0.605611 0.451038
v 1.201597 0.597849 0.451035
v 1.171391 0.575906 0.451030
v 1.152725 0.543576 0.451030
v 1.148834 0.506449 0.451037
v 1.160371 0.470945 0.451045
v 1.185354 0.443202 0.451040
v 1.219452 0.428018 0.451037
v 1.256782 0.428018 0.451038
v 1.290881 0.443202 0.451035
v 1.315862 0.470945 0.451032
v 1.327400 0.506449 0.451038
v 1.323508 0.543576 0.451047
v 1.304843 0.575906 0.451045
v 1.238110 0.605611 0.401629
v 1.274629 0.597849 0.401632
v 1.304835 0.575906 0.401637
v 1.323499 0.543576 0.401639
v 1.327392 0.506449 0.401631
v 1.315855 0.470945 0.401622
v 1.290872 0.443202 0.401627
v 1.256774 0.428018 0.401630
v 1.219444 0.428018 0.401629
v 1.185345 0.443202 0.401632
v 1.160362 0.470945 0.401637
v 1.148826 0.506449 0.401629
v 1.152719 0.543576 0.401620
v 1.171383 0.575906 0.401622
v 1.201590 0.597849 0.401625
v -1.253164 0.652991 0.401639
v -1.253184 0.652991 0.451022
v -1.197378 0.641134 0.401636
v -1.197369 0.641134 0.451043
v -1.151246 0.607610 0.401629
v -1.151239 0.607610 0.451038
v -1.122719 0.558218 0.401641
v -1.122737 0.558218 0.451022
v -1.116771 0.501496 0.401627
v -1.116764 0.501496 0.451037
v -1.134377 0.447254 0.401646
v -1.134397 0.447254 0.451028
v -1.172553 0.404870 0.401627
v -1.172545 0.404870 0.451035
v -1.224664 0.381673 0.401624
v -1.224657 0.381673 0.451033
v -1.281690 0.381673 0.401627
v -1.281683 0.381673 0.451037
v -1.333802 0.404870 0.401625
v -1.333794 0.404870 0.451033
v -1.371950 0.447254 0.401632
v -1.371943 0.447254 0.451042
v -1.389583 0.501496 0.401624
v -1.389576 0.501496 0.451033
v -1.383610 0.558218 0.401639
v -1.383601 0.558218 0.451047
v -1.355110 0.607610 0.401624
v -1.355102 0.607610 0.451032
v -1.308951 0.641134 0.401644
v -1.308969 0.641134 0.451025
v -1.216664 0.597849 0.451025
v -1.253184 0.605611 0.451022
v -1.289676 0.597849 0.451045
v -1.319882 0.575906 0.451040
v -1.338548 0.543576 0.451040
v -1.342439 0.506449 0.451047
v -1.330930 0.470945 0.451028
v -1.305947 0.443202 0.451023
v -1.271821 0.428018 0.451047
v -1.234518 0.428018 0.451021
v -1.200392 0.443202 0.451045
v -1.175411 0.470945 0.451042
v -1.163900 0.506449 0.451022
v -1.167792 0.543576 0.451030
v -1.186457 0.575906 0.451028
v -1.253164 0.605611 0.401639
v -1.216644 0.597849 0.401642
v -1.186438 0.575906 0.401647
v -1.167801 0.543576 0.401622
v -1.163881 0.506449 0.401641
v -1.175418 0.470945 0.401632
v -1.200401 0.443202 0.401637
v -1.234499 0.428018 0.401641
v -1.271830 0.428018 0.401639
v -1.305928 0.443202 0.401642
v -1.330911 0.470945 0.401647
v -1.342447 0.506449 0.401639
v -1.338555 0.543576 0.401630
v -1.319890 0.575906 0.401632
v -1.289683 0.597849 0.401636
vn -0.0000 -1.0000 -0.0000
vn -0.0000 1.0000 -0.0000
vn 1.0000 -0.0000 -0.0000
vn -1.0000 -0.0000 -0.0000
vn -0.0000 -0.0000 -1.0000
vn -1.0000 -0.0000 -0.0002
vn -0.0000 -0.0000 1.0000
vn 0.0001 -0.0000 1.0000
vn -0.0000 0.0001 1.0000
vn -0.0002 -0.0000 1.0000
vn -0.0000 -0.0001 1.0000
vn -0.0000 -0.8835 0.4683
vn 0.8961 -0.0000 0.4438
vn 1.0000 -0.0000 0.0002
vn 1.0000 -0.0000 -0.0002
vn -0.0000 -0.8836 0.4683
vn -0.0000 0.8835 0.4683
vn -0.8962 -0.0000 0.4437
vn -0.0000 0.8836 0.4683
vn -0.8961 -0.0000 0.4438
vn -0.0001 -0.0160 -0.9999
vn 0.0001 -0.0168 0.9999
vn 0.9999 -0.0146 -0.0001
vn -0.7069 -0.0216 -0.7069
vn 0.7069 -0.0216 -0.7070
vn -0.7069 -0.0222 0.7070
vn 0.7069 -0.0222 0.7069
vn -0.9999 -0.0146 -0.0003
vn 0.9999 -0.0146 -0.0000
vn -0.7069 -0.0222 0.7069
vn -0.0001 -0.0168 0.9999
vn 0.9999 -0.0146 0.0002
vn 0.7070 -0.0216 -0.7069
vn -0.7070 -0.0222 0.7069
vn 0.7071 -0.0222 0.7067
vn -0.9999 -0.0146 -0.0000
vn -0.9999 -0.0146 0.0001
vn 0.2079 0.9781 -0.0000
vn 0.5877 0.8090 0.0001
vn 0.8661 0.5000 0.0001
vn 0.9945 0.1045 0.0001
vn 0.9511 -0.3089 0.0001
vn 0.7431 -0.6691 0.0001
vn 0.4067 -0.9136 0.0002
vn -0.4067 -0.9136 -0.0002
vn -0.7432 -0.6691 -0.0001
vn -0.9511 -0.3089 -0.0001
vn -0.9945 0.1045 -0.0001
vn -0.8661 0.5000 -0.0001
vn -0.8660 -0.5000 0.0001
vn -0.5877 0.8090 -0.0001
vn -0.2079 0.9781 -0.0000
vn -0.5877 -0.8091 0.0001
vn -0.0002 -0.0001 1.0000
vn 0.0001 0.0001 1.0000
vn -0.0001 -0.0001 1.0000
vn -0.0003 0.0001 1.0000
vn -0.0001 -0.0003 1.0000
vn -0.0000 -0.0003 1.0000
vn 0.0001 -0.0002 1.0000
vn 0.0002 -0.0002 1.0000
vn 0.0002 0.0003 1.0000
vn 0.0002 0.0002 1.0000
vn -0.0000 -0.0001 -1.0000
vn 0.0002 -0.0001 -1.0000
vn -0.0001 0.0001 -1.0000
vn 0.0001 -0.0000 -1.0000
vn 0.0003 0.0001 -1.0000
vn 0.0001 -0.0003 -1.0000
vn -0.0000 -0.0003 -1.0000
vn -0.0001 -0.0002 -1.0000
vn 0.0001 -0.0001 -1.0000
vn -0.0000 0.0001 -1.0000
vn -0.0002 -0.0002 -1.0000
vn -0.0002 0.0003 -1.0000
vn -0.0002 0.0002 -1.0000
vn -0.9945 -0.1043 0.0002
vn -0.9510 0.3090 0.0001
vn -0.7431 0.6692 0.0001
vn -0.4068 0.9135 0.0001
vn 0.4068 0.9135 -0.0001
vn 0.7431 0.6692 -0.0001
vn 0.9511 0.3090 -0.0002
vn 0.9946 -0.1043 -0.0002
vn 0.8660 -0.5000 -0.0001
vn 0.5877 -0.8091 -0.0001
vn 0.2079 -0.9782 -0.0000
vn -0.2079 -0.9782 -0.0000
vn 0.2079 0.9782 -0.0000
vn 0.5879 0.8090 -0.0001
vn 0.8660 0.5000 0.0001
vn 0.7432 -0.6691 0.0001
vn 0.4067 -0.9136 -0.0001
vn -0.4067 -0.9136 0.0001
vn -0.7433 -0.6690 0.0001
vn -0.9510 -0.3091 0.0001
vn -0.9945 0.1047 0.0002
vn -0.8662 0.4998 0.0001
vn -0.8662 -0.4997 -0.0001
vn -0.2079 0.9781 -0.0001
vn -0.5877 -0.8091 -0.0002
vn -0.0003 -0.0001 1.0000
vn -0.0002 0.0003 1.0000
vn 0.0003 0.0001 1.0000
vn 0.0003 -0.0000 1.0000
vn 0.0003 -0.0001 1.0000
vn -0.0001 0.0001 1.0000
vn 0.0001 -0.0001 1.0000
vn -0.0002 -0.0003 1.0000
vn 0.0001 0.0001 -1.0000
vn -0.0001 0.0003 -1.0000
vn -0.0000 0.0003 -1.0000
vn 0.0001 0.0003 -1.0000
vn 0.0002 0.0003 -1.0000
vn 0.0004 -0.0001 -1.0000
vn -0.0001 -0.0001 -1.0000
vn 0.0002 0.0001 -1.0000
vn -0.9945 -0.1046 -0.0001
vn -0.9512 0.3087 -0.0001
vn -0.4067 0.9136 -0.0000
vn 0.4067 0.9136 -0.0000
vn 0.7431 0.6692 0.0003
vn 0.9512 0.3087 0.0001
vn 0.9946 -0.1043 -0.0001
vn 0.2080 -0.9781 -0.0000
vn -0.2079 -0.9782 -0.0001
vt 0.104644 0.914208
vt 0.104644 0.914208
vt 0.104644 0.914208
vt 0.104644 0.914208
vt 0.104644 0.914208
vt 0.104644 0.914208
vt 0.104644 0.914208
vt 0.104644 0.914208
vt 0.104644 0.914208
vt 0.104644 0.914208
vt 0.104644 0.914208
vt 0.104644 0.914208
vt 0.104644 0.914208
vt 0.104644 0.914208
vt 0.104644 0.914208
vt 0.104644 0.914208
vt 0.104644 0.914208
vt 0.104644 0.914208
vt 0.104644 0.914208
vt 0.104644 0.914208
vt 0.104644 0.914208
vt 0.104644 0.914208
vt 0.104644 0.914208
vt 0.104644 0.914208
vt 0.104644 0.914208
vt 0.104644 0.914208
vt 0.104644 0.914208
vt 0.104644 0.914208
vt 0.104644 0.914208
vt 0.104644 0.914208
vt 0.104644 0.914208
vt 0.104644 0.914208
vt 0.104644 0.914208
vt 0.104644 0.914208
vt 0.104644 0.914208
vt 0.104644 0.914208
vt 0.104644 0.914208
vt 0.104644 0.914208
vt 0.104644 0.914208
vt 0.104644 0.914208
vt 0.104644 0.914208
vt 0.104644 0.914208
vt 0.104644 0.914208
vt 0.104644 0.914208
vt 0.104644 0.914208
vt 0.104644 0.914208
vt 0.104644 0.914208
vt 0.104644 0.914208
vt 0.104644 0.914208
vt 0.104644 0.914208
vt 0.104644 0.914208
vt 0.104644 0.914208
vt 0.104644 0.914208
vt 0.104644 0.914208
vt 0.104644 0.914208
vt 0.104644 0.914208
vt 0.104644 0.914208
vt 0.104644 0.914208
vt 0.104644 0.914208
vt 0.104644 0.914208
vt 0.104644 0.914208
vt 0.104644 0.914208
vt 0.104644 0.914208
vt 0.104644 0.914208
vt 0.104644 0.914208
vt 0.104644 0.914208
vt 0.104644 0.914208
vt 0.104644 0.914208
vt 0.104644 0.914208
vt 0.104644 0.914208
vt 0.104644 0.914208
vt 0.104644 0.914208
vt 0.104644 0.914208
vt 0.104644 0.914208
vt 0.104644 0.914208
vt 0.104644 0.914208
vt 0.104644 0.914208
vt 0.104644 0.914208
vt 0.104644 0.914208
vt 0.104644 0.914208
vt 0.104644 0.914208
vt 0.104644 0.914208
vt 0.104644 0.914208
vt 0.104644 0.914208
vt 0.104644 0.914208
vt 0.104644 0.914208
vt 0.104644 0.914208
vt 0.104644 0.914208
vt 0.104644 0.914208
vt 0.104644 0.914208
vt 0.104644 0.914208
vt 0.104644 0.914208
vt 0.104644 0.914208
vt 0.104644 0.914208
vt 0.104644 0.914208
vt 0.104644 0.914208
vt 0.104644 0.914208
vt 0.104644 0.914208
vt 0.855427 0.105840
vt 0.855427 0.105840
vt 0.855427 0.105840
vt 0.855427 0.105840
vt 0.855427 0.105840
vt 0.855427 0.105840
vt 0.855427 0.105840
vt 0.855427 0.105840
vt 0.855427 0.105840
vt 0.855427 0.105840
vt 0.855427 0.105840
vt 0.855427 0.105840
vt 0.855427 0.105840
vt 0.855427 0.105840
vt 0.855427 0.105840
vt 0.855427 0.105840
vt 0.855427 0.105840
vt 0.855427 0.105840
vt 0.855427 0.105840
vt 0.855427 0.105840
vt 0.855427 0.105840
vt 0.855427 0.105840
vt 0.855427 0.105840
vt 0.855427 0.105840
vt 0.855427 0.105840
vt 0.855427 0.105840
vt 0.855427 0.105840
vt 0.855427 0.105840
vt 0.855427 0.105840
vt 0.855427 0.105840
vt 0.855427 0.105840
vt 0.855427 0.105840
vt 0.855427 0.105840
vt 0.855427 0.105840
vt 0.855427 0.105840
vt 0.855427 0.105840
vt 0.855427 0.105840
vt 0.855427 0.105840
vt 0.855427 0.105840
vt 0.855427 0.105840
vt 0.855427 0.105840
vt 0.855427 0.105840
vt 0.855427 0.105840
vt 0.855427 0.105840
vt 0.855427 0.105840
vt 0.855427 0.105840
vt 0.855427 0.105840
vt 0.855427 0.105840
vt 0.855427 0.105840
vt 0.855427 0.105840
vt 0.855427 0.105840
vt 0.855427 0.105840
vt 0.855427 0.105840
vt 0.855427 0.105840
vt 0.855427 0.105840
vt 0.855427 0.105840
vt 0.855427 0.105840
vt 0.855427 0.105840
vt 0.855427 0.105840
vt 0.855427 0.105840
vt 0.855427 0.105840
vt 0.855427 0.105840
vt 0.855427 0.105840
vt 0.855427 0.105840
vt 0.855427 0.105840
vt 0.855427 0.105840
vt 0.855427 0.105840
vt 0.855427 0.105840
vt 0.855427 0.105840
vt 0.855427 0.105840
vt 0.855427 0.105840
vt 0.855427 0.105840
vt 0.855427 0.105840
vt 0.855427 0.105840
vt 0.855427 0.105840
vt 0.855427 0.105840
vt 0.855427 0.105840
vt 0.855427 0.105840
vt 0.855427 0.105840
vt 0.855427 0.105840
vt 0.855427 0.105840
vt 0.855427 0.105840
vt 0.855427 0.105840
vt 0.855427 0.105840
vt 0.855427 0.105840
vt 0.855427 0.105840
vt 0.855427 0.105840
vt 0.855427 0.105840
vt 0.855427 0.105840
vt 0.855427 0.105840
vt 0.855427 0.105840
vt 0.855427 0.105840
vt 0.855427 0.105840
vt 0.855427 0.105840
vt 0.855427 0.105840
vt 0.855427 0.105840
vt 0.855427 0.105840
vt 0.855427 0.105840
vt 0.855427 0.105840
vt 0.855427 0.105840
vt 0.855427 0.105840
vt 0.855427 0.105840
vt 0.855427 0.105840
vt 0.855427 0.105840
vt 0.855427 0.105840
vt 0.855427 0.105840
vt 0.855427 0.105840
vt 0.855427 0.105840
vt 0.855427 0.105840
vt 0.855427 0.105840
vt 0.855427 0.105840
vt 0.855427 0.105840
vt 0.855427 0.105840
vt 0.855427 0.105840
vt 0.855427 0.105840
vt 0.855427 0.105840
vt 0.855427 0.105840
vt 0.855427 0.105840
vt 0.855427 0.105840
vt 0.855427 0.105840
s 0
usemtl Material
f 1/1/1 3/3/1 4/4/1 2/2/1 9/9/1
f 6/6/2 10/10/2 7/7/2 8/8/2 5/5/2
f 2/2/3 4/4/3 8/8/3 7/7/3
f 3/3/4 1/1/4 6/6/4 5/5/4
f 4/4/5 3/3/5 5/5/5 8/8/5
f 17/17/1 18/18/1 25/25/1 26/26/1
f 12/12/6 13/13/6 22/22/6 20/20/6
f 9/9/7 2/2/7 12/12/7 11/11/7
f 2/2/8 7/7/8 13/13/8 12/12/8
f 7/7/7 10/10/7 14/14/7 13/13/7
f 10/10/8 9/9/8 11/11/8 14/14/8
f 1/1/9 9/9/9 16/16/9 15/15/9
f 9/9/10 10/10/10 17/17/10 16/16/10
f 10/10/11 6/6/11 18/18/11 17/17/11
f 6/6/8 1/1/8 15/15/8 18/18/8
f 23/23/12 24/24/12 32/32/12 31/31/12
f 24/24/13 26/26/13 34/34/13 32/32/13
f 11/11/2 12/12/2 20/20/2 19/19/2
f 18/18/14 15/15/14 23/23/14 25/25/14
f 13/13/1 14/14/1 21/21/1 22/22/1
f 14/14/15 11/11/15 19/19/15 21/21/15
f 16/16/6 17/17/6 26/26/6 24/24/6
f 15/15/2 16/16/2 24/24/2 23/23/2
f 27/27/7 28/28/7 30/30/7 29/29/7
f 31/31/7 32/32/7 34/34/7 33/33/7
f 20/20/13 22/22/13 30/30/13 28/28/13
f 19/19/16 20/20/16 28/28/16 27/27/16
f 26/26/17 25/25/17 33/33/17 34/34/17
f 25/25/18 23/23/18 31/31/18 33/33/18
f 22/22/19 21/21/19 29/29/19 30/30/19
f 21/21/20 19/19/20 27/27/20 29/29/20
s 1
f 42/42/21 49/49/21 44/44/21 35/35/21
f 38/38/22 45/45/22 48/48/22 39/39/22
f 37/37/2 38/38/2 39/39/2 40/40/2 41/41/2 42/42/2 35/35/2 36/36/2
f 40/40/23 47/47/23 50/50/23 41/41/23
f 45/45/1 46/46/1 43/43/1 44/44/1 49/49/1 50/50/1 47/47/1 48/48/1
f 35/35/24 44/44/24 43/43/24 36/36/24
f 49/49/25 42/42/25 41/41/25 50/50/25
f 37/37/26 46/46/26 45/45/26 38/38/26
f 39/39/27 48/48/27 47/47/27 40/40/27
f 36/36/28 43/43/28 46/46/28 37/37/28
f 58/58/21 65/65/21 60/60/21 51/51/21
f 54/54/22 61/61/22 64/64/22 55/55/22
f 53/53/2 54/54/2 55/55/2 56/56/2 57/57/2 58/58/2 51/51/2 52/52/2
f 56/56/29 63/63/29 66/66/29 57/57/29
f 61/61/1 62/62/1 59/59/1 60/60/1 65/65/1 66/66/1 63/63/1 64/64/1
f 51/51/24 60/60/24 59/59/24 52/52/24
f 65/65/25 58/58/25 57/57/25 66/66/25
f 53/53/30 62/62/30 61/61/30 54/54/30
f 55/55/27 64/64/27 63/63/27 56/56/27
f 52/52/28 59/59/28 62/62/28 53/53/28
f 74/74/21 81/81/21 76/76/21 67/67/21
f 70/70/31 77/77/31 80/80/31 71/71/31
f 69/69/2 70/70/2 71/71/2 72/72/2 73/73/2 74/74/2 67/67/2 68/68/2
f 72/72/32 79/79/32 82/82/32 73/73/32
f 77/77/1 78/78/1 75/75/1 76/76/1 81/81/1 82/82/1 79/79/1 80/80/1
f 67/67/24 76/76/24 75/75/24 68/68/24
f 81/81/33 74/74/33 73/73/33 82/82/33
f 69/69/34 78/78/34 77/77/34 70/70/34
f 71/71/35 80/80/35 79/79/35 72/72/35
f 68/68/36 75/75/36 78/78/36 69/69/36
f 90/90/21 97/97/21 92/92/21 83/83/21
f 86/86/31 93/93/31 96/96/31 87/87/31
f 85/85/2 86/86/2 87/87/2 88/88/2 89/89/2 90/90/2 83/83/2 84/84/2
f 88/88/29 95/95/29 98/98/29 89/89/29
f 93/93/1 94/94/1 91/91/1 92/92/1 97/97/1 98/98/1 95/95/1 96/96/1
f 83/83/24 92/92/24 91/91/24 84/84/24
f 97/97/33 90/90/33 89/89/33 98/98/33
f 85/85/30 94/94/30 93/93/30 86/86/30
f 87/87/27 96/96/27 95/95/27 88/88/27
f 84/84/37 91/91/37 94/94/37 85/85/37
s 0
f 99/99/38 100/100/38 102/102/38 101/101/38
f 101/101/39 102/102/39 104/104/39 103/103/39
f 103/103/40 104/104/40 106/106/40 105/105/40
f 105/105/41 106/106/41 108/108/41 107/107/41
f 107/107/42 108/108/42 110/110/42 109/109/42
f 109/109/43 110/110/43 112/112/43 111/111/43
f 111/111/44 112/112/44 114/114/44 113/113/44
f 113/113/1 114/114/1 116/116/1 115/115/1
f 115/115/45 116/116/45 118/118/45 117/117/45
f 117/117/46 118/118/46 120/120/46 119/119/46
f 119/119/47 120/120/47 122/122/47 121/121/47
f 121/121/48 122/122/48 124/124/48 123/123/48
f 123/123/49 124/124/49 126/126/49 125/125/49
f 146/146/50 147/147/50 142/142/50 143/143/50
f 125/125/51 126/126/51 128/128/51 127/127/51
f 127/127/52 128/128/52 100/100/52 99/99/52
f 145/145/53 146/146/53 143/143/53 129/129/53
f 102/102/9 100/100/9 130/130/9 129/129/9
f 100/100/11 128/128/11 131/131/11 130/130/11
f 128/128/54 126/126/54 132/132/54 131/131/54
f 126/126/55 124/124/55 133/133/55 132/132/55
f 124/124/56 122/122/56 134/134/56 133/133/56
f 122/122/57 120/120/57 135/135/57 134/134/57
f 120/120/58 118/118/58 136/136/58 135/135/58
f 118/118/58 116/116/58 137/137/58 136/136/58
f 116/116/59 114/114/59 138/138/59 137/137/59
f 114/114/60 112/112/60 139/139/60 138/138/60
f 112/112/56 110/110/56 140/140/56 139/139/56
f 110/110/9 108/108/9 141/141/9 140/140/9
f 108/108/61 106/106/61 142/142/61 141/141/61
f 106/106/62 104/104/62 143/143/62 142/142/62
f 104/104/63 102/102/63 129/129/63 143/143/63
f 99/99/64 101/101/64 145/145/64 144/144/64
f 101/101/65 103/103/65 146/146/65 145/145/65
f 103/103/66 105/105/66 147/147/66 146/146/66
f 105/105/67 107/107/67 148/148/67 147/147/67
f 107/107/68 109/109/68 149/149/68 148/148/68
f 109/109/69 111/111/69 150/150/69 149/149/69
f 111/111/69 113/113/69 151/151/69 150/150/69
f 113/113/70 115/115/70 152/152/70 151/151/70
f 115/115/71 117/117/71 153/153/71 152/152/71
f 117/117/72 119/119/72 154/154/72 153/153/72
f 119/119/73 121/121/73 155/155/73 154/154/73
f 121/121/74 123/123/74 156/156/74 155/155/74
f 123/123/75 125/125/75 157/157/75 156/156/75
f 125/125/76 127/127/76 158/158/76 157/157/76
f 127/127/73 99/99/73 144/144/73 158/158/73
f 147/147/77 148/148/77 141/141/77 142/142/77
f 148/148/78 149/149/78 140/140/78 141/141/78
f 149/149/79 150/150/79 139/139/79 140/140/79
f 150/150/80 151/151/80 138/138/80 139/139/80
f 151/151/2 152/152/2 137/137/2 138/138/2
f 152/152/81 153/153/81 136/136/81 137/137/81
f 153/153/82 154/154/82 135/135/82 136/136/82
f 154/154/83 155/155/83 134/134/83 135/135/83
f 155/155/84 156/156/84 133/133/84 134/134/84
f 156/156/85 157/157/85 132/132/85 133/133/85
f 157/157/86 158/158/86 131/131/86 132/132/86
f 158/158/87 144/144/87 130/130/87 131/131/87
f 144/144/88 145/145/88 129/129/88 130/130/88
f 159/159/89 160/160/89 162/162/89 161/161/89
f 161/161/90 162/162/90 164/164/90 163/163/90
f 163/163/91 164/164/91 166/166/91 165/165/91
f 165/165/41 166/166/41 168/168/41 167/167/41
f 167/167/42 168/168/42 170/170/42 169/169/42
f 169/169/92 170/170/92 172/172/92 171/171/92
f 171/171/93 172/172/93 174/174/93 173/173/93
f 173/173/1 174/174/1 176/176/1 175/175/1
f 175/175/94 176/176/94 178/178/94 177/177/94
f 177/177/95 178/178/95 180/180/95 179/179/95
f 179/179/96 180/180/96 182/182/96 181/181/96
f 181/181/97 182/182/97 184/184/97 183/183/97
f 183/183/98 184/184/98 186/186/98 185/185/98
f 206/206/99 207/207/99 202/202/99 203/203/99
f 185/185/51 186/186/51 188/188/51 187/187/51
f 187/187/100 188/188/100 160/160/100 159/159/100
f 205/205/101 206/206/101 203/203/101 189/189/101
f 162/162/102 160/160/102 190/190/102 189/189/102
f 160/160/62 188/188/62 191/191/62 190/190/62
f 188/188/103 186/186/103 192/192/103 191/191/103
f 186/186/55 184/184/55 193/193/55 192/192/55
f 184/184/56 182/182/56 194/194/56 193/193/56
f 182/182/11 180/180/11 195/195/11 194/194/11
f 180/180/104 178/178/104 196/196/104 195/195/104
f 178/178/57 176/176/57 197/197/57 196/196/57
f 176/176/105 174/174/105 198/198/105 197/197/105
f 174/174/102 172/172/102 199/199/102 198/198/102
f 172/172/106 170/170/106 200/200/106 199/199/106
f 170/170/9 168/168/9 201/201/9 200/200/9
f 168/168/107 166/166/107 202/202/107 201/201/107
f 166/166/108 164/164/108 203/203/108 202/202/108
f 164/164/109 162/162/109 189/189/109 203/203/109
f 159/159/64 161/161/64 205/205/64 204/204/64
f 161/161/74 163/163/74 206/206/74 205/205/74
f 163/163/66 165/165/66 207/207/66 206/206/66
f 165/165/67 167/167/67 208/208/67 207/207/67
f 167/167/64 169/169/64 209/209/64 208/208/64
f 169/169/110 171/171/110 210/210/110 209/209/110
f 171/171/111 173/173/111 211/211/111 210/210/111
f 173/173/112 175/175/112 212/212/112 211/211/112
f 175/175/113 177/177/113 213/213/113 212/212/113
f 177/177/114 179/179/114 214/214/114 213/213/114
f 179/179/115 181/181/115 215/215/115 214/214/115
f 181/181/110 183/183/110 216/216/110 215/215/110
f 183/183/116 185/185/116 217/217/116 216/216/116
f 185/185/117 187/187/117 218/218/117 217/217/117
f 187/187/73 159/159/73 204/204/73 218/218/73
f 207/207/118 208/208/118 201/201/118 202/202/118
f 208/208/119 209/209/119 200/200/119 201/201/119
f 209/209/79 210/210/79 199/199/79 200/200/79
f 210/210/120 211/211/120 198/198/120 199/199/120
f 211/211/2 212/212/2 197/197/2 198/198/2
f 212/212/121 213/213/121 196/196/121 197/197/121
f 213/213/122 214/214/122 195/195/122 196/196/122
f 214/214/123 215/215/123 194/194/123 195/195/123
f 215/215/124 216/216/124 193/193/124 194/194/124
f 216/216/85 217/217/85 192/192/85 193/193/85
f 217/217/86 218/218/86 191/191/86 192/192/86
f 218/218/125 204/204/125 190/190/125 191/191/125
f 204/204/126 205/205/126 189/189/126 190/190/126
