# Blender 3.4.1
# www.blender.org
mtllib console015.mtl
o consoles.015
v -2.787746 1.232810 0.928143
v 2.787148 1.232810 0.928123
v -2.787763 1.232810 -0.938548
v 2.787184 1.232810 -0.938513
v -2.840428 1.127284 0.980824
v 2.839854 1.127284 0.980831
v -2.840415 1.127284 -0.991202
v 2.839866 1.127284 -0.991195
v -2.840428 1.271684 0.980824
v 2.839854 1.271684 0.980831
v -2.840415 1.271684 -0.991202
v 2.839866 1.271684 -0.991195
v -2.787746 1.271684 0.928143
v 2.787148 1.271684 0.928123
v 2.787184 1.271684 -0.938513
v -2.787763 1.271684 -0.938548
v -2.787746 1.232810 0.928143
v 2.787148 1.232810 0.928123
v -2.787763 1.232810 -0.938548
v 2.787184 1.232810 -0.938513
v -2.840445 1.127284 0.893445
v 2.839837 1.127284 0.893452
v -2.840428 1.127284 0.776577
v 2.839854 1.127284 0.776584
v -0.000303 -2.145764 0.893448
v -0.000287 -2.145764 0.776581
v -2.673673 1.056175 0.893480
v 2.675591 1.056175 0.893481
v -2.673711 1.056175 0.776559
v 2.675553 1.056175 0.776560
v -0.000287 -2.038690 0.776581
v -0.000303 -2.038690 0.893448
v -2.840437 1.127284 -0.772260
v 2.839846 1.127284 -0.772254
v -2.840421 1.127284 -0.889127
v 2.839861 1.127284 -0.889120
v -0.000295 -2.145764 -0.772257
v -0.000279 -2.145764 -0.889124
v -2.673665 1.056175 -0.772225
v 2.675600 1.056175 -0.772225
v -2.673703 1.056175 -0.889146
v 2.675561 1.056175 -0.889145
v -0.000279 -2.038690 -0.889124
v -0.000295 -2.038690 -0.772257
v -2.840421 -2.149997 -0.889127
v 2.839861 -2.149997 -0.889120
v -2.840436 -2.149997 -0.772261
v 2.839846 -2.149997 -0.772254
v -0.000280 1.123052 -0.889123
v -0.000295 1.123052 -0.772257
v -2.673703 -2.078887 -0.889146
v 2.675561 -2.078887 -0.889145
v -2.673665 -2.078887 -0.772225
v 2.675600 -2.078887 -0.772225
v -0.000295 1.015978 -0.772257
v -0.000280 1.015978 -0.889123
v -2.840428 -2.149997 0.776577
v 2.839854 -2.149997 0.776584
v -2.840445 -2.149997 0.893445
v 2.839837 -2.149997 0.893452
v -0.000288 1.123052 0.776582
v -0.000303 1.123052 0.893448
v -2.673711 -2.078887 0.776559
v 2.675553 -2.078887 0.776560
v -2.673673 -2.078887 0.893480
v 2.675591 -2.078887 0.893481
v -0.000303 1.015978 0.893448
v -0.000288 1.015978 0.776582
vn -0.0000 1.0000 -0.0000
vn -0.0000 -1.0000 -0.0000
vn 1.0000 -0.0000 -0.0000
vn -0.0000 -0.0000 1.0000
vn -0.0000 -0.0000 -1.0000
vn -1.0000 -0.0000 -0.0000
vn 0.7553 -0.6554 0.0001
vn -0.7553 -0.6554 -0.0001
vn -0.7565 0.6540 0.0001
vn 0.7568 0.6537 -0.0001
vn -0.0000 0.0003 -1.0000
vn 0.0001 -0.0001 1.0000
vn -0.0001 -0.0001 -1.0000
vn -0.0000 0.0005 1.0000
vn -0.0002 -0.0002 1.0000
vn 0.0001 -0.0001 -1.0000
vn 0.7553 0.6554 0.0001
vn -0.7553 0.6554 -0.0001
vn -0.7565 -0.6540 0.0001
vn 0.7568 -0.6537 -0.0001
vn -0.0000 -0.0005 1.0000
vn 0.0001 0.0001 -1.0000
vn -0.0002 0.0002 1.0000
vn -0.0000 -0.0003 -1.0000
vn -0.0001 0.0001 -1.0000
vn 0.0001 0.0001 1.0000
vt 0.498091 0.474958
vt 0.498091 0.474958
vt 0.498091 0.474958
vt 0.498091 0.474958
vt 0.874591 0.100919
vt 0.874591 0.100919
vt 0.874591 0.100919
vt 0.874591 0.100919
vt 0.874591 0.100919
vt 0.874591 0.100919
vt 0.874591 0.100919
vt 0.874591 0.100919
vt 0.874591 0.100919
vt 0.874591 0.100919
vt 0.874591 0.100919
vt 0.874591 0.100919
vt 0.874591 0.100919
vt 0.874591 0.100919
vt 0.874591 0.100919
vt 0.874591 0.100919
vt 0.874591 0.100919
vt 0.874591 0.100919
vt 0.874591 0.100919
vt 0.874591 0.100919
vt 0.874591 0.100919
vt 0.874591 0.100919
vt 0.874591 0.100919
vt 0.874591 0.100919
vt 0.874591 0.100919
vt 0.874591 0.100919
vt 0.874591 0.100919
vt 0.874591 0.100919
vt 0.874591 0.100919
vt 0.874591 0.100919
vt 0.874591 0.100919
vt 0.874591 0.100919
vt 0.874591 0.100919
vt 0.874591 0.100919
vt 0.874591 0.100919
vt 0.874591 0.100919
vt 0.874591 0.100919
vt 0.874591 0.100919
vt 0.874591 0.100919
vt 0.874591 0.100919
vt 0.874591 0.100919
vt 0.874591 0.100919
vt 0.874591 0.100919
vt 0.874591 0.100919
vt 0.874591 0.100919
vt 0.874591 0.100919
vt 0.874591 0.100919
vt 0.874591 0.100919
vt 0.874591 0.100919
vt 0.874591 0.100919
vt 0.874591 0.100919
vt 0.874591 0.100919
vt 0.874591 0.100919
vt 0.874591 0.100919
vt 0.874591 0.100919
vt 0.874591 0.100919
vt 0.874591 0.100919
vt 0.874591 0.100919
vt 0.874591 0.100919
vt 0.874591 0.100919
vt 0.874591 0.100919
vt 0.874591 0.100919
vt 0.874591 0.100919
vt 0.874591 0.100919
s 0
usemtl Material
f 1/1/1 2/2/1 4/4/1 3/3/1
f 5/5/2 7/7/2 8/8/2 6/6/2
f 16/16/3 13/13/3 17/17/3 19/19/3
f 6/6/3 8/8/3 12/12/3 10/10/3
f 5/5/4 6/6/4 10/10/4 9/9/4
f 8/8/5 7/7/5 11/11/5 12/12/5
f 7/7/6 5/5/6 9/9/6 11/11/6
f 9/9/1 10/10/1 14/14/1 13/13/1
f 10/10/1 12/12/1 15/15/1 14/14/1
f 12/12/1 11/11/1 16/16/1 15/15/1
f 11/11/1 9/9/1 13/13/1 16/16/1
f 14/14/6 15/15/6 20/20/6 18/18/6
f 13/13/5 14/14/5 18/18/5 17/17/5
f 15/15/4 16/16/4 19/19/4 20/20/4
f 21/21/1 22/22/1 24/24/1 23/23/1
f 22/22/7 25/25/7 26/26/7 24/24/7
f 23/23/8 26/26/8 25/25/8 21/21/8
f 27/27/2 29/29/2 30/30/2 28/28/2
f 28/28/9 30/30/9 31/31/9 32/32/9
f 29/29/10 27/27/10 32/32/10 31/31/10
f 23/23/11 24/24/11 30/30/11 29/29/11
f 25/25/12 22/22/12 28/28/12 32/32/12
f 26/26/13 23/23/13 29/29/13 31/31/13
f 22/22/14 21/21/14 27/27/14 28/28/14
f 21/21/15 25/25/15 32/32/15 27/27/15
f 24/24/16 26/26/16 31/31/16 30/30/16
f 33/33/1 34/34/1 36/36/1 35/35/1
f 34/34/7 37/37/7 38/38/7 36/36/7
f 35/35/8 38/38/8 37/37/8 33/33/8
f 39/39/2 41/41/2 42/42/2 40/40/2
f 40/40/9 42/42/9 43/43/9 44/44/9
f 41/41/10 39/39/10 44/44/10 43/43/10
f 35/35/11 36/36/11 42/42/11 41/41/11
f 37/37/12 34/34/12 40/40/12 44/44/12
f 38/38/13 35/35/13 41/41/13 43/43/13
f 34/34/14 33/33/14 39/39/14 40/40/14
f 33/33/15 37/37/15 44/44/15 39/39/15
f 36/36/16 38/38/16 43/43/16 42/42/16
f 45/45/2 46/46/2 48/48/2 47/47/2
f 46/46/17 49/49/17 50/50/17 48/48/17
f 47/47/18 50/50/18 49/49/18 45/45/18
f 51/51/1 53/53/1 54/54/1 52/52/1
f 52/52/19 54/54/19 55/55/19 56/56/19
f 53/53/20 51/51/20 56/56/20 55/55/20
f 47/47/21 48/48/21 54/54/21 53/53/21
f 49/49/22 46/46/22 52/52/22 56/56/22
f 50/50/23 47/47/23 53/53/23 55/55/23
f 46/46/24 45/45/24 51/51/24 52/52/24
f 45/45/25 49/49/25 56/56/25 51/51/25
f 48/48/26 50/50/26 55/55/26 54/54/26
f 57/57/2 58/58/2 60/60/2 59/59/2
f 58/58/17 61/61/17 62/62/17 60/60/17
f 59/59/18 62/62/18 61/61/18 57/57/18
f 63/63/1 65/65/1 66/66/1 64/64/1
f 64/64/19 66/66/19 67/67/19 68/68/19
f 65/65/20 63/63/20 68/68/20 67/67/20
f 59/59/21 60/60/21 66/66/21 65/65/21
f 61/61/22 58/58/22 64/64/22 68/68/22
f 62/62/23 59/59/23 65/65/23 67/67/23
f 58/58/24 57/57/24 63/63/24 64/64/24
f 57/57/25 61/61/25 68/68/25 63/63/25
f 60/60/26 62/62/26 67/67/26 66/66/26
