# Blender 3.4.1
# www.blender.org
mtllib console013.mtl
o consoles.013
v -2.731853 1.636206 0.858767
v -2.920535 1.636206 0.637283
v -2.474121 1.636206 0.939828
v -2.989594 1.636206 0.334748
v -2.989594 0.801828 0.334748
v -2.474121 0.801828 0.939828
v -2.920535 0.801828 0.637283
v -2.731853 0.801828 0.858767
v 2.993760 0.801828 0.334763
v 2.478297 0.801828 0.939834
v 2.924707 0.801828 0.637303
v 2.736033 0.801828 0.858776
v -2.474121 0.801828 -1.434152
v -2.989587 0.801828 -0.829079
v -2.731862 0.801828 -1.353091
v -2.920532 0.801828 -1.131621
v 2.478296 0.801828 -1.434146
v 2.993767 0.801828 -0.829063
v 2.736025 0.801828 -1.353082
v 2.924710 0.801828 -1.131600
v 2.993760 1.636206 0.334763
v 2.478297 1.636206 0.939834
v 2.924707 1.636206 0.637303
v 2.736033 1.636206 0.858776
v -2.474121 1.636206 -1.434152
v -2.989587 1.636206 -0.829079
v -2.731862 1.636206 -1.353091
v -2.920532 1.636206 -1.131621
v 2.478296 1.636206 -1.434146
v 2.993767 1.636206 -0.829063
v 2.736025 1.636206 -1.353082
v 2.924710 1.636206 -1.131600
v 0.036076 0.801828 0.939831
v -0.031901 0.801828 0.939832
v -0.031901 1.636206 0.939832
v 0.036076 1.636206 0.939831
v -0.002135 0.801828 0.913843
v 0.006330 0.801828 0.913848
v 0.006330 1.636206 0.913848
v -0.002135 1.636206 0.913843
v -2.937554 1.636206 0.326730
v -2.873888 1.636206 0.605688
v -2.704935 1.636206 0.804012
v -2.467276 1.636206 0.878766
v -2.704935 1.590536 0.804012
v -2.937575 1.590536 -0.821046
v -2.873888 1.590536 0.605688
v -2.937554 1.590536 0.326730
v 2.471443 1.636206 0.878767
v 2.709106 1.636206 0.804026
v 2.878053 1.636206 0.605678
v 2.941751 1.636206 0.326728
v 2.941729 1.636206 -0.821047
v 2.878064 1.636206 -1.100005
v 2.709110 1.636206 -1.298330
v 2.471452 1.636206 -1.373083
v -2.467268 1.636206 -1.373085
v -2.704931 1.636206 -1.298344
v -2.873879 1.636206 -1.099995
v -2.937575 1.636206 -0.821046
v -2.467276 1.590536 0.878766
v 2.471443 1.590536 0.878767
v 2.709106 1.590536 0.804026
v 2.878053 1.590536 0.605678
v 2.941751 1.590536 0.326728
v 2.941729 1.590536 -0.821047
v 2.878064 1.590536 -1.100005
v 2.709110 1.590536 -1.298330
v 2.471452 1.590536 -1.373083
v -2.467268 1.590536 -1.373085
v -2.704931 1.590536 -1.298344
v -2.873879 1.590536 -1.099995
v 1.405136 0.801828 0.936463
v 1.139771 0.801828 0.936458
v 1.301131 1.413505 0.936456
v 1.405136 1.323070 0.936463
v 1.353136 1.401389 0.936457
v 1.391183 1.368288 0.936444
v 1.243780 1.413505 0.936460
v 1.139771 1.323070 0.936458
v 1.191776 1.401389 0.936459
v 1.153701 1.368288 0.936446
v 1.405124 0.801828 0.976234
v 1.139759 0.801828 0.976229
v 1.301119 1.413505 0.976228
v 1.405124 1.323070 0.976234
v 1.353124 1.401389 0.976229
v 1.391199 1.368288 0.976241
v 1.243769 1.413505 0.976231
v 1.139759 1.323070 0.976229
v 1.191764 1.401389 0.976230
v 1.153717 1.368288 0.976244
v -1.131318 0.801828 0.936445
v -1.396683 0.801828 0.936440
v -1.235325 1.413505 0.936441
v -1.131318 1.323070 0.936445
v -1.183323 1.401389 0.936444
v -1.145243 1.368288 0.936452
v -1.292675 1.413505 0.936444
v -1.396683 1.323070 0.936440
v -1.344678 1.401389 0.936441
v -1.382730 1.368288 0.936460
v -1.131302 0.801828 0.976243
v -1.396667 0.801828 0.976238
v -1.235309 1.413505 0.976239
v -1.131302 1.323070 0.976243
v -1.183307 1.401389 0.976242
v -1.145255 1.368288 0.976223
v -1.292659 1.413505 0.976242
v -1.396667 1.323070 0.976238
v -1.344662 1.401389 0.976239
v -1.382741 1.368288 0.976230
v -2.474121 0.810485 0.771511
v -2.474129 0.810485 -1.264909
v -2.220478 0.810485 -1.264897
v -2.220498 0.810485 0.771497
v -2.474134 0.810485 0.846781
v -2.220482 0.810485 0.846793
v -2.474114 0.810485 -1.189613
v -2.220489 0.810485 -1.189628
v -2.474122 -2.377387 0.518712
v -2.474121 -2.190122 0.771511
v -2.474122 -2.352298 0.645112
v -2.474127 -2.283755 0.737638
v -2.220498 -2.190122 0.771497
v -2.220498 -2.377387 0.518697
v -2.220476 -2.283755 0.737650
v -2.220498 -2.352298 0.645097
v -2.474114 -2.190122 -1.189613
v -2.474114 -2.377387 -0.936813
v -2.474136 -2.283755 -1.155766
v -2.474114 -2.352298 -1.063213
v -2.220489 -2.377387 -0.936828
v -2.220489 -2.190122 -1.189628
v -2.220489 -2.352298 -1.063228
v -2.220484 -2.283755 -1.155754
v -2.220488 -2.311638 0.802831
v -2.220484 -2.197401 0.846147
v -2.474136 -2.197401 0.846136
v -2.474113 -2.311638 0.802847
v -2.220490 -2.400593 0.682745
v -2.474115 -2.400593 0.682760
v -2.220474 -2.432676 0.528545
v -2.474126 -2.432676 0.528534
v -2.220497 -2.400593 -1.100876
v -2.220486 -2.432676 -0.946650
v -2.474137 -2.432676 -0.946662
v -2.474121 -2.400593 -1.100861
v -2.220498 -2.311638 -1.220963
v -2.474122 -2.311638 -1.220948
v -2.220476 -2.197401 -1.264252
v -2.474127 -2.197401 -1.264263
v 2.210612 0.810485 0.771511
v 2.210605 0.810485 -1.264909
v 2.464256 0.810485 -1.264897
v 2.464237 0.810485 0.771496
v 2.210600 0.810485 0.846780
v 2.464252 0.810485 0.846792
v 2.210620 0.810485 -1.189613
v 2.464244 0.810485 -1.189628
v 2.210612 -2.377387 0.518711
v 2.210612 -2.190122 0.771511
v 2.210612 -2.352298 0.645111
v 2.210607 -2.283755 0.737637
v 2.464237 -2.190122 0.771496
v 2.464237 -2.377387 0.518696
v 2.464258 -2.283755 0.737649
v 2.464237 -2.352298 0.645096
v 2.210620 -2.190122 -1.189613
v 2.210620 -2.377387 -0.936813
v 2.210598 -2.283755 -1.155766
v 2.210620 -2.352298 -1.063213
v 2.464244 -2.377387 -0.936828
v 2.464244 -2.190122 -1.189628
v 2.464244 -2.352298 -1.063228
v 2.464249 -2.283755 -1.155754
v 2.464245 -2.311638 0.802831
v 2.464250 -2.197401 0.846146
v 2.210598 -2.197401 0.846135
v 2.210620 -2.311638 0.802847
v 2.464244 -2.400593 0.682744
v 2.210620 -2.400593 0.682759
v 2.464259 -2.432676 0.528545
v 2.210608 -2.432676 0.528534
v 2.464237 -2.400593 -1.100877
v 2.464248 -2.432676 -0.946650
v 2.210598 -2.432676 -0.946663
v 2.210613 -2.400593 -1.100862
v 2.464236 -2.311638 -1.220963
v 2.210611 -2.311638 -1.220948
v 2.464258 -2.197401 -1.264251
v 2.210606 -2.197401 -1.264263
v -2.233055 -0.022982 0.827212
v 2.239346 -0.022982 0.827206
v 2.239344 -0.225378 0.826560
v -2.233057 -0.225378 0.826567
v 2.239345 -0.225184 0.782807
v -2.233056 -0.225184 0.782814
v 2.239347 -0.022788 0.783453
v -2.233054 -0.022788 0.783460
v -2.233042 -0.022982 -1.200650
v 2.239359 -0.022982 -1.200657
v 2.239357 -0.225378 -1.201303
v -2.233044 -0.225378 -1.201296
v 2.239359 -0.225184 -1.245056
v -2.233043 -0.225184 -1.245049
v 2.239359 -0.022788 -1.244409
v -2.233068 -0.022788 -1.244430
v -2.233042 -1.582480 -1.200650
v 2.239359 -1.582480 -1.200657
v 2.239357 -1.784876 -1.201303
v -2.233044 -1.784876 -1.201296
v 2.239359 -1.784681 -1.245056
v -2.233043 -1.784681 -1.245049
v 2.239359 -1.582285 -1.244409
v -2.233068 -1.582285 -1.244430
vn -0.0000 -0.0000 1.0000
vn -0.3000 -0.0000 0.9539
vn 0.3000 -0.0000 -0.9539
vn -0.0000 -1.0000 -0.0000
vn -0.0000 -0.0000 -1.0000
vn 0.3000 -0.0000 0.9539
vn -0.3000 -0.0000 -0.9539
vn 0.7612 -0.0000 0.6485
vn -0.7612 -0.0000 -0.6485
vn 0.9749 -0.0000 0.2225
vn -1.0000 -0.0000 -0.0000
vn -0.9749 -0.0000 -0.2225
vn 1.0000 -0.0000 -0.0000
vn -0.9749 -0.0000 0.2225
vn 0.9749 -0.0000 -0.2225
vn -0.7612 -0.0000 0.6485
vn 0.7612 -0.0000 -0.6485
vn 0.6577 -0.0000 0.7533
vn -0.0006 -0.0000 1.0000
vn -0.6579 -0.0000 0.7531
vn -0.0000 1.0000 -0.0000
vn -0.7613 -0.0000 -0.6484
vn 0.7613 -0.0000 0.6484
vn -0.9749 -0.0000 -0.2226
vn 0.9749 -0.0000 0.2226
vn 0.2269 0.9739 0.0001
vn 1.0000 -0.0000 0.0003
vn -0.9556 0.2947 -0.0000
vn 0.9556 0.2946 -0.0001
vn -0.2269 0.9739 -0.0001
vn 0.6562 0.7546 -0.0000
vn -1.0000 -0.0000 -0.0003
vn -0.6562 0.7546 -0.0000
vn 0.2269 0.9739 -0.0001
vn 1.0000 -0.0000 -0.0004
vn -0.9556 0.2946 0.0001
vn 0.9556 0.2946 -0.0000
vn -0.2269 0.9739 0.0001
vn -1.0000 -0.0000 0.0004
vn 0.0001 -0.0000 1.0000
vn -0.0000 0.3401 -0.9404
vn -0.0000 0.8036 -0.5952
vn -0.0000 0.9809 -0.1947
vn -0.0000 0.9809 0.1947
vn -0.0000 0.8036 0.5952
vn -0.0000 0.3401 0.9404
vn -0.0001 -0.0000 -1.0000
vn -0.0000 -0.0002 -1.0000
vn -0.0000 -0.3545 0.9351
vn -0.0000 -0.8036 0.5952
vn -0.0000 -0.9790 0.2037
vn -0.0000 -0.9790 -0.2037
vn -0.0000 -0.8036 -0.5952
vn -0.0000 -0.3544 -0.9351
vn -0.0000 -0.0002 1.0000
vn 1.0000 -0.0001 -0.0000
vn -1.0000 0.0003 -0.0000
vn -1.0000 -0.0002 0.0001
vn -1.0000 -0.0000 -0.0002
vn 1.0000 -0.0000 -0.0002
vn 1.0000 -0.0002 -0.0001
vn 1.0000 0.0003 -0.0000
vn 1.0000 0.0002 -0.0000
vn 1.0000 0.0001 -0.0000
vn -1.0000 -0.0001 -0.0000
vn -1.0000 0.0002 -0.0000
vn 1.0000 -0.0000 0.0002
vn -1.0000 -0.0000 0.0002
vn -1.0000 0.0001 -0.0000
vn -0.0000 -0.3544 0.9351
vn 1.0000 -0.0001 -0.0001
vn -0.0000 -0.0032 1.0000
vn -0.0000 0.0032 -1.0000
vn -0.0000 -1.0000 -0.0044
vn -0.0000 1.0000 0.0044
vn -0.0000 0.0031 -1.0000
vn -1.0000 -0.0001 0.0003
vt 0.252013 0.957271
vt 0.252013 0.957271
vt 0.252013 0.957271
vt 0.252013 0.957271
vt 0.252013 0.957271
vt 0.252013 0.957271
vt 0.252013 0.957271
vt 0.252013 0.957271
vt 0.252013 0.957271
vt 0.252013 0.957271
vt 0.252013 0.957271
vt 0.252013 0.957271
vt 0.252013 0.957271
vt 0.252013 0.957271
vt 0.252013 0.957271
vt 0.252013 0.957271
vt 0.252013 0.957271
vt 0.252013 0.957271
vt 0.252013 0.957271
vt 0.252013 0.957271
vt 0.252013 0.957271
vt 0.252013 0.957271
vt 0.252013 0.957271
vt 0.252013 0.957271
vt 0.252013 0.957271
vt 0.252013 0.957271
vt 0.252013 0.957271
vt 0.252013 0.957271
vt 0.252013 0.957271
vt 0.252013 0.957271
vt 0.252013 0.957271
vt 0.252013 0.957271
vt 0.252013 0.957271
vt 0.252013 0.957271
vt 0.252013 0.957271
vt 0.252013 0.957271
vt 0.252013 0.957271
vt 0.252013 0.957271
vt 0.252013 0.957271
vt 0.252013 0.957271
vt 0.252013 0.957271
vt 0.252013 0.957271
vt 0.252013 0.957271
vt 0.252013 0.957271
vt 0.252013 0.957271
vt 0.252013 0.957271
vt 0.252013 0.957271
vt 0.252013 0.957271
vt 0.252013 0.957271
vt 0.252013 0.957271
vt 0.252013 0.957271
vt 0.252013 0.957271
vt 0.252013 0.957271
vt 0.252013 0.957271
vt 0.252013 0.957271
vt 0.252013 0.957271
vt 0.252013 0.957271
vt 0.252013 0.957271
vt 0.252013 0.957271
vt 0.252013 0.957271
vt 0.252013 0.957271
vt 0.252013 0.957271
vt 0.252013 0.957271
vt 0.252013 0.957271
vt 0.252013 0.957271
vt 0.252013 0.957271
vt 0.252013 0.957271
vt 0.252013 0.957271
vt 0.252013 0.957271
vt 0.252013 0.957271
vt 0.252013 0.957271
vt 0.252013 0.957271
vt 0.849983 0.103379
vt 0.849983 0.103379
vt 0.849983 0.103379
vt 0.849983 0.103379
vt 0.849983 0.103379
vt 0.849983 0.103379
vt 0.849983 0.103379
vt 0.849983 0.103379
vt 0.849983 0.103379
vt 0.849983 0.103379
vt 0.849983 0.103379
vt 0.849983 0.103379
vt 0.849983 0.103379
vt 0.849983 0.103379
vt 0.849983 0.103379
vt 0.849983 0.103379
vt 0.849983 0.103379
vt 0.849983 0.103379
vt 0.849983 0.103379
vt 0.849983 0.103379
vt 0.849983 0.103379
vt 0.849983 0.103379
vt 0.849983 0.103379
vt 0.849983 0.103379
vt 0.849983 0.103379
vt 0.849983 0.103379
vt 0.849983 0.103379
vt 0.849983 0.103379
vt 0.849983 0.103379
vt 0.849983 0.103379
vt 0.849983 0.103379
vt 0.849983 0.103379
vt 0.849983 0.103379
vt 0.849983 0.103379
vt 0.849983 0.103379
vt 0.849983 0.103379
vt 0.849983 0.103379
vt 0.849983 0.103379
vt 0.849983 0.103379
vt 0.849983 0.103379
vt 0.849983 0.103379
vt 0.849983 0.103379
vt 0.849983 0.103379
vt 0.849983 0.103379
vt 0.849983 0.103379
vt 0.849983 0.103379
vt 0.849983 0.103379
vt 0.849983 0.103379
vt 0.849983 0.103379
vt 0.849983 0.103379
vt 0.849983 0.103379
vt 0.849983 0.103379
vt 0.849983 0.103379
vt 0.849983 0.103379
vt 0.849983 0.103379
vt 0.849983 0.103379
vt 0.849983 0.103379
vt 0.849983 0.103379
vt 0.849983 0.103379
vt 0.849983 0.103379
vt 0.849983 0.103379
vt 0.849983 0.103379
vt 0.849983 0.103379
vt 0.849983 0.103379
vt 0.849983 0.103379
vt 0.849983 0.103379
vt 0.849983 0.103379
vt 0.849983 0.103379
vt 0.849983 0.103379
vt 0.849983 0.103379
vt 0.849983 0.103379
vt 0.849983 0.103379
vt 0.849983 0.103379
vt 0.849983 0.103379
vt 0.849983 0.103379
vt 0.849983 0.103379
vt 0.849983 0.103379
vt 0.849983 0.103379
vt 0.849983 0.103379
vt 0.849983 0.103379
vt 0.849983 0.103379
vt 0.849983 0.103379
vt 0.849983 0.103379
vt 0.849983 0.103379
vt 0.849983 0.103379
vt 0.849983 0.103379
vt 0.849983 0.103379
vt 0.849983 0.103379
vt 0.849983 0.103379
vt 0.849983 0.103379
vt 0.849983 0.103379
vt 0.849983 0.103379
vt 0.849983 0.103379
vt 0.849983 0.103379
vt 0.849983 0.103379
vt 0.849983 0.103379
vt 0.849983 0.103379
vt 0.849983 0.103379
vt 0.849983 0.103379
vt 0.849983 0.103379
vt 0.849983 0.103379
vt 0.849983 0.103379
vt 0.849983 0.103379
vt 0.849983 0.103379
vt 0.849983 0.103379
vt 0.849983 0.103379
vt 0.849983 0.103379
vt 0.849983 0.103379
vt 0.849983 0.103379
vt 0.849983 0.103379
vt 0.849983 0.103379
vt 0.849983 0.103379
vt 0.849983 0.103379
vt 0.849983 0.103379
vt 0.849983 0.103379
vt 0.849983 0.103379
vt 0.849983 0.103379
vt 0.849983 0.103379
vt 0.849983 0.103379
vt 0.849983 0.103379
vt 0.849983 0.103379
vt 0.849983 0.103379
vt 0.849983 0.103379
vt 0.849983 0.103379
vt 0.849983 0.103379
vt 0.849983 0.103379
vt 0.849983 0.103379
vt 0.849983 0.103379
vt 0.849983 0.103379
vt 0.849983 0.103379
vt 0.849983 0.103379
vt 0.849983 0.103379
vt 0.849983 0.103379
vt 0.849983 0.103379
vt 0.849983 0.103379
vt 0.849983 0.103379
vt 0.849983 0.103379
vt 0.849983 0.103379
vt 0.849983 0.103379
vt 0.849983 0.103379
vt 0.849983 0.103379
vt 0.849983 0.103379
vt 0.849983 0.103379
vt 0.849983 0.103379
s 0
usemtl Material
f 6/6/1 34/34/1 35/35/1 3/3/1
f 8/8/2 6/6/2 3/3/2 1/1/2
f 19/19/3 17/17/3 29/29/3 31/31/3
f 5/5/4 14/14/4 16/16/4 15/15/4 13/13/4 17/17/4 19/19/4 20/20/4 18/18/4 9/9/4 11/11/4 12/12/4 10/10/4 33/33/4 38/38/4 37/37/4 34/34/4 6/6/4 8/8/4 7/7/4
f 17/17/5 13/13/5 25/25/5 29/29/5
f 10/10/6 12/12/6 24/24/6 22/22/6
f 13/13/7 15/15/7 27/27/7 25/25/7
f 12/12/8 11/11/8 23/23/8 24/24/8
f 15/15/9 16/16/9 28/28/9 27/27/9
f 11/11/10 9/9/10 21/21/10 23/23/10
f 14/14/11 5/5/11 4/4/11 26/26/11
f 16/16/12 14/14/12 26/26/12 28/28/12
f 9/9/13 18/18/13 30/30/13 21/21/13
f 5/5/14 7/7/14 2/2/14 4/4/14
f 18/18/15 20/20/15 32/32/15 30/30/15
f 7/7/16 8/8/16 1/1/16 2/2/16
f 20/20/17 19/19/17 31/31/17 32/32/17
f 44/44/5 49/49/5 62/62/5 61/61/5
f 35/35/18 34/34/18 37/37/18 40/40/18
f 33/33/1 10/10/1 22/22/1 36/36/1
f 38/38/19 39/39/19 40/40/19 37/37/19
f 33/33/20 36/36/20 39/39/20 38/38/20
f 4/4/21 2/2/21 42/42/21 41/41/21
f 2/2/21 1/1/21 43/43/21 42/42/21
f 1/1/21 3/3/21 44/44/21 43/43/21
f 56/56/1 57/57/1 70/70/1 69/69/1
f 42/42/17 43/43/17 45/45/17 47/47/17
f 60/60/13 41/41/13 48/48/13 46/46/13
f 35/35/21 40/40/21 39/39/21 36/36/21 22/22/21 49/49/21 44/44/21 3/3/21
f 48/48/21 47/47/21 45/45/21 61/61/21 62/62/21 63/63/21 64/64/21 65/65/21 66/66/21 67/67/21 68/68/21 69/69/21 70/70/21 71/71/21 72/72/21 46/46/21
f 22/22/21 24/24/21 50/50/21 49/49/21
f 24/24/21 23/23/21 51/51/21 50/50/21
f 23/23/21 21/21/21 52/52/21 51/51/21
f 21/21/21 30/30/21 53/53/21 52/52/21
f 30/30/21 32/32/21 54/54/21 53/53/21
f 32/32/21 31/31/21 55/55/21 54/54/21
f 31/31/21 29/29/21 56/56/21 55/55/21
f 29/29/21 25/25/21 57/57/21 56/56/21
f 25/25/21 27/27/21 58/58/21 57/57/21
f 27/27/21 28/28/21 59/59/21 58/58/21
f 28/28/21 26/26/21 60/60/21 59/59/21
f 26/26/21 4/4/21 41/41/21 60/60/21
f 49/49/7 50/50/7 63/63/7 62/62/7
f 57/57/6 58/58/6 71/71/6 70/70/6
f 50/50/22 51/51/22 64/64/22 63/63/22
f 43/43/3 44/44/3 61/61/3 45/45/3
f 58/58/23 59/59/23 72/72/23 71/71/23
f 51/51/24 52/52/24 65/65/24 64/64/24
f 59/59/25 60/60/25 46/46/25 72/72/25
f 52/52/11 53/53/11 66/66/11 65/65/11
f 53/53/14 54/54/14 67/67/14 66/66/14
f 54/54/16 55/55/16 68/68/16 67/67/16
f 41/41/15 42/42/15 47/47/15 48/48/15
f 55/55/2 56/56/2 69/69/2 68/68/2
s 1
f 74/74/5 80/80/5 82/82/5 81/81/5 79/79/5 75/75/5 77/77/5 78/78/5 76/76/5 73/73/5
f 84/84/1 83/83/1 86/86/1 88/88/1 87/87/1 85/85/1 89/89/1 91/91/1 92/92/1 90/90/1
f 77/77/26 75/75/26 85/85/26 87/87/26
f 73/73/27 76/76/27 86/86/27 83/83/27
f 82/82/28 80/80/28 90/90/28 92/92/28
f 75/75/21 79/79/21 89/89/21 85/85/21
f 76/76/29 78/78/29 88/88/29 86/86/29
f 74/74/4 73/73/4 83/83/4 84/84/4
f 79/79/30 81/81/30 91/91/30 89/89/30
f 78/78/31 77/77/31 87/87/31 88/88/31
f 80/80/32 74/74/32 84/84/32 90/90/32
f 81/81/33 82/82/33 92/92/33 91/91/33
f 94/94/5 100/100/5 102/102/5 101/101/5 99/99/5 95/95/5 97/97/5 98/98/5 96/96/5 93/93/5
f 104/104/1 103/103/1 106/106/1 108/108/1 107/107/1 105/105/1 109/109/1 111/111/1 112/112/1 110/110/1
f 97/97/34 95/95/34 105/105/34 107/107/34
f 93/93/35 96/96/35 106/106/35 103/103/35
f 102/102/36 100/100/36 110/110/36 112/112/36
f 95/95/21 99/99/21 109/109/21 105/105/21
f 96/96/37 98/98/37 108/108/37 106/106/37
f 94/94/4 93/93/4 103/103/4 104/104/4
f 99/99/38 101/101/38 111/111/38 109/109/38
f 98/98/31 97/97/31 107/107/31 108/108/31
f 100/100/39 94/94/39 104/104/39 110/110/39
f 101/101/33 102/102/33 112/112/33 111/111/33
s 0
f 126/126/21 133/133/21 130/130/21 121/121/21
f 134/134/40 120/120/40 119/119/40 129/129/40
f 143/143/4 144/144/4 147/147/4 146/146/4
f 125/125/41 127/127/41 124/124/41 122/122/41
f 127/127/42 128/128/42 123/123/42 124/124/42
f 128/128/43 126/126/43 121/121/43 123/123/43
f 133/133/44 135/135/44 132/132/44 130/130/44
f 135/135/45 136/136/45 131/131/45 132/132/45
f 136/136/46 134/134/46 129/129/46 131/131/46
f 122/122/47 113/113/47 116/116/47 125/125/47
f 151/151/48 152/152/48 114/114/48 115/115/48
f 138/138/49 139/139/49 140/140/49 137/137/49
f 137/137/50 140/140/50 142/142/50 141/141/50
f 141/141/51 142/142/51 144/144/51 143/143/51
f 146/146/52 147/147/52 148/148/52 145/145/52
f 145/145/53 148/148/53 150/150/53 149/149/53
f 149/149/54 150/150/54 152/152/54 151/151/54
f 139/139/55 138/138/55 118/118/55 117/117/55
f 128/128/56 127/127/56 137/137/56 141/141/56
f 119/119/21 120/120/21 115/115/21 114/114/21
f 130/130/57 132/132/57 148/148/57 147/147/57
f 124/124/58 123/123/58 142/142/58 140/140/58
f 113/113/59 122/122/59 139/139/59 117/117/59
f 125/125/60 116/116/60 118/118/60 138/138/60
f 136/136/61 135/135/61 145/145/61 149/149/61
f 126/126/62 128/128/62 141/141/62 143/143/62
f 133/133/63 126/126/63 143/143/63 146/146/63
f 127/127/64 125/125/64 138/138/64 137/137/64
f 132/132/65 131/131/65 150/150/65 148/148/65
f 116/116/21 113/113/21 117/117/21 118/118/21
f 123/123/11 121/121/11 144/144/11 142/142/11
f 121/121/66 130/130/66 147/147/66 144/144/66
f 120/120/67 134/134/67 151/151/67 115/115/67
f 122/122/65 124/124/65 140/140/65 139/139/65
f 134/134/56 136/136/56 149/149/56 151/151/56
f 135/135/13 133/133/13 146/146/13 145/145/13
f 129/129/68 119/119/68 114/114/68 152/152/68
f 131/131/69 129/129/69 152/152/69 150/150/69
f 166/166/21 173/173/21 170/170/21 161/161/21
f 174/174/40 160/160/40 159/159/40 169/169/40
f 183/183/4 184/184/4 187/187/4 186/186/4
f 165/165/41 167/167/41 164/164/41 162/162/41
f 167/167/42 168/168/42 163/163/42 164/164/42
f 168/168/43 166/166/43 161/161/43 163/163/43
f 173/173/44 175/175/44 172/172/44 170/170/44
f 175/175/45 176/176/45 171/171/45 172/172/45
f 176/176/46 174/174/46 169/169/46 171/171/46
f 162/162/47 153/153/47 156/156/47 165/165/47
f 191/191/48 192/192/48 154/154/48 155/155/48
f 178/178/70 179/179/70 180/180/70 177/177/70
f 177/177/50 180/180/50 182/182/50 181/181/50
f 181/181/51 182/182/51 184/184/51 183/183/51
f 186/186/52 187/187/52 188/188/52 185/185/52
f 185/185/53 188/188/53 190/190/53 189/189/53
f 189/189/54 190/190/54 192/192/54 191/191/54
f 179/179/55 178/178/55 158/158/55 157/157/55
f 168/168/56 167/167/56 177/177/56 181/181/56
f 159/159/21 160/160/21 155/155/21 154/154/21
f 170/170/57 172/172/57 188/188/57 187/187/57
f 164/164/58 163/163/58 182/182/58 180/180/58
f 153/153/59 162/162/59 179/179/59 157/157/59
f 165/165/60 156/156/60 158/158/60 178/178/60
f 176/176/71 175/175/71 185/185/71 189/189/71
f 166/166/62 168/168/62 181/181/62 183/183/62
f 173/173/63 166/166/63 183/183/63 186/186/63
f 167/167/64 165/165/64 178/178/64 177/177/64
f 172/172/65 171/171/65 190/190/65 188/188/65
f 156/156/21 153/153/21 157/157/21 158/158/21
f 163/163/11 161/161/11 184/184/11 182/182/11
f 161/161/66 170/170/66 187/187/66 184/184/66
f 160/160/67 174/174/67 191/191/67 155/155/67
f 162/162/65 164/164/65 180/180/65 179/179/65
f 174/174/56 176/176/56 189/189/56 191/191/56
f 175/175/13 173/173/13 186/186/13 185/185/13
f 169/169/68 159/159/68 154/154/68 192/192/68
f 171/171/69 169/169/69 192/192/69 190/190/69
f 196/196/72 195/195/72 194/194/72 193/193/72
f 198/198/73 200/200/73 199/199/73 197/197/73
f 193/193/11 200/200/11 198/198/11 196/196/11
f 196/196/74 198/198/74 197/197/74 195/195/74
f 195/195/13 197/197/13 199/199/13 194/194/13
f 194/194/75 199/199/75 200/200/75 193/193/75
f 204/204/72 203/203/72 202/202/72 201/201/72
f 206/206/76 208/208/76 207/207/76 205/205/76
f 201/201/77 208/208/77 206/206/77 204/204/77
f 204/204/74 206/206/74 205/205/74 203/203/74
f 203/203/13 205/205/13 207/207/13 202/202/13
f 202/202/75 207/207/75 208/208/75 201/201/75
f 212/212/72 211/211/72 210/210/72 209/209/72
f 214/214/76 216/216/76 215/215/76 213/213/76
f 209/209/77 216/216/77 214/214/77 212/212/77
f 212/212/74 214/214/74 213/213/74 211/211/74
f 211/211/13 213/213/13 215/215/13 210/210/13
f 210/210/75 215/215/75 216/216/75 209/209/75
