# Blender 3.4.1
# www.blender.org
mtllib door002.mtl
o door.001
v -3.255687 -4.516123 0.000000
v 1.046564 -4.516123 0.000000
v -3.255687 5.483877 0.000000
v 1.046564 5.483877 0.000000
v -3.024610 5.252800 0.000000
v -3.024610 -4.285047 0.000000
v 0.815486 -4.285047 0.000000
v 0.815486 5.252800 0.000000
v -3.024610 5.252800 0.065401
v -3.024610 -4.285047 0.065401
v 0.815486 -4.285047 0.065401
v 0.815486 5.252800 0.065401
v -3.255687 5.483877 0.065401
v -3.255687 -4.516123 0.065401
v 1.046564 -4.516123 0.065401
v 1.046564 5.483877 0.065401
v -2.951332 5.185804 0.101134
v -2.951332 -4.218051 0.101133
v 0.742208 -4.218051 0.101133
v 0.742208 5.185804 0.101134
v 0.517530 0.196006 0.254827
v 0.364548 0.196006 0.254826
v 0.364548 -0.591604 0.254826
v 0.517530 -0.591604 0.254827
v 0.517530 0.196006 0.216252
v 0.364548 0.196006 0.216252
v 0.364548 -0.591604 0.216252
v 0.517530 -0.591604 0.216252
v 0.517530 0.270996 0.216252
v 0.364548 0.270996 0.216252
v 0.364548 -0.649595 0.216252
v 0.517530 -0.649595 0.216252
v 0.517530 0.196006 0.098720
v 0.364548 0.196006 0.098720
v 0.364548 -0.591604 0.098720
v 0.517530 -0.591604 0.098720
v 0.517530 0.270996 0.098720
v 0.364548 0.270996 0.098720
v 0.364548 -0.649595 0.098720
v 0.517530 -0.649595 0.098720
v 0.517530 0.270996 0.218284
v 0.517530 0.234454 0.254827
v 0.517530 0.260293 0.244124
v 0.364548 0.234454 0.254826
v 0.364548 0.270996 0.218284
v 0.364548 0.260293 0.244123
v 0.364548 -0.649595 0.218284
v 0.364548 -0.613053 0.254826
v 0.364548 -0.638892 0.244123
v 0.517530 -0.613053 0.254827
v 0.517530 -0.649595 0.218284
v 0.517530 -0.638892 0.244124
v 0.532483 0.109706 0.275598
v 0.357453 0.109706 0.275598
v 0.357453 -0.505320 0.275598
v 0.532483 -0.505320 0.275598
v 0.532483 0.109706 0.195481
v 0.357453 0.109706 0.195480
v 0.357453 -0.505320 0.195480
v 0.532483 -0.505320 0.195481
v -3.024610 5.252800 -0.065401
v -3.024610 -4.285047 -0.065401
v 0.815486 -4.285047 -0.065401
v 0.815486 5.252800 -0.065401
v -3.255687 5.483877 -0.065401
v -3.255687 -4.516123 -0.065401
v 1.046564 -4.516123 -0.065401
v 1.046564 5.483877 -0.065401
v -2.951332 5.185804 -0.101134
v -2.951332 -4.218051 -0.101133
v 0.742208 -4.218051 -0.101133
v 0.742208 5.185804 -0.101134
v 0.517530 0.196006 -0.254827
v 0.364548 0.196006 -0.254826
v 0.364548 -0.591604 -0.254826
v 0.517530 -0.591604 -0.254827
v 0.517530 0.196006 -0.216252
v 0.364548 0.196006 -0.216252
v 0.364548 -0.591604 -0.216252
v 0.517530 -0.591604 -0.216252
v 0.517530 0.270996 -0.216252
v 0.364548 0.270996 -0.216252
v 0.364548 -0.649595 -0.216252
v 0.517530 -0.649595 -0.216252
v 0.517530 0.196006 -0.098720
v 0.364548 0.196006 -0.098720
v 0.364548 -0.591604 -0.098720
v 0.517530 -0.591604 -0.098720
v 0.517530 0.270996 -0.098720
v 0.364548 0.270996 -0.098720
v 0.364548 -0.649595 -0.098720
v 0.517530 -0.649595 -0.098720
v 0.517530 0.270996 -0.218284
v 0.517530 0.234454 -0.254827
v 0.517530 0.260293 -0.244124
v 0.364548 0.234454 -0.254826
v 0.364548 0.270996 -0.218284
v 0.364548 0.260293 -0.244123
v 0.364548 -0.649595 -0.218284
v 0.364548 -0.613053 -0.254826
v 0.364548 -0.638892 -0.244123
v 0.517530 -0.613053 -0.254827
v 0.517530 -0.649595 -0.218284
v 0.517530 -0.638892 -0.244124
v 0.532483 0.109706 -0.275598
v 0.357453 0.109706 -0.275598
v 0.357453 -0.505320 -0.275598
v 0.532483 -0.505320 -0.275598
v 0.532483 0.109706 -0.195481
v 0.357453 0.109706 -0.195480
v 0.357453 -0.505320 -0.195480
v 0.532483 -0.505320 -0.195481
vn -0.0000 0.8337 0.5523
vn 1.0000 -0.0000 -0.0000
vn -1.0000 -0.0000 -0.0000
vn -0.0000 -0.0000 1.0000
vn -0.0000 1.0000 -0.0000
vn -0.0000 -1.0000 -0.0000
vn -0.0000 -0.8337 0.5523
vn 0.8098 -0.0000 0.5867
vn -0.8098 -0.0000 0.5867
vn -0.0000 -0.0000 -1.0000
vn -0.0000 0.9239 0.3827
vn -0.0000 0.3827 0.9239
vn -0.0000 -0.9239 0.3827
vn -0.0000 -0.3827 0.9239
vn -0.0000 0.8337 -0.5523
vn -0.0000 -0.8337 -0.5523
vn 0.8098 -0.0000 -0.5867
vn -0.8098 -0.0000 -0.5867
vn -0.0000 0.9239 -0.3827
vn -0.0000 0.3827 -0.9239
vn -0.0000 -0.9239 -0.3827
vn -0.0000 -0.3827 -0.9239
vt 0.447293 0.878248
vt 0.447293 0.878248
vt 0.447293 0.878248
vt 0.447293 0.878248
vt 0.447293 0.878248
vt 0.446518 0.954207
vt 0.447293 0.878248
vt 0.446518 0.954207
vt 0.447293 0.878248
vt 0.446518 0.954207
vt 0.447293 0.878248
vt 0.446518 0.954207
vt 0.447293 0.878248
vt 0.447293 0.878248
vt 0.447293 0.878248
vt 0.447293 0.878248
vt 0.447293 0.878248
vt 0.447293 0.878248
vt 0.447293 0.878248
vt 0.447293 0.878248
vt 0.446518 0.954207
vt 0.446518 0.954207
vt 0.446518 0.954207
vt 0.446518 0.954207
vt 0.409252 0.083711
vt 0.409252 0.083711
vt 0.409252 0.083711
vt 0.409252 0.083711
vt 0.409252 0.083711
vt 0.409252 0.083711
vt 0.409252 0.083711
vt 0.409252 0.083711
vt 0.409252 0.083711
vt 0.409252 0.083711
vt 0.409252 0.083711
vt 0.409252 0.083711
vt 0.409252 0.083711
vt 0.409252 0.083711
vt 0.409252 0.083711
vt 0.409252 0.083711
vt 0.409252 0.083711
vt 0.409252 0.083711
vt 0.409252 0.083711
vt 0.409252 0.083711
vt 0.409252 0.083711
vt 0.409252 0.083711
vt 0.409252 0.083711
vt 0.409252 0.083711
vt 0.409252 0.083711
vt 0.409252 0.083711
vt 0.409252 0.083711
vt 0.409252 0.083711
vt 0.409252 0.083711
vt 0.409252 0.083711
vt 0.409252 0.083711
vt 0.409252 0.083711
vt 0.793700 0.099213
vt 0.793700 0.099213
vt 0.793700 0.099213
vt 0.793700 0.099213
vt 0.793700 0.099213
vt 0.793700 0.099213
vt 0.793700 0.099213
vt 0.793700 0.099213
vt 0.447293 0.878248
vt 0.447293 0.878248
vt 0.447293 0.878248
vt 0.447293 0.878248
vt 0.447293 0.878248
vt 0.447293 0.878248
vt 0.447293 0.878248
vt 0.447293 0.878248
vt 0.446518 0.954207
vt 0.446518 0.954207
vt 0.446518 0.954207
vt 0.446518 0.954207
vt 0.409252 0.083711
vt 0.409252 0.083711
vt 0.409252 0.083711
vt 0.409252 0.083711
vt 0.409252 0.083711
vt 0.409252 0.083711
vt 0.409252 0.083711
vt 0.409252 0.083711
vt 0.409252 0.083711
vt 0.409252 0.083711
vt 0.409252 0.083711
vt 0.409252 0.083711
vt 0.409252 0.083711
vt 0.409252 0.083711
vt 0.409252 0.083711
vt 0.409252 0.083711
vt 0.409252 0.083711
vt 0.409252 0.083711
vt 0.409252 0.083711
vt 0.409252 0.083711
vt 0.409252 0.083711
vt 0.409252 0.083711
vt 0.409252 0.083711
vt 0.409252 0.083711
vt 0.409252 0.083711
vt 0.409252 0.083711
vt 0.409252 0.083711
vt 0.409252 0.083711
vt 0.409252 0.083711
vt 0.409252 0.083711
vt 0.409252 0.083711
vt 0.409252 0.083711
vt 0.793700 0.099213
vt 0.793700 0.099213
vt 0.793700 0.099213
vt 0.793700 0.099213
vt 0.793700 0.099213
vt 0.793700 0.099213
vt 0.793700 0.099213
vt 0.793700 0.099213
s 1
usemtl Material
f 8/12/1 5/6/1 17/21/1 20/24/1
f 6/7/2 5/5/2 9/13/2 10/14/2
f 8/11/3 7/9/3 11/15/3 12/16/3
f 3/3/3 1/1/3 14/18/3 13/17/3
f 2/2/2 4/4/2 16/20/2 15/19/2
f 10/14/4 9/13/4 13/17/4 14/18/4
f 11/15/4 10/14/4 14/18/4 15/19/4
f 12/16/4 11/15/4 15/19/4 16/20/4
f 9/13/4 12/16/4 16/20/4 13/17/4
f 4/4/5 3/3/5 13/17/5 16/20/5
f 1/1/6 2/2/6 15/19/6 14/18/6
f 5/5/6 8/11/6 12/16/6 9/13/6
f 7/9/5 6/7/5 10/14/5 11/15/5
f 18/22/4 19/23/4 20/24/4 17/21/4
f 6/8/7 7/10/7 19/23/7 18/22/7
f 7/10/8 8/12/8 20/24/8 19/23/8
f 5/6/9 6/8/9 18/22/9 17/21/9
f 24/28/2 28/32/2 25/29/2 21/25/2
f 25/29/6 26/30/6 34/38/6 33/37/6
f 28/32/2 24/28/2 50/54/2 52/56/2 51/55/2 32/36/2
f 22/26/3 26/30/3 27/31/3 23/27/3
f 21/25/4 22/26/4 23/27/4 24/28/4
f 25/29/10 28/32/10 27/31/10 26/30/10
f 21/25/2 25/29/2 29/33/2 41/45/2 43/47/2 42/46/2
f 41/45/5 29/33/5 30/34/5 45/49/5
f 24/28/4 23/27/4 48/52/4 50/54/4
f 26/30/3 22/26/3 44/48/3 46/50/3 45/49/3 30/34/3
f 23/27/3 27/31/3 31/35/3 47/51/3 49/53/3 48/52/3
f 29/33/2 25/29/2 33/37/2 37/41/2
f 47/51/6 31/35/6 32/36/6 51/55/6
f 33/37/10 34/38/10 38/42/10 37/41/10
f 35/39/10 36/40/10 40/44/10 39/43/10
f 31/35/3 27/31/3 35/39/3 39/43/3
f 30/34/5 29/33/5 37/41/5 38/42/5
f 27/31/5 28/32/5 36/40/5 35/39/5
f 28/32/2 32/36/2 40/44/2 36/40/2
f 26/30/3 30/34/3 38/42/3 34/38/3
f 32/36/6 31/35/6 39/43/6 40/44/6
f 41/45/11 45/49/11 46/50/11 43/47/11
f 43/47/12 46/50/12 44/48/12 42/46/12
f 47/51/13 51/55/13 52/56/13 49/53/13
f 49/53/14 52/56/14 50/54/14 48/52/14
f 22/26/4 21/25/4 42/46/4 44/48/4
f 56/60/2 60/64/2 57/61/2 53/57/2
f 54/58/3 58/62/3 59/63/3 55/59/3
f 53/57/4 54/58/4 55/59/4 56/60/4
f 57/61/10 60/64/10 59/63/10 58/62/10
f 54/58/5 53/57/5 57/61/5 58/62/5
f 56/60/6 55/59/6 59/63/6 60/64/6
f 8/12/15 72/76/15 69/73/15 5/6/15
f 6/7/2 62/66/2 61/65/2 5/5/2
f 8/11/3 64/68/3 63/67/3 7/9/3
f 3/3/3 65/69/3 66/70/3 1/1/3
f 2/2/2 67/71/2 68/72/2 4/4/2
f 62/66/10 66/70/10 65/69/10 61/65/10
f 63/67/10 67/71/10 66/70/10 62/66/10
f 64/68/10 68/72/10 67/71/10 63/67/10
f 61/65/10 65/69/10 68/72/10 64/68/10
f 4/4/5 68/72/5 65/69/5 3/3/5
f 1/1/6 66/70/6 67/71/6 2/2/6
f 5/5/6 61/65/6 64/68/6 8/11/6
f 7/9/5 63/67/5 62/66/5 6/7/5
f 70/74/10 69/73/10 72/76/10 71/75/10
f 6/8/16 70/74/16 71/75/16 7/10/16
f 7/10/17 71/75/17 72/76/17 8/12/17
f 5/6/18 69/73/18 70/74/18 6/8/18
f 76/80/2 73/77/2 77/81/2 80/84/2
f 77/81/6 85/89/6 86/90/6 78/82/6
f 80/84/2 84/88/2 103/107/2 104/108/2 102/106/2 76/80/2
f 74/78/3 75/79/3 79/83/3 78/82/3
f 73/77/10 76/80/10 75/79/10 74/78/10
f 77/81/4 78/82/4 79/83/4 80/84/4
f 73/77/2 94/98/2 95/99/2 93/97/2 81/85/2 77/81/2
f 93/97/5 97/101/5 82/86/5 81/85/5
f 76/80/10 102/106/10 100/104/10 75/79/10
f 78/82/3 82/86/3 97/101/3 98/102/3 96/100/3 74/78/3
f 75/79/3 100/104/3 101/105/3 99/103/3 83/87/3 79/83/3
f 81/85/2 89/93/2 85/89/2 77/81/2
f 99/103/6 103/107/6 84/88/6 83/87/6
f 85/89/4 89/93/4 90/94/4 86/90/4
f 87/91/4 91/95/4 92/96/4 88/92/4
f 83/87/3 91/95/3 87/91/3 79/83/3
f 82/86/5 90/94/5 89/93/5 81/85/5
f 79/83/5 87/91/5 88/92/5 80/84/5
f 80/84/2 88/92/2 92/96/2 84/88/2
f 78/82/3 86/90/3 90/94/3 82/86/3
f 84/88/6 92/96/6 91/95/6 83/87/6
f 93/97/19 95/99/19 98/102/19 97/101/19
f 95/99/20 94/98/20 96/100/20 98/102/20
f 99/103/21 101/105/21 104/108/21 103/107/21
f 101/105/22 100/104/22 102/106/22 104/108/22
f 74/78/10 96/100/10 94/98/10 73/77/10
f 108/112/2 105/109/2 109/113/2 112/116/2
f 106/110/3 107/111/3 111/115/3 110/114/3
f 105/109/10 108/112/10 107/111/10 106/110/10
f 109/113/4 110/114/4 111/115/4 112/116/4
f 106/110/5 110/114/5 109/113/5 105/109/5
f 108/112/6 112/116/6 111/115/6 107/111/6
