# Blender 3.4.1
# www.blender.org
mtllib door011.mtl
o door.010
v 0.537606 0.163748 0.254827
v 0.384627 0.163748 0.254826
v 0.384627 -0.623863 0.254826
v 0.537606 -0.623863 0.254827
v 0.537606 0.163748 0.216252
v 0.384627 0.163748 0.216252
v 0.384627 -0.623863 0.216252
v 0.537606 -0.623863 0.216252
v 0.537606 0.238738 0.216252
v 0.384627 0.238738 0.216252
v 0.384627 -0.681854 0.216252
v 0.537606 -0.681854 0.216252
v 0.537606 0.163748 0.098720
v 0.384627 0.163748 0.098720
v 0.384627 -0.623863 0.098720
v 0.537606 -0.623863 0.098720
v 0.537606 0.238738 0.098720
v 0.384627 0.238738 0.098720
v 0.384627 -0.681854 0.098720
v 0.537606 -0.681854 0.098720
v 0.537606 0.238738 0.218284
v 0.537606 0.202196 0.254827
v 0.537606 0.228035 0.244124
v 0.384627 0.202196 0.254826
v 0.384627 0.238738 0.218284
v 0.384627 0.228035 0.244123
v 0.384627 -0.681854 0.218284
v 0.384627 -0.645311 0.254826
v 0.384627 -0.671150 0.244123
v 0.537606 -0.645311 0.254827
v 0.537606 -0.681854 0.218284
v 0.537606 -0.671150 0.244124
v 0.552564 0.077448 0.275598
v 0.377532 0.077448 0.275598
v 0.377532 -0.537579 0.275598
v 0.552564 -0.537579 0.275598
v 0.552564 0.077448 0.195481
v 0.377532 0.077448 0.195480
v 0.377532 -0.537579 0.195480
v 0.552564 -0.537579 0.195481
v -3.235616 -4.548382 0.000000
v 1.066633 -4.548382 0.000000
v -3.235616 5.451618 0.000000
v 1.066633 5.451618 0.000000
v -3.004541 5.220543 0.000000
v -3.004541 -4.317305 0.000000
v 0.835558 -4.317305 0.000000
v 0.835558 5.220543 0.000000
v -3.004541 5.220543 0.065401
v -3.004541 -4.317305 0.065401
v 0.835558 -4.317305 0.065401
v 0.835558 5.220543 0.065401
v -3.235616 5.451618 0.065401
v -3.235616 -4.548382 0.065401
v 1.066633 -4.548382 0.065401
v 1.066633 5.451618 0.065401
v -2.931261 5.153547 0.101134
v -2.931261 -4.250309 0.101133
v 0.762277 -4.250309 0.101133
v 0.762277 5.153547 0.101134
v -0.645990 -4.250309 0.101133
v 0.083862 -4.250309 0.101133
v 0.083862 5.153547 0.101134
v -0.645990 5.153547 0.101134
v 0.537606 0.163748 -0.254827
v 0.384627 0.163748 -0.254826
v 0.384627 -0.623863 -0.254826
v 0.537606 -0.623863 -0.254827
v 0.537606 0.163748 -0.216252
v 0.384627 0.163748 -0.216252
v 0.384627 -0.623863 -0.216252
v 0.537606 -0.623863 -0.216252
v 0.537606 0.238738 -0.216252
v 0.384627 0.238738 -0.216252
v 0.384627 -0.681854 -0.216252
v 0.537606 -0.681854 -0.216252
v 0.537606 0.163748 -0.098720
v 0.384627 0.163748 -0.098720
v 0.384627 -0.623863 -0.098720
v 0.537606 -0.623863 -0.098720
v 0.537606 0.238738 -0.098720
v 0.384627 0.238738 -0.098720
v 0.384627 -0.681854 -0.098720
v 0.537606 -0.681854 -0.098720
v 0.537606 0.238738 -0.218284
v 0.537606 0.202196 -0.254827
v 0.537606 0.228035 -0.244124
v 0.384627 0.202196 -0.254826
v 0.384627 0.238738 -0.218284
v 0.384627 0.228035 -0.244123
v 0.384627 -0.681854 -0.218284
v 0.384627 -0.645311 -0.254826
v 0.384627 -0.671150 -0.244123
v 0.537606 -0.645311 -0.254827
v 0.537606 -0.681854 -0.218284
v 0.537606 -0.671150 -0.244124
v 0.552564 0.077448 -0.275598
v 0.377532 0.077448 -0.275598
v 0.377532 -0.537579 -0.275598
v 0.552564 -0.537579 -0.275598
v 0.552564 0.077448 -0.195481
v 0.377532 0.077448 -0.195480
v 0.377532 -0.537579 -0.195480
v 0.552564 -0.537579 -0.195481
v -3.004541 5.220543 -0.065401
v -3.004541 -4.317305 -0.065401
v 0.835558 -4.317305 -0.065401
v 0.835558 5.220543 -0.065401
v -3.235616 5.451618 -0.065401
v -3.235616 -4.548382 -0.065401
v 1.066633 -4.548382 -0.065401
v 1.066633 5.451618 -0.065401
v -2.931261 5.153547 -0.101134
v -2.931261 -4.250309 -0.101133
v 0.762277 -4.250309 -0.101133
v 0.762277 5.153547 -0.101134
v -0.645990 -4.250309 -0.101133
v 0.083862 -4.250309 -0.101133
v 0.083862 5.153547 -0.101134
v -0.645990 5.153547 -0.101134
vn 1.0000 -0.0000 -0.0000
vn -0.0000 -1.0000 -0.0000
vn -1.0000 -0.0000 -0.0000
vn -0.0000 -0.0000 1.0000
vn -0.0000 -0.0000 -1.0000
vn -0.0000 1.0000 -0.0000
vn -0.0000 0.9239 0.3827
vn -0.0000 0.3827 0.9239
vn -0.0000 -0.9239 0.3827
vn -0.0000 -0.3827 0.9239
vn -0.0000 0.8337 0.5523
vn -0.0000 -0.8337 0.5523
vn 0.8098 -0.0000 0.5868
vn -0.8098 -0.0000 0.5868
vn -0.0000 0.9239 -0.3827
vn -0.0000 0.3827 -0.9239
vn -0.0000 -0.9239 -0.3827
vn -0.0000 -0.3827 -0.9239
vn -0.0000 0.8337 -0.5523
vn -0.0000 -0.8337 -0.5523
vn 0.8098 -0.0000 -0.5868
vn -0.8098 -0.0000 -0.5868
vt 0.409252 0.083711
vt 0.409252 0.083711
vt 0.409252 0.083711
vt 0.409252 0.083711
vt 0.409252 0.083711
vt 0.409252 0.083711
vt 0.409252 0.083711
vt 0.409252 0.083711
vt 0.409252 0.083711
vt 0.409252 0.083711
vt 0.409252 0.083711
vt 0.409252 0.083711
vt 0.409252 0.083711
vt 0.409252 0.083711
vt 0.409252 0.083711
vt 0.409252 0.083711
vt 0.409252 0.083711
vt 0.409252 0.083711
vt 0.409252 0.083711
vt 0.409252 0.083711
vt 0.409252 0.083711
vt 0.409252 0.083711
vt 0.409252 0.083711
vt 0.409252 0.083711
vt 0.409252 0.083711
vt 0.409252 0.083711
vt 0.409252 0.083711
vt 0.409252 0.083711
vt 0.409252 0.083711
vt 0.409252 0.083711
vt 0.409252 0.083711
vt 0.409252 0.083711
vt 0.107757 0.457558
vt 0.107757 0.457558
vt 0.107757 0.457558
vt 0.107757 0.457558
vt 0.107757 0.457558
vt 0.107757 0.457558
vt 0.107757 0.457558
vt 0.107757 0.457558
vt 0.107757 0.457558
vt 0.107757 0.457558
vt 0.107757 0.457558
vt 0.107757 0.457558
vt 0.107757 0.457558
vt 0.426832 0.151992
vt 0.107757 0.457558
vt 0.426832 0.151992
vt 0.107757 0.457558
vt 0.426832 0.151992
vt 0.107757 0.457558
vt 0.426832 0.151992
vt 0.107757 0.457558
vt 0.107757 0.457558
vt 0.107757 0.457558
vt 0.107757 0.457558
vt 0.107757 0.457558
vt 0.107757 0.457558
vt 0.107757 0.457558
vt 0.107757 0.457558
vt 0.426832 0.151992
vt 0.426832 0.151992
vt 0.426832 0.151992
vt 0.426832 0.151992
vt 0.426832 0.151992
vt 0.107757 0.457558
vt 0.426832 0.151992
vt 0.107757 0.457558
vt 0.426832 0.151992
vt 0.107757 0.457558
vt 0.426832 0.151992
vt 0.107757 0.457558
vt 0.409252 0.083711
vt 0.409252 0.083711
vt 0.409252 0.083711
vt 0.409252 0.083711
vt 0.409252 0.083711
vt 0.409252 0.083711
vt 0.409252 0.083711
vt 0.409252 0.083711
vt 0.409252 0.083711
vt 0.409252 0.083711
vt 0.409252 0.083711
vt 0.409252 0.083711
vt 0.409252 0.083711
vt 0.409252 0.083711
vt 0.409252 0.083711
vt 0.409252 0.083711
vt 0.409252 0.083711
vt 0.409252 0.083711
vt 0.409252 0.083711
vt 0.409252 0.083711
vt 0.409252 0.083711
vt 0.409252 0.083711
vt 0.409252 0.083711
vt 0.409252 0.083711
vt 0.409252 0.083711
vt 0.409252 0.083711
vt 0.409252 0.083711
vt 0.409252 0.083711
vt 0.409252 0.083711
vt 0.409252 0.083711
vt 0.409252 0.083711
vt 0.409252 0.083711
vt 0.107757 0.457558
vt 0.107757 0.457558
vt 0.107757 0.457558
vt 0.107757 0.457558
vt 0.107757 0.457558
vt 0.107757 0.457558
vt 0.107757 0.457558
vt 0.107757 0.457558
vt 0.107757 0.457558
vt 0.107757 0.457558
vt 0.107757 0.457558
vt 0.107757 0.457558
vt 0.107757 0.457558
vt 0.107757 0.457558
vt 0.107757 0.457558
vt 0.107757 0.457558
vt 0.426832 0.151992
vt 0.426832 0.151992
vt 0.426832 0.151992
vt 0.426832 0.151992
vt 0.426832 0.151992
vt 0.107757 0.457558
vt 0.426832 0.151992
vt 0.107757 0.457558
vt 0.426832 0.151992
vt 0.107757 0.457558
vt 0.426832 0.151992
vt 0.107757 0.457558
s 1
usemtl Material
f 4/4/1 8/8/1 5/5/1 1/1/1
f 5/5/2 6/6/2 14/14/2 13/13/2
f 8/8/1 4/4/1 30/30/1 32/32/1 31/31/1 12/12/1
f 2/2/3 6/6/3 7/7/3 3/3/3
f 1/1/4 2/2/4 3/3/4 4/4/4
f 5/5/5 8/8/5 7/7/5 6/6/5
f 1/1/1 5/5/1 9/9/1 21/21/1 23/23/1 22/22/1
f 21/21/6 9/9/6 10/10/6 25/25/6
f 4/4/4 3/3/4 28/28/4 30/30/4
f 6/6/3 2/2/3 24/24/3 26/26/3 25/25/3 10/10/3
f 3/3/3 7/7/3 11/11/3 27/27/3 29/29/3 28/28/3
f 9/9/1 5/5/1 13/13/1 17/17/1
f 27/27/2 11/11/2 12/12/2 31/31/2
f 13/13/5 14/14/5 18/18/5 17/17/5
f 15/15/5 16/16/5 20/20/5 19/19/5
f 11/11/3 7/7/3 15/15/3 19/19/3
f 10/10/6 9/9/6 17/17/6 18/18/6
f 7/7/6 8/8/6 16/16/6 15/15/6
f 8/8/1 12/12/1 20/20/1 16/16/1
f 6/6/3 10/10/3 18/18/3 14/14/3
f 12/12/2 11/11/2 19/19/2 20/20/2
f 21/21/7 25/25/7 26/26/7 23/23/7
f 23/23/8 26/26/8 24/24/8 22/22/8
f 27/27/9 31/31/9 32/32/9 29/29/9
f 29/29/10 32/32/10 30/30/10 28/28/10
f 2/2/4 1/1/4 22/22/4 24/24/4
f 36/36/1 40/40/1 37/37/1 33/33/1
f 34/34/3 38/38/3 39/39/3 35/35/3
f 33/33/4 34/34/4 35/35/4 36/36/4
f 37/37/5 40/40/5 39/39/5 38/38/5
f 34/34/6 33/33/6 37/37/6 38/38/6
f 36/36/2 35/35/2 39/39/2 40/40/2
f 48/52/11 45/46/11 57/61/11 64/71/11 63/69/11 60/64/11
f 46/47/1 45/45/1 49/53/1 50/54/1
f 48/51/3 47/49/3 51/55/3 52/56/3
f 43/43/3 41/41/3 54/58/3 53/57/3
f 42/42/1 44/44/1 56/60/1 55/59/1
f 50/54/4 49/53/4 53/57/4 54/58/4
f 51/55/4 50/54/4 54/58/4 55/59/4
f 52/56/4 51/55/4 55/59/4 56/60/4
f 49/53/4 52/56/4 56/60/4 53/57/4
f 44/44/6 43/43/6 53/57/6 56/60/6
f 41/41/2 42/42/2 55/59/2 54/58/2
f 45/45/2 48/51/2 52/56/2 49/53/2
f 47/49/6 46/47/6 50/54/6 51/55/6
f 62/67/4 59/63/4 60/64/4 63/69/4
f 46/48/12 47/50/12 59/63/12 62/67/12 61/65/12 58/62/12
f 47/50/13 48/52/13 60/64/13 59/63/13
f 45/46/14 46/48/14 58/62/14 57/61/14
f 58/62/4 61/65/4 64/71/4 57/61/4
f 61/66/4 62/68/4 63/70/4 64/72/4
f 68/76/1 65/73/1 69/77/1 72/80/1
f 69/77/2 77/85/2 78/86/2 70/78/2
f 72/80/1 76/84/1 95/103/1 96/104/1 94/102/1 68/76/1
f 66/74/3 67/75/3 71/79/3 70/78/3
f 65/73/5 68/76/5 67/75/5 66/74/5
f 69/77/4 70/78/4 71/79/4 72/80/4
f 65/73/1 86/94/1 87/95/1 85/93/1 73/81/1 69/77/1
f 85/93/6 89/97/6 74/82/6 73/81/6
f 68/76/5 94/102/5 92/100/5 67/75/5
f 70/78/3 74/82/3 89/97/3 90/98/3 88/96/3 66/74/3
f 67/75/3 92/100/3 93/101/3 91/99/3 75/83/3 71/79/3
f 73/81/1 81/89/1 77/85/1 69/77/1
f 91/99/2 95/103/2 76/84/2 75/83/2
f 77/85/4 81/89/4 82/90/4 78/86/4
f 79/87/4 83/91/4 84/92/4 80/88/4
f 75/83/3 83/91/3 79/87/3 71/79/3
f 74/82/6 82/90/6 81/89/6 73/81/6
f 71/79/6 79/87/6 80/88/6 72/80/6
f 72/80/1 80/88/1 84/92/1 76/84/1
f 70/78/3 78/86/3 82/90/3 74/82/3
f 76/84/2 84/92/2 83/91/2 75/83/2
f 85/93/15 87/95/15 90/98/15 89/97/15
f 87/95/16 86/94/16 88/96/16 90/98/16
f 91/99/17 93/101/17 96/104/17 95/103/17
f 93/101/18 92/100/18 94/102/18 96/104/18
f 66/74/5 88/96/5 86/94/5 65/73/5
f 100/108/1 97/105/1 101/109/1 104/112/1
f 98/106/3 99/107/3 103/111/3 102/110/3
f 97/105/5 100/108/5 99/107/5 98/106/5
f 101/109/4 102/110/4 103/111/4 104/112/4
f 98/106/6 102/110/6 101/109/6 97/105/6
f 100/108/2 104/112/2 103/111/2 99/107/2
f 48/52/19 116/124/19 119/129/19 120/131/19 113/121/19 45/46/19
f 46/47/1 106/114/1 105/113/1 45/45/1
f 48/51/3 108/116/3 107/115/3 47/49/3
f 43/43/3 109/117/3 110/118/3 41/41/3
f 42/42/1 111/119/1 112/120/1 44/44/1
f 106/114/5 110/118/5 109/117/5 105/113/5
f 107/115/5 111/119/5 110/118/5 106/114/5
f 108/116/5 112/120/5 111/119/5 107/115/5
f 105/113/5 109/117/5 112/120/5 108/116/5
f 44/44/6 112/120/6 109/117/6 43/43/6
f 41/41/2 110/118/2 111/119/2 42/42/2
f 45/45/2 105/113/2 108/116/2 48/51/2
f 47/49/6 107/115/6 106/114/6 46/47/6
f 118/127/5 119/129/5 116/124/5 115/123/5
f 46/48/20 114/122/20 117/125/20 118/127/20 115/123/20 47/50/20
f 47/50/21 115/123/21 116/124/21 48/52/21
f 45/46/22 113/121/22 114/122/22 46/48/22
f 114/122/5 113/121/5 120/131/5 117/125/5
f 117/126/5 120/132/5 119/130/5 118/128/5
