# Blender 3.4.1
# www.blender.org
mtllib door015.mtl
o door.014
v -3.255684 -4.516123 -0.000000
v 1.046568 -4.516123 -0.000000
v -3.255684 5.483877 -0.000000
v 1.046568 5.483877 -0.000000
v -3.024606 5.252800 -0.000000
v -3.024606 -4.285047 -0.000000
v 0.815488 -4.285047 -0.000000
v 0.815488 5.252800 -0.000000
v -3.024606 5.252800 0.093966
v -3.024606 -4.285047 0.093966
v 0.815488 -4.285047 0.093966
v 0.815488 5.252800 0.093966
v -3.255684 5.483877 0.093966
v -3.255684 -4.516123 0.093966
v 1.046568 -4.516123 0.093966
v 1.046568 5.483877 0.093966
v -2.951331 5.185805 0.129699
v -2.951331 -4.218051 0.129697
v 0.742212 -4.218051 0.129697
v 0.742212 5.185805 0.129699
v 0.517527 0.196006 0.279223
v 0.364548 0.196006 0.279223
v 0.364548 -0.591604 0.279223
v 0.517527 -0.591604 0.279223
v 0.517527 0.196006 0.240648
v 0.364548 0.196006 0.240648
v 0.364548 -0.591604 0.240648
v 0.517527 -0.591604 0.240648
v 0.517527 0.270996 0.240648
v 0.364548 0.270996 0.240648
v 0.364548 -0.649595 0.240648
v 0.517527 -0.649595 0.240648
v 0.517527 0.196006 0.123116
v 0.364548 0.196006 0.123116
v 0.364548 -0.591604 0.123116
v 0.517527 -0.591604 0.123116
v 0.517527 0.270996 0.123116
v 0.364548 0.270996 0.123116
v 0.364548 -0.649595 0.123116
v 0.517527 -0.649595 0.123116
v 0.517527 0.270996 0.242680
v 0.517527 0.234454 0.279223
v 0.517527 0.260293 0.268520
v 0.364548 0.234454 0.279223
v 0.364548 0.270996 0.242680
v 0.364548 0.260293 0.268519
v 0.364548 -0.649595 0.242680
v 0.364548 -0.613053 0.279223
v 0.364548 -0.638892 0.268519
v 0.517527 -0.613053 0.279223
v 0.517527 -0.649595 0.242680
v 0.517527 -0.638892 0.268520
v 0.532485 0.109706 0.299994
v 0.357452 0.109706 0.299994
v 0.357452 -0.505320 0.299994
v 0.532485 -0.505320 0.299994
v 0.532485 0.109706 0.219877
v 0.357452 0.109706 0.219877
v 0.357452 -0.505320 0.219877
v 0.532485 -0.505320 0.219877
v -3.024606 5.252800 -0.093966
v -3.024606 -4.285047 -0.093966
v 0.815488 -4.285047 -0.093966
v 0.815488 5.252800 -0.093966
v -3.255684 5.483877 -0.093966
v -3.255684 -4.516123 -0.093966
v 1.046568 -4.516123 -0.093966
v 1.046568 5.483877 -0.093966
v -2.951331 5.185805 -0.129699
v -2.951331 -4.218051 -0.129697
v 0.742212 -4.218051 -0.129697
v 0.742212 5.185805 -0.129699
v 0.517527 0.196006 -0.279223
v 0.364548 0.196006 -0.279223
v 0.364548 -0.591604 -0.279223
v 0.517527 -0.591604 -0.279223
v 0.517527 0.196006 -0.240648
v 0.364548 0.196006 -0.240648
v 0.364548 -0.591604 -0.240648
v 0.517527 -0.591604 -0.240648
v 0.517527 0.270996 -0.240648
v 0.364548 0.270996 -0.240648
v 0.364548 -0.649595 -0.240648
v 0.517527 -0.649595 -0.240648
v 0.517527 0.196006 -0.123116
v 0.364548 0.196006 -0.123116
v 0.364548 -0.591604 -0.123116
v 0.517527 -0.591604 -0.123116
v 0.517527 0.270996 -0.123116
v 0.364548 0.270996 -0.123116
v 0.364548 -0.649595 -0.123116
v 0.517527 -0.649595 -0.123116
v 0.517527 0.270996 -0.242680
v 0.517527 0.234454 -0.279223
v 0.517527 0.260293 -0.268520
v 0.364548 0.234454 -0.279223
v 0.364548 0.270996 -0.242680
v 0.364548 0.260293 -0.268519
v 0.364548 -0.649595 -0.242680
v 0.364548 -0.613053 -0.279223
v 0.364548 -0.638892 -0.268519
v 0.517527 -0.613053 -0.279223
v 0.517527 -0.649595 -0.242680
v 0.517527 -0.638892 -0.268520
v 0.532485 0.109706 -0.299994
v 0.357452 0.109706 -0.299994
v 0.357452 -0.505320 -0.299994
v 0.532485 -0.505320 -0.299994
v 0.532485 0.109706 -0.219877
v 0.357452 0.109706 -0.219877
v 0.357452 -0.505320 -0.219877
v 0.532485 -0.505320 -0.219877
vn -0.0000 0.8885 0.4589
vn 1.0000 -0.0000 -0.0000
vn -1.0000 -0.0000 -0.0000
vn -0.0000 -0.0000 1.0000
vn -0.0000 1.0000 -0.0000
vn -0.0000 -1.0000 -0.0000
vn -0.0000 -0.8885 0.4589
vn 0.8707 -0.0000 0.4919
vn -0.8707 -0.0000 0.4919
vn -0.0000 -0.0000 -1.0000
vn -0.0000 0.9239 0.3827
vn -0.0000 0.3827 0.9239
vn -0.0000 -0.9239 0.3827
vn -0.0000 -0.3827 0.9239
vn -0.0000 0.8885 -0.4589
vn -0.0000 -0.8885 -0.4589
vn 0.8707 -0.0000 -0.4919
vn -0.8707 -0.0000 -0.4919
vn -0.0000 0.9239 -0.3827
vn -0.0000 0.3827 -0.9239
vn -0.0000 -0.9239 -0.3827
vn -0.0000 -0.3827 -0.9239
vt 0.794264 0.125248
vt 0.794264 0.125248
vt 0.794264 0.125248
vt 0.794264 0.125248
vt 0.794264 0.125248
vt 0.076488 0.319413
vt 0.794264 0.125248
vt 0.076488 0.319413
vt 0.794264 0.125248
vt 0.076488 0.319413
vt 0.794264 0.125248
vt 0.076488 0.319413
vt 0.794264 0.125248
vt 0.794264 0.125248
vt 0.794264 0.125248
vt 0.794264 0.125248
vt 0.794264 0.125248
vt 0.794264 0.125248
vt 0.794264 0.125248
vt 0.794264 0.125248
vt 0.076488 0.319413
vt 0.808180 0.108587
vt 0.070287 0.313213
vt 0.076488 0.319413
vt 0.808180 0.108587
vt 0.070287 0.313213
vt 0.076488 0.319413
vt 0.070287 0.313213
vt 0.076488 0.319413
vt 0.808180 0.108587
vt 0.409252 0.083711
vt 0.409252 0.083711
vt 0.409252 0.083711
vt 0.409252 0.083711
vt 0.409252 0.083711
vt 0.409252 0.083711
vt 0.409252 0.083711
vt 0.409252 0.083711
vt 0.409252 0.083711
vt 0.409252 0.083711
vt 0.409252 0.083711
vt 0.409252 0.083711
vt 0.409252 0.083711
vt 0.409252 0.083711
vt 0.409252 0.083711
vt 0.409252 0.083711
vt 0.409252 0.083711
vt 0.409252 0.083711
vt 0.409252 0.083711
vt 0.409252 0.083711
vt 0.409252 0.083711
vt 0.409252 0.083711
vt 0.409252 0.083711
vt 0.409252 0.083711
vt 0.409252 0.083711
vt 0.409252 0.083711
vt 0.409252 0.083711
vt 0.409252 0.083711
vt 0.409252 0.083711
vt 0.409252 0.083711
vt 0.409252 0.083711
vt 0.409252 0.083711
vt 0.793700 0.099213
vt 0.793700 0.099213
vt 0.793700 0.099213
vt 0.793700 0.099213
vt 0.793700 0.099213
vt 0.793700 0.099213
vt 0.793700 0.099213
vt 0.793700 0.099213
vt 0.794264 0.125248
vt 0.794264 0.125248
vt 0.794264 0.125248
vt 0.794264 0.125248
vt 0.794264 0.125248
vt 0.794264 0.125248
vt 0.794264 0.125248
vt 0.794264 0.125248
vt 0.076488 0.319413
vt 0.808180 0.108587
vt 0.070287 0.313213
vt 0.076488 0.319413
vt 0.808180 0.108587
vt 0.070287 0.313213
vt 0.076488 0.319413
vt 0.070287 0.313213
vt 0.076488 0.319413
vt 0.808180 0.108587
vt 0.409252 0.083711
vt 0.409252 0.083711
vt 0.409252 0.083711
vt 0.409252 0.083711
vt 0.409252 0.083711
vt 0.409252 0.083711
vt 0.409252 0.083711
vt 0.409252 0.083711
vt 0.409252 0.083711
vt 0.409252 0.083711
vt 0.409252 0.083711
vt 0.409252 0.083711
vt 0.409252 0.083711
vt 0.409252 0.083711
vt 0.409252 0.083711
vt 0.409252 0.083711
vt 0.409252 0.083711
vt 0.409252 0.083711
vt 0.409252 0.083711
vt 0.409252 0.083711
vt 0.409252 0.083711
vt 0.409252 0.083711
vt 0.409252 0.083711
vt 0.409252 0.083711
vt 0.409252 0.083711
vt 0.409252 0.083711
vt 0.409252 0.083711
vt 0.409252 0.083711
vt 0.409252 0.083711
vt 0.409252 0.083711
vt 0.409252 0.083711
vt 0.409252 0.083711
vt 0.793700 0.099213
vt 0.793700 0.099213
vt 0.793700 0.099213
vt 0.793700 0.099213
vt 0.793700 0.099213
vt 0.793700 0.099213
vt 0.793700 0.099213
vt 0.793700 0.099213
s 1
usemtl Material
f 8/12/1 5/6/1 17/21/1 20/29/1
f 6/7/2 5/5/2 9/13/2 10/14/2
f 8/11/3 7/9/3 11/15/3 12/16/3
f 3/3/3 1/1/3 14/18/3 13/17/3
f 2/2/2 4/4/2 16/20/2 15/19/2
f 10/14/4 9/13/4 13/17/4 14/18/4
f 11/15/4 10/14/4 14/18/4 15/19/4
f 12/16/4 11/15/4 15/19/4 16/20/4
f 9/13/4 12/16/4 16/20/4 13/17/4
f 4/4/5 3/3/5 13/17/5 16/20/5
f 1/1/6 2/2/6 15/19/6 14/18/6
f 5/5/6 8/11/6 12/16/6 9/13/6
f 7/9/5 6/7/5 10/14/5 11/15/5
f 18/23/4 19/26/4 20/28/4
f 6/8/7 7/10/7 19/27/7 18/24/7
f 7/10/8 8/12/8 20/29/8 19/27/8
f 5/6/9 6/8/9 18/24/9 17/21/9
f 17/22/4 18/25/4 20/30/4
f 24/34/2 28/38/2 25/35/2 21/31/2
f 25/35/6 26/36/6 34/44/6 33/43/6
f 28/38/2 24/34/2 50/60/2 52/62/2 51/61/2 32/42/2
f 22/32/3 26/36/3 27/37/3 23/33/3
f 21/31/4 22/32/4 23/33/4 24/34/4
f 25/35/10 28/38/10 27/37/10 26/36/10
f 21/31/2 25/35/2 29/39/2 41/51/2 43/53/2 42/52/2
f 41/51/5 29/39/5 30/40/5 45/55/5
f 24/34/4 23/33/4 48/58/4 50/60/4
f 26/36/3 22/32/3 44/54/3 46/56/3 45/55/3 30/40/3
f 23/33/3 27/37/3 31/41/3 47/57/3 49/59/3 48/58/3
f 29/39/2 25/35/2 33/43/2 37/47/2
f 47/57/6 31/41/6 32/42/6 51/61/6
f 33/43/10 34/44/10 38/48/10 37/47/10
f 35/45/10 36/46/10 40/50/10 39/49/10
f 31/41/3 27/37/3 35/45/3 39/49/3
f 30/40/5 29/39/5 37/47/5 38/48/5
f 27/37/5 28/38/5 36/46/5 35/45/5
f 28/38/2 32/42/2 40/50/2 36/46/2
f 26/36/3 30/40/3 38/48/3 34/44/3
f 32/42/6 31/41/6 39/49/6 40/50/6
f 41/51/11 45/55/11 46/56/11 43/53/11
f 43/53/12 46/56/12 44/54/12 42/52/12
f 47/57/13 51/61/13 52/62/13 49/59/13
f 49/59/14 52/62/14 50/60/14 48/58/14
f 22/32/4 21/31/4 42/52/4 44/54/4
f 56/66/2 60/70/2 57/67/2 53/63/2
f 54/64/3 58/68/3 59/69/3 55/65/3
f 53/63/4 54/64/4 55/65/4 56/66/4
f 57/67/10 60/70/10 59/69/10 58/68/10
f 54/64/5 53/63/5 57/67/5 58/68/5
f 56/66/6 55/65/6 59/69/6 60/70/6
f 8/12/15 72/87/15 69/79/15 5/6/15
f 6/7/2 62/72/2 61/71/2 5/5/2
f 8/11/3 64/74/3 63/73/3 7/9/3
f 3/3/3 65/75/3 66/76/3 1/1/3
f 2/2/2 67/77/2 68/78/2 4/4/2
f 62/72/10 66/76/10 65/75/10 61/71/10
f 63/73/10 67/77/10 66/76/10 62/72/10
f 64/74/10 68/78/10 67/77/10 63/73/10
f 61/71/10 65/75/10 68/78/10 64/74/10
f 4/4/5 68/78/5 65/75/5 3/3/5
f 1/1/6 66/76/6 67/77/6 2/2/6
f 5/5/6 61/71/6 64/74/6 8/11/6
f 7/9/5 63/73/5 62/72/5 6/7/5
f 70/81/10 72/86/10 71/84/10
f 6/8/16 70/82/16 71/85/16 7/10/16
f 7/10/17 71/85/17 72/87/17 8/12/17
f 5/6/18 69/79/18 70/82/18 6/8/18
f 69/80/10 72/88/10 70/83/10
f 76/92/2 73/89/2 77/93/2 80/96/2
f 77/93/6 85/101/6 86/102/6 78/94/6
f 80/96/2 84/100/2 103/119/2 104/120/2 102/118/2 76/92/2
f 74/90/3 75/91/3 79/95/3 78/94/3
f 73/89/10 76/92/10 75/91/10 74/90/10
f 77/93/4 78/94/4 79/95/4 80/96/4
f 73/89/2 94/110/2 95/111/2 93/109/2 81/97/2 77/93/2
f 93/109/5 97/113/5 82/98/5 81/97/5
f 76/92/10 102/118/10 100/116/10 75/91/10
f 78/94/3 82/98/3 97/113/3 98/114/3 96/112/3 74/90/3
f 75/91/3 100/116/3 101/117/3 99/115/3 83/99/3 79/95/3
f 81/97/2 89/105/2 85/101/2 77/93/2
f 99/115/6 103/119/6 84/100/6 83/99/6
f 85/101/4 89/105/4 90/106/4 86/102/4
f 87/103/4 91/107/4 92/108/4 88/104/4
f 83/99/3 91/107/3 87/103/3 79/95/3
f 82/98/5 90/106/5 89/105/5 81/97/5
f 79/95/5 87/103/5 88/104/5 80/96/5
f 80/96/2 88/104/2 92/108/2 84/100/2
f 78/94/3 86/102/3 90/106/3 82/98/3
f 84/100/6 92/108/6 91/107/6 83/99/6
f 93/109/19 95/111/19 98/114/19 97/113/19
f 95/111/20 94/110/20 96/112/20 98/114/20
f 99/115/21 101/117/21 104/120/21 103/119/21
f 101/117/22 100/116/22 102/118/22 104/120/22
f 74/90/10 96/112/10 94/110/10 73/89/10
f 108/124/2 105/121/2 109/125/2 112/128/2
f 106/122/3 107/123/3 111/127/3 110/126/3
f 105/121/10 108/124/10 107/123/10 106/122/10
f 109/125/4 110/126/4 111/127/4 112/128/4
f 106/122/5 110/126/5 109/125/5 105/121/5
f 108/124/6 112/128/6 111/127/6 107/123/6
