# Blender 3.4.1
# www.blender.org
mtllib door007.mtl
o door.006
v 0.655600 0.135521 0.254827
v 0.502621 0.135521 0.254826
v 0.502621 -0.652089 0.254826
v 0.655600 -0.652089 0.254827
v 0.655600 0.135521 0.216252
v 0.502621 0.135521 0.216252
v 0.502621 -0.652089 0.216252
v 0.655600 -0.652089 0.216252
v 0.655600 0.210512 0.216252
v 0.502621 0.210512 0.216252
v 0.502621 -0.710080 0.216252
v 0.655600 -0.710080 0.216252
v 0.655600 0.135521 0.098720
v 0.502621 0.135521 0.098720
v 0.502621 -0.652089 0.098720
v 0.655600 -0.652089 0.098720
v 0.655600 0.210512 0.098720
v 0.502621 0.210512 0.098720
v 0.502621 -0.710080 0.098720
v 0.655600 -0.710080 0.098720
v 0.655600 0.210512 0.218284
v 0.655600 0.173969 0.254827
v 0.655600 0.199809 0.244124
v 0.502621 0.173969 0.254826
v 0.502621 0.210512 0.218284
v 0.502621 0.199809 0.244123
v 0.502621 -0.710080 0.218284
v 0.502621 -0.673537 0.254826
v 0.502621 -0.699377 0.244123
v 0.655600 -0.673537 0.254827
v 0.655600 -0.710080 0.218284
v 0.655600 -0.699377 0.244124
v 0.670558 0.049222 0.275598
v 0.495526 0.049222 0.275598
v 0.495526 -0.565805 0.275598
v 0.670558 -0.565805 0.275598
v 0.670558 0.049222 0.195481
v 0.495526 0.049222 0.195480
v 0.495526 -0.565805 0.195480
v 0.670558 -0.565805 0.195481
v -3.117617 -4.576608 0.000000
v 1.184632 -4.576608 0.000000
v -3.117617 5.423392 0.000000
v 1.184632 5.423392 0.000000
v -2.886542 5.192316 0.000000
v -2.886542 -4.345531 0.000000
v 0.953552 -4.345531 0.000000
v 0.953552 5.192316 0.000000
v -2.886542 5.192316 0.065401
v -2.886542 -4.345531 0.065401
v 0.953552 -4.345531 0.065401
v 0.953552 5.192316 0.065401
v -3.117617 5.423392 0.065401
v -3.117617 -4.576608 0.065401
v 1.184632 -4.576608 0.065401
v 1.184632 5.423392 0.065401
v -2.813267 5.125320 0.101134
v -2.813267 -4.278535 0.101133
v 0.880276 -4.278535 0.101133
v 0.880276 5.125320 0.101134
v -2.813267 3.244549 0.101134
v -2.813267 1.363778 0.101133
v -2.813267 -0.516993 0.101133
v -2.813267 -2.397764 0.101133
v 0.880276 -2.397764 0.101133
v 0.880276 -0.516993 0.101133
v 0.880276 1.363778 0.101133
v 0.880276 3.244549 0.101134
v 0.655600 0.135521 -0.254827
v 0.502621 0.135521 -0.254826
v 0.502621 -0.652089 -0.254826
v 0.655600 -0.652089 -0.254827
v 0.655600 0.135521 -0.216252
v 0.502621 0.135521 -0.216252
v 0.502621 -0.652089 -0.216252
v 0.655600 -0.652089 -0.216252
v 0.655600 0.210512 -0.216252
v 0.502621 0.210512 -0.216252
v 0.502621 -0.710080 -0.216252
v 0.655600 -0.710080 -0.216252
v 0.655600 0.135521 -0.098720
v 0.502621 0.135521 -0.098720
v 0.502621 -0.652089 -0.098720
v 0.655600 -0.652089 -0.098720
v 0.655600 0.210512 -0.098720
v 0.502621 0.210512 -0.098720
v 0.502621 -0.710080 -0.098720
v 0.655600 -0.710080 -0.098720
v 0.655600 0.210512 -0.218284
v 0.655600 0.173969 -0.254827
v 0.655600 0.199809 -0.244124
v 0.502621 0.173969 -0.254826
v 0.502621 0.210512 -0.218284
v 0.502621 0.199809 -0.244123
v 0.502621 -0.710080 -0.218284
v 0.502621 -0.673537 -0.254826
v 0.502621 -0.699377 -0.244123
v 0.655600 -0.673537 -0.254827
v 0.655600 -0.710080 -0.218284
v 0.655600 -0.699377 -0.244124
v 0.670558 0.049222 -0.275598
v 0.495526 0.049222 -0.275598
v 0.495526 -0.565805 -0.275598
v 0.670558 -0.565805 -0.275598
v 0.670558 0.049222 -0.195481
v 0.495526 0.049222 -0.195480
v 0.495526 -0.565805 -0.195480
v 0.670558 -0.565805 -0.195481
v -2.886542 5.192316 -0.065401
v -2.886542 -4.345531 -0.065401
v 0.953552 -4.345531 -0.065401
v 0.953552 5.192316 -0.065401
v -3.117617 5.423392 -0.065401
v -3.117617 -4.576608 -0.065401
v 1.184632 -4.576608 -0.065401
v 1.184632 5.423392 -0.065401
v -2.813267 5.125320 -0.101134
v -2.813267 -4.278535 -0.101133
v 0.880276 -4.278535 -0.101133
v 0.880276 5.125320 -0.101134
v -2.813267 3.244549 -0.101134
v -2.813267 1.363778 -0.101133
v -2.813267 -0.516993 -0.101133
v -2.813267 -2.397764 -0.101133
v 0.880276 -2.397764 -0.101133
v 0.880276 -0.516993 -0.101133
v 0.880276 1.363778 -0.101133
v 0.880276 3.244549 -0.101134
vn 1.0000 -0.0000 -0.0000
vn -0.0000 -1.0000 -0.0000
vn -1.0000 -0.0000 -0.0000
vn -0.0000 -0.0000 1.0000
vn -0.0000 -0.0000 -1.0000
vn -0.0000 1.0000 -0.0000
vn -0.0000 0.9239 0.3827
vn -0.0000 0.3827 0.9239
vn -0.0000 -0.9239 0.3827
vn -0.0000 -0.3827 0.9239
vn -0.0000 0.8337 0.5523
vn -0.0000 -0.8337 0.5523
vn 0.8098 -0.0000 0.5867
vn -0.8098 -0.0000 0.5867
vn -0.0000 0.9239 -0.3827
vn -0.0000 0.3827 -0.9239
vn -0.0000 -0.9239 -0.3827
vn -0.0000 -0.3827 -0.9239
vn -0.0000 0.8337 -0.5523
vn -0.0000 -0.8337 -0.5523
vn 0.8098 -0.0000 -0.5867
vn -0.8098 -0.0000 -0.5867
vt 0.409252 0.083711
vt 0.409252 0.083711
vt 0.409252 0.083711
vt 0.409252 0.083711
vt 0.409252 0.083711
vt 0.409252 0.083711
vt 0.409252 0.083711
vt 0.409252 0.083711
vt 0.409252 0.083711
vt 0.409252 0.083711
vt 0.409252 0.083711
vt 0.409252 0.083711
vt 0.409252 0.083711
vt 0.409252 0.083711
vt 0.409252 0.083711
vt 0.409252 0.083711
vt 0.409252 0.083711
vt 0.409252 0.083711
vt 0.409252 0.083711
vt 0.409252 0.083711
vt 0.409252 0.083711
vt 0.409252 0.083711
vt 0.409252 0.083711
vt 0.409252 0.083711
vt 0.409252 0.083711
vt 0.409252 0.083711
vt 0.409252 0.083711
vt 0.409252 0.083711
vt 0.409252 0.083711
vt 0.409252 0.083711
vt 0.409252 0.083711
vt 0.409252 0.083711
vt 0.255412 0.882406
vt 0.255412 0.882406
vt 0.255412 0.882406
vt 0.255412 0.882406
vt 0.255412 0.882406
vt 0.255412 0.882406
vt 0.255412 0.882406
vt 0.255412 0.882406
vt 0.255412 0.882406
vt 0.255412 0.882406
vt 0.255412 0.882406
vt 0.255412 0.882406
vt 0.255412 0.882406
vt 0.426832 0.151992
vt 0.255412 0.882406
vt 0.426832 0.151992
vt 0.255412 0.882406
vt 0.426832 0.151992
vt 0.255412 0.882406
vt 0.426832 0.151992
vt 0.255412 0.882406
vt 0.255412 0.882406
vt 0.255412 0.882406
vt 0.255412 0.882406
vt 0.255412 0.882406
vt 0.255412 0.882406
vt 0.255412 0.882406
vt 0.255412 0.882406
vt 0.442334 0.148892
vt 0.426832 0.151992
vt 0.426832 0.151992
vt 0.442334 0.148892
vt 0.426832 0.151992
vt 0.442334 0.148892
vt 0.442334 0.148892
vt 0.426832 0.151992
vt 0.442334 0.148892
vt 0.426832 0.151992
vt 0.255412 0.882406
vt 0.426832 0.151992
vt 0.442334 0.148892
vt 0.255412 0.882406
vt 0.426832 0.151992
vt 0.255412 0.882406
vt 0.442334 0.148892
vt 0.426832 0.151992
vt 0.442334 0.148892
vt 0.255412 0.882406
vt 0.426832 0.151992
vt 0.442334 0.148892
vt 0.255412 0.882406
vt 0.426832 0.151992
vt 0.255412 0.882406
vt 0.442334 0.148892
vt 0.426832 0.151992
vt 0.442334 0.148892
vt 0.255412 0.882406
vt 0.442334 0.148892
vt 0.426832 0.151992
vt 0.255412 0.882406
vt 0.409252 0.083711
vt 0.409252 0.083711
vt 0.409252 0.083711
vt 0.409252 0.083711
vt 0.409252 0.083711
vt 0.409252 0.083711
vt 0.409252 0.083711
vt 0.409252 0.083711
vt 0.409252 0.083711
vt 0.409252 0.083711
vt 0.409252 0.083711
vt 0.409252 0.083711
vt 0.409252 0.083711
vt 0.409252 0.083711
vt 0.409252 0.083711
vt 0.409252 0.083711
vt 0.409252 0.083711
vt 0.409252 0.083711
vt 0.409252 0.083711
vt 0.409252 0.083711
vt 0.409252 0.083711
vt 0.409252 0.083711
vt 0.409252 0.083711
vt 0.409252 0.083711
vt 0.409252 0.083711
vt 0.409252 0.083711
vt 0.409252 0.083711
vt 0.409252 0.083711
vt 0.409252 0.083711
vt 0.409252 0.083711
vt 0.409252 0.083711
vt 0.409252 0.083711
vt 0.255412 0.882406
vt 0.255412 0.882406
vt 0.255412 0.882406
vt 0.255412 0.882406
vt 0.255412 0.882406
vt 0.255412 0.882406
vt 0.255412 0.882406
vt 0.255412 0.882406
vt 0.255412 0.882406
vt 0.255412 0.882406
vt 0.255412 0.882406
vt 0.255412 0.882406
vt 0.255412 0.882406
vt 0.255412 0.882406
vt 0.255412 0.882406
vt 0.255412 0.882406
vt 0.442334 0.148892
vt 0.426832 0.151992
vt 0.426832 0.151992
vt 0.442334 0.148892
vt 0.426832 0.151992
vt 0.442334 0.148892
vt 0.442334 0.148892
vt 0.426832 0.151992
vt 0.442334 0.148892
vt 0.426832 0.151992
vt 0.255412 0.882406
vt 0.426832 0.151992
vt 0.442334 0.148892
vt 0.255412 0.882406
vt 0.426832 0.151992
vt 0.255412 0.882406
vt 0.442334 0.148892
vt 0.426832 0.151992
vt 0.442334 0.148892
vt 0.255412 0.882406
vt 0.426832 0.151992
vt 0.442334 0.148892
vt 0.255412 0.882406
vt 0.426832 0.151992
vt 0.255412 0.882406
vt 0.442334 0.148892
vt 0.426832 0.151992
vt 0.442334 0.148892
vt 0.255412 0.882406
vt 0.442334 0.148892
vt 0.426832 0.151992
vt 0.255412 0.882406
s 1
usemtl Material
f 4/4/1 8/8/1 5/5/1 1/1/1
f 5/5/2 6/6/2 14/14/2 13/13/2
f 8/8/1 4/4/1 30/30/1 32/32/1 31/31/1 12/12/1
f 2/2/3 6/6/3 7/7/3 3/3/3
f 1/1/4 2/2/4 3/3/4 4/4/4
f 5/5/5 8/8/5 7/7/5 6/6/5
f 1/1/1 5/5/1 9/9/1 21/21/1 23/23/1 22/22/1
f 21/21/6 9/9/6 10/10/6 25/25/6
f 4/4/4 3/3/4 28/28/4 30/30/4
f 6/6/3 2/2/3 24/24/3 26/26/3 25/25/3 10/10/3
f 3/3/3 7/7/3 11/11/3 27/27/3 29/29/3 28/28/3
f 9/9/1 5/5/1 13/13/1 17/17/1
f 27/27/2 11/11/2 12/12/2 31/31/2
f 13/13/5 14/14/5 18/18/5 17/17/5
f 15/15/5 16/16/5 20/20/5 19/19/5
f 11/11/3 7/7/3 15/15/3 19/19/3
f 10/10/6 9/9/6 17/17/6 18/18/6
f 7/7/6 8/8/6 16/16/6 15/15/6
f 8/8/1 12/12/1 20/20/1 16/16/1
f 6/6/3 10/10/3 18/18/3 14/14/3
f 12/12/2 11/11/2 19/19/2 20/20/2
f 21/21/7 25/25/7 26/26/7 23/23/7
f 23/23/8 26/26/8 24/24/8 22/22/8
f 27/27/9 31/31/9 32/32/9 29/29/9
f 29/29/10 32/32/10 30/30/10 28/28/10
f 2/2/4 1/1/4 22/22/4 24/24/4
f 36/36/1 40/40/1 37/37/1 33/33/1
f 34/34/3 38/38/3 39/39/3 35/35/3
f 33/33/4 34/34/4 35/35/4 36/36/4
f 37/37/5 40/40/5 39/39/5 38/38/5
f 34/34/6 33/33/6 37/37/6 38/38/6
f 36/36/2 35/35/2 39/39/2 40/40/2
f 48/52/11 45/46/11 57/62/11 60/68/11
f 46/47/1 45/45/1 49/53/1 50/54/1
f 48/51/3 47/49/3 51/55/3 52/56/3
f 43/43/3 41/41/3 54/58/3 53/57/3
f 42/42/1 44/44/1 56/60/1 55/59/1
f 50/54/4 49/53/4 53/57/4 54/58/4
f 51/55/4 50/54/4 54/58/4 55/59/4
f 52/56/4 51/55/4 55/59/4 56/60/4
f 49/53/4 52/56/4 56/60/4 53/57/4
f 44/44/6 43/43/6 53/57/6 56/60/6
f 41/41/2 42/42/2 55/59/2 54/58/2
f 45/45/2 48/51/2 52/56/2 49/53/2
f 47/49/6 46/47/6 50/54/6 51/55/6
f 61/69/4 68/90/4 60/67/4 57/61/4
f 46/48/12 47/50/12 59/65/12 58/63/12
f 47/50/13 48/52/13 60/68/13 68/91/13 67/87/13 66/84/13 65/81/13 59/65/13
f 45/46/14 46/48/14 58/63/14 64/78/14 63/75/14 62/72/14 61/70/14 57/62/14
f 58/64/4 59/66/4 65/82/4 64/79/4
f 64/80/4 65/83/4 66/85/4 63/76/4
f 63/77/4 66/86/4 67/88/4 62/73/4
f 62/74/4 67/89/4 68/92/4 61/71/4
f 72/96/1 69/93/1 73/97/1 76/100/1
f 73/97/2 81/105/2 82/106/2 74/98/2
f 76/100/1 80/104/1 99/123/1 100/124/1 98/122/1 72/96/1
f 70/94/3 71/95/3 75/99/3 74/98/3
f 69/93/5 72/96/5 71/95/5 70/94/5
f 73/97/4 74/98/4 75/99/4 76/100/4
f 69/93/1 90/114/1 91/115/1 89/113/1 77/101/1 73/97/1
f 89/113/6 93/117/6 78/102/6 77/101/6
f 72/96/5 98/122/5 96/120/5 71/95/5
f 74/98/3 78/102/3 93/117/3 94/118/3 92/116/3 70/94/3
f 71/95/3 96/120/3 97/121/3 95/119/3 79/103/3 75/99/3
f 77/101/1 85/109/1 81/105/1 73/97/1
f 95/119/2 99/123/2 80/104/2 79/103/2
f 81/105/4 85/109/4 86/110/4 82/106/4
f 83/107/4 87/111/4 88/112/4 84/108/4
f 79/103/3 87/111/3 83/107/3 75/99/3
f 78/102/6 86/110/6 85/109/6 77/101/6
f 75/99/6 83/107/6 84/108/6 76/100/6
f 76/100/1 84/108/1 88/112/1 80/104/1
f 74/98/3 82/106/3 86/110/3 78/102/3
f 80/104/2 88/112/2 87/111/2 79/103/2
f 89/113/15 91/115/15 94/118/15 93/117/15
f 91/115/16 90/114/16 92/116/16 94/118/16
f 95/119/17 97/121/17 100/124/17 99/123/17
f 97/121/18 96/120/18 98/122/18 100/124/18
f 70/94/5 92/116/5 90/114/5 69/93/5
f 104/128/1 101/125/1 105/129/1 108/132/1
f 102/126/3 103/127/3 107/131/3 106/130/3
f 101/125/5 104/128/5 103/127/5 102/126/5
f 105/129/4 106/130/4 107/131/4 108/132/4
f 102/126/6 106/130/6 105/129/6 101/125/6
f 104/128/2 108/132/2 107/131/2 103/127/2
f 48/52/19 120/148/19 117/142/19 45/46/19
f 46/47/1 110/134/1 109/133/1 45/45/1
f 48/51/3 112/136/3 111/135/3 47/49/3
f 43/43/3 113/137/3 114/138/3 41/41/3
f 42/42/1 115/139/1 116/140/1 44/44/1
f 110/134/5 114/138/5 113/137/5 109/133/5
f 111/135/5 115/139/5 114/138/5 110/134/5
f 112/136/5 116/140/5 115/139/5 111/135/5
f 109/133/5 113/137/5 116/140/5 112/136/5
f 44/44/6 116/140/6 113/137/6 43/43/6
f 41/41/2 114/138/2 115/139/2 42/42/2
f 45/45/2 109/133/2 112/136/2 48/51/2
f 47/49/6 111/135/6 110/134/6 46/47/6
f 121/149/5 117/141/5 120/147/5 128/170/5
f 46/48/20 118/143/20 119/145/20 47/50/20
f 47/50/21 119/145/21 125/161/21 126/164/21 127/167/21 128/171/21 120/148/21 48/52/21
f 45/46/22 117/142/22 121/150/22 122/152/22 123/155/22 124/158/22 118/143/22 46/48/22
f 118/144/5 124/159/5 125/162/5 119/146/5
f 124/160/5 123/156/5 126/165/5 125/163/5
f 123/157/5 122/153/5 127/168/5 126/166/5
f 122/154/5 121/151/5 128/172/5 127/169/5
