# Blender 3.4.1
# www.blender.org
mtllib door018.mtl
o door.017
v 1.115080 -0.065763 0.245723
v 0.962101 -0.065763 0.245723
v 0.962101 -0.853374 0.245723
v 1.115080 -0.853374 0.245723
v 1.115080 -0.065763 0.207148
v 0.962101 -0.065763 0.207148
v 0.962101 -0.853374 0.207148
v 1.115080 -0.853374 0.207148
v 1.115080 0.009227 0.207148
v 0.962101 0.009227 0.207148
v 0.962101 -0.911365 0.207148
v 1.115080 -0.911365 0.207148
v 1.115080 -0.065763 0.089617
v 0.962101 -0.065763 0.089617
v 0.962101 -0.853374 0.089617
v 1.115080 -0.853374 0.089617
v 1.115080 0.009227 0.089617
v 0.962101 0.009227 0.089617
v 0.962101 -0.911365 0.089617
v 1.115080 -0.911365 0.089617
v 1.115080 0.009227 0.209180
v 1.115080 -0.027315 0.245723
v 1.115080 -0.001476 0.235020
v 0.962101 -0.027315 0.245723
v 0.962101 0.009227 0.209180
v 0.962101 -0.001476 0.235020
v 0.962101 -0.911365 0.209180
v 0.962101 -0.874822 0.245723
v 0.962101 -0.900662 0.235020
v 1.115080 -0.874822 0.245723
v 1.115080 -0.911365 0.209180
v 1.115080 -0.900662 0.235020
v 1.130038 -0.152063 0.266495
v 0.955005 -0.152063 0.266494
v 0.955005 -0.767090 0.266494
v 1.130038 -0.767090 0.266495
v 1.130038 -0.152063 0.186377
v 0.955005 -0.152063 0.186377
v 0.955005 -0.767090 0.186377
v 1.130038 -0.767090 0.186377
v -2.658138 -4.777893 -0.000000
v 1.644111 -4.777893 -0.000000
v -2.658138 5.222107 -0.000000
v 1.644111 5.222107 -0.000000
v -2.427058 4.991031 -0.000000
v -2.427063 -4.546816 -0.000000
v 1.413036 -4.546816 -0.000000
v 1.413036 4.991031 -0.000000
v -2.427058 4.991031 0.056298
v -2.427063 -4.546816 0.056297
v 1.413036 -4.546816 0.056297
v 1.413036 4.991031 0.056298
v -2.658138 5.222107 0.056298
v -2.658138 -4.777893 0.056297
v 1.644111 -4.777893 0.056297
v 1.644111 5.222107 0.056298
v -2.353782 4.924036 0.092030
v -2.353782 -4.479821 0.092030
v 1.339756 -4.479820 0.092030
v 1.339760 4.924036 0.092030
v -2.353782 1.789417 0.092030
v -2.353782 -1.345202 0.092030
v 1.339756 -1.345202 0.092030
v 1.339760 1.789417 0.092030
v -1.122603 -4.479821 0.092030
v 0.108577 -4.479820 0.092030
v 0.108577 4.924036 0.092030
v -1.122603 4.924036 0.092030
v 0.108577 -1.345202 0.092030
v -1.122603 -1.345202 0.092030
v 0.108577 1.789417 0.092030
v -1.122603 1.789417 0.092030
v 0.146676 1.864436 0.174633
v 1.301661 1.864436 0.174633
v 1.301661 4.849017 0.174634
v 0.146676 4.849017 0.174634
v 0.146676 -4.404801 0.174633
v 1.301661 -4.404801 0.174633
v 1.301661 -1.420221 0.174633
v 0.146676 -1.420221 0.174633
v 0.146676 -1.270183 0.174633
v 1.301661 -1.270182 0.174633
v 1.301661 1.714398 0.174633
v 0.146676 1.714398 0.174633
v -2.315688 -1.270183 0.174633
v -1.160697 -1.270183 0.174633
v -1.160697 1.714398 0.174633
v -2.315688 1.714398 0.174633
v -1.084508 -1.270183 0.174633
v 0.070482 -1.270183 0.174633
v 0.070482 1.714398 0.174633
v -1.084508 1.714398 0.174633
v -2.315688 -4.404801 0.174633
v -1.160697 -4.404801 0.174633
v -1.160697 -1.420221 0.174633
v -2.315688 -1.420221 0.174633
v -1.084503 -4.404801 0.174633
v 0.070482 -4.404801 0.174633
v 0.070482 -1.420221 0.174633
v -1.084508 -1.420221 0.174633
v -2.315688 1.864436 0.174633
v -1.160697 1.864436 0.174633
v -1.160697 4.849017 0.174634
v -2.315688 4.849017 0.174634
v -1.084503 1.864436 0.174633
v 0.070482 1.864436 0.174633
v 0.070482 4.849017 0.174634
v -1.084508 4.849017 0.174634
v -0.847625 -1.033302 0.174633
v -0.166401 -1.033301 0.174633
v -0.166401 1.477516 0.174633
v -0.847625 1.477516 0.174633
v -0.847625 -4.167920 0.174633
v -0.166401 -4.167920 0.174633
v -0.166401 -1.657102 0.174633
v -0.847625 -1.657102 0.174633
v -0.847625 2.101318 0.174633
v -0.166401 2.101318 0.174633
v -0.166401 4.612135 0.174634
v -0.847625 4.612135 0.174634
v -0.166401 -1.033301 -0.000000
v -0.847625 -1.033302 -0.000000
v -0.847625 1.477516 -0.000000
v -0.166401 1.477516 -0.000000
v -0.166401 -4.167920 -0.000000
v -0.847625 -4.167920 -0.000000
v -0.847625 -1.657102 -0.000000
v -0.166401 -1.657102 -0.000000
v -0.166401 2.101318 -0.000000
v -0.847625 2.101318 -0.000000
v -0.847625 4.612135 -0.000000
v -0.166401 4.612135 -0.000000
v 1.115080 -0.065763 -0.245723
v 0.962101 -0.065763 -0.245723
v 0.962101 -0.853374 -0.245723
v 1.115080 -0.853374 -0.245723
v 1.115080 -0.065763 -0.207148
v 0.962101 -0.065763 -0.207148
v 0.962101 -0.853374 -0.207148
v 1.115080 -0.853374 -0.207148
v 1.115080 0.009227 -0.207148
v 0.962101 0.009227 -0.207148
v 0.962101 -0.911365 -0.207148
v 1.115080 -0.911365 -0.207148
v 1.115080 -0.065763 -0.089617
v 0.962101 -0.065763 -0.089617
v 0.962101 -0.853374 -0.089617
v 1.115080 -0.853374 -0.089617
v 1.115080 0.009227 -0.089617
v 0.962101 0.009227 -0.089617
v 0.962101 -0.911365 -0.089617
v 1.115080 -0.911365 -0.089617
v 1.115080 0.009227 -0.209180
v 1.115080 -0.027315 -0.245723
v 1.115080 -0.001476 -0.235020
v 0.962101 -0.027315 -0.245723
v 0.962101 0.009227 -0.209180
v 0.962101 -0.001476 -0.235020
v 0.962101 -0.911365 -0.209180
v 0.962101 -0.874822 -0.245723
v 0.962101 -0.900662 -0.235020
v 1.115080 -0.874822 -0.245723
v 1.115080 -0.911365 -0.209180
v 1.115080 -0.900662 -0.235020
v 1.130038 -0.152063 -0.266495
v 0.955005 -0.152063 -0.266494
v 0.955005 -0.767090 -0.266494
v 1.130038 -0.767090 -0.266495
v 1.130038 -0.152063 -0.186377
v 0.955005 -0.152063 -0.186377
v 0.955005 -0.767090 -0.186377
v 1.130038 -0.767090 -0.186377
v -2.427058 4.991031 -0.056298
v -2.427063 -4.546816 -0.056297
v 1.413036 -4.546816 -0.056297
v 1.413036 4.991031 -0.056298
v -2.658138 5.222107 -0.056298
v -2.658138 -4.777893 -0.056297
v 1.644111 -4.777893 -0.056297
v 1.644111 5.222107 -0.056298
v -2.353782 4.924036 -0.092030
v -2.353782 -4.479821 -0.092030
v 1.339756 -4.479820 -0.092030
v 1.339760 4.924036 -0.092030
v -2.353782 1.789417 -0.092030
v -2.353782 -1.345202 -0.092030
v 1.339756 -1.345202 -0.092030
v 1.339760 1.789417 -0.092030
v -1.122603 -4.479821 -0.092030
v 0.108577 -4.479820 -0.092030
v 0.108577 4.924036 -0.092030
v -1.122603 4.924036 -0.092030
v 0.108577 -1.345202 -0.092030
v -1.122603 -1.345202 -0.092030
v 0.108577 1.789417 -0.092030
v -1.122603 1.789417 -0.092030
v 0.146676 1.864436 -0.174633
v 1.301661 1.864436 -0.174633
v 1.301661 4.849017 -0.174634
v 0.146676 4.849017 -0.174634
v 0.146676 -4.404801 -0.174633
v 1.301661 -4.404801 -0.174633
v 1.301661 -1.420221 -0.174633
v 0.146676 -1.420221 -0.174633
v 0.146676 -1.270183 -0.174633
v 1.301661 -1.270182 -0.174633
v 1.301661 1.714398 -0.174633
v 0.146676 1.714398 -0.174633
v -2.315688 -1.270183 -0.174633
v -1.160697 -1.270183 -0.174633
v -1.160697 1.714398 -0.174633
v -2.315688 1.714398 -0.174633
v -1.084508 -1.270183 -0.174633
v 0.070482 -1.270183 -0.174633
v 0.070482 1.714398 -0.174633
v -1.084508 1.714398 -0.174633
v -2.315688 -4.404801 -0.174633
v -1.160697 -4.404801 -0.174633
v -1.160697 -1.420221 -0.174633
v -2.315688 -1.420221 -0.174633
v -1.084503 -4.404801 -0.174633
v 0.070482 -4.404801 -0.174633
v 0.070482 -1.420221 -0.174633
v -1.084508 -1.420221 -0.174633
v -2.315688 1.864436 -0.174633
v -1.160697 1.864436 -0.174633
v -1.160697 4.849017 -0.174634
v -2.315688 4.849017 -0.174634
v -1.084503 1.864436 -0.174633
v 0.070482 1.864436 -0.174633
v 0.070482 4.849017 -0.174634
v -1.084508 4.849017 -0.174634
v -0.847625 -1.033302 -0.174633
v -0.166401 -1.033301 -0.174633
v -0.166401 1.477516 -0.174633
v -0.847625 1.477516 -0.174633
v -0.847625 -4.167920 -0.174633
v -0.166401 -4.167920 -0.174633
v -0.166401 -1.657102 -0.174633
v -0.847625 -1.657102 -0.174633
v -0.847625 2.101318 -0.174633
v -0.166401 2.101318 -0.174633
v -0.166401 4.612135 -0.174634
v -0.847625 4.612135 -0.174634
vn 1.0000 -0.0000 -0.0000
vn -0.0000 -1.0000 -0.0000
vn -1.0000 -0.0000 -0.0000
vn -0.0000 -0.0000 1.0000
vn -0.0000 -0.0000 -1.0000
vn -0.0000 1.0000 -0.0000
vn -0.0000 0.9239 0.3827
vn -0.0000 0.3827 0.9239
vn -0.0000 -0.9239 0.3827
vn -0.0000 -0.3827 0.9239
vn -0.0000 0.8085 0.5885
vn -0.0000 0.7845 0.6201
vn -0.0000 0.7795 0.6264
vn -0.0000 -0.8085 0.5885
vn -0.0000 -0.7845 0.6201
vn -0.0000 -0.7795 0.6264
vn 0.7823 -0.0000 0.6229
vn -0.7823 -0.0000 0.6229
vn -0.0000 -0.7403 0.6723
vn 0.9081 -0.0000 0.4188
vn -0.0000 0.7403 0.6723
vn -0.9081 -0.0000 0.4188
vn -0.0000 0.9239 -0.3827
vn -0.0000 0.3827 -0.9239
vn -0.0000 -0.9239 -0.3827
vn -0.0000 -0.3827 -0.9239
vn -0.0000 0.8085 -0.5885
vn -0.0000 0.7845 -0.6201
vn -0.0000 0.7795 -0.6264
vn -0.0000 -0.8085 -0.5885
vn -0.0000 -0.7845 -0.6201
vn -0.0000 -0.7795 -0.6264
vn 0.7823 -0.0000 -0.6229
vn -0.7823 -0.0000 -0.6229
vn -0.0000 -0.7403 -0.6723
vn 0.9081 -0.0000 -0.4188
vn -0.0000 0.7403 -0.6723
vn -0.9081 -0.0000 -0.4188
vt 0.409252 0.083711
vt 0.409252 0.083711
vt 0.409252 0.083711
vt 0.409252 0.083711
vt 0.409252 0.083711
vt 0.409252 0.083711
vt 0.409252 0.083711
vt 0.409252 0.083711
vt 0.409252 0.083711
vt 0.409252 0.083711
vt 0.409252 0.083711
vt 0.409252 0.083711
vt 0.409252 0.083711
vt 0.409252 0.083711
vt 0.409252 0.083711
vt 0.409252 0.083711
vt 0.409252 0.083711
vt 0.409252 0.083711
vt 0.409252 0.083711
vt 0.409252 0.083711
vt 0.409252 0.083711
vt 0.409252 0.083711
vt 0.409252 0.083711
vt 0.409252 0.083711
vt 0.409252 0.083711
vt 0.409252 0.083711
vt 0.409252 0.083711
vt 0.409252 0.083711
vt 0.409252 0.083711
vt 0.409252 0.083711
vt 0.409252 0.083711
vt 0.409252 0.083711
vt 0.089911 0.883612
vt 0.089911 0.883612
vt 0.089911 0.883612
vt 0.089911 0.883612
vt 0.089911 0.883612
vt 0.089911 0.883612
vt 0.089911 0.883612
vt 0.089911 0.883612
vt 0.422217 0.103546
vt 0.422217 0.103546
vt 0.422217 0.103546
vt 0.422217 0.103546
vt 0.422217 0.103546
vt 0.093540 0.914689
vt 0.422217 0.103546
vt 0.093540 0.914689
vt 0.422217 0.103546
vt 0.093540 0.914689
vt 0.422217 0.103546
vt 0.093540 0.914689
vt 0.422217 0.103546
vt 0.422217 0.103546
vt 0.422217 0.103546
vt 0.422217 0.103546
vt 0.422217 0.103546
vt 0.422217 0.103546
vt 0.422217 0.103546
vt 0.422217 0.103546
vt 0.093540 0.914689
vt 0.093540 0.914689
vt 0.093540 0.914689
vt 0.093540 0.914689
vt 0.093540 0.914689
vt 0.093540 0.914689
vt 0.093540 0.914689
vt 0.093540 0.914689
vt 0.093540 0.914689
vt 0.093540 0.914689
vt 0.093540 0.914689
vt 0.093540 0.914689
vt 0.093540 0.914689
vt 0.093540 0.914689
vt 0.093540 0.914689
vt 0.093540 0.914689
vt 0.093540 0.914689
vt 0.093540 0.914689
vt 0.093540 0.914689
vt 0.093540 0.914689
vt 0.093540 0.914689
vt 0.093540 0.914689
vt 0.093540 0.914689
vt 0.093540 0.914689
vt 0.093540 0.914689
vt 0.093540 0.914689
vt 0.093540 0.914689
vt 0.093540 0.914689
vt 0.093540 0.914689
vt 0.093540 0.914689
vt 0.093540 0.914689
vt 0.093540 0.914689
vt 0.093540 0.914689
vt 0.093540 0.914689
vt 0.093540 0.914689
vt 0.093540 0.914689
vt 0.093540 0.914689
vt 0.093540 0.914689
vt 0.093540 0.914689
vt 0.093540 0.914689
vt 0.093540 0.914689
vt 0.093540 0.914689
vt 0.093540 0.914689
vt 0.093540 0.914689
vt 0.093540 0.914689
vt 0.093540 0.914689
vt 0.093540 0.914689
vt 0.093540 0.914689
vt 0.093540 0.914689
vt 0.093540 0.914689
vt 0.093540 0.914689
vt 0.093540 0.914689
vt 0.093540 0.914689
vt 0.093540 0.914689
vt 0.093540 0.914689
vt 0.093540 0.914689
vt 0.093540 0.914689
vt 0.093540 0.914689
vt 0.093540 0.914689
vt 0.093540 0.914689
vt 0.093540 0.914689
vt 0.093540 0.914689
vt 0.093540 0.914689
vt 0.093540 0.914689
vt 0.476438 0.542642
vt 0.093540 0.914689
vt 0.476438 0.542642
vt 0.093540 0.914689
vt 0.476438 0.542642
vt 0.093540 0.914689
vt 0.476438 0.542642
vt 0.093540 0.914689
vt 0.476438 0.542642
vt 0.093540 0.914689
vt 0.476438 0.542642
vt 0.093540 0.914689
vt 0.476438 0.542642
vt 0.093540 0.914689
vt 0.476438 0.542642
vt 0.093540 0.914689
vt 0.476438 0.542642
vt 0.093540 0.914689
vt 0.476438 0.542642
vt 0.093540 0.914689
vt 0.476438 0.542642
vt 0.093540 0.914689
vt 0.476438 0.542642
vt 0.093540 0.914689
vt 0.409252 0.083711
vt 0.409252 0.083711
vt 0.409252 0.083711
vt 0.409252 0.083711
vt 0.409252 0.083711
vt 0.409252 0.083711
vt 0.409252 0.083711
vt 0.409252 0.083711
vt 0.409252 0.083711
vt 0.409252 0.083711
vt 0.409252 0.083711
vt 0.409252 0.083711
vt 0.409252 0.083711
vt 0.409252 0.083711
vt 0.409252 0.083711
vt 0.409252 0.083711
vt 0.409252 0.083711
vt 0.409252 0.083711
vt 0.409252 0.083711
vt 0.409252 0.083711
vt 0.409252 0.083711
vt 0.409252 0.083711
vt 0.409252 0.083711
vt 0.409252 0.083711
vt 0.409252 0.083711
vt 0.409252 0.083711
vt 0.409252 0.083711
vt 0.409252 0.083711
vt 0.409252 0.083711
vt 0.409252 0.083711
vt 0.409252 0.083711
vt 0.409252 0.083711
vt 0.089911 0.883612
vt 0.089911 0.883612
vt 0.089911 0.883612
vt 0.089911 0.883612
vt 0.089911 0.883612
vt 0.089911 0.883612
vt 0.089911 0.883612
vt 0.089911 0.883612
vt 0.422217 0.103546
vt 0.422217 0.103546
vt 0.422217 0.103546
vt 0.422217 0.103546
vt 0.422217 0.103546
vt 0.422217 0.103546
vt 0.422217 0.103546
vt 0.422217 0.103546
vt 0.093540 0.914689
vt 0.093540 0.914689
vt 0.093540 0.914689
vt 0.093540 0.914689
vt 0.093540 0.914689
vt 0.093540 0.914689
vt 0.093540 0.914689
vt 0.093540 0.914689
vt 0.093540 0.914689
vt 0.093540 0.914689
vt 0.093540 0.914689
vt 0.093540 0.914689
vt 0.093540 0.914689
vt 0.093540 0.914689
vt 0.093540 0.914689
vt 0.093540 0.914689
vt 0.093540 0.914689
vt 0.093540 0.914689
vt 0.093540 0.914689
vt 0.093540 0.914689
vt 0.093540 0.914689
vt 0.093540 0.914689
vt 0.093540 0.914689
vt 0.093540 0.914689
vt 0.093540 0.914689
vt 0.093540 0.914689
vt 0.093540 0.914689
vt 0.093540 0.914689
vt 0.093540 0.914689
vt 0.093540 0.914689
vt 0.093540 0.914689
vt 0.093540 0.914689
vt 0.093540 0.914689
vt 0.093540 0.914689
vt 0.093540 0.914689
vt 0.093540 0.914689
vt 0.093540 0.914689
vt 0.093540 0.914689
vt 0.093540 0.914689
vt 0.093540 0.914689
vt 0.093540 0.914689
vt 0.093540 0.914689
vt 0.093540 0.914689
vt 0.093540 0.914689
vt 0.093540 0.914689
vt 0.093540 0.914689
vt 0.093540 0.914689
vt 0.093540 0.914689
vt 0.093540 0.914689
vt 0.093540 0.914689
vt 0.093540 0.914689
vt 0.093540 0.914689
vt 0.093540 0.914689
vt 0.093540 0.914689
vt 0.093540 0.914689
vt 0.093540 0.914689
vt 0.093540 0.914689
vt 0.093540 0.914689
vt 0.093540 0.914689
vt 0.093540 0.914689
vt 0.093540 0.914689
vt 0.093540 0.914689
vt 0.093540 0.914689
vt 0.093540 0.914689
s 1
usemtl Material
f 4/4/1 8/8/1 5/5/1 1/1/1
f 5/5/2 6/6/2 14/14/2 13/13/2
f 8/8/1 4/4/1 30/30/1 32/32/1 31/31/1 12/12/1
f 2/2/3 6/6/3 7/7/3 3/3/3
f 1/1/4 2/2/4 3/3/4 4/4/4
f 5/5/5 8/8/5 7/7/5 6/6/5
f 1/1/1 5/5/1 9/9/1 21/21/1 23/23/1 22/22/1
f 21/21/6 9/9/6 10/10/6 25/25/6
f 4/4/4 3/3/4 28/28/4 30/30/4
f 6/6/3 2/2/3 24/24/3 26/26/3 25/25/3 10/10/3
f 3/3/3 7/7/3 11/11/3 27/27/3 29/29/3 28/28/3
f 9/9/1 5/5/1 13/13/1 17/17/1
f 27/27/2 11/11/2 12/12/2 31/31/2
f 13/13/5 14/14/5 18/18/5 17/17/5
f 15/15/5 16/16/5 20/20/5 19/19/5
f 11/11/3 7/7/3 15/15/3 19/19/3
f 10/10/6 9/9/6 17/17/6 18/18/6
f 7/7/6 8/8/6 16/16/6 15/15/6
f 8/8/1 12/12/1 20/20/1 16/16/1
f 6/6/3 10/10/3 18/18/3 14/14/3
f 12/12/2 11/11/2 19/19/2 20/20/2
f 21/21/7 25/25/7 26/26/7 23/23/7
f 23/23/8 26/26/8 24/24/8 22/22/8
f 27/27/9 31/31/9 32/32/9 29/29/9
f 29/29/10 32/32/10 30/30/10 28/28/10
f 2/2/4 1/1/4 22/22/4 24/24/4
f 36/36/1 40/40/1 37/37/1 33/33/1
f 34/34/3 38/38/3 39/39/3 35/35/3
f 33/33/4 34/34/4 35/35/4 36/36/4
f 37/37/5 40/40/5 39/39/5 38/38/5
f 34/34/6 33/33/6 37/37/6 38/38/6
f 36/36/2 35/35/2 39/39/2 40/40/2
f 48/52/11 45/46/11 57/61/12 68/72/13 67/71/13 60/64/12
f 46/47/1 45/45/1 49/53/1 50/54/1
f 48/51/3 47/49/3 51/55/3 52/56/3
f 43/43/3 41/41/3 54/58/3 53/57/3
f 42/42/1 44/44/1 56/60/1 55/59/1
f 50/54/4 49/53/4 53/57/4 54/58/4
f 51/55/4 50/54/4 54/58/4 55/59/4
f 52/56/4 51/55/4 55/59/4 56/60/4
f 49/53/4 52/56/4 56/60/4 53/57/4
f 44/44/6 43/43/6 53/57/6 56/60/6
f 41/41/2 42/42/2 55/59/2 54/58/2
f 45/45/2 48/51/2 52/56/2 49/53/2
f 47/49/6 46/47/6 50/54/6 51/55/6
f 46/48/14 47/50/14 59/63/15 66/70/16 65/69/16 58/62/15
f 47/50/17 48/52/17 60/64/17 64/68/17 63/67/17 59/63/17
f 45/46/18 46/48/18 58/62/18 62/66/18 61/65/18 57/61/18
f 73/77/4 74/78/4 75/79/4 76/80/4
f 64/68/19 74/78/19 73/77/19 71/75/19
f 60/64/20 75/79/20 74/78/20 64/68/20
f 67/71/13 76/80/21 75/79/21 60/64/12
f 71/75/22 73/77/22 76/80/22 67/71/22
f 77/81/4 78/82/4 79/83/4 80/84/4
f 59/63/15 78/82/19 77/81/19 66/70/16
f 63/67/20 79/83/20 78/82/20 59/63/20
f 69/73/21 80/84/21 79/83/21 63/67/21
f 66/70/22 77/81/22 80/84/22 69/73/22
f 81/85/4 82/86/4 83/87/4 84/88/4
f 63/67/19 82/86/19 81/85/19 69/73/19
f 64/68/20 83/87/20 82/86/20 63/67/20
f 71/75/21 84/88/21 83/87/21 64/68/21
f 69/73/22 81/85/22 84/88/22 71/75/22
f 85/89/4 86/90/4 87/91/4 88/92/4
f 70/74/19 86/90/19 85/89/19 62/66/19
f 72/76/20 87/91/20 86/90/20 70/74/20
f 61/65/21 88/92/21 87/91/21 72/76/21
f 62/66/22 85/89/22 88/92/22 61/65/22
f 112/116/1 109/113/1 122/128/1 123/130/1
f 69/73/19 90/94/19 89/93/19 70/74/19
f 71/75/20 91/95/20 90/94/20 69/73/20
f 72/76/21 92/96/21 91/95/21 71/75/21
f 70/74/22 89/93/22 92/96/22 72/76/22
f 93/97/4 94/98/4 95/99/4 96/100/4
f 65/69/16 94/98/19 93/97/19 58/62/15
f 70/74/20 95/99/20 94/98/20 65/69/20
f 62/66/21 96/100/21 95/99/21 70/74/21
f 58/62/22 93/97/22 96/100/22 62/66/22
f 118/122/3 119/123/3 132/148/3 129/142/3
f 66/70/16 98/102/19 97/101/19 65/69/16
f 69/73/20 99/103/20 98/102/20 66/70/20
f 70/74/21 100/104/21 99/103/21 69/73/21
f 65/69/22 97/101/22 100/104/22 70/74/22
f 101/105/4 102/106/4 103/107/4 104/108/4
f 72/76/19 102/106/19 101/105/19 61/65/19
f 68/72/20 103/107/20 102/106/20 72/76/20
f 57/61/12 104/108/21 103/107/21 68/72/13
f 61/65/22 101/105/22 104/108/22 57/61/22
f 115/119/2 116/120/2 127/138/2 128/140/2
f 71/75/19 106/110/19 105/109/19 72/76/19
f 67/71/20 107/111/20 106/110/20 71/75/20
f 68/72/13 108/112/21 107/111/21 67/71/13
f 72/76/22 105/109/22 108/112/22 68/72/22
f 89/93/4 90/94/4 110/114/4 109/113/4
f 90/94/4 91/95/4 111/115/4 110/114/4
f 91/95/4 92/96/4 112/116/4 111/115/4
f 92/96/4 89/93/4 109/113/4 112/116/4
f 97/101/4 98/102/4 114/118/4 113/117/4
f 98/102/4 99/103/4 115/119/4 114/118/4
f 99/103/4 100/104/4 116/120/4 115/119/4
f 100/104/4 97/101/4 113/117/4 116/120/4
f 105/109/4 106/110/4 118/122/4 117/121/4
f 106/110/4 107/111/4 119/123/4 118/122/4
f 107/111/4 108/112/4 120/124/4 119/123/4
f 108/112/4 105/109/4 117/121/4 120/124/4
f 122/127/4 121/125/4 124/131/4 123/129/4
f 126/135/4 125/133/4 128/139/4 127/137/4
f 130/143/4 129/141/4 132/147/4 131/145/4
f 113/117/6 114/118/6 125/134/6 126/136/6
f 119/123/2 120/124/2 131/146/2 132/148/2
f 110/114/3 111/115/3 124/132/3 121/126/3
f 116/120/1 113/117/1 126/136/1 127/138/1
f 117/121/6 118/122/6 129/142/6 130/144/6
f 111/115/2 112/116/2 123/130/2 124/132/2
f 114/118/3 115/119/3 128/140/3 125/134/3
f 120/124/1 117/121/1 130/144/1 131/146/1
f 109/113/6 110/114/6 121/126/6 122/128/6
f 136/152/1 133/149/1 137/153/1 140/156/1
f 137/153/2 145/161/2 146/162/2 138/154/2
f 140/156/1 144/160/1 163/179/1 164/180/1 162/178/1 136/152/1
f 134/150/3 135/151/3 139/155/3 138/154/3
f 133/149/5 136/152/5 135/151/5 134/150/5
f 137/153/4 138/154/4 139/155/4 140/156/4
f 133/149/1 154/170/1 155/171/1 153/169/1 141/157/1 137/153/1
f 153/169/6 157/173/6 142/158/6 141/157/6
f 136/152/5 162/178/5 160/176/5 135/151/5
f 138/154/3 142/158/3 157/173/3 158/174/3 156/172/3 134/150/3
f 135/151/3 160/176/3 161/177/3 159/175/3 143/159/3 139/155/3
f 141/157/1 149/165/1 145/161/1 137/153/1
f 159/175/2 163/179/2 144/160/2 143/159/2
f 145/161/4 149/165/4 150/166/4 146/162/4
f 147/163/4 151/167/4 152/168/4 148/164/4
f 143/159/3 151/167/3 147/163/3 139/155/3
f 142/158/6 150/166/6 149/165/6 141/157/6
f 139/155/6 147/163/6 148/164/6 140/156/6
f 140/156/1 148/164/1 152/168/1 144/160/1
f 138/154/3 146/162/3 150/166/3 142/158/3
f 144/160/2 152/168/2 151/167/2 143/159/2
f 153/169/23 155/171/23 158/174/23 157/173/23
f 155/171/24 154/170/24 156/172/24 158/174/24
f 159/175/25 161/177/25 164/180/25 163/179/25
f 161/177/26 160/176/26 162/178/26 164/180/26
f 134/150/5 156/172/5 154/170/5 133/149/5
f 168/184/1 165/181/1 169/185/1 172/188/1
f 166/182/3 167/183/3 171/187/3 170/186/3
f 165/181/5 168/184/5 167/183/5 166/182/5
f 169/185/4 170/186/4 171/187/4 172/188/4
f 166/182/6 170/186/6 169/185/6 165/181/6
f 168/184/2 172/188/2 171/187/2 167/183/2
f 48/52/27 184/200/28 191/207/29 192/208/29 181/197/28 45/46/27
f 46/47/1 174/190/1 173/189/1 45/45/1
f 48/51/3 176/192/3 175/191/3 47/49/3
f 43/43/3 177/193/3 178/194/3 41/41/3
f 42/42/1 179/195/1 180/196/1 44/44/1
f 174/190/5 178/194/5 177/193/5 173/189/5
f 175/191/5 179/195/5 178/194/5 174/190/5
f 176/192/5 180/196/5 179/195/5 175/191/5
f 173/189/5 177/193/5 180/196/5 176/192/5
f 44/44/6 180/196/6 177/193/6 43/43/6
f 41/41/2 178/194/2 179/195/2 42/42/2
f 45/45/2 173/189/2 176/192/2 48/51/2
f 47/49/6 175/191/6 174/190/6 46/47/6
f 46/48/30 182/198/31 189/205/32 190/206/32 183/199/31 47/50/30
f 47/50/33 183/199/33 187/203/33 188/204/33 184/200/33 48/52/33
f 45/46/34 181/197/34 185/201/34 186/202/34 182/198/34 46/48/34
f 197/213/5 200/216/5 199/215/5 198/214/5
f 188/204/35 195/211/35 197/213/35 198/214/35
f 184/200/36 188/204/36 198/214/36 199/215/36
f 191/207/29 184/200/28 199/215/37 200/216/37
f 195/211/38 191/207/38 200/216/38 197/213/38
f 201/217/5 204/220/5 203/219/5 202/218/5
f 183/199/31 190/206/32 201/217/35 202/218/35
f 187/203/36 183/199/36 202/218/36 203/219/36
f 193/209/37 187/203/37 203/219/37 204/220/37
f 190/206/38 193/209/38 204/220/38 201/217/38
f 205/221/5 208/224/5 207/223/5 206/222/5
f 187/203/35 193/209/35 205/221/35 206/222/35
f 188/204/36 187/203/36 206/222/36 207/223/36
f 195/211/37 188/204/37 207/223/37 208/224/37
f 193/209/38 195/211/38 208/224/38 205/221/38
f 209/225/5 212/228/5 211/227/5 210/226/5
f 194/210/35 186/202/35 209/225/35 210/226/35
f 196/212/36 194/210/36 210/226/36 211/227/36
f 185/201/37 196/212/37 211/227/37 212/228/37
f 186/202/38 185/201/38 212/228/38 209/225/38
f 236/252/1 123/130/1 122/128/1 233/249/1
f 193/209/35 194/210/35 213/229/35 214/230/35
f 195/211/36 193/209/36 214/230/36 215/231/36
f 196/212/37 195/211/37 215/231/37 216/232/37
f 194/210/38 196/212/38 216/232/38 213/229/38
f 217/233/5 220/236/5 219/235/5 218/234/5
f 189/205/32 182/198/31 217/233/35 218/234/35
f 194/210/36 189/205/36 218/234/36 219/235/36
f 186/202/37 194/210/37 219/235/37 220/236/37
f 182/198/38 186/202/38 220/236/38 217/233/38
f 242/258/3 129/142/3 132/148/3 243/259/3
f 190/206/32 189/205/32 221/237/35 222/238/35
f 193/209/36 190/206/36 222/238/36 223/239/36
f 194/210/37 193/209/37 223/239/37 224/240/37
f 189/205/38 194/210/38 224/240/38 221/237/38
f 225/241/5 228/244/5 227/243/5 226/242/5
f 196/212/35 185/201/35 225/241/35 226/242/35
f 192/208/36 196/212/36 226/242/36 227/243/36
f 181/197/28 192/208/29 227/243/37 228/244/37
f 185/201/38 181/197/38 228/244/38 225/241/38
f 239/255/2 128/140/2 127/138/2 240/256/2
f 195/211/35 196/212/35 229/245/35 230/246/35
f 191/207/36 195/211/36 230/246/36 231/247/36
f 192/208/29 191/207/29 231/247/37 232/248/37
f 196/212/38 192/208/38 232/248/38 229/245/38
f 213/229/5 233/249/5 234/250/5 214/230/5
f 214/230/5 234/250/5 235/251/5 215/231/5
f 215/231/5 235/251/5 236/252/5 216/232/5
f 216/232/5 236/252/5 233/249/5 213/229/5
f 221/237/5 237/253/5 238/254/5 222/238/5
f 222/238/5 238/254/5 239/255/5 223/239/5
f 223/239/5 239/255/5 240/256/5 224/240/5
f 224/240/5 240/256/5 237/253/5 221/237/5
f 229/245/5 241/257/5 242/258/5 230/246/5
f 230/246/5 242/258/5 243/259/5 231/247/5
f 231/247/5 243/259/5 244/260/5 232/248/5
f 232/248/5 244/260/5 241/257/5 229/245/5
f 237/253/6 126/136/6 125/134/6 238/254/6
f 243/259/2 132/148/2 131/146/2 244/260/2
f 234/250/3 121/126/3 124/132/3 235/251/3
f 240/256/1 127/138/1 126/136/1 237/253/1
f 241/257/6 130/144/6 129/142/6 242/258/6
f 235/251/2 124/132/2 123/130/2 236/252/2
f 238/254/3 125/134/3 128/140/3 239/255/3
f 244/260/1 131/146/1 130/144/1 241/257/1
f 233/249/6 122/128/6 121/126/6 234/250/6
