# Blender 3.4.1
# www.blender.org
mtllib door003.mtl
o door.002
v 0.517530 0.196006 0.254827
v 0.364549 0.196006 0.254826
v 0.364549 -0.591604 0.254826
v 0.517530 -0.591604 0.254827
v 0.517530 0.196006 0.216252
v 0.364549 0.196006 0.216252
v 0.364549 -0.591604 0.216252
v 0.517530 -0.591604 0.216252
v 0.517530 0.270996 0.216252
v 0.364549 0.270996 0.216252
v 0.364549 -0.649595 0.216252
v 0.517530 -0.649595 0.216252
v 0.517530 0.196006 0.098720
v 0.364549 0.196006 0.098720
v 0.364549 -0.591604 0.098720
v 0.517530 -0.591604 0.098720
v 0.517530 0.270996 0.098720
v 0.364549 0.270996 0.098720
v 0.364549 -0.649595 0.098720
v 0.517530 -0.649595 0.098720
v 0.517530 0.270996 0.218284
v 0.517530 0.234454 0.254827
v 0.517530 0.260293 0.244124
v 0.364549 0.234454 0.254826
v 0.364549 0.270996 0.218284
v 0.364549 0.260293 0.244123
v 0.364549 -0.649595 0.218284
v 0.364549 -0.613053 0.254826
v 0.364549 -0.638892 0.244123
v 0.517530 -0.613053 0.254827
v 0.517530 -0.649595 0.218284
v 0.517530 -0.638892 0.244124
v 0.532484 0.109706 0.275598
v 0.357453 0.109706 0.275598
v 0.357453 -0.505320 0.275598
v 0.532484 -0.505320 0.275598
v 0.532484 0.109706 0.195481
v 0.357453 0.109706 0.195480
v 0.357453 -0.505320 0.195480
v 0.532484 -0.505320 0.195481
v -3.255687 -4.516124 -0.000000
v 1.046562 -4.516123 -0.000000
v -3.255687 5.483876 -0.000000
v 1.046562 5.483876 -0.000000
v -3.024612 5.252801 -0.000000
v -3.024612 -4.285047 -0.000000
v 0.815484 -4.285047 -0.000000
v 0.815484 5.252801 -0.000000
v -3.024612 5.252801 0.065401
v -3.024612 -4.285047 0.065401
v 0.815484 -4.285047 0.065401
v 0.815484 5.252801 0.065401
v -3.255687 5.483876 0.065401
v -3.255687 -4.516124 0.065401
v 1.046562 -4.516123 0.065401
v 1.046562 5.483876 0.065401
v -2.951334 5.185805 0.101134
v -2.951334 -4.218051 0.101133
v 0.742206 -4.218051 0.101133
v 0.742206 5.185805 0.101134
v 0.517530 0.196006 -0.254827
v 0.364549 0.196006 -0.254826
v 0.364549 -0.591604 -0.254826
v 0.517530 -0.591604 -0.254827
v 0.517530 0.196006 -0.216252
v 0.364549 0.196006 -0.216252
v 0.364549 -0.591604 -0.216252
v 0.517530 -0.591604 -0.216252
v 0.517530 0.270996 -0.216252
v 0.364549 0.270996 -0.216252
v 0.364549 -0.649595 -0.216252
v 0.517530 -0.649595 -0.216252
v 0.517530 0.196006 -0.098720
v 0.364549 0.196006 -0.098720
v 0.364549 -0.591604 -0.098720
v 0.517530 -0.591604 -0.098720
v 0.517530 0.270996 -0.098720
v 0.364549 0.270996 -0.098720
v 0.364549 -0.649595 -0.098720
v 0.517530 -0.649595 -0.098720
v 0.517530 0.270996 -0.218284
v 0.517530 0.234454 -0.254827
v 0.517530 0.260293 -0.244124
v 0.364549 0.234454 -0.254826
v 0.364549 0.270996 -0.218284
v 0.364549 0.260293 -0.244123
v 0.364549 -0.649595 -0.218284
v 0.364549 -0.613053 -0.254826
v 0.364549 -0.638892 -0.244123
v 0.517530 -0.613053 -0.254827
v 0.517530 -0.649595 -0.218284
v 0.517530 -0.638892 -0.244124
v 0.532484 0.109706 -0.275598
v 0.357453 0.109706 -0.275598
v 0.357453 -0.505320 -0.275598
v 0.532484 -0.505320 -0.275598
v 0.532484 0.109706 -0.195481
v 0.357453 0.109706 -0.195480
v 0.357453 -0.505320 -0.195480
v 0.532484 -0.505320 -0.195481
v -3.024612 5.252801 -0.065401
v -3.024612 -4.285047 -0.065401
v 0.815484 -4.285047 -0.065401
v 0.815484 5.252801 -0.065401
v -3.255687 5.483876 -0.065401
v -3.255687 -4.516124 -0.065401
v 1.046562 -4.516123 -0.065401
v 1.046562 5.483876 -0.065401
v -2.951334 5.185805 -0.101134
v -2.951334 -4.218051 -0.101133
v 0.742206 -4.218051 -0.101133
v 0.742206 5.185805 -0.101134
vn 1.0000 -0.0000 -0.0000
vn -0.0000 -1.0000 -0.0000
vn -1.0000 -0.0000 -0.0000
vn -0.0000 -0.0000 1.0000
vn -0.0000 -0.0000 -1.0000
vn -0.0000 1.0000 -0.0000
vn -0.0000 0.9239 0.3827
vn -0.0000 0.3827 0.9239
vn -0.0000 -0.9239 0.3827
vn -0.0000 -0.3827 0.9239
vn -0.0000 0.8337 0.5523
vn -0.0000 -0.8337 0.5523
vn 0.8098 -0.0000 0.5867
vn -0.8098 -0.0000 0.5867
vn -0.0000 0.9239 -0.3827
vn -0.0000 0.3827 -0.9239
vn -0.0000 -0.9239 -0.3827
vn -0.0000 -0.3827 -0.9239
vn -0.0000 0.8337 -0.5523
vn -0.0000 -0.8337 -0.5523
vn 0.8098 -0.0000 -0.5867
vn -0.8098 -0.0000 -0.5867
vt 0.409252 0.083711
vt 0.409252 0.083711
vt 0.409252 0.083711
vt 0.409252 0.083711
vt 0.409252 0.083711
vt 0.409252 0.083711
vt 0.409252 0.083711
vt 0.409252 0.083711
vt 0.409252 0.083711
vt 0.409252 0.083711
vt 0.409252 0.083711
vt 0.409252 0.083711
vt 0.409252 0.083711
vt 0.409252 0.083711
vt 0.409252 0.083711
vt 0.409252 0.083711
vt 0.409252 0.083711
vt 0.409252 0.083711
vt 0.409252 0.083711
vt 0.409252 0.083711
vt 0.409252 0.083711
vt 0.409252 0.083711
vt 0.409252 0.083711
vt 0.409252 0.083711
vt 0.409252 0.083711
vt 0.409252 0.083711
vt 0.409252 0.083711
vt 0.409252 0.083711
vt 0.409252 0.083711
vt 0.409252 0.083711
vt 0.409252 0.083711
vt 0.409252 0.083711
vt 0.793700 0.099213
vt 0.793700 0.099213
vt 0.793700 0.099213
vt 0.793700 0.099213
vt 0.793700 0.099213
vt 0.793700 0.099213
vt 0.793700 0.099213
vt 0.793700 0.099213
vt 0.794264 0.125248
vt 0.794264 0.125248
vt 0.794264 0.125248
vt 0.794264 0.125248
vt 0.794264 0.125248
vt 0.426832 0.151992
vt 0.794264 0.125248
vt 0.426832 0.151992
vt 0.794264 0.125248
vt 0.426832 0.151992
vt 0.794264 0.125248
vt 0.426832 0.151992
vt 0.794264 0.125248
vt 0.794264 0.125248
vt 0.794264 0.125248
vt 0.794264 0.125248
vt 0.794264 0.125248
vt 0.794264 0.125248
vt 0.794264 0.125248
vt 0.794264 0.125248
vt 0.426832 0.151992
vt 0.426832 0.151992
vt 0.426832 0.151992
vt 0.426832 0.151992
vt 0.409252 0.083711
vt 0.409252 0.083711
vt 0.409252 0.083711
vt 0.409252 0.083711
vt 0.409252 0.083711
vt 0.409252 0.083711
vt 0.409252 0.083711
vt 0.409252 0.083711
vt 0.409252 0.083711
vt 0.409252 0.083711
vt 0.409252 0.083711
vt 0.409252 0.083711
vt 0.409252 0.083711
vt 0.409252 0.083711
vt 0.409252 0.083711
vt 0.409252 0.083711
vt 0.409252 0.083711
vt 0.409252 0.083711
vt 0.409252 0.083711
vt 0.409252 0.083711
vt 0.409252 0.083711
vt 0.409252 0.083711
vt 0.409252 0.083711
vt 0.409252 0.083711
vt 0.409252 0.083711
vt 0.409252 0.083711
vt 0.409252 0.083711
vt 0.409252 0.083711
vt 0.409252 0.083711
vt 0.409252 0.083711
vt 0.409252 0.083711
vt 0.409252 0.083711
vt 0.793700 0.099213
vt 0.793700 0.099213
vt 0.793700 0.099213
vt 0.793700 0.099213
vt 0.793700 0.099213
vt 0.793700 0.099213
vt 0.793700 0.099213
vt 0.793700 0.099213
vt 0.794264 0.125248
vt 0.794264 0.125248
vt 0.794264 0.125248
vt 0.794264 0.125248
vt 0.794264 0.125248
vt 0.794264 0.125248
vt 0.794264 0.125248
vt 0.794264 0.125248
vt 0.426832 0.151992
vt 0.426832 0.151992
vt 0.426832 0.151992
vt 0.426832 0.151992
s 1
usemtl Material
f 4/4/1 8/8/1 5/5/1 1/1/1
f 5/5/2 6/6/2 14/14/2 13/13/2
f 8/8/1 4/4/1 30/30/1 32/32/1 31/31/1 12/12/1
f 2/2/3 6/6/3 7/7/3 3/3/3
f 1/1/4 2/2/4 3/3/4 4/4/4
f 5/5/5 8/8/5 7/7/5 6/6/5
f 1/1/1 5/5/1 9/9/1 21/21/1 23/23/1 22/22/1
f 21/21/6 9/9/6 10/10/6 25/25/6
f 4/4/4 3/3/4 28/28/4 30/30/4
f 6/6/3 2/2/3 24/24/3 26/26/3 25/25/3 10/10/3
f 3/3/3 7/7/3 11/11/3 27/27/3 29/29/3 28/28/3
f 9/9/1 5/5/1 13/13/1 17/17/1
f 27/27/2 11/11/2 12/12/2 31/31/2
f 13/13/5 14/14/5 18/18/5 17/17/5
f 15/15/5 16/16/5 20/20/5 19/19/5
f 11/11/3 7/7/3 15/15/3 19/19/3
f 10/10/6 9/9/6 17/17/6 18/18/6
f 7/7/6 8/8/6 16/16/6 15/15/6
f 8/8/1 12/12/1 20/20/1 16/16/1
f 6/6/3 10/10/3 18/18/3 14/14/3
f 12/12/2 11/11/2 19/19/2 20/20/2
f 21/21/7 25/25/7 26/26/7 23/23/7
f 23/23/8 26/26/8 24/24/8 22/22/8
f 27/27/9 31/31/9 32/32/9 29/29/9
f 29/29/10 32/32/10 30/30/10 28/28/10
f 2/2/4 1/1/4 22/22/4 24/24/4
f 36/36/1 40/40/1 37/37/1 33/33/1
f 34/34/3 38/38/3 39/39/3 35/35/3
f 33/33/4 34/34/4 35/35/4 36/36/4
f 37/37/5 40/40/5 39/39/5 38/38/5
f 34/34/6 33/33/6 37/37/6 38/38/6
f 36/36/2 35/35/2 39/39/2 40/40/2
f 48/52/11 45/46/11 57/61/11 60/64/11
f 46/47/1 45/45/1 49/53/1 50/54/1
f 48/51/3 47/49/3 51/55/3 52/56/3
f 43/43/3 41/41/3 54/58/3 53/57/3
f 42/42/1 44/44/1 56/60/1 55/59/1
f 50/54/4 49/53/4 53/57/4 54/58/4
f 51/55/4 50/54/4 54/58/4 55/59/4
f 52/56/4 51/55/4 55/59/4 56/60/4
f 49/53/4 52/56/4 56/60/4 53/57/4
f 44/44/6 43/43/6 53/57/6 56/60/6
f 41/41/2 42/42/2 55/59/2 54/58/2
f 45/45/2 48/51/2 52/56/2 49/53/2
f 47/49/6 46/47/6 50/54/6 51/55/6
f 58/62/4 59/63/4 60/64/4 57/61/4
f 46/48/12 47/50/12 59/63/12 58/62/12
f 47/50/13 48/52/13 60/64/13 59/63/13
f 45/46/14 46/48/14 58/62/14 57/61/14
f 64/68/1 61/65/1 65/69/1 68/72/1
f 65/69/2 73/77/2 74/78/2 66/70/2
f 68/72/1 72/76/1 91/95/1 92/96/1 90/94/1 64/68/1
f 62/66/3 63/67/3 67/71/3 66/70/3
f 61/65/5 64/68/5 63/67/5 62/66/5
f 65/69/4 66/70/4 67/71/4 68/72/4
f 61/65/1 82/86/1 83/87/1 81/85/1 69/73/1 65/69/1
f 81/85/6 85/89/6 70/74/6 69/73/6
f 64/68/5 90/94/5 88/92/5 63/67/5
f 66/70/3 70/74/3 85/89/3 86/90/3 84/88/3 62/66/3
f 63/67/3 88/92/3 89/93/3 87/91/3 71/75/3 67/71/3
f 69/73/1 77/81/1 73/77/1 65/69/1
f 87/91/2 91/95/2 72/76/2 71/75/2
f 73/77/4 77/81/4 78/82/4 74/78/4
f 75/79/4 79/83/4 80/84/4 76/80/4
f 71/75/3 79/83/3 75/79/3 67/71/3
f 70/74/6 78/82/6 77/81/6 69/73/6
f 67/71/6 75/79/6 76/80/6 68/72/6
f 68/72/1 76/80/1 80/84/1 72/76/1
f 66/70/3 74/78/3 78/82/3 70/74/3
f 72/76/2 80/84/2 79/83/2 71/75/2
f 81/85/15 83/87/15 86/90/15 85/89/15
f 83/87/16 82/86/16 84/88/16 86/90/16
f 87/91/17 89/93/17 92/96/17 91/95/17
f 89/93/18 88/92/18 90/94/18 92/96/18
f 62/66/5 84/88/5 82/86/5 61/65/5
f 96/100/1 93/97/1 97/101/1 100/104/1
f 94/98/3 95/99/3 99/103/3 98/102/3
f 93/97/5 96/100/5 95/99/5 94/98/5
f 97/101/4 98/102/4 99/103/4 100/104/4
f 94/98/6 98/102/6 97/101/6 93/97/6
f 96/100/2 100/104/2 99/103/2 95/99/2
f 48/52/19 112/116/19 109/113/19 45/46/19
f 46/47/1 102/106/1 101/105/1 45/45/1
f 48/51/3 104/108/3 103/107/3 47/49/3
f 43/43/3 105/109/3 106/110/3 41/41/3
f 42/42/1 107/111/1 108/112/1 44/44/1
f 102/106/5 106/110/5 105/109/5 101/105/5
f 103/107/5 107/111/5 106/110/5 102/106/5
f 104/108/5 108/112/5 107/111/5 103/107/5
f 101/105/5 105/109/5 108/112/5 104/108/5
f 44/44/6 108/112/6 105/109/6 43/43/6
f 41/41/2 106/110/2 107/111/2 42/42/2
f 45/45/2 101/105/2 104/108/2 48/51/2
f 47/49/6 103/107/6 102/106/6 46/47/6
f 110/114/5 109/113/5 112/116/5 111/115/5
f 46/48/20 110/114/20 111/115/20 47/50/20
f 47/50/21 111/115/21 112/116/21 48/52/21
f 45/46/22 109/113/22 110/114/22 46/48/22
