# Blender 3.4.1
# www.blender.org
mtllib door004.mtl
o door.003
v -3.182050 -4.548382 0.000000
v 1.120199 -4.548382 0.000000
v -3.182050 5.451618 0.000000
v 1.120199 5.451618 0.000000
v -2.950972 5.220542 0.000000
v -2.950972 -4.317305 0.000000
v 0.889122 -4.317305 0.000000
v 0.889122 5.220542 0.000000
v -2.950972 5.220542 0.065401
v -2.950972 -4.317305 0.065401
v 0.889122 -4.317305 0.065401
v 0.889122 5.220542 0.065401
v -3.182050 5.451618 0.065401
v -3.182050 -4.548382 0.065401
v 1.120199 -4.548382 0.065401
v 1.120199 5.451618 0.065401
v -2.877697 5.153546 0.101134
v -2.877697 -4.250309 0.101133
v 0.815846 -4.250309 0.101133
v 0.815846 5.153546 0.101134
v -1.646515 -4.250309 0.101133
v -0.415336 -4.250309 0.101133
v -0.415336 5.153546 0.101134
v -1.646515 5.153546 0.101134
v 0.591167 0.163748 0.254827
v 0.438186 0.163748 0.254826
v 0.438186 -0.623863 0.254826
v 0.591167 -0.623863 0.254827
v 0.591167 0.163748 0.216252
v 0.438186 0.163748 0.216252
v 0.438186 -0.623863 0.216252
v 0.591167 -0.623863 0.216252
v 0.591167 0.238738 0.216252
v 0.438186 0.238738 0.216252
v 0.438186 -0.681854 0.216252
v 0.591167 -0.681854 0.216252
v 0.591167 0.163748 0.098720
v 0.438186 0.163748 0.098720
v 0.438186 -0.623863 0.098720
v 0.591167 -0.623863 0.098720
v 0.591167 0.238738 0.098720
v 0.438186 0.238738 0.098720
v 0.438186 -0.681854 0.098720
v 0.591167 -0.681854 0.098720
v 0.591167 0.238738 0.218284
v 0.591167 0.202196 0.254827
v 0.591167 0.228035 0.244124
v 0.438186 0.202196 0.254826
v 0.438186 0.238738 0.218284
v 0.438186 0.228035 0.244123
v 0.438186 -0.681854 0.218284
v 0.438186 -0.645311 0.254826
v 0.438186 -0.671151 0.244123
v 0.591167 -0.645311 0.254827
v 0.591167 -0.681854 0.218284
v 0.591167 -0.671151 0.244124
v 0.606121 0.077448 0.275598
v 0.431091 0.077448 0.275598
v 0.431091 -0.537579 0.275598
v 0.606121 -0.537578 0.275598
v 0.606121 0.077448 0.195480
v 0.431091 0.077448 0.195480
v 0.431091 -0.537579 0.195480
v 0.606121 -0.537578 0.195481
v -2.950972 5.220542 -0.065401
v -2.950972 -4.317305 -0.065401
v 0.889122 -4.317305 -0.065401
v 0.889122 5.220542 -0.065401
v -3.182050 5.451618 -0.065401
v -3.182050 -4.548382 -0.065401
v 1.120199 -4.548382 -0.065401
v 1.120199 5.451618 -0.065401
v -2.877697 5.153546 -0.101134
v -2.877697 -4.250309 -0.101133
v 0.815846 -4.250309 -0.101133
v 0.815846 5.153546 -0.101134
v -1.646515 -4.250309 -0.101133
v -0.415336 -4.250309 -0.101133
v -0.415336 5.153546 -0.101134
v -1.646515 5.153546 -0.101134
v 0.591167 0.163748 -0.254827
v 0.438186 0.163748 -0.254826
v 0.438186 -0.623863 -0.254826
v 0.591167 -0.623863 -0.254827
v 0.591167 0.163748 -0.216252
v 0.438186 0.163748 -0.216252
v 0.438186 -0.623863 -0.216252
v 0.591167 -0.623863 -0.216252
v 0.591167 0.238738 -0.216252
v 0.438186 0.238738 -0.216252
v 0.438186 -0.681854 -0.216252
v 0.591167 -0.681854 -0.216252
v 0.591167 0.163748 -0.098720
v 0.438186 0.163748 -0.098720
v 0.438186 -0.623863 -0.098720
v 0.591167 -0.623863 -0.098720
v 0.591167 0.238738 -0.098720
v 0.438186 0.238738 -0.098720
v 0.438186 -0.681854 -0.098720
v 0.591167 -0.681854 -0.098720
v 0.591167 0.238738 -0.218284
v 0.591167 0.202196 -0.254827
v 0.591167 0.228035 -0.244124
v 0.438186 0.202196 -0.254826
v 0.438186 0.238738 -0.218284
v 0.438186 0.228035 -0.244123
v 0.438186 -0.681854 -0.218284
v 0.438186 -0.645311 -0.254826
v 0.438186 -0.671151 -0.244123
v 0.591167 -0.645311 -0.254827
v 0.591167 -0.681854 -0.218284
v 0.591167 -0.671151 -0.244124
v 0.606121 0.077448 -0.275598
v 0.431091 0.077448 -0.275598
v 0.431091 -0.537579 -0.275598
v 0.606121 -0.537578 -0.275598
v 0.606121 0.077448 -0.195480
v 0.431091 0.077448 -0.195480
v 0.431091 -0.537579 -0.195480
v 0.606121 -0.537578 -0.195480
vn -0.0000 0.8337 0.5523
vn 1.0000 -0.0000 -0.0000
vn -1.0000 -0.0000 -0.0000
vn -0.0000 -0.0000 1.0000
vn -0.0000 1.0000 -0.0000
vn -0.0000 -1.0000 -0.0000
vn -0.0000 -0.8337 0.5523
vn 0.8098 -0.0000 0.5867
vn -0.8098 -0.0000 0.5867
vn -0.0000 -0.0000 -1.0000
vn -0.0000 0.9239 0.3827
vn -0.0000 0.3827 0.9239
vn -0.0000 -0.9239 0.3827
vn -0.0000 -0.3827 0.9239
vn -0.0000 0.8337 -0.5523
vn -0.0000 -0.8337 -0.5523
vn 0.8098 -0.0000 -0.5867
vn -0.8098 -0.0000 -0.5867
vn -0.0000 0.9239 -0.3827
vn -0.0000 0.3827 -0.9239
vn -0.0000 -0.9239 -0.3827
vn -0.0000 -0.3827 -0.9239
vt 0.794264 0.125248
vt 0.794264 0.125248
vt 0.794264 0.125248
vt 0.794264 0.125248
vt 0.794264 0.125248
vt 0.426832 0.151992
vt 0.794264 0.125248
vt 0.426832 0.151992
vt 0.794264 0.125248
vt 0.426832 0.151992
vt 0.794264 0.125248
vt 0.426832 0.151992
vt 0.794264 0.125248
vt 0.794264 0.125248
vt 0.794264 0.125248
vt 0.794264 0.125248
vt 0.794264 0.125248
vt 0.794264 0.125248
vt 0.794264 0.125248
vt 0.794264 0.125248
vt 0.426832 0.151992
vt 0.426832 0.151992
vt 0.426832 0.151992
vt 0.426832 0.151992
vt 0.426832 0.151992
vt 0.766420 0.127384
vt 0.426832 0.151992
vt 0.766420 0.127384
vt 0.426832 0.151992
vt 0.766420 0.127384
vt 0.426832 0.151992
vt 0.766420 0.127384
vt 0.409252 0.083711
vt 0.409252 0.083711
vt 0.409252 0.083711
vt 0.409252 0.083711
vt 0.409252 0.083711
vt 0.409252 0.083711
vt 0.409252 0.083711
vt 0.409252 0.083711
vt 0.409252 0.083711
vt 0.409252 0.083711
vt 0.409252 0.083711
vt 0.409252 0.083711
vt 0.409252 0.083711
vt 0.409252 0.083711
vt 0.409252 0.083711
vt 0.409252 0.083711
vt 0.409252 0.083711
vt 0.409252 0.083711
vt 0.409252 0.083711
vt 0.409252 0.083711
vt 0.409252 0.083711
vt 0.409252 0.083711
vt 0.409252 0.083711
vt 0.409252 0.083711
vt 0.409252 0.083711
vt 0.409252 0.083711
vt 0.409252 0.083711
vt 0.409252 0.083711
vt 0.409252 0.083711
vt 0.409252 0.083711
vt 0.409252 0.083711
vt 0.409252 0.083711
vt 0.793700 0.099213
vt 0.793700 0.099213
vt 0.793700 0.099213
vt 0.793700 0.099213
vt 0.793700 0.099213
vt 0.793700 0.099213
vt 0.793700 0.099213
vt 0.793700 0.099213
vt 0.794264 0.125248
vt 0.794264 0.125248
vt 0.794264 0.125248
vt 0.794264 0.125248
vt 0.794264 0.125248
vt 0.794264 0.125248
vt 0.794264 0.125248
vt 0.794264 0.125248
vt 0.426832 0.151992
vt 0.426832 0.151992
vt 0.426832 0.151992
vt 0.426832 0.151992
vt 0.426832 0.151992
vt 0.766420 0.127384
vt 0.426832 0.151992
vt 0.766420 0.127384
vt 0.426832 0.151992
vt 0.766420 0.127384
vt 0.426832 0.151992
vt 0.766420 0.127384
vt 0.409252 0.083711
vt 0.409252 0.083711
vt 0.409252 0.083711
vt 0.409252 0.083711
vt 0.409252 0.083711
vt 0.409252 0.083711
vt 0.409252 0.083711
vt 0.409252 0.083711
vt 0.409252 0.083711
vt 0.409252 0.083711
vt 0.409252 0.083711
vt 0.409252 0.083711
vt 0.409252 0.083711
vt 0.409252 0.083711
vt 0.409252 0.083711
vt 0.409252 0.083711
vt 0.409252 0.083711
vt 0.409252 0.083711
vt 0.409252 0.083711
vt 0.409252 0.083711
vt 0.409252 0.083711
vt 0.409252 0.083711
vt 0.409252 0.083711
vt 0.409252 0.083711
vt 0.409252 0.083711
vt 0.409252 0.083711
vt 0.409252 0.083711
vt 0.409252 0.083711
vt 0.409252 0.083711
vt 0.409252 0.083711
vt 0.409252 0.083711
vt 0.409252 0.083711
vt 0.793700 0.099213
vt 0.793700 0.099213
vt 0.793700 0.099213
vt 0.793700 0.099213
vt 0.793700 0.099213
vt 0.793700 0.099213
vt 0.793700 0.099213
vt 0.793700 0.099213
s 1
usemtl Material
f 8/12/1 5/6/1 17/21/1 24/31/1 23/29/1 20/24/1
f 6/7/2 5/5/2 9/13/2 10/14/2
f 8/11/3 7/9/3 11/15/3 12/16/3
f 3/3/3 1/1/3 14/18/3 13/17/3
f 2/2/2 4/4/2 16/20/2 15/19/2
f 10/14/4 9/13/4 13/17/4 14/18/4
f 11/15/4 10/14/4 14/18/4 15/19/4
f 12/16/4 11/15/4 15/19/4 16/20/4
f 9/13/4 12/16/4 16/20/4 13/17/4
f 4/4/5 3/3/5 13/17/5 16/20/5
f 1/1/6 2/2/6 15/19/6 14/18/6
f 5/5/6 8/11/6 12/16/6 9/13/6
f 7/9/5 6/7/5 10/14/5 11/15/5
f 22/27/4 19/23/4 20/24/4 23/29/4
f 6/8/7 7/10/7 19/23/7 22/27/7 21/25/7 18/22/7
f 7/10/8 8/12/8 20/24/8 19/23/8
f 5/6/9 6/8/9 18/22/9 17/21/9
f 18/22/4 21/25/4 24/31/4 17/21/4
f 21/26/4 22/28/4 23/30/4 24/32/4
f 28/36/2 32/40/2 29/37/2 25/33/2
f 29/37/6 30/38/6 38/46/6 37/45/6
f 32/40/2 28/36/2 54/62/2 56/64/2 55/63/2 36/44/2
f 26/34/3 30/38/3 31/39/3 27/35/3
f 25/33/4 26/34/4 27/35/4 28/36/4
f 29/37/10 32/40/10 31/39/10 30/38/10
f 25/33/2 29/37/2 33/41/2 45/53/2 47/55/2 46/54/2
f 45/53/5 33/41/5 34/42/5 49/57/5
f 28/36/4 27/35/4 52/60/4 54/62/4
f 30/38/3 26/34/3 48/56/3 50/58/3 49/57/3 34/42/3
f 27/35/3 31/39/3 35/43/3 51/59/3 53/61/3 52/60/3
f 33/41/2 29/37/2 37/45/2 41/49/2
f 51/59/6 35/43/6 36/44/6 55/63/6
f 37/45/10 38/46/10 42/50/10 41/49/10
f 39/47/10 40/48/10 44/52/10 43/51/10
f 35/43/3 31/39/3 39/47/3 43/51/3
f 34/42/5 33/41/5 41/49/5 42/50/5
f 31/39/5 32/40/5 40/48/5 39/47/5
f 32/40/2 36/44/2 44/52/2 40/48/2
f 30/38/3 34/42/3 42/50/3 38/46/3
f 36/44/6 35/43/6 43/51/6 44/52/6
f 45/53/11 49/57/11 50/58/11 47/55/11
f 47/55/12 50/58/12 48/56/12 46/54/12
f 51/59/13 55/63/13 56/64/13 53/61/13
f 53/61/14 56/64/14 54/62/14 52/60/14
f 26/34/4 25/33/4 46/54/4 48/56/4
f 60/68/2 64/72/2 61/69/2 57/65/2
f 58/66/3 62/70/3 63/71/3 59/67/3
f 57/65/4 58/66/4 59/67/4 60/68/4
f 61/69/10 64/72/10 63/71/10 62/70/10
f 58/66/5 57/65/5 61/69/5 62/70/5
f 60/68/6 59/67/6 63/71/6 64/72/6
f 8/12/15 76/84/15 79/89/15 80/91/15 73/81/15 5/6/15
f 6/7/2 66/74/2 65/73/2 5/5/2
f 8/11/3 68/76/3 67/75/3 7/9/3
f 3/3/3 69/77/3 70/78/3 1/1/3
f 2/2/2 71/79/2 72/80/2 4/4/2
f 66/74/10 70/78/10 69/77/10 65/73/10
f 67/75/10 71/79/10 70/78/10 66/74/10
f 68/76/10 72/80/10 71/79/10 67/75/10
f 65/73/10 69/77/10 72/80/10 68/76/10
f 4/4/5 72/80/5 69/77/5 3/3/5
f 1/1/6 70/78/6 71/79/6 2/2/6
f 5/5/6 65/73/6 68/76/6 8/11/6
f 7/9/5 67/75/5 66/74/5 6/7/5
f 78/87/10 79/89/10 76/84/10 75/83/10
f 6/8/16 74/82/16 77/85/16 78/87/16 75/83/16 7/10/16
f 7/10/17 75/83/17 76/84/17 8/12/17
f 5/6/18 73/81/18 74/82/18 6/8/18
f 74/82/10 73/81/10 80/91/10 77/85/10
f 77/86/10 80/92/10 79/90/10 78/88/10
f 84/96/2 81/93/2 85/97/2 88/100/2
f 85/97/6 93/105/6 94/106/6 86/98/6
f 88/100/2 92/104/2 111/123/2 112/124/2 110/122/2 84/96/2
f 82/94/3 83/95/3 87/99/3 86/98/3
f 81/93/10 84/96/10 83/95/10 82/94/10
f 85/97/4 86/98/4 87/99/4 88/100/4
f 81/93/2 102/114/2 103/115/2 101/113/2 89/101/2 85/97/2
f 101/113/5 105/117/5 90/102/5 89/101/5
f 84/96/10 110/122/10 108/120/10 83/95/10
f 86/98/3 90/102/3 105/117/3 106/118/3 104/116/3 82/94/3
f 83/95/3 108/120/3 109/121/3 107/119/3 91/103/3 87/99/3
f 89/101/2 97/109/2 93/105/2 85/97/2
f 107/119/6 111/123/6 92/104/6 91/103/6
f 93/105/4 97/109/4 98/110/4 94/106/4
f 95/107/4 99/111/4 100/112/4 96/108/4
f 91/103/3 99/111/3 95/107/3 87/99/3
f 90/102/5 98/110/5 97/109/5 89/101/5
f 87/99/5 95/107/5 96/108/5 88/100/5
f 88/100/2 96/108/2 100/112/2 92/104/2
f 86/98/3 94/106/3 98/110/3 90/102/3
f 92/104/6 100/112/6 99/111/6 91/103/6
f 101/113/19 103/115/19 106/118/19 105/117/19
f 103/115/20 102/114/20 104/116/20 106/118/20
f 107/119/21 109/121/21 112/124/21 111/123/21
f 109/121/22 108/120/22 110/122/22 112/124/22
f 82/94/10 104/116/10 102/114/10 81/93/10
f 116/128/2 113/125/2 117/129/2 120/132/2
f 114/126/3 115/127/3 119/131/3 118/130/3
f 113/125/10 116/128/10 115/127/10 114/126/10
f 117/129/4 118/130/4 119/131/4 120/132/4
f 114/126/5 118/130/5 117/129/5 113/125/5
f 116/128/6 120/132/6 119/131/6 115/127/6
