# Blender 3.4.1
# www.blender.org
mtllib door005.mtl
o door.004
v 0.591168 0.163748 0.254827
v 0.438186 0.163748 0.254826
v 0.438186 -0.623863 0.254826
v 0.591168 -0.623863 0.254827
v 0.591168 0.163748 0.216252
v 0.438186 0.163748 0.216252
v 0.438186 -0.623863 0.216252
v 0.591168 -0.623863 0.216252
v 0.591168 0.238738 0.216252
v 0.438186 0.238738 0.216252
v 0.438186 -0.681854 0.216252
v 0.591168 -0.681854 0.216252
v 0.591168 0.163748 0.098720
v 0.438186 0.163748 0.098720
v 0.438186 -0.623863 0.098720
v 0.591168 -0.623863 0.098720
v 0.591168 0.238738 0.098720
v 0.438186 0.238738 0.098720
v 0.438186 -0.681854 0.098720
v 0.591168 -0.681854 0.098720
v 0.591168 0.238738 0.218284
v 0.591168 0.202196 0.254827
v 0.591168 0.228035 0.244124
v 0.438186 0.202196 0.254826
v 0.438186 0.238738 0.218284
v 0.438186 0.228035 0.244123
v 0.438186 -0.681854 0.218284
v 0.438186 -0.645311 0.254826
v 0.438186 -0.671150 0.244123
v 0.591168 -0.645311 0.254827
v 0.591168 -0.681854 0.218284
v 0.591168 -0.671150 0.244124
v 0.606121 0.077448 0.275598
v 0.431091 0.077448 0.275598
v 0.431091 -0.537579 0.275598
v 0.606121 -0.537579 0.275598
v 0.606121 0.077448 0.195481
v 0.431091 0.077448 0.195480
v 0.431091 -0.537579 0.195480
v 0.606121 -0.537579 0.195481
v -3.182052 -4.548382 0.000000
v 1.120199 -4.548382 0.000000
v -3.182052 5.451618 0.000000
v 1.120199 5.451618 0.000000
v -2.950974 5.220542 0.000000
v -2.950974 -4.317306 0.000000
v 0.889122 -4.317305 0.000000
v 0.889122 5.220542 0.000000
v -2.950974 5.220542 0.065401
v -2.950974 -4.317306 0.065401
v 0.889122 -4.317305 0.065401
v 0.889122 5.220542 0.065401
v -3.182052 5.451618 0.065401
v -3.182052 -4.548382 0.065401
v 1.120199 -4.548382 0.065401
v 1.120199 5.451618 0.065401
v -2.877696 5.153546 0.101134
v -2.877696 -4.250310 0.101133
v 0.815844 -4.250310 0.101133
v 0.815844 5.153546 0.101134
v -1.646517 -4.250310 0.101133
v -0.415335 -4.250310 0.101133
v -0.415335 5.153546 0.101134
v -1.646517 5.153546 0.101134
v 0.591168 0.163748 -0.254827
v 0.438186 0.163748 -0.254826
v 0.438186 -0.623863 -0.254826
v 0.591168 -0.623863 -0.254827
v 0.591168 0.163748 -0.216252
v 0.438186 0.163748 -0.216252
v 0.438186 -0.623863 -0.216252
v 0.591168 -0.623863 -0.216252
v 0.591168 0.238738 -0.216252
v 0.438186 0.238738 -0.216252
v 0.438186 -0.681854 -0.216252
v 0.591168 -0.681854 -0.216252
v 0.591168 0.163748 -0.098720
v 0.438186 0.163748 -0.098720
v 0.438186 -0.623863 -0.098720
v 0.591168 -0.623863 -0.098720
v 0.591168 0.238738 -0.098720
v 0.438186 0.238738 -0.098720
v 0.438186 -0.681854 -0.098720
v 0.591168 -0.681854 -0.098720
v 0.591168 0.238738 -0.218284
v 0.591168 0.202196 -0.254827
v 0.591168 0.228035 -0.244124
v 0.438186 0.202196 -0.254826
v 0.438186 0.238738 -0.218284
v 0.438186 0.228035 -0.244123
v 0.438186 -0.681854 -0.218284
v 0.438186 -0.645311 -0.254826
v 0.438186 -0.671150 -0.244123
v 0.591168 -0.645311 -0.254827
v 0.591168 -0.681854 -0.218284
v 0.591168 -0.671150 -0.244124
v 0.606121 0.077448 -0.275598
v 0.431091 0.077448 -0.275598
v 0.431091 -0.537579 -0.275598
v 0.606121 -0.537579 -0.275598
v 0.606121 0.077448 -0.195481
v 0.431091 0.077448 -0.195480
v 0.431091 -0.537579 -0.195480
v 0.606121 -0.537579 -0.195481
v -2.950974 5.220542 -0.065401
v -2.950974 -4.317306 -0.065401
v 0.889122 -4.317305 -0.065401
v 0.889122 5.220542 -0.065401
v -3.182052 5.451618 -0.065401
v -3.182052 -4.548382 -0.065401
v 1.120199 -4.548382 -0.065401
v 1.120199 5.451618 -0.065401
v -2.877696 5.153546 -0.101134
v -2.877696 -4.250310 -0.101133
v 0.815844 -4.250310 -0.101133
v 0.815844 5.153546 -0.101134
v -1.646517 -4.250310 -0.101133
v -0.415335 -4.250310 -0.101133
v -0.415335 5.153546 -0.101134
v -1.646517 5.153546 -0.101134
vn 1.0000 -0.0000 -0.0000
vn -0.0000 -1.0000 -0.0000
vn -1.0000 -0.0000 -0.0000
vn -0.0000 -0.0000 1.0000
vn -0.0000 -0.0000 -1.0000
vn -0.0000 1.0000 -0.0000
vn -0.0000 0.9239 0.3827
vn -0.0000 0.3827 0.9239
vn -0.0000 -0.9239 0.3827
vn -0.0000 -0.3827 0.9239
vn -0.0000 0.8337 0.5523
vn -0.0000 -0.8337 0.5523
vn 0.8098 -0.0000 0.5867
vn -0.8098 -0.0000 0.5867
vn -0.0000 0.9239 -0.3827
vn -0.0000 0.3827 -0.9239
vn -0.0000 -0.9239 -0.3827
vn -0.0000 -0.3827 -0.9239
vn -0.0000 0.8337 -0.5523
vn -0.0000 -0.8337 -0.5523
vn 0.8098 -0.0000 -0.5867
vn -0.8098 -0.0000 -0.5867
vt 0.409252 0.083711
vt 0.409252 0.083711
vt 0.409252 0.083711
vt 0.409252 0.083711
vt 0.409252 0.083711
vt 0.409252 0.083711
vt 0.409252 0.083711
vt 0.409252 0.083711
vt 0.409252 0.083711
vt 0.409252 0.083711
vt 0.409252 0.083711
vt 0.409252 0.083711
vt 0.409252 0.083711
vt 0.409252 0.083711
vt 0.409252 0.083711
vt 0.409252 0.083711
vt 0.409252 0.083711
vt 0.409252 0.083711
vt 0.409252 0.083711
vt 0.409252 0.083711
vt 0.409252 0.083711
vt 0.409252 0.083711
vt 0.409252 0.083711
vt 0.409252 0.083711
vt 0.409252 0.083711
vt 0.409252 0.083711
vt 0.409252 0.083711
vt 0.409252 0.083711
vt 0.409252 0.083711
vt 0.409252 0.083711
vt 0.409252 0.083711
vt 0.409252 0.083711
vt 0.793700 0.099213
vt 0.793700 0.099213
vt 0.793700 0.099213
vt 0.793700 0.099213
vt 0.793700 0.099213
vt 0.793700 0.099213
vt 0.793700 0.099213
vt 0.793700 0.099213
vt 0.794264 0.125248
vt 0.794264 0.125248
vt 0.794264 0.125248
vt 0.794264 0.125248
vt 0.794264 0.125248
vt 0.472356 0.939443
vt 0.794264 0.125248
vt 0.472356 0.939443
vt 0.794264 0.125248
vt 0.472356 0.939443
vt 0.794264 0.125248
vt 0.472356 0.939443
vt 0.794264 0.125248
vt 0.794264 0.125248
vt 0.794264 0.125248
vt 0.794264 0.125248
vt 0.794264 0.125248
vt 0.794264 0.125248
vt 0.794264 0.125248
vt 0.794264 0.125248
vt 0.472356 0.939443
vt 0.768881 0.122463
vt 0.472356 0.939443
vt 0.768881 0.122463
vt 0.768881 0.122463
vt 0.472356 0.939443
vt 0.768881 0.122463
vt 0.472356 0.939443
vt 0.768881 0.122463
vt 0.472356 0.939443
vt 0.768881 0.122463
vt 0.472356 0.939443
vt 0.768881 0.122463
vt 0.472356 0.939443
vt 0.768881 0.122463
vt 0.472356 0.939443
vt 0.409252 0.083711
vt 0.409252 0.083711
vt 0.409252 0.083711
vt 0.409252 0.083711
vt 0.409252 0.083711
vt 0.409252 0.083711
vt 0.409252 0.083711
vt 0.409252 0.083711
vt 0.409252 0.083711
vt 0.409252 0.083711
vt 0.409252 0.083711
vt 0.409252 0.083711
vt 0.409252 0.083711
vt 0.409252 0.083711
vt 0.409252 0.083711
vt 0.409252 0.083711
vt 0.409252 0.083711
vt 0.409252 0.083711
vt 0.409252 0.083711
vt 0.409252 0.083711
vt 0.409252 0.083711
vt 0.409252 0.083711
vt 0.409252 0.083711
vt 0.409252 0.083711
vt 0.409252 0.083711
vt 0.409252 0.083711
vt 0.409252 0.083711
vt 0.409252 0.083711
vt 0.409252 0.083711
vt 0.409252 0.083711
vt 0.409252 0.083711
vt 0.409252 0.083711
vt 0.793700 0.099213
vt 0.793700 0.099213
vt 0.793700 0.099213
vt 0.793700 0.099213
vt 0.793700 0.099213
vt 0.793700 0.099213
vt 0.793700 0.099213
vt 0.793700 0.099213
vt 0.794264 0.125248
vt 0.794264 0.125248
vt 0.794264 0.125248
vt 0.794264 0.125248
vt 0.794264 0.125248
vt 0.794264 0.125248
vt 0.794264 0.125248
vt 0.794264 0.125248
vt 0.472356 0.939443
vt 0.768881 0.122463
vt 0.472356 0.939443
vt 0.768881 0.122463
vt 0.768881 0.122463
vt 0.472356 0.939443
vt 0.768881 0.122463
vt 0.472356 0.939443
vt 0.768881 0.122463
vt 0.472356 0.939443
vt 0.768881 0.122463
vt 0.472356 0.939443
vt 0.768881 0.122463
vt 0.472356 0.939443
vt 0.768881 0.122463
vt 0.472356 0.939443
s 1
usemtl Material
f 4/4/1 8/8/1 5/5/1 1/1/1
f 5/5/2 6/6/2 14/14/2 13/13/2
f 8/8/1 4/4/1 30/30/1 32/32/1 31/31/1 12/12/1
f 2/2/3 6/6/3 7/7/3 3/3/3
f 1/1/4 2/2/4 3/3/4 4/4/4
f 5/5/5 8/8/5 7/7/5 6/6/5
f 1/1/1 5/5/1 9/9/1 21/21/1 23/23/1 22/22/1
f 21/21/6 9/9/6 10/10/6 25/25/6
f 4/4/4 3/3/4 28/28/4 30/30/4
f 6/6/3 2/2/3 24/24/3 26/26/3 25/25/3 10/10/3
f 3/3/3 7/7/3 11/11/3 27/27/3 29/29/3 28/28/3
f 9/9/1 5/5/1 13/13/1 17/17/1
f 27/27/2 11/11/2 12/12/2 31/31/2
f 13/13/5 14/14/5 18/18/5 17/17/5
f 15/15/5 16/16/5 20/20/5 19/19/5
f 11/11/3 7/7/3 15/15/3 19/19/3
f 10/10/6 9/9/6 17/17/6 18/18/6
f 7/7/6 8/8/6 16/16/6 15/15/6
f 8/8/1 12/12/1 20/20/1 16/16/1
f 6/6/3 10/10/3 18/18/3 14/14/3
f 12/12/2 11/11/2 19/19/2 20/20/2
f 21/21/7 25/25/7 26/26/7 23/23/7
f 23/23/8 26/26/8 24/24/8 22/22/8
f 27/27/9 31/31/9 32/32/9 29/29/9
f 29/29/10 32/32/10 30/30/10 28/28/10
f 2/2/4 1/1/4 22/22/4 24/24/4
f 36/36/1 40/40/1 37/37/1 33/33/1
f 34/34/3 38/38/3 39/39/3 35/35/3
f 33/33/4 34/34/4 35/35/4 36/36/4
f 37/37/5 40/40/5 39/39/5 38/38/5
f 34/34/6 33/33/6 37/37/6 38/38/6
f 36/36/2 35/35/2 39/39/2 40/40/2
f 48/52/11 45/46/11 57/61/11 64/76/11 63/74/11 60/68/11
f 46/47/1 45/45/1 49/53/1 50/54/1
f 48/51/3 47/49/3 51/55/3 52/56/3
f 43/43/3 41/41/3 54/58/3 53/57/3
f 42/42/1 44/44/1 56/60/1 55/59/1
f 50/54/4 49/53/4 53/57/4 54/58/4
f 51/55/4 50/54/4 54/58/4 55/59/4
f 52/56/4 51/55/4 55/59/4 56/60/4
f 49/53/4 52/56/4 56/60/4 53/57/4
f 44/44/6 43/43/6 53/57/6 56/60/6
f 41/41/2 42/42/2 55/59/2 54/58/2
f 45/45/2 48/51/2 52/56/2 49/53/2
f 47/49/6 46/47/6 50/54/6 51/55/6
f 62/71/4 59/65/4 60/67/4 63/73/4
f 46/48/12 47/50/12 59/66/12 62/72/12 61/70/12 58/63/12
f 47/50/13 48/52/13 60/68/13 59/66/13
f 45/46/14 46/48/14 58/63/14 57/61/14
f 58/64/4 61/69/4 64/75/4 57/62/4
f 61/70/4 62/72/4 63/74/4 64/76/4
f 68/80/1 65/77/1 69/81/1 72/84/1
f 69/81/2 77/89/2 78/90/2 70/82/2
f 72/84/1 76/88/1 95/107/1 96/108/1 94/106/1 68/80/1
f 66/78/3 67/79/3 71/83/3 70/82/3
f 65/77/5 68/80/5 67/79/5 66/78/5
f 69/81/4 70/82/4 71/83/4 72/84/4
f 65/77/1 86/98/1 87/99/1 85/97/1 73/85/1 69/81/1
f 85/97/6 89/101/6 74/86/6 73/85/6
f 68/80/5 94/106/5 92/104/5 67/79/5
f 70/82/3 74/86/3 89/101/3 90/102/3 88/100/3 66/78/3
f 67/79/3 92/104/3 93/105/3 91/103/3 75/87/3 71/83/3
f 73/85/1 81/93/1 77/89/1 69/81/1
f 91/103/2 95/107/2 76/88/2 75/87/2
f 77/89/4 81/93/4 82/94/4 78/90/4
f 79/91/4 83/95/4 84/96/4 80/92/4
f 75/87/3 83/95/3 79/91/3 71/83/3
f 74/86/6 82/94/6 81/93/6 73/85/6
f 71/83/6 79/91/6 80/92/6 72/84/6
f 72/84/1 80/92/1 84/96/1 76/88/1
f 70/82/3 78/90/3 82/94/3 74/86/3
f 76/88/2 84/96/2 83/95/2 75/87/2
f 85/97/15 87/99/15 90/102/15 89/101/15
f 87/99/16 86/98/16 88/100/16 90/102/16
f 91/103/17 93/105/17 96/108/17 95/107/17
f 93/105/18 92/104/18 94/106/18 96/108/18
f 66/78/5 88/100/5 86/98/5 65/77/5
f 100/112/1 97/109/1 101/113/1 104/116/1
f 98/110/3 99/111/3 103/115/3 102/114/3
f 97/109/5 100/112/5 99/111/5 98/110/5
f 101/113/4 102/114/4 103/115/4 104/116/4
f 98/110/6 102/114/6 101/113/6 97/109/6
f 100/112/2 104/116/2 103/115/2 99/111/2
f 48/52/19 116/132/19 119/138/19 120/140/19 113/125/19 45/46/19
f 46/47/1 106/118/1 105/117/1 45/45/1
f 48/51/3 108/120/3 107/119/3 47/49/3
f 43/43/3 109/121/3 110/122/3 41/41/3
f 42/42/1 111/123/1 112/124/1 44/44/1
f 106/118/5 110/122/5 109/121/5 105/117/5
f 107/119/5 111/123/5 110/122/5 106/118/5
f 108/120/5 112/124/5 111/123/5 107/119/5
f 105/117/5 109/121/5 112/124/5 108/120/5
f 44/44/6 112/124/6 109/121/6 43/43/6
f 41/41/2 110/122/2 111/123/2 42/42/2
f 45/45/2 105/117/2 108/120/2 48/51/2
f 47/49/6 107/119/6 106/118/6 46/47/6
f 118/135/5 119/137/5 116/131/5 115/129/5
f 46/48/20 114/127/20 117/134/20 118/136/20 115/130/20 47/50/20
f 47/50/21 115/130/21 116/132/21 48/52/21
f 45/46/22 113/125/22 114/127/22 46/48/22
f 114/128/5 113/126/5 120/139/5 117/133/5
f 117/134/5 120/140/5 119/138/5 118/136/5
