# Blender 3.4.1
# www.blender.org
mtllib door016.mtl
o door.015
v 1.093406 -0.980582 0.277522
v 0.940427 -0.980582 0.277522
v 0.940427 -1.768192 0.277522
v 1.093406 -1.768192 0.277522
v 1.093406 -0.980582 0.238947
v 0.940427 -0.980582 0.238947
v 0.940427 -1.768192 0.238947
v 1.093406 -1.768192 0.238947
v 1.093406 -0.905592 0.238947
v 0.940427 -0.905592 0.238947
v 0.940427 -1.826183 0.238947
v 1.093406 -1.826183 0.238947
v 1.093406 -0.980582 0.121416
v 0.940427 -0.980582 0.121416
v 0.940427 -1.768192 0.121416
v 1.093406 -1.768192 0.121416
v 1.093406 -0.905592 0.121416
v 0.940427 -0.905592 0.121416
v 0.940427 -1.826183 0.121416
v 1.093406 -1.826183 0.121416
v 1.093406 -0.905592 0.240979
v 1.093406 -0.942134 0.277522
v 1.093406 -0.916295 0.266819
v 0.940427 -0.942134 0.277522
v 0.940427 -0.905592 0.240979
v 0.940427 -0.916295 0.266819
v 0.940427 -1.826183 0.240979
v 0.940427 -1.789641 0.277522
v 0.940427 -1.815480 0.266819
v 1.093406 -1.789641 0.277522
v 1.093406 -1.826183 0.240979
v 1.093406 -1.815480 0.266819
v 1.108365 -1.066882 0.298294
v 0.933332 -1.066882 0.298293
v 0.933332 -1.681908 0.298293
v 1.108365 -1.681908 0.298294
v 1.108365 -1.066882 0.218176
v 0.933332 -1.066882 0.218176
v 0.933332 -1.681908 0.218176
v 1.108365 -1.681908 0.218176
v -2.679811 -5.692712 0.022695
v 1.622438 -5.692712 0.022695
v -2.679811 4.307289 0.022696
v 1.622438 4.307289 0.022696
v -2.448731 4.076213 0.022696
v -2.448735 -5.461636 0.022695
v 1.391363 -5.461635 0.022695
v 1.391363 4.076213 0.022696
v -2.448731 4.076213 0.088097
v -2.448735 -5.461636 0.088096
v 1.391363 -5.461635 0.088096
v 1.391363 4.076213 0.088097
v -2.679811 4.307289 0.088097
v -2.679811 -5.692712 0.088096
v 1.622438 -5.692712 0.088096
v 1.622438 4.307289 0.088097
v -2.346525 4.009216 0.123829
v -2.375455 -5.394640 0.123829
v 1.318083 -5.394639 0.123829
v 1.292982 4.009216 0.123829
v -2.346525 -0.692711 0.123829
v 1.292982 -0.692711 0.123829
v -0.531860 4.009216 0.123829
v -0.531860 -0.692711 0.123829
v -0.166107 -0.345695 0.123829
v 0.955376 -0.345695 0.123829
v 0.955376 3.662200 0.123829
v -0.166107 3.662200 0.123829
v -2.010379 -0.345695 0.123829
v -0.893760 -0.345695 0.123829
v -0.893760 3.662200 0.123829
v -2.010379 3.662200 0.123829
v 0.971069 -0.345695 0.015910
v -0.181670 -0.345695 0.015910
v -0.181670 3.662200 0.015910
v 0.971069 3.662200 0.015910
v -0.875702 -0.345695 0.015910
v -2.028442 -0.345695 0.015910
v -2.028442 3.662200 0.015910
v -0.875702 3.662200 0.015910
v -0.503712 -0.692711 0.195587
v 1.292982 -0.692711 0.195587
v 0.955376 -0.345695 0.195587
v -0.166107 -0.345695 0.195587
v 1.292982 -0.692711 0.195587
v 1.292982 4.009216 0.195587
v 0.955376 3.662200 0.195587
v 0.955376 -0.345695 0.195587
v 1.292982 4.009216 0.195587
v -0.503712 4.009216 0.195587
v -0.166107 3.662200 0.195587
v 0.955376 3.662200 0.195587
v -0.503712 4.009216 0.195587
v -0.503712 -0.692711 0.195587
v -0.166107 -0.345695 0.195587
v -0.166107 3.662200 0.195587
v -2.346525 -0.692711 0.188876
v -0.557618 -0.692711 0.188876
v -0.893760 -0.345695 0.188876
v -2.010379 -0.345695 0.188876
v -0.557618 -0.692711 0.188876
v -0.557618 4.009216 0.188876
v -0.893760 3.662200 0.188876
v -0.893760 -0.345695 0.188876
v -0.557618 4.009216 0.188876
v -2.346525 4.009216 0.188876
v -2.010379 3.662200 0.188876
v -0.893760 3.662200 0.188876
v -2.346525 4.009216 0.188876
v -2.346525 -0.692711 0.188876
v -2.010379 -0.345695 0.188876
v -2.010379 3.662200 0.188876
v -2.310105 -0.730391 0.165509
v -2.338453 -5.338120 0.165509
v 1.281090 -5.338120 0.165509
v 1.256490 -0.730391 0.165509
v -0.531793 -0.730391 0.165509
v 1.093406 -0.980582 -0.277522
v 0.940427 -0.980582 -0.277522
v 0.940427 -1.768192 -0.277522
v 1.093406 -1.768192 -0.277522
v 1.093406 -0.980582 -0.238947
v 0.940427 -0.980582 -0.238947
v 0.940427 -1.768192 -0.238947
v 1.093406 -1.768192 -0.238947
v 1.093406 -0.905592 -0.238947
v 0.940427 -0.905592 -0.238947
v 0.940427 -1.826183 -0.238947
v 1.093406 -1.826183 -0.238947
v 1.093406 -0.980582 -0.121416
v 0.940427 -0.980582 -0.121416
v 0.940427 -1.768192 -0.121416
v 1.093406 -1.768192 -0.121416
v 1.093406 -0.905592 -0.121416
v 0.940427 -0.905592 -0.121416
v 0.940427 -1.826183 -0.121416
v 1.093406 -1.826183 -0.121416
v 1.093406 -0.905592 -0.240979
v 1.093406 -0.942134 -0.277522
v 1.093406 -0.916295 -0.266819
v 0.940427 -0.942134 -0.277522
v 0.940427 -0.905592 -0.240979
v 0.940427 -0.916295 -0.266819
v 0.940427 -1.826183 -0.240979
v 0.940427 -1.789641 -0.277522
v 0.940427 -1.815480 -0.266819
v 1.093406 -1.789641 -0.277522
v 1.093406 -1.826183 -0.240979
v 1.093406 -1.815480 -0.266819
v 1.108365 -1.066882 -0.298294
v 0.933332 -1.066882 -0.298293
v 0.933332 -1.681908 -0.298293
v 1.108365 -1.681908 -0.298294
v 1.108365 -1.066882 -0.218176
v 0.933332 -1.066882 -0.218176
v 0.933332 -1.681908 -0.218176
v 1.108365 -1.681908 -0.218176
v -2.679811 -5.692712 -0.022695
v 1.622438 -5.692712 -0.022695
v -2.679811 4.307289 -0.022696
v 1.622438 4.307289 -0.022696
v -2.448731 4.076213 -0.022696
v -2.448735 -5.461636 -0.022695
v 1.391363 -5.461635 -0.022695
v 1.391363 4.076213 -0.022696
v -2.448731 4.076213 -0.088097
v -2.448735 -5.461636 -0.088096
v 1.391363 -5.461635 -0.088096
v 1.391363 4.076213 -0.088097
v -2.679811 4.307289 -0.088097
v -2.679811 -5.692712 -0.088096
v 1.622438 -5.692712 -0.088096
v 1.622438 4.307289 -0.088097
v -2.346525 4.009216 -0.123829
v -2.375455 -5.394640 -0.123829
v 1.318083 -5.394639 -0.123829
v 1.292982 4.009216 -0.123829
v -2.346525 -0.692711 -0.123829
v 1.292982 -0.692711 -0.123829
v -0.531860 4.009216 -0.123829
v -0.531860 -0.692711 -0.123829
v -0.166107 -0.345695 -0.123829
v 0.955376 -0.345695 -0.123829
v 0.955376 3.662200 -0.123829
v -0.166107 3.662200 -0.123829
v -2.010379 -0.345695 -0.123829
v -0.893760 -0.345695 -0.123829
v -0.893760 3.662200 -0.123829
v -2.010379 3.662200 -0.123829
v 0.971069 -0.345695 -0.015910
v -0.181670 -0.345695 -0.015910
v -0.181670 3.662200 -0.015910
v 0.971069 3.662200 -0.015910
v -0.875702 -0.345695 -0.015910
v -2.028442 -0.345695 -0.015910
v -2.028442 3.662200 -0.015910
v -0.875702 3.662200 -0.015910
v -0.503712 -0.692711 -0.195587
v 1.292982 -0.692711 -0.195587
v 0.955376 -0.345695 -0.195587
v -0.166107 -0.345695 -0.195587
v 1.292982 -0.692711 -0.195587
v 1.292982 4.009216 -0.195587
v 0.955376 3.662200 -0.195587
v 0.955376 -0.345695 -0.195587
v 1.292982 4.009216 -0.195587
v -0.503712 4.009216 -0.195587
v -0.166107 3.662200 -0.195587
v 0.955376 3.662200 -0.195587
v -0.503712 4.009216 -0.195587
v -0.503712 -0.692711 -0.195587
v -0.166107 -0.345695 -0.195587
v -0.166107 3.662200 -0.195587
v -2.346525 -0.692711 -0.188876
v -0.557618 -0.692711 -0.188876
v -0.893760 -0.345695 -0.188876
v -2.010379 -0.345695 -0.188876
v -0.557618 -0.692711 -0.188876
v -0.557618 4.009216 -0.188876
v -0.893760 3.662200 -0.188876
v -0.893760 -0.345695 -0.188876
v -0.557618 4.009216 -0.188876
v -2.346525 4.009216 -0.188876
v -2.010379 3.662200 -0.188876
v -0.893760 3.662200 -0.188876
v -2.346525 4.009216 -0.188876
v -2.346525 -0.692711 -0.188876
v -2.010379 -0.345695 -0.188876
v -2.010379 3.662200 -0.188876
v -2.310105 -0.730391 -0.165509
v -2.338453 -5.338120 -0.165509
v 1.281090 -5.338120 -0.165509
v 1.256490 -0.730391 -0.165509
v -0.531793 -0.730391 -0.165509
vn 1.0000 -0.0000 -0.0000
vn -0.0000 -1.0000 -0.0000
vn -1.0000 -0.0000 -0.0000
vn -0.0000 -0.0000 1.0000
vn -0.0000 -0.0000 -1.0000
vn -0.0000 1.0000 -0.0000
vn -0.0000 0.9239 0.3827
vn -0.0000 0.3827 0.9239
vn -0.0000 -0.9239 0.3827
vn -0.0000 -0.3827 0.9239
vn -0.0000 0.8337 0.5523
vn -0.9966 -0.0000 -0.0828
vn -0.9863 -0.0000 -0.1650
vn -0.0000 -0.8337 0.5523
vn 0.7395 0.0010 0.6732
vn 0.7421 0.0017 0.6702
vn 0.7425 0.0018 0.6698
vn -0.7291 0.0011 0.6844
vn -0.7352 0.0021 0.6779
vn -0.7344 0.0019 0.6787
vn -0.0000 0.7418 0.6706
vn 0.9974 -0.0000 -0.0716
vn 0.9898 -0.0000 -0.1427
vn 0.6983 0.7023 0.1383
vn -0.9974 -0.0000 -0.0721
vn -0.9896 -0.0000 -0.1439
vn 0.9966 -0.0000 -0.0828
vn 0.9863 -0.0000 -0.1651
vn 0.7168 0.6973 -0.0000
vn -0.6958 0.7052 0.1365
vn -0.7168 0.6973 -0.0000
vn -0.7168 -0.6973 -0.0000
vn -0.6958 -0.7052 0.1365
vn 0.7168 -0.6973 -0.0000
vn -0.9309 -0.0000 0.3652
vn 0.6958 -0.7052 -0.1365
vn 0.6958 0.7052 -0.1365
vn -0.7183 0.6958 -0.0000
vn 0.9298 -0.0000 0.3682
vn -0.6983 0.7023 -0.1383
vn -0.6983 -0.7023 -0.1383
vn -0.7183 -0.6958 -0.0000
vn 0.6983 -0.7023 0.1383
vn 0.7183 -0.6958 -0.0000
vn 0.7183 0.6958 -0.0000
vn -0.7509 0.0046 0.6604
vn 0.7506 0.0040 0.6608
vn -0.0000 -0.5935 0.8048
vn -0.0000 0.9239 -0.3827
vn -0.0000 0.3827 -0.9239
vn -0.0000 -0.9239 -0.3827
vn -0.0000 -0.3827 -0.9239
vn -0.0000 0.8337 -0.5523
vn -0.9966 -0.0000 0.0828
vn -0.9863 -0.0000 0.1650
vn -0.0000 -0.8337 -0.5523
vn 0.7395 0.0010 -0.6732
vn 0.7425 0.0018 -0.6698
vn 0.7421 0.0017 -0.6702
vn -0.7291 0.0011 -0.6844
vn -0.7344 0.0019 -0.6787
vn -0.7352 0.0021 -0.6779
vn -0.0000 0.7418 -0.6706
vn 0.9974 -0.0000 0.0716
vn 0.9898 -0.0000 0.1427
vn 0.6983 0.7023 -0.1383
vn -0.9974 -0.0000 0.0721
vn -0.9896 -0.0000 0.1439
vn 0.9966 -0.0000 0.0828
vn 0.9863 -0.0000 0.1651
vn -0.6958 0.7052 -0.1365
vn -0.6958 -0.7052 -0.1365
vn -0.9309 -0.0000 -0.3652
vn 0.6958 -0.7052 0.1365
vn 0.6958 0.7052 0.1365
vn 0.9298 -0.0000 -0.3682
vn -0.6983 0.7023 0.1383
vn -0.6983 -0.7023 0.1383
vn 0.6983 -0.7023 -0.1383
vn -0.7509 0.0046 -0.6604
vn 0.7506 0.0040 -0.6608
vn -0.0000 -0.5935 -0.8048
vt 0.409252 0.083711
vt 0.409252 0.083711
vt 0.409252 0.083711
vt 0.409252 0.083711
vt 0.409252 0.083711
vt 0.409252 0.083711
vt 0.409252 0.083711
vt 0.409252 0.083711
vt 0.409252 0.083711
vt 0.409252 0.083711
vt 0.409252 0.083711
vt 0.409252 0.083711
vt 0.409252 0.083711
vt 0.409252 0.083711
vt 0.409252 0.083711
vt 0.409252 0.083711
vt 0.409252 0.083711
vt 0.409252 0.083711
vt 0.409252 0.083711
vt 0.409252 0.083711
vt 0.409252 0.083711
vt 0.409252 0.083711
vt 0.409252 0.083711
vt 0.409252 0.083711
vt 0.409252 0.083711
vt 0.409252 0.083711
vt 0.409252 0.083711
vt 0.409252 0.083711
vt 0.409252 0.083711
vt 0.409252 0.083711
vt 0.409252 0.083711
vt 0.409252 0.083711
vt 0.793700 0.099213
vt 0.793700 0.099213
vt 0.793700 0.099213
vt 0.793700 0.099213
vt 0.793700 0.099213
vt 0.793700 0.099213
vt 0.793700 0.099213
vt 0.793700 0.099213
vt 0.794264 0.125248
vt 0.794264 0.125248
vt 0.794264 0.125248
vt 0.794264 0.125248
vt 0.794264 0.125248
vt 0.426832 0.151992
vt 0.794264 0.125248
vt 0.426832 0.151992
vt 0.794264 0.125248
vt 0.426832 0.151992
vt 0.794264 0.125248
vt 0.426832 0.151992
vt 0.794264 0.125248
vt 0.794264 0.125248
vt 0.794264 0.125248
vt 0.794264 0.125248
vt 0.794264 0.125248
vt 0.794264 0.125248
vt 0.794264 0.125248
vt 0.794264 0.125248
vt 0.426832 0.151992
vt 0.426832 0.151992
vt 0.426832 0.151992
vt 0.426832 0.151992
vt 0.426832 0.151992
vt 0.426832 0.151992
vt 0.426832 0.151992
vt 0.426832 0.151992
vt 0.426832 0.151992
vt 0.426832 0.151992
vt 0.426832 0.151992
vt 0.426832 0.151992
vt 0.426832 0.151992
vt 0.426832 0.151992
vt 0.426832 0.151992
vt 0.426832 0.151992
vt 0.470237 0.533340
vt 0.426832 0.151992
vt 0.470237 0.533340
vt 0.426832 0.151992
vt 0.470237 0.533340
vt 0.426832 0.151992
vt 0.470237 0.533340
vt 0.426832 0.151992
vt 0.470237 0.533340
vt 0.426832 0.151992
vt 0.470237 0.533340
vt 0.426832 0.151992
vt 0.470237 0.533340
vt 0.426832 0.151992
vt 0.470237 0.533340
vt 0.426832 0.151992
vt 0.426832 0.151992
vt 0.426832 0.151992
vt 0.426832 0.151992
vt 0.426832 0.151992
vt 0.426832 0.151992
vt 0.426832 0.151992
vt 0.426832 0.151992
vt 0.426832 0.151992
vt 0.426832 0.151992
vt 0.426832 0.151992
vt 0.426832 0.151992
vt 0.426832 0.151992
vt 0.426832 0.151992
vt 0.426832 0.151992
vt 0.426832 0.151992
vt 0.426832 0.151992
vt 0.426832 0.151992
vt 0.426832 0.151992
vt 0.426832 0.151992
vt 0.426832 0.151992
vt 0.426832 0.151992
vt 0.426832 0.151992
vt 0.426832 0.151992
vt 0.426832 0.151992
vt 0.426832 0.151992
vt 0.426832 0.151992
vt 0.426832 0.151992
vt 0.426832 0.151992
vt 0.426832 0.151992
vt 0.426832 0.151992
vt 0.426832 0.151992
vt 0.426832 0.151992
vt 0.426832 0.151992
vt 0.426832 0.151992
vt 0.426832 0.151992
vt 0.426832 0.151992
vt 0.426832 0.151992
vt 0.409252 0.083711
vt 0.409252 0.083711
vt 0.409252 0.083711
vt 0.409252 0.083711
vt 0.409252 0.083711
vt 0.409252 0.083711
vt 0.409252 0.083711
vt 0.409252 0.083711
vt 0.409252 0.083711
vt 0.409252 0.083711
vt 0.409252 0.083711
vt 0.409252 0.083711
vt 0.409252 0.083711
vt 0.409252 0.083711
vt 0.409252 0.083711
vt 0.409252 0.083711
vt 0.409252 0.083711
vt 0.409252 0.083711
vt 0.409252 0.083711
vt 0.409252 0.083711
vt 0.409252 0.083711
vt 0.409252 0.083711
vt 0.409252 0.083711
vt 0.409252 0.083711
vt 0.409252 0.083711
vt 0.409252 0.083711
vt 0.409252 0.083711
vt 0.409252 0.083711
vt 0.409252 0.083711
vt 0.409252 0.083711
vt 0.409252 0.083711
vt 0.409252 0.083711
vt 0.793700 0.099213
vt 0.793700 0.099213
vt 0.793700 0.099213
vt 0.793700 0.099213
vt 0.793700 0.099213
vt 0.793700 0.099213
vt 0.793700 0.099213
vt 0.793700 0.099213
vt 0.794264 0.125248
vt 0.794264 0.125248
vt 0.794264 0.125248
vt 0.794264 0.125248
vt 0.794264 0.125248
vt 0.426832 0.151992
vt 0.794264 0.125248
vt 0.426832 0.151992
vt 0.794264 0.125248
vt 0.426832 0.151992
vt 0.794264 0.125248
vt 0.426832 0.151992
vt 0.794264 0.125248
vt 0.794264 0.125248
vt 0.794264 0.125248
vt 0.794264 0.125248
vt 0.794264 0.125248
vt 0.794264 0.125248
vt 0.794264 0.125248
vt 0.794264 0.125248
vt 0.426832 0.151992
vt 0.426832 0.151992
vt 0.426832 0.151992
vt 0.426832 0.151992
vt 0.426832 0.151992
vt 0.426832 0.151992
vt 0.426832 0.151992
vt 0.426832 0.151992
vt 0.426832 0.151992
vt 0.426832 0.151992
vt 0.426832 0.151992
vt 0.426832 0.151992
vt 0.426832 0.151992
vt 0.426832 0.151992
vt 0.426832 0.151992
vt 0.426832 0.151992
vt 0.470237 0.533340
vt 0.426832 0.151992
vt 0.470237 0.533340
vt 0.426832 0.151992
vt 0.470237 0.533340
vt 0.426832 0.151992
vt 0.470237 0.533340
vt 0.426832 0.151992
vt 0.470237 0.533340
vt 0.426832 0.151992
vt 0.470237 0.533340
vt 0.426832 0.151992
vt 0.470237 0.533340
vt 0.426832 0.151992
vt 0.470237 0.533340
vt 0.426832 0.151992
vt 0.426832 0.151992
vt 0.426832 0.151992
vt 0.426832 0.151992
vt 0.426832 0.151992
vt 0.426832 0.151992
vt 0.426832 0.151992
vt 0.426832 0.151992
vt 0.426832 0.151992
vt 0.426832 0.151992
vt 0.426832 0.151992
vt 0.426832 0.151992
vt 0.426832 0.151992
vt 0.426832 0.151992
vt 0.426832 0.151992
vt 0.426832 0.151992
vt 0.426832 0.151992
vt 0.426832 0.151992
vt 0.426832 0.151992
vt 0.426832 0.151992
vt 0.426832 0.151992
vt 0.426832 0.151992
vt 0.426832 0.151992
vt 0.426832 0.151992
vt 0.426832 0.151992
vt 0.426832 0.151992
vt 0.426832 0.151992
vt 0.426832 0.151992
vt 0.426832 0.151992
vt 0.426832 0.151992
vt 0.426832 0.151992
vt 0.426832 0.151992
vt 0.426832 0.151992
vt 0.426832 0.151992
vt 0.426832 0.151992
vt 0.426832 0.151992
vt 0.426832 0.151992
vt 0.426832 0.151992
s 1
usemtl Material
f 4/4/1 8/8/1 5/5/1 1/1/1
f 5/5/2 6/6/2 14/14/2 13/13/2
f 8/8/1 4/4/1 30/30/1 32/32/1 31/31/1 12/12/1
f 2/2/3 6/6/3 7/7/3 3/3/3
f 1/1/4 2/2/4 3/3/4 4/4/4
f 5/5/5 8/8/5 7/7/5 6/6/5
f 1/1/1 5/5/1 9/9/1 21/21/1 23/23/1 22/22/1
f 21/21/6 9/9/6 10/10/6 25/25/6
f 4/4/4 3/3/4 28/28/4 30/30/4
f 6/6/3 2/2/3 24/24/3 26/26/3 25/25/3 10/10/3
f 3/3/3 7/7/3 11/11/3 27/27/3 29/29/3 28/28/3
f 9/9/1 5/5/1 13/13/1 17/17/1
f 27/27/2 11/11/2 12/12/2 31/31/2
f 13/13/5 14/14/5 18/18/5 17/17/5
f 15/15/5 16/16/5 20/20/5 19/19/5
f 11/11/3 7/7/3 15/15/3 19/19/3
f 10/10/6 9/9/6 17/17/6 18/18/6
f 7/7/6 8/8/6 16/16/6 15/15/6
f 8/8/1 12/12/1 20/20/1 16/16/1
f 6/6/3 10/10/3 18/18/3 14/14/3
f 12/12/2 11/11/2 19/19/2 20/20/2
f 21/21/7 25/25/7 26/26/7 23/23/7
f 23/23/8 26/26/8 24/24/8 22/22/8
f 27/27/9 31/31/9 32/32/9 29/29/9
f 29/29/10 32/32/10 30/30/10 28/28/10
f 2/2/4 1/1/4 22/22/4 24/24/4
f 36/36/1 40/40/1 37/37/1 33/33/1
f 34/34/3 38/38/3 39/39/3 35/35/3
f 33/33/4 34/34/4 35/35/4 36/36/4
f 37/37/5 40/40/5 39/39/5 38/38/5
f 34/34/6 33/33/6 37/37/6 38/38/6
f 36/36/2 35/35/2 39/39/2 40/40/2
f 48/52/11 45/46/11 57/61/11 63/67/11 60/64/11
f 46/47/1 45/45/1 49/53/1 50/54/1
f 48/51/3 47/49/3 51/55/3 52/56/3
f 43/43/3 41/41/3 54/58/3 53/57/3
f 42/42/1 44/44/1 56/60/1 55/59/1
f 50/54/4 49/53/4 53/57/4 54/58/4
f 51/55/4 50/54/4 54/58/4 55/59/4
f 52/56/4 51/55/4 55/59/4 56/60/4
f 49/53/4 52/56/4 56/60/4 53/57/4
f 44/44/6 43/43/6 53/57/6 56/60/6
f 41/41/2 42/42/2 55/59/2 54/58/2
f 45/45/2 48/51/2 52/56/2 49/53/2
f 47/49/6 46/47/6 50/54/6 51/55/6
f 70/74/12 71/75/12 80/92/13 77/86/13
f 46/48/14 47/50/14 59/63/14 58/62/14
f 47/50/15 48/52/15 60/64/15 62/66/16 59/63/17
f 45/46/18 46/48/18 58/62/19 61/65/20 57/61/18
f 64/68/21 61/65/21 113/125/21 117/129/21
f 68/72/22 65/69/22 74/80/23 75/82/23
f 69/73/6 100/112/6 99/111/6 70/74/6
f 70/74/24 99/111/24 98/110/24 64/68/24
f 64/68/2 98/110/2 97/109/2 61/65/2
f 97/109/4 98/110/4 99/111/4 100/112/4
f 74/79/4 73/77/4 76/83/4 75/81/4
f 78/87/4 77/85/4 80/91/4 79/89/4
f 69/73/6 70/74/6 77/86/6 78/88/6
f 66/70/25 67/71/25 76/84/26 73/78/26
f 71/75/2 72/76/2 79/90/2 80/92/2
f 65/69/6 66/70/6 73/78/6 74/80/6
f 72/76/27 69/73/27 78/88/28 79/90/28
f 67/71/2 68/72/2 75/82/2 76/84/2
f 81/93/4 82/94/4 83/95/4 84/96/4
f 62/66/2 82/94/2 81/93/2 64/68/2
f 66/70/29 83/95/29 82/94/29 62/66/29
f 65/69/6 84/96/6 83/95/6 66/70/6
f 64/68/30 81/93/30 84/96/30 65/69/30
f 85/97/4 86/98/4 87/99/4 88/100/4
f 60/64/1 86/98/1 85/97/1 62/66/1
f 67/71/31 87/99/31 86/98/31 60/64/31
f 66/70/25 88/100/3 87/99/3 67/71/25
f 62/66/32 85/97/32 88/100/32 66/70/32
f 89/101/4 90/102/4 91/103/4 92/104/4
f 63/67/6 90/102/6 89/101/6 60/64/6
f 68/72/33 91/103/33 90/102/33 63/67/33
f 67/71/2 92/104/2 91/103/2 68/72/2
f 60/64/34 89/101/34 92/104/34 67/71/34
f 93/105/4 94/106/4 95/107/4 96/108/4
f 64/68/35 94/106/35 93/105/35 63/67/35
f 65/69/36 95/107/36 94/106/36 64/68/36
f 68/72/22 96/108/1 95/107/1 65/69/22
f 63/67/37 93/105/37 96/108/37 68/72/37
f 61/65/38 97/109/38 100/112/38 69/73/38
f 101/113/4 102/114/4 103/115/4 104/116/4
f 63/67/39 102/114/39 101/113/39 64/68/39
f 71/75/40 103/115/40 102/114/40 63/67/40
f 70/74/12 104/116/3 103/115/3 71/75/12
f 64/68/41 101/113/41 104/116/41 70/74/41
f 105/117/4 106/118/4 107/119/4 108/120/4
f 57/61/6 106/118/6 105/117/6 63/67/6
f 72/76/42 107/119/42 106/118/42 57/61/42
f 71/75/2 108/120/2 107/119/2 72/76/2
f 63/67/43 105/117/43 108/120/43 71/75/43
f 109/121/4 110/122/4 111/123/4 112/124/4
f 61/65/3 110/122/3 109/121/3 57/61/3
f 69/73/44 111/123/44 110/122/44 61/65/44
f 72/76/27 112/124/1 111/123/1 69/73/27
f 57/61/45 109/121/45 112/124/45 72/76/45
f 114/126/4 115/127/4 116/128/4 117/129/4 113/125/4
f 61/65/20 58/62/19 114/126/46 113/125/46
f 59/63/17 62/66/16 116/128/47 115/127/47
f 62/66/21 64/68/21 117/129/21 116/128/21
f 58/62/48 59/63/48 115/127/48 114/126/48
f 121/133/1 118/130/1 122/134/1 125/137/1
f 122/134/2 130/142/2 131/143/2 123/135/2
f 125/137/1 129/141/1 148/160/1 149/161/1 147/159/1 121/133/1
f 119/131/3 120/132/3 124/136/3 123/135/3
f 118/130/5 121/133/5 120/132/5 119/131/5
f 122/134/4 123/135/4 124/136/4 125/137/4
f 118/130/1 139/151/1 140/152/1 138/150/1 126/138/1 122/134/1
f 138/150/6 142/154/6 127/139/6 126/138/6
f 121/133/5 147/159/5 145/157/5 120/132/5
f 123/135/3 127/139/3 142/154/3 143/155/3 141/153/3 119/131/3
f 120/132/3 145/157/3 146/158/3 144/156/3 128/140/3 124/136/3
f 126/138/1 134/146/1 130/142/1 122/134/1
f 144/156/2 148/160/2 129/141/2 128/140/2
f 130/142/4 134/146/4 135/147/4 131/143/4
f 132/144/4 136/148/4 137/149/4 133/145/4
f 128/140/3 136/148/3 132/144/3 124/136/3
f 127/139/6 135/147/6 134/146/6 126/138/6
f 124/136/6 132/144/6 133/145/6 125/137/6
f 125/137/1 133/145/1 137/149/1 129/141/1
f 123/135/3 131/143/3 135/147/3 127/139/3
f 129/141/2 137/149/2 136/148/2 128/140/2
f 138/150/49 140/152/49 143/155/49 142/154/49
f 140/152/50 139/151/50 141/153/50 143/155/50
f 144/156/51 146/158/51 149/161/51 148/160/51
f 146/158/52 145/157/52 147/159/52 149/161/52
f 119/131/5 141/153/5 139/151/5 118/130/5
f 153/165/1 150/162/1 154/166/1 157/169/1
f 151/163/3 152/164/3 156/168/3 155/167/3
f 150/162/5 153/165/5 152/164/5 151/163/5
f 154/166/4 155/167/4 156/168/4 157/169/4
f 151/163/6 155/167/6 154/166/6 150/162/6
f 153/165/2 157/169/2 156/168/2 152/164/2
f 165/181/53 177/193/53 180/196/53 174/190/53 162/175/53
f 163/176/1 167/183/1 166/182/1 162/174/1
f 165/180/3 169/185/3 168/184/3 164/178/3
f 160/172/3 170/186/3 171/187/3 158/170/3
f 159/171/1 172/188/1 173/189/1 161/173/1
f 167/183/5 171/187/5 170/186/5 166/182/5
f 168/184/5 172/188/5 171/187/5 167/183/5
f 169/185/5 173/189/5 172/188/5 168/184/5
f 166/182/5 170/186/5 173/189/5 169/185/5
f 161/173/6 173/189/6 170/186/6 160/172/6
f 158/170/2 171/187/2 172/188/2 159/171/2
f 162/174/2 166/182/2 169/185/2 165/180/2
f 164/178/6 168/184/6 167/183/6 163/176/6
f 187/203/54 194/215/55 197/221/55 188/204/54
f 163/177/56 175/191/56 176/192/56 164/179/56
f 164/179/57 176/192/58 179/195/59 177/193/57 165/181/57
f 162/175/60 174/190/60 178/194/61 175/191/62 163/177/60
f 181/197/63 234/258/63 230/254/63 178/194/63
f 185/201/64 192/211/65 191/209/65 182/198/64
f 186/202/6 187/203/6 216/240/6 217/241/6
f 187/203/66 181/197/66 215/239/66 216/240/66
f 181/197/2 178/194/2 214/238/2 215/239/2
f 214/238/5 217/241/5 216/240/5 215/239/5
f 191/208/5 192/210/5 193/212/5 190/206/5
f 195/216/5 196/218/5 197/220/5 194/214/5
f 186/202/6 195/217/6 194/215/6 187/203/6
f 183/199/67 190/207/68 193/213/68 184/200/67
f 188/204/2 197/221/2 196/219/2 189/205/2
f 182/198/6 191/209/6 190/207/6 183/199/6
f 189/205/69 196/219/70 195/217/70 186/202/69
f 184/200/2 193/213/2 192/211/2 185/201/2
f 198/222/5 201/225/5 200/224/5 199/223/5
f 179/195/2 181/197/2 198/222/2 199/223/2
f 183/199/29 179/195/29 199/223/29 200/224/29
f 182/198/6 183/199/6 200/224/6 201/225/6
f 181/197/71 182/198/71 201/225/71 198/222/71
f 202/226/5 205/229/5 204/228/5 203/227/5
f 177/193/1 179/195/1 202/226/1 203/227/1
f 184/200/31 177/193/31 203/227/31 204/228/31
f 183/199/67 184/200/67 204/228/3 205/229/3
f 179/195/32 183/199/32 205/229/32 202/226/32
f 206/230/5 209/233/5 208/232/5 207/231/5
f 180/196/6 177/193/6 206/230/6 207/231/6
f 185/201/72 180/196/72 207/231/72 208/232/72
f 184/200/2 185/201/2 208/232/2 209/233/2
f 177/193/34 184/200/34 209/233/34 206/230/34
f 210/234/5 213/237/5 212/236/5 211/235/5
f 181/197/73 180/196/73 210/234/73 211/235/73
f 182/198/74 181/197/74 211/235/74 212/236/74
f 185/201/64 182/198/64 212/236/1 213/237/1
f 180/196/75 185/201/75 213/237/75 210/234/75
f 178/194/38 186/202/38 217/241/38 214/238/38
f 218/242/5 221/245/5 220/244/5 219/243/5
f 180/196/76 181/197/76 218/242/76 219/243/76
f 188/204/77 180/196/77 219/243/77 220/244/77
f 187/203/54 188/204/54 220/244/3 221/245/3
f 181/197/78 187/203/78 221/245/78 218/242/78
f 222/246/5 225/249/5 224/248/5 223/247/5
f 174/190/6 180/196/6 222/246/6 223/247/6
f 189/205/42 174/190/42 223/247/42 224/248/42
f 188/204/2 189/205/2 224/248/2 225/249/2
f 180/196/79 188/204/79 225/249/79 222/246/79
f 226/250/5 229/253/5 228/252/5 227/251/5
f 178/194/3 174/190/3 226/250/3 227/251/3
f 186/202/44 178/194/44 227/251/44 228/252/44
f 189/205/69 186/202/69 228/252/1 229/253/1
f 174/190/45 189/205/45 229/253/45 226/250/45
f 231/255/5 230/254/5 234/258/5 233/257/5 232/256/5
f 178/194/61 230/254/80 231/255/80 175/191/62
f 176/192/58 232/256/81 233/257/81 179/195/59
f 179/195/63 233/257/63 234/258/63 181/197/63
f 175/191/82 231/255/82 232/256/82 176/192/82
