# Blender 3.4.1
# www.blender.org
mtllib door012.mtl
o door.011
v 0.829397 0.059525 0.255451
v 0.676415 0.059525 0.255451
v 0.676415 -0.728085 0.255451
v 0.829397 -0.728085 0.255451
v 0.829397 0.059525 0.216876
v 0.676415 0.059525 0.216876
v 0.676415 -0.728085 0.216876
v 0.829397 -0.728085 0.216876
v 0.829397 0.134516 0.216876
v 0.676415 0.134516 0.216876
v 0.676415 -0.786076 0.216876
v 0.829397 -0.786076 0.216876
v 0.829397 0.059525 0.099345
v 0.676415 0.059525 0.099345
v 0.676415 -0.728085 0.099345
v 0.829397 -0.728085 0.099345
v 0.829397 0.134516 0.099345
v 0.676415 0.134516 0.099345
v 0.676415 -0.786076 0.099345
v 0.829397 -0.786076 0.099345
v 0.829397 0.134516 0.218909
v 0.829397 0.097973 0.255451
v 0.829397 0.123812 0.244749
v 0.676415 0.097973 0.255451
v 0.676415 0.134516 0.218909
v 0.676415 0.123812 0.244749
v 0.676415 -0.786076 0.218909
v 0.676415 -0.749534 0.255451
v 0.676415 -0.775373 0.244749
v 0.829397 -0.749534 0.255451
v 0.829397 -0.786076 0.218909
v 0.829397 -0.775373 0.244749
v 0.844350 -0.026775 0.276223
v 0.669320 -0.026775 0.276222
v 0.669320 -0.641801 0.276222
v 0.844350 -0.641801 0.276223
v 0.844350 -0.026775 0.196105
v 0.669320 -0.026775 0.196105
v 0.669320 -0.641801 0.196105
v 0.844350 -0.641801 0.196105
v -2.944483 -4.652605 0.000000
v 1.357766 -4.652604 0.000000
v -2.944483 5.347396 0.000000
v 1.357766 5.347396 0.000000
v -2.713407 5.116320 0.000000
v -2.713407 -4.421528 0.000000
v 1.126688 -4.421527 0.000000
v 1.126688 5.116320 0.000000
v -2.713407 5.116320 0.066026
v -2.713407 -4.421528 0.066025
v 1.126688 -4.421527 0.066025
v 1.126688 5.116320 0.066026
v -2.944483 5.347396 0.066026
v -2.944483 -4.652605 0.066025
v 1.357766 -4.652604 0.066025
v 1.357766 5.347396 0.066026
v -2.640130 5.049325 0.101758
v -2.640130 -4.354532 0.101758
v 1.053410 -4.354532 0.101758
v 1.053410 5.049325 0.101758
v -2.640130 4.918078 0.101758
v -2.640130 2.567115 0.101758
v -2.640130 0.216150 0.101758
v 1.053410 -4.223262 0.101758
v 1.053410 -1.872299 0.101758
v 1.053410 0.478666 0.101758
v -2.583244 4.885913 0.142058
v 0.996526 0.583246 0.142058
v 0.996526 5.013117 0.142058
v -2.583244 5.013117 0.142058
v -2.583244 -4.318324 0.142058
v 0.996526 -4.318324 0.142058
v 0.996526 -4.191098 0.142058
v -2.583244 0.111570 0.142058
v -2.583244 0.183986 0.142058
v 0.996526 -4.118682 0.142058
v 0.996526 -1.840134 0.142058
v -2.583244 2.462535 0.142058
v -2.583244 2.534950 0.142058
v 0.996526 -1.767719 0.142058
v 0.996526 0.510830 0.142058
v -2.583244 4.813498 0.142058
v 0.829397 0.059525 -0.255451
v 0.676415 0.059525 -0.255451
v 0.676415 -0.728085 -0.255451
v 0.829397 -0.728085 -0.255451
v 0.829397 0.059525 -0.216876
v 0.676415 0.059525 -0.216876
v 0.676415 -0.728085 -0.216876
v 0.829397 -0.728085 -0.216876
v 0.829397 0.134516 -0.216876
v 0.676415 0.134516 -0.216876
v 0.676415 -0.786076 -0.216876
v 0.829397 -0.786076 -0.216876
v 0.829397 0.059525 -0.099345
v 0.676415 0.059525 -0.099345
v 0.676415 -0.728085 -0.099345
v 0.829397 -0.728085 -0.099345
v 0.829397 0.134516 -0.099345
v 0.676415 0.134516 -0.099345
v 0.676415 -0.786076 -0.099345
v 0.829397 -0.786076 -0.099345
v 0.829397 0.134516 -0.218909
v 0.829397 0.097973 -0.255451
v 0.829397 0.123812 -0.244749
v 0.676415 0.097973 -0.255451
v 0.676415 0.134516 -0.218909
v 0.676415 0.123812 -0.244749
v 0.676415 -0.786076 -0.218909
v 0.676415 -0.749534 -0.255451
v 0.676415 -0.775373 -0.244749
v 0.829397 -0.749534 -0.255451
v 0.829397 -0.786076 -0.218909
v 0.829397 -0.775373 -0.244749
v 0.844350 -0.026775 -0.276223
v 0.669320 -0.026775 -0.276222
v 0.669320 -0.641801 -0.276222
v 0.844350 -0.641801 -0.276223
v 0.844350 -0.026775 -0.196105
v 0.669320 -0.026775 -0.196105
v 0.669320 -0.641801 -0.196105
v 0.844350 -0.641801 -0.196105
v -2.713407 5.116320 -0.066026
v -2.713407 -4.421528 -0.066025
v 1.126688 -4.421527 -0.066025
v 1.126688 5.116320 -0.066026
v -2.944483 5.347396 -0.066026
v -2.944483 -4.652605 -0.066025
v 1.357766 -4.652604 -0.066025
v 1.357766 5.347396 -0.066026
v -2.640130 5.049325 -0.101758
v -2.640130 -4.354532 -0.101758
v 1.053410 -4.354532 -0.101758
v 1.053410 5.049325 -0.101758
v -2.640130 4.918078 -0.101758
v -2.640130 2.567115 -0.101758
v -2.640130 0.216150 -0.101758
v 1.053410 -4.223262 -0.101758
v 1.053410 -1.872299 -0.101758
v 1.053410 0.478666 -0.101758
v -2.583244 4.885913 -0.142058
v 0.996526 0.583246 -0.142058
v 0.996526 5.013117 -0.142058
v -2.583244 5.013117 -0.142058
v -2.583244 -4.318324 -0.142058
v 0.996526 -4.318324 -0.142058
v 0.996526 -4.191098 -0.142058
v -2.583244 0.111570 -0.142058
v -2.583244 0.183986 -0.142058
v 0.996526 -4.118682 -0.142058
v 0.996526 -1.840134 -0.142058
v -2.583244 2.462535 -0.142058
v -2.583244 2.534950 -0.142058
v 0.996526 -1.767719 -0.142058
v 0.996526 0.510830 -0.142058
v -2.583244 4.813498 -0.142058
vn 1.0000 -0.0000 -0.0000
vn -0.0000 -1.0000 -0.0000
vn -1.0000 -0.0000 -0.0000
vn -0.0000 -0.0000 1.0000
vn -0.0000 -0.0000 -1.0000
vn -0.0000 1.0000 -0.0000
vn -0.0000 0.9239 0.3827
vn -0.0000 0.3827 0.9239
vn -0.0000 -0.9239 0.3827
vn -0.0000 -0.3827 0.9239
vn -0.0000 0.8352 0.5499
vn -0.0000 0.8128 0.5825
vn -0.0000 -0.8352 0.5499
vn -0.0000 -0.8128 0.5825
vn 0.8115 -0.0000 0.5844
vn -0.8115 -0.0000 0.5844
vn -0.6665 -0.5545 0.4982
vn 0.5781 -0.0000 0.8160
vn -0.0000 0.7439 0.6683
vn -0.5781 -0.0000 0.8160
vn -0.0000 -0.7439 0.6683
vn 0.6665 0.5545 0.4982
vn -0.0000 0.9239 -0.3827
vn -0.0000 0.3827 -0.9239
vn -0.0000 -0.9239 -0.3827
vn -0.0000 -0.3827 -0.9239
vn -0.0000 0.8352 -0.5499
vn -0.0000 0.8128 -0.5825
vn -0.0000 -0.8352 -0.5499
vn -0.0000 -0.8128 -0.5825
vn 0.8115 -0.0000 -0.5844
vn -0.8115 -0.0000 -0.5844
vn -0.6665 -0.5545 -0.4982
vn 0.5781 -0.0000 -0.8160
vn -0.0000 0.7439 -0.6683
vn -0.5781 -0.0000 -0.8160
vn -0.0000 -0.7439 -0.6683
vn 0.6665 0.5545 -0.4982
vt 0.409252 0.083711
vt 0.409252 0.083711
vt 0.409252 0.083711
vt 0.409252 0.083711
vt 0.409252 0.083711
vt 0.409252 0.083711
vt 0.409252 0.083711
vt 0.409252 0.083711
vt 0.409252 0.083711
vt 0.409252 0.083711
vt 0.409252 0.083711
vt 0.409252 0.083711
vt 0.409252 0.083711
vt 0.409252 0.083711
vt 0.409252 0.083711
vt 0.409252 0.083711
vt 0.409252 0.083711
vt 0.409252 0.083711
vt 0.409252 0.083711
vt 0.409252 0.083711
vt 0.409252 0.083711
vt 0.409252 0.083711
vt 0.409252 0.083711
vt 0.409252 0.083711
vt 0.409252 0.083711
vt 0.409252 0.083711
vt 0.409252 0.083711
vt 0.409252 0.083711
vt 0.409252 0.083711
vt 0.409252 0.083711
vt 0.409252 0.083711
vt 0.409252 0.083711
vt 0.120915 0.468159
vt 0.120915 0.468159
vt 0.120915 0.468159
vt 0.120915 0.468159
vt 0.120915 0.468159
vt 0.120915 0.468159
vt 0.120915 0.468159
vt 0.120915 0.468159
vt 0.794264 0.125248
vt 0.794264 0.125248
vt 0.794264 0.125248
vt 0.794264 0.125248
vt 0.794264 0.125248
vt 0.426832 0.151992
vt 0.794264 0.125248
vt 0.426832 0.151992
vt 0.794264 0.125248
vt 0.426832 0.151992
vt 0.794264 0.125248
vt 0.426832 0.151992
vt 0.794264 0.125248
vt 0.794264 0.125248
vt 0.794264 0.125248
vt 0.794264 0.125248
vt 0.794264 0.125248
vt 0.794264 0.125248
vt 0.794264 0.125248
vt 0.794264 0.125248
vt 0.426832 0.151992
vt 0.426832 0.151992
vt 0.315218 0.455831
vt 0.426832 0.151992
vt 0.315218 0.455831
vt 0.426832 0.151992
vt 0.426832 0.151992
vt 0.315218 0.455831
vt 0.426832 0.151992
vt 0.315218 0.455831
vt 0.315218 0.455831
vt 0.426832 0.151992
vt 0.315218 0.455831
vt 0.426832 0.151992
vt 0.426832 0.151992
vt 0.315218 0.455831
vt 0.426832 0.151992
vt 0.315218 0.455831
vt 0.426832 0.151992
vt 0.426832 0.151992
vt 0.426832 0.151992
vt 0.426832 0.151992
vt 0.315218 0.455831
vt 0.315218 0.455831
vt 0.315218 0.455831
vt 0.315218 0.455831
vt 0.426832 0.151992
vt 0.426832 0.151992
vt 0.426832 0.151992
vt 0.426832 0.151992
vt 0.315218 0.455831
vt 0.315218 0.455831
vt 0.315218 0.455831
vt 0.315218 0.455831
vt 0.409252 0.083711
vt 0.409252 0.083711
vt 0.409252 0.083711
vt 0.409252 0.083711
vt 0.409252 0.083711
vt 0.409252 0.083711
vt 0.409252 0.083711
vt 0.409252 0.083711
vt 0.409252 0.083711
vt 0.409252 0.083711
vt 0.409252 0.083711
vt 0.409252 0.083711
vt 0.409252 0.083711
vt 0.409252 0.083711
vt 0.409252 0.083711
vt 0.409252 0.083711
vt 0.409252 0.083711
vt 0.409252 0.083711
vt 0.409252 0.083711
vt 0.409252 0.083711
vt 0.409252 0.083711
vt 0.409252 0.083711
vt 0.409252 0.083711
vt 0.409252 0.083711
vt 0.409252 0.083711
vt 0.409252 0.083711
vt 0.409252 0.083711
vt 0.409252 0.083711
vt 0.409252 0.083711
vt 0.409252 0.083711
vt 0.409252 0.083711
vt 0.409252 0.083711
vt 0.120915 0.468159
vt 0.120915 0.468159
vt 0.120915 0.468159
vt 0.120915 0.468159
vt 0.120915 0.468159
vt 0.120915 0.468159
vt 0.120915 0.468159
vt 0.120915 0.468159
vt 0.794264 0.125248
vt 0.794264 0.125248
vt 0.794264 0.125248
vt 0.794264 0.125248
vt 0.794264 0.125248
vt 0.794264 0.125248
vt 0.794264 0.125248
vt 0.794264 0.125248
vt 0.426832 0.151992
vt 0.426832 0.151992
vt 0.315218 0.455831
vt 0.426832 0.151992
vt 0.315218 0.455831
vt 0.426832 0.151992
vt 0.426832 0.151992
vt 0.315218 0.455831
vt 0.426832 0.151992
vt 0.315218 0.455831
vt 0.315218 0.455831
vt 0.426832 0.151992
vt 0.315218 0.455831
vt 0.426832 0.151992
vt 0.426832 0.151992
vt 0.315218 0.455831
vt 0.426832 0.151992
vt 0.315218 0.455831
vt 0.426832 0.151992
vt 0.426832 0.151992
vt 0.426832 0.151992
vt 0.426832 0.151992
vt 0.315218 0.455831
vt 0.315218 0.455831
vt 0.315218 0.455831
vt 0.315218 0.455831
vt 0.426832 0.151992
vt 0.426832 0.151992
vt 0.426832 0.151992
vt 0.426832 0.151992
vt 0.315218 0.455831
vt 0.315218 0.455831
vt 0.315218 0.455831
vt 0.315218 0.455831
s 1
usemtl Material
f 4/4/1 8/8/1 5/5/1 1/1/1
f 5/5/2 6/6/2 14/14/2 13/13/2
f 8/8/1 4/4/1 30/30/1 32/32/1 31/31/1 12/12/1
f 2/2/3 6/6/3 7/7/3 3/3/3
f 1/1/4 2/2/4 3/3/4 4/4/4
f 5/5/5 8/8/5 7/7/5 6/6/5
f 1/1/1 5/5/1 9/9/1 21/21/1 23/23/1 22/22/1
f 21/21/6 9/9/6 10/10/6 25/25/6
f 4/4/4 3/3/4 28/28/4 30/30/4
f 6/6/3 2/2/3 24/24/3 26/26/3 25/25/3 10/10/3
f 3/3/3 7/7/3 11/11/3 27/27/3 29/29/3 28/28/3
f 9/9/1 5/5/1 13/13/1 17/17/1
f 27/27/2 11/11/2 12/12/2 31/31/2
f 13/13/5 14/14/5 18/18/5 17/17/5
f 15/15/5 16/16/5 20/20/5 19/19/5
f 11/11/3 7/7/3 15/15/3 19/19/3
f 10/10/6 9/9/6 17/17/6 18/18/6
f 7/7/6 8/8/6 16/16/6 15/15/6
f 8/8/1 12/12/1 20/20/1 16/16/1
f 6/6/3 10/10/3 18/18/3 14/14/3
f 12/12/2 11/11/2 19/19/2 20/20/2
f 21/21/7 25/25/7 26/26/7 23/23/7
f 23/23/8 26/26/8 24/24/8 22/22/8
f 27/27/9 31/31/9 32/32/9 29/29/9
f 29/29/10 32/32/10 30/30/10 28/28/10
f 2/2/4 1/1/4 22/22/4 24/24/4
f 36/36/1 40/40/1 37/37/1 33/33/1
f 34/34/3 38/38/3 39/39/3 35/35/3
f 33/33/4 34/34/4 35/35/4 36/36/4
f 37/37/5 40/40/5 39/39/5 38/38/5
f 34/34/6 33/33/6 37/37/6 38/38/6
f 36/36/2 35/35/2 39/39/2 40/40/2
f 48/52/11 45/46/11 57/61/12 60/66/12
f 46/47/1 45/45/1 49/53/1 50/54/1
f 48/51/3 47/49/3 51/55/3 52/56/3
f 43/43/3 41/41/3 54/58/3 53/57/3
f 42/42/1 44/44/1 56/60/1 55/59/1
f 50/54/4 49/53/4 53/57/4 54/58/4
f 51/55/4 50/54/4 54/58/4 55/59/4
f 52/56/4 51/55/4 55/59/4 56/60/4
f 49/53/4 52/56/4 56/60/4 53/57/4
f 44/44/6 43/43/6 53/57/6 56/60/6
f 41/41/2 42/42/2 55/59/2 54/58/2
f 45/45/2 48/51/2 52/56/2 49/53/2
f 47/49/6 46/47/6 50/54/6 51/55/6
f 46/48/13 47/50/13 59/64/14 58/62/14
f 47/50/15 48/52/15 60/66/15 66/77/15 65/75/15 64/74/15 59/64/15
f 45/46/16 46/48/16 58/62/16 63/72/16 62/69/16 61/67/16 57/61/16
f 67/79/4 68/80/4 69/81/4 70/82/4
f 66/77/17 68/80/17 67/79/17 61/67/17
f 60/66/18 69/81/18 68/80/18 66/77/18
f 57/61/12 70/82/19 69/81/19 60/66/12
f 61/67/20 67/79/20 70/82/20 57/61/20
f 71/83/4 72/84/4 73/85/4 74/86/4
f 59/65/14 72/84/21 71/83/21 58/63/14
f 64/73/18 73/85/18 72/84/18 59/65/18
f 63/71/22 74/86/22 73/85/22 64/73/22
f 58/63/20 71/83/20 74/86/20 63/71/20
f 75/87/4 76/88/4 77/89/4 78/90/4
f 64/74/17 76/88/17 75/87/17 63/72/17
f 65/75/18 77/89/18 76/88/18 64/74/18
f 62/69/22 78/90/22 77/89/22 65/75/22
f 63/72/20 75/87/20 78/90/20 62/69/20
f 79/91/4 80/92/4 81/93/4 82/94/4
f 65/76/17 80/92/17 79/91/17 62/70/17
f 66/78/18 81/93/18 80/92/18 65/76/18
f 61/68/22 82/94/22 81/93/22 66/78/22
f 62/70/20 79/91/20 82/94/20 61/68/20
f 86/98/1 83/95/1 87/99/1 90/102/1
f 87/99/2 95/107/2 96/108/2 88/100/2
f 90/102/1 94/106/1 113/125/1 114/126/1 112/124/1 86/98/1
f 84/96/3 85/97/3 89/101/3 88/100/3
f 83/95/5 86/98/5 85/97/5 84/96/5
f 87/99/4 88/100/4 89/101/4 90/102/4
f 83/95/1 104/116/1 105/117/1 103/115/1 91/103/1 87/99/1
f 103/115/6 107/119/6 92/104/6 91/103/6
f 86/98/5 112/124/5 110/122/5 85/97/5
f 88/100/3 92/104/3 107/119/3 108/120/3 106/118/3 84/96/3
f 85/97/3 110/122/3 111/123/3 109/121/3 93/105/3 89/101/3
f 91/103/1 99/111/1 95/107/1 87/99/1
f 109/121/2 113/125/2 94/106/2 93/105/2
f 95/107/4 99/111/4 100/112/4 96/108/4
f 97/109/4 101/113/4 102/114/4 98/110/4
f 93/105/3 101/113/3 97/109/3 89/101/3
f 92/104/6 100/112/6 99/111/6 91/103/6
f 89/101/6 97/109/6 98/110/6 90/102/6
f 90/102/1 98/110/1 102/114/1 94/106/1
f 88/100/3 96/108/3 100/112/3 92/104/3
f 94/106/2 102/114/2 101/113/2 93/105/2
f 103/115/23 105/117/23 108/120/23 107/119/23
f 105/117/24 104/116/24 106/118/24 108/120/24
f 109/121/25 111/123/25 114/126/25 113/125/25
f 111/123/26 110/122/26 112/124/26 114/126/26
f 84/96/5 106/118/5 104/116/5 83/95/5
f 118/130/1 115/127/1 119/131/1 122/134/1
f 116/128/3 117/129/3 121/133/3 120/132/3
f 115/127/5 118/130/5 117/129/5 116/128/5
f 119/131/4 120/132/4 121/133/4 122/134/4
f 116/128/6 120/132/6 119/131/6 115/127/6
f 118/130/2 122/134/2 121/133/2 117/129/2
f 48/52/27 134/148/28 131/143/28 45/46/27
f 46/47/1 124/136/1 123/135/1 45/45/1
f 48/51/3 126/138/3 125/137/3 47/49/3
f 43/43/3 127/139/3 128/140/3 41/41/3
f 42/42/1 129/141/1 130/142/1 44/44/1
f 124/136/5 128/140/5 127/139/5 123/135/5
f 125/137/5 129/141/5 128/140/5 124/136/5
f 126/138/5 130/142/5 129/141/5 125/137/5
f 123/135/5 127/139/5 130/142/5 126/138/5
f 44/44/6 130/142/6 127/139/6 43/43/6
f 41/41/2 128/140/2 129/141/2 42/42/2
f 45/45/2 123/135/2 126/138/2 48/51/2
f 47/49/6 125/137/6 124/136/6 46/47/6
f 46/48/29 132/144/30 133/146/30 47/50/29
f 47/50/31 133/146/31 138/156/31 139/157/31 140/159/31 134/148/31 48/52/31
f 45/46/32 131/143/32 135/149/32 136/151/32 137/154/32 132/144/32 46/48/32
f 141/161/5 144/164/5 143/163/5 142/162/5
f 140/159/33 135/149/33 141/161/33 142/162/33
f 134/148/34 140/159/34 142/162/34 143/163/34
f 131/143/28 134/148/28 143/163/35 144/164/35
f 135/149/36 131/143/36 144/164/36 141/161/36
f 145/165/5 148/168/5 147/167/5 146/166/5
f 133/147/30 132/145/30 145/165/37 146/166/37
f 138/155/34 133/147/34 146/166/34 147/167/34
f 137/153/38 138/155/38 147/167/38 148/168/38
f 132/145/36 137/153/36 148/168/36 145/165/36
f 149/169/5 152/172/5 151/171/5 150/170/5
f 138/156/33 137/154/33 149/169/33 150/170/33
f 139/157/34 138/156/34 150/170/34 151/171/34
f 136/151/38 139/157/38 151/171/38 152/172/38
f 137/154/36 136/151/36 152/172/36 149/169/36
f 153/173/5 156/176/5 155/175/5 154/174/5
f 139/158/33 136/152/33 153/173/33 154/174/33
f 140/160/34 139/158/34 154/174/34 155/175/34
f 135/150/38 140/160/38 155/175/38 156/176/38
f 136/152/36 135/150/36 156/176/36 153/173/36
