# Blender 3.4.1
# www.blender.org
mtllib door006.mtl
o door.005
v -3.117614 -4.576608 0.000000
v 1.184634 -4.576608 0.000000
v -3.117614 5.423391 0.000000
v 1.184634 5.423391 0.000000
v -2.886539 5.192316 0.000000
v -2.886539 -4.345531 0.000000
v 0.953554 -4.345531 0.000000
v 0.953554 5.192316 0.000000
v -2.886539 5.192316 0.065401
v -2.886539 -4.345531 0.065401
v 0.953554 -4.345531 0.065401
v 0.953554 5.192316 0.065401
v -3.117614 5.423391 0.065401
v -3.117614 -4.576608 0.065401
v 1.184634 -4.576608 0.065401
v 1.184634 5.423391 0.065401
v -2.813263 5.125320 0.101134
v -2.813263 -4.278535 0.101133
v 0.880279 -4.278535 0.101133
v 0.880279 5.125320 0.101134
v -2.813263 3.244549 0.101134
v -2.813263 1.363778 0.101133
v -2.813263 -0.516993 0.101133
v -2.813263 -2.397764 0.101133
v 0.880279 -2.397764 0.101133
v 0.880279 -0.516993 0.101133
v 0.880279 1.363778 0.101133
v 0.880279 3.244549 0.101134
v 0.655598 0.135522 0.254827
v 0.502619 0.135522 0.254826
v 0.502619 -0.652089 0.254826
v 0.655598 -0.652089 0.254827
v 0.655598 0.135522 0.216252
v 0.502619 0.135522 0.216252
v 0.502619 -0.652089 0.216252
v 0.655598 -0.652089 0.216252
v 0.655598 0.210512 0.216252
v 0.502619 0.210512 0.216252
v 0.502619 -0.710080 0.216252
v 0.655598 -0.710080 0.216252
v 0.655598 0.135522 0.098720
v 0.502619 0.135522 0.098720
v 0.502619 -0.652089 0.098720
v 0.655598 -0.652089 0.098720
v 0.655598 0.210512 0.098720
v 0.502619 0.210512 0.098720
v 0.502619 -0.710080 0.098720
v 0.655598 -0.710080 0.098720
v 0.655598 0.210512 0.218284
v 0.655598 0.173970 0.254827
v 0.655598 0.199809 0.244124
v 0.502619 0.173970 0.254826
v 0.502619 0.210512 0.218284
v 0.502619 0.199809 0.244123
v 0.502619 -0.710080 0.218284
v 0.502619 -0.673537 0.254826
v 0.502619 -0.699377 0.244123
v 0.655598 -0.673537 0.254827
v 0.655598 -0.710080 0.218284
v 0.655598 -0.699377 0.244124
v 0.670556 0.049222 0.275598
v 0.495524 0.049222 0.275598
v 0.495524 -0.565805 0.275598
v 0.670556 -0.565804 0.275598
v 0.670556 0.049222 0.195480
v 0.495524 0.049222 0.195480
v 0.495524 -0.565805 0.195480
v 0.670556 -0.565804 0.195481
v -2.886539 5.192316 -0.065401
v -2.886539 -4.345531 -0.065401
v 0.953554 -4.345531 -0.065401
v 0.953554 5.192316 -0.065401
v -3.117614 5.423391 -0.065401
v -3.117614 -4.576608 -0.065401
v 1.184634 -4.576608 -0.065401
v 1.184634 5.423391 -0.065401
v -2.813263 5.125320 -0.101134
v -2.813263 -4.278535 -0.101133
v 0.880279 -4.278535 -0.101133
v 0.880279 5.125320 -0.101134
v -2.813263 3.244549 -0.101133
v -2.813263 1.363778 -0.101133
v -2.813263 -0.516993 -0.101133
v -2.813263 -2.397764 -0.101133
v 0.880279 -2.397764 -0.101133
v 0.880279 -0.516993 -0.101133
v 0.880279 1.363778 -0.101133
v 0.880279 3.244549 -0.101133
v 0.655598 0.135522 -0.254827
v 0.502619 0.135522 -0.254826
v 0.502619 -0.652089 -0.254826
v 0.655598 -0.652089 -0.254827
v 0.655598 0.135522 -0.216252
v 0.502619 0.135522 -0.216252
v 0.502619 -0.652089 -0.216252
v 0.655598 -0.652089 -0.216252
v 0.655598 0.210512 -0.216252
v 0.502619 0.210512 -0.216252
v 0.502619 -0.710080 -0.216252
v 0.655598 -0.710080 -0.216252
v 0.655598 0.135522 -0.098720
v 0.502619 0.135522 -0.098720
v 0.502619 -0.652089 -0.098720
v 0.655598 -0.652089 -0.098720
v 0.655598 0.210512 -0.098720
v 0.502619 0.210512 -0.098720
v 0.502619 -0.710080 -0.098720
v 0.655598 -0.710080 -0.098720
v 0.655598 0.210512 -0.218284
v 0.655598 0.173970 -0.254827
v 0.655598 0.199809 -0.244124
v 0.502619 0.173970 -0.254826
v 0.502619 0.210512 -0.218284
v 0.502619 0.199809 -0.244123
v 0.502619 -0.710080 -0.218284
v 0.502619 -0.673537 -0.254826
v 0.502619 -0.699377 -0.244123
v 0.655598 -0.673537 -0.254827
v 0.655598 -0.710080 -0.218284
v 0.655598 -0.699377 -0.244124
v 0.670556 0.049222 -0.275598
v 0.495524 0.049222 -0.275598
v 0.495524 -0.565805 -0.275598
v 0.670556 -0.565804 -0.275598
v 0.670556 0.049222 -0.195480
v 0.495524 0.049222 -0.195480
v 0.495524 -0.565805 -0.195480
v 0.670556 -0.565804 -0.195480
vn -0.0000 0.8337 0.5523
vn 1.0000 -0.0000 -0.0000
vn -1.0000 -0.0000 -0.0000
vn -0.0000 -0.0000 1.0000
vn -0.0000 1.0000 -0.0000
vn -0.0000 -1.0000 -0.0000
vn -0.0000 -0.8337 0.5523
vn 0.8098 -0.0000 0.5867
vn -0.8098 -0.0000 0.5867
vn -0.0000 -0.0000 -1.0000
vn -0.0000 0.9239 0.3827
vn -0.0000 0.3827 0.9239
vn -0.0000 -0.9239 0.3827
vn -0.0000 -0.3827 0.9239
vn -0.0000 0.8337 -0.5523
vn -0.0000 -0.8337 -0.5523
vn 0.8098 -0.0000 -0.5867
vn -0.8098 -0.0000 -0.5867
vn -0.0000 0.9239 -0.3827
vn -0.0000 0.3827 -0.9239
vn -0.0000 -0.9239 -0.3827
vn -0.0000 -0.3827 -0.9239
vt 0.533038 0.481214
vt 0.533038 0.481214
vt 0.533038 0.481214
vt 0.533038 0.481214
vt 0.533038 0.481214
vt 0.426832 0.151992
vt 0.533038 0.481214
vt 0.426832 0.151992
vt 0.533038 0.481214
vt 0.426832 0.151992
vt 0.533038 0.481214
vt 0.426832 0.151992
vt 0.533038 0.481214
vt 0.533038 0.481214
vt 0.533038 0.481214
vt 0.533038 0.481214
vt 0.533038 0.481214
vt 0.533038 0.481214
vt 0.533038 0.481214
vt 0.533038 0.481214
vt 0.533038 0.481214
vt 0.426832 0.151992
vt 0.426832 0.151992
vt 0.533038 0.481214
vt 0.426832 0.151992
vt 0.533038 0.481214
vt 0.533038 0.481214
vt 0.426832 0.151992
vt 0.533038 0.481214
vt 0.426832 0.151992
vt 0.533038 0.481214
vt 0.426832 0.151992
vt 0.426832 0.151992
vt 0.533038 0.481214
vt 0.533038 0.481214
vt 0.426832 0.151992
vt 0.533038 0.481214
vt 0.426832 0.151992
vt 0.426832 0.151992
vt 0.533038 0.481214
vt 0.533038 0.481214
vt 0.426832 0.151992
vt 0.533038 0.481214
vt 0.426832 0.151992
vt 0.409252 0.083711
vt 0.409252 0.083711
vt 0.409252 0.083711
vt 0.409252 0.083711
vt 0.409252 0.083711
vt 0.409252 0.083711
vt 0.409252 0.083711
vt 0.409252 0.083711
vt 0.409252 0.083711
vt 0.409252 0.083711
vt 0.409252 0.083711
vt 0.409252 0.083711
vt 0.409252 0.083711
vt 0.409252 0.083711
vt 0.409252 0.083711
vt 0.409252 0.083711
vt 0.409252 0.083711
vt 0.409252 0.083711
vt 0.409252 0.083711
vt 0.409252 0.083711
vt 0.409252 0.083711
vt 0.409252 0.083711
vt 0.409252 0.083711
vt 0.409252 0.083711
vt 0.409252 0.083711
vt 0.409252 0.083711
vt 0.409252 0.083711
vt 0.409252 0.083711
vt 0.409252 0.083711
vt 0.409252 0.083711
vt 0.409252 0.083711
vt 0.409252 0.083711
vt 0.793700 0.099213
vt 0.793700 0.099213
vt 0.793700 0.099213
vt 0.793700 0.099213
vt 0.793700 0.099213
vt 0.793700 0.099213
vt 0.793700 0.099213
vt 0.793700 0.099213
vt 0.533038 0.481214
vt 0.533038 0.481214
vt 0.533038 0.481214
vt 0.533038 0.481214
vt 0.533038 0.481214
vt 0.533038 0.481214
vt 0.533038 0.481214
vt 0.533038 0.481214
vt 0.533038 0.481214
vt 0.426832 0.151992
vt 0.426832 0.151992
vt 0.533038 0.481214
vt 0.426832 0.151992
vt 0.533038 0.481214
vt 0.533038 0.481214
vt 0.426832 0.151992
vt 0.533038 0.481214
vt 0.426832 0.151992
vt 0.533038 0.481214
vt 0.426832 0.151992
vt 0.426832 0.151992
vt 0.533038 0.481214
vt 0.533038 0.481214
vt 0.426832 0.151992
vt 0.533038 0.481214
vt 0.426832 0.151992
vt 0.426832 0.151992
vt 0.533038 0.481214
vt 0.533038 0.481214
vt 0.426832 0.151992
vt 0.533038 0.481214
vt 0.426832 0.151992
vt 0.409252 0.083711
vt 0.409252 0.083711
vt 0.409252 0.083711
vt 0.409252 0.083711
vt 0.409252 0.083711
vt 0.409252 0.083711
vt 0.409252 0.083711
vt 0.409252 0.083711
vt 0.409252 0.083711
vt 0.409252 0.083711
vt 0.409252 0.083711
vt 0.409252 0.083711
vt 0.409252 0.083711
vt 0.409252 0.083711
vt 0.409252 0.083711
vt 0.409252 0.083711
vt 0.409252 0.083711
vt 0.409252 0.083711
vt 0.409252 0.083711
vt 0.409252 0.083711
vt 0.409252 0.083711
vt 0.409252 0.083711
vt 0.409252 0.083711
vt 0.409252 0.083711
vt 0.409252 0.083711
vt 0.409252 0.083711
vt 0.409252 0.083711
vt 0.409252 0.083711
vt 0.409252 0.083711
vt 0.409252 0.083711
vt 0.409252 0.083711
vt 0.409252 0.083711
vt 0.793700 0.099213
vt 0.793700 0.099213
vt 0.793700 0.099213
vt 0.793700 0.099213
vt 0.793700 0.099213
vt 0.793700 0.099213
vt 0.793700 0.099213
vt 0.793700 0.099213
s 1
usemtl Material
f 8/12/1 5/6/1 17/22/1 20/28/1
f 6/7/2 5/5/2 9/13/2 10/14/2
f 8/11/3 7/9/3 11/15/3 12/16/3
f 3/3/3 1/1/3 14/18/3 13/17/3
f 2/2/2 4/4/2 16/20/2 15/19/2
f 10/14/4 9/13/4 13/17/4 14/18/4
f 11/15/4 10/14/4 14/18/4 15/19/4
f 12/16/4 11/15/4 15/19/4 16/20/4
f 9/13/4 12/16/4 16/20/4 13/17/4
f 4/4/5 3/3/5 13/17/5 16/20/5
f 1/1/6 2/2/6 15/19/6 14/18/6
f 5/5/6 8/11/6 12/16/6 9/13/6
f 7/9/5 6/7/5 10/14/5 11/15/5
f 21/29/4 28/43/4 20/27/4 17/21/4
f 6/8/7 7/10/7 19/25/7 18/23/7
f 7/10/8 8/12/8 20/28/8 28/44/8 27/42/8 26/39/8 25/38/8 19/25/8
f 5/6/9 6/8/9 18/23/9 24/36/9 23/33/9 22/32/9 21/30/9 17/22/9
f 18/24/4 19/26/4 25/37/4 24/35/4
f 24/36/4 25/38/4 26/39/4 23/33/4
f 23/34/4 26/40/4 27/41/4 22/31/4
f 22/32/4 27/42/4 28/44/4 21/30/4
f 32/48/2 36/52/2 33/49/2 29/45/2
f 33/49/6 34/50/6 42/58/6 41/57/6
f 36/52/2 32/48/2 58/74/2 60/76/2 59/75/2 40/56/2
f 30/46/3 34/50/3 35/51/3 31/47/3
f 29/45/4 30/46/4 31/47/4 32/48/4
f 33/49/10 36/52/10 35/51/10 34/50/10
f 29/45/2 33/49/2 37/53/2 49/65/2 51/67/2 50/66/2
f 49/65/5 37/53/5 38/54/5 53/69/5
f 32/48/4 31/47/4 56/72/4 58/74/4
f 34/50/3 30/46/3 52/68/3 54/70/3 53/69/3 38/54/3
f 31/47/3 35/51/3 39/55/3 55/71/3 57/73/3 56/72/3
f 37/53/2 33/49/2 41/57/2 45/61/2
f 55/71/6 39/55/6 40/56/6 59/75/6
f 41/57/10 42/58/10 46/62/10 45/61/10
f 43/59/10 44/60/10 48/64/10 47/63/10
f 39/55/3 35/51/3 43/59/3 47/63/3
f 38/54/5 37/53/5 45/61/5 46/62/5
f 35/51/5 36/52/5 44/60/5 43/59/5
f 36/52/2 40/56/2 48/64/2 44/60/2
f 34/50/3 38/54/3 46/62/3 42/58/3
f 40/56/6 39/55/6 47/63/6 48/64/6
f 49/65/11 53/69/11 54/70/11 51/67/11
f 51/67/12 54/70/12 52/68/12 50/66/12
f 55/71/13 59/75/13 60/76/13 57/73/13
f 57/73/14 60/76/14 58/74/14 56/72/14
f 30/46/4 29/45/4 50/66/4 52/68/4
f 64/80/2 68/84/2 65/81/2 61/77/2
f 62/78/3 66/82/3 67/83/3 63/79/3
f 61/77/4 62/78/4 63/79/4 64/80/4
f 65/81/10 68/84/10 67/83/10 66/82/10
f 62/78/5 61/77/5 65/81/5 66/82/5
f 64/80/6 63/79/6 67/83/6 68/84/6
f 8/12/15 80/100/15 77/94/15 5/6/15
f 6/7/2 70/86/2 69/85/2 5/5/2
f 8/11/3 72/88/3 71/87/3 7/9/3
f 3/3/3 73/89/3 74/90/3 1/1/3
f 2/2/2 75/91/2 76/92/2 4/4/2
f 70/86/10 74/90/10 73/89/10 69/85/10
f 71/87/10 75/91/10 74/90/10 70/86/10
f 72/88/10 76/92/10 75/91/10 71/87/10
f 69/85/10 73/89/10 76/92/10 72/88/10
f 4/4/5 76/92/5 73/89/5 3/3/5
f 1/1/6 74/90/6 75/91/6 2/2/6
f 5/5/6 69/85/6 72/88/6 8/11/6
f 7/9/5 71/87/5 70/86/5 6/7/5
f 81/101/10 77/93/10 80/99/10 88/115/10
f 6/8/16 78/95/16 79/97/16 7/10/16
f 7/10/17 79/97/17 85/110/17 86/111/17 87/114/17 88/116/17 80/100/17 8/12/17
f 5/6/18 77/94/18 81/102/18 82/104/18 83/105/18 84/108/18 78/95/18 6/8/18
f 78/96/10 84/107/10 85/109/10 79/98/10
f 84/108/10 83/105/10 86/111/10 85/110/10
f 83/106/10 82/103/10 87/113/10 86/112/10
f 82/104/10 81/102/10 88/116/10 87/114/10
f 92/120/2 89/117/2 93/121/2 96/124/2
f 93/121/6 101/129/6 102/130/6 94/122/6
f 96/124/2 100/128/2 119/147/2 120/148/2 118/146/2 92/120/2
f 90/118/3 91/119/3 95/123/3 94/122/3
f 89/117/10 92/120/10 91/119/10 90/118/10
f 93/121/4 94/122/4 95/123/4 96/124/4
f 89/117/2 110/138/2 111/139/2 109/137/2 97/125/2 93/121/2
f 109/137/5 113/141/5 98/126/5 97/125/5
f 92/120/10 118/146/10 116/144/10 91/119/10
f 94/122/3 98/126/3 113/141/3 114/142/3 112/140/3 90/118/3
f 91/119/3 116/144/3 117/145/3 115/143/3 99/127/3 95/123/3
f 97/125/2 105/133/2 101/129/2 93/121/2
f 115/143/6 119/147/6 100/128/6 99/127/6
f 101/129/4 105/133/4 106/134/4 102/130/4
f 103/131/4 107/135/4 108/136/4 104/132/4
f 99/127/3 107/135/3 103/131/3 95/123/3
f 98/126/5 106/134/5 105/133/5 97/125/5
f 95/123/5 103/131/5 104/132/5 96/124/5
f 96/124/2 104/132/2 108/136/2 100/128/2
f 94/122/3 102/130/3 106/134/3 98/126/3
f 100/128/6 108/136/6 107/135/6 99/127/6
f 109/137/19 111/139/19 114/142/19 113/141/19
f 111/139/20 110/138/20 112/140/20 114/142/20
f 115/143/21 117/145/21 120/148/21 119/147/21
f 117/145/22 116/144/22 118/146/22 120/148/22
f 90/118/10 112/140/10 110/138/10 89/117/10
f 124/152/2 121/149/2 125/153/2 128/156/2
f 122/150/3 123/151/3 127/155/3 126/154/3
f 121/149/10 124/152/10 123/151/10 122/150/10
f 125/153/4 126/154/4 127/155/4 128/156/4
f 122/150/5 126/154/5 125/153/5 121/149/5
f 124/152/6 128/156/6 127/155/6 123/151/6
