# Blender 3.4.1
# www.blender.org
mtllib door009.mtl
o door.008
v 0.839296 0.088478 0.443291
v 0.686317 0.088478 0.443291
v 0.686317 -0.699133 0.443291
v 0.839296 -0.699133 0.443291
v 0.839296 0.088478 0.404716
v 0.686317 0.088478 0.404716
v 0.686317 -0.699133 0.404716
v 0.839296 -0.699133 0.404716
v 0.839296 0.163468 0.404716
v 0.686317 0.163468 0.404716
v 0.686317 -0.757124 0.404716
v 0.839296 -0.757124 0.404716
v 0.839296 0.088478 0.287185
v 0.686317 0.088478 0.287184
v 0.686317 -0.699133 0.287184
v 0.839296 -0.699133 0.287185
v 0.839296 0.163468 0.287185
v 0.686317 0.163468 0.287184
v 0.686317 -0.757124 0.287184
v 0.839296 -0.757124 0.287185
v 0.839296 0.163468 0.406749
v 0.839296 0.126925 0.443291
v 0.839296 0.152765 0.432588
v 0.686317 0.126925 0.443291
v 0.686317 0.163468 0.406748
v 0.686317 0.152765 0.432588
v 0.686317 -0.757124 0.406748
v 0.686317 -0.720581 0.443291
v 0.686317 -0.746421 0.432588
v 0.839296 -0.720581 0.443291
v 0.839296 -0.757124 0.406749
v 0.839296 -0.746421 0.432588
v 0.854254 0.002178 0.464062
v 0.679222 0.002178 0.464062
v 0.679222 -0.612849 0.464062
v 0.854254 -0.612849 0.464062
v 0.854254 0.002178 0.383945
v 0.679222 0.002178 0.383944
v 0.679222 -0.612849 0.383944
v 0.854254 -0.612849 0.383945
v -3.105616 -4.623651 0.000000
v 1.196633 -4.623651 0.000000
v -3.105616 5.376349 0.000000
v 1.196633 5.376349 0.000000
v -2.874536 5.145273 0.200115
v -2.874541 -4.392575 0.200114
v 0.965558 -4.392574 0.200114
v 0.965558 5.145273 0.200115
v -2.874536 5.145273 0.265515
v -2.874541 -4.392575 0.265515
v 0.965558 -4.392574 0.265515
v 0.965558 5.145273 0.265515
v -3.105616 5.376349 0.265515
v -3.105616 -4.623651 0.265515
v 1.196633 -4.623651 0.265515
v 1.196633 5.376349 0.265515
v -2.549910 4.826927 0.301248
v -2.549910 -4.074228 0.301247
v 0.640927 -4.074228 0.301247
v 0.640927 4.826927 0.301248
v -2.801260 5.078277 0.301248
v -2.801260 -4.325579 0.301247
v 0.892277 -4.325579 0.301247
v 0.892282 5.078277 0.301248
v -2.251229 4.528248 0.140594
v -2.251229 -3.775549 0.140594
v 0.342250 -3.775549 0.140594
v 0.342250 4.528248 0.140594
v -2.549910 4.826927 0.140594
v -2.549910 -4.074228 0.140594
v 0.640927 -4.074228 0.140594
v 0.640927 4.826927 0.140594
v -2.251229 4.528248 0.000000
v -2.251229 -3.775549 0.000000
v 0.342250 -3.775549 0.000000
v 0.342250 4.528248 0.000000
v 0.839296 0.088478 -0.443291
v 0.686317 0.088478 -0.443290
v 0.686317 -0.699133 -0.443290
v 0.839296 -0.699133 -0.443291
v 0.839296 0.088478 -0.404716
v 0.686317 0.088478 -0.404716
v 0.686317 -0.699133 -0.404716
v 0.839296 -0.699133 -0.404716
v 0.839296 0.163468 -0.404716
v 0.686317 0.163468 -0.404716
v 0.686317 -0.757124 -0.404716
v 0.839296 -0.757124 -0.404716
v 0.839296 0.088478 -0.287184
v 0.686317 0.088478 -0.287184
v 0.686317 -0.699133 -0.287184
v 0.839296 -0.699133 -0.287184
v 0.839296 0.163468 -0.287184
v 0.686317 0.163468 -0.287184
v 0.686317 -0.757124 -0.287184
v 0.839296 -0.757124 -0.287184
v 0.839296 0.163468 -0.406748
v 0.839296 0.126925 -0.443291
v 0.839296 0.152765 -0.432588
v 0.686317 0.126925 -0.443290
v 0.686317 0.163468 -0.406748
v 0.686317 0.152765 -0.432587
v 0.686317 -0.757124 -0.406748
v 0.686317 -0.720581 -0.443290
v 0.686317 -0.746421 -0.432587
v 0.839296 -0.720581 -0.443291
v 0.839296 -0.757124 -0.406748
v 0.839296 -0.746421 -0.432588
v 0.854254 0.002178 -0.464062
v 0.679222 0.002178 -0.464062
v 0.679222 -0.612849 -0.464062
v 0.854254 -0.612849 -0.464062
v 0.854254 0.002178 -0.383945
v 0.679222 0.002178 -0.383944
v 0.679222 -0.612849 -0.383944
v 0.854254 -0.612849 -0.383945
v -2.874536 5.145273 -0.200115
v -2.874541 -4.392575 -0.200114
v 0.965558 -4.392574 -0.200114
v 0.965558 5.145273 -0.200115
v -2.874536 5.145273 -0.265515
v -2.874541 -4.392575 -0.265515
v 0.965558 -4.392574 -0.265515
v 0.965558 5.145273 -0.265515
v -3.105616 5.376349 -0.265515
v -3.105616 -4.623651 -0.265515
v 1.196633 -4.623651 -0.265515
v 1.196633 5.376349 -0.265515
v -2.549910 4.826927 -0.301248
v -2.549910 -4.074228 -0.301247
v 0.640927 -4.074228 -0.301247
v 0.640927 4.826927 -0.301248
v -2.801260 5.078277 -0.301248
v -2.801260 -4.325579 -0.301247
v 0.892277 -4.325579 -0.301247
v 0.892282 5.078277 -0.301248
v -2.251229 4.528248 -0.140594
v -2.251229 -3.775549 -0.140594
v 0.342250 -3.775549 -0.140594
v 0.342250 4.528248 -0.140594
v -2.549910 4.826927 -0.140594
v -2.549910 -4.074228 -0.140594
v 0.640927 -4.074228 -0.140594
v 0.640927 4.826927 -0.140594
vn 1.0000 -0.0000 -0.0000
vn -0.0000 -1.0000 -0.0000
vn -1.0000 -0.0000 -0.0000
vn -0.0000 -0.0000 1.0000
vn -0.0000 -0.0000 -1.0000
vn -0.0000 1.0000 -0.0000
vn -0.0000 0.9239 0.3827
vn -0.0000 0.3827 0.9239
vn -0.0000 -0.9239 0.3827
vn -0.0000 -0.3827 0.9239
vn -0.0000 0.8337 0.5523
vn -0.0000 -0.8337 0.5523
vn 0.8098 -0.0000 0.5867
vn -0.8098 -0.0000 0.5867
vn -0.0000 0.9239 -0.3827
vn -0.0000 0.3827 -0.9239
vn -0.0000 -0.9239 -0.3827
vn -0.0000 -0.3827 -0.9239
vn -0.0000 0.8337 -0.5523
vn -0.0000 -0.8337 -0.5523
vn 0.8098 -0.0000 -0.5867
vn -0.8098 -0.0000 -0.5867
vt 0.449046 0.961158
vt 0.449046 0.961158
vt 0.449046 0.961158
vt 0.449046 0.961158
vt 0.449046 0.961158
vt 0.449046 0.961158
vt 0.449046 0.961158
vt 0.449046 0.961158
vt 0.449046 0.961158
vt 0.449046 0.961158
vt 0.449046 0.961158
vt 0.449046 0.961158
vt 0.449046 0.961158
vt 0.449046 0.961158
vt 0.449046 0.961158
vt 0.449046 0.961158
vt 0.449046 0.961158
vt 0.449046 0.961158
vt 0.449046 0.961158
vt 0.449046 0.961158
vt 0.449046 0.961158
vt 0.449046 0.961158
vt 0.449046 0.961158
vt 0.449046 0.961158
vt 0.449046 0.961158
vt 0.449046 0.961158
vt 0.449046 0.961158
vt 0.449046 0.961158
vt 0.449046 0.961158
vt 0.449046 0.961158
vt 0.449046 0.961158
vt 0.449046 0.961158
vt 0.254514 0.893529
vt 0.254514 0.893529
vt 0.254514 0.893529
vt 0.254514 0.893529
vt 0.254514 0.893529
vt 0.254514 0.893529
vt 0.254514 0.893529
vt 0.254514 0.893529
vt 0.254514 0.893529
vt 0.254514 0.893529
vt 0.254514 0.893529
vt 0.254514 0.893529
vt 0.254514 0.893529
vt 0.449046 0.961158
vt 0.254514 0.893529
vt 0.449046 0.961158
vt 0.254514 0.893529
vt 0.449046 0.961158
vt 0.254514 0.893529
vt 0.449046 0.961158
vt 0.254514 0.893529
vt 0.254514 0.893529
vt 0.254514 0.893529
vt 0.254514 0.893529
vt 0.254514 0.893529
vt 0.254514 0.893529
vt 0.254514 0.893529
vt 0.254514 0.893529
vt 0.449046 0.961158
vt 0.449046 0.961158
vt 0.449046 0.961158
vt 0.449046 0.961158
vt 0.449046 0.961158
vt 0.449046 0.961158
vt 0.449046 0.961158
vt 0.449046 0.961158
vt 0.449046 0.961158
vt 0.449046 0.961158
vt 0.449046 0.961158
vt 0.449046 0.961158
vt 0.449046 0.961158
vt 0.449046 0.961158
vt 0.449046 0.961158
vt 0.449046 0.961158
vt 0.449046 0.961158
vt 0.449046 0.961158
vt 0.449046 0.961158
vt 0.449046 0.961158
vt 0.449046 0.961158
vt 0.449046 0.961158
vt 0.449046 0.961158
vt 0.449046 0.961158
vt 0.449046 0.961158
vt 0.449046 0.961158
vt 0.449046 0.961158
vt 0.449046 0.961158
vt 0.449046 0.961158
vt 0.449046 0.961158
vt 0.449046 0.961158
vt 0.449046 0.961158
vt 0.449046 0.961158
vt 0.449046 0.961158
vt 0.449046 0.961158
vt 0.449046 0.961158
vt 0.449046 0.961158
vt 0.449046 0.961158
vt 0.449046 0.961158
vt 0.449046 0.961158
vt 0.449046 0.961158
vt 0.449046 0.961158
vt 0.449046 0.961158
vt 0.449046 0.961158
vt 0.449046 0.961158
vt 0.449046 0.961158
vt 0.449046 0.961158
vt 0.449046 0.961158
vt 0.449046 0.961158
vt 0.449046 0.961158
vt 0.449046 0.961158
vt 0.449046 0.961158
vt 0.254514 0.893529
vt 0.254514 0.893529
vt 0.254514 0.893529
vt 0.254514 0.893529
vt 0.254514 0.893529
vt 0.254514 0.893529
vt 0.254514 0.893529
vt 0.254514 0.893529
vt 0.254514 0.893529
vt 0.449046 0.961158
vt 0.254514 0.893529
vt 0.449046 0.961158
vt 0.254514 0.893529
vt 0.449046 0.961158
vt 0.254514 0.893529
vt 0.449046 0.961158
vt 0.254514 0.893529
vt 0.254514 0.893529
vt 0.254514 0.893529
vt 0.254514 0.893529
vt 0.254514 0.893529
vt 0.254514 0.893529
vt 0.254514 0.893529
vt 0.254514 0.893529
vt 0.449046 0.961158
vt 0.449046 0.961158
vt 0.449046 0.961158
vt 0.449046 0.961158
vt 0.449046 0.961158
vt 0.449046 0.961158
vt 0.449046 0.961158
vt 0.449046 0.961158
vt 0.449046 0.961158
vt 0.449046 0.961158
vt 0.449046 0.961158
vt 0.449046 0.961158
vt 0.449046 0.961158
vt 0.449046 0.961158
vt 0.449046 0.961158
vt 0.449046 0.961158
s 1
usemtl Material
f 4/4/1 8/8/1 5/5/1 1/1/1
f 5/5/2 6/6/2 14/14/2 13/13/2
f 8/8/1 4/4/1 30/30/1 32/32/1 31/31/1 12/12/1
f 2/2/3 6/6/3 7/7/3 3/3/3
f 1/1/4 2/2/4 3/3/4 4/4/4
f 5/5/5 8/8/5 7/7/5 6/6/5
f 1/1/1 5/5/1 9/9/1 21/21/1 23/23/1 22/22/1
f 21/21/6 9/9/6 10/10/6 25/25/6
f 4/4/4 3/3/4 28/28/4 30/30/4
f 6/6/3 2/2/3 24/24/3 26/26/3 25/25/3 10/10/3
f 3/3/3 7/7/3 11/11/3 27/27/3 29/29/3 28/28/3
f 9/9/1 5/5/1 13/13/1 17/17/1
f 27/27/2 11/11/2 12/12/2 31/31/2
f 13/13/5 14/14/5 18/18/5 17/17/5
f 15/15/5 16/16/5 20/20/5 19/19/5
f 11/11/3 7/7/3 15/15/3 19/19/3
f 10/10/6 9/9/6 17/17/6 18/18/6
f 7/7/6 8/8/6 16/16/6 15/15/6
f 8/8/1 12/12/1 20/20/1 16/16/1
f 6/6/3 10/10/3 18/18/3 14/14/3
f 12/12/2 11/11/2 19/19/2 20/20/2
f 21/21/7 25/25/7 26/26/7 23/23/7
f 23/23/8 26/26/8 24/24/8 22/22/8
f 27/27/9 31/31/9 32/32/9 29/29/9
f 29/29/10 32/32/10 30/30/10 28/28/10
f 2/2/4 1/1/4 22/22/4 24/24/4
f 36/36/1 40/40/1 37/37/1 33/33/1
f 34/34/3 38/38/3 39/39/3 35/35/3
f 33/33/4 34/34/4 35/35/4 36/36/4
f 37/37/5 40/40/5 39/39/5 38/38/5
f 34/34/6 33/33/6 37/37/6 38/38/6
f 36/36/2 35/35/2 39/39/2 40/40/2
f 48/52/11 45/46/11 61/65/11 64/68/11
f 46/47/1 45/45/1 49/53/1 50/54/1
f 48/51/3 47/49/3 51/55/3 52/56/3
f 43/43/3 41/41/3 54/58/3 53/57/3
f 42/42/1 44/44/1 56/60/1 55/59/1
f 50/54/4 49/53/4 53/57/4 54/58/4
f 51/55/4 50/54/4 54/58/4 55/59/4
f 52/56/4 51/55/4 55/59/4 56/60/4
f 49/53/4 52/56/4 56/60/4 53/57/4
f 44/44/6 43/43/6 53/57/6 56/60/6
f 41/41/2 42/42/2 55/59/2 54/58/2
f 45/45/2 48/51/2 52/56/2 49/53/2
f 47/49/6 46/47/6 50/54/6 51/55/6
f 60/64/2 57/61/2 69/73/2 72/76/2
f 46/48/12 47/50/12 63/67/12 62/66/12
f 47/50/13 48/52/13 64/68/13 63/67/13
f 45/46/14 46/48/14 62/66/14 61/65/14
f 58/62/4 57/61/4 61/65/4 62/66/4
f 59/63/4 58/62/4 62/66/4 63/67/4
f 60/64/4 59/63/4 63/67/4 64/68/4
f 57/61/4 60/64/4 64/68/4 61/65/4
f 67/71/3 68/72/3 76/80/3 75/79/3
f 58/62/6 59/63/6 71/75/6 70/74/6
f 59/63/3 60/64/3 72/76/3 71/75/3
f 57/61/1 58/62/1 70/74/1 69/73/1
f 66/70/4 65/69/4 69/73/4 70/74/4
f 67/71/4 66/70/4 70/74/4 71/75/4
f 68/72/4 67/71/4 71/75/4 72/76/4
f 65/69/4 68/72/4 72/76/4 69/73/4
f 74/78/4 75/79/4 76/80/4 73/77/4
f 65/69/1 66/70/1 74/78/1 73/77/1
f 68/72/2 65/69/2 73/77/2 76/80/2
f 66/70/6 67/71/6 75/79/6 74/78/6
f 80/84/1 77/81/1 81/85/1 84/88/1
f 81/85/2 89/93/2 90/94/2 82/86/2
f 84/88/1 88/92/1 107/111/1 108/112/1 106/110/1 80/84/1
f 78/82/3 79/83/3 83/87/3 82/86/3
f 77/81/5 80/84/5 79/83/5 78/82/5
f 81/85/4 82/86/4 83/87/4 84/88/4
f 77/81/1 98/102/1 99/103/1 97/101/1 85/89/1 81/85/1
f 97/101/6 101/105/6 86/90/6 85/89/6
f 80/84/5 106/110/5 104/108/5 79/83/5
f 82/86/3 86/90/3 101/105/3 102/106/3 100/104/3 78/82/3
f 79/83/3 104/108/3 105/109/3 103/107/3 87/91/3 83/87/3
f 85/89/1 93/97/1 89/93/1 81/85/1
f 103/107/2 107/111/2 88/92/2 87/91/2
f 89/93/4 93/97/4 94/98/4 90/94/4
f 91/95/4 95/99/4 96/100/4 92/96/4
f 87/91/3 95/99/3 91/95/3 83/87/3
f 86/90/6 94/98/6 93/97/6 85/89/6
f 83/87/6 91/95/6 92/96/6 84/88/6
f 84/88/1 92/96/1 96/100/1 88/92/1
f 82/86/3 90/94/3 94/98/3 86/90/3
f 88/92/2 96/100/2 95/99/2 87/91/2
f 97/101/15 99/103/15 102/106/15 101/105/15
f 99/103/16 98/102/16 100/104/16 102/106/16
f 103/107/17 105/109/17 108/112/17 107/111/17
f 105/109/18 104/108/18 106/110/18 108/112/18
f 78/82/5 100/104/5 98/102/5 77/81/5
f 112/116/1 109/113/1 113/117/1 116/120/1
f 110/114/3 111/115/3 115/119/3 114/118/3
f 109/113/5 112/116/5 111/115/5 110/114/5
f 113/117/4 114/118/4 115/119/4 116/120/4
f 110/114/6 114/118/6 113/117/6 109/113/6
f 112/116/2 116/120/2 115/119/2 111/115/2
f 120/128/19 136/144/19 133/141/19 117/122/19
f 118/123/1 122/130/1 121/129/1 117/121/1
f 120/127/3 124/132/3 123/131/3 119/125/3
f 43/43/3 125/133/3 126/134/3 41/41/3
f 42/42/1 127/135/1 128/136/1 44/44/1
f 122/130/5 126/134/5 125/133/5 121/129/5
f 123/131/5 127/135/5 126/134/5 122/130/5
f 124/132/5 128/136/5 127/135/5 123/131/5
f 121/129/5 125/133/5 128/136/5 124/132/5
f 44/44/6 128/136/6 125/133/6 43/43/6
f 41/41/2 126/134/2 127/135/2 42/42/2
f 117/121/2 121/129/2 124/132/2 120/127/2
f 119/125/6 123/131/6 122/130/6 118/123/6
f 132/140/2 144/152/2 141/149/2 129/137/2
f 118/124/20 134/142/20 135/143/20 119/126/20
f 119/126/21 135/143/21 136/144/21 120/128/21
f 117/122/22 133/141/22 134/142/22 118/124/22
f 130/138/5 134/142/5 133/141/5 129/137/5
f 131/139/5 135/143/5 134/142/5 130/138/5
f 132/140/5 136/144/5 135/143/5 131/139/5
f 129/137/5 133/141/5 136/144/5 132/140/5
f 139/147/3 75/79/3 76/80/3 140/148/3
f 130/138/6 142/150/6 143/151/6 131/139/6
f 131/139/3 143/151/3 144/152/3 132/140/3
f 129/137/1 141/149/1 142/150/1 130/138/1
f 138/146/5 142/150/5 141/149/5 137/145/5
f 139/147/5 143/151/5 142/150/5 138/146/5
f 140/148/5 144/152/5 143/151/5 139/147/5
f 137/145/5 141/149/5 144/152/5 140/148/5
f 137/145/1 73/77/1 74/78/1 138/146/1
f 140/148/2 76/80/2 73/77/2 137/145/2
f 138/146/6 74/78/6 75/79/6 139/147/6
