# Blender 3.4.1
# www.blender.org
mtllib door013.mtl
o door.012
v 0.840435 0.068670 0.250860
v 0.687454 0.068670 0.250860
v 0.687454 -0.718940 0.250860
v 0.840435 -0.718940 0.250860
v 0.840435 0.068670 0.212286
v 0.687454 0.068670 0.212286
v 0.687454 -0.718940 0.212286
v 0.840435 -0.718940 0.212286
v 0.840435 0.143660 0.212286
v 0.687454 0.143660 0.212286
v 0.687454 -0.776931 0.212286
v 0.840435 -0.776931 0.212286
v 0.840435 0.068670 0.094755
v 0.687454 0.068670 0.094755
v 0.687454 -0.718940 0.094755
v 0.840435 -0.718940 0.094755
v 0.840435 0.143660 0.094755
v 0.687454 0.143660 0.094755
v 0.687454 -0.776931 0.094755
v 0.840435 -0.776931 0.094755
v 0.840435 0.143660 0.214318
v 0.840435 0.107118 0.250860
v 0.840435 0.132957 0.240158
v 0.687454 0.107118 0.250860
v 0.687454 0.143660 0.214318
v 0.687454 0.132957 0.240158
v 0.687454 -0.776931 0.214318
v 0.687454 -0.740389 0.250860
v 0.687454 -0.766228 0.240158
v 0.840435 -0.740389 0.250860
v 0.840435 -0.776931 0.214318
v 0.840435 -0.766228 0.240158
v 0.855389 -0.017630 0.271633
v 0.680358 -0.017630 0.271632
v 0.680358 -0.632656 0.271632
v 0.855389 -0.632656 0.271633
v 0.855389 -0.017630 0.191515
v 0.680358 -0.017630 0.191515
v 0.680358 -0.632656 0.191515
v 0.855389 -0.632656 0.191515
v -3.000824 -4.643460 0.000000
v 1.301425 -4.643459 0.000000
v -3.000824 5.356541 0.000000
v 1.301425 5.356541 0.000000
v -2.769747 5.125465 0.000000
v -2.769747 -4.412383 0.000000
v 1.070347 -4.412383 0.000000
v 1.070347 5.125465 0.000000
v -2.769747 5.125465 0.073863
v -2.769747 -4.412383 0.073862
v 1.070347 -4.412383 0.073862
v 1.070347 5.125465 0.073863
v -3.000824 5.356541 0.073863
v -3.000824 -4.643460 0.073862
v 1.301425 -4.643459 0.073862
v 1.301425 5.356541 0.073863
v -2.696469 5.058469 0.109595
v -2.696469 -4.345387 0.109595
v 0.997071 -4.345387 0.109595
v 0.997071 5.058469 0.109595
v -1.465290 -4.345387 0.109595
v -0.234111 -4.345387 0.109595
v -0.234111 5.058469 0.109595
v -1.465290 5.058469 0.109595
v -1.465290 -1.210768 0.109595
v -1.465290 1.923850 0.109595
v -0.234111 -1.210768 0.109595
v -0.234111 1.923850 0.109595
v -1.441651 1.984037 0.193902
v -0.257750 1.984037 0.193902
v -0.257750 4.998282 0.193902
v -1.441651 4.998282 0.193902
v -1.441651 -4.285201 0.193902
v -0.257750 -4.285200 0.193902
v -0.257750 -1.270955 0.193902
v -1.441651 -1.270955 0.193902
v -1.441651 -1.150581 0.193902
v -0.257750 -1.150581 0.193902
v -0.257750 1.863664 0.193902
v -1.441651 1.863664 0.193902
v 0.840435 0.068670 -0.250860
v 0.687454 0.068670 -0.250860
v 0.687454 -0.718940 -0.250860
v 0.840435 -0.718940 -0.250860
v 0.840435 0.068670 -0.212286
v 0.687454 0.068670 -0.212286
v 0.687454 -0.718940 -0.212286
v 0.840435 -0.718940 -0.212286
v 0.840435 0.143660 -0.212286
v 0.687454 0.143660 -0.212286
v 0.687454 -0.776931 -0.212286
v 0.840435 -0.776931 -0.212286
v 0.840435 0.068670 -0.094755
v 0.687454 0.068670 -0.094755
v 0.687454 -0.718940 -0.094755
v 0.840435 -0.718940 -0.094755
v 0.840435 0.143660 -0.094755
v 0.687454 0.143660 -0.094755
v 0.687454 -0.776931 -0.094755
v 0.840435 -0.776931 -0.094755
v 0.840435 0.143660 -0.214318
v 0.840435 0.107118 -0.250860
v 0.840435 0.132957 -0.240158
v 0.687454 0.107118 -0.250860
v 0.687454 0.143660 -0.214318
v 0.687454 0.132957 -0.240158
v 0.687454 -0.776931 -0.214318
v 0.687454 -0.740389 -0.250860
v 0.687454 -0.766228 -0.240158
v 0.840435 -0.740389 -0.250860
v 0.840435 -0.776931 -0.214318
v 0.840435 -0.766228 -0.240158
v 0.855389 -0.017630 -0.271633
v 0.680358 -0.017630 -0.271631
v 0.680358 -0.632656 -0.271631
v 0.855389 -0.632656 -0.271633
v 0.855389 -0.017630 -0.191514
v 0.680358 -0.017630 -0.191514
v 0.680358 -0.632656 -0.191514
v 0.855389 -0.632656 -0.191514
v -2.769747 5.125465 -0.073863
v -2.769747 -4.412383 -0.073862
v 1.070347 -4.412383 -0.073862
v 1.070347 5.125465 -0.073863
v -3.000824 5.356541 -0.073863
v -3.000824 -4.643460 -0.073862
v 1.301425 -4.643459 -0.073862
v 1.301425 5.356541 -0.073863
v -2.696469 5.058469 -0.109595
v -2.696469 -4.345387 -0.109595
v 0.997071 -4.345387 -0.109595
v 0.997071 5.058469 -0.109595
v -1.465290 -4.345387 -0.109595
v -0.234111 -4.345387 -0.109595
v -0.234111 5.058469 -0.109595
v -1.465290 5.058469 -0.109595
v -1.465290 -1.210768 -0.109595
v -1.465290 1.923850 -0.109595
v -0.234111 -1.210768 -0.109595
v -0.234111 1.923850 -0.109595
v -1.441651 1.984037 -0.193902
v -0.257750 1.984037 -0.193902
v -0.257750 4.998282 -0.193902
v -1.441651 4.998282 -0.193902
v -1.441651 -4.285201 -0.193902
v -0.257750 -4.285200 -0.193902
v -0.257750 -1.270955 -0.193902
v -1.441651 -1.270955 -0.193902
v -1.441651 -1.150581 -0.193902
v -0.257750 -1.150581 -0.193902
v -0.257750 1.863664 -0.193902
v -1.441651 1.863664 -0.193902
vn 1.0000 -0.0000 -0.0000
vn -0.0000 -1.0000 -0.0000
vn -1.0000 -0.0000 -0.0000
vn -0.0000 -0.0000 1.0000
vn -0.0000 -0.0000 -1.0000
vn -0.0000 1.0000 -0.0000
vn -0.0000 0.9239 0.3827
vn -0.0000 0.3827 0.9239
vn -0.0000 -0.9239 0.3827
vn -0.0000 -0.3827 0.9239
vn -0.0000 0.8532 0.5216
vn -0.0000 0.8419 0.5397
vn -0.0000 -0.8532 0.5216
vn -0.0000 -0.8419 0.5397
vn 0.8313 -0.0000 0.5558
vn -0.8313 -0.0000 0.5558
vn -0.0000 -0.8139 0.5810
vn 0.9629 -0.0000 0.2700
vn -0.0000 0.8139 0.5810
vn -0.9629 -0.0000 0.2700
vn -0.0000 0.9239 -0.3827
vn -0.0000 0.3827 -0.9239
vn -0.0000 -0.9239 -0.3827
vn -0.0000 -0.3827 -0.9239
vn -0.0000 0.8532 -0.5216
vn -0.0000 0.8419 -0.5397
vn -0.0000 -0.8532 -0.5216
vn -0.0000 -0.8419 -0.5397
vn 0.8313 -0.0000 -0.5558
vn -0.8313 -0.0000 -0.5558
vn -0.0000 -0.8139 -0.5810
vn 0.9629 -0.0000 -0.2700
vn -0.0000 0.8139 -0.5810
vn -0.9629 -0.0000 -0.2700
vt 0.409252 0.083711
vt 0.409252 0.083711
vt 0.409252 0.083711
vt 0.409252 0.083711
vt 0.409252 0.083711
vt 0.409252 0.083711
vt 0.409252 0.083711
vt 0.409252 0.083711
vt 0.409252 0.083711
vt 0.409252 0.083711
vt 0.409252 0.083711
vt 0.409252 0.083711
vt 0.409252 0.083711
vt 0.409252 0.083711
vt 0.409252 0.083711
vt 0.409252 0.083711
vt 0.409252 0.083711
vt 0.409252 0.083711
vt 0.409252 0.083711
vt 0.409252 0.083711
vt 0.409252 0.083711
vt 0.409252 0.083711
vt 0.409252 0.083711
vt 0.409252 0.083711
vt 0.409252 0.083711
vt 0.409252 0.083711
vt 0.409252 0.083711
vt 0.409252 0.083711
vt 0.409252 0.083711
vt 0.409252 0.083711
vt 0.409252 0.083711
vt 0.409252 0.083711
vt 0.251132 0.899114
vt 0.251132 0.899114
vt 0.251132 0.899114
vt 0.251132 0.899114
vt 0.251132 0.899114
vt 0.251132 0.899114
vt 0.251132 0.899114
vt 0.251132 0.899114
vt 0.260996 0.897246
vt 0.260996 0.897246
vt 0.260996 0.897246
vt 0.260996 0.897246
vt 0.260996 0.897246
vt 0.426832 0.151992
vt 0.260996 0.897246
vt 0.426832 0.151992
vt 0.260996 0.897246
vt 0.426832 0.151992
vt 0.260996 0.897246
vt 0.426832 0.151992
vt 0.260996 0.897246
vt 0.260996 0.897246
vt 0.260996 0.897246
vt 0.260996 0.897246
vt 0.260996 0.897246
vt 0.260996 0.897246
vt 0.260996 0.897246
vt 0.260996 0.897246
vt 0.426832 0.151992
vt 0.426832 0.151992
vt 0.426832 0.151992
vt 0.426832 0.151992
vt 0.426832 0.151992
vt 0.256310 0.914689
vt 0.426832 0.151992
vt 0.256310 0.914689
vt 0.426832 0.151992
vt 0.256310 0.914689
vt 0.426832 0.151992
vt 0.256310 0.914689
vt 0.426832 0.151992
vt 0.256310 0.914689
vt 0.426832 0.151992
vt 0.256310 0.914689
vt 0.426832 0.151992
vt 0.256310 0.914689
vt 0.426832 0.151992
vt 0.256310 0.914689
vt 0.256310 0.914689
vt 0.256310 0.914689
vt 0.256310 0.914689
vt 0.256310 0.914689
vt 0.256310 0.914689
vt 0.256310 0.914689
vt 0.256310 0.914689
vt 0.256310 0.914689
vt 0.256310 0.914689
vt 0.256310 0.914689
vt 0.256310 0.914689
vt 0.256310 0.914689
vt 0.409252 0.083711
vt 0.409252 0.083711
vt 0.409252 0.083711
vt 0.409252 0.083711
vt 0.409252 0.083711
vt 0.409252 0.083711
vt 0.409252 0.083711
vt 0.409252 0.083711
vt 0.409252 0.083711
vt 0.409252 0.083711
vt 0.409252 0.083711
vt 0.409252 0.083711
vt 0.409252 0.083711
vt 0.409252 0.083711
vt 0.409252 0.083711
vt 0.409252 0.083711
vt 0.409252 0.083711
vt 0.409252 0.083711
vt 0.409252 0.083711
vt 0.409252 0.083711
vt 0.409252 0.083711
vt 0.409252 0.083711
vt 0.409252 0.083711
vt 0.409252 0.083711
vt 0.409252 0.083711
vt 0.409252 0.083711
vt 0.409252 0.083711
vt 0.409252 0.083711
vt 0.409252 0.083711
vt 0.409252 0.083711
vt 0.409252 0.083711
vt 0.409252 0.083711
vt 0.251132 0.899114
vt 0.251132 0.899114
vt 0.251132 0.899114
vt 0.251132 0.899114
vt 0.251132 0.899114
vt 0.251132 0.899114
vt 0.251132 0.899114
vt 0.251132 0.899114
vt 0.260996 0.897246
vt 0.260996 0.897246
vt 0.260996 0.897246
vt 0.260996 0.897246
vt 0.260996 0.897246
vt 0.260996 0.897246
vt 0.260996 0.897246
vt 0.260996 0.897246
vt 0.426832 0.151992
vt 0.426832 0.151992
vt 0.426832 0.151992
vt 0.426832 0.151992
vt 0.426832 0.151992
vt 0.256310 0.914689
vt 0.426832 0.151992
vt 0.256310 0.914689
vt 0.426832 0.151992
vt 0.256310 0.914689
vt 0.426832 0.151992
vt 0.256310 0.914689
vt 0.426832 0.151992
vt 0.256310 0.914689
vt 0.426832 0.151992
vt 0.256310 0.914689
vt 0.426832 0.151992
vt 0.256310 0.914689
vt 0.426832 0.151992
vt 0.256310 0.914689
vt 0.256310 0.914689
vt 0.256310 0.914689
vt 0.256310 0.914689
vt 0.256310 0.914689
vt 0.256310 0.914689
vt 0.256310 0.914689
vt 0.256310 0.914689
vt 0.256310 0.914689
vt 0.256310 0.914689
vt 0.256310 0.914689
vt 0.256310 0.914689
vt 0.256310 0.914689
s 1
usemtl Material
f 4/4/1 8/8/1 5/5/1 1/1/1
f 5/5/2 6/6/2 14/14/2 13/13/2
f 8/8/1 4/4/1 30/30/1 32/32/1 31/31/1 12/12/1
f 2/2/3 6/6/3 7/7/3 3/3/3
f 1/1/4 2/2/4 3/3/4 4/4/4
f 5/5/5 8/8/5 7/7/5 6/6/5
f 1/1/1 5/5/1 9/9/1 21/21/1 23/23/1 22/22/1
f 21/21/6 9/9/6 10/10/6 25/25/6
f 4/4/4 3/3/4 28/28/4 30/30/4
f 6/6/3 2/2/3 24/24/3 26/26/3 25/25/3 10/10/3
f 3/3/3 7/7/3 11/11/3 27/27/3 29/29/3 28/28/3
f 9/9/1 5/5/1 13/13/1 17/17/1
f 27/27/2 11/11/2 12/12/2 31/31/2
f 13/13/5 14/14/5 18/18/5 17/17/5
f 15/15/5 16/16/5 20/20/5 19/19/5
f 11/11/3 7/7/3 15/15/3 19/19/3
f 10/10/6 9/9/6 17/17/6 18/18/6
f 7/7/6 8/8/6 16/16/6 15/15/6
f 8/8/1 12/12/1 20/20/1 16/16/1
f 6/6/3 10/10/3 18/18/3 14/14/3
f 12/12/2 11/11/2 19/19/2 20/20/2
f 21/21/7 25/25/7 26/26/7 23/23/7
f 23/23/8 26/26/8 24/24/8 22/22/8
f 27/27/9 31/31/9 32/32/9 29/29/9
f 29/29/10 32/32/10 30/30/10 28/28/10
f 2/2/4 1/1/4 22/22/4 24/24/4
f 36/36/1 40/40/1 37/37/1 33/33/1
f 34/34/3 38/38/3 39/39/3 35/35/3
f 33/33/4 34/34/4 35/35/4 36/36/4
f 37/37/5 40/40/5 39/39/5 38/38/5
f 34/34/6 33/33/6 37/37/6 38/38/6
f 36/36/2 35/35/2 39/39/2 40/40/2
f 48/52/11 45/46/11 57/61/11 64/71/12 63/69/12 60/64/11
f 46/47/1 45/45/1 49/53/1 50/54/1
f 48/51/3 47/49/3 51/55/3 52/56/3
f 43/43/3 41/41/3 54/58/3 53/57/3
f 42/42/1 44/44/1 56/60/1 55/59/1
f 50/54/4 49/53/4 53/57/4 54/58/4
f 51/55/4 50/54/4 54/58/4 55/59/4
f 52/56/4 51/55/4 55/59/4 56/60/4
f 49/53/4 52/56/4 56/60/4 53/57/4
f 44/44/6 43/43/6 53/57/6 56/60/6
f 41/41/2 42/42/2 55/59/2 54/58/2
f 45/45/2 48/51/2 52/56/2 49/53/2
f 47/49/6 46/47/6 50/54/6 51/55/6
f 62/67/4 59/63/4 60/64/4 63/69/4 68/79/4 67/77/4
f 46/48/13 47/50/13 59/63/13 62/67/14 61/65/14 58/62/13
f 47/50/15 48/52/15 60/64/15 59/63/15
f 45/46/16 46/48/16 58/62/16 57/61/16
f 58/62/4 61/65/4 65/73/4 66/75/4 64/71/4 57/61/4
f 69/81/4 70/82/4 71/83/4 72/84/4
f 68/80/17 70/82/17 69/81/17 66/76/17
f 63/70/18 71/83/18 70/82/18 68/80/18
f 64/72/12 72/84/19 71/83/19 63/70/12
f 66/76/20 69/81/20 72/84/20 64/72/20
f 73/85/4 74/86/4 75/87/4 76/88/4
f 62/68/14 74/86/17 73/85/17 61/66/14
f 67/78/18 75/87/18 74/86/18 62/68/18
f 65/74/19 76/88/19 75/87/19 67/78/19
f 61/66/20 73/85/20 76/88/20 65/74/20
f 77/89/4 78/90/4 79/91/4 80/92/4
f 67/78/17 78/90/17 77/89/17 65/74/17
f 68/80/18 79/91/18 78/90/18 67/78/18
f 66/76/19 80/92/19 79/91/19 68/80/19
f 65/74/20 77/89/20 80/92/20 66/76/20
f 84/96/1 81/93/1 85/97/1 88/100/1
f 85/97/2 93/105/2 94/106/2 86/98/2
f 88/100/1 92/104/1 111/123/1 112/124/1 110/122/1 84/96/1
f 82/94/3 83/95/3 87/99/3 86/98/3
f 81/93/5 84/96/5 83/95/5 82/94/5
f 85/97/4 86/98/4 87/99/4 88/100/4
f 81/93/1 102/114/1 103/115/1 101/113/1 89/101/1 85/97/1
f 101/113/6 105/117/6 90/102/6 89/101/6
f 84/96/5 110/122/5 108/120/5 83/95/5
f 86/98/3 90/102/3 105/117/3 106/118/3 104/116/3 82/94/3
f 83/95/3 108/120/3 109/121/3 107/119/3 91/103/3 87/99/3
f 89/101/1 97/109/1 93/105/1 85/97/1
f 107/119/2 111/123/2 92/104/2 91/103/2
f 93/105/4 97/109/4 98/110/4 94/106/4
f 95/107/4 99/111/4 100/112/4 96/108/4
f 91/103/3 99/111/3 95/107/3 87/99/3
f 90/102/6 98/110/6 97/109/6 89/101/6
f 87/99/6 95/107/6 96/108/6 88/100/6
f 88/100/1 96/108/1 100/112/1 92/104/1
f 86/98/3 94/106/3 98/110/3 90/102/3
f 92/104/2 100/112/2 99/111/2 91/103/2
f 101/113/21 103/115/21 106/118/21 105/117/21
f 103/115/22 102/114/22 104/116/22 106/118/22
f 107/119/23 109/121/23 112/124/23 111/123/23
f 109/121/24 108/120/24 110/122/24 112/124/24
f 82/94/5 104/116/5 102/114/5 81/93/5
f 116/128/1 113/125/1 117/129/1 120/132/1
f 114/126/3 115/127/3 119/131/3 118/130/3
f 113/125/5 116/128/5 115/127/5 114/126/5
f 117/129/4 118/130/4 119/131/4 120/132/4
f 114/126/6 118/130/6 117/129/6 113/125/6
f 116/128/2 120/132/2 119/131/2 115/127/2
f 48/52/25 132/144/25 135/149/26 136/151/26 129/141/25 45/46/25
f 46/47/1 122/134/1 121/133/1 45/45/1
f 48/51/3 124/136/3 123/135/3 47/49/3
f 43/43/3 125/137/3 126/138/3 41/41/3
f 42/42/1 127/139/1 128/140/1 44/44/1
f 122/134/5 126/138/5 125/137/5 121/133/5
f 123/135/5 127/139/5 126/138/5 122/134/5
f 124/136/5 128/140/5 127/139/5 123/135/5
f 121/133/5 125/137/5 128/140/5 124/136/5
f 44/44/6 128/140/6 125/137/6 43/43/6
f 41/41/2 126/138/2 127/139/2 42/42/2
f 45/45/2 121/133/2 124/136/2 48/51/2
f 47/49/6 123/135/6 122/134/6 46/47/6
f 134/147/5 139/157/5 140/159/5 135/149/5 132/144/5 131/143/5
f 46/48/27 130/142/27 133/145/28 134/147/28 131/143/27 47/50/27
f 47/50/29 131/143/29 132/144/29 48/52/29
f 45/46/30 129/141/30 130/142/30 46/48/30
f 130/142/5 129/141/5 136/151/5 138/155/5 137/153/5 133/145/5
f 141/161/5 144/164/5 143/163/5 142/162/5
f 140/160/31 138/156/31 141/161/31 142/162/31
f 135/150/32 140/160/32 142/162/32 143/163/32
f 136/152/26 135/150/26 143/163/33 144/164/33
f 138/156/34 136/152/34 144/164/34 141/161/34
f 145/165/5 148/168/5 147/167/5 146/166/5
f 134/148/28 133/146/28 145/165/31 146/166/31
f 139/158/32 134/148/32 146/166/32 147/167/32
f 137/154/33 139/158/33 147/167/33 148/168/33
f 133/146/34 137/154/34 148/168/34 145/165/34
f 149/169/5 152/172/5 151/171/5 150/170/5
f 139/158/31 137/154/31 149/169/31 150/170/31
f 140/160/32 139/158/32 150/170/32 151/171/32
f 138/156/33 140/160/33 151/171/33 152/172/33
f 137/154/34 138/156/34 152/172/34 149/169/34
