# Blender 3.4.1
# www.blender.org
mtllib door010.mtl
o door.009
v 0.994681 0.027211 0.442495
v 0.841702 0.027211 0.442495
v 0.841702 -0.760399 0.442495
v 0.994681 -0.760399 0.442495
v 0.994681 0.027211 0.403920
v 0.841702 0.027211 0.403920
v 0.841702 -0.760399 0.403920
v 0.994681 -0.760399 0.403920
v 0.994681 0.102202 0.403920
v 0.841702 0.102202 0.403920
v 0.841702 -0.818390 0.403920
v 0.994681 -0.818390 0.403920
v 0.994681 0.027211 0.286389
v 0.841702 0.027211 0.286388
v 0.841702 -0.760399 0.286388
v 0.994681 -0.760399 0.286389
v 0.994681 0.102202 0.286389
v 0.841702 0.102202 0.286388
v 0.841702 -0.818390 0.286388
v 0.994681 -0.818390 0.286389
v 0.994681 0.102202 0.405953
v 0.994681 0.065659 0.442495
v 0.994681 0.091499 0.431792
v 0.841702 0.065659 0.442495
v 0.841702 0.102202 0.405952
v 0.841702 0.091499 0.431792
v 0.841702 -0.818390 0.405952
v 0.841702 -0.781847 0.442495
v 0.841702 -0.807687 0.431792
v 0.994681 -0.781847 0.442495
v 0.994681 -0.818390 0.405953
v 0.994681 -0.807687 0.431792
v 1.009640 -0.059088 0.463267
v 0.834607 -0.059088 0.463266
v 0.834607 -0.674115 0.463266
v 1.009640 -0.674115 0.463267
v 1.009640 -0.059088 0.383149
v 0.834607 -0.059088 0.383149
v 0.834607 -0.674115 0.383149
v 1.009640 -0.674115 0.383149
v -2.950236 -4.684917 -0.000000
v 1.352013 -4.684917 -0.000000
v -2.950236 5.315084 -0.000000
v 1.352013 5.315084 -0.000000
v -2.719160 5.084007 0.199319
v -2.719160 -4.453841 0.199318
v 1.120938 -4.453841 0.199318
v 1.120938 5.084007 0.199319
v -2.719160 5.084007 0.264719
v -2.719160 -4.453841 0.264719
v 1.120938 -4.453841 0.264719
v 1.120938 5.084007 0.264719
v -2.950236 5.315084 0.264719
v -2.950236 -4.684917 0.264719
v 1.352013 -4.684917 0.264719
v 1.352013 5.315084 0.264719
v -2.394529 4.765660 0.300452
v -2.394529 -4.135495 0.300452
v 0.796307 -4.135494 0.300452
v 0.796307 4.765660 0.300452
v -2.645880 5.017011 0.300452
v -2.645880 -4.386845 0.300452
v 1.047658 -4.386845 0.300452
v 1.047658 5.017011 0.300452
v -2.095853 4.466981 0.139798
v -2.095853 -3.836816 0.139798
v 0.497631 -3.836815 0.139798
v 0.497631 4.466982 0.139798
v -2.394529 4.765660 0.139798
v -2.394529 -4.135495 0.139798
v 0.796307 -4.135494 0.139798
v 0.796307 4.765660 0.139798
v -2.095853 4.466981 -0.000000
v -2.095853 -3.836816 -0.000000
v 0.497631 -3.836815 -0.000000
v 0.497631 4.466982 -0.000000
v -2.095853 1.699049 -0.000000
v -2.095853 -1.068883 -0.000000
v 0.497631 -1.068883 -0.000000
v 0.497631 1.699049 -0.000000
v -2.027699 1.771785 0.119760
v 0.429477 1.771786 0.119761
v 0.429477 4.394246 0.119761
v -2.027699 4.394246 0.119761
v -2.027699 -3.764080 0.119760
v 0.429477 -3.764079 0.119760
v 0.429477 -1.141619 0.119760
v -2.027699 -1.141620 0.119760
v -2.027699 -0.996147 0.119760
v 0.429477 -0.996147 0.119760
v 0.429477 1.626313 0.119761
v -2.027699 1.626313 0.119760
v 0.994681 0.027211 -0.442495
v 0.841702 0.027211 -0.442495
v 0.841702 -0.760399 -0.442495
v 0.994681 -0.760399 -0.442495
v 0.994681 0.027211 -0.403920
v 0.841702 0.027211 -0.403920
v 0.841702 -0.760399 -0.403920
v 0.994681 -0.760399 -0.403920
v 0.994681 0.102202 -0.403920
v 0.841702 0.102202 -0.403920
v 0.841702 -0.818390 -0.403920
v 0.994681 -0.818390 -0.403920
v 0.994681 0.027211 -0.286389
v 0.841702 0.027211 -0.286388
v 0.841702 -0.760399 -0.286388
v 0.994681 -0.760399 -0.286389
v 0.994681 0.102202 -0.286389
v 0.841702 0.102202 -0.286388
v 0.841702 -0.818390 -0.286388
v 0.994681 -0.818390 -0.286389
v 0.994681 0.102202 -0.405953
v 0.994681 0.065659 -0.442495
v 0.994681 0.091499 -0.431792
v 0.841702 0.065659 -0.442495
v 0.841702 0.102202 -0.405952
v 0.841702 0.091499 -0.431792
v 0.841702 -0.818390 -0.405952
v 0.841702 -0.781847 -0.442495
v 0.841702 -0.807687 -0.431792
v 0.994681 -0.781847 -0.442495
v 0.994681 -0.818390 -0.405953
v 0.994681 -0.807687 -0.431792
v 1.009640 -0.059088 -0.463267
v 0.834607 -0.059088 -0.463266
v 0.834607 -0.674115 -0.463266
v 1.009640 -0.674115 -0.463267
v 1.009640 -0.059088 -0.383149
v 0.834607 -0.059088 -0.383149
v 0.834607 -0.674115 -0.383149
v 1.009640 -0.674115 -0.383149
v -2.719160 5.084007 -0.199319
v -2.719160 -4.453841 -0.199318
v 1.120938 -4.453841 -0.199318
v 1.120938 5.084007 -0.199319
v -2.719160 5.084007 -0.264719
v -2.719160 -4.453841 -0.264719
v 1.120938 -4.453841 -0.264719
v 1.120938 5.084007 -0.264719
v -2.950236 5.315084 -0.264719
v -2.950236 -4.684917 -0.264719
v 1.352013 -4.684917 -0.264719
v 1.352013 5.315084 -0.264719
v -2.394529 4.765660 -0.300452
v -2.394529 -4.135495 -0.300452
v 0.796307 -4.135494 -0.300452
v 0.796307 4.765660 -0.300452
v -2.645880 5.017011 -0.300452
v -2.645880 -4.386845 -0.300452
v 1.047658 -4.386845 -0.300452
v 1.047658 5.017011 -0.300452
v -2.095853 4.466981 -0.139799
v -2.095853 -3.836816 -0.139798
v 0.497631 -3.836815 -0.139798
v 0.497631 4.466982 -0.139799
v -2.394529 4.765660 -0.139799
v -2.394529 -4.135495 -0.139798
v 0.796307 -4.135494 -0.139798
v 0.796307 4.765660 -0.139799
v -2.027699 1.771785 -0.119761
v 0.429477 1.771786 -0.119761
v 0.429477 4.394246 -0.119761
v -2.027699 4.394246 -0.119761
v -2.027699 -3.764080 -0.119760
v 0.429477 -3.764079 -0.119760
v 0.429477 -1.141619 -0.119760
v -2.027699 -1.141620 -0.119760
v -2.027699 -0.996147 -0.119760
v 0.429477 -0.996147 -0.119760
v 0.429477 1.626313 -0.119761
v -2.027699 1.626313 -0.119761
vn 1.0000 -0.0000 -0.0000
vn -0.0000 -1.0000 -0.0000
vn -1.0000 -0.0000 -0.0000
vn -0.0000 -0.0000 1.0000
vn -0.0000 -0.0000 -1.0000
vn -0.0000 1.0000 -0.0000
vn -0.0000 0.9239 0.3827
vn -0.0000 0.3827 0.9239
vn -0.0000 -0.9239 0.3827
vn -0.0000 -0.3827 0.9239
vn -0.0000 0.8337 0.5523
vn -0.0000 -0.8337 0.5523
vn 0.8098 -0.0000 0.5868
vn -0.8098 -0.0000 0.5868
vn -0.0000 -0.8547 0.5191
vn 0.8691 -0.0000 0.4946
vn -0.0000 0.8547 0.5191
vn -0.8691 -0.0000 0.4946
vn -0.0000 0.9239 -0.3827
vn -0.0000 0.3827 -0.9239
vn -0.0000 -0.9239 -0.3827
vn -0.0000 -0.3827 -0.9239
vn -0.0000 0.8337 -0.5523
vn -0.0000 -0.8337 -0.5523
vn 0.8098 -0.0000 -0.5868
vn -0.8098 -0.0000 -0.5868
vn -0.0000 -0.8547 -0.5191
vn 0.8691 -0.0000 -0.4946
vn -0.0000 0.8547 -0.5191
vn -0.8691 -0.0000 -0.4946
vt 0.498652 0.483698
vt 0.498652 0.483698
vt 0.498652 0.483698
vt 0.498652 0.483698
vt 0.498652 0.483698
vt 0.498652 0.483698
vt 0.498652 0.483698
vt 0.498652 0.483698
vt 0.498652 0.483698
vt 0.498652 0.483698
vt 0.498652 0.483698
vt 0.498652 0.483698
vt 0.498652 0.483698
vt 0.498652 0.483698
vt 0.498652 0.483698
vt 0.498652 0.483698
vt 0.498652 0.483698
vt 0.498652 0.483698
vt 0.498652 0.483698
vt 0.498652 0.483698
vt 0.498652 0.483698
vt 0.498652 0.483698
vt 0.498652 0.483698
vt 0.498652 0.483698
vt 0.498652 0.483698
vt 0.498652 0.483698
vt 0.498652 0.483698
vt 0.498652 0.483698
vt 0.498652 0.483698
vt 0.498652 0.483698
vt 0.498652 0.483698
vt 0.498652 0.483698
vt 0.418835 0.081226
vt 0.418835 0.081226
vt 0.418835 0.081226
vt 0.418835 0.081226
vt 0.418835 0.081226
vt 0.418835 0.081226
vt 0.418835 0.081226
vt 0.418835 0.081226
vt 0.418835 0.081226
vt 0.418835 0.081226
vt 0.418835 0.081226
vt 0.418835 0.081226
vt 0.418835 0.081226
vt 0.498652 0.483698
vt 0.418835 0.081226
vt 0.498652 0.483698
vt 0.418835 0.081226
vt 0.498652 0.483698
vt 0.418835 0.081226
vt 0.498652 0.483698
vt 0.418835 0.081226
vt 0.418835 0.081226
vt 0.418835 0.081226
vt 0.418835 0.081226
vt 0.418835 0.081226
vt 0.418835 0.081226
vt 0.418835 0.081226
vt 0.418835 0.081226
vt 0.498652 0.483698
vt 0.498652 0.483698
vt 0.498652 0.483698
vt 0.498652 0.483698
vt 0.498652 0.483698
vt 0.498652 0.483698
vt 0.498652 0.483698
vt 0.498652 0.483698
vt 0.498652 0.483698
vt 0.498652 0.483698
vt 0.498652 0.483698
vt 0.498652 0.483698
vt 0.498652 0.483698
vt 0.498652 0.483698
vt 0.498652 0.483698
vt 0.498652 0.483698
vt 0.498652 0.483698
vt 0.498652 0.483698
vt 0.498652 0.483698
vt 0.498652 0.483698
vt 0.498652 0.483698
vt 0.498652 0.483698
vt 0.498652 0.483698
vt 0.498652 0.483698
vt 0.498652 0.483698
vt 0.498652 0.483698
vt 0.498652 0.483698
vt 0.498652 0.483698
vt 0.498652 0.483698
vt 0.498652 0.483698
vt 0.498652 0.483698
vt 0.498652 0.483698
vt 0.498652 0.483698
vt 0.498652 0.483698
vt 0.498652 0.483698
vt 0.498652 0.483698
vt 0.498652 0.483698
vt 0.498652 0.483698
vt 0.498652 0.483698
vt 0.498652 0.483698
vt 0.498652 0.483698
vt 0.498652 0.483698
vt 0.498652 0.483698
vt 0.498652 0.483698
vt 0.498652 0.483698
vt 0.498652 0.483698
vt 0.498652 0.483698
vt 0.498652 0.483698
vt 0.498652 0.483698
vt 0.498652 0.483698
vt 0.498652 0.483698
vt 0.498652 0.483698
vt 0.498652 0.483698
vt 0.498652 0.483698
vt 0.498652 0.483698
vt 0.498652 0.483698
vt 0.498652 0.483698
vt 0.498652 0.483698
vt 0.498652 0.483698
vt 0.498652 0.483698
vt 0.498652 0.483698
vt 0.498652 0.483698
vt 0.498652 0.483698
vt 0.498652 0.483698
vt 0.498652 0.483698
vt 0.498652 0.483698
vt 0.498652 0.483698
vt 0.498652 0.483698
vt 0.418835 0.081226
vt 0.418835 0.081226
vt 0.418835 0.081226
vt 0.418835 0.081226
vt 0.418835 0.081226
vt 0.418835 0.081226
vt 0.418835 0.081226
vt 0.418835 0.081226
vt 0.418835 0.081226
vt 0.498652 0.483698
vt 0.418835 0.081226
vt 0.498652 0.483698
vt 0.418835 0.081226
vt 0.498652 0.483698
vt 0.418835 0.081226
vt 0.498652 0.483698
vt 0.418835 0.081226
vt 0.418835 0.081226
vt 0.418835 0.081226
vt 0.418835 0.081226
vt 0.418835 0.081226
vt 0.418835 0.081226
vt 0.418835 0.081226
vt 0.418835 0.081226
vt 0.498652 0.483698
vt 0.498652 0.483698
vt 0.498652 0.483698
vt 0.498652 0.483698
vt 0.498652 0.483698
vt 0.498652 0.483698
vt 0.498652 0.483698
vt 0.498652 0.483698
vt 0.498652 0.483698
vt 0.498652 0.483698
vt 0.498652 0.483698
vt 0.498652 0.483698
vt 0.498652 0.483698
vt 0.498652 0.483698
vt 0.498652 0.483698
vt 0.498652 0.483698
vt 0.498652 0.483698
vt 0.498652 0.483698
vt 0.498652 0.483698
vt 0.498652 0.483698
vt 0.498652 0.483698
vt 0.498652 0.483698
vt 0.498652 0.483698
vt 0.498652 0.483698
vt 0.498652 0.483698
vt 0.498652 0.483698
vt 0.498652 0.483698
vt 0.498652 0.483698
s 1
usemtl Material
f 4/4/1 8/8/1 5/5/1 1/1/1
f 5/5/2 6/6/2 14/14/2 13/13/2
f 8/8/1 4/4/1 30/30/1 32/32/1 31/31/1 12/12/1
f 2/2/3 6/6/3 7/7/3 3/3/3
f 1/1/4 2/2/4 3/3/4 4/4/4
f 5/5/5 8/8/5 7/7/5 6/6/5
f 1/1/1 5/5/1 9/9/1 21/21/1 23/23/1 22/22/1
f 21/21/6 9/9/6 10/10/6 25/25/6
f 4/4/4 3/3/4 28/28/4 30/30/4
f 6/6/3 2/2/3 24/24/3 26/26/3 25/25/3 10/10/3
f 3/3/3 7/7/3 11/11/3 27/27/3 29/29/3 28/28/3
f 9/9/1 5/5/1 13/13/1 17/17/1
f 27/27/2 11/11/2 12/12/2 31/31/2
f 13/13/5 14/14/5 18/18/5 17/17/5
f 15/15/5 16/16/5 20/20/5 19/19/5
f 11/11/3 7/7/3 15/15/3 19/19/3
f 10/10/6 9/9/6 17/17/6 18/18/6
f 7/7/6 8/8/6 16/16/6 15/15/6
f 8/8/1 12/12/1 20/20/1 16/16/1
f 6/6/3 10/10/3 18/18/3 14/14/3
f 12/12/2 11/11/2 19/19/2 20/20/2
f 21/21/7 25/25/7 26/26/7 23/23/7
f 23/23/8 26/26/8 24/24/8 22/22/8
f 27/27/9 31/31/9 32/32/9 29/29/9
f 29/29/10 32/32/10 30/30/10 28/28/10
f 2/2/4 1/1/4 22/22/4 24/24/4
f 36/36/1 40/40/1 37/37/1 33/33/1
f 34/34/3 38/38/3 39/39/3 35/35/3
f 33/33/4 34/34/4 35/35/4 36/36/4
f 37/37/5 40/40/5 39/39/5 38/38/5
f 34/34/6 33/33/6 37/37/6 38/38/6
f 36/36/2 35/35/2 39/39/2 40/40/2
f 48/52/11 45/46/11 61/65/11 64/68/11
f 46/47/1 45/45/1 49/53/1 50/54/1
f 48/51/3 47/49/3 51/55/3 52/56/3
f 43/43/3 41/41/3 54/58/3 53/57/3
f 42/42/1 44/44/1 56/60/1 55/59/1
f 50/54/4 49/53/4 53/57/4 54/58/4
f 51/55/4 50/54/4 54/58/4 55/59/4
f 52/56/4 51/55/4 55/59/4 56/60/4
f 49/53/4 52/56/4 56/60/4 53/57/4
f 44/44/6 43/43/6 53/57/6 56/60/6
f 41/41/2 42/42/2 55/59/2 54/58/2
f 45/45/2 48/51/2 52/56/2 49/53/2
f 47/49/6 46/47/6 50/54/6 51/55/6
f 60/64/2 57/61/2 69/73/2 72/76/2
f 46/48/12 47/50/12 63/67/12 62/66/12
f 47/50/13 48/52/13 64/68/13 63/67/13
f 45/46/14 46/48/14 62/66/14 61/65/14
f 58/62/4 57/61/4 61/65/4 62/66/4
f 59/63/4 58/62/4 62/66/4 63/67/4
f 60/64/4 59/63/4 63/67/4 64/68/4
f 57/61/4 60/64/4 64/68/4 61/65/4
f 67/71/3 68/72/3 76/80/3 80/84/3 79/83/3 75/79/3
f 58/62/6 59/63/6 71/75/6 70/74/6
f 59/63/3 60/64/3 72/76/3 71/75/3
f 57/61/1 58/62/1 70/74/1 69/73/1
f 66/70/4 65/69/4 69/73/4 70/74/4
f 67/71/4 66/70/4 70/74/4 71/75/4
f 68/72/4 67/71/4 71/75/4 72/76/4
f 65/69/4 68/72/4 72/76/4 69/73/4
f 65/69/1 66/70/1 74/78/1 78/82/1 77/81/1 73/77/1
f 68/72/2 65/69/2 73/77/2 76/80/2
f 66/70/6 67/71/6 75/79/6 74/78/6
f 81/85/4 82/86/4 83/87/4 84/88/4
f 80/84/15 82/86/15 81/85/15 77/81/15
f 76/80/16 83/87/16 82/86/16 80/84/16
f 73/77/17 84/88/17 83/87/17 76/80/17
f 77/81/18 81/85/18 84/88/18 73/77/18
f 85/89/4 86/90/4 87/91/4 88/92/4
f 75/79/15 86/90/15 85/89/15 74/78/15
f 79/83/16 87/91/16 86/90/16 75/79/16
f 78/82/17 88/92/17 87/91/17 79/83/17
f 74/78/18 85/89/18 88/92/18 78/82/18
f 89/93/4 90/94/4 91/95/4 92/96/4
f 79/83/15 90/94/15 89/93/15 78/82/15
f 80/84/16 91/95/16 90/94/16 79/83/16
f 77/81/17 92/96/17 91/95/17 80/84/17
f 78/82/18 89/93/18 92/96/18 77/81/18
f 96/100/1 93/97/1 97/101/1 100/104/1
f 97/101/2 105/109/2 106/110/2 98/102/2
f 100/104/1 104/108/1 123/127/1 124/128/1 122/126/1 96/100/1
f 94/98/3 95/99/3 99/103/3 98/102/3
f 93/97/5 96/100/5 95/99/5 94/98/5
f 97/101/4 98/102/4 99/103/4 100/104/4
f 93/97/1 114/118/1 115/119/1 113/117/1 101/105/1 97/101/1
f 113/117/6 117/121/6 102/106/6 101/105/6
f 96/100/5 122/126/5 120/124/5 95/99/5
f 98/102/3 102/106/3 117/121/3 118/122/3 116/120/3 94/98/3
f 95/99/3 120/124/3 121/125/3 119/123/3 103/107/3 99/103/3
f 101/105/1 109/113/1 105/109/1 97/101/1
f 119/123/2 123/127/2 104/108/2 103/107/2
f 105/109/4 109/113/4 110/114/4 106/110/4
f 107/111/4 111/115/4 112/116/4 108/112/4
f 103/107/3 111/115/3 107/111/3 99/103/3
f 102/106/6 110/114/6 109/113/6 101/105/6
f 99/103/6 107/111/6 108/112/6 100/104/6
f 100/104/1 108/112/1 112/116/1 104/108/1
f 98/102/3 106/110/3 110/114/3 102/106/3
f 104/108/2 112/116/2 111/115/2 103/107/2
f 113/117/19 115/119/19 118/122/19 117/121/19
f 115/119/20 114/118/20 116/120/20 118/122/20
f 119/123/21 121/125/21 124/128/21 123/127/21
f 121/125/22 120/124/22 122/126/22 124/128/22
f 94/98/5 116/120/5 114/118/5 93/97/5
f 128/132/1 125/129/1 129/133/1 132/136/1
f 126/130/3 127/131/3 131/135/3 130/134/3
f 125/129/5 128/132/5 127/131/5 126/130/5
f 129/133/4 130/134/4 131/135/4 132/136/4
f 126/130/6 130/134/6 129/133/6 125/129/6
f 128/132/2 132/136/2 131/135/2 127/131/2
f 136/144/23 152/160/23 149/157/23 133/138/23
f 134/139/1 138/146/1 137/145/1 133/137/1
f 136/143/3 140/148/3 139/147/3 135/141/3
f 43/43/3 141/149/3 142/150/3 41/41/3
f 42/42/1 143/151/1 144/152/1 44/44/1
f 138/146/5 142/150/5 141/149/5 137/145/5
f 139/147/5 143/151/5 142/150/5 138/146/5
f 140/148/5 144/152/5 143/151/5 139/147/5
f 137/145/5 141/149/5 144/152/5 140/148/5
f 44/44/6 144/152/6 141/149/6 43/43/6
f 41/41/2 142/150/2 143/151/2 42/42/2
f 133/137/2 137/145/2 140/148/2 136/143/2
f 135/141/6 139/147/6 138/146/6 134/139/6
f 148/156/2 160/168/2 157/165/2 145/153/2
f 134/140/24 150/158/24 151/159/24 135/142/24
f 135/142/25 151/159/25 152/160/25 136/144/25
f 133/138/26 149/157/26 150/158/26 134/140/26
f 146/154/5 150/158/5 149/157/5 145/153/5
f 147/155/5 151/159/5 150/158/5 146/154/5
f 148/156/5 152/160/5 151/159/5 147/155/5
f 145/153/5 149/157/5 152/160/5 148/156/5
f 155/163/3 75/79/3 79/83/3 80/84/3 76/80/3 156/164/3
f 146/154/6 158/166/6 159/167/6 147/155/6
f 147/155/3 159/167/3 160/168/3 148/156/3
f 145/153/1 157/165/1 158/166/1 146/154/1
f 154/162/5 158/166/5 157/165/5 153/161/5
f 155/163/5 159/167/5 158/166/5 154/162/5
f 156/164/5 160/168/5 159/167/5 155/163/5
f 153/161/5 157/165/5 160/168/5 156/164/5
f 153/161/1 73/77/1 77/81/1 78/82/1 74/78/1 154/162/1
f 156/164/2 76/80/2 73/77/2 153/161/2
f 154/162/6 74/78/6 75/79/6 155/163/6
f 161/169/5 164/172/5 163/171/5 162/170/5
f 80/84/27 77/81/27 161/169/27 162/170/27
f 76/80/28 80/84/28 162/170/28 163/171/28
f 73/77/29 76/80/29 163/171/29 164/172/29
f 77/81/30 73/77/30 164/172/30 161/169/30
f 165/173/5 168/176/5 167/175/5 166/174/5
f 75/79/27 74/78/27 165/173/27 166/174/27
f 79/83/28 75/79/28 166/174/28 167/175/28
f 78/82/29 79/83/29 167/175/29 168/176/29
f 74/78/30 78/82/30 168/176/30 165/173/30
f 169/177/5 172/180/5 171/179/5 170/178/5
f 79/83/27 78/82/27 169/177/27 170/178/27
f 80/84/28 79/83/28 170/178/28 171/179/28
f 77/81/29 80/84/29 171/179/29 172/180/29
f 78/82/30 77/81/30 172/180/30 169/177/30
