# Blender 3.4.1
# www.blender.org
mtllib door008.mtl
o door.007
v 0.738441 0.099231 0.254827
v 0.585462 0.099231 0.254826
v 0.585462 -0.688380 0.254826
v 0.738441 -0.688380 0.254827
v 0.738441 0.099231 0.216252
v 0.585462 0.099231 0.216252
v 0.585462 -0.688380 0.216252
v 0.738441 -0.688380 0.216252
v 0.738441 0.174221 0.216252
v 0.585462 0.174221 0.216252
v 0.585462 -0.746371 0.216252
v 0.738441 -0.746371 0.216252
v 0.738441 0.099231 0.098720
v 0.585462 0.099231 0.098720
v 0.585462 -0.688380 0.098720
v 0.738441 -0.688380 0.098720
v 0.738441 0.174221 0.098720
v 0.585462 0.174221 0.098720
v 0.585462 -0.746371 0.098720
v 0.738441 -0.746371 0.098720
v 0.738441 0.174221 0.218284
v 0.738441 0.137679 0.254827
v 0.738441 0.163518 0.244124
v 0.585462 0.137679 0.254826
v 0.585462 0.174221 0.218284
v 0.585462 0.163518 0.244123
v 0.585462 -0.746371 0.218284
v 0.585462 -0.709828 0.254826
v 0.585462 -0.735667 0.244123
v 0.738441 -0.709828 0.254827
v 0.738441 -0.746371 0.218284
v 0.738441 -0.735667 0.244124
v 0.753399 0.012931 0.275598
v 0.578367 0.012931 0.275598
v 0.578367 -0.602096 0.275598
v 0.753399 -0.602096 0.275598
v 0.753399 0.012931 0.195481
v 0.578367 0.012931 0.195480
v 0.578367 -0.602096 0.195480
v 0.753399 -0.602096 0.195481
v -3.034776 -4.612899 -0.000000
v 1.267473 -4.612898 -0.000000
v -3.034776 5.387101 -0.000000
v 1.267473 5.387101 -0.000000
v -2.803696 5.156025 -0.000000
v -2.803701 -4.381822 -0.000000
v 1.036398 -4.381822 -0.000000
v 1.036398 5.156025 -0.000000
v -2.803696 5.156025 0.065401
v -2.803701 -4.381822 0.065401
v 1.036398 -4.381822 0.065401
v 1.036398 5.156025 0.065401
v -3.034776 5.387101 0.065401
v -3.034776 -4.612899 0.065401
v 1.267473 -4.612898 0.065401
v 1.267473 5.387101 0.065401
v -2.730421 5.089029 0.101134
v -2.730421 -4.314827 0.101133
v 0.963117 -4.314826 0.101133
v 0.963122 5.089029 0.101134
v -0.883649 -4.314826 0.101133
v -0.883649 5.089029 0.101134
v -2.730421 3.208259 0.101134
v -2.730421 1.327487 0.101134
v -2.730421 -0.553284 0.101133
v -2.730421 -2.434055 0.101133
v 0.963117 -2.434055 0.101133
v 0.963122 -0.553284 0.101133
v 0.963117 1.327487 0.101134
v 0.963117 3.208259 0.101134
v -0.883649 -2.434055 0.101133
v -0.883649 -0.553284 0.101133
v -0.883649 1.327487 0.101134
v -0.883649 3.208259 0.101134
v 0.738441 0.099231 -0.254827
v 0.585462 0.099231 -0.254826
v 0.585462 -0.688380 -0.254826
v 0.738441 -0.688380 -0.254827
v 0.738441 0.099231 -0.216252
v 0.585462 0.099231 -0.216252
v 0.585462 -0.688380 -0.216252
v 0.738441 -0.688380 -0.216252
v 0.738441 0.174221 -0.216252
v 0.585462 0.174221 -0.216252
v 0.585462 -0.746371 -0.216252
v 0.738441 -0.746371 -0.216252
v 0.738441 0.099231 -0.098720
v 0.585462 0.099231 -0.098720
v 0.585462 -0.688380 -0.098720
v 0.738441 -0.688380 -0.098720
v 0.738441 0.174221 -0.098720
v 0.585462 0.174221 -0.098720
v 0.585462 -0.746371 -0.098720
v 0.738441 -0.746371 -0.098720
v 0.738441 0.174221 -0.218284
v 0.738441 0.137679 -0.254827
v 0.738441 0.163518 -0.244124
v 0.585462 0.137679 -0.254826
v 0.585462 0.174221 -0.218284
v 0.585462 0.163518 -0.244123
v 0.585462 -0.746371 -0.218284
v 0.585462 -0.709828 -0.254826
v 0.585462 -0.735667 -0.244123
v 0.738441 -0.709828 -0.254827
v 0.738441 -0.746371 -0.218284
v 0.738441 -0.735667 -0.244124
v 0.753399 0.012931 -0.275598
v 0.578367 0.012931 -0.275598
v 0.578367 -0.602096 -0.275598
v 0.753399 -0.602096 -0.275598
v 0.753399 0.012931 -0.195481
v 0.578367 0.012931 -0.195480
v 0.578367 -0.602096 -0.195480
v 0.753399 -0.602096 -0.195481
v -2.803696 5.156025 -0.065401
v -2.803701 -4.381822 -0.065401
v 1.036398 -4.381822 -0.065401
v 1.036398 5.156025 -0.065401
v -3.034776 5.387101 -0.065401
v -3.034776 -4.612899 -0.065401
v 1.267473 -4.612898 -0.065401
v 1.267473 5.387101 -0.065401
v -2.730421 5.089029 -0.101134
v -2.730421 -4.314827 -0.101133
v 0.963117 -4.314826 -0.101133
v 0.963122 5.089029 -0.101134
v -0.883649 -4.314826 -0.101133
v -0.883649 5.089029 -0.101134
v -2.730421 3.208259 -0.101134
v -2.730421 1.327487 -0.101134
v -2.730421 -0.553284 -0.101133
v -2.730421 -2.434055 -0.101133
v 0.963117 -2.434055 -0.101133
v 0.963122 -0.553284 -0.101133
v 0.963117 1.327487 -0.101134
v 0.963117 3.208259 -0.101134
v -0.883649 -2.434055 -0.101133
v -0.883649 -0.553284 -0.101133
v -0.883649 1.327487 -0.101134
v -0.883649 3.208259 -0.101134
vn 1.0000 -0.0000 -0.0000
vn -0.0000 -1.0000 -0.0000
vn -1.0000 -0.0000 -0.0000
vn -0.0000 -0.0000 1.0000
vn -0.0000 -0.0000 -1.0000
vn -0.0000 1.0000 -0.0000
vn -0.0000 0.9239 0.3827
vn -0.0000 0.3827 0.9239
vn -0.0000 -0.9239 0.3827
vn -0.0000 -0.3827 0.9239
vn -0.0000 0.8337 0.5523
vn -0.0000 -0.8337 0.5523
vn 0.8098 -0.0000 0.5867
vn -0.8098 -0.0000 0.5867
vn -0.0000 0.9239 -0.3827
vn -0.0000 0.3827 -0.9239
vn -0.0000 -0.9239 -0.3827
vn -0.0000 -0.3827 -0.9239
vn -0.0000 0.8337 -0.5523
vn -0.0000 -0.8337 -0.5523
vn 0.8098 -0.0000 -0.5867
vn -0.8098 -0.0000 -0.5867
vt 0.409252 0.083711
vt 0.409252 0.083711
vt 0.409252 0.083711
vt 0.409252 0.083711
vt 0.409252 0.083711
vt 0.409252 0.083711
vt 0.409252 0.083711
vt 0.409252 0.083711
vt 0.409252 0.083711
vt 0.409252 0.083711
vt 0.409252 0.083711
vt 0.409252 0.083711
vt 0.409252 0.083711
vt 0.409252 0.083711
vt 0.409252 0.083711
vt 0.409252 0.083711
vt 0.409252 0.083711
vt 0.409252 0.083711
vt 0.409252 0.083711
vt 0.409252 0.083711
vt 0.409252 0.083711
vt 0.409252 0.083711
vt 0.409252 0.083711
vt 0.409252 0.083711
vt 0.409252 0.083711
vt 0.409252 0.083711
vt 0.409252 0.083711
vt 0.409252 0.083711
vt 0.409252 0.083711
vt 0.409252 0.083711
vt 0.409252 0.083711
vt 0.409252 0.083711
vt 0.461844 0.904866
vt 0.461844 0.904866
vt 0.461844 0.904866
vt 0.461844 0.904866
vt 0.461844 0.904866
vt 0.461844 0.904866
vt 0.461844 0.904866
vt 0.461844 0.904866
vt 0.461844 0.904866
vt 0.461844 0.904866
vt 0.461844 0.904866
vt 0.461844 0.904866
vt 0.461844 0.904866
vt 0.426832 0.151992
vt 0.461844 0.904866
vt 0.426832 0.151992
vt 0.461844 0.904866
vt 0.426832 0.151992
vt 0.461844 0.904866
vt 0.426832 0.151992
vt 0.461844 0.904866
vt 0.461844 0.904866
vt 0.461844 0.904866
vt 0.461844 0.904866
vt 0.461844 0.904866
vt 0.461844 0.904866
vt 0.461844 0.904866
vt 0.461844 0.904866
vt 0.426832 0.151992
vt 0.426832 0.151992
vt 0.426832 0.151992
vt 0.461844 0.904866
vt 0.461844 0.904866
vt 0.426832 0.151992
vt 0.426832 0.151992
vt 0.461844 0.904866
vt 0.461844 0.904866
vt 0.426832 0.151992
vt 0.426832 0.151992
vt 0.461844 0.904866
vt 0.426832 0.151992
vt 0.461844 0.904866
vt 0.461844 0.904866
vt 0.426832 0.151992
vt 0.426832 0.151992
vt 0.461844 0.904866
vt 0.461844 0.904866
vt 0.426832 0.151992
vt 0.426832 0.151992
vt 0.461844 0.904866
vt 0.461844 0.904866
vt 0.426832 0.151992
vt 0.461844 0.904866
vt 0.426832 0.151992
vt 0.461844 0.904866
vt 0.426832 0.151992
vt 0.426832 0.151992
vt 0.461844 0.904866
vt 0.461844 0.904866
vt 0.426832 0.151992
vt 0.461844 0.904866
vt 0.426832 0.151992
vt 0.409252 0.083711
vt 0.409252 0.083711
vt 0.409252 0.083711
vt 0.409252 0.083711
vt 0.409252 0.083711
vt 0.409252 0.083711
vt 0.409252 0.083711
vt 0.409252 0.083711
vt 0.409252 0.083711
vt 0.409252 0.083711
vt 0.409252 0.083711
vt 0.409252 0.083711
vt 0.409252 0.083711
vt 0.409252 0.083711
vt 0.409252 0.083711
vt 0.409252 0.083711
vt 0.409252 0.083711
vt 0.409252 0.083711
vt 0.409252 0.083711
vt 0.409252 0.083711
vt 0.409252 0.083711
vt 0.409252 0.083711
vt 0.409252 0.083711
vt 0.409252 0.083711
vt 0.409252 0.083711
vt 0.409252 0.083711
vt 0.409252 0.083711
vt 0.409252 0.083711
vt 0.409252 0.083711
vt 0.409252 0.083711
vt 0.409252 0.083711
vt 0.409252 0.083711
vt 0.461844 0.904866
vt 0.461844 0.904866
vt 0.461844 0.904866
vt 0.461844 0.904866
vt 0.461844 0.904866
vt 0.461844 0.904866
vt 0.461844 0.904866
vt 0.461844 0.904866
vt 0.461844 0.904866
vt 0.461844 0.904866
vt 0.461844 0.904866
vt 0.461844 0.904866
vt 0.461844 0.904866
vt 0.461844 0.904866
vt 0.461844 0.904866
vt 0.461844 0.904866
vt 0.426832 0.151992
vt 0.426832 0.151992
vt 0.426832 0.151992
vt 0.461844 0.904866
vt 0.461844 0.904866
vt 0.426832 0.151992
vt 0.426832 0.151992
vt 0.461844 0.904866
vt 0.461844 0.904866
vt 0.426832 0.151992
vt 0.426832 0.151992
vt 0.461844 0.904866
vt 0.426832 0.151992
vt 0.461844 0.904866
vt 0.461844 0.904866
vt 0.426832 0.151992
vt 0.426832 0.151992
vt 0.461844 0.904866
vt 0.461844 0.904866
vt 0.426832 0.151992
vt 0.426832 0.151992
vt 0.461844 0.904866
vt 0.461844 0.904866
vt 0.426832 0.151992
vt 0.461844 0.904866
vt 0.426832 0.151992
vt 0.461844 0.904866
vt 0.426832 0.151992
vt 0.426832 0.151992
vt 0.461844 0.904866
vt 0.461844 0.904866
vt 0.426832 0.151992
vt 0.461844 0.904866
vt 0.426832 0.151992
s 1
usemtl Material
f 4/4/1 8/8/1 5/5/1 1/1/1
f 5/5/2 6/6/2 14/14/2 13/13/2
f 8/8/1 4/4/1 30/30/1 32/32/1 31/31/1 12/12/1
f 2/2/3 6/6/3 7/7/3 3/3/3
f 1/1/4 2/2/4 3/3/4 4/4/4
f 5/5/5 8/8/5 7/7/5 6/6/5
f 1/1/1 5/5/1 9/9/1 21/21/1 23/23/1 22/22/1
f 21/21/6 9/9/6 10/10/6 25/25/6
f 4/4/4 3/3/4 28/28/4 30/30/4
f 6/6/3 2/2/3 24/24/3 26/26/3 25/25/3 10/10/3
f 3/3/3 7/7/3 11/11/3 27/27/3 29/29/3 28/28/3
f 9/9/1 5/5/1 13/13/1 17/17/1
f 27/27/2 11/11/2 12/12/2 31/31/2
f 13/13/5 14/14/5 18/18/5 17/17/5
f 15/15/5 16/16/5 20/20/5 19/19/5
f 11/11/3 7/7/3 15/15/3 19/19/3
f 10/10/6 9/9/6 17/17/6 18/18/6
f 7/7/6 8/8/6 16/16/6 15/15/6
f 8/8/1 12/12/1 20/20/1 16/16/1
f 6/6/3 10/10/3 18/18/3 14/14/3
f 12/12/2 11/11/2 19/19/2 20/20/2
f 21/21/7 25/25/7 26/26/7 23/23/7
f 23/23/8 26/26/8 24/24/8 22/22/8
f 27/27/9 31/31/9 32/32/9 29/29/9
f 29/29/10 32/32/10 30/30/10 28/28/10
f 2/2/4 1/1/4 22/22/4 24/24/4
f 36/36/1 40/40/1 37/37/1 33/33/1
f 34/34/3 38/38/3 39/39/3 35/35/3
f 33/33/4 34/34/4 35/35/4 36/36/4
f 37/37/5 40/40/5 39/39/5 38/38/5
f 34/34/6 33/33/6 37/37/6 38/38/6
f 36/36/2 35/35/2 39/39/2 40/40/2
f 48/52/11 45/46/11 57/61/11 62/70/11 60/66/11
f 46/47/1 45/45/1 49/53/1 50/54/1
f 48/51/3 47/49/3 51/55/3 52/56/3
f 43/43/3 41/41/3 54/58/3 53/57/3
f 42/42/1 44/44/1 56/60/1 55/59/1
f 50/54/4 49/53/4 53/57/4 54/58/4
f 51/55/4 50/54/4 54/58/4 55/59/4
f 52/56/4 51/55/4 55/59/4 56/60/4
f 49/53/4 52/56/4 56/60/4 53/57/4
f 44/44/6 43/43/6 53/57/6 56/60/6
f 41/41/2 42/42/2 55/59/2 54/58/2
f 45/45/2 48/51/2 52/56/2 49/53/2
f 47/49/6 46/47/6 50/54/6 51/55/6
f 74/93/4 70/85/4 60/65/4 62/69/4
f 46/48/12 47/50/12 59/63/12 61/67/12 58/62/12
f 47/50/13 48/52/13 60/66/13 70/86/13 69/84/13 68/81/13 67/80/13 59/63/13
f 45/46/14 46/48/14 58/62/14 66/77/14 65/76/14 64/73/14 63/71/14 57/61/14
f 63/71/4 74/94/4 62/70/4 57/61/4
f 58/62/4 61/67/4 71/88/4 66/77/4
f 66/78/4 71/87/4 72/90/4 65/75/4
f 65/76/4 72/89/4 73/92/4 64/73/4
f 64/74/4 73/91/4 74/93/4 63/72/4
f 61/68/4 59/64/4 67/79/4 71/87/4
f 71/88/4 67/80/4 68/81/4 72/89/4
f 72/90/4 68/82/4 69/83/4 73/91/4
f 73/92/4 69/84/4 70/86/4 74/94/4
f 78/98/1 75/95/1 79/99/1 82/102/1
f 79/99/2 87/107/2 88/108/2 80/100/2
f 82/102/1 86/106/1 105/125/1 106/126/1 104/124/1 78/98/1
f 76/96/3 77/97/3 81/101/3 80/100/3
f 75/95/5 78/98/5 77/97/5 76/96/5
f 79/99/4 80/100/4 81/101/4 82/102/4
f 75/95/1 96/116/1 97/117/1 95/115/1 83/103/1 79/99/1
f 95/115/6 99/119/6 84/104/6 83/103/6
f 78/98/5 104/124/5 102/122/5 77/97/5
f 80/100/3 84/104/3 99/119/3 100/120/3 98/118/3 76/96/3
f 77/97/3 102/122/3 103/123/3 101/121/3 85/105/3 81/101/3
f 83/103/1 91/111/1 87/107/1 79/99/1
f 101/121/2 105/125/2 86/106/2 85/105/2
f 87/107/4 91/111/4 92/112/4 88/108/4
f 89/109/4 93/113/4 94/114/4 90/110/4
f 85/105/3 93/113/3 89/109/3 81/101/3
f 84/104/6 92/112/6 91/111/6 83/103/6
f 81/101/6 89/109/6 90/110/6 82/102/6
f 82/102/1 90/110/1 94/114/1 86/106/1
f 80/100/3 88/108/3 92/112/3 84/104/3
f 86/106/2 94/114/2 93/113/2 85/105/2
f 95/115/15 97/117/15 100/120/15 99/119/15
f 97/117/16 96/116/16 98/118/16 100/120/16
f 101/121/17 103/123/17 106/126/17 105/125/17
f 103/123/18 102/122/18 104/124/18 106/126/18
f 76/96/5 98/118/5 96/116/5 75/95/5
f 110/130/1 107/127/1 111/131/1 114/134/1
f 108/128/3 109/129/3 113/133/3 112/132/3
f 107/127/5 110/130/5 109/129/5 108/128/5
f 111/131/4 112/132/4 113/133/4 114/134/4
f 108/128/6 112/132/6 111/131/6 107/127/6
f 110/130/2 114/134/2 113/133/2 109/129/2
f 48/52/19 126/148/19 128/152/19 123/143/19 45/46/19
f 46/47/1 116/136/1 115/135/1 45/45/1
f 48/51/3 118/138/3 117/137/3 47/49/3
f 43/43/3 119/139/3 120/140/3 41/41/3
f 42/42/1 121/141/1 122/142/1 44/44/1
f 116/136/5 120/140/5 119/139/5 115/135/5
f 117/137/5 121/141/5 120/140/5 116/136/5
f 118/138/5 122/142/5 121/141/5 117/137/5
f 115/135/5 119/139/5 122/142/5 118/138/5
f 44/44/6 122/142/6 119/139/6 43/43/6
f 41/41/2 120/140/2 121/141/2 42/42/2
f 45/45/2 115/135/2 118/138/2 48/51/2
f 47/49/6 117/137/6 116/136/6 46/47/6
f 140/175/5 128/151/5 126/147/5 136/167/5
f 46/48/20 124/144/20 127/149/20 125/145/20 47/50/20
f 47/50/21 125/145/21 133/162/21 134/163/21 135/166/21 136/168/21 126/148/21 48/52/21
f 45/46/22 123/143/22 129/153/22 130/155/22 131/158/22 132/159/22 124/144/22 46/48/22
f 129/153/5 123/143/5 128/152/5 140/176/5
f 124/144/5 132/159/5 137/170/5 127/149/5
f 132/160/5 131/157/5 138/172/5 137/169/5
f 131/158/5 130/155/5 139/174/5 138/171/5
f 130/156/5 129/154/5 140/175/5 139/173/5
f 127/150/5 137/169/5 133/161/5 125/146/5
f 137/170/5 138/171/5 134/163/5 133/162/5
f 138/172/5 139/173/5 135/165/5 134/164/5
f 139/174/5 140/176/5 136/168/5 135/166/5
