# Blender 3.4.1
# www.blender.org
mtllib fauset007.mtl
o fauset.006
v 0.292876 -0.051849 -0.094548
v 0.275835 -0.051849 -0.087577
v 0.268648 -0.051849 -0.070610
v 0.275666 -0.051849 -0.053463
v 0.292876 -0.051849 -0.046320
v 0.310087 -0.051849 -0.053463
v 0.317104 -0.051849 -0.070610
v 0.309917 -0.051849 -0.087577
v 0.309917 -0.269108 -0.087577
v 0.317104 -0.269108 -0.070610
v 0.310087 -0.269108 -0.053463
v 0.292876 -0.269108 -0.046320
v 0.275666 -0.269108 -0.053463
v 0.268649 -0.269108 -0.070610
v 0.275836 -0.269108 -0.087577
v 0.292876 -0.269108 -0.094548
v 0.335875 -0.353467 -0.194297
v 0.335875 -0.265520 -0.158319
v 0.335875 -0.228429 -0.070754
v 0.335875 -0.264644 0.017739
v 0.335875 -0.353467 0.054605
v 0.335875 -0.442291 0.017739
v 0.335875 -0.478506 -0.070754
v 0.335875 -0.441414 -0.158319
v -0.170790 -0.441415 -0.158319
v -0.170790 -0.478506 -0.070754
v -0.170790 -0.442291 0.017739
v -0.170790 -0.353468 0.054605
v -0.170790 -0.264644 0.017739
v -0.170790 -0.228429 -0.070754
v -0.170790 -0.265520 -0.158319
v -0.170790 -0.353468 -0.194297
v -0.119389 -0.638741 -0.114170
v -0.137740 -0.638741 -0.069865
v -0.119389 -0.638741 -0.025560
v -0.075084 -0.638741 -0.007208
v -0.030779 -0.638741 -0.025560
v -0.012427 -0.638741 -0.069865
v -0.030778 -0.638741 -0.114170
v -0.075084 -0.638741 -0.132522
v -0.119389 0.535557 -0.113957
v -0.137741 0.531214 -0.069865
v -0.119389 0.526872 -0.025773
v -0.075084 0.525073 -0.007510
v -0.030779 0.526872 -0.025773
v -0.012427 0.531214 -0.069865
v -0.030779 0.535557 -0.113957
v -0.075084 0.537356 -0.132220
v -0.119389 0.591646 -0.102149
v -0.137741 0.574691 -0.061217
v -0.119389 0.557737 -0.020284
v -0.075084 0.550714 -0.003329
v -0.030779 0.557737 -0.020284
v -0.012427 0.574691 -0.061217
v -0.030779 0.591646 -0.102149
v -0.075084 0.598669 -0.119104
v -0.119389 0.642878 -0.067917
v -0.137741 0.611550 -0.036589
v -0.119389 0.580221 -0.005260
v -0.075084 0.567245 0.007716
v -0.030779 0.580221 -0.005260
v -0.012427 0.611550 -0.036589
v -0.030779 0.642878 -0.067917
v -0.075084 0.655855 -0.080894
v -0.119389 0.677110 -0.016685
v -0.137741 0.636178 0.000269
v -0.119389 0.595245 0.017224
v -0.075084 0.578290 0.024247
v -0.030779 0.595245 0.017224
v -0.012427 0.636178 0.000269
v -0.030779 0.677110 -0.016685
v -0.075084 0.694065 -0.023708
v -0.119389 0.688918 0.039404
v -0.137741 0.644826 0.043747
v -0.119389 0.600734 0.048089
v -0.075084 0.582471 0.049888
v -0.030779 0.600734 0.048089
v -0.012427 0.644826 0.043747
v -0.030779 0.688918 0.039404
v -0.075084 0.707181 0.037605
v -0.119389 0.689131 0.684746
v -0.137741 0.644826 0.684746
v -0.119389 0.600521 0.684746
v -0.075084 0.582169 0.684746
v -0.030779 0.600521 0.684746
v -0.012427 0.644826 0.684746
v -0.030779 0.689131 0.684746
v -0.075084 0.707483 0.684746
v -0.119389 -0.668956 -0.114170
v -0.075084 -0.668956 -0.132522
v -0.137740 -0.668956 -0.069865
v -0.119389 -0.668956 -0.025560
v -0.075084 -0.668956 -0.007208
v -0.030778 -0.668956 -0.025560
v -0.012427 -0.668956 -0.069865
v -0.030778 -0.668956 -0.114170
v -0.175698 -0.638741 -0.170480
v -0.075084 -0.638741 -0.212156
v -0.217375 -0.638741 -0.069865
v -0.175699 -0.638741 0.030750
v -0.075084 -0.638741 0.072426
v 0.025531 -0.638741 0.030750
v 0.067207 -0.638741 -0.069865
v 0.025531 -0.638741 -0.170480
v -0.175698 -0.668956 -0.170480
v -0.075084 -0.668956 -0.212156
v -0.217375 -0.668956 -0.069865
v -0.175699 -0.668956 0.030750
v -0.075084 -0.668956 0.072426
v 0.025531 -0.668956 0.030750
v 0.067207 -0.668956 -0.069865
v 0.025531 -0.668956 -0.170480
vn 0.9208 -0.0000 -0.3900
vn -0.3786 -0.0000 -0.9255
vn 0.3786 -0.0000 -0.9255
vn -0.3833 -0.0000 0.9236
vn -0.9255 -0.0000 0.3788
vn -0.0000 1.0000 -0.0000
vn 0.3833 -0.0000 0.9236
vn -0.9208 -0.0000 -0.3900
vn -0.0000 -1.0000 -0.0000
vn 0.9255 -0.0000 0.3788
vn -0.0000 -0.9208 -0.3900
vn -0.0000 -1.0000 -0.0070
vn -0.0000 0.3786 -0.9255
vn -0.0000 -0.3786 -0.9255
vn -0.0000 0.3833 0.9236
vn -0.0000 0.9255 0.3788
vn -0.0000 1.0000 -0.0070
vn 1.0000 -0.0000 -0.0000
vn -0.0000 -0.3833 0.9236
vn -0.0000 0.9208 -0.3900
vn -1.0000 -0.0000 -0.0000
vn -0.0000 -0.9255 0.3788
vn -0.3819 0.0002 -0.9242
vn -0.9236 -0.0000 -0.3835
vn -0.9236 -0.0000 0.3835
vn -0.3819 0.0002 0.9242
vn 0.3819 0.0002 0.9242
vn 0.9236 -0.0000 0.3835
vn 0.9236 -0.0000 -0.3835
vn 0.3819 0.0002 -0.9242
vn -0.3789 0.1922 -0.9053
vn -0.9223 0.0778 -0.3786
vn -0.9222 -0.0723 0.3800
vn -0.3782 -0.1561 0.9125
vn 0.3782 -0.1561 0.9125
vn 0.9222 -0.0723 0.3800
vn 0.9223 0.0778 -0.3786
vn 0.3789 0.1922 -0.9053
vn -0.3764 0.5147 -0.7703
vn -0.9212 0.2161 -0.3235
vn -0.9212 -0.2161 0.3235
vn -0.3764 -0.5147 0.7703
vn 0.3764 -0.5147 0.7703
vn 0.9212 -0.2161 0.3235
vn 0.9212 0.2161 -0.3235
vn 0.3764 0.5147 -0.7703
vn -0.3764 0.7703 -0.5147
vn -0.9212 0.3235 -0.2161
vn -0.9212 -0.3235 0.2161
vn -0.3764 -0.7703 0.5147
vn 0.3764 -0.7703 0.5147
vn 0.9212 -0.3235 0.2161
vn 0.9212 0.3235 -0.2161
vn 0.3764 0.7703 -0.5147
vn -0.3789 0.9053 -0.1922
vn -0.9223 0.3786 -0.0778
vn -0.9222 -0.3800 0.0723
vn -0.3782 -0.9125 0.1561
vn 0.3782 -0.9125 0.1561
vn 0.9222 -0.3800 0.0723
vn 0.9223 0.3786 -0.0778
vn 0.3789 0.9053 -0.1922
vn -0.3819 0.9242 -0.0004
vn -0.9236 0.3835 -0.0001
vn -0.9236 -0.3835 -0.0001
vn -0.3819 -0.9242 -0.0004
vn 0.3819 -0.9242 -0.0004
vn 0.9236 -0.3835 -0.0001
vn 0.9236 0.3835 -0.0001
vn 0.3819 0.9242 -0.0004
vn -0.0000 -0.0000 1.0000
vn -0.3827 -0.0000 0.9239
vn 0.9239 -0.0000 -0.3827
vn -0.9239 -0.0000 -0.3827
vn 0.3827 -0.0000 0.9239
vn 0.3827 -0.0000 -0.9239
vn -0.3827 -0.0000 -0.9239
vn -0.9239 -0.0000 0.3827
vn 0.9239 -0.0000 0.3827
vt 0.412051 0.103174
vt 0.412051 0.103174
vt 0.412051 0.103174
vt 0.412051 0.103174
vt 0.412051 0.103174
vt 0.412051 0.103174
vt 0.412051 0.103174
vt 0.412051 0.103174
vt 0.412051 0.103174
vt 0.412051 0.103174
vt 0.412051 0.103174
vt 0.412051 0.103174
vt 0.412051 0.103174
vt 0.412051 0.103174
vt 0.412051 0.103174
vt 0.412051 0.103174
vt 0.412051 0.103174
vt 0.412051 0.103174
vt 0.412051 0.103174
vt 0.412051 0.103174
vt 0.412051 0.103174
vt 0.412051 0.103174
vt 0.412051 0.103174
vt 0.412051 0.103174
vt 0.412051 0.103174
vt 0.412051 0.103174
vt 0.412051 0.103174
vt 0.412051 0.103174
vt 0.412051 0.103174
vt 0.412051 0.103174
vt 0.412051 0.103174
vt 0.412051 0.103174
vt 0.412051 0.103174
vt 0.412051 0.103174
vt 0.412051 0.103174
vt 0.412051 0.103174
vt 0.412051 0.103174
vt 0.412051 0.103174
vt 0.412051 0.103174
vt 0.412051 0.103174
vt 0.412051 0.103174
vt 0.412051 0.103174
vt 0.412051 0.103174
vt 0.412051 0.103174
vt 0.412051 0.103174
vt 0.412051 0.103174
vt 0.412051 0.103174
vt 0.412051 0.103174
vt 0.412051 0.103174
vt 0.412051 0.103174
vt 0.412051 0.103174
vt 0.412051 0.103174
vt 0.412051 0.103174
vt 0.412051 0.103174
vt 0.412051 0.103174
vt 0.412051 0.103174
vt 0.412051 0.103174
vt 0.412051 0.103174
vt 0.412051 0.103174
vt 0.412051 0.103174
vt 0.412051 0.103174
vt 0.412051 0.103174
vt 0.412051 0.103174
vt 0.412051 0.103174
vt 0.412051 0.103174
vt 0.412051 0.103174
vt 0.412051 0.103174
vt 0.412051 0.103174
vt 0.412051 0.103174
vt 0.412051 0.103174
vt 0.412051 0.103174
vt 0.412051 0.103174
vt 0.412051 0.103174
vt 0.412051 0.103174
vt 0.412051 0.103174
vt 0.412051 0.103174
vt 0.412051 0.103174
vt 0.412051 0.103174
vt 0.412051 0.103174
vt 0.412051 0.103174
vt 0.412051 0.103174
vt 0.412051 0.103174
vt 0.412051 0.103174
vt 0.412051 0.103174
vt 0.412051 0.103174
vt 0.412051 0.103174
vt 0.412051 0.103174
vt 0.412051 0.103174
vt 0.412051 0.103174
vt 0.412051 0.103174
vt 0.412051 0.103174
vt 0.412051 0.103174
vt 0.412051 0.103174
vt 0.412051 0.103174
vt 0.412051 0.103174
vt 0.412051 0.103174
vt 0.412051 0.103174
vt 0.412051 0.103174
vt 0.412051 0.103174
vt 0.412051 0.103174
vt 0.412051 0.103174
vt 0.412051 0.103174
vt 0.412051 0.103174
vt 0.412051 0.103174
vt 0.412051 0.103174
vt 0.412051 0.103174
vt 0.412051 0.103174
vt 0.412051 0.103174
vt 0.412051 0.103174
vt 0.412051 0.103174
vt 0.412051 0.103174
vt 0.412051 0.103174
s 1
usemtl Material
f 9/9/1 8/8/1 7/7/1 10/10/1
f 15/15/2 2/2/2 1/1/2 16/16/2
f 16/16/3 1/1/3 8/8/3 9/9/3
f 12/12/4 5/5/4 4/4/4 13/13/4
f 13/13/5 4/4/5 3/3/5 14/14/5
f 1/1/6 2/2/6 3/3/6 4/4/6 5/5/6 6/6/6 7/7/6 8/8/6
f 11/11/7 6/6/7 5/5/7 12/12/7
f 14/14/8 3/3/8 2/2/8 15/15/8
f 16/16/9 9/9/9 10/10/9 11/11/9 12/12/9 13/13/9 14/14/9 15/15/9
f 10/10/10 7/7/10 6/6/10 11/11/10
f 25/25/11 24/24/11 23/23/12 26/26/12
f 31/31/13 18/18/13 17/17/13 32/32/13
f 32/32/14 17/17/14 24/24/14 25/25/14
f 28/28/15 21/21/15 20/20/15 29/29/15
f 29/29/16 20/20/16 19/19/17 30/30/17
f 17/17/18 18/18/18 19/19/18 20/20/18 21/21/18 22/22/18 23/23/18 24/24/18
f 27/27/19 22/22/19 21/21/19 28/28/19
f 30/30/17 19/19/17 18/18/20 31/31/20
f 32/32/21 25/25/21 26/26/21 27/27/21 28/28/21 29/29/21 30/30/21 31/31/21
f 26/26/12 23/23/12 22/22/22 27/27/22
s 0
f 33/33/23 41/41/23 48/48/23 40/40/23
f 34/34/24 42/42/24 41/41/24 33/33/24
f 35/35/25 43/43/25 42/42/25 34/34/25
f 36/36/26 44/44/26 43/43/26 35/35/26
f 37/37/27 45/45/27 44/44/27 36/36/27
f 38/38/28 46/46/28 45/45/28 37/37/28
f 39/39/29 47/47/29 46/46/29 38/38/29
f 40/40/30 48/48/30 47/47/30 39/39/30
f 41/41/31 49/49/31 56/56/31 48/48/31
f 42/42/32 50/50/32 49/49/32 41/41/32
f 43/43/33 51/51/33 50/50/33 42/42/33
f 44/44/34 52/52/34 51/51/34 43/43/34
f 45/45/35 53/53/35 52/52/35 44/44/35
f 46/46/36 54/54/36 53/53/36 45/45/36
f 47/47/37 55/55/37 54/54/37 46/46/37
f 48/48/38 56/56/38 55/55/38 47/47/38
f 49/49/39 57/57/39 64/64/39 56/56/39
f 50/50/40 58/58/40 57/57/40 49/49/40
f 51/51/41 59/59/41 58/58/41 50/50/41
f 52/52/42 60/60/42 59/59/42 51/51/42
f 53/53/43 61/61/43 60/60/43 52/52/43
f 54/54/44 62/62/44 61/61/44 53/53/44
f 55/55/45 63/63/45 62/62/45 54/54/45
f 56/56/46 64/64/46 63/63/46 55/55/46
f 57/57/47 65/65/47 72/72/47 64/64/47
f 58/58/48 66/66/48 65/65/48 57/57/48
f 59/59/49 67/67/49 66/66/49 58/58/49
f 60/60/50 68/68/50 67/67/50 59/59/50
f 61/61/51 69/69/51 68/68/51 60/60/51
f 62/62/52 70/70/52 69/69/52 61/61/52
f 63/63/53 71/71/53 70/70/53 62/62/53
f 64/64/54 72/72/54 71/71/54 63/63/54
f 65/65/55 73/73/55 80/80/55 72/72/55
f 66/66/56 74/74/56 73/73/56 65/65/56
f 67/67/57 75/75/57 74/74/57 66/66/57
f 68/68/58 76/76/58 75/75/58 67/67/58
f 69/69/59 77/77/59 76/76/59 68/68/59
f 70/70/60 78/78/60 77/77/60 69/69/60
f 71/71/61 79/79/61 78/78/61 70/70/61
f 72/72/62 80/80/62 79/79/62 71/71/62
f 73/73/63 81/81/63 88/88/63 80/80/63
f 74/74/64 82/82/64 81/81/64 73/73/64
f 75/75/65 83/83/65 82/82/65 74/74/65
f 76/76/66 84/84/66 83/83/66 75/75/66
f 77/77/67 85/85/67 84/84/67 76/76/67
f 78/78/68 86/86/68 85/85/68 77/77/68
f 79/79/69 87/87/69 86/86/69 78/78/69
f 80/80/70 88/88/70 87/87/70 79/79/70
f 88/88/71 81/81/71 82/82/71 83/83/71 84/84/71 85/85/71 86/86/71 87/87/71
f 90/90/9 96/96/9 95/95/9 94/94/9 93/93/9 92/92/9 91/91/9 89/89/9
f 95/95/9 96/96/9 112/112/9 111/111/9
f 36/36/6 35/35/6 100/100/6 101/101/6 102/102/6 103/103/6 104/104/6 98/98/6 40/40/6 39/39/6 38/38/6 37/37/6
f 94/94/9 95/95/9 111/111/9 110/110/9
f 93/93/9 94/94/9 110/110/9 109/109/9
f 35/35/6 34/34/6 33/33/6 40/40/6 98/98/6 97/97/6 99/99/6 100/100/6
f 92/92/9 93/93/9 109/109/9 108/108/9
f 101/101/72 100/100/72 108/108/72 109/109/72
f 104/104/73 103/103/73 111/111/73 112/112/73
f 99/99/74 97/97/74 105/105/74 107/107/74
f 102/102/75 101/101/75 109/109/75 110/110/75
f 98/98/76 104/104/76 112/112/76 106/106/76
f 97/97/77 98/98/77 106/106/77 105/105/77
f 100/100/78 99/99/78 107/107/78 108/108/78
f 103/103/79 102/102/79 110/110/79 111/111/79
f 96/96/9 90/90/9 106/106/9 112/112/9
f 90/90/9 89/89/9 105/105/9 106/106/9
f 89/89/9 91/91/9 107/107/9 105/105/9
f 91/91/9 92/92/9 108/108/9 107/107/9
