# Blender 3.4.1
# www.blender.org
mtllib fauset012.mtl
o fauset.011
v 0.243015 -0.053579 -0.224719
v 0.243015 -0.053579 -0.188441
v 0.243015 -0.142567 -0.224719
v 0.243015 -0.142567 -0.188441
v 0.377699 -0.053580 -0.188441
v 0.377699 -0.053580 -0.224719
v 0.377699 -0.142567 -0.224719
v 0.377699 -0.142567 -0.188441
v 0.243015 0.123605 -0.188441
v 0.243015 0.123605 -0.224719
v 0.377699 0.123605 -0.188441
v 0.377699 0.123605 -0.224719
v 0.377698 -0.053580 -0.421103
v 0.243014 -0.053579 -0.421103
v 0.377698 0.123605 -0.421103
v 0.243014 0.123605 -0.421103
v -0.083489 -0.028585 -0.403030
v -0.083489 0.086582 -0.403030
v -0.083489 0.086582 0.356461
v 0.088105 -0.028585 -0.403030
v 0.088105 0.086582 -0.403030
v 0.088105 0.086582 0.356461
v -0.071219 -0.016315 0.403662
v -0.071219 0.074311 0.403662
v 0.075835 -0.016315 0.403662
v 0.075835 0.074311 0.403662
v -0.083489 -0.028585 0.316143
v -0.083489 -0.068903 0.356461
v -0.083489 -0.028585 0.396779
v -0.083489 0.011733 0.356461
v -0.083489 -0.033987 0.336302
v -0.083489 -0.048744 0.351060
v 0.088105 -0.068903 0.356461
v 0.088105 -0.028585 0.316143
v 0.088105 0.011733 0.356461
v 0.088105 -0.028585 0.396779
v 0.088105 -0.048744 0.351060
v 0.088105 -0.033987 0.336302
v -0.083489 -0.028585 0.403662
v -0.083489 0.086582 0.403662
v 0.088105 -0.028585 0.403662
v 0.088105 0.086582 0.403662
v -0.071219 -0.016315 0.419973
v -0.071219 0.074311 0.419973
v 0.075835 -0.016315 0.419973
v 0.075835 0.074311 0.419973
v -0.089605 -0.027646 0.426174
v -0.089605 0.085643 0.426174
v 0.094222 -0.027646 0.426174
v 0.094222 0.085643 0.426174
v -0.089605 -0.027646 0.462325
v -0.089605 0.085643 0.462325
v 0.094222 -0.027646 0.462325
v 0.094222 0.085643 0.462325
v -0.083489 -0.028585 -0.421474
v -0.083489 0.086582 -0.421474
v 0.088105 -0.028585 -0.421474
v 0.088105 0.086582 -0.421474
v -0.126438 -0.071534 -0.403030
v -0.126438 0.129530 -0.403030
v 0.131054 -0.071534 -0.403030
v 0.131054 0.129530 -0.403030
v -0.126438 -0.071534 -0.421474
v -0.126438 0.129530 -0.421474
v 0.131054 -0.071534 -0.421475
v 0.131054 0.129530 -0.421475
v -0.083489 -0.130682 0.403662
v 0.088105 -0.130682 0.403662
v -0.083489 -0.130682 0.356461
v 0.088105 -0.130682 0.356461
v -0.385489 -0.053579 -0.224718
v -0.385489 -0.053579 -0.188441
v -0.385489 -0.142567 -0.224718
v -0.385489 -0.142567 -0.188441
v -0.250804 -0.053580 -0.188441
v -0.250805 -0.053580 -0.224719
v -0.250805 -0.142567 -0.224719
v -0.250805 -0.142567 -0.188441
v -0.385489 0.123605 -0.188441
v -0.385489 0.123605 -0.224718
v -0.250804 0.123605 -0.188441
v -0.250804 0.123605 -0.224719
v -0.250805 -0.053580 -0.421103
v -0.385489 -0.053579 -0.421102
v -0.250805 0.123605 -0.421103
v -0.385489 0.123605 -0.421102
vn -1.0000 -0.0000 -0.0000
vn 1.0000 -0.0000 -0.0000
vn -0.0000 -1.0000 -0.0000
vn -0.0000 -0.0000 1.0000
vn -0.0000 -0.0000 -1.0000
vn -0.0000 1.0000 -0.0000
vn -0.0000 -0.2588 -0.9659
vn -0.0000 -0.7071 -0.7071
vn -0.0000 -0.9659 -0.2588
vn -0.0000 -0.4800 -0.8772
vn 0.3196 -0.0000 -0.9476
vn -0.0000 0.4800 -0.8772
vn -0.3196 -0.0000 -0.9476
vt 0.756195 0.121777
vt 0.756195 0.121777
vt 0.756195 0.121777
vt 0.756195 0.121777
vt 0.756195 0.121777
vt 0.756195 0.121777
vt 0.756195 0.121777
vt 0.756195 0.121777
vt 0.756195 0.121777
vt 0.756195 0.121777
vt 0.756195 0.121777
vt 0.756195 0.121777
vt 0.756195 0.121777
vt 0.756195 0.121777
vt 0.756195 0.121777
vt 0.756195 0.121777
vt 0.408951 0.106275
vt 0.408951 0.106275
vt 0.408951 0.106275
vt 0.408951 0.106275
vt 0.408951 0.106275
vt 0.408951 0.106275
vt 0.408951 0.106275
vt 0.408951 0.106275
vt 0.408951 0.106275
vt 0.408951 0.106275
vt 0.408951 0.106275
vt 0.408951 0.106275
vt 0.408951 0.106275
vt 0.408951 0.106275
vt 0.408951 0.106275
vt 0.408951 0.106275
vt 0.408951 0.106275
vt 0.408951 0.106275
vt 0.408951 0.106275
vt 0.408951 0.106275
vt 0.408951 0.106275
vt 0.408951 0.106275
vt 0.408951 0.106275
vt 0.408951 0.106275
vt 0.408951 0.106275
vt 0.408951 0.106275
vt 0.408951 0.106275
vt 0.408951 0.106275
vt 0.408951 0.106275
vt 0.408951 0.106275
vt 0.408951 0.106275
vt 0.408951 0.106275
vt 0.408951 0.106275
vt 0.408951 0.106275
vt 0.408951 0.106275
vt 0.408951 0.106275
vt 0.408951 0.106275
vt 0.408951 0.106275
vt 0.408951 0.106275
vt 0.408951 0.106275
vt 0.408951 0.106275
vt 0.408951 0.106275
vt 0.408951 0.106275
vt 0.408951 0.106275
vt 0.408951 0.106275
vt 0.408951 0.106275
vt 0.408951 0.106275
vt 0.408951 0.106275
vt 0.408951 0.106275
vt 0.408951 0.106275
vt 0.408951 0.106275
vt 0.408951 0.106275
vt 0.408951 0.106275
vt 0.408951 0.106275
vt 0.756195 0.121777
vt 0.756195 0.121777
vt 0.756195 0.121777
vt 0.756195 0.121777
vt 0.756195 0.121777
vt 0.756195 0.121777
vt 0.756195 0.121777
vt 0.756195 0.121777
vt 0.756195 0.121777
vt 0.756195 0.121777
vt 0.756195 0.121777
vt 0.756195 0.121777
vt 0.756195 0.121777
vt 0.756195 0.121777
vt 0.756195 0.121777
vt 0.756195 0.121777
s 0
usemtl Material
f 3/3/1 4/4/1 2/2/1 1/1/1
f 7/7/2 6/6/2 5/5/2 8/8/2
f 6/6/3 1/1/3 14/14/3 13/13/3
f 2/2/4 4/4/4 8/8/4 5/5/4
f 4/4/3 3/3/3 7/7/3 8/8/3
f 3/3/5 1/1/5 6/6/5 7/7/5
f 10/10/6 9/9/6 11/11/6 12/12/6
f 2/2/4 5/5/4 11/11/4 9/9/4
f 5/5/2 6/6/2 12/12/2 11/11/2
f 1/1/1 2/2/1 9/9/1 10/10/1
f 13/13/5 14/14/5 16/16/5 15/15/5
f 1/1/1 10/10/1 16/16/1 14/14/1
f 12/12/2 6/6/2 13/13/2 15/15/2
f 10/10/6 12/12/6 15/15/6 16/16/6
f 27/27/3 17/17/3 20/20/3 34/34/3
f 18/18/6 19/19/6 22/22/6 21/21/6
f 21/21/4 20/20/4 61/61/4 62/62/4
f 22/22/6 19/19/6 40/40/6 42/42/6
f 24/24/1 23/23/1 43/43/1 44/44/1
f 17/17/1 27/27/1 30/30/1 19/19/1 18/18/1
f 20/20/2 21/21/2 22/22/2 35/35/2 34/34/2
f 36/36/2 35/35/2 22/22/2 42/42/2 41/41/2
f 27/27/1 31/31/1 32/32/1 28/28/1 29/29/1 30/30/1
f 33/33/2 37/37/2 38/38/2 34/34/2 35/35/2 36/36/2
f 33/33/7 28/28/7 32/32/7 37/37/7
f 37/37/8 32/32/8 31/31/8 38/38/8
f 38/38/9 31/31/9 27/27/9 34/34/9
f 19/19/1 30/30/1 29/29/1 39/39/1 40/40/1
f 23/23/4 24/24/4 40/40/4 39/39/4
f 26/26/4 25/25/4 41/41/4 42/42/4
f 24/24/4 26/26/4 42/42/4 40/40/4
f 25/25/4 23/23/4 39/39/4 41/41/4
f 43/43/10 45/45/10 49/49/10 47/47/10
f 23/23/3 25/25/3 45/45/3 43/43/3
f 25/25/2 26/26/2 46/46/2 45/45/2
f 26/26/6 24/24/6 44/44/6 46/46/6
f 47/47/3 49/49/3 53/53/3 51/51/3
f 45/45/11 46/46/11 50/50/11 49/49/11
f 46/46/12 44/44/12 48/48/12 50/50/12
f 44/44/13 43/43/13 47/47/13 48/48/13
f 52/52/4 51/51/4 53/53/4 54/54/4
f 49/49/2 50/50/2 54/54/2 53/53/2
f 50/50/6 48/48/6 52/52/6 54/54/6
f 48/48/1 47/47/1 51/51/1 52/52/1
f 55/55/5 56/56/5 58/58/5 57/57/5
f 20/20/4 17/17/4 59/59/4 61/61/4
f 57/57/5 58/58/5 66/66/5 65/65/5
f 55/55/5 57/57/5 65/65/5 63/63/5
f 61/61/3 59/59/3 63/63/3 65/65/3
f 62/62/2 61/61/2 65/65/2 66/66/2
f 59/59/1 60/60/1 64/64/1 63/63/1
f 60/60/6 62/62/6 66/66/6 64/64/6
f 58/58/5 56/56/5 64/64/5 66/66/5
f 17/17/4 18/18/4 60/60/4 59/59/4
f 56/56/5 55/55/5 63/63/5 64/64/5
f 18/18/4 21/21/4 62/62/4 60/60/4
f 28/28/5 33/33/5 70/70/5 69/69/5
f 33/33/2 36/36/2 41/41/2 68/68/2 70/70/2
f 41/41/4 39/39/4 67/67/4 68/68/4
f 39/39/1 29/29/1 28/28/1 69/69/1 67/67/1
f 70/70/3 68/68/3 67/67/3 69/69/3
f 73/73/1 74/74/1 72/72/1 71/71/1
f 77/77/2 76/76/2 75/75/2 78/78/2
f 76/76/3 71/71/3 84/84/3 83/83/3
f 72/72/4 74/74/4 78/78/4 75/75/4
f 74/74/3 73/73/3 77/77/3 78/78/3
f 73/73/5 71/71/5 76/76/5 77/77/5
f 80/80/6 79/79/6 81/81/6 82/82/6
f 72/72/4 75/75/4 81/81/4 79/79/4
f 75/75/2 76/76/2 82/82/2 81/81/2
f 71/71/1 72/72/1 79/79/1 80/80/1
f 83/83/5 84/84/5 86/86/5 85/85/5
f 71/71/1 80/80/1 86/86/1 84/84/1
f 82/82/2 76/76/2 83/83/2 85/85/2
f 80/80/6 82/82/6 85/85/6 86/86/6
