# Blender 3.4.1
# www.blender.org
mtllib fauset020.mtl
o fauset.019
v 0.355209 -0.267719 0.012066
v 0.313816 -0.267719 0.012066
v 0.355209 -0.267719 -0.214628
v 0.313816 -0.267719 -0.214628
v 0.355209 -0.171683 0.012066
v 0.313816 -0.171683 0.012066
v 0.355209 -0.171683 -0.214628
v 0.313816 -0.171683 -0.214628
v -0.059294 -0.237831 -0.051137
v -0.059294 0.276022 -0.051137
v -0.059294 0.538186 0.238824
v -0.059294 0.363429 -0.030205
v -0.059294 0.446433 0.029406
v -0.059294 0.510576 0.118614
v -0.059294 0.510576 0.359035
v -0.059294 0.446432 0.448247
v 0.059869 -0.237831 -0.051137
v 0.059869 0.276022 -0.051137
v 0.059869 0.538186 0.238824
v 0.059869 0.363429 -0.030205
v 0.059869 0.446433 0.029406
v 0.059869 0.510576 0.118614
v 0.059869 0.510576 0.359035
v 0.059869 0.446432 0.448247
v -0.059294 0.583517 0.238824
v -0.059294 0.551882 0.377707
v -0.059294 0.281337 -0.096155
v -0.059294 0.382282 -0.071430
v -0.059294 0.478478 -0.002657
v -0.059294 0.551882 0.099941
v -0.059294 0.478477 0.480309
v -0.059294 -0.237831 -0.096468
v 0.059869 0.583517 0.238824
v 0.059869 0.551882 0.377707
v 0.059869 0.281337 -0.096155
v 0.059869 0.382282 -0.071430
v 0.059869 0.478478 -0.002657
v 0.059869 0.551882 0.099941
v 0.059869 0.478477 0.480309
v 0.059869 -0.237831 -0.096468
v 0.059869 -0.328041 -0.051137
v -0.059294 -0.328041 -0.051137
v 0.059869 -0.328041 -0.096468
v -0.059294 -0.328041 -0.096468
v 0.146248 -0.237831 0.099021
v -0.145678 -0.237831 0.099021
v 0.146248 -0.237831 -0.210833
v -0.145678 -0.237831 -0.210833
v 0.146248 -0.328041 0.099021
v -0.145678 -0.328041 0.099021
v 0.146248 -0.328041 -0.210833
v -0.145678 -0.328041 -0.210833
v 0.452670 -0.267719 0.012066
v 0.222551 -0.267719 0.012066
v 0.452670 -0.267719 -0.214627
v 0.222551 -0.267719 -0.214627
v 0.452670 -0.326884 0.012066
v 0.222551 -0.326884 0.012066
v 0.452670 -0.326884 -0.214627
v 0.222551 -0.326884 -0.214627
v -0.221791 -0.267719 0.012066
v -0.451910 -0.267719 0.012066
v -0.221791 -0.267719 -0.214627
v -0.451910 -0.267719 -0.214627
v -0.221791 -0.326884 0.012066
v -0.451910 -0.326884 0.012066
v -0.221791 -0.326884 -0.214627
v -0.451910 -0.326884 -0.214627
v -0.316153 -0.267719 0.012066
v -0.357546 -0.267719 0.012066
v -0.316153 -0.267719 -0.214628
v -0.357546 -0.267719 -0.214628
v -0.316153 -0.171683 0.012066
v -0.357546 -0.171683 0.012066
v -0.316153 -0.171683 -0.214628
v -0.357546 -0.171683 -0.214628
vn -0.0000 -1.0000 -0.0000
vn -0.0000 1.0000 -0.0000
vn 1.0000 -0.0000 -0.0000
vn -0.0000 -0.0000 -1.0000
vn -1.0000 -0.0000 -0.0000
vn -0.0000 -0.0000 1.0000
vn -0.0000 -0.9112 -0.4119
vn -0.0000 -0.9112 0.4119
vn -0.0000 -0.4159 0.9094
vn -0.0000 -0.1173 0.9931
vn -0.0000 -0.8119 -0.5838
vn -0.0000 -0.7069 0.7073
vn -0.0000 0.9121 0.4100
vn -0.0000 0.9121 -0.4100
vn -0.0000 0.4173 -0.9088
vn -0.0000 0.1201 -0.9928
vn -0.0000 0.0006 -1.0000
vn -0.0000 0.8133 0.5819
vn -0.0000 0.7070 -0.7072
vn -0.0000 -0.7073 0.7069
vt 0.771697 0.968184
vt 0.771697 0.968184
vt 0.771697 0.968184
vt 0.771697 0.968184
vt 0.771697 0.968184
vt 0.771697 0.968184
vt 0.771697 0.968184
vt 0.771697 0.968184
vt 0.408951 0.106275
vt 0.408951 0.106275
vt 0.408951 0.106275
vt 0.408951 0.106275
vt 0.408951 0.106275
vt 0.408951 0.106275
vt 0.408951 0.106275
vt 0.408951 0.106275
vt 0.408951 0.106275
vt 0.408951 0.106275
vt 0.408951 0.106275
vt 0.408951 0.106275
vt 0.408951 0.106275
vt 0.408951 0.106275
vt 0.408951 0.106275
vt 0.408951 0.106275
vt 0.408951 0.106275
vt 0.408951 0.106275
vt 0.408951 0.106275
vt 0.408951 0.106275
vt 0.408951 0.106275
vt 0.408951 0.106275
vt 0.408951 0.106275
vt 0.408951 0.106275
vt 0.408951 0.106275
vt 0.408951 0.106275
vt 0.408951 0.106275
vt 0.408951 0.106275
vt 0.408951 0.106275
vt 0.408951 0.106275
vt 0.408951 0.106275
vt 0.408951 0.106275
vt 0.408951 0.106275
vt 0.408951 0.106275
vt 0.408951 0.106275
vt 0.408951 0.106275
vt 0.408951 0.106275
vt 0.408951 0.106275
vt 0.408951 0.106275
vt 0.408951 0.106275
vt 0.408951 0.106275
vt 0.408951 0.106275
vt 0.408951 0.106275
vt 0.408951 0.106275
vt 0.408951 0.106275
vt 0.408951 0.106275
vt 0.408951 0.106275
vt 0.408951 0.106275
vt 0.408951 0.106275
vt 0.408951 0.106275
vt 0.408951 0.106275
vt 0.408951 0.106275
vt 0.408951 0.106275
vt 0.408951 0.106275
vt 0.408951 0.106275
vt 0.408951 0.106275
vt 0.408951 0.106275
vt 0.408951 0.106275
vt 0.408951 0.106275
vt 0.408951 0.106275
vt 0.771697 0.968184
vt 0.771697 0.968184
vt 0.771697 0.968184
vt 0.771697 0.968184
vt 0.771697 0.968184
vt 0.771697 0.968184
vt 0.771697 0.968184
vt 0.771697 0.968184
s 1
usemtl Material
f 2/2/1 4/4/1 3/3/1 1/1/1
f 6/6/2 5/5/2 7/7/2 8/8/2
f 1/1/3 3/3/3 7/7/3 5/5/3
f 3/3/4 4/4/4 8/8/4 7/7/4
f 4/4/5 2/2/5 6/6/5 8/8/5
f 2/2/6 1/1/6 5/5/6 6/6/6
f 15/15/7 11/11/1 19/19/1 23/23/7
f 11/11/1 14/14/8 22/22/8 19/19/1
f 12/12/9 10/10/10 18/18/10 20/20/9
f 9/9/6 17/17/6 18/18/10 10/10/10
f 16/16/11 15/15/7 23/23/7 24/24/11
f 13/13/12 12/12/9 20/20/9 21/21/12
f 14/14/8 13/13/12 21/21/12 22/22/8
f 26/26/13 34/34/13 33/33/2 25/25/2
f 25/25/2 33/33/2 38/38/14 30/30/14
f 28/28/15 36/36/15 35/35/16 27/27/16
f 32/32/17 27/27/16 35/35/16 40/40/17
f 31/31/18 39/39/18 34/34/13 26/26/13
f 29/29/19 37/37/19 36/36/15 28/28/15
f 16/16/20 24/24/20 39/39/20 31/31/20
f 30/30/14 38/38/14 37/37/19 29/29/19
f 11/11/5 15/15/5 26/26/5 25/25/5
f 24/24/3 23/23/3 34/34/3 39/39/3
f 9/9/5 10/10/5 27/27/5 32/32/5
f 10/10/5 12/12/5 28/28/5 27/27/5
f 12/12/5 13/13/5 29/29/5 28/28/5
f 23/23/3 19/19/3 33/33/3 34/34/3
f 13/13/5 14/14/5 30/30/5 29/29/5
f 18/18/3 17/17/3 40/40/3 35/35/3
f 20/20/3 18/18/3 35/35/3 36/36/3
f 14/14/5 11/11/5 25/25/5 30/30/5
f 21/21/3 20/20/3 36/36/3 37/37/3
f 9/9/2 32/32/2 48/48/2 46/46/2
f 15/15/5 16/16/5 31/31/5 26/26/5
f 22/22/3 21/21/3 37/37/3 38/38/3
f 19/19/3 22/22/3 38/38/3 33/33/3
f 41/41/1 42/42/1 44/44/1 43/43/1
f 17/17/2 9/9/2 46/46/2 45/45/2
f 42/42/1 41/41/1 49/49/1 50/50/1
f 44/44/1 42/42/1 50/50/1 52/52/1
f 45/45/6 46/46/6 50/50/6 49/49/6
f 46/46/5 48/48/5 52/52/5 50/50/5
f 48/48/4 47/47/4 51/51/4 52/52/4
f 47/47/3 45/45/3 49/49/3 51/51/3
f 32/32/2 40/40/2 47/47/2 48/48/2
f 40/40/2 17/17/2 45/45/2 47/47/2
f 41/41/1 43/43/1 51/51/1 49/49/1
f 43/43/1 44/44/1 52/52/1 51/51/1
f 53/53/6 54/54/6 58/58/6 57/57/6
f 54/54/5 56/56/5 60/60/5 58/58/5
f 56/56/4 55/55/4 59/59/4 60/60/4
f 55/55/3 53/53/3 57/57/3 59/59/3
f 54/54/2 53/53/2 55/55/2 56/56/2
f 58/58/1 60/60/1 59/59/1 57/57/1
f 61/61/6 62/62/6 66/66/6 65/65/6
f 62/62/5 64/64/5 68/68/5 66/66/5
f 64/64/4 63/63/4 67/67/4 68/68/4
f 63/63/3 61/61/3 65/65/3 67/67/3
f 62/62/2 61/61/2 63/63/2 64/64/2
f 66/66/1 68/68/1 67/67/1 65/65/1
f 70/70/1 72/72/1 71/71/1 69/69/1
f 74/74/2 73/73/2 75/75/2 76/76/2
f 69/69/3 71/71/3 75/75/3 73/73/3
f 71/71/4 72/72/4 76/76/4 75/75/4
f 72/72/5 70/70/5 74/74/5 76/76/5
f 70/70/6 69/69/6 73/73/6 74/74/6
