# Blender 3.4.1
# www.blender.org
mtllib fauset026.mtl
o fauset.025
v 0.004824 -0.459401 -0.277833
v 0.020946 -0.459401 -0.316756
v 0.004824 -0.459401 -0.355679
v -0.034099 -0.459401 -0.371802
v -0.073023 -0.459401 -0.355679
v -0.089145 -0.459401 -0.316756
v -0.073023 -0.459401 -0.277833
v -0.034099 -0.459401 -0.261711
v 0.004824 0.665825 -0.278166
v 0.020946 0.670905 -0.316756
v 0.004824 0.675986 -0.355346
v -0.034099 0.678090 -0.371331
v -0.073023 0.675986 -0.355346
v -0.089145 0.670905 -0.316756
v -0.073023 0.665825 -0.278166
v -0.034099 0.663720 -0.262181
v 0.004824 0.693175 -0.271866
v 0.020946 0.712637 -0.305574
v 0.004824 0.732099 -0.339283
v -0.034099 0.740160 -0.353245
v -0.073023 0.732099 -0.339283
v -0.089145 0.712637 -0.305574
v -0.073023 0.693175 -0.271866
v -0.034099 0.685114 -0.257903
v 0.004824 0.709479 -0.255563
v 0.020946 0.743187 -0.275024
v 0.004824 0.776895 -0.294486
v -0.034099 0.790858 -0.302547
v -0.073023 0.776895 -0.294486
v -0.089145 0.743187 -0.275024
v -0.073023 0.709479 -0.255563
v -0.034099 0.695516 -0.247501
v 0.004824 0.715779 -0.228212
v 0.020946 0.754369 -0.233292
v 0.004824 0.792959 -0.238373
v -0.034099 0.808944 -0.240477
v -0.073023 0.792959 -0.238373
v -0.089145 0.754369 -0.233292
v -0.073023 0.715779 -0.228212
v -0.034099 0.699794 -0.226107
v 0.004824 0.715779 0.459824
v 0.020946 0.754369 0.464904
v 0.004824 0.792959 0.469985
v -0.034099 0.808944 0.472089
v -0.073023 0.792959 0.469985
v -0.089145 0.754369 0.464904
v -0.073023 0.715779 0.459824
v -0.034099 0.699794 0.457719
v 0.004824 0.709479 0.487174
v 0.020946 0.743187 0.506636
v 0.004824 0.776895 0.526098
v -0.034099 0.790858 0.534159
v -0.073023 0.776895 0.526098
v -0.089145 0.743187 0.506636
v -0.073023 0.709479 0.487174
v -0.034099 0.695516 0.479113
v 0.004824 0.693175 0.503478
v 0.020946 0.712637 0.537186
v 0.004824 0.732099 0.570894
v -0.034099 0.740160 0.584857
v -0.073023 0.732099 0.570894
v -0.089145 0.712637 0.537186
v -0.073023 0.693175 0.503478
v -0.034099 0.685114 0.489515
v 0.004824 0.665825 0.509778
v 0.020946 0.670905 0.548368
v 0.004824 0.675986 0.586958
v -0.034099 0.678090 0.602943
v -0.073023 0.675986 0.586958
v -0.089145 0.670905 0.548368
v -0.073023 0.665825 0.509778
v -0.034099 0.663720 0.493793
v 0.004824 0.295533 0.509445
v 0.020946 0.295533 0.548368
v 0.004824 0.295533 0.587291
v -0.034099 0.295533 0.603414
v -0.073023 0.295533 0.587291
v -0.089145 0.295533 0.548368
v -0.073023 0.295533 0.509445
v -0.034099 0.295533 0.493322
v 0.030558 -0.475272 -0.252099
v 0.057340 -0.475272 -0.316756
v 0.030558 -0.475272 -0.381413
v -0.034099 -0.475272 -0.408195
v -0.098757 -0.475272 -0.381413
v -0.125539 -0.475272 -0.316756
v -0.098757 -0.475272 -0.252099
v -0.034099 -0.475272 -0.225317
v 0.030558 -0.938294 -0.252099
v 0.057340 -0.938294 -0.316756
v 0.030558 -0.938294 -0.381413
v -0.034099 -0.938294 -0.408195
v -0.098757 -0.938294 -0.381413
v -0.125539 -0.938294 -0.316756
v -0.098757 -0.938294 -0.252099
v -0.034099 -0.938294 -0.225317
v 0.030772 -0.988880 -0.252886
v 0.057554 -0.988880 -0.317543
v 0.030772 -0.988880 -0.382201
v -0.033886 -0.988880 -0.408983
v -0.098543 -0.988880 -0.382201
v -0.125325 -0.988880 -0.317544
v -0.098543 -0.988880 -0.252886
v -0.033886 -0.988880 -0.226104
v 0.089069 -0.938983 -0.193176
v -0.034187 -0.939623 -0.142285
v 0.140381 -0.937938 -0.316430
v 0.089391 -0.937100 -0.440008
v -0.034189 -0.936965 -0.491227
v -0.157682 -0.937614 -0.439923
v -0.208579 -0.938660 -0.316432
v -0.157353 -0.939490 -0.193268
v 0.089697 -0.989560 -0.194376
v -0.033796 -0.990209 -0.143073
v 0.140595 -0.988514 -0.317868
v 0.089368 -0.987684 -0.441032
v -0.033798 -0.987551 -0.492014
v -0.157054 -0.988191 -0.441124
v -0.208366 -0.989236 -0.317870
v -0.157376 -0.990074 -0.194292
v 0.013999 0.277431 0.500270
v 0.033922 0.277431 0.548368
v 0.013999 0.277431 0.596466
v -0.034099 0.277431 0.616389
v -0.082198 0.277431 0.596466
v -0.102121 0.277431 0.548368
v -0.082198 0.277431 0.500270
v -0.034099 0.277431 0.480347
v 0.002680 0.107292 0.503896
v 0.022603 0.107292 0.551994
v 0.002680 0.107292 0.600092
v -0.045418 0.107292 0.620015
v -0.093517 0.107292 0.600092
v -0.113439 0.107292 0.551994
v -0.093517 0.107292 0.503896
v -0.045418 0.107292 0.483973
v -0.008112 0.078899 0.514687
v 0.007341 0.078899 0.551994
v -0.008112 0.078899 0.589301
v -0.045418 0.078899 0.604754
v -0.082725 0.078899 0.589301
v -0.098178 0.078899 0.551994
v -0.082725 0.078899 0.514687
v -0.045418 0.078899 0.499234
v -0.027231 0.339978 -0.294443
v -0.027231 0.462407 -0.294859
v -0.027231 0.339978 0.508107
v -0.027231 0.462407 0.507691
v -0.044105 0.339978 -0.294443
v -0.044105 0.462407 -0.294859
v -0.044105 0.339978 0.508107
v -0.044105 0.462407 0.507691
v -0.038921 -0.613535 -0.259776
v -0.038921 -0.570044 -0.274244
v 0.230473 -0.614046 -0.260008
v 0.230473 -0.570295 -0.274534
v -0.038922 -0.654558 -0.280318
v 0.230473 -0.654869 -0.280689
v -0.038921 -0.669023 -0.323857
v 0.230473 -0.668817 -0.323997
v -0.038921 -0.648485 -0.364832
v 0.230473 -0.648234 -0.364543
v -0.038921 -0.604993 -0.379301
v 0.230473 -0.605162 -0.379116
v -0.038922 -0.563970 -0.358759
v 0.230473 -0.564292 -0.359119
v -0.038921 -0.549505 -0.315220
v 0.230473 -0.549662 -0.315759
v 0.286319 -0.614046 -0.260008
v 0.286319 -0.570295 -0.274534
v 0.286319 -0.654869 -0.280689
v 0.286319 -0.668817 -0.323997
v 0.286319 -0.648234 -0.364543
v 0.286319 -0.605162 -0.379116
v 0.286319 -0.564292 -0.359119
v 0.286319 -0.549662 -0.315759
v 0.230473 -0.439342 -0.524724
v 0.230473 -0.398473 -0.504727
v 0.230473 -0.383842 -0.461366
v 0.286319 -0.439342 -0.524724
v 0.286319 -0.398473 -0.504727
v 0.286319 -0.383842 -0.461366
vn 0.3813 0.0003 0.9245
vn 0.3796 -0.0991 0.9198
vn 0.3797 -0.0979 0.9199
vn 0.9233 0.0001 0.3841
vn 0.9231 -0.0479 0.3816
vn 0.9231 -0.0474 0.3816
vn 0.9233 0.0001 -0.3841
vn 0.9234 0.0521 -0.3802
vn 0.9234 0.0524 -0.3802
vn 0.3813 0.0003 -0.9245
vn 0.3819 0.1295 -0.9151
vn 0.3819 0.1301 -0.9150
vn -0.3813 0.0003 -0.9245
vn -0.3819 0.1301 -0.9150
vn -0.3819 0.1295 -0.9151
vn -0.9233 0.0001 -0.3841
vn -0.9234 0.0524 -0.3802
vn -0.9234 0.0521 -0.3802
vn -0.9233 0.0001 0.3841
vn -0.9231 -0.0474 0.3816
vn -0.9231 -0.0479 0.3816
vn -0.3813 0.0003 0.9245
vn -0.3797 -0.0979 0.9199
vn -0.3796 -0.0991 0.9198
vn 0.3743 -0.1967 0.9062
vn 0.9249 -0.1882 0.3302
vn 0.9250 -0.1874 0.3307
vn 0.9246 0.1920 -0.3289
vn 0.9246 0.1925 -0.3286
vn 0.3842 0.4690 -0.7952
vn 0.3842 0.4700 -0.7947
vn -0.3842 0.4700 -0.7947
vn -0.3842 0.4690 -0.7952
vn -0.9246 0.1925 -0.3286
vn -0.9246 0.1920 -0.3289
vn -0.9250 -0.1874 0.3307
vn -0.9249 -0.1882 0.3302
vn -0.3743 -0.1967 0.9062
vn 0.3715 -0.6565 0.6565
vn 0.9249 -0.3302 0.1882
vn 0.9250 -0.3307 0.1874
vn 0.9246 0.3289 -0.1920
vn 0.9246 0.3286 -0.1926
vn 0.3842 0.7952 -0.4690
vn 0.3842 0.7947 -0.4700
vn -0.3842 0.7947 -0.4700
vn -0.3842 0.7952 -0.4690
vn -0.9246 0.3286 -0.1926
vn -0.9246 0.3289 -0.1920
vn -0.9250 -0.3307 0.1874
vn -0.9249 -0.3302 0.1882
vn -0.3715 -0.6565 0.6565
vn 0.3743 -0.9062 0.1967
vn 0.3789 -0.9201 0.0993
vn 0.3790 -0.9202 0.0981
vn 0.9228 -0.3823 0.0479
vn 0.9228 -0.3823 0.0474
vn 0.9231 0.3809 -0.0520
vn 0.9231 0.3809 -0.0523
vn 0.3812 0.9154 -0.1294
vn 0.3812 0.9153 -0.1300
vn -0.3812 0.9153 -0.1300
vn -0.3812 0.9154 -0.1294
vn -0.9231 0.3809 -0.0523
vn -0.9231 0.3809 -0.0520
vn -0.9228 -0.3823 0.0474
vn -0.9228 -0.3823 0.0479
vn -0.3743 -0.9062 0.1967
vn -0.3790 -0.9202 0.0981
vn -0.3789 -0.9201 0.0993
vn 0.3789 -0.9201 -0.0993
vn 0.3790 -0.9202 -0.0981
vn 0.9228 -0.3823 -0.0479
vn 0.9228 -0.3823 -0.0474
vn 0.9231 0.3809 0.0520
vn 0.9231 0.3809 0.0523
vn 0.3812 0.9154 0.1294
vn 0.3812 0.9153 0.1300
vn -0.3812 0.9153 0.1300
vn -0.3812 0.9154 0.1294
vn -0.9231 0.3809 0.0523
vn -0.9231 0.3809 0.0520
vn -0.9228 -0.3823 -0.0474
vn -0.9228 -0.3823 -0.0479
vn -0.3790 -0.9202 -0.0981
vn -0.3789 -0.9201 -0.0993
vn 0.3743 -0.9062 -0.1967
vn 0.9249 -0.3302 -0.1882
vn 0.9250 -0.3307 -0.1874
vn 0.9246 0.3289 0.1920
vn 0.9246 0.3286 0.1926
vn 0.3842 0.7952 0.4690
vn 0.3842 0.7947 0.4700
vn -0.3842 0.7947 0.4700
vn -0.3842 0.7952 0.4690
vn -0.9246 0.3286 0.1926
vn -0.9246 0.3289 0.1920
vn -0.9250 -0.3307 -0.1874
vn -0.9249 -0.3302 -0.1882
vn -0.3743 -0.9062 -0.1967
vn 0.3715 -0.6565 -0.6565
vn 0.9249 -0.1882 -0.3302
vn 0.9250 -0.1874 -0.3307
vn 0.9246 0.1920 0.3289
vn 0.9246 0.1925 0.3286
vn 0.3842 0.4690 0.7952
vn 0.3842 0.4700 0.7947
vn -0.3842 0.4700 0.7947
vn -0.3842 0.4690 0.7952
vn -0.9246 0.1925 0.3286
vn -0.9246 0.1920 0.3289
vn -0.9250 -0.1874 -0.3307
vn -0.9249 -0.1882 -0.3302
vn -0.3715 -0.6565 -0.6565
vn 0.3743 -0.1967 -0.9062
vn 0.3796 -0.0988 -0.9198
vn 0.3797 -0.0975 -0.9200
vn 0.9231 -0.0478 -0.3816
vn 0.9231 -0.0473 -0.3816
vn 0.9234 0.0521 0.3802
vn 0.9234 0.0524 0.3802
vn 0.3819 0.1298 0.9150
vn 0.3819 0.1305 0.9150
vn -0.3819 0.1305 0.9150
vn -0.3819 0.1298 0.9150
vn -0.9234 0.0524 0.3802
vn -0.9234 0.0521 0.3802
vn -0.9231 -0.0473 -0.3816
vn -0.9231 -0.0478 -0.3816
vn -0.3743 -0.1967 -0.9062
vn -0.3797 -0.0975 -0.9200
vn -0.3796 -0.0988 -0.9198
vn 0.3813 0.0010 -0.9245
vn 0.9233 0.0002 -0.3841
vn 0.9233 0.0002 0.3841
vn 0.3813 0.0010 0.9244
vn -0.3813 0.0010 0.9244
vn -0.9233 0.0002 0.3841
vn -0.9233 0.0002 -0.3841
vn -0.3813 0.0010 -0.9245
vn -0.0000 0.9166 -0.3998
vn 0.2827 0.9166 -0.2827
vn -0.2827 0.9166 0.2827
vn -0.3998 0.9166 -0.0000
vn 0.3998 0.9166 -0.0000
vn 0.2827 0.9166 0.2827
vn -0.2827 0.9166 -0.2827
vn -0.0000 0.9166 0.3998
vn 0.3827 -0.0000 -0.9239
vn 0.9239 -0.0000 0.3827
vn -0.9239 -0.0000 0.3827
vn -0.3827 -0.0000 -0.9239
vn 0.9239 -0.0000 -0.3827
vn 0.3827 -0.0000 0.9239
vn -0.3827 -0.0000 0.9239
vn -0.9239 -0.0000 -0.3827
vn -0.0039 1.0000 0.0066
vn 0.0011 1.0000 0.0095
vn 0.0067 -0.9999 -0.0116
vn 0.0018 -0.9999 -0.0144
vn -0.0018 0.9999 0.0144
vn 0.0039 -1.0000 -0.0066
vn -0.0068 0.9999 0.0116
vn -0.0011 -1.0000 -0.0095
vn -0.0040 1.0000 0.0066
vn -0.3826 -0.0179 0.9237
vn -0.9239 0.0023 -0.3827
vn 0.3826 0.0179 -0.9237
vn 0.9239 -0.0023 0.3827
vn -0.9238 -0.0111 0.3826
vn -0.3827 0.0143 -0.9238
vn 0.9238 0.0111 -0.3826
vn 0.3827 -0.0143 0.9238
vn -0.0010 -1.0000 -0.0094
vn -0.0067 0.9999 0.0116
vn 0.0040 -1.0000 -0.0066
vn 0.0068 -0.9999 -0.0116
vn 0.0010 1.0000 0.0094
vn -0.7703 0.5521 0.3191
vn -0.8808 0.3016 0.3649
vn -0.8806 0.3026 0.3647
vn 0.3191 0.5521 -0.7703
vn -0.3191 0.5521 0.7703
vn 0.3191 0.5521 0.7703
vn 0.7703 0.5521 0.3191
vn -0.3191 0.5521 -0.7703
vn 0.7703 0.5521 -0.3191
vn -0.7703 0.5521 -0.3191
vn -0.3823 0.0451 0.9229
vn -0.3753 -0.1952 0.9061
vn -0.3760 -0.1866 0.9077
vn 0.9226 -0.0532 0.3821
vn 0.8958 -0.2448 0.3710
vn 0.8971 -0.2391 0.3716
vn 0.3823 -0.0451 -0.9229
vn 0.3720 -0.2343 -0.8982
vn 0.3714 -0.2413 -0.8966
vn -0.3827 0.0058 -0.9239
vn -0.3744 -0.2063 -0.9040
vn -0.3736 -0.2166 -0.9020
vn -0.9216 0.0695 0.3818
vn 0.3827 -0.0058 0.9239
vn 0.3731 -0.2224 0.9007
vn 0.3739 -0.2125 0.9028
vn 0.9216 -0.0695 -0.3818
vn 0.8946 -0.2500 -0.3705
vn 0.8944 -0.2507 -0.3705
vn -0.9226 0.0532 -0.3821
vn -0.9083 -0.1829 -0.3762
vn -0.9070 -0.1903 -0.3757
vn -0.8275 -0.4448 -0.3427
vn -0.3427 -0.4448 0.8275
vn 0.8275 -0.4448 0.3427
vn 0.3427 -0.4448 -0.8275
vn -0.3427 -0.4448 -0.8275
vn -0.8275 -0.4448 0.3427
vn 0.3427 -0.4448 0.8275
vn 0.8275 -0.4448 -0.3427
vn 1.0000 -0.0000 -0.0000
vn -1.0000 -0.0000 -0.0000
vn -0.0000 1.0000 -0.0000
vn -0.0000 -0.0034 -1.0000
vn -0.0000 -1.0000 -0.0000
vn -0.0000 0.0034 1.0000
vn 0.0014 0.3154 0.9490
vn 0.0003 -0.4498 0.8931
vn 0.0001 -0.9504 0.3109
vn 0.0009 -0.8928 -0.4504
vn 0.0009 -0.3181 -0.9481
vn 0.0001 0.4436 -0.8962
vn 0.0003 0.9483 -0.3175
vn 0.0014 0.8941 0.4478
vn -0.0000 -0.4519 0.8921
vn -0.0000 -0.3205 -0.9472
vn -0.0000 0.3151 0.9491
vn -0.0000 -0.9519 0.3065
vn -0.0000 0.6598 0.7514
vn -0.0000 0.8942 0.4476
vn -0.0000 -0.8917 -0.4527
vn -0.0000 0.9475 -0.3197
vn -0.0000 0.4395 -0.8982
vn -0.0000 -0.6598 -0.7514
vt 0.390625 0.097656
vt 0.390625 0.097656
vt 0.390625 0.097656
vt 0.390625 0.097656
vt 0.390625 0.097656
vt 0.390625 0.097656
vt 0.390625 0.097656
vt 0.390625 0.097656
vt 0.390625 0.097656
vt 0.390625 0.097656
vt 0.390625 0.097656
vt 0.390625 0.097656
vt 0.390625 0.097656
vt 0.390625 0.097656
vt 0.390625 0.097656
vt 0.390625 0.097656
vt 0.390625 0.097656
vt 0.390625 0.097656
vt 0.390625 0.097656
vt 0.390625 0.097656
vt 0.390625 0.097656
vt 0.390625 0.097656
vt 0.390625 0.097656
vt 0.390625 0.097656
vt 0.390625 0.097656
vt 0.390625 0.097656
vt 0.390625 0.097656
vt 0.390625 0.097656
vt 0.390625 0.097656
vt 0.390625 0.097656
vt 0.390625 0.097656
vt 0.390625 0.097656
vt 0.390625 0.097656
vt 0.390625 0.097656
vt 0.390625 0.097656
vt 0.390625 0.097656
vt 0.390625 0.097656
vt 0.390625 0.097656
vt 0.390625 0.097656
vt 0.390625 0.097656
vt 0.390625 0.097656
vt 0.390625 0.097656
vt 0.390625 0.097656
vt 0.390625 0.097656
vt 0.390625 0.097656
vt 0.390625 0.097656
vt 0.390625 0.097656
vt 0.390625 0.097656
vt 0.390625 0.097656
vt 0.390625 0.097656
vt 0.390625 0.097656
vt 0.390625 0.097656
vt 0.390625 0.097656
vt 0.390625 0.097656
vt 0.390625 0.097656
vt 0.390625 0.097656
vt 0.390625 0.097656
vt 0.390625 0.097656
vt 0.390625 0.097656
vt 0.390625 0.097656
vt 0.390625 0.097656
vt 0.390625 0.097656
vt 0.390625 0.097656
vt 0.390625 0.097656
vt 0.390625 0.097656
vt 0.390625 0.097656
vt 0.390625 0.097656
vt 0.390625 0.097656
vt 0.390625 0.097656
vt 0.390625 0.097656
vt 0.390625 0.097656
vt 0.390625 0.097656
vt 0.390625 0.097656
vt 0.390625 0.097656
vt 0.390625 0.097656
vt 0.390625 0.097656
vt 0.390625 0.097656
vt 0.390625 0.097656
vt 0.390625 0.097656
vt 0.390625 0.097656
vt 0.390625 0.097656
vt 0.390625 0.097656
vt 0.390625 0.097656
vt 0.390625 0.097656
vt 0.390625 0.097656
vt 0.390625 0.097656
vt 0.390625 0.097656
vt 0.390625 0.097656
vt 0.390625 0.097656
vt 0.390625 0.097656
vt 0.390625 0.097656
vt 0.390625 0.097656
vt 0.390625 0.097656
vt 0.390625 0.097656
vt 0.390625 0.097656
vt 0.390625 0.097656
vt 0.390625 0.097656
vt 0.390625 0.097656
vt 0.390625 0.097656
vt 0.390625 0.097656
vt 0.390625 0.097656
vt 0.390625 0.097656
vt 0.390625 0.097656
vt 0.390625 0.097656
vt 0.390625 0.097656
vt 0.390625 0.097656
vt 0.390625 0.097656
vt 0.390625 0.097656
vt 0.390625 0.097656
vt 0.390625 0.097656
vt 0.390625 0.097656
vt 0.390625 0.097656
vt 0.390625 0.097656
vt 0.390625 0.097656
vt 0.390625 0.097656
vt 0.390625 0.097656
vt 0.390625 0.097656
vt 0.390625 0.097656
vt 0.390625 0.097656
vt 0.390625 0.097656
vt 0.390625 0.097656
vt 0.390625 0.097656
vt 0.390625 0.097656
vt 0.390625 0.097656
vt 0.390625 0.097656
vt 0.390625 0.097656
vt 0.390625 0.097656
vt 0.390625 0.097656
vt 0.390625 0.097656
vt 0.390625 0.097656
vt 0.390625 0.097656
vt 0.390625 0.097656
vt 0.390625 0.097656
vt 0.390625 0.097656
vt 0.390625 0.097656
vt 0.390625 0.097656
vt 0.390625 0.097656
vt 0.390625 0.097656
vt 0.390625 0.097656
vt 0.390625 0.097656
vt 0.390625 0.097656
vt 0.390625 0.097656
vt 0.390625 0.097656
vt 0.390625 0.097656
vt 0.295592 0.925341
vt 0.295592 0.925341
vt 0.295592 0.925341
vt 0.295592 0.925341
vt 0.295592 0.925341
vt 0.295592 0.925341
vt 0.295592 0.925341
vt 0.295592 0.925341
vt 0.295592 0.925341
vt 0.295592 0.925341
vt 0.295592 0.925341
vt 0.295592 0.925341
vt 0.295592 0.925341
vt 0.295592 0.925341
vt 0.295592 0.925341
vt 0.295592 0.925341
vt 0.295592 0.925341
vt 0.295592 0.925341
vt 0.295592 0.925341
vt 0.295592 0.925341
vt 0.295592 0.925341
vt 0.295592 0.925341
vt 0.295592 0.925341
vt 0.295592 0.925341
vt 0.295592 0.925341
vt 0.295592 0.925341
vt 0.295592 0.925341
vt 0.295592 0.925341
vt 0.295592 0.925341
vt 0.295592 0.925341
vt 0.295592 0.925341
vt 0.295592 0.925341
vt 0.295592 0.925341
vt 0.295592 0.925341
vt 0.295592 0.925341
vt 0.295592 0.925341
vt 0.295592 0.925341
vt 0.295592 0.925341
s 1
usemtl Material
f 1/1/1 9/9/2 16/16/3 8/8/1
f 2/2/4 10/10/5 9/9/6 1/1/4
f 3/3/7 11/11/8 10/10/9 2/2/7
f 4/4/10 12/12/11 11/11/12 3/3/10
f 5/5/13 13/13/14 12/12/15 4/4/13
f 6/6/16 14/14/17 13/13/18 5/5/16
f 7/7/19 15/15/20 14/14/21 6/6/19
f 8/8/22 16/16/23 15/15/24 7/7/22
f 9/9/2 17/17/25 24/24/25 16/16/3
f 10/10/5 18/18/26 17/17/27 9/9/6
f 11/11/8 19/19/28 18/18/29 10/10/9
f 12/12/11 20/20/30 19/19/31 11/11/12
f 13/13/14 21/21/32 20/20/33 12/12/15
f 14/14/17 22/22/34 21/21/35 13/13/18
f 15/15/20 23/23/36 22/22/37 14/14/21
f 16/16/23 24/24/38 23/23/38 15/15/24
f 17/17/39 25/25/39 32/32/39 24/24/39
f 18/18/26 26/26/40 25/25/41 17/17/27
f 19/19/28 27/27/42 26/26/43 18/18/29
f 20/20/30 28/28/44 27/27/45 19/19/31
f 21/21/32 29/29/46 28/28/47 20/20/33
f 22/22/34 30/30/48 29/29/49 21/21/35
f 23/23/36 31/31/50 30/30/51 22/22/37
f 24/24/52 32/32/52 31/31/52 23/23/52
f 25/25/53 33/33/54 40/40/55 32/32/53
f 26/26/40 34/34/56 33/33/57 25/25/41
f 27/27/42 35/35/58 34/34/59 26/26/43
f 28/28/44 36/36/60 35/35/61 27/27/45
f 29/29/46 37/37/62 36/36/63 28/28/47
f 30/30/48 38/38/64 37/37/65 29/29/49
f 31/31/50 39/39/66 38/38/67 30/30/51
f 32/32/68 40/40/69 39/39/70 31/31/68
f 33/33/54 41/41/71 48/48/72 40/40/55
f 34/34/56 42/42/73 41/41/74 33/33/57
f 35/35/58 43/43/75 42/42/76 34/34/59
f 36/36/60 44/44/77 43/43/78 35/35/61
f 37/37/62 45/45/79 44/44/80 36/36/63
f 38/38/64 46/46/81 45/45/82 37/37/65
f 39/39/66 47/47/83 46/46/84 38/38/67
f 40/40/69 48/48/85 47/47/86 39/39/70
f 41/41/71 49/49/87 56/56/87 48/48/72
f 42/42/73 50/50/88 49/49/89 41/41/74
f 43/43/75 51/51/90 50/50/91 42/42/76
f 44/44/77 52/52/92 51/51/93 43/43/78
f 45/45/79 53/53/94 52/52/95 44/44/80
f 46/46/81 54/54/96 53/53/97 45/45/82
f 47/47/83 55/55/98 54/54/99 46/46/84
f 48/48/85 56/56/100 55/55/100 47/47/86
f 49/49/101 57/57/101 64/64/101 56/56/101
f 50/50/88 58/58/102 57/57/103 49/49/89
f 51/51/90 59/59/104 58/58/105 50/50/91
f 52/52/92 60/60/106 59/59/107 51/51/93
f 53/53/94 61/61/108 60/60/109 52/52/95
f 54/54/96 62/62/110 61/61/111 53/53/97
f 55/55/98 63/63/112 62/62/113 54/54/99
f 56/56/114 64/64/114 63/63/114 55/55/114
f 57/57/115 65/65/116 72/72/117 64/64/115
f 58/58/102 66/66/118 65/65/119 57/57/103
f 59/59/104 67/67/120 66/66/121 58/58/105
f 60/60/106 68/68/122 67/67/123 59/59/107
f 61/61/108 69/69/124 68/68/125 60/60/109
f 62/62/110 70/70/126 69/69/127 61/61/111
f 63/63/112 71/71/128 70/70/129 62/62/113
f 64/64/130 72/72/131 71/71/132 63/63/130
f 65/65/116 73/73/133 80/80/133 72/72/117
f 66/66/118 74/74/134 73/73/134 65/65/119
f 67/67/120 75/75/135 74/74/135 66/66/121
f 68/68/122 76/76/136 75/75/136 67/67/123
f 69/69/124 77/77/137 76/76/137 68/68/125
f 70/70/126 78/78/138 77/77/138 69/69/127
f 71/71/128 79/79/139 78/78/139 70/70/129
f 72/72/131 80/80/140 79/79/140 71/71/132
f 4/4/141 3/3/142 83/83/142 84/84/141
f 7/7/143 6/6/144 86/86/144 87/87/143
f 2/2/145 1/1/146 81/81/146 82/82/145
f 5/5/147 4/4/141 84/84/141 85/85/147
f 8/8/148 7/7/143 87/87/143 88/88/148
f 1/1/146 8/8/148 88/88/148 81/81/146
f 3/3/142 2/2/145 82/82/145 83/83/142
f 6/6/144 5/5/147 85/85/147 86/86/144
f 84/84/149 83/83/149 91/91/149 92/92/149
f 82/82/150 81/81/150 89/89/150 90/90/150
f 87/87/151 86/86/151 94/94/151 95/95/151
f 85/85/152 84/84/152 92/92/152 93/93/152
f 83/83/153 82/82/153 90/90/153 91/91/153
f 81/81/154 88/88/154 96/96/154 89/89/154
f 88/88/155 87/87/155 95/95/155 96/96/155
f 86/86/156 85/85/156 93/93/156 94/94/156
f 90/90/157 89/89/158 105/105/158 107/107/157
f 103/103/159 104/104/160 114/114/160 120/120/159
f 89/89/158 96/96/161 106/106/161 105/105/158
f 102/102/162 103/103/159 120/120/159 119/119/162
f 96/96/161 95/95/163 112/112/163 106/106/161
f 101/101/164 102/102/162 119/119/162 118/118/164
f 95/95/163 94/94/157 111/111/165 112/112/163
f 100/100/160 101/101/164 118/118/164 117/117/160
f 106/106/166 112/112/166 120/120/166 114/114/166
f 111/111/167 110/110/167 118/118/167 119/119/167
f 109/109/168 108/108/168 116/116/168 117/117/168
f 107/107/169 105/105/169 113/113/169 115/115/169
f 112/112/170 111/111/170 119/119/170 120/120/170
f 110/110/171 109/109/171 117/117/171 118/118/171
f 108/108/172 107/107/172 115/115/172 116/116/172
f 105/105/173 106/106/173 114/114/173 113/113/173
f 104/104/160 97/97/174 113/113/174 114/114/160
f 91/91/175 90/90/157 107/107/157 108/108/175
f 97/97/174 98/98/162 115/115/176 113/113/174
f 92/92/161 91/91/175 108/108/175 109/109/161
f 98/98/162 99/99/177 116/116/177 115/115/176
f 93/93/178 92/92/161 109/109/161 110/110/178
f 99/99/177 100/100/160 117/117/160 116/116/177
f 94/94/157 93/93/178 110/110/178 111/111/165
f 77/77/179 78/78/179 126/126/180 125/125/181
f 80/80/182 73/73/182 121/121/182 128/128/182
f 76/76/183 77/77/183 125/125/183 124/124/183
f 75/75/184 76/76/184 124/124/184 123/123/184
f 74/74/185 75/75/185 123/123/185 122/122/185
f 79/79/186 80/80/186 128/128/186 127/127/186
f 73/73/187 74/74/187 122/122/187 121/121/187
f 78/78/188 79/79/188 127/127/188 126/126/188
f 124/124/189 125/125/189 133/133/190 132/132/191
f 122/122/192 123/123/192 131/131/193 130/130/194
f 128/128/195 121/121/195 129/129/196 136/136/197
f 127/127/198 128/128/198 136/136/199 135/135/200
f 125/125/181 126/126/180 134/134/201 133/133/201
f 123/123/202 124/124/202 132/132/203 131/131/204
f 121/121/205 122/122/205 130/130/206 129/129/207
f 126/126/208 127/127/208 135/135/209 134/134/210
f 134/134/210 135/135/209 143/143/211 142/142/211
f 132/132/191 133/133/190 141/141/212 140/140/212
f 130/130/194 131/131/193 139/139/213 138/138/213
f 136/136/197 129/129/196 137/137/214 144/144/214
f 135/135/200 136/136/199 144/144/215 143/143/215
f 133/133/216 134/134/216 142/142/216 141/141/216
f 131/131/204 132/132/203 140/140/217 139/139/217
f 129/129/207 130/130/206 138/138/218 137/137/218
f 146/146/219 148/148/219 147/147/219 145/145/219
f 150/150/220 149/149/220 151/151/220 152/152/220
f 148/148/221 146/146/221 150/150/221 152/152/221
f 146/146/222 145/145/222 149/149/222 150/150/222
f 145/145/223 147/147/223 151/151/223 149/149/223
f 147/147/224 148/148/224 152/152/224 151/151/224
s 0
f 153/153/225 155/155/225 156/156/225 154/154/225
f 157/157/226 158/158/226 155/155/226 153/153/226
f 159/159/227 160/160/227 158/158/227 157/157/227
f 161/161/228 162/162/228 160/160/228 159/159/228
f 163/163/229 164/164/229 162/162/229 161/161/229
f 165/165/230 166/166/230 164/164/230 163/163/230
f 167/167/231 168/168/231 166/166/231 165/165/231
f 154/154/232 156/156/232 168/168/232 167/167/232
f 166/166/220 168/168/220 179/179/220 178/178/220
f 170/170/219 169/169/219 171/171/219 172/172/219 173/173/219 174/174/219 175/175/219 176/176/219
f 155/155/233 158/158/233 171/171/233 169/169/233
f 162/162/234 164/164/234 174/174/234 173/173/234
f 156/156/235 155/155/235 169/169/235 170/170/235
f 158/158/236 160/160/236 172/172/236 171/171/236
f 168/168/237 176/176/237 182/182/237 179/179/237
f 168/168/238 156/156/238 170/170/238 176/176/238
f 160/160/239 162/162/239 173/173/239 172/172/239
f 178/178/240 179/179/240 182/182/240 181/181/240
f 177/177/241 178/178/241 181/181/241 180/180/241
f 176/176/219 175/175/219 181/181/219 182/182/219
f 164/164/220 166/166/220 178/178/220 177/177/220
f 175/175/219 174/174/219 180/180/219 181/181/219
f 174/174/242 164/164/242 177/177/242 180/180/242
