# Blender 3.4.1
# www.blender.org
mtllib fauset011.mtl
o fauset.010
v -0.169049 -0.978121 -0.099430
v -0.169049 -0.978121 -0.264317
v -0.169049 0.420687 -0.264317
v 0.076626 -0.978121 -0.099430
v 0.076626 -0.978121 -0.264317
v 0.076626 0.420687 -0.264317
v -0.151481 0.488266 -0.116998
v -0.151481 0.488266 -0.246749
v 0.059058 0.488266 -0.116998
v 0.059058 0.488266 -0.246749
v 0.076626 0.488266 0.534530
v -0.169049 0.488266 0.534530
v -0.169049 0.362963 -0.099430
v -0.169049 0.420687 -0.041706
v -0.169049 0.478411 -0.099430
v -0.169049 0.420687 -0.157154
v -0.169049 0.391825 -0.091697
v -0.169049 0.412954 -0.070568
v 0.076626 0.420687 -0.041706
v 0.076626 0.362963 -0.099430
v 0.076626 0.420687 -0.157154
v 0.076626 0.478411 -0.099430
v 0.076626 0.412954 -0.070568
v 0.076626 0.391825 -0.091697
v -0.169049 0.488266 -0.099430
v -0.169049 0.488266 -0.264317
v 0.076626 0.488266 -0.099430
v 0.076626 0.488266 -0.264317
v -0.151481 0.511618 -0.116998
v -0.151481 0.511618 -0.246749
v 0.059058 0.511618 -0.116998
v 0.059058 0.511618 -0.246749
v -0.177805 0.520495 -0.100775
v -0.177805 0.520495 -0.262972
v 0.085383 0.520495 -0.100775
v 0.085383 0.520495 -0.262972
v -0.177805 0.572255 -0.100775
v -0.177805 0.572255 -0.262972
v 0.085383 0.572255 -0.100775
v 0.085383 0.572255 -0.262972
v -0.169049 -1.004528 -0.099430
v -0.169049 -1.004528 -0.264317
v 0.076626 -1.004528 -0.099430
v 0.076626 -1.004528 -0.264317
v -0.230539 -0.978121 -0.037940
v -0.230539 -0.978121 -0.325807
v 0.138116 -0.978121 -0.037940
v 0.138116 -0.978121 -0.325807
v -0.230539 -1.004528 -0.037940
v -0.230539 -1.004528 -0.325807
v 0.138116 -1.004528 -0.037940
v 0.138116 -1.004528 -0.325807
v 0.076626 0.420687 0.603478
v -0.169049 0.420687 0.603478
v 0.076626 0.488266 0.603478
v -0.169049 0.488266 0.603478
v 0.076626 0.344995 0.534530
v -0.169049 0.344995 0.534530
v 0.076626 0.344995 0.603478
v -0.169049 0.344995 0.603478
v 0.076626 0.390708 0.534530
v 0.076626 0.420687 0.504551
v 0.076626 0.450666 0.534530
v 0.076626 0.420687 0.564510
v 0.076626 0.411906 0.525750
v -0.169049 0.420687 0.504551
v -0.169049 0.390708 0.534530
v -0.169049 0.420687 0.564510
v -0.169049 0.450666 0.534530
v -0.169049 0.411906 0.525750
v 0.252989 -0.535906 -0.248257
v 0.304929 -0.535906 -0.248257
v 0.252989 -0.172403 -0.248257
v 0.304929 -0.172403 -0.248257
v 0.304929 -0.535906 -0.113078
v 0.252989 -0.535906 -0.113078
v 0.252989 -0.172403 -0.113078
v 0.304929 -0.172403 -0.113078
v 0.304929 -0.789583 -0.248257
v 0.252989 -0.789583 -0.248257
v 0.304929 -0.789583 -0.113078
v 0.252989 -0.789583 -0.113078
v -0.028177 -0.535906 -0.113078
v -0.028177 -0.535906 -0.248257
v -0.028177 -0.789583 -0.113078
v -0.028177 -0.789583 -0.248257
vn -0.0000 -0.0000 1.0000
vn 1.0000 -0.0000 -0.0000
vn -0.0000 -0.0000 -1.0000
vn -0.0000 1.0000 -0.0000
vn -1.0000 -0.0000 -0.0000
vn -0.0000 -0.9659 0.2588
vn -0.0000 -0.7071 0.7071
vn -0.0000 -0.2588 0.9659
vn -0.0000 -0.8772 0.4800
vn 0.3196 -0.9476 -0.0000
vn -0.0000 -0.8772 -0.4800
vn -0.3196 -0.9476 -0.0000
vn -0.0000 -1.0000 -0.0000
vn -0.0000 -0.3827 -0.9239
vn -0.0000 -0.9239 -0.3827
vt 0.408951 0.106275
vt 0.408951 0.106275
vt 0.408951 0.106275
vt 0.408951 0.106275
vt 0.408951 0.106275
vt 0.408951 0.106275
vt 0.408951 0.106275
vt 0.408951 0.106275
vt 0.408951 0.106275
vt 0.408951 0.106275
vt 0.408951 0.106275
vt 0.408951 0.106275
vt 0.408951 0.106275
vt 0.408951 0.106275
vt 0.408951 0.106275
vt 0.408951 0.106275
vt 0.408951 0.106275
vt 0.408951 0.106275
vt 0.408951 0.106275
vt 0.408951 0.106275
vt 0.408951 0.106275
vt 0.408951 0.106275
vt 0.408951 0.106275
vt 0.408951 0.106275
vt 0.408951 0.106275
vt 0.408951 0.106275
vt 0.408951 0.106275
vt 0.408951 0.106275
vt 0.408951 0.106275
vt 0.408951 0.106275
vt 0.408951 0.106275
vt 0.408951 0.106275
vt 0.408951 0.106275
vt 0.408951 0.106275
vt 0.408951 0.106275
vt 0.408951 0.106275
vt 0.408951 0.106275
vt 0.408951 0.106275
vt 0.408951 0.106275
vt 0.408951 0.106275
vt 0.408951 0.106275
vt 0.408951 0.106275
vt 0.408951 0.106275
vt 0.408951 0.106275
vt 0.408951 0.106275
vt 0.408951 0.106275
vt 0.408951 0.106275
vt 0.408951 0.106275
vt 0.408951 0.106275
vt 0.408951 0.106275
vt 0.408951 0.106275
vt 0.408951 0.106275
vt 0.408951 0.106275
vt 0.408951 0.106275
vt 0.408951 0.106275
vt 0.408951 0.106275
vt 0.408951 0.106275
vt 0.408951 0.106275
vt 0.408951 0.106275
vt 0.408951 0.106275
vt 0.408951 0.106275
vt 0.408951 0.106275
vt 0.408951 0.106275
vt 0.408951 0.106275
vt 0.408951 0.106275
vt 0.408951 0.106275
vt 0.408951 0.106275
vt 0.408951 0.106275
vt 0.408951 0.106275
vt 0.408951 0.106275
vt 0.836805 0.112476
vt 0.836805 0.112476
vt 0.836805 0.112476
vt 0.836805 0.112476
vt 0.836805 0.112476
vt 0.836805 0.112476
vt 0.836805 0.112476
vt 0.836805 0.112476
vt 0.836805 0.112476
vt 0.836805 0.112476
vt 0.836805 0.112476
vt 0.836805 0.112476
vt 0.836805 0.112476
vt 0.836805 0.112476
vt 0.836805 0.112476
vt 0.836805 0.112476
s 0
usemtl Material
f 13/13/1 1/1/1 4/4/1 20/20/1
f 61/61/2 64/64/2 53/53/2 59/59/2 57/57/2
f 2/2/3 3/3/3 6/6/3 5/5/3
f 5/5/4 4/4/4 47/47/4 48/48/4
f 64/64/2 63/63/2 11/11/2 55/55/2 53/53/2
f 6/6/3 3/3/3 26/26/3 28/28/3
f 8/8/5 7/7/5 29/29/5 30/30/5
f 1/1/5 13/13/5 16/16/5 3/3/5 2/2/5
f 4/4/2 5/5/2 6/6/2 21/21/2 20/20/2
f 54/54/5 68/68/5 67/67/5 58/58/5 60/60/5
f 27/27/4 25/25/4 12/12/4 11/11/4
f 22/22/2 21/21/2 6/6/2 28/28/2 27/27/2
f 13/13/5 17/17/5 18/18/5 14/14/5 15/15/5 16/16/5
f 19/19/2 23/23/2 24/24/2 20/20/2 21/21/2 22/22/2
f 19/19/6 14/14/6 18/18/6 23/23/6
f 23/23/7 18/18/7 17/17/7 24/24/7
f 24/24/8 17/17/8 13/13/8 20/20/8
f 3/3/5 16/16/5 15/15/5 25/25/5 26/26/5
f 7/7/4 8/8/4 26/26/4 25/25/4
f 10/10/4 9/9/4 27/27/4 28/28/4
f 8/8/4 10/10/4 28/28/4 26/26/4
f 9/9/4 7/7/4 25/25/4 27/27/4
f 29/29/9 31/31/9 35/35/9 33/33/9
f 7/7/1 9/9/1 31/31/1 29/29/1
f 9/9/2 10/10/2 32/32/2 31/31/2
f 10/10/3 8/8/3 30/30/3 32/32/3
f 33/33/1 35/35/1 39/39/1 37/37/1
f 31/31/10 32/32/10 36/36/10 35/35/10
f 32/32/11 30/30/11 34/34/11 36/36/11
f 30/30/12 29/29/12 33/33/12 34/34/12
f 38/38/4 37/37/4 39/39/4 40/40/4
f 35/35/2 36/36/2 40/40/2 39/39/2
f 36/36/3 34/34/3 38/38/3 40/40/3
f 34/34/5 33/33/5 37/37/5 38/38/5
f 41/41/13 42/42/13 44/44/13 43/43/13
f 4/4/4 1/1/4 45/45/4 47/47/4
f 43/43/13 44/44/13 52/52/13 51/51/13
f 41/41/13 43/43/13 51/51/13 49/49/13
f 47/47/1 45/45/1 49/49/1 51/51/1
f 48/48/2 47/47/2 51/51/2 52/52/2
f 45/45/5 46/46/5 50/50/5 49/49/5
f 46/46/3 48/48/3 52/52/3 50/50/3
f 44/44/13 42/42/13 50/50/13 52/52/13
f 1/1/4 2/2/4 46/46/4 45/45/4
f 42/42/13 41/41/13 49/49/13 50/50/13
f 2/2/4 5/5/4 48/48/4 46/46/4
f 54/54/1 53/53/1 55/55/1 56/56/1
f 11/11/4 12/12/4 56/56/4 55/55/4
f 19/19/2 22/22/2 27/27/2 11/11/2 63/63/2 62/62/2
f 25/25/5 15/15/5 14/14/5 66/66/5 69/69/5 12/12/5
f 58/58/13 57/57/13 59/59/13 60/60/13
f 14/14/13 19/19/13 62/62/13 66/66/13
f 53/53/1 54/54/1 60/60/1 59/59/1
f 12/12/5 69/69/5 68/68/5 54/54/5 56/56/5
f 61/61/2 65/65/2 62/62/2 63/63/2 64/64/2
f 66/66/5 70/70/5 67/67/5 68/68/5 69/69/5
f 61/61/14 67/67/14 70/70/14 65/65/14
f 65/65/15 70/70/15 66/66/15 62/62/15
f 67/67/3 61/61/3 57/57/3 58/58/3
f 73/73/3 74/74/3 72/72/3 71/71/3
f 77/77/1 76/76/1 75/75/1 78/78/1
f 76/76/4 71/71/4 84/84/4 83/83/4
f 72/72/2 74/74/2 78/78/2 75/75/2
f 74/74/4 73/73/4 77/77/4 78/78/4
f 73/73/5 71/71/5 76/76/5 77/77/5
f 80/80/13 79/79/13 81/81/13 82/82/13
f 72/72/2 75/75/2 81/81/2 79/79/2
f 75/75/1 76/76/1 82/82/1 81/81/1
f 71/71/3 72/72/3 79/79/3 80/80/3
f 83/83/5 84/84/5 86/86/5 85/85/5
f 71/71/3 80/80/3 86/86/3 84/84/3
f 82/82/1 76/76/1 83/83/1 85/85/1
f 80/80/13 82/82/13 85/85/13 86/86/13
