# Blender 3.4.1
# www.blender.org
mtllib fauset003.mtl
o fauset.002
v -0.041643 0.213676 -0.202318
v 0.009271 0.213676 -0.207598
v 0.056004 0.213676 -0.186713
v 0.086033 0.213676 -0.145260
v 0.091313 0.213676 -0.094346
v 0.070428 0.213676 -0.047613
v 0.028975 0.213676 -0.017583
v -0.021939 0.213676 -0.012304
v -0.068672 0.213676 -0.033188
v -0.098701 0.213676 -0.074642
v -0.103981 0.213676 -0.125556
v -0.083096 0.213676 -0.172289
v 0.009271 0.330526 -0.207598
v -0.041643 0.330526 -0.202318
v 0.056004 0.330526 -0.186713
v 0.086033 0.330526 -0.145260
v 0.091313 0.330526 -0.094346
v 0.070428 0.330526 -0.047613
v 0.028975 0.330526 -0.017583
v -0.021939 0.330526 -0.012304
v -0.068672 0.330526 -0.033188
v -0.098701 0.330526 -0.074642
v -0.103981 0.330526 -0.125556
v -0.083096 0.330526 -0.172289
v -0.103981 0.306280 -0.125556
v -0.083096 0.306280 -0.172289
v -0.041643 0.306280 -0.202318
v 0.009271 0.306280 -0.207598
v -0.021939 0.306280 -0.012304
v -0.068672 0.306280 -0.033188
v 0.091313 0.306280 -0.094346
v 0.070428 0.306280 -0.047613
v 0.056004 0.306280 -0.186713
v -0.098701 0.306280 -0.074642
v 0.028975 0.306280 -0.017583
v 0.086033 0.306280 -0.145260
v 0.122796 0.330526 0.227849
v 0.164249 0.330526 0.197820
v 0.071882 0.330526 0.233129
v 0.071882 0.306280 0.233129
v 0.164249 0.306280 0.197820
v 0.122796 0.306280 0.227849
v -0.006335 -0.448089 -0.208835
v -0.006335 0.213676 -0.208835
v 0.043108 -0.448089 -0.195587
v 0.043108 0.213676 -0.195587
v 0.079302 -0.448089 -0.159392
v 0.079302 0.213676 -0.159392
v 0.092551 -0.448089 -0.109949
v 0.092551 0.213676 -0.109949
v 0.079302 -0.448089 -0.060506
v 0.079302 0.213676 -0.060506
v 0.043108 -0.448089 -0.024312
v 0.043108 0.213676 -0.024312
v -0.006335 -0.448089 -0.011063
v -0.006335 0.213676 -0.011063
v -0.055778 -0.448089 -0.024312
v -0.055778 0.213676 -0.024312
v -0.091973 -0.448089 -0.060506
v -0.091973 0.213676 -0.060506
v -0.105222 -0.448089 -0.109949
v -0.105222 0.213676 -0.109949
v -0.091973 -0.448089 -0.159392
v -0.091973 0.213676 -0.159392
v -0.055779 -0.448089 -0.195587
v -0.055779 0.213676 -0.195587
v -0.006335 -0.448089 -0.241478
v 0.059429 -0.448089 -0.223857
v 0.107572 -0.448089 -0.175714
v 0.125193 -0.448089 -0.109949
v 0.107572 -0.448089 -0.044185
v 0.059429 -0.448089 0.003958
v -0.006335 -0.448089 0.021579
v -0.072100 -0.448089 0.003958
v -0.120243 -0.448089 -0.044185
v -0.137864 -0.448089 -0.109949
v -0.120243 -0.448089 -0.175714
v -0.072100 -0.448089 -0.223857
v -0.006335 -0.467946 -0.241478
v 0.059429 -0.467946 -0.223857
v 0.107572 -0.467946 -0.175714
v 0.125193 -0.467946 -0.109949
v 0.107572 -0.467946 -0.044185
v 0.059429 -0.467946 0.003958
v -0.006335 -0.467946 0.021579
v -0.072100 -0.467946 0.003958
v -0.120243 -0.467946 -0.044185
v -0.137864 -0.467946 -0.109949
v -0.120243 -0.467946 -0.175714
v -0.072100 -0.467946 -0.223857
v -0.044585 0.038894 -0.058911
v -0.079146 0.055120 -0.058911
v -0.083392 0.054637 0.291932
v -0.046518 0.037133 0.289628
v -0.046896 0.024990 0.336066
v -0.083630 0.040769 0.345176
v -0.046896 -0.008204 0.369260
v -0.083630 0.000906 0.385039
v 0.067538 0.055120 -0.058911
v 0.032977 0.038894 -0.058911
v 0.034910 0.037133 0.289628
v 0.071784 0.054637 0.291932
v 0.072022 0.040769 0.345176
v 0.035288 0.024990 0.336066
v 0.072022 0.000906 0.385039
v 0.035288 -0.008204 0.369260
v -0.046072 0.107913 0.299030
v -0.082948 0.090799 0.296733
v -0.082798 0.071712 0.363090
v -0.045982 0.086733 0.371804
v -0.082798 0.018820 0.415982
v -0.045981 0.027534 0.431003
v -0.079149 0.090284 -0.058911
v -0.044595 0.106544 -0.058907
v 0.071340 0.090799 0.296733
v 0.034464 0.107913 0.299030
v 0.034373 0.086733 0.371804
v 0.071190 0.071712 0.363090
v 0.034373 0.027534 0.431003
v 0.071190 0.018820 0.415982
v 0.032987 0.106544 -0.058907
v 0.067540 0.090284 -0.058911
vn -0.0000 -1.0000 -0.0000
vn -0.0000 1.0000 -0.0000
vn -0.7763 -0.0000 -0.6304
vn -0.9875 -0.0000 -0.1578
vn 0.1578 -0.0000 -0.9875
vn -0.3571 -0.0000 -0.9341
vn -0.6304 -0.0000 0.7763
vn -0.2450 -0.0000 0.9695
vn -0.4080 -0.0000 0.9130
vn 0.8293 -0.0000 0.5588
vn 0.9875 -0.0000 0.1578
vn 0.9130 -0.0000 0.4080
vn 0.6304 -0.0000 -0.7763
vn -0.9341 -0.0000 0.3571
vn 0.9341 -0.0000 -0.3571
vn -0.1578 -0.0000 0.9875
vn 0.3571 -0.0000 0.9341
vn 0.7763 -0.0000 0.6304
vn 0.5867 -0.0000 0.8098
vn 0.1031 -0.0000 0.9947
vn -0.0000 -0.0000 -1.0000
vn 0.5000 -0.0000 -0.8660
vn 0.8660 -0.0000 -0.5000
vn 1.0000 -0.0000 -0.0000
vn 0.8660 -0.0000 0.5000
vn 0.5000 -0.0000 0.8660
vn -0.0000 -0.0000 1.0000
vn -0.5000 -0.0000 0.8660
vn -0.8660 -0.0000 0.5000
vn -1.0000 -0.0000 -0.0000
vn -0.8660 -0.0000 -0.5000
vn -0.5000 -0.0000 -0.8660
vn 0.9999 0.0123 -0.0037
vn 0.9999 0.0070 -0.0114
vn -0.9998 0.0173 0.0106
vn -0.9997 0.0170 0.0170
vn -0.9998 0.0173 0.0105
vn -0.2163 0.9763 -0.0048
vn -0.2136 0.9675 0.1353
vn 0.2136 0.9675 0.1353
vn 0.2163 0.9763 -0.0048
vn -0.2045 0.6922 0.6922
vn 0.2045 0.6922 0.6922
vn 0.2120 0.8412 0.4974
vn -0.2120 0.8412 0.4974
vn 0.9998 0.0173 0.0106
vn 0.9998 0.0173 0.0105
vn -0.2183 -0.9759 -0.0060
vn 0.2183 -0.9759 -0.0060
vn 0.2250 -0.9659 -0.1278
vn -0.2250 -0.9659 -0.1278
vn -0.2373 -0.8425 -0.4836
vn 0.2373 -0.8425 -0.4836
vn 0.9997 0.0170 0.0170
vn -0.9999 0.0123 -0.0037
vn -0.2294 -0.6883 -0.6883
vn 0.2294 -0.6883 -0.6883
vn -0.4436 -0.7767 -0.4471
vn -0.4315 -0.8941 -0.1199
vn -0.4321 -0.6377 -0.6377
vn -0.4271 -0.9042 -0.0067
vn 0.4315 -0.8941 -0.1199
vn 0.4436 -0.7767 -0.4471
vn 0.4321 -0.6377 -0.6377
vn 0.4271 -0.9042 -0.0067
vn -0.4243 0.8968 0.1254
vn -0.4276 0.7779 0.4605
vn -0.4148 0.6434 0.6434
vn -0.4232 0.9060 -0.0055
vn 0.4276 0.7779 0.4605
vn 0.4243 0.8968 0.1254
vn 0.4148 0.6434 0.6434
vn 0.4232 0.9060 -0.0055
vn -0.0000 -0.8655 0.5010
vn -0.9999 0.0070 -0.0114
vt 0.408951 0.106275
vt 0.408951 0.106275
vt 0.408951 0.106275
vt 0.408951 0.106275
vt 0.408951 0.106275
vt 0.408951 0.106275
vt 0.408951 0.106275
vt 0.408951 0.106275
vt 0.408951 0.106275
vt 0.408951 0.106275
vt 0.408951 0.106275
vt 0.408951 0.106275
vt 0.408951 0.106275
vt 0.408951 0.106275
vt 0.408951 0.106275
vt 0.408951 0.106275
vt 0.408951 0.106275
vt 0.408951 0.106275
vt 0.408951 0.106275
vt 0.408951 0.106275
vt 0.408951 0.106275
vt 0.408951 0.106275
vt 0.408951 0.106275
vt 0.408951 0.106275
vt 0.408951 0.106275
vt 0.408951 0.106275
vt 0.408951 0.106275
vt 0.408951 0.106275
vt 0.408951 0.106275
vt 0.408951 0.106275
vt 0.408951 0.106275
vt 0.408951 0.106275
vt 0.408951 0.106275
vt 0.408951 0.106275
vt 0.408951 0.106275
vt 0.408951 0.106275
vt 0.408951 0.106275
vt 0.408951 0.106275
vt 0.408951 0.106275
vt 0.408951 0.106275
vt 0.408951 0.106275
vt 0.408951 0.106275
vt 0.802701 0.109375
vt 0.802701 0.109375
vt 0.802701 0.109375
vt 0.802701 0.109375
vt 0.802701 0.109375
vt 0.802701 0.109375
vt 0.802701 0.109375
vt 0.802701 0.109375
vt 0.802701 0.109375
vt 0.802701 0.109375
vt 0.802701 0.109375
vt 0.802701 0.109375
vt 0.802701 0.109375
vt 0.802701 0.109375
vt 0.802701 0.109375
vt 0.802701 0.109375
vt 0.802701 0.109375
vt 0.802701 0.109375
vt 0.802701 0.109375
vt 0.802701 0.109375
vt 0.802701 0.109375
vt 0.802701 0.109375
vt 0.802701 0.109375
vt 0.802701 0.109375
vt 0.802701 0.109375
vt 0.802701 0.109375
vt 0.802701 0.109375
vt 0.802701 0.109375
vt 0.802701 0.109375
vt 0.802701 0.109375
vt 0.802701 0.109375
vt 0.802701 0.109375
vt 0.802701 0.109375
vt 0.802701 0.109375
vt 0.802701 0.109375
vt 0.802701 0.109375
vt 0.802701 0.109375
vt 0.802701 0.109375
vt 0.802701 0.109375
vt 0.802701 0.109375
vt 0.802701 0.109375
vt 0.802701 0.109375
vt 0.802701 0.109375
vt 0.802701 0.109375
vt 0.802701 0.109375
vt 0.802701 0.109375
vt 0.802701 0.109375
vt 0.802701 0.109375
vt 0.802701 0.109375
vt 0.802701 0.109375
vt 0.802701 0.109375
vt 0.802701 0.109375
vt 0.802701 0.109375
vt 0.802701 0.109375
vt 0.802701 0.109375
vt 0.802701 0.109375
vt 0.802701 0.109375
vt 0.802701 0.109375
vt 0.802701 0.109375
vt 0.802701 0.109375
vt 0.802701 0.109375
vt 0.802701 0.109375
vt 0.802701 0.109375
vt 0.802701 0.109375
vt 0.802701 0.109375
vt 0.802701 0.109375
vt 0.802701 0.109375
vt 0.802701 0.109375
vt 0.802701 0.109375
vt 0.802701 0.109375
vt 0.802701 0.109375
vt 0.802701 0.109375
vt 0.802701 0.109375
vt 0.802701 0.109375
vt 0.802701 0.109375
vt 0.802701 0.109375
vt 0.802701 0.109375
vt 0.802701 0.109375
vt 0.802701 0.109375
vt 0.802701 0.109375
s 1
usemtl Material
f 2/2/1 3/3/1 4/4/1 5/5/1 6/6/1 7/7/1 8/8/1 9/9/1 10/10/1 11/11/1 12/12/1 1/1/1
f 13/13/2 14/14/2 24/24/2 23/23/2 22/22/2 21/21/2 20/20/2 19/19/2 18/18/2 17/17/2 16/16/2 15/15/2
f 26/26/3 25/25/4 23/23/4 24/24/3
f 28/28/5 27/27/6 14/14/6 13/13/5
f 30/30/7 29/29/8 20/20/9 21/21/7
f 32/32/10 31/31/11 17/17/11 18/18/12
f 27/27/6 26/26/3 24/24/3 14/14/6
f 33/33/13 28/28/5 13/13/5 15/15/13
f 34/34/14 30/30/7 21/21/7 22/22/14
f 35/35/1 32/32/1 41/41/1 42/42/1
f 36/36/15 33/33/13 15/15/13 16/16/15
f 25/25/4 34/34/14 22/22/14 23/23/4
f 32/32/15 18/18/15 38/38/15 41/41/15
f 31/31/11 36/36/15 16/16/15 17/17/11
f 5/5/11 4/4/15 36/36/15 31/31/11
f 8/8/16 7/7/17 35/35/17 29/29/8
f 11/11/4 10/10/14 34/34/14 25/25/4
f 4/4/15 3/3/13 33/33/13 36/36/15
f 7/7/17 6/6/18 32/32/10 35/35/17
f 10/10/14 9/9/7 30/30/7 34/34/14
f 3/3/13 2/2/5 28/28/5 33/33/13
f 1/1/6 12/12/3 26/26/3 27/27/6
f 6/6/18 5/5/11 31/31/11 32/32/10
f 9/9/7 8/8/16 29/29/8 30/30/7
f 2/2/5 1/1/6 27/27/6 28/28/5
f 12/12/3 11/11/4 25/25/4 26/26/3
f 42/42/17 41/41/19 38/38/19 37/37/17
f 40/40/20 42/42/17 37/37/17 39/39/20
f 18/18/2 19/19/2 37/37/2 38/38/2
f 20/20/14 29/29/14 40/40/14 39/39/14
f 19/19/2 20/20/2 39/39/2 37/37/2
f 29/29/1 35/35/1 42/42/1 40/40/1
f 43/43/21 44/44/21 46/46/22 45/45/22
f 45/45/22 46/46/22 48/48/23 47/47/23
f 47/47/23 48/48/23 50/50/24 49/49/24
f 49/49/24 50/50/24 52/52/25 51/51/25
f 51/51/25 52/52/25 54/54/26 53/53/26
f 53/53/26 54/54/26 56/56/27 55/55/27
f 55/55/27 56/56/27 58/58/28 57/57/28
f 57/57/28 58/58/28 60/60/29 59/59/29
f 59/59/29 60/60/29 62/62/30 61/61/30
f 61/61/30 62/62/30 64/64/31 63/63/31
f 46/46/2 44/44/2 66/66/2 64/64/2 62/62/2 60/60/2 58/58/2 56/56/2 54/54/2 52/52/2 50/50/2 48/48/2
f 63/63/31 64/64/31 66/66/32 65/65/32
f 65/65/32 66/66/32 44/44/21 43/43/21
f 65/65/2 43/43/2 67/67/2 78/78/2
f 55/55/2 57/57/2 74/74/2 73/73/2
f 45/45/2 47/47/2 69/69/2 68/68/2
f 59/59/2 61/61/2 76/76/2 75/75/2
f 49/49/2 51/51/2 71/71/2 70/70/2
f 79/79/1 80/80/1 81/81/1 82/82/1 83/83/1 84/84/1 85/85/1 86/86/1 87/87/1 88/88/1 89/89/1 90/90/1
f 63/63/2 65/65/2 78/78/2 77/77/2
f 53/53/2 55/55/2 73/73/2 72/72/2
f 74/74/28 75/75/29 87/87/29 86/86/28
f 73/73/27 74/74/28 86/86/28 85/85/27
f 72/72/26 73/73/27 85/85/27 84/84/26
f 71/71/25 72/72/26 84/84/26 83/83/25
f 70/70/24 71/71/25 83/83/25 82/82/24
f 78/78/32 67/67/21 79/79/21 90/90/32
f 67/67/21 68/68/22 80/80/22 79/79/21
f 69/69/23 70/70/24 82/82/24 81/81/23
f 77/77/31 78/78/32 90/90/32 89/89/31
f 68/68/22 69/69/23 81/81/23 80/80/22
f 76/76/30 77/77/31 89/89/31 88/88/30
f 75/75/29 76/76/30 88/88/30 87/87/29
f 51/51/2 53/53/2 72/72/2 71/71/2
f 61/61/2 63/63/2 77/77/2 76/76/2
f 47/47/2 49/49/2 70/70/2 69/69/2
f 57/57/2 59/59/2 75/75/2 74/74/2
f 43/43/2 45/45/2 68/68/2 67/67/2
f 99/99/21 100/100/21 91/91/21 92/92/21 113/113/21 114/114/21 121/121/21 122/122/21
f 102/102/33 99/99/34 122/122/34 115/115/33
f 96/96/35 98/98/36 111/111/36 109/109/37
f 114/114/38 107/107/39 116/116/40 121/121/41
f 112/112/42 119/119/43 117/117/44 110/110/45
f 103/103/46 102/102/33 115/115/33 118/118/47
f 110/110/45 117/117/44 116/116/40 107/107/39
f 91/91/48 100/100/49 101/101/50 94/94/51
f 95/95/52 94/94/51 101/101/50 104/104/53
f 105/105/54 103/103/46 118/118/47 120/120/54
f 93/93/55 96/96/35 109/109/37 108/108/55
f 97/97/56 95/95/52 104/104/53 106/106/57
f 94/94/51 95/95/52 96/96/58 93/93/59
f 95/95/52 97/97/56 98/98/60 96/96/58
f 93/93/59 92/92/61 91/91/48 94/94/51
f 102/102/62 103/103/63 104/104/53 101/101/50
f 103/103/63 105/105/64 106/106/57 104/104/53
f 101/101/50 100/100/49 99/99/65 102/102/62
f 108/108/66 109/109/67 110/110/45 107/107/39
f 109/109/67 111/111/68 112/112/42 110/110/45
f 107/107/39 114/114/38 113/113/69 108/108/66
f 116/116/40 117/117/44 118/118/70 115/115/71
f 117/117/44 119/119/43 120/120/72 118/118/70
f 115/115/71 122/122/73 121/121/41 116/116/40
f 97/97/74 106/106/74 105/105/74 120/120/74 119/119/74 112/112/74 111/111/74 98/98/74
f 92/92/75 93/93/55 108/108/55 113/113/75
