# Blender 3.4.1
# www.blender.org
mtllib fauset021.mtl
o fauset.020
v 0.125391 -0.038707 -0.410343
v 0.125391 -0.038707 -0.380915
v 0.125391 -0.244666 -0.410343
v 0.125391 -0.244666 -0.380915
v 0.234647 -0.038708 -0.380915
v 0.234647 -0.038708 -0.410344
v 0.234647 -0.244666 -0.410344
v 0.234647 -0.244666 -0.380915
v 0.125391 0.105025 -0.380915
v 0.125391 0.105025 -0.410343
v 0.234647 0.105025 -0.380915
v 0.234647 0.105025 -0.410344
v 0.234647 -0.038708 -0.569651
v 0.125391 -0.038707 -0.569651
v 0.234647 0.105025 -0.569651
v 0.125391 0.105025 -0.569651
v -0.139470 -0.018432 -0.554989
v -0.139470 0.074992 -0.554989
v -0.139470 0.074991 0.392328
v -0.000273 -0.018432 -0.554989
v -0.000273 0.074992 -0.554989
v -0.000273 0.074991 0.392328
v -0.129517 -0.008478 0.430617
v -0.129517 0.065038 0.430617
v -0.010226 -0.008478 0.430617
v -0.010226 0.065038 0.430617
v -0.139470 -0.018432 0.359622
v -0.139470 -0.051138 0.392328
v -0.139470 -0.018432 0.425034
v -0.139470 0.014274 0.392328
v -0.139470 -0.022814 0.375975
v -0.139470 -0.034785 0.387946
v -0.000273 -0.051138 0.392328
v -0.000273 -0.018432 0.359622
v -0.000273 0.014274 0.392328
v -0.000273 -0.018432 0.425034
v -0.000273 -0.034785 0.387946
v -0.000273 -0.022814 0.375975
v -0.139470 -0.018432 0.430617
v -0.139470 0.074991 0.430617
v -0.000273 -0.018432 0.430617
v -0.000273 0.074991 0.430617
v -0.129517 -0.008478 0.443849
v -0.129517 0.065038 0.443849
v -0.010226 -0.008478 0.443849
v -0.010226 0.065038 0.443849
v -0.144432 -0.017670 0.448879
v -0.144432 0.074230 0.448879
v 0.004689 -0.017670 0.448879
v 0.004689 0.074230 0.448879
v -0.144432 -0.017670 0.478205
v -0.144432 0.074230 0.478205
v 0.004689 -0.017670 0.478205
v 0.004689 0.074230 0.478205
v -0.139470 -0.018432 -0.569952
v -0.139470 0.074992 -0.569952
v -0.000273 -0.018432 -0.569952
v -0.000273 0.074992 -0.569952
v -0.226744 -0.134171 -0.554989
v -0.226744 0.210824 -0.554989
v 0.310191 -0.134171 -0.554989
v 0.310191 0.210824 -0.554989
v -0.226744 -0.134171 -0.569952
v -0.226744 0.210824 -0.569952
v 0.310191 -0.134171 -0.569952
v 0.310191 0.210824 -0.569952
v -0.139470 -0.101253 0.430617
v -0.000273 -0.101253 0.430617
v -0.139470 -0.101253 0.392328
v -0.000273 -0.101253 0.392328
vn -1.0000 -0.0000 -0.0000
vn 1.0000 -0.0000 -0.0000
vn -0.0000 -1.0000 -0.0000
vn -0.0000 -0.0000 1.0000
vn -0.0000 -0.0000 -1.0000
vn -0.0000 1.0000 -0.0000
vn -0.0000 -0.2588 -0.9659
vn -0.0000 -0.7071 -0.7071
vn -0.0000 -0.9659 -0.2588
vn -0.0000 -0.4800 -0.8772
vn 0.3196 -0.0000 -0.9476
vn -0.0000 0.4800 -0.8772
vn -0.3196 -0.0000 -0.9476
vt 0.408951 0.106275
vt 0.408951 0.106275
vt 0.408951 0.106275
vt 0.408951 0.106275
vt 0.408951 0.106275
vt 0.408951 0.106275
vt 0.408951 0.106275
vt 0.408951 0.106275
vt 0.408951 0.106275
vt 0.408951 0.106275
vt 0.408951 0.106275
vt 0.408951 0.106275
vt 0.408951 0.106275
vt 0.408951 0.106275
vt 0.408951 0.106275
vt 0.408951 0.106275
vt 0.790299 0.127977
vt 0.790299 0.127977
vt 0.790299 0.127977
vt 0.790299 0.127977
vt 0.790299 0.127977
vt 0.790299 0.127977
vt 0.790299 0.127977
vt 0.790299 0.127977
vt 0.790299 0.127977
vt 0.790299 0.127977
vt 0.790299 0.127977
vt 0.790299 0.127977
vt 0.790299 0.127977
vt 0.790299 0.127977
vt 0.790299 0.127977
vt 0.790299 0.127977
vt 0.790299 0.127977
vt 0.790299 0.127977
vt 0.790299 0.127977
vt 0.790299 0.127977
vt 0.790299 0.127977
vt 0.790299 0.127977
vt 0.790299 0.127977
vt 0.790299 0.127977
vt 0.790299 0.127977
vt 0.790299 0.127977
vt 0.790299 0.127977
vt 0.790299 0.127977
vt 0.790299 0.127977
vt 0.790299 0.127977
vt 0.790299 0.127977
vt 0.790299 0.127977
vt 0.790299 0.127977
vt 0.790299 0.127977
vt 0.790299 0.127977
vt 0.790299 0.127977
vt 0.790299 0.127977
vt 0.790299 0.127977
vt 0.790299 0.127977
vt 0.790299 0.127977
vt 0.790299 0.127977
vt 0.790299 0.127977
vt 0.790299 0.127977
vt 0.790299 0.127977
vt 0.790299 0.127977
vt 0.790299 0.127977
vt 0.790299 0.127977
vt 0.790299 0.127977
vt 0.790299 0.127977
vt 0.790299 0.127977
vt 0.790299 0.127977
vt 0.790299 0.127977
vt 0.790299 0.127977
vt 0.790299 0.127977
s 0
usemtl Material
f 3/3/1 4/4/1 2/2/1 1/1/1
f 7/7/2 6/6/2 5/5/2 8/8/2
f 6/6/3 1/1/3 14/14/3 13/13/3
f 2/2/4 4/4/4 8/8/4 5/5/4
f 4/4/3 3/3/3 7/7/3 8/8/3
f 3/3/5 1/1/5 6/6/5 7/7/5
f 10/10/6 9/9/6 11/11/6 12/12/6
f 2/2/4 5/5/4 11/11/4 9/9/4
f 5/5/2 6/6/2 12/12/2 11/11/2
f 1/1/1 2/2/1 9/9/1 10/10/1
f 13/13/5 14/14/5 16/16/5 15/15/5
f 1/1/1 10/10/1 16/16/1 14/14/1
f 12/12/2 6/6/2 13/13/2 15/15/2
f 10/10/6 12/12/6 15/15/6 16/16/6
f 27/27/3 17/17/3 20/20/3 34/34/3
f 18/18/6 19/19/6 22/22/6 21/21/6
f 21/21/4 20/20/4 61/61/4 62/62/4
f 22/22/6 19/19/6 40/40/6 42/42/6
f 24/24/1 23/23/1 43/43/1 44/44/1
f 17/17/1 27/27/1 30/30/1 19/19/1 18/18/1
f 20/20/2 21/21/2 22/22/2 35/35/2 34/34/2
f 36/36/2 35/35/2 22/22/2 42/42/2 41/41/2
f 27/27/1 31/31/1 32/32/1 28/28/1 29/29/1 30/30/1
f 33/33/2 37/37/2 38/38/2 34/34/2 35/35/2 36/36/2
f 33/33/7 28/28/7 32/32/7 37/37/7
f 37/37/8 32/32/8 31/31/8 38/38/8
f 38/38/9 31/31/9 27/27/9 34/34/9
f 19/19/1 30/30/1 29/29/1 39/39/1 40/40/1
f 23/23/4 24/24/4 40/40/4 39/39/4
f 26/26/4 25/25/4 41/41/4 42/42/4
f 24/24/4 26/26/4 42/42/4 40/40/4
f 25/25/4 23/23/4 39/39/4 41/41/4
f 43/43/10 45/45/10 49/49/10 47/47/10
f 23/23/3 25/25/3 45/45/3 43/43/3
f 25/25/2 26/26/2 46/46/2 45/45/2
f 26/26/6 24/24/6 44/44/6 46/46/6
f 47/47/3 49/49/3 53/53/3 51/51/3
f 45/45/11 46/46/11 50/50/11 49/49/11
f 46/46/12 44/44/12 48/48/12 50/50/12
f 44/44/13 43/43/13 47/47/13 48/48/13
f 52/52/4 51/51/4 53/53/4 54/54/4
f 49/49/2 50/50/2 54/54/2 53/53/2
f 50/50/6 48/48/6 52/52/6 54/54/6
f 48/48/1 47/47/1 51/51/1 52/52/1
f 55/55/5 56/56/5 58/58/5 57/57/5
f 20/20/4 17/17/4 59/59/4 61/61/4
f 57/57/5 58/58/5 66/66/5 65/65/5
f 55/55/5 57/57/5 65/65/5 63/63/5
f 61/61/3 59/59/3 63/63/3 65/65/3
f 62/62/2 61/61/2 65/65/2 66/66/2
f 59/59/1 60/60/1 64/64/1 63/63/1
f 60/60/6 62/62/6 66/66/6 64/64/6
f 58/58/5 56/56/5 64/64/5 66/66/5
f 17/17/4 18/18/4 60/60/4 59/59/4
f 56/56/5 55/55/5 63/63/5 64/64/5
f 18/18/4 21/21/4 62/62/4 60/60/4
f 28/28/5 33/33/5 70/70/5 69/69/5
f 33/33/2 36/36/2 41/41/2 68/68/2 70/70/2
f 41/41/4 39/39/4 67/67/4 68/68/4
f 39/39/1 29/29/1 28/28/1 69/69/1 67/67/1
f 70/70/3 68/68/3 67/67/3 69/69/3
