# Blender 3.4.1
# www.blender.org
mtllib fauset018.mtl
o fauset.017
v -0.589218 -0.358791 -0.296178
v -0.589218 -0.358791 0.085820
v 0.599522 -0.358791 -0.296178
v 0.599522 -0.358791 0.085820
v -0.589218 -0.414964 -0.296178
v -0.589218 -0.414964 0.085820
v 0.599522 -0.414964 -0.296178
v 0.599522 -0.414964 0.085820
v 0.464129 -0.219643 -0.188987
v 0.508930 -0.219643 -0.136143
v 0.502953 -0.219643 -0.066741
v 0.449186 -0.219643 -0.021824
v 0.379413 -0.219643 -0.028182
v 0.335020 -0.219643 -0.081861
v 0.341808 -0.219643 -0.150807
v 0.395159 -0.219643 -0.194917
v 0.501959 -0.115122 -0.261225
v 0.587061 -0.115122 -0.160845
v 0.575709 -0.115122 -0.029013
v 0.473573 -0.115122 0.056311
v 0.341037 -0.115122 0.044234
v 0.256709 -0.115122 -0.057734
v 0.370947 -0.115122 -0.272490
v 0.269603 -0.115122 -0.188701
v 0.464129 -0.364035 -0.188987
v 0.508930 -0.364035 -0.136143
v 0.502953 -0.364035 -0.066741
v 0.449186 -0.364035 -0.021824
v 0.379413 -0.364035 -0.028182
v 0.335020 -0.364035 -0.081861
v 0.341808 -0.364035 -0.150807
v 0.395159 -0.364035 -0.194917
v -0.367250 -0.115122 -0.270846
v -0.269032 -0.115122 -0.183257
v -0.261968 -0.115122 -0.051126
v -0.351265 -0.115122 0.047555
v -0.484194 -0.115122 0.054000
v -0.581864 -0.115122 -0.035269
v -0.498558 -0.115122 -0.263809
v -0.587284 -0.115122 -0.166757
v -0.394682 -0.219643 -0.194055
v -0.342976 -0.219643 -0.147944
v -0.339257 -0.219643 -0.078385
v -0.386267 -0.219643 -0.026436
v -0.456246 -0.219643 -0.023043
v -0.507663 -0.219643 -0.070038
v -0.510516 -0.219643 -0.139258
v -0.463807 -0.219643 -0.190350
v -0.587284 -0.149657 -0.166757
v -0.581864 -0.149657 -0.035269
v -0.484194 -0.149657 0.054000
v -0.351265 -0.149657 0.047555
v -0.261968 -0.149657 -0.051126
v -0.269032 -0.149657 -0.183257
v -0.498558 -0.149657 -0.263809
v -0.367250 -0.149657 -0.270846
v 0.269603 -0.149657 -0.188701
v 0.256709 -0.149657 -0.057734
v 0.341037 -0.149657 0.044234
v 0.473573 -0.149657 0.056311
v 0.575709 -0.149657 -0.029013
v 0.587061 -0.149657 -0.160845
v 0.370947 -0.149657 -0.272490
v 0.501959 -0.149657 -0.261225
v -0.394682 -0.364035 -0.194055
v -0.342976 -0.364035 -0.147944
v -0.339257 -0.364035 -0.078385
v -0.386267 -0.364035 -0.026436
v -0.456246 -0.364035 -0.023043
v -0.507663 -0.364035 -0.070038
v -0.510516 -0.364035 -0.139258
v -0.463807 -0.364035 -0.190350
v 0.000234 0.317496 -0.209528
v 0.049677 0.317496 -0.196280
v 0.085872 0.317496 -0.160085
v 0.099120 0.317496 -0.110642
v 0.085872 0.317496 -0.061199
v 0.049677 0.317496 -0.025004
v 0.000234 0.317496 -0.011756
v -0.049209 0.317496 -0.025004
v -0.085404 0.317496 -0.061199
v -0.098652 0.317496 -0.110642
v -0.085404 0.317496 -0.160085
v -0.049209 0.317496 -0.196280
v 0.049677 0.434346 -0.196280
v 0.000234 0.434346 -0.209528
v 0.085872 0.434346 -0.160085
v 0.099120 0.434346 -0.110642
v 0.085872 0.434346 -0.061199
v 0.049677 0.434346 -0.025004
v 0.000234 0.434346 -0.011756
v -0.049209 0.434346 -0.025004
v -0.085404 0.434346 -0.061199
v -0.098652 0.434346 -0.110642
v -0.085404 0.434346 -0.160085
v -0.049209 0.434346 -0.196280
v -0.085404 0.410100 -0.160085
v -0.049209 0.410100 -0.196280
v 0.000234 0.410100 -0.209528
v 0.049677 0.410100 -0.196280
v -0.049209 0.410100 -0.025004
v -0.085404 0.410100 -0.061199
v 0.085872 0.410100 -0.061199
v 0.049677 0.410100 -0.025004
v 0.085872 0.410100 -0.160085
v -0.098652 0.410100 -0.110642
v 0.000234 0.410100 -0.011756
v 0.099120 0.410100 -0.110642
v 0.000234 0.434346 0.250998
v 0.049677 0.434346 0.237750
v -0.049209 0.434346 0.237750
v -0.049209 0.410100 0.237750
v 0.049677 0.410100 0.237750
v 0.000234 0.410100 0.250998
v 0.000236 -0.344269 -0.209527
v 0.000236 0.317496 -0.209527
v 0.049679 -0.344269 -0.196279
v 0.049679 0.317496 -0.196279
v 0.085873 -0.344269 -0.160084
v 0.085873 0.317496 -0.160084
v 0.099122 -0.344269 -0.110641
v 0.099122 0.317496 -0.110641
v 0.085873 -0.344269 -0.061198
v 0.085873 0.317496 -0.061198
v 0.049679 -0.344269 -0.025003
v 0.049679 0.317496 -0.025003
v 0.000236 -0.344269 -0.011755
v 0.000236 0.317496 -0.011755
v -0.049207 -0.344269 -0.025003
v -0.049207 0.317496 -0.025003
v -0.085402 -0.344269 -0.061198
v -0.085402 0.317496 -0.061198
v -0.098650 -0.344269 -0.110641
v -0.098650 0.317496 -0.110641
v -0.085402 -0.344269 -0.160084
v -0.085402 0.317496 -0.160084
v -0.049207 -0.344269 -0.196279
v -0.049207 0.317496 -0.196279
v 0.000236 -0.344269 -0.227715
v 0.058772 -0.344269 -0.212030
v 0.101624 -0.344269 -0.169178
v 0.117309 -0.344269 -0.110641
v 0.101624 -0.344269 -0.052104
v 0.058772 -0.344269 -0.009252
v 0.000236 -0.344269 0.006433
v -0.058301 -0.344269 -0.009252
v -0.101153 -0.344269 -0.052104
v -0.116838 -0.344269 -0.110641
v -0.101153 -0.344269 -0.169178
v -0.058301 -0.344269 -0.212030
v 0.000236 -0.362337 -0.227715
v 0.058772 -0.362337 -0.212030
v 0.101624 -0.362337 -0.169178
v 0.117309 -0.362337 -0.110641
v 0.101624 -0.362337 -0.052104
v 0.058772 -0.362337 -0.009252
v 0.000236 -0.362337 0.006433
v -0.058301 -0.362337 -0.009252
v -0.101153 -0.362337 -0.052104
v -0.116838 -0.362337 -0.110641
v -0.101153 -0.362337 -0.169178
v -0.058301 -0.362337 -0.212030
v -0.017437 0.213728 -0.037056
v -0.033663 0.229953 -0.037056
v -0.033663 0.088896 0.421244
v -0.017437 0.088896 0.405019
v -0.035656 0.229471 0.313787
v -0.018345 0.211967 0.311483
v -0.018345 0.120191 0.403258
v -0.035656 0.122496 0.420762
v -0.018522 0.199824 0.357921
v -0.035768 0.215602 0.367031
v -0.018522 0.166630 0.391115
v -0.035768 0.175739 0.406894
v 0.035201 0.229953 -0.037056
v 0.018976 0.213728 -0.037056
v 0.018976 0.088896 0.405019
v 0.035201 0.088896 0.421244
v 0.019884 0.211967 0.311483
v 0.037195 0.229471 0.313787
v 0.037195 0.122496 0.420762
v 0.019884 0.120191 0.403258
v 0.037306 0.215602 0.367031
v 0.020061 0.199824 0.357921
v 0.037306 0.175739 0.406894
v 0.020061 0.166630 0.391115
v -0.018135 0.282746 0.320884
v -0.035448 0.265632 0.318588
v -0.035377 0.246545 0.384944
v -0.018093 0.261566 0.393658
v -0.035377 0.193653 0.437837
v -0.018093 0.202367 0.452858
v -0.035449 0.127303 0.456921
v -0.018136 0.129606 0.474035
v -0.033664 0.265117 -0.037056
v -0.017442 0.281377 -0.037053
v -0.017444 0.088910 0.472677
v -0.033665 0.088900 0.456412
v 0.036986 0.265632 0.318588
v 0.019674 0.282746 0.320884
v 0.019632 0.261566 0.393658
v 0.036916 0.246545 0.384944
v 0.019632 0.202367 0.452858
v 0.036916 0.193653 0.437837
v 0.019675 0.129606 0.474035
v 0.036988 0.127303 0.456921
v 0.018981 0.281377 -0.037053
v 0.035203 0.265117 -0.037056
v 0.035204 0.088900 0.456412
v 0.018982 0.088910 0.472677
vn -0.0000 1.0000 -0.0000
vn -0.0000 -1.0000 -0.0000
vn 1.0000 -0.0000 -0.0000
vn -0.0000 -0.0000 -1.0000
vn -0.0000 -0.0000 1.0000
vn -1.0000 -0.0000 -0.0000
vn 0.8177 -0.4672 0.3363
vn 0.7487 -0.6018 -0.2779
vn 0.9986 -0.0000 -0.0534
vn 0.6411 -0.0000 0.7674
vn 0.6851 -0.3824 0.6200
vn 0.7415 -0.0000 0.6710
vn -0.0907 -0.0000 0.9959
vn 0.0484 -0.0000 0.9988
vn -0.8332 -0.4679 0.2946
vn -0.7116 -0.3839 0.5885
vn -0.7706 -0.0000 0.6373
vn -0.9471 -0.0000 0.3210
vn -0.6746 -0.0000 0.7381
vn -0.7358 -0.6009 -0.3122
vn -0.9952 -0.0000 -0.0980
vn -0.8156 -0.4655 -0.3437
vn -0.7524 -0.6017 0.2680
vn -0.9992 -0.0000 0.0412
vn 0.0857 -0.0000 -0.9963
vn 0.7628 -0.0000 -0.6467
vn 0.6619 -0.4970 -0.5611
vn 0.8234 -0.4964 -0.2748
vn 0.9963 -0.0000 0.0858
vn 0.7381 -0.6205 0.2650
vn -0.6681 -0.4983 0.5526
vn -0.8270 -0.4965 0.2638
vn -0.7366 -0.6188 -0.2731
vn -0.6372 -0.0000 -0.7707
vn -0.6822 -0.3816 -0.6237
vn -0.7381 -0.0000 -0.6747
vn -0.0535 -0.0000 -0.9986
vn 0.8293 -0.4677 -0.3059
vn 0.7043 -0.3839 -0.5971
vn 0.0329 -0.7338 0.6785
vn 0.4355 -0.7338 0.5214
vn 0.7377 -0.6026 0.3044
vn -0.8120 -0.4943 -0.3102
vn -0.7505 -0.6192 0.2309
vn 0.7471 -0.6196 -0.2406
vn 0.4522 -0.7337 -0.5071
vn 0.6434 -0.4970 0.5822
vn 0.8138 -0.4962 0.3025
vn 0.0584 -0.7321 -0.6787
vn -0.4579 -0.7344 0.5010
vn -0.4341 -0.7321 -0.5250
vn -0.0616 -0.7338 0.6765
vn -0.0365 -0.7321 -0.6802
vn 0.6656 -0.0000 -0.7463
vn -0.6413 -0.4949 -0.5863
vn -0.7071 -0.0000 -0.7071
vn -0.8545 -0.0000 -0.5194
vn 0.2588 -0.0000 -0.9659
vn -0.8545 -0.0000 0.5194
vn -0.7071 -0.0000 0.7071
vn 0.7071 -0.0000 0.7071
vn 0.8545 -0.0000 0.5194
vn -0.2588 -0.0000 -0.9659
vn 0.8545 -0.0000 -0.5194
vn 0.7071 -0.0000 -0.7071
vn -0.2588 -0.0000 0.9659
vn 0.2588 -0.0000 0.9659
vn -0.9356 -0.1916 -0.2966
vn -0.9996 -0.0267 0.0073
vn -0.9997 -0.0236 0.0074
vn -0.8844 0.2259 0.4084
vn 0.9237 -0.3801 -0.0491
vn 0.9037 -0.4281 -0.0057
vn 0.9008 0.4342 -0.0052
vn 0.8800 0.4701 0.0679
vn -0.0000 -1.0000 0.0002
vn -0.9408 -0.3028 -0.1526
vn -0.8728 0.4123 0.2612
vn -0.0000 1.0000 -0.0038
vn -0.0000 0.9906 0.1367
vn -0.0000 0.5224 0.8527
vn -0.0000 0.7071 0.7071
vn -0.0000 0.1265 0.9920
vn -0.0000 -0.0334 0.9994
vn 0.9408 -0.3028 -0.1526
vn 0.8728 0.4123 0.2612
vn -0.0000 0.9602 0.2794
vn -0.0000 -1.0000 -0.0051
vn -0.0000 -0.9917 -0.1283
vn -0.0000 -0.9675 -0.2530
vn 0.9356 -0.1916 -0.2966
vn 0.8844 0.2259 0.4084
vn -0.9237 -0.3801 -0.0491
vn -0.8800 0.4701 0.0679
vn -0.0000 -0.0562 -0.9984
vn -0.0000 -0.1565 -0.9877
vn -0.0000 -0.5120 -0.8590
vn -0.0000 -0.7071 -0.7071
vn 0.9986 -0.0524 0.0064
vn 0.9996 -0.0267 0.0073
vn 0.9997 -0.0236 0.0074
vn -0.9986 -0.0524 0.0064
vn -0.7137 -0.6938 -0.0960
vn -0.7255 -0.5862 -0.3605
vn -0.7253 -0.3227 -0.6081
vn -0.7126 -0.1155 -0.6920
vn -0.7127 -0.1211 -0.6909
vn -0.9037 -0.4281 -0.0057
vn -0.7093 -0.7049 -0.0052
vn -0.7099 -0.0560 -0.7020
vn 0.7255 -0.5862 -0.3605
vn 0.7137 -0.6938 -0.0960
vn 0.7253 -0.3227 -0.6081
vn 0.7127 -0.1211 -0.6909
vn 0.7126 -0.1155 -0.6920
vn 0.7093 -0.7049 -0.0052
vn 0.7099 -0.0560 -0.7020
vn -0.7097 0.6239 0.3272
vn -0.7066 0.7017 0.0914
vn -0.7090 0.3874 0.5892
vn -0.7070 0.0760 0.7031
vn -0.7069 0.0876 0.7019
vn -0.7053 0.7089 -0.0043
vn -0.9008 0.4342 -0.0052
vn -0.7036 -0.0388 0.7095
vn 0.7066 0.7017 0.0914
vn 0.7097 0.6239 0.3272
vn 0.7090 0.3874 0.5892
vn 0.7069 0.0876 0.7019
vn 0.7070 0.0760 0.7031
vn 0.7053 0.7089 -0.0043
vn 0.7036 -0.0388 0.7095
vt 0.408951 0.106275
vt 0.408951 0.106275
vt 0.408951 0.106275
vt 0.408951 0.106275
vt 0.408951 0.106275
vt 0.408951 0.106275
vt 0.408951 0.106275
vt 0.408951 0.106275
vt 0.780998 0.109375
vt 0.780998 0.109375
vt 0.780998 0.109375
vt 0.780998 0.109375
vt 0.780998 0.109375
vt 0.780998 0.109375
vt 0.780998 0.109375
vt 0.780998 0.109375
vt 0.780998 0.109375
vt 0.780998 0.109375
vt 0.780998 0.109375
vt 0.780998 0.109375
vt 0.780998 0.109375
vt 0.780998 0.109375
vt 0.780998 0.109375
vt 0.780998 0.109375
vt 0.780998 0.109375
vt 0.780998 0.109375
vt 0.780998 0.109375
vt 0.780998 0.109375
vt 0.780998 0.109375
vt 0.780998 0.109375
vt 0.780998 0.109375
vt 0.780998 0.109375
vt 0.780998 0.109375
vt 0.780998 0.109375
vt 0.780998 0.109375
vt 0.780998 0.109375
vt 0.780998 0.109375
vt 0.780998 0.109375
vt 0.780998 0.109375
vt 0.780998 0.109375
vt 0.780998 0.109375
vt 0.780998 0.109375
vt 0.780998 0.109375
vt 0.780998 0.109375
vt 0.780998 0.109375
vt 0.780998 0.109375
vt 0.780998 0.109375
vt 0.780998 0.109375
vt 0.780998 0.109375
vt 0.780998 0.109375
vt 0.780998 0.109375
vt 0.780998 0.109375
vt 0.780998 0.109375
vt 0.780998 0.109375
vt 0.780998 0.109375
vt 0.780998 0.109375
vt 0.780998 0.109375
vt 0.780998 0.109375
vt 0.780998 0.109375
vt 0.780998 0.109375
vt 0.780998 0.109375
vt 0.780998 0.109375
vt 0.780998 0.109375
vt 0.780998 0.109375
vt 0.780998 0.109375
vt 0.780998 0.109375
vt 0.780998 0.109375
vt 0.780998 0.109375
vt 0.780998 0.109375
vt 0.780998 0.109375
vt 0.780998 0.109375
vt 0.780998 0.109375
vt 0.780998 0.109375
vt 0.780998 0.109375
vt 0.780998 0.109375
vt 0.780998 0.109375
vt 0.780998 0.109375
vt 0.780998 0.109375
vt 0.780998 0.109375
vt 0.780998 0.109375
vt 0.780998 0.109375
vt 0.780998 0.109375
vt 0.780998 0.109375
vt 0.780998 0.109375
vt 0.780998 0.109375
vt 0.780998 0.109375
vt 0.780998 0.109375
vt 0.780998 0.109375
vt 0.780998 0.109375
vt 0.780998 0.109375
vt 0.780998 0.109375
vt 0.780998 0.109375
vt 0.780998 0.109375
vt 0.780998 0.109375
vt 0.780998 0.109375
vt 0.780998 0.109375
vt 0.780998 0.109375
vt 0.780998 0.109375
vt 0.780998 0.109375
vt 0.780998 0.109375
vt 0.780998 0.109375
vt 0.780998 0.109375
vt 0.780998 0.109375
vt 0.780998 0.109375
vt 0.780998 0.109375
vt 0.780998 0.109375
vt 0.780998 0.109375
vt 0.780998 0.109375
vt 0.780998 0.109375
vt 0.780998 0.109375
vt 0.780998 0.109375
vt 0.780998 0.109375
vt 0.780998 0.109375
vt 0.780998 0.109375
vt 0.408951 0.106275
vt 0.408951 0.106275
vt 0.408951 0.106275
vt 0.408951 0.106275
vt 0.408951 0.106275
vt 0.408951 0.106275
vt 0.408951 0.106275
vt 0.408951 0.106275
vt 0.408951 0.106275
vt 0.408951 0.106275
vt 0.408951 0.106275
vt 0.408951 0.106275
vt 0.408951 0.106275
vt 0.408951 0.106275
vt 0.408951 0.106275
vt 0.408951 0.106275
vt 0.408951 0.106275
vt 0.408951 0.106275
vt 0.408951 0.106275
vt 0.408951 0.106275
vt 0.408951 0.106275
vt 0.408951 0.106275
vt 0.408951 0.106275
vt 0.408951 0.106275
vt 0.408951 0.106275
vt 0.408951 0.106275
vt 0.408951 0.106275
vt 0.408951 0.106275
vt 0.408951 0.106275
vt 0.408951 0.106275
vt 0.408951 0.106275
vt 0.408951 0.106275
vt 0.408951 0.106275
vt 0.408951 0.106275
vt 0.408951 0.106275
vt 0.408951 0.106275
vt 0.408951 0.106275
vt 0.408951 0.106275
vt 0.408951 0.106275
vt 0.408951 0.106275
vt 0.408951 0.106275
vt 0.408951 0.106275
vt 0.408951 0.106275
vt 0.408951 0.106275
vt 0.408951 0.106275
vt 0.408951 0.106275
vt 0.408951 0.106275
vt 0.408951 0.106275
vt 0.408951 0.106275
vt 0.408951 0.106275
vt 0.408951 0.106275
vt 0.408951 0.106275
vt 0.408951 0.106275
vt 0.408951 0.106275
vt 0.408951 0.106275
vt 0.408951 0.106275
vt 0.408951 0.106275
vt 0.408951 0.106275
vt 0.408951 0.106275
vt 0.408951 0.106275
vt 0.408951 0.106275
vt 0.408951 0.106275
vt 0.408951 0.106275
vt 0.408951 0.106275
vt 0.408951 0.106275
vt 0.408951 0.106275
vt 0.408951 0.106275
vt 0.408951 0.106275
vt 0.408951 0.106275
vt 0.408951 0.106275
vt 0.408951 0.106275
vt 0.408951 0.106275
vt 0.408951 0.106275
vt 0.408951 0.106275
vt 0.408951 0.106275
vt 0.408951 0.106275
vt 0.408951 0.106275
vt 0.408951 0.106275
vt 0.408951 0.106275
vt 0.408951 0.106275
vt 0.408951 0.106275
vt 0.408951 0.106275
vt 0.408951 0.106275
vt 0.408951 0.106275
vt 0.408951 0.106275
vt 0.408951 0.106275
vt 0.408951 0.106275
vt 0.408951 0.106275
vt 0.408951 0.106275
vt 0.408951 0.106275
vt 0.408951 0.106275
vt 0.408951 0.106275
vt 0.408951 0.106275
vt 0.408951 0.106275
vt 0.408951 0.106275
vt 0.408951 0.106275
s 1
usemtl Material
f 1/1/1 2/2/1 4/4/1 3/3/1
f 5/5/2 7/7/2 8/8/2 6/6/2
f 4/4/3 8/8/3 7/7/3 3/3/3
f 3/3/4 7/7/4 5/5/4 1/1/4
f 2/2/5 6/6/5 8/8/5 4/4/5
f 1/1/6 5/5/6 6/6/6 2/2/6
f 53/53/7 54/54/8 34/34/9 35/35/9
f 60/60/10 61/61/10 19/19/10 20/20/10
f 52/52/11 53/53/7 35/35/12 36/36/12
f 59/59/13 60/60/13 20/20/13 21/21/13
f 51/51/14 52/52/14 36/36/14 37/37/14
f 58/58/15 59/59/16 21/21/17 22/22/18
f 50/50/19 51/51/19 37/37/19 38/38/19
f 57/57/20 58/58/15 22/22/18 24/24/21
f 49/49/22 50/50/23 38/38/24 40/40/24
f 28/28/13 12/12/13 13/13/13 29/29/13
f 32/32/25 16/16/25 9/9/25 25/25/25
f 25/25/26 9/9/27 10/10/28 26/26/26
f 26/26/29 10/10/28 11/11/30 27/27/29
f 29/29/17 13/13/31 14/14/32 30/30/18
f 30/30/18 14/14/32 15/15/33 31/31/21
f 31/31/34 15/15/34 16/16/34 32/32/34
f 27/27/10 11/11/10 12/12/10 28/28/10
f 63/63/34 57/57/34 24/24/34 23/23/34
f 64/64/25 63/63/25 23/23/25 17/17/25
f 55/55/35 49/49/22 40/40/36 39/39/36
f 56/56/37 55/55/37 39/39/37 33/33/37
f 62/62/38 64/64/39 17/17/26 18/18/26
f 39/39/1 40/40/1 38/38/1 37/37/1 36/36/1 35/35/1 34/34/1 33/33/1
f 23/23/1 24/24/1 22/22/1 21/21/1 20/20/1 19/19/1 18/18/1 17/17/1
f 10/10/28 9/9/27 64/64/39 62/62/38
f 45/45/40 44/44/40 52/52/40 51/51/40
f 12/12/41 11/11/30 61/61/42 60/60/41
f 47/47/43 46/46/44 50/50/23 49/49/22
f 42/42/45 41/41/46 56/56/46 54/54/8
f 14/14/32 13/13/31 59/59/16 58/58/15
f 44/44/47 43/43/48 53/53/7 52/52/11
f 9/9/49 16/16/49 63/63/49 64/64/49
f 11/11/30 10/10/28 62/62/38 61/61/42
f 46/46/44 45/45/50 51/51/50 50/50/23
f 16/16/51 15/15/33 57/57/20 63/63/51
f 13/13/52 12/12/52 60/60/52 59/59/52
f 41/41/53 48/48/53 55/55/53 56/56/53
f 43/43/48 42/42/45 54/54/8 53/53/7
f 54/54/54 56/56/54 33/33/54 34/34/54
f 61/61/42 62/62/38 18/18/29 19/19/29
f 15/15/33 14/14/32 58/58/15 57/57/20
f 48/48/55 47/47/43 49/49/22 55/55/35
f 68/68/14 44/44/14 45/45/14 69/69/14
f 72/72/37 48/48/37 41/41/37 65/65/37
f 65/65/54 41/41/54 42/42/54 66/66/54
f 66/66/9 42/42/45 43/43/48 67/67/9
f 69/69/19 45/45/19 46/46/19 70/70/19
f 70/70/24 46/46/44 47/47/43 71/71/24
f 71/71/36 47/47/43 48/48/55 72/72/36
f 67/67/12 43/43/48 44/44/47 68/68/12
f 74/74/2 75/75/2 76/76/2 77/77/2 78/78/2 79/79/2 80/80/2 81/81/2 82/82/2 83/83/2 84/84/2 73/73/2
f 85/85/1 86/86/1 96/96/1 95/95/1 94/94/1 93/93/1 92/92/1 91/91/1 90/90/1 89/89/1 88/88/1 87/87/1
f 98/98/56 97/97/57 95/95/57 96/96/56
f 100/100/58 99/99/58 86/86/58 85/85/58
f 102/102/59 101/101/60 92/92/60 93/93/59
f 104/104/61 103/103/62 89/89/62 90/90/61
f 99/99/63 98/98/63 96/96/63 86/86/63
f 105/105/64 100/100/65 85/85/65 87/87/64
f 106/106/6 102/102/59 93/93/59 94/94/6
f 107/107/2 104/104/2 113/113/2 114/114/2
f 108/108/3 105/105/64 87/87/64 88/88/3
f 97/97/57 106/106/6 94/94/6 95/95/57
f 104/104/3 90/90/3 110/110/3 113/113/3
f 103/103/62 108/108/3 88/88/3 89/89/62
f 77/77/62 76/76/3 108/108/3 103/103/62
f 80/80/66 79/79/66 107/107/66 101/101/66
f 83/83/57 82/82/6 106/106/6 97/97/57
f 76/76/3 75/75/64 105/105/64 108/108/3
f 79/79/67 78/78/67 104/104/67 107/107/67
f 82/82/6 81/81/59 102/102/59 106/106/6
f 75/75/64 74/74/65 100/100/65 105/105/64
f 73/73/63 84/84/63 98/98/63 99/99/63
f 78/78/61 77/77/62 103/103/62 104/104/61
f 81/81/59 80/80/60 101/101/60 102/102/59
f 74/74/58 73/73/58 99/99/58 100/100/58
f 84/84/56 83/83/57 97/97/57 98/98/56
f 114/114/67 113/113/67 110/110/67 109/109/67
f 112/112/66 114/114/66 109/109/66 111/111/66
f 90/90/1 91/91/1 109/109/1 110/110/1
f 92/92/6 101/101/6 112/112/6 111/111/6
f 91/91/1 92/92/1 111/111/1 109/109/1
f 101/101/2 107/107/2 114/114/2 112/112/2
f 115/115/58 116/116/58 118/118/58 117/117/58
f 117/117/65 118/118/65 120/120/64 119/119/64
f 119/119/64 120/120/64 122/122/3 121/121/3
f 121/121/3 122/122/3 124/124/62 123/123/62
f 123/123/62 124/124/62 126/126/61 125/125/61
f 125/125/67 126/126/67 128/128/67 127/127/67
f 127/127/66 128/128/66 130/130/66 129/129/66
f 129/129/60 130/130/60 132/132/59 131/131/59
f 131/131/59 132/132/59 134/134/6 133/133/6
f 133/133/6 134/134/6 136/136/57 135/135/57
f 118/118/1 116/116/1 138/138/1 136/136/1 134/134/1 132/132/1 130/130/1 128/128/1 126/126/1 124/124/1 122/122/1 120/120/1
f 135/135/57 136/136/57 138/138/56 137/137/56
f 137/137/63 138/138/63 116/116/63 115/115/63
f 151/151/2 152/152/2 153/153/2 154/154/2 155/155/2 156/156/2 157/157/2 158/158/2 159/159/2 160/160/2 161/161/2 162/162/2
f 135/135/1 137/137/1 150/150/1 149/149/1
f 125/125/1 127/127/1 145/145/1 144/144/1
f 115/115/1 117/117/1 140/140/1 139/139/1
f 129/129/1 131/131/1 147/147/1 146/146/1
f 119/119/1 121/121/1 142/142/1 141/141/1
f 144/144/67 145/145/67 157/157/67 156/156/67
f 143/143/62 144/144/61 156/156/61 155/155/62
f 142/142/3 143/143/62 155/155/62 154/154/3
f 150/150/63 139/139/63 151/151/63 162/162/63
f 139/139/58 140/140/58 152/152/58 151/151/58
f 141/141/64 142/142/3 154/154/3 153/153/64
f 149/149/57 150/150/56 162/162/56 161/161/57
f 140/140/65 141/141/64 153/153/64 152/152/65
f 148/148/6 149/149/57 161/161/57 160/160/6
f 147/147/59 148/148/6 160/160/6 159/159/59
f 146/146/60 147/147/59 159/159/59 158/158/60
f 145/145/66 146/146/66 158/158/66 157/157/66
f 121/121/1 123/123/1 143/143/1 142/142/1
f 131/131/1 133/133/1 148/148/1 147/147/1
f 117/117/1 119/119/1 141/141/1 140/140/1
f 127/127/1 129/129/1 146/146/1 145/145/1
f 137/137/1 115/115/1 139/139/1 150/150/1
f 123/123/1 125/125/1 144/144/1 143/143/1
f 133/133/1 135/135/1 149/149/1 148/148/1
f 174/174/68 170/170/69 193/193/70 191/191/71
f 175/175/4 176/176/4 163/163/4 164/164/4 195/195/4 196/196/4 207/207/4 208/208/4
f 180/180/72 175/175/73 208/208/74 199/199/75
f 165/165/76 166/166/76 177/177/76 178/178/76 209/209/76 210/210/76 197/197/76 198/198/76
f 172/172/77 174/174/68 191/191/71 189/189/78
f 196/196/79 187/187/80 200/200/80 207/207/79
f 192/192/81 203/203/81 201/201/82 190/190/82
f 194/194/83 205/205/83 203/203/81 192/192/81
f 197/197/84 210/210/84 205/205/83 194/194/83
f 183/183/85 180/180/72 199/199/75 202/202/86
f 190/190/87 201/201/87 200/200/80 187/187/80
f 163/163/88 176/176/88 179/179/89 168/168/89
f 171/171/90 168/168/89 179/179/89 184/184/90
f 185/185/91 183/183/85 202/202/86 204/204/92
f 167/167/93 172/172/77 189/189/78 188/188/94
f 166/166/95 169/169/96 182/182/96 177/177/95
f 173/173/97 171/171/98 184/184/98 186/186/97
f 178/178/99 181/181/100 206/206/101 209/209/99
f 181/181/100 185/185/91 204/204/92 206/206/101
f 170/170/69 165/165/102 198/198/102 193/193/70
f 169/169/96 173/173/97 186/186/97 182/182/96
f 168/168/103 171/171/104 172/172/77 167/167/93
f 171/171/104 173/173/105 174/174/68 172/172/77
f 173/173/105 169/169/106 170/170/107 174/174/68
f 167/167/93 164/164/108 163/163/109 168/168/103
f 169/169/106 166/166/110 165/165/110 170/170/107
f 180/180/72 183/183/85 184/184/111 179/179/112
f 183/183/85 185/185/91 186/186/113 184/184/111
f 185/185/91 181/181/114 182/182/115 186/186/113
f 179/179/112 176/176/116 175/175/73 180/180/72
f 181/181/114 178/178/117 177/177/117 182/182/115
f 188/188/94 189/189/78 190/190/118 187/187/119
f 189/189/78 191/191/71 192/192/120 190/190/118
f 191/191/71 193/193/121 194/194/122 192/192/120
f 187/187/119 196/196/123 195/195/124 188/188/94
f 193/193/121 198/198/125 197/197/125 194/194/122
f 200/200/126 201/201/127 202/202/86 199/199/75
f 201/201/127 203/203/128 204/204/92 202/202/86
f 203/203/128 205/205/129 206/206/130 204/204/92
f 199/199/75 208/208/74 207/207/131 200/200/126
f 205/205/129 210/210/132 209/209/132 206/206/130
f 164/164/108 167/167/93 188/188/94 195/195/124
