# Blender 3.4.1
# www.blender.org
mtllib fauset015.mtl
o fauset.014
v -0.104557 -0.562987 -0.217707
v -0.104557 -0.562987 -0.056665
v -0.083188 0.263354 -0.196338
v -0.083188 0.263354 -0.056333
v -0.104557 0.143323 0.380272
v -0.104557 0.143323 0.472343
v 0.104557 -0.562987 -0.217707
v 0.104557 -0.562987 -0.056665
v 0.083189 0.263354 -0.196338
v 0.083189 0.263354 -0.056333
v 0.104557 0.143323 0.472343
v 0.104557 0.143323 0.380272
v -0.104557 0.129914 -0.056665
v -0.104557 0.200202 0.013623
v -0.104557 0.165058 -0.047248
v -0.104557 0.190785 -0.021521
v 0.104557 0.200202 0.013623
v 0.104557 0.129914 -0.056665
v 0.104557 0.190785 -0.021521
v 0.104557 0.165058 -0.047248
v -0.104557 0.200202 0.358551
v -0.104557 0.178481 0.380272
v -0.104557 0.193840 0.373910
v 0.104557 0.178481 0.380272
v 0.104557 0.200202 0.358551
v 0.104557 0.193840 0.373910
v -0.104557 0.263354 -0.217707
v -0.104557 0.263354 0.472343
v 0.104557 0.263354 -0.217707
v 0.104557 0.263354 0.472343
v -0.083188 0.290992 -0.196338
v -0.083188 0.290992 -0.056333
v 0.083189 0.290992 -0.196338
v 0.083189 0.290992 -0.056333
v -0.118084 0.323051 -0.225700
v -0.118084 0.323051 -0.026971
v 0.118080 0.323051 -0.225700
v 0.118080 0.323051 -0.026971
v -0.118084 0.382256 -0.225700
v -0.118084 0.382256 -0.026971
v 0.118080 0.382256 -0.225700
v 0.118080 0.382256 -0.026971
v -0.104557 -0.584799 -0.217707
v -0.104557 -0.584799 -0.056665
v 0.104557 -0.584799 -0.217707
v 0.104557 -0.584799 -0.056665
v -0.217062 -0.562987 -0.330212
v -0.217062 -0.562987 0.055840
v 0.217062 -0.562987 -0.330212
v 0.217062 -0.562987 0.055840
v -0.217062 -0.584799 -0.330212
v -0.217062 -0.584799 0.055840
v 0.217062 -0.584799 -0.330212
v 0.217062 -0.584799 0.055840
vn 1.0000 -0.0000 -0.0000
vn -0.0000 -0.0000 -1.0000
vn -0.0000 -0.0000 1.0000
vn -0.0000 -0.9808 -0.1951
vn -0.0000 -0.9914 0.1305
vn -0.0000 -0.1951 -0.9808
vn -0.0000 -1.0000 -0.0000
vn -0.0000 -0.9659 0.2588
vn -0.0000 -0.7071 0.7071
vn -0.0000 -0.5000 0.8660
vn -0.0000 -0.1305 0.9914
vn -0.0000 -0.9239 -0.3827
vn -0.0000 -0.3827 -0.9239
vn -1.0000 -0.0000 -0.0000
vn -0.0000 1.0000 -0.0000
vn -0.0000 -0.6754 0.7374
vn -0.6765 -0.7364 -0.0000
vn -0.0000 -0.6754 -0.7374
vn 0.6766 -0.7363 -0.0000
vt 0.408951 0.106275
vt 0.793400 0.109375
vt 0.408951 0.106275
vt 0.793400 0.109375
vt 0.408951 0.106275
vt 0.408951 0.106275
vt 0.408951 0.106275
vt 0.408951 0.106275
vt 0.408951 0.106275
vt 0.793400 0.109375
vt 0.408951 0.106275
vt 0.793400 0.109375
vt 0.408951 0.106275
vt 0.408951 0.106275
vt 0.408951 0.106275
vt 0.408951 0.106275
vt 0.408951 0.106275
vt 0.408951 0.106275
vt 0.408951 0.106275
vt 0.408951 0.106275
vt 0.408951 0.106275
vt 0.408951 0.106275
vt 0.408951 0.106275
vt 0.408951 0.106275
vt 0.408951 0.106275
vt 0.408951 0.106275
vt 0.408951 0.106275
vt 0.408951 0.106275
vt 0.408951 0.106275
vt 0.408951 0.106275
vt 0.408951 0.106275
vt 0.408951 0.106275
vt 0.408951 0.106275
vt 0.408951 0.106275
vt 0.408951 0.106275
vt 0.408951 0.106275
vt 0.408951 0.106275
vt 0.408951 0.106275
vt 0.408951 0.106275
vt 0.793400 0.109375
vt 0.408951 0.106275
vt 0.793400 0.109375
vt 0.408951 0.106275
vt 0.793400 0.109375
vt 0.408951 0.106275
vt 0.793400 0.109375
vt 0.793400 0.109375
vt 0.793400 0.109375
vt 0.793400 0.109375
vt 0.793400 0.109375
vt 0.408951 0.106275
vt 0.408951 0.106275
vt 0.408951 0.106275
vt 0.408951 0.106275
vt 0.793400 0.109375
vt 0.793400 0.109375
vt 0.793400 0.109375
vt 0.793400 0.109375
vt 0.793400 0.109375
vt 0.408951 0.106275
vt 0.408951 0.106275
vt 0.793400 0.109375
vt 0.793400 0.109375
vt 0.408951 0.106275
vt 0.793400 0.109375
vt 0.408951 0.106275
s 1
usemtl Material
f 7/9/1 29/33/1 30/34/1 11/15/1 12/16/1 24/28/1 26/30/1 25/29/1 17/21/1 19/23/1 20/24/1 18/22/1 8/11/1
f 1/1/2 27/31/2 29/33/2 7/9/2
f 28/32/3 6/8/3 11/15/3 30/34/3
f 9/13/2 3/5/2 31/35/2 33/37/2
f 21/25/4 14/18/5 17/21/5 25/29/4
f 5/7/2 22/26/6 24/28/6 12/16/2
f 44/52/7 46/54/7 54/66/7 52/61/7
f 6/8/7 5/7/7 12/16/7 11/15/7
f 17/21/5 14/18/5 16/20/8 19/23/8
f 19/23/9 16/20/9 15/19/10 20/24/10
f 20/24/10 15/19/10 13/17/11 18/22/11
f 13/17/11 2/3/3 8/11/3 18/22/11
f 21/25/4 25/29/4 26/30/12 23/27/12
f 23/27/13 26/30/13 24/28/6 22/26/6
f 27/31/14 1/1/14 2/3/14 13/17/14 15/19/14 16/20/14 14/18/14 21/25/14 23/27/14 22/26/14 5/7/14 6/8/14 28/32/14
f 4/6/15 3/5/15 27/31/15 28/32/15
f 9/13/15 10/14/15 30/34/15 29/33/15
f 10/14/15 4/6/15 28/32/15 30/34/15
f 3/5/15 9/13/15 29/33/15 27/31/15
f 32/36/16 34/38/16 38/45/16 36/41/16
f 10/14/1 9/13/1 33/37/1 34/38/1
f 4/6/3 10/14/3 34/38/3 32/36/3
f 3/5/14 4/6/14 32/36/14 31/35/14
f 35/40/14 36/42/14 40/48/14 39/47/14
f 31/35/17 32/36/17 36/41/17 35/39/17
f 33/37/18 31/35/18 35/39/18 37/43/18
f 34/38/19 33/37/19 37/43/19 38/45/19
f 39/47/15 40/48/15 42/50/15 41/49/15
f 37/44/2 35/40/2 39/47/2 41/49/2
f 38/46/1 37/44/1 41/49/1 42/50/1
f 36/42/3 38/46/3 42/50/3 40/48/3
f 44/52/7 43/51/7 45/53/7 46/54/7
f 8/12/15 2/4/15 48/56/15 50/58/15
f 7/10/15 8/12/15 50/58/15 49/57/15
f 43/51/7 44/52/7 52/61/7 51/60/7
f 49/57/1 50/58/1 54/65/1 53/63/1
f 50/58/3 48/56/3 52/62/3 54/65/3
f 48/56/14 47/55/14 51/59/14 52/62/14
f 47/55/2 49/57/2 53/63/2 51/59/2
f 46/54/7 45/53/7 53/64/7 54/66/7
f 2/4/15 1/2/15 47/55/15 48/56/15
f 1/2/15 7/10/15 49/57/15 47/55/15
f 45/53/7 43/51/7 51/60/7 53/64/7
