# Blender 3.4.1
# www.blender.org
mtllib fauset008.mtl
o fauset.007
v -0.085414 -0.787540 -0.309615
v -0.097729 -0.787540 -0.279884
v -0.085414 -0.787540 -0.250153
v -0.055683 -0.787540 -0.237838
v -0.025952 -0.787540 -0.250153
v -0.013637 -0.787540 -0.279884
v -0.025952 -0.787540 -0.309615
v -0.055683 -0.787540 -0.321930
v -0.085414 0.226198 -0.309472
v -0.097729 0.223284 -0.279884
v -0.085414 0.220370 -0.250296
v -0.055683 0.219163 -0.238040
v -0.025952 0.220370 -0.250296
v -0.013637 0.223284 -0.279884
v -0.025952 0.226198 -0.309472
v -0.055683 0.227405 -0.321728
v -0.085414 0.381081 -0.278227
v -0.097729 0.369703 -0.250759
v -0.085414 0.358326 -0.223292
v -0.055683 0.353613 -0.211914
v -0.025952 0.358326 -0.223292
v -0.013637 0.369703 -0.250759
v -0.025952 0.381081 -0.278227
v -0.055683 0.385794 -0.289605
v -0.085414 0.514854 -0.188843
v -0.097729 0.493831 -0.167820
v -0.085414 0.472808 -0.146797
v -0.055683 0.464100 -0.138089
v -0.025952 0.472808 -0.146797
v -0.013637 0.493831 -0.167820
v -0.025952 0.514854 -0.188843
v -0.055683 0.523562 -0.197551
v -0.085414 0.604239 -0.055069
v -0.097729 0.576771 -0.043691
v -0.085414 0.549303 -0.032314
v -0.055683 0.537926 -0.027601
v -0.025952 0.549303 -0.032314
v -0.013637 0.576771 -0.043691
v -0.025952 0.604239 -0.055069
v -0.055683 0.615617 -0.059782
v -0.085414 0.635484 0.099814
v -0.097729 0.605896 0.102728
v -0.085414 0.576308 0.105642
v -0.055683 0.564052 0.106849
v -0.025952 0.576308 0.105642
v -0.013637 0.605896 0.102728
v -0.025952 0.635484 0.099814
v -0.055683 0.647739 0.098607
v -0.085414 0.635507 0.208399
v -0.097729 0.605896 0.205727
v -0.085414 0.576285 0.203055
v -0.055683 0.564020 0.201948
v -0.025952 0.576285 0.203055
v -0.013637 0.605896 0.205727
v -0.025952 0.635507 0.208399
v -0.055683 0.647772 0.209505
v -0.085414 0.607482 0.361480
v -0.097729 0.579254 0.352146
v -0.085414 0.551026 0.342812
v -0.055683 0.539334 0.338946
v -0.025952 0.551026 0.342812
v -0.013637 0.579254 0.352146
v -0.025952 0.607482 0.361480
v -0.055683 0.619174 0.365346
v -0.085414 0.542301 0.493336
v -0.097729 0.517953 0.476274
v -0.085414 0.493605 0.459213
v -0.055683 0.483519 0.452146
v -0.025952 0.493605 0.459213
v -0.013637 0.517953 0.476274
v -0.025952 0.542301 0.493336
v -0.055683 0.552386 0.500403
v -0.085414 0.456543 0.582880
v -0.097729 0.438500 0.559250
v -0.085414 0.420457 0.535620
v -0.055683 0.412983 0.525832
v -0.025952 0.420457 0.535620
v -0.013637 0.438500 0.559250
v -0.025952 0.456543 0.582880
v -0.055683 0.464016 0.592668
v -0.085414 0.361512 0.634602
v -0.097729 0.350612 0.606941
v -0.085414 0.339711 0.579281
v -0.055683 0.335196 0.567823
v -0.025952 0.339711 0.579281
v -0.013637 0.350612 0.606941
v -0.025952 0.361512 0.634602
v -0.055683 0.366028 0.646059
v -0.085414 0.074945 0.709110
v -0.097729 0.067485 0.680330
v -0.085414 0.060025 0.651550
v -0.055683 0.056935 0.639629
v -0.025952 0.060025 0.651550
v -0.013637 0.067485 0.680330
v -0.025952 0.074945 0.709110
v -0.055683 0.078035 0.721031
v -0.085414 -0.807546 -0.309615
v -0.055683 -0.807546 -0.321930
v -0.097729 -0.807546 -0.279884
v -0.085414 -0.807546 -0.250153
v -0.055683 -0.807546 -0.237838
v -0.025952 -0.807546 -0.250153
v -0.013637 -0.807546 -0.279884
v -0.025952 -0.807546 -0.309615
v -0.173157 -0.787540 -0.397358
v -0.055683 -0.787540 -0.446017
v -0.221816 -0.787540 -0.279884
v -0.173157 -0.787540 -0.162410
v -0.055683 -0.787540 -0.113751
v 0.061791 -0.787540 -0.162410
v 0.110450 -0.787540 -0.279884
v 0.061791 -0.787540 -0.397358
v -0.173157 -0.807546 -0.397358
v -0.055683 -0.807546 -0.446017
v -0.221816 -0.807546 -0.279884
v -0.173157 -0.807546 -0.162410
v -0.055683 -0.807546 -0.113751
v 0.061791 -0.807546 -0.162410
v 0.110450 -0.807546 -0.279884
v 0.061791 -0.807546 -0.397358
v 0.313979 -0.204629 -0.304566
v 0.296938 -0.204629 -0.297595
v 0.289751 -0.204629 -0.280628
v 0.296768 -0.204629 -0.263482
v 0.313979 -0.204629 -0.256338
v 0.331190 -0.204629 -0.263482
v 0.338207 -0.204629 -0.280628
v 0.331020 -0.204629 -0.297595
v 0.331020 -0.421888 -0.297595
v 0.338207 -0.421888 -0.280628
v 0.331190 -0.421888 -0.263482
v 0.313979 -0.421888 -0.256338
v 0.296769 -0.421888 -0.263482
v 0.289751 -0.421888 -0.280628
v 0.296938 -0.421888 -0.297595
v 0.313979 -0.421888 -0.304566
v 0.356978 -0.506247 -0.404316
v 0.356978 -0.418300 -0.368337
v 0.356978 -0.381209 -0.280772
v 0.356978 -0.417424 -0.192279
v 0.356978 -0.506247 -0.155413
v 0.356978 -0.595070 -0.192279
v 0.356978 -0.631285 -0.280772
v 0.356978 -0.594194 -0.368337
v -0.149687 -0.594194 -0.368337
v -0.149687 -0.631285 -0.280772
v -0.149687 -0.595070 -0.192279
v -0.149687 -0.506247 -0.155413
v -0.149687 -0.417424 -0.192279
v -0.149687 -0.381209 -0.280772
v -0.149687 -0.418300 -0.368337
v -0.149687 -0.506247 -0.404315
vn -0.3819 0.0002 -0.9242
vn -0.3820 0.0922 -0.9196
vn -0.9236 -0.0000 -0.3835
vn -0.9236 0.0380 -0.3816
vn -0.9236 -0.0000 0.3835
vn -0.9235 -0.0374 0.3817
vn -0.9235 -0.0375 0.3817
vn -0.3819 0.0002 0.9242
vn -0.3818 -0.0888 0.9200
vn -0.3818 -0.0889 0.9200
vn 0.3819 0.0002 0.9242
vn 0.3818 -0.0889 0.9200
vn 0.3818 -0.0888 0.9200
vn 0.9236 -0.0000 0.3835
vn 0.9235 -0.0375 0.3817
vn 0.9235 -0.0374 0.3817
vn 0.9236 -0.0000 -0.3835
vn 0.9236 0.0380 -0.3816
vn 0.3819 0.0002 -0.9242
vn 0.3820 0.0922 -0.9196
vn -0.3838 0.3549 -0.8525
vn -0.3838 0.3548 -0.8525
vn -0.9244 0.1465 -0.3523
vn -0.9244 0.1464 -0.3523
vn -0.9244 -0.1459 0.3525
vn -0.9244 -0.1459 0.3524
vn -0.3840 -0.3518 0.8537
vn -0.3840 -0.3519 0.8537
vn 0.3840 -0.3519 0.8537
vn 0.3840 -0.3518 0.8537
vn 0.9244 -0.1459 0.3524
vn 0.9244 -0.1459 0.3525
vn 0.9244 0.1464 -0.3523
vn 0.9244 0.1465 -0.3523
vn 0.3838 0.3548 -0.8525
vn 0.3838 0.3549 -0.8525
vn -0.3827 0.6533 -0.6533
vn -0.9239 0.2706 -0.2706
vn -0.9239 -0.2706 0.2706
vn -0.3827 -0.6533 0.6533
vn 0.3827 -0.6533 0.6533
vn 0.9239 -0.2706 0.2706
vn 0.9239 0.2706 -0.2706
vn 0.3827 0.6533 -0.6533
vn -0.3838 0.8525 -0.3549
vn -0.3838 0.8525 -0.3548
vn -0.9244 0.3523 -0.1465
vn -0.9244 0.3523 -0.1464
vn -0.9244 -0.3525 0.1459
vn -0.9244 -0.3524 0.1459
vn -0.3840 -0.8537 0.3518
vn -0.3840 -0.8537 0.3519
vn 0.3840 -0.8537 0.3519
vn 0.3840 -0.8537 0.3518
vn 0.9244 -0.3524 0.1459
vn 0.9244 -0.3525 0.1459
vn 0.9244 0.3523 -0.1464
vn 0.9244 0.3523 -0.1465
vn 0.3838 0.8525 -0.3548
vn 0.3838 0.8525 -0.3549
vn -0.3816 0.9197 -0.0923
vn -0.3816 0.9197 -0.0922
vn -0.9234 0.3819 -0.0380
vn -0.9234 -0.3820 0.0374
vn -0.3815 -0.9201 0.0888
vn 0.3815 -0.9201 0.0888
vn 0.9234 -0.3820 0.0374
vn 0.9234 0.3819 -0.0380
vn 0.3816 0.9197 -0.0922
vn 0.3816 0.9197 -0.0923
vn -0.3822 0.9203 0.0836
vn -0.3822 0.9203 0.0835
vn -0.9237 0.3816 0.0346
vn -0.9237 -0.3817 -0.0344
vn -0.3821 -0.9204 -0.0825
vn 0.3821 -0.9204 -0.0825
vn 0.9237 -0.3817 -0.0344
vn 0.9237 0.3816 0.0346
vn 0.3822 0.9203 0.0835
vn 0.3822 0.9203 0.0836
vn -0.3830 0.8768 0.2908
vn -0.9240 0.3630 0.1203
vn -0.9240 0.3630 0.1202
vn -0.9240 -0.3631 -0.1200
vn -0.3830 -0.8773 -0.2891
vn -0.3830 -0.8773 -0.2892
vn 0.3830 -0.8773 -0.2892
vn 0.3830 -0.8773 -0.2891
vn 0.9240 -0.3631 -0.1200
vn 0.9240 0.3630 0.1202
vn 0.9240 0.3630 0.1203
vn 0.3830 0.8768 0.2908
vn -0.3828 0.7564 0.5304
vn -0.9239 0.3133 0.2196
vn -0.9239 -0.3133 -0.2195
vn -0.3828 -0.7567 -0.5299
vn 0.3828 -0.7567 -0.5299
vn 0.9239 -0.3133 -0.2195
vn 0.9239 0.3133 0.2196
vn 0.3828 0.7564 0.5304
vn -0.3831 0.5611 0.7338
vn -0.9240 0.2321 0.3037
vn -0.9240 0.2321 0.3038
vn -0.9241 -0.2319 -0.3039
vn -0.3831 -0.5599 -0.7346
vn -0.3831 -0.5600 -0.7346
vn 0.3831 -0.5600 -0.7346
vn 0.3831 -0.5599 -0.7346
vn 0.9241 -0.2319 -0.3039
vn 0.9240 0.2321 0.3038
vn 0.9240 0.2321 0.3037
vn 0.3831 0.5611 0.7338
vn -0.3829 0.3398 0.8590
vn -0.3829 0.3397 0.8590
vn -0.9240 0.1405 0.3557
vn -0.9240 -0.1401 -0.3559
vn -0.3829 -0.3375 -0.8599
vn -0.3829 -0.3376 -0.8599
vn 0.3829 -0.3376 -0.8599
vn 0.3829 -0.3375 -0.8599
vn 0.9240 -0.1401 -0.3559
vn 0.9240 0.1405 0.3557
vn 0.3829 0.3397 0.8590
vn 0.3829 0.3398 0.8590
vn -0.3815 0.2327 0.8946
vn -0.9234 0.0965 0.3716
vn -0.9234 -0.0962 -0.3717
vn -0.3815 -0.2311 -0.8950
vn 0.3815 -0.2311 -0.8950
vn 0.9234 -0.0962 -0.3717
vn 0.9234 0.0965 0.3716
vn 0.3815 0.2327 0.8946
vn -0.0000 -1.0000 -0.0000
vn -0.0000 1.0000 -0.0000
vn -0.3827 -0.0000 0.9239
vn 0.9239 -0.0000 -0.3827
vn -0.9239 -0.0000 -0.3827
vn 0.3827 -0.0000 0.9239
vn 0.3827 -0.0000 -0.9239
vn -0.3827 -0.0000 -0.9239
vn -0.9239 -0.0000 0.3827
vn 0.9239 -0.0000 0.3827
vn -0.0000 -0.9680 0.2509
vn 0.9208 -0.0000 -0.3900
vn -0.3786 -0.0000 -0.9255
vn 0.3786 -0.0000 -0.9255
vn -0.3833 -0.0000 0.9236
vn -0.9255 -0.0000 0.3788
vn 0.3833 -0.0000 0.9236
vn -0.9208 -0.0000 -0.3900
vn 0.9255 -0.0000 0.3788
vn -0.0000 -0.9208 -0.3900
vn -0.0000 0.3786 -0.9255
vn -0.0000 -0.3786 -0.9255
vn -0.0000 0.3833 0.9236
vn -0.0000 0.9255 0.3788
vn 1.0000 -0.0000 -0.0000
vn -0.0000 -0.3833 0.9236
vn -0.0000 0.9208 -0.3900
vn -1.0000 -0.0000 -0.0000
vn -0.0000 -0.9255 0.3788
vt 0.687986 0.115576
vt 0.687986 0.115576
vt 0.687986 0.115576
vt 0.687986 0.115576
vt 0.687986 0.115576
vt 0.687986 0.115576
vt 0.687986 0.115576
vt 0.687986 0.115576
vt 0.687986 0.115576
vt 0.687986 0.115576
vt 0.687986 0.115576
vt 0.687986 0.115576
vt 0.687986 0.115576
vt 0.687986 0.115576
vt 0.687986 0.115576
vt 0.687986 0.115576
vt 0.687986 0.115576
vt 0.687986 0.115576
vt 0.687986 0.115576
vt 0.687986 0.115576
vt 0.687986 0.115576
vt 0.687986 0.115576
vt 0.687986 0.115576
vt 0.687986 0.115576
vt 0.687986 0.115576
vt 0.687986 0.115576
vt 0.687986 0.115576
vt 0.687986 0.115576
vt 0.687986 0.115576
vt 0.687986 0.115576
vt 0.687986 0.115576
vt 0.687986 0.115576
vt 0.687986 0.115576
vt 0.687986 0.115576
vt 0.687986 0.115576
vt 0.687986 0.115576
vt 0.687986 0.115576
vt 0.687986 0.115576
vt 0.687986 0.115576
vt 0.687986 0.115576
vt 0.687986 0.115576
vt 0.687986 0.115576
vt 0.687986 0.115576
vt 0.687986 0.115576
vt 0.687986 0.115576
vt 0.687986 0.115576
vt 0.687986 0.115576
vt 0.687986 0.115576
vt 0.687986 0.115576
vt 0.687986 0.115576
vt 0.687986 0.115576
vt 0.687986 0.115576
vt 0.687986 0.115576
vt 0.687986 0.115576
vt 0.687986 0.115576
vt 0.687986 0.115576
vt 0.687986 0.115576
vt 0.687986 0.115576
vt 0.687986 0.115576
vt 0.687986 0.115576
vt 0.687986 0.115576
vt 0.687986 0.115576
vt 0.687986 0.115576
vt 0.687986 0.115576
vt 0.687986 0.115576
vt 0.687986 0.115576
vt 0.687986 0.115576
vt 0.687986 0.115576
vt 0.687986 0.115576
vt 0.687986 0.115576
vt 0.687986 0.115576
vt 0.687986 0.115576
vt 0.687986 0.115576
vt 0.687986 0.115576
vt 0.687986 0.115576
vt 0.687986 0.115576
vt 0.687986 0.115576
vt 0.687986 0.115576
vt 0.687986 0.115576
vt 0.687986 0.115576
vt 0.687986 0.115576
vt 0.687986 0.115576
vt 0.687986 0.115576
vt 0.687986 0.115576
vt 0.687986 0.115576
vt 0.687986 0.115576
vt 0.687986 0.115576
vt 0.687986 0.115576
vt 0.687986 0.115576
vt 0.687986 0.115576
vt 0.687986 0.115576
vt 0.687986 0.115576
vt 0.687986 0.115576
vt 0.687986 0.115576
vt 0.687986 0.115576
vt 0.687986 0.115576
vt 0.687986 0.115576
vt 0.687986 0.115576
vt 0.687986 0.115576
vt 0.687986 0.115576
vt 0.687986 0.115576
vt 0.687986 0.115576
vt 0.687986 0.115576
vt 0.687986 0.115576
vt 0.687986 0.115576
vt 0.687986 0.115576
vt 0.687986 0.115576
vt 0.687986 0.115576
vt 0.687986 0.115576
vt 0.687986 0.115576
vt 0.687986 0.115576
vt 0.687986 0.115576
vt 0.687986 0.115576
vt 0.687986 0.115576
vt 0.687986 0.115576
vt 0.687986 0.115576
vt 0.687986 0.115576
vt 0.687986 0.115576
vt 0.687986 0.115576
vt 0.687986 0.115576
vt 0.827504 0.112476
vt 0.827504 0.112476
vt 0.827504 0.112476
vt 0.827504 0.112476
vt 0.827504 0.112476
vt 0.827504 0.112476
vt 0.827504 0.112476
vt 0.827504 0.112476
vt 0.827504 0.112476
vt 0.827504 0.112476
vt 0.827504 0.112476
vt 0.827504 0.112476
vt 0.827504 0.112476
vt 0.827504 0.112476
vt 0.827504 0.112476
vt 0.827504 0.112476
vt 0.827504 0.112476
vt 0.827504 0.112476
vt 0.827504 0.112476
vt 0.827504 0.112476
vt 0.827504 0.112476
vt 0.827504 0.112476
vt 0.827504 0.112476
vt 0.827504 0.112476
vt 0.827504 0.112476
vt 0.827504 0.112476
vt 0.827504 0.112476
vt 0.827504 0.112476
vt 0.827504 0.112476
vt 0.827504 0.112476
vt 0.827504 0.112476
vt 0.827504 0.112476
s 1
usemtl Material
f 1/1/1 9/9/2 16/16/2 8/8/1
f 2/2/3 10/10/4 9/9/4 1/1/3
f 3/3/5 11/11/6 10/10/7 2/2/5
f 4/4/8 12/12/9 11/11/10 3/3/8
f 5/5/11 13/13/12 12/12/13 4/4/11
f 6/6/14 14/14/15 13/13/16 5/5/14
f 7/7/17 15/15/18 14/14/18 6/6/17
f 8/8/19 16/16/20 15/15/20 7/7/19
f 9/9/2 17/17/21 24/24/22 16/16/2
f 10/10/4 18/18/23 17/17/24 9/9/4
f 11/11/6 19/19/25 18/18/26 10/10/7
f 12/12/9 20/20/27 19/19/28 11/11/10
f 13/13/12 21/21/29 20/20/30 12/12/13
f 14/14/15 22/22/31 21/21/32 13/13/16
f 15/15/18 23/23/33 22/22/34 14/14/18
f 16/16/20 24/24/35 23/23/36 15/15/20
f 17/17/21 25/25/37 32/32/37 24/24/22
f 18/18/23 26/26/38 25/25/38 17/17/24
f 19/19/25 27/27/39 26/26/39 18/18/26
f 20/20/27 28/28/40 27/27/40 19/19/28
f 21/21/29 29/29/41 28/28/41 20/20/30
f 22/22/31 30/30/42 29/29/42 21/21/32
f 23/23/33 31/31/43 30/30/43 22/22/34
f 24/24/35 32/32/44 31/31/44 23/23/36
f 25/25/37 33/33/45 40/40/46 32/32/37
f 26/26/38 34/34/47 33/33/48 25/25/38
f 27/27/39 35/35/49 34/34/50 26/26/39
f 28/28/40 36/36/51 35/35/52 27/27/40
f 29/29/41 37/37/53 36/36/54 28/28/41
f 30/30/42 38/38/55 37/37/56 29/29/42
f 31/31/43 39/39/57 38/38/58 30/30/43
f 32/32/44 40/40/59 39/39/60 31/31/44
f 33/33/45 41/41/61 48/48/62 40/40/46
f 34/34/47 42/42/63 41/41/63 33/33/48
f 35/35/49 43/43/64 42/42/64 34/34/50
f 36/36/51 44/44/65 43/43/65 35/35/52
f 37/37/53 45/45/66 44/44/66 36/36/54
f 38/38/55 46/46/67 45/45/67 37/37/56
f 39/39/57 47/47/68 46/46/68 38/38/58
f 40/40/59 48/48/69 47/47/70 39/39/60
f 41/41/61 49/49/71 56/56/72 48/48/62
f 42/42/63 50/50/73 49/49/73 41/41/63
f 43/43/64 51/51/74 50/50/74 42/42/64
f 44/44/65 52/52/75 51/51/75 43/43/65
f 45/45/66 53/53/76 52/52/76 44/44/66
f 46/46/67 54/54/77 53/53/77 45/45/67
f 47/47/68 55/55/78 54/54/78 46/46/68
f 48/48/69 56/56/79 55/55/80 47/47/70
f 49/49/71 57/57/81 64/64/81 56/56/72
f 50/50/73 58/58/82 57/57/83 49/49/73
f 51/51/74 59/59/84 58/58/84 50/50/74
f 52/52/75 60/60/85 59/59/86 51/51/75
f 53/53/76 61/61/87 60/60/88 52/52/76
f 54/54/77 62/62/89 61/61/89 53/53/77
f 55/55/78 63/63/90 62/62/91 54/54/78
f 56/56/79 64/64/92 63/63/92 55/55/80
f 57/57/81 65/65/93 72/72/93 64/64/81
f 58/58/82 66/66/94 65/65/94 57/57/83
f 59/59/84 67/67/95 66/66/95 58/58/84
f 60/60/85 68/68/96 67/67/96 59/59/86
f 61/61/87 69/69/97 68/68/97 60/60/88
f 62/62/89 70/70/98 69/69/98 61/61/89
f 63/63/90 71/71/99 70/70/99 62/62/91
f 64/64/92 72/72/100 71/71/100 63/63/92
f 65/65/93 73/73/101 80/80/101 72/72/93
f 66/66/94 74/74/102 73/73/103 65/65/94
f 67/67/95 75/75/104 74/74/104 66/66/95
f 68/68/96 76/76/105 75/75/106 67/67/96
f 69/69/97 77/77/107 76/76/108 68/68/97
f 70/70/98 78/78/109 77/77/109 69/69/98
f 71/71/99 79/79/110 78/78/111 70/70/99
f 72/72/100 80/80/112 79/79/112 71/71/100
f 73/73/101 81/81/113 88/88/114 80/80/101
f 74/74/102 82/82/115 81/81/115 73/73/103
f 75/75/104 83/83/116 82/82/116 74/74/104
f 76/76/105 84/84/117 83/83/118 75/75/106
f 77/77/107 85/85/119 84/84/120 76/76/108
f 78/78/109 86/86/121 85/85/121 77/77/109
f 79/79/110 87/87/122 86/86/122 78/78/111
f 80/80/112 88/88/123 87/87/124 79/79/112
f 81/81/113 89/89/125 96/96/125 88/88/114
f 82/82/115 90/90/126 89/89/126 81/81/115
f 83/83/116 91/91/127 90/90/127 82/82/116
f 84/84/117 92/92/128 91/91/128 83/83/118
f 85/85/119 93/93/129 92/92/129 84/84/120
f 86/86/121 94/94/130 93/93/130 85/85/121
f 87/87/122 95/95/131 94/94/131 86/86/122
f 88/88/123 96/96/132 95/95/132 87/87/124
f 101/101/133 102/102/133 118/118/133 117/117/133
f 98/98/133 104/104/133 103/103/133 102/102/133 101/101/133 100/100/133 99/99/133 97/97/133
f 4/4/134 3/3/134 108/108/134 109/109/134
f 100/100/133 101/101/133 117/117/133 116/116/133
f 6/6/134 5/5/134 110/110/134 111/111/134
f 99/99/133 100/100/133 116/116/133 115/115/133
f 97/97/133 99/99/133 115/115/133 113/113/133
f 1/1/134 8/8/134 106/106/134 105/105/134
f 8/8/134 7/7/134 112/112/134 106/106/134
f 109/109/135 108/108/135 116/116/135 117/117/135
f 112/112/136 111/111/136 119/119/136 120/120/136
f 107/107/137 105/105/137 113/113/137 115/115/137
f 110/110/138 109/109/138 117/117/138 118/118/138
f 106/106/139 112/112/139 120/120/139 114/114/139
f 105/105/140 106/106/140 114/114/140 113/113/140
f 108/108/141 107/107/141 115/115/141 116/116/141
f 111/111/142 110/110/142 118/118/142 119/119/142
f 102/102/133 103/103/133 119/119/133 118/118/133
f 2/2/134 1/1/134 105/105/134 107/107/134
f 7/7/134 6/6/134 111/111/134 112/112/134
f 103/103/133 104/104/133 120/120/133 119/119/133
f 5/5/134 4/4/134 109/109/134 110/110/134
f 104/104/133 98/98/133 114/114/133 120/120/133
f 98/98/133 97/97/133 113/113/133 114/114/133
f 3/3/134 2/2/134 107/107/134 108/108/134
f 96/96/143 89/89/143 90/90/143 91/91/143 92/92/143 93/93/143 94/94/143 95/95/143
f 129/129/144 128/128/144 127/127/144 130/130/144
f 135/135/145 122/122/145 121/121/145 136/136/145
f 136/136/146 121/121/146 128/128/146 129/129/146
f 132/132/147 125/125/147 124/124/147 133/133/147
f 133/133/148 124/124/148 123/123/148 134/134/148
f 121/121/134 122/122/134 123/123/134 124/124/134 125/125/134 126/126/134 127/127/134 128/128/134
f 131/131/149 126/126/149 125/125/149 132/132/149
f 134/134/150 123/123/150 122/122/150 135/135/150
f 136/136/133 129/129/133 130/130/133 131/131/133 132/132/133 133/133/133 134/134/133 135/135/133
f 130/130/151 127/127/151 126/126/151 131/131/151
f 145/145/152 144/144/152 143/143/152 146/146/152
f 151/151/153 138/138/153 137/137/153 152/152/153
f 152/152/154 137/137/154 144/144/154 145/145/154
f 148/148/155 141/141/155 140/140/155 149/149/155
f 149/149/156 140/140/156 139/139/156 150/150/156
f 137/137/157 138/138/157 139/139/157 140/140/157 141/141/157 142/142/157 143/143/157 144/144/157
f 147/147/158 142/142/158 141/141/158 148/148/158
f 150/150/159 139/139/159 138/138/159 151/151/159
f 152/152/160 145/145/160 146/146/160 147/147/160 148/148/160 149/149/160 150/150/160 151/151/160
f 146/146/161 143/143/161 142/142/161 147/147/161
