# Blender 3.4.1
# www.blender.org
mtllib fauset004.mtl
o fauset.003
v -0.021039 -0.013473 -0.190778
v -0.039028 0.004516 -0.190778
v -0.039028 -0.320213 0.784515
v -0.021039 -0.320213 0.766526
v -0.039028 0.004516 0.625159
v -0.021039 -0.013473 0.622791
v -0.021039 -0.157208 0.766526
v -0.039028 -0.154840 0.784515
v -0.021039 -0.032730 0.694659
v -0.039028 -0.016601 0.703970
v -0.021039 -0.085340 0.747269
v -0.039028 -0.076029 0.763398
v 0.041945 0.004516 -0.190778
v 0.023956 -0.013473 -0.190778
v 0.023956 -0.320213 0.766526
v 0.041945 -0.320213 0.784515
v 0.023956 -0.013473 0.622791
v 0.041945 0.004516 0.625159
v 0.041945 -0.154840 0.784515
v 0.023956 -0.157208 0.766526
v 0.041945 -0.016601 0.703970
v 0.023956 -0.032730 0.694659
v 0.041945 -0.076029 0.763398
v 0.023956 -0.085340 0.747269
v -0.021039 0.065058 0.633130
v -0.039028 0.047024 0.630756
v -0.039028 0.019819 0.724998
v -0.021039 0.035867 0.734263
v -0.039028 -0.055001 0.799818
v -0.021039 -0.045736 0.815866
v -0.039028 -0.149243 0.827024
v -0.021039 -0.146869 0.845057
v -0.039028 0.047702 -0.190778
v -0.021039 0.065735 -0.190778
v -0.021039 -0.320213 0.845734
v -0.039028 -0.320213 0.827698
v 0.041945 0.047024 0.630756
v 0.023956 0.065058 0.633130
v 0.023956 0.035867 0.734263
v 0.041945 0.019819 0.724998
v 0.023956 -0.045736 0.815866
v 0.041945 -0.055001 0.799818
v 0.023956 -0.146869 0.845057
v 0.041945 -0.149243 0.827024
v 0.023956 0.065735 -0.190778
v 0.041945 0.047702 -0.190778
v 0.041945 -0.320213 0.827698
v 0.023956 -0.320213 0.845734
v -0.346479 0.117007 -0.169720
v -0.300720 0.104746 -0.169720
v -0.267222 0.071248 -0.169720
v -0.254961 0.025489 -0.169720
v -0.267222 -0.020270 -0.169720
v -0.300720 -0.053768 -0.169720
v -0.346479 -0.066029 -0.169720
v -0.392238 -0.053768 -0.169720
v -0.425736 -0.020270 -0.169720
v -0.437997 0.025489 -0.169720
v -0.425736 0.071248 -0.169720
v -0.392238 0.104746 -0.169720
v -0.300720 0.104746 -0.135672
v -0.346479 0.117007 -0.135672
v -0.267222 0.071248 -0.135672
v -0.254961 0.025489 -0.135672
v -0.267222 -0.020270 -0.135672
v -0.300720 -0.053768 -0.135672
v -0.346479 -0.066029 -0.135672
v -0.392238 -0.053768 -0.135672
v -0.425736 -0.020270 -0.135672
v -0.437997 0.025489 -0.135672
v -0.425736 0.071248 -0.135672
v -0.392238 0.104746 -0.135672
v -0.291764 0.138170 -0.169720
v -0.337523 0.150431 -0.169720
v -0.233798 -0.029226 -0.169720
v -0.221537 0.016533 -0.169720
v -0.401194 -0.087192 -0.169720
v -0.355435 -0.099453 -0.169720
v -0.459160 0.080204 -0.169720
v -0.471421 0.034445 -0.169720
v -0.291764 0.138170 -0.135672
v -0.337523 0.150431 -0.135672
v -0.233798 -0.029226 -0.135672
v -0.221537 0.016533 -0.135672
v -0.401194 -0.087192 -0.135672
v -0.355435 -0.099453 -0.135672
v -0.459160 0.080204 -0.135672
v -0.471421 0.034445 -0.135672
v -0.300720 0.104746 -0.249061
v -0.346479 0.117007 -0.249061
v -0.267222 0.071248 -0.249061
v -0.254961 0.025489 -0.249061
v -0.267222 -0.020270 -0.249061
v -0.300720 -0.053768 -0.249061
v -0.346479 -0.066029 -0.249061
v -0.392238 -0.053768 -0.249061
v -0.425736 -0.020270 -0.249061
v -0.437997 0.025489 -0.249061
v -0.425736 0.071248 -0.249061
v -0.392238 0.104746 -0.249061
v 0.002600 0.117007 -0.248950
v 0.002600 0.078608 -0.208000
v 0.048359 0.104746 -0.248950
v 0.029159 0.071492 -0.208000
v 0.081856 0.071248 -0.248950
v 0.048602 0.052049 -0.208000
v 0.094118 0.025489 -0.248950
v 0.055719 0.025489 -0.208000
v 0.081856 -0.020270 -0.248950
v 0.048602 -0.001071 -0.208000
v 0.048359 -0.053768 -0.248950
v 0.029159 -0.020514 -0.208000
v 0.002600 -0.066029 -0.248950
v 0.002600 -0.027630 -0.208000
v -0.043159 -0.053768 -0.248950
v -0.023960 -0.020514 -0.208000
v -0.076657 -0.020270 -0.248950
v -0.043403 -0.001071 -0.208000
v -0.088918 0.025489 -0.248950
v -0.050520 0.025489 -0.208000
v -0.076657 0.071248 -0.248950
v -0.043403 0.052049 -0.208000
v -0.043159 0.104746 -0.248950
v -0.023960 0.071492 -0.208000
v 0.048359 0.104746 -0.206835
v 0.002600 0.117007 -0.206835
v 0.081856 0.071248 -0.206835
v 0.094118 0.025489 -0.206835
v 0.081856 -0.020270 -0.206835
v 0.048359 -0.053768 -0.206835
v 0.002600 -0.066029 -0.206835
v -0.043159 -0.053768 -0.206835
v -0.076657 -0.020270 -0.206835
v -0.088918 0.025489 -0.206835
v -0.076657 0.071248 -0.206835
v -0.043159 0.104746 -0.206835
v 0.029159 0.071492 -0.183548
v 0.002600 0.078608 -0.183548
v 0.048602 0.052049 -0.183548
v 0.055719 0.025489 -0.183548
v 0.048602 -0.001071 -0.183548
v 0.029159 -0.020514 -0.183548
v 0.002600 -0.027630 -0.183548
v -0.023960 -0.020514 -0.183548
v -0.043403 -0.001071 -0.183548
v -0.050520 0.025489 -0.183548
v -0.043403 0.052049 -0.183548
v -0.023960 0.071492 -0.183548
v 0.342733 0.117007 -0.169720
v 0.388492 0.104746 -0.169720
v 0.421990 0.071248 -0.169720
v 0.434251 0.025489 -0.169720
v 0.421990 -0.020270 -0.169720
v 0.388492 -0.053768 -0.169720
v 0.342733 -0.066029 -0.169720
v 0.296974 -0.053768 -0.169720
v 0.263477 -0.020270 -0.169720
v 0.251216 0.025489 -0.169720
v 0.263477 0.071248 -0.169720
v 0.296974 0.104746 -0.169720
v 0.388492 0.104746 -0.135672
v 0.342733 0.117007 -0.135672
v 0.421990 0.071248 -0.135672
v 0.434251 0.025489 -0.135672
v 0.421990 -0.020270 -0.135672
v 0.388492 -0.053768 -0.135672
v 0.342733 -0.066029 -0.135672
v 0.296974 -0.053768 -0.135672
v 0.263477 -0.020270 -0.135672
v 0.251216 0.025489 -0.135672
v 0.263477 0.071248 -0.135672
v 0.296974 0.104746 -0.135672
v 0.397448 0.138170 -0.169720
v 0.351689 0.150431 -0.169720
v 0.455414 -0.029226 -0.169720
v 0.467675 0.016533 -0.169720
v 0.288018 -0.087192 -0.169720
v 0.333777 -0.099453 -0.169720
v 0.230053 0.080204 -0.169720
v 0.217792 0.034445 -0.169720
v 0.397448 0.138170 -0.135672
v 0.351689 0.150431 -0.135672
v 0.455414 -0.029226 -0.135672
v 0.467675 0.016533 -0.135672
v 0.288018 -0.087192 -0.135672
v 0.333777 -0.099453 -0.135672
v 0.230053 0.080204 -0.135672
v 0.217792 0.034445 -0.135672
v 0.388492 0.104746 -0.249061
v 0.342733 0.117007 -0.249061
v 0.421990 0.071248 -0.249061
v 0.434251 0.025489 -0.249061
v 0.421990 -0.020270 -0.249061
v 0.388492 -0.053768 -0.249061
v 0.342733 -0.066029 -0.249061
v 0.296974 -0.053768 -0.249061
v 0.263477 -0.020270 -0.249061
v 0.251216 0.025489 -0.249061
v 0.263477 0.071248 -0.249061
v 0.296974 0.104746 -0.249061
vn -1.0000 -0.0000 -0.0000
vn -0.0000 -0.0000 -1.0000
vn 1.0000 -0.0000 -0.0000
vn -0.0000 -1.0000 -0.0000
vn -0.0000 1.0000 0.0008
vn -0.0000 0.9901 0.1404
vn -0.0000 0.5083 0.8612
vn -0.0000 0.8612 0.5083
vn -0.0000 0.1420 0.9899
vn -0.0000 0.0039 1.0000
vn -0.0000 -0.9914 -0.1305
vn -0.0000 -0.8660 -0.5000
vn -0.0000 -0.1305 -0.9914
vn -0.0000 -0.7071 -0.7071
vn -0.0000 -0.2588 -0.9659
vn -0.7101 -0.6980 -0.0919
vn -0.7193 -0.6017 -0.3474
vn -0.7193 -0.3474 -0.6017
vn -0.7101 -0.0919 -0.6980
vn -0.7071 -0.7071 -0.0000
vn -0.7071 -0.0000 -0.7071
vn 0.7101 -0.6980 -0.0919
vn 0.7193 -0.6017 -0.3474
vn 0.7193 -0.3474 -0.6017
vn 0.7101 -0.0919 -0.6980
vn 0.7071 -0.7071 -0.0000
vn 0.7071 -0.0000 -0.7071
vn -0.7110 0.6962 0.0993
vn -0.7175 0.5994 0.3549
vn -0.7175 0.6002 0.3535
vn -0.7110 0.6963 0.0984
vn -0.7175 0.3549 0.5994
vn -0.7175 0.3535 0.6002
vn -0.7110 0.1004 0.6960
vn -0.7110 0.0994 0.6962
vn -0.7080 0.7062 0.0006
vn -0.7081 0.0028 0.7061
vn 0.7110 0.6963 0.0984
vn 0.7175 0.6002 0.3535
vn 0.7175 0.5994 0.3549
vn 0.7110 0.6962 0.0993
vn 0.7175 0.3535 0.6002
vn 0.7175 0.3549 0.5994
vn 0.7110 0.0994 0.6962
vn 0.7110 0.1004 0.6960
vn 0.7080 0.7062 0.0006
vn 0.7081 0.0028 0.7061
vn 0.5000 -0.8660 -0.0000
vn 0.2588 -0.9659 -0.0000
vn -0.0000 -0.0000 1.0000
vn -0.7071 0.7071 -0.0000
vn -0.8181 0.5751 -0.0000
vn 0.9659 -0.2588 -0.0000
vn -0.8660 -0.5000 -0.0000
vn -0.5751 -0.8181 -0.0000
vn -0.2588 0.9659 -0.0000
vn 0.7071 0.7071 -0.0000
vn 0.5751 0.8181 -0.0000
vn -0.9659 -0.2588 -0.0000
vn 0.9960 0.0890 -0.0000
vn 0.9659 0.2588 -0.0000
vn 0.2588 0.9659 -0.0000
vn -0.9659 0.2588 -0.0000
vn -0.2588 -0.9659 -0.0000
vn -0.8660 0.5000 -0.0000
vn -0.5000 -0.8660 -0.0000
vn 0.5000 0.8660 -0.0000
vn -0.5000 0.8660 -0.0000
vn 0.0101 -0.0101 0.9999
vn -0.0020 0.0020 1.0000
vn 0.8660 0.5000 -0.0000
vn 0.8660 -0.5000 -0.0000
vt 0.408951 0.106275
vt 0.408951 0.106275
vt 0.408951 0.106275
vt 0.408951 0.106275
vt 0.408951 0.106275
vt 0.408951 0.106275
vt 0.408951 0.106275
vt 0.408951 0.106275
vt 0.408951 0.106275
vt 0.408951 0.106275
vt 0.408951 0.106275
vt 0.408951 0.106275
vt 0.408951 0.106275
vt 0.408951 0.106275
vt 0.408951 0.106275
vt 0.408951 0.106275
vt 0.408951 0.106275
vt 0.408951 0.106275
vt 0.408951 0.106275
vt 0.408951 0.106275
vt 0.408951 0.106275
vt 0.408951 0.106275
vt 0.408951 0.106275
vt 0.408951 0.106275
vt 0.408951 0.106275
vt 0.408951 0.106275
vt 0.408951 0.106275
vt 0.408951 0.106275
vt 0.408951 0.106275
vt 0.408951 0.106275
vt 0.408951 0.106275
vt 0.408951 0.106275
vt 0.408951 0.106275
vt 0.408951 0.106275
vt 0.408951 0.106275
vt 0.408951 0.106275
vt 0.408951 0.106275
vt 0.408951 0.106275
vt 0.408951 0.106275
vt 0.408951 0.106275
vt 0.408951 0.106275
vt 0.408951 0.106275
vt 0.408951 0.106275
vt 0.408951 0.106275
vt 0.408951 0.106275
vt 0.408951 0.106275
vt 0.408951 0.106275
vt 0.408951 0.106275
vt 0.818203 0.115576
vt 0.818203 0.115576
vt 0.818203 0.115576
vt 0.818203 0.115576
vt 0.818203 0.115576
vt 0.818203 0.115576
vt 0.818203 0.115576
vt 0.818203 0.115576
vt 0.818203 0.115576
vt 0.818203 0.115576
vt 0.818203 0.115576
vt 0.818203 0.115576
vt 0.818203 0.115576
vt 0.818203 0.115576
vt 0.818203 0.115576
vt 0.818203 0.115576
vt 0.818203 0.115576
vt 0.818203 0.115576
vt 0.818203 0.115576
vt 0.818203 0.115576
vt 0.818203 0.115576
vt 0.818203 0.115576
vt 0.818203 0.115576
vt 0.818203 0.115576
vt 0.818203 0.115576
vt 0.818203 0.115576
vt 0.818203 0.115576
vt 0.818203 0.115576
vt 0.818203 0.115576
vt 0.818203 0.115576
vt 0.818203 0.115576
vt 0.818203 0.115576
vt 0.818203 0.115576
vt 0.818203 0.115576
vt 0.818203 0.115576
vt 0.818203 0.115576
vt 0.818203 0.115576
vt 0.818203 0.115576
vt 0.818203 0.115576
vt 0.818203 0.115576
vt 0.818203 0.115576
vt 0.818203 0.115576
vt 0.818203 0.115576
vt 0.818203 0.115576
vt 0.818203 0.115576
vt 0.818203 0.115576
vt 0.818203 0.115576
vt 0.818203 0.115576
vt 0.818203 0.115576
vt 0.818203 0.115576
vt 0.818203 0.115576
vt 0.818203 0.115576
vt 0.818203 0.115576
vt 0.818203 0.115576
vt 0.818203 0.115576
vt 0.818203 0.115576
vt 0.818203 0.115576
vt 0.818203 0.115576
vt 0.818203 0.115576
vt 0.818203 0.115576
vt 0.818203 0.115576
vt 0.818203 0.115576
vt 0.818203 0.115576
vt 0.818203 0.115576
vt 0.818203 0.115576
vt 0.818203 0.115576
vt 0.818203 0.115576
vt 0.818203 0.115576
vt 0.818203 0.115576
vt 0.818203 0.115576
vt 0.818203 0.115576
vt 0.818203 0.115576
vt 0.818203 0.115576
vt 0.818203 0.115576
vt 0.818203 0.115576
vt 0.818203 0.115576
vt 0.818203 0.115576
vt 0.818203 0.115576
vt 0.818203 0.115576
vt 0.818203 0.115576
vt 0.818203 0.115576
vt 0.818203 0.115576
vt 0.818203 0.115576
vt 0.818203 0.115576
vt 0.818203 0.115576
vt 0.818203 0.115576
vt 0.818203 0.115576
vt 0.818203 0.115576
vt 0.818203 0.115576
vt 0.818203 0.115576
vt 0.818203 0.115576
vt 0.818203 0.115576
vt 0.818203 0.115576
vt 0.818203 0.115576
vt 0.818203 0.115576
vt 0.818203 0.115576
vt 0.818203 0.115576
vt 0.818203 0.115576
vt 0.818203 0.115576
vt 0.818203 0.115576
vt 0.818203 0.115576
vt 0.818203 0.115576
vt 0.818203 0.115576
vt 0.818203 0.115576
vt 0.818203 0.115576
vt 0.818203 0.115576
vt 0.818203 0.115576
vt 0.818203 0.115576
vt 0.818203 0.115576
vt 0.818203 0.115576
vt 0.818203 0.115576
vt 0.818203 0.115576
vt 0.818203 0.115576
vt 0.818203 0.115576
vt 0.818203 0.115576
vt 0.818203 0.115576
vt 0.818203 0.115576
vt 0.818203 0.115576
vt 0.818203 0.115576
vt 0.818203 0.115576
vt 0.818203 0.115576
vt 0.818203 0.115576
vt 0.818203 0.115576
vt 0.818203 0.115576
vt 0.818203 0.115576
vt 0.818203 0.115576
vt 0.818203 0.115576
vt 0.818203 0.115576
vt 0.818203 0.115576
vt 0.818203 0.115576
vt 0.818203 0.115576
vt 0.818203 0.115576
vt 0.818203 0.115576
vt 0.818203 0.115576
vt 0.818203 0.115576
vt 0.818203 0.115576
vt 0.818203 0.115576
vt 0.818203 0.115576
vt 0.818203 0.115576
vt 0.818203 0.115576
vt 0.818203 0.115576
vt 0.818203 0.115576
vt 0.818203 0.115576
vt 0.818203 0.115576
vt 0.818203 0.115576
vt 0.818203 0.115576
vt 0.818203 0.115576
vt 0.818203 0.115576
vt 0.818203 0.115576
vt 0.818203 0.115576
vt 0.818203 0.115576
vt 0.818203 0.115576
s 1
usemtl Material
f 12/12/1 8/8/1 31/31/1 29/29/1
f 13/13/2 14/14/2 1/1/2 2/2/2 33/33/2 34/34/2 45/45/2 46/46/2
f 18/18/3 13/13/3 46/46/3 37/37/3
f 3/3/4 4/4/4 15/15/4 16/16/4 47/47/4 48/48/4 35/35/4 36/36/4
f 10/10/1 12/12/1 29/29/1 27/27/1
f 34/34/5 25/25/6 38/38/6 45/45/5
f 30/30/7 41/41/7 39/39/8 28/28/8
f 32/32/9 43/43/9 41/41/7 30/30/7
f 35/35/10 48/48/10 43/43/9 32/32/9
f 21/21/3 18/18/3 37/37/3 40/40/3
f 28/28/8 39/39/8 38/38/6 25/25/6
f 1/1/4 14/14/4 17/17/11 6/6/11
f 9/9/12 6/6/11 17/17/11 22/22/12
f 23/23/3 21/21/3 40/40/3 42/42/3
f 5/5/1 10/10/1 27/27/1 26/26/1
f 4/4/2 7/7/13 20/20/13 15/15/2
f 11/11/14 9/9/12 22/22/12 24/24/14
f 16/16/3 19/19/3 44/44/3 47/47/3
f 19/19/3 23/23/3 42/42/3 44/44/3
f 8/8/1 3/3/1 36/36/1 31/31/1
f 7/7/13 11/11/15 24/24/15 20/20/13
f 6/6/16 9/9/17 10/10/17 5/5/16
f 9/9/17 11/11/18 12/12/18 10/10/17
f 11/11/18 7/7/19 8/8/19 12/12/18
f 5/5/16 2/2/20 1/1/20 6/6/16
f 7/7/19 4/4/21 3/3/21 8/8/19
f 18/18/22 21/21/23 22/22/23 17/17/22
f 21/21/23 23/23/24 24/24/24 22/22/23
f 23/23/24 19/19/25 20/20/25 24/24/24
f 17/17/22 14/14/26 13/13/26 18/18/22
f 19/19/25 16/16/27 15/15/27 20/20/25
f 26/26/28 27/27/29 28/28/30 25/25/31
f 27/27/29 29/29/32 30/30/33 28/28/30
f 29/29/32 31/31/34 32/32/35 30/30/33
f 25/25/31 34/34/36 33/33/36 26/26/28
f 31/31/34 36/36/37 35/35/37 32/32/35
f 38/38/38 39/39/39 40/40/40 37/37/41
f 39/39/39 41/41/42 42/42/43 40/40/40
f 41/41/42 43/43/44 44/44/45 42/42/43
f 37/37/41 46/46/46 45/45/46 38/38/38
f 43/43/44 48/48/47 47/47/47 44/44/45
f 2/2/1 5/5/1 26/26/1 33/33/1
f 54/54/48 55/55/49 95/95/49 94/94/48
f 61/61/50 62/62/50 72/72/50 71/71/50 70/70/50 69/69/50 68/68/50 67/67/50 66/66/50 65/65/50 64/64/50 63/63/50
f 50/50/2 49/49/2 74/74/2 73/73/2
f 60/60/51 59/59/52 71/71/51 72/72/51
f 61/61/53 50/50/53 73/73/53 81/81/53
f 57/57/54 56/56/55 68/68/20 69/69/20
f 54/54/48 53/53/26 65/65/26 66/66/48
f 49/49/56 60/60/56 72/72/56 62/62/56
f 51/51/57 50/50/58 61/61/57 63/63/57
f 58/58/59 57/57/54 69/69/59 70/70/59
f 55/55/49 54/54/48 66/66/48 67/67/49
f 52/52/60 51/51/61 63/63/61 64/64/61
f 70/70/50 71/71/50 87/87/50 88/88/50
f 56/56/2 55/55/2 78/78/2 77/77/2
f 75/75/53 76/76/53 84/84/53 83/83/53
f 73/73/62 74/74/62 82/82/62 81/81/62
f 79/79/63 80/80/63 88/88/63 87/87/63
f 77/77/64 78/78/64 86/86/64 85/85/64
f 64/64/50 65/65/50 83/83/50 84/84/50
f 68/68/63 56/56/63 77/77/63 85/85/63
f 59/59/2 58/58/2 80/80/2 79/79/2
f 52/52/62 64/64/62 84/84/62 76/76/62
f 65/65/64 53/53/64 75/75/64 83/83/64
f 53/53/2 52/52/2 76/76/2 75/75/2
f 67/67/50 68/68/50 85/85/50 86/86/50
f 71/71/62 59/59/62 79/79/62 87/87/62
f 58/58/64 70/70/64 88/88/64 80/80/64
f 62/62/50 61/61/50 81/81/50 82/82/50
f 55/55/53 67/67/53 86/86/53 78/78/53
f 49/49/63 62/62/63 82/82/63 74/74/63
f 89/89/2 91/91/2 92/92/2 93/93/2 94/94/2 95/95/2 96/96/2 97/97/2 98/98/2 99/99/2 100/100/2 90/90/2
f 51/51/61 52/52/60 92/92/3 91/91/61
f 58/58/63 59/59/52 99/99/65 98/98/63
f 55/55/64 56/56/55 96/96/66 95/95/64
f 52/52/60 53/53/53 93/93/53 92/92/3
f 59/59/52 60/60/51 100/100/51 99/99/65
f 49/49/62 50/50/58 89/89/67 90/90/62
f 56/56/55 57/57/54 97/97/54 96/96/66
f 53/53/26 54/54/48 94/94/48 93/93/26
f 60/60/56 49/49/56 90/90/56 100/100/56
f 50/50/58 51/51/57 91/91/57 89/89/67
f 57/57/54 58/58/59 98/98/59 97/97/54
f 101/101/62 126/126/62 125/125/67 103/103/67
f 103/103/67 125/125/67 127/127/57 105/105/57
f 105/105/61 127/127/61 128/128/3 107/107/3
f 107/107/3 128/128/3 129/129/53 109/109/53
f 109/109/26 129/129/26 130/130/48 111/111/48
f 111/111/48 130/130/48 131/131/49 113/113/49
f 113/113/64 131/131/64 132/132/66 115/115/66
f 115/115/66 132/132/66 133/133/54 117/117/54
f 117/117/54 133/133/54 134/134/59 119/119/59
f 119/119/63 134/134/63 135/135/65 121/121/65
f 102/102/56 124/124/56 148/148/56 138/138/56
f 121/121/65 135/135/65 136/136/68 123/123/68
f 123/123/68 136/136/68 126/126/56 101/101/56
f 101/101/2 103/103/2 105/105/2 107/107/2 109/109/2 111/111/2 113/113/2 115/115/2 117/117/2 119/119/2 121/121/2 123/123/2
f 124/124/69 102/102/70 104/104/70 106/106/70 108/108/70 110/110/70 112/112/70 114/114/70 116/116/70 118/118/70 120/120/70 122/122/69 135/135/69 134/134/70 133/133/70 132/132/70 131/131/70 130/130/70 129/129/70 128/128/70 127/127/70 125/125/70 126/126/70 136/136/69
f 122/122/69 124/124/69 136/136/69 135/135/69
f 106/106/71 104/104/57 137/137/57 139/139/71
f 120/120/1 118/118/54 145/145/54 146/146/1
f 114/114/4 112/112/49 142/142/49 143/143/4
f 108/108/3 106/106/71 139/139/71 140/140/3
f 122/122/65 120/120/1 146/146/1 147/147/65
f 116/116/64 114/114/4 143/143/4 144/144/64
f 110/110/72 108/108/3 140/140/3 141/141/72
f 124/124/51 122/122/65 147/147/65 148/148/51
f 104/104/62 102/102/62 138/138/62 137/137/62
f 118/118/54 116/116/20 144/144/20 145/145/54
f 112/112/26 110/110/72 141/141/72 142/142/26
f 148/148/50 147/147/50 146/146/50 145/145/50 144/144/50 143/143/50 142/142/50 141/141/50 140/140/50 139/139/50 137/137/50 138/138/50
f 154/154/48 155/155/49 195/195/49 194/194/48
f 161/161/50 162/162/50 172/172/50 171/171/50 170/170/50 169/169/50 168/168/50 167/167/50 166/166/50 165/165/50 164/164/50 163/163/50
f 150/150/2 149/149/2 174/174/2 173/173/2
f 160/160/51 159/159/52 171/171/51 172/172/51
f 161/161/53 150/150/53 173/173/53 181/181/53
f 157/157/54 156/156/55 168/168/20 169/169/20
f 154/154/48 153/153/26 165/165/26 166/166/48
f 149/149/56 160/160/56 172/172/56 162/162/56
f 151/151/57 150/150/58 161/161/57 163/163/57
f 158/158/59 157/157/54 169/169/59 170/170/59
f 155/155/49 154/154/48 166/166/48 167/167/49
f 152/152/60 151/151/61 163/163/61 164/164/61
f 170/170/50 171/171/50 187/187/50 188/188/50
f 156/156/2 155/155/2 178/178/2 177/177/2
f 175/175/53 176/176/53 184/184/53 183/183/53
f 173/173/62 174/174/62 182/182/62 181/181/62
f 179/179/63 180/180/63 188/188/63 187/187/63
f 177/177/64 178/178/64 186/186/64 185/185/64
f 164/164/50 165/165/50 183/183/50 184/184/50
f 168/168/63 156/156/63 177/177/63 185/185/63
f 159/159/2 158/158/2 180/180/2 179/179/2
f 152/152/62 164/164/62 184/184/62 176/176/62
f 165/165/64 153/153/64 175/175/64 183/183/64
f 153/153/2 152/152/2 176/176/2 175/175/2
f 167/167/50 168/168/50 185/185/50 186/186/50
f 171/171/62 159/159/62 179/179/62 187/187/62
f 158/158/64 170/170/64 188/188/64 180/180/64
f 162/162/50 161/161/50 181/181/50 182/182/50
f 155/155/53 167/167/53 186/186/53 178/178/53
f 149/149/63 162/162/63 182/182/63 174/174/63
f 189/189/2 191/191/2 192/192/2 193/193/2 194/194/2 195/195/2 196/196/2 197/197/2 198/198/2 199/199/2 200/200/2 190/190/2
f 151/151/61 152/152/60 192/192/3 191/191/61
f 158/158/63 159/159/52 199/199/65 198/198/63
f 155/155/64 156/156/55 196/196/66 195/195/64
f 152/152/60 153/153/53 193/193/53 192/192/3
f 159/159/52 160/160/51 200/200/51 199/199/65
f 149/149/62 150/150/58 189/189/67 190/190/62
f 156/156/55 157/157/54 197/197/54 196/196/66
f 153/153/26 154/154/48 194/194/48 193/193/26
f 160/160/56 149/149/56 190/190/56 200/200/56
f 150/150/58 151/151/57 191/191/57 189/189/67
f 157/157/54 158/158/59 198/198/59 197/197/54
