# Blender 3.4.1
# www.blender.org
mtllib fauset017.mtl
o fauset.016
v -0.583115 -0.650457 -0.419234
v -0.583115 -0.650457 -0.037236
v 0.605625 -0.650457 -0.419234
v 0.605625 -0.650457 -0.037236
v -0.583115 -0.706629 -0.419234
v -0.583115 -0.706629 -0.037236
v 0.605625 -0.706629 -0.419234
v 0.605625 -0.706629 -0.037236
v -0.033136 -0.624775 -0.261002
v -0.045451 -0.624775 -0.231271
v -0.033136 -0.624775 -0.201540
v -0.003405 -0.624775 -0.189225
v 0.026326 -0.624775 -0.201540
v 0.038641 -0.624775 -0.231271
v 0.026326 -0.624775 -0.261002
v -0.003405 -0.624775 -0.273317
v -0.033136 0.388963 -0.260859
v -0.045451 0.386049 -0.231271
v -0.033136 0.383135 -0.201683
v -0.003405 0.381928 -0.189427
v 0.026326 0.383135 -0.201683
v 0.038641 0.386049 -0.231271
v 0.026326 0.388963 -0.260859
v -0.003405 0.390171 -0.273115
v -0.033136 0.543846 -0.229614
v -0.045451 0.532469 -0.202146
v -0.033136 0.521091 -0.174679
v -0.003405 0.516378 -0.163301
v 0.026326 0.521091 -0.174678
v 0.038641 0.532469 -0.202146
v 0.026326 0.543846 -0.229614
v -0.003405 0.548559 -0.240992
v -0.033136 0.677620 -0.140230
v -0.045451 0.656597 -0.119207
v -0.033136 0.635574 -0.098184
v -0.003405 0.626866 -0.089476
v 0.026326 0.635574 -0.098184
v 0.038641 0.656597 -0.119207
v 0.026326 0.677620 -0.140230
v -0.003405 0.686328 -0.148938
v -0.033136 0.767005 -0.006456
v -0.045451 0.739537 0.004922
v -0.033136 0.712069 0.016299
v -0.003405 0.700691 0.021012
v 0.026326 0.712069 0.016299
v 0.038641 0.739537 0.004922
v 0.026326 0.767005 -0.006456
v -0.003405 0.778382 -0.011169
v -0.033136 0.798249 0.148427
v -0.045451 0.768661 0.151341
v -0.033136 0.739074 0.154255
v -0.003405 0.726818 0.155462
v 0.026326 0.739074 0.154255
v 0.038641 0.768661 0.151341
v 0.026326 0.798249 0.148427
v -0.003405 0.810505 0.147220
v -0.033136 0.798272 0.257012
v -0.045451 0.768661 0.254340
v -0.033136 0.739051 0.251668
v -0.003405 0.726785 0.250561
v 0.026326 0.739051 0.251668
v 0.038641 0.768661 0.254340
v 0.026326 0.798272 0.257012
v -0.003405 0.810537 0.258119
v -0.033136 0.770247 0.410093
v -0.045451 0.742019 0.400759
v -0.033136 0.713792 0.391425
v -0.003405 0.702099 0.387559
v 0.026326 0.713792 0.391425
v 0.038641 0.742019 0.400759
v 0.026326 0.770247 0.410093
v -0.003405 0.781940 0.413959
v -0.033136 0.705067 0.541949
v -0.045451 0.680718 0.524887
v -0.033136 0.656370 0.507826
v -0.003405 0.646285 0.500758
v 0.026326 0.656370 0.507826
v 0.038641 0.680718 0.524887
v 0.026326 0.705067 0.541949
v -0.003405 0.715152 0.549016
v -0.033136 0.619308 0.631493
v -0.045451 0.601265 0.607863
v -0.033136 0.583222 0.584233
v -0.003405 0.575748 0.574445
v 0.026326 0.583222 0.584233
v 0.038641 0.601265 0.607863
v 0.026326 0.619308 0.631493
v -0.003405 0.626782 0.641281
v -0.033136 0.524278 0.683215
v -0.045451 0.513377 0.655554
v -0.033136 0.502477 0.627894
v -0.003405 0.497961 0.616436
v 0.026326 0.502477 0.627894
v 0.038641 0.513377 0.655554
v 0.026326 0.524278 0.683215
v -0.003405 0.528793 0.694672
v -0.033136 0.237711 0.757723
v -0.045451 0.230251 0.728943
v -0.033136 0.222791 0.700163
v -0.003405 0.219701 0.688242
v 0.026326 0.222791 0.700163
v 0.038641 0.230251 0.728943
v 0.026326 0.237711 0.757723
v -0.003405 0.240801 0.769644
v -0.120879 -0.624775 -0.348745
v -0.003405 -0.624775 -0.397404
v -0.169538 -0.624775 -0.231271
v -0.120879 -0.624775 -0.113797
v -0.003405 -0.624775 -0.065138
v 0.114068 -0.624775 -0.113797
v 0.162728 -0.624775 -0.231271
v 0.114068 -0.624775 -0.348745
v -0.120879 -0.661271 -0.348745
v -0.003405 -0.661271 -0.397404
v -0.169538 -0.661272 -0.231271
v -0.120879 -0.661272 -0.113797
v -0.003405 -0.661272 -0.065138
v 0.114068 -0.661272 -0.113797
v 0.162728 -0.661272 -0.231271
v 0.114068 -0.661271 -0.348745
v 0.470233 -0.511309 -0.312043
v 0.515034 -0.511309 -0.259199
v 0.509057 -0.511309 -0.189798
v 0.455289 -0.511309 -0.144880
v 0.385517 -0.511309 -0.151238
v 0.341124 -0.511309 -0.204918
v 0.347911 -0.511309 -0.273864
v 0.401262 -0.511309 -0.317974
v 0.508063 -0.406787 -0.384281
v 0.593165 -0.406787 -0.283901
v 0.581812 -0.406787 -0.152069
v 0.479677 -0.406787 -0.066746
v 0.347140 -0.406787 -0.078822
v 0.262813 -0.406787 -0.180790
v 0.377050 -0.406787 -0.395546
v 0.275706 -0.406787 -0.311757
v 0.470233 -0.655701 -0.312043
v 0.515034 -0.655701 -0.259199
v 0.509057 -0.655701 -0.189798
v 0.455289 -0.655701 -0.144880
v 0.385517 -0.655701 -0.151238
v 0.341124 -0.655701 -0.204918
v 0.347911 -0.655701 -0.273864
v 0.401262 -0.655701 -0.317974
v -0.361146 -0.406787 -0.393903
v -0.262929 -0.406787 -0.306313
v -0.255864 -0.406787 -0.174182
v -0.345161 -0.406787 -0.075502
v -0.478090 -0.406787 -0.069056
v -0.575761 -0.406787 -0.158326
v -0.492454 -0.406787 -0.386865
v -0.581180 -0.406787 -0.289814
v -0.388578 -0.511309 -0.317111
v -0.336873 -0.511309 -0.271001
v -0.333154 -0.511309 -0.201442
v -0.380163 -0.511309 -0.149493
v -0.450142 -0.511309 -0.146099
v -0.501560 -0.511309 -0.193094
v -0.504413 -0.511309 -0.262315
v -0.457704 -0.511309 -0.313406
v -0.581180 -0.441323 -0.289814
v -0.575761 -0.441323 -0.158326
v -0.478090 -0.441323 -0.069056
v -0.345161 -0.441323 -0.075502
v -0.255864 -0.441323 -0.174182
v -0.262929 -0.441323 -0.306313
v -0.492454 -0.441323 -0.386865
v -0.361146 -0.441323 -0.393903
v 0.275706 -0.441323 -0.311757
v 0.262813 -0.441323 -0.180790
v 0.347140 -0.441323 -0.078822
v 0.479677 -0.441323 -0.066746
v 0.581812 -0.441323 -0.152069
v 0.593165 -0.441323 -0.283901
v 0.377050 -0.441323 -0.395546
v 0.508063 -0.441323 -0.384281
v -0.388578 -0.655701 -0.317111
v -0.336873 -0.655701 -0.271001
v -0.333154 -0.655701 -0.201442
v -0.380163 -0.655701 -0.149493
v -0.450142 -0.655701 -0.146099
v -0.501560 -0.655701 -0.193094
v -0.504413 -0.655701 -0.262315
v -0.457704 -0.655701 -0.313406
vn -0.0000 1.0000 -0.0000
vn -0.0000 -1.0000 -0.0000
vn 1.0000 -0.0000 -0.0000
vn -0.0000 -0.0000 -1.0000
vn -0.0000 -0.0000 1.0000
vn -1.0000 -0.0000 -0.0000
vn -0.3819 0.0002 -0.9242
vn -0.3820 0.0905 -0.9197
vn -0.3819 0.0948 -0.9193
vn -0.9998 0.0004 -0.0181
vn -0.9235 0.0396 -0.3815
vn -0.9236 -0.0000 -0.3835
vn -0.9236 -0.0000 0.3835
vn -0.9236 -0.0360 0.3818
vn -0.3819 0.0002 0.9242
vn -0.3818 -0.0871 0.9201
vn -0.3818 -0.0914 0.9197
vn 0.3819 0.0002 0.9242
vn 0.3818 -0.0914 0.9197
vn 0.3818 -0.0871 0.9201
vn 0.9998 0.0004 -0.0181
vn 0.9236 -0.0360 0.3818
vn 0.9236 -0.0000 0.3835
vn 0.9236 -0.0000 -0.3835
vn 0.9235 0.0396 -0.3815
vn 0.3819 0.0002 -0.9242
vn 0.3819 0.0948 -0.9193
vn 0.3820 0.0905 -0.9197
vn -0.3838 0.3454 -0.8564
vn -0.3836 0.3740 -0.8444
vn -0.9992 0.0043 -0.0400
vn -0.9242 0.1576 -0.3478
vn -0.9244 -0.1368 0.3560
vn -0.3840 -0.3421 0.8576
vn -0.3837 -0.3716 0.8454
vn 0.3837 -0.3716 0.8454
vn 0.3840 -0.3421 0.8576
vn 0.9992 0.0043 -0.0400
vn 0.9244 -0.1368 0.3560
vn 0.9242 0.1576 -0.3478
vn 0.3836 0.3740 -0.8444
vn 0.3838 0.3454 -0.8564
vn -0.3826 0.6429 -0.6635
vn -0.3825 0.6755 -0.6304
vn -0.9987 0.0224 -0.0453
vn -0.9237 0.2827 -0.2584
vn -0.9238 -0.2612 0.2799
vn -0.3826 -0.6429 0.6635
vn -0.3825 -0.6755 0.6304
vn 0.3825 -0.6755 0.6304
vn 0.3826 -0.6429 0.6635
vn 0.9987 0.0224 -0.0453
vn 0.9238 -0.2612 0.2799
vn 0.9237 0.2827 -0.2584
vn 0.3825 0.6755 -0.6304
vn 0.3826 0.6429 -0.6635
vn -0.3837 0.8486 -0.3643
vn -0.3839 0.8617 -0.3319
vn -0.9980 0.0527 -0.0345
vn -0.9244 0.3569 -0.1348
vn -0.9243 -0.3491 0.1543
vn -0.3839 -0.8499 0.3611
vn -0.3840 -0.8628 0.3288
vn 0.3840 -0.8628 0.3288
vn 0.3839 -0.8499 0.3611
vn 0.9980 0.0527 -0.0345
vn 0.9243 -0.3491 0.1543
vn 0.9244 0.3569 -0.1348
vn 0.3839 0.8617 -0.3319
vn 0.3837 0.8486 -0.3643
vn -0.3816 0.9195 -0.0945
vn -0.3817 0.9200 -0.0890
vn -0.9994 0.0349 -0.0054
vn -0.9234 0.3820 -0.0363
vn -0.9234 -0.3819 0.0388
vn -0.3814 -0.9199 0.0908
vn -0.3815 -0.9204 0.0859
vn 0.3815 -0.9204 0.0859
vn 0.3814 -0.9199 0.0908
vn 0.9994 0.0349 -0.0054
vn 0.9234 -0.3819 0.0388
vn 0.9234 0.3820 -0.0363
vn 0.3817 0.9200 -0.0890
vn 0.3816 0.9195 -0.0945
vn -0.3822 0.9201 0.0853
vn -0.3822 0.9205 0.0809
vn -0.9995 0.0321 0.0044
vn -0.9237 0.3817 0.0331
vn -0.9236 -0.3816 -0.0356
vn -0.3821 -0.9203 -0.0843
vn -0.3821 -0.9206 -0.0800
vn 0.3821 -0.9206 -0.0800
vn 0.3821 -0.9203 -0.0843
vn 0.9995 0.0321 0.0044
vn 0.9236 -0.3816 -0.0356
vn 0.9237 0.3817 0.0331
vn 0.3822 0.9205 0.0809
vn 0.3822 0.9201 0.0853
vn -0.3829 0.8744 0.2980
vn -0.3830 0.8811 0.2774
vn -0.9989 0.0413 0.0212
vn -0.9240 0.3652 0.1132
vn -0.9240 -0.3613 -0.1255
vn -0.3830 -0.8750 -0.2963
vn -0.3830 -0.8816 -0.2758
vn 0.3830 -0.8816 -0.2758
vn 0.3830 -0.8750 -0.2963
vn 0.9989 0.0413 0.0212
vn 0.9240 -0.3613 -0.1255
vn 0.9240 0.3652 0.1132
vn 0.3830 0.8811 0.2774
vn 0.3829 0.8744 0.2980
vn -0.3828 0.7493 0.5404
vn -0.3827 0.7694 0.5113
vn -0.9991 0.0273 0.0338
vn -0.9239 0.3203 0.2094
vn -0.9239 -0.3076 -0.2276
vn -0.3828 -0.7496 -0.5399
vn -0.3827 -0.7698 -0.5108
vn 0.3827 -0.7698 -0.5108
vn 0.3828 -0.7496 -0.5399
vn 0.9991 0.0273 0.0338
vn 0.9239 -0.3076 -0.2276
vn 0.9239 0.3203 0.2094
vn 0.3827 0.7694 0.5113
vn 0.3828 0.7493 0.5404
vn -0.3831 0.5511 0.7413
vn -0.3829 0.5787 0.7201
vn -0.9993 0.0112 0.0350
vn -0.9239 0.2422 0.2961
vn -0.9240 -0.2235 -0.3102
vn -0.3831 -0.5498 -0.7422
vn -0.3830 -0.5779 -0.7207
vn 0.3830 -0.5779 -0.7207
vn 0.3831 -0.5498 -0.7422
vn 0.9993 0.0112 0.0350
vn 0.9240 -0.2235 -0.3102
vn 0.9239 0.2422 0.2961
vn 0.3829 0.5787 0.7201
vn 0.3831 0.5511 0.7413
vn -0.3830 0.3328 0.8617
vn -0.3828 0.3505 0.8548
vn -0.9997 0.0023 0.0246
vn -0.9239 0.1471 0.3532
vn -0.9240 -0.1344 -0.3580
vn -0.3829 -0.3305 -0.8626
vn -0.3828 -0.3483 -0.8557
vn 0.3828 -0.3483 -0.8557
vn 0.3829 -0.3305 -0.8626
vn 0.9997 0.0023 0.0246
vn 0.9240 -0.1344 -0.3580
vn 0.9239 0.1471 0.3532
vn 0.3828 0.3505 0.8548
vn 0.3830 0.3328 0.8617
vn -0.3815 0.2327 0.8946
vn -0.9991 -0.0104 -0.0408
vn -0.9234 0.0965 0.3716
vn -0.9234 -0.0962 -0.3717
vn -0.3815 -0.2311 -0.8950
vn 0.3815 -0.2311 -0.8950
vn 0.9991 -0.0104 -0.0408
vn 0.9234 -0.0962 -0.3717
vn 0.9234 0.0965 0.3716
vn 0.3815 0.2327 0.8946
vn -0.3827 -0.0000 0.9239
vn 0.9239 -0.0000 -0.3827
vn -0.9239 -0.0000 -0.3827
vn 0.3827 -0.0000 0.9239
vn 0.3827 -0.0000 -0.9239
vn -0.3827 -0.0000 -0.9239
vn -0.9239 -0.0000 0.3827
vn 0.9239 -0.0000 0.3827
vn -0.0000 -0.9680 0.2509
vn 0.8177 -0.4672 0.3363
vn 0.7487 -0.6018 -0.2779
vn 0.9986 -0.0000 -0.0534
vn 0.6411 -0.0000 0.7674
vn 0.6851 -0.3824 0.6200
vn 0.7415 -0.0000 0.6710
vn -0.0907 -0.0000 0.9959
vn 0.0484 -0.0000 0.9988
vn -0.8332 -0.4679 0.2946
vn -0.7116 -0.3839 0.5885
vn -0.7706 -0.0000 0.6373
vn -0.9471 -0.0000 0.3210
vn -0.6746 -0.0000 0.7381
vn -0.7358 -0.6009 -0.3122
vn -0.9952 -0.0000 -0.0980
vn -0.8156 -0.4655 -0.3437
vn -0.7524 -0.6017 0.2680
vn -0.9992 -0.0000 0.0412
vn 0.0857 -0.0000 -0.9963
vn 0.7628 -0.0000 -0.6467
vn 0.6619 -0.4970 -0.5611
vn 0.8234 -0.4964 -0.2748
vn 0.9963 -0.0000 0.0858
vn 0.7381 -0.6205 0.2650
vn -0.6681 -0.4983 0.5526
vn -0.8270 -0.4965 0.2638
vn -0.7366 -0.6188 -0.2731
vn -0.6372 -0.0000 -0.7707
vn -0.6822 -0.3816 -0.6237
vn -0.7381 -0.0000 -0.6747
vn -0.0535 -0.0000 -0.9986
vn 0.8293 -0.4677 -0.3059
vn 0.7043 -0.3839 -0.5971
vn 0.0329 -0.7338 0.6785
vn 0.4355 -0.7338 0.5214
vn 0.7377 -0.6026 0.3044
vn -0.8120 -0.4943 -0.3102
vn -0.7505 -0.6192 0.2309
vn 0.7471 -0.6196 -0.2406
vn 0.4522 -0.7337 -0.5071
vn 0.6434 -0.4970 0.5822
vn 0.8138 -0.4962 0.3025
vn 0.0584 -0.7321 -0.6787
vn -0.4579 -0.7344 0.5010
vn -0.4341 -0.7321 -0.5250
vn -0.0616 -0.7338 0.6765
vn -0.0365 -0.7321 -0.6802
vn 0.6656 -0.0000 -0.7463
vn -0.6413 -0.4949 -0.5863
vt 0.774797 0.106275
vt 0.774797 0.106275
vt 0.774797 0.106275
vt 0.774797 0.106275
vt 0.774797 0.106275
vt 0.774797 0.106275
vt 0.774797 0.106275
vt 0.774797 0.106275
vt 0.408951 0.106275
vt 0.408951 0.106275
vt 0.408951 0.106275
vt 0.408951 0.106275
vt 0.408951 0.106275
vt 0.408951 0.106275
vt 0.408951 0.106275
vt 0.408951 0.106275
vt 0.408951 0.106275
vt 0.408951 0.106275
vt 0.408951 0.106275
vt 0.408951 0.106275
vt 0.408951 0.106275
vt 0.408951 0.106275
vt 0.408951 0.106275
vt 0.408951 0.106275
vt 0.408951 0.106275
vt 0.408951 0.106275
vt 0.408951 0.106275
vt 0.408951 0.106275
vt 0.408951 0.106275
vt 0.408951 0.106275
vt 0.408951 0.106275
vt 0.408951 0.106275
vt 0.408951 0.106275
vt 0.408951 0.106275
vt 0.408951 0.106275
vt 0.408951 0.106275
vt 0.408951 0.106275
vt 0.408951 0.106275
vt 0.408951 0.106275
vt 0.408951 0.106275
vt 0.408951 0.106275
vt 0.408951 0.106275
vt 0.408951 0.106275
vt 0.408951 0.106275
vt 0.408951 0.106275
vt 0.408951 0.106275
vt 0.408951 0.106275
vt 0.408951 0.106275
vt 0.408951 0.106275
vt 0.408951 0.106275
vt 0.408951 0.106275
vt 0.408951 0.106275
vt 0.408951 0.106275
vt 0.408951 0.106275
vt 0.408951 0.106275
vt 0.408951 0.106275
vt 0.408951 0.106275
vt 0.408951 0.106275
vt 0.408951 0.106275
vt 0.408951 0.106275
vt 0.408951 0.106275
vt 0.408951 0.106275
vt 0.408951 0.106275
vt 0.408951 0.106275
vt 0.408951 0.106275
vt 0.408951 0.106275
vt 0.408951 0.106275
vt 0.408951 0.106275
vt 0.408951 0.106275
vt 0.408951 0.106275
vt 0.408951 0.106275
vt 0.408951 0.106275
vt 0.408951 0.106275
vt 0.408951 0.106275
vt 0.408951 0.106275
vt 0.408951 0.106275
vt 0.408951 0.106275
vt 0.408951 0.106275
vt 0.408951 0.106275
vt 0.408951 0.106275
vt 0.408951 0.106275
vt 0.408951 0.106275
vt 0.408951 0.106275
vt 0.408951 0.106275
vt 0.408951 0.106275
vt 0.408951 0.106275
vt 0.408951 0.106275
vt 0.408951 0.106275
vt 0.408951 0.106275
vt 0.408951 0.106275
vt 0.408951 0.106275
vt 0.408951 0.106275
vt 0.408951 0.106275
vt 0.408951 0.106275
vt 0.408951 0.106275
vt 0.408951 0.106275
vt 0.408951 0.106275
vt 0.408951 0.106275
vt 0.408951 0.106275
vt 0.408951 0.106275
vt 0.408951 0.106275
vt 0.408951 0.106275
vt 0.408951 0.106275
vt 0.408951 0.106275
vt 0.408951 0.106275
vt 0.408951 0.106275
vt 0.408951 0.106275
vt 0.408951 0.106275
vt 0.408951 0.106275
vt 0.408951 0.106275
vt 0.408951 0.106275
vt 0.408951 0.106275
vt 0.408951 0.106275
vt 0.408951 0.106275
vt 0.408951 0.106275
vt 0.408951 0.106275
vt 0.408951 0.106275
vt 0.408951 0.106275
vt 0.408951 0.106275
vt 0.408951 0.106275
vt 0.743793 0.955782
vt 0.743793 0.955782
vt 0.743793 0.955782
vt 0.743793 0.955782
vt 0.743793 0.955782
vt 0.743793 0.955782
vt 0.743793 0.955782
vt 0.743793 0.955782
vt 0.743793 0.955782
vt 0.743793 0.955782
vt 0.743793 0.955782
vt 0.743793 0.955782
vt 0.743793 0.955782
vt 0.743793 0.955782
vt 0.743793 0.955782
vt 0.743793 0.955782
vt 0.743793 0.955782
vt 0.743793 0.955782
vt 0.743793 0.955782
vt 0.743793 0.955782
vt 0.743793 0.955782
vt 0.743793 0.955782
vt 0.743793 0.955782
vt 0.743793 0.955782
vt 0.743793 0.955782
vt 0.743793 0.955782
vt 0.743793 0.955782
vt 0.743793 0.955782
vt 0.743793 0.955782
vt 0.743793 0.955782
vt 0.743793 0.955782
vt 0.743793 0.955782
vt 0.743793 0.955782
vt 0.743793 0.955782
vt 0.743793 0.955782
vt 0.743793 0.955782
vt 0.743793 0.955782
vt 0.743793 0.955782
vt 0.743793 0.955782
vt 0.743793 0.955782
vt 0.743793 0.955782
vt 0.743793 0.955782
vt 0.743793 0.955782
vt 0.743793 0.955782
vt 0.743793 0.955782
vt 0.743793 0.955782
vt 0.743793 0.955782
vt 0.743793 0.955782
vt 0.743793 0.955782
vt 0.743793 0.955782
vt 0.743793 0.955782
vt 0.743793 0.955782
vt 0.743793 0.955782
vt 0.743793 0.955782
vt 0.743793 0.955782
vt 0.743793 0.955782
vt 0.743793 0.955782
vt 0.743793 0.955782
vt 0.743793 0.955782
vt 0.743793 0.955782
vt 0.743793 0.955782
vt 0.743793 0.955782
vt 0.743793 0.955782
vt 0.743793 0.955782
s 1
usemtl Material
f 1/1/1 2/2/1 4/4/1 3/3/1
f 5/5/2 7/7/2 8/8/2 6/6/2
f 4/4/3 8/8/3 7/7/3 3/3/3
f 3/3/4 7/7/4 5/5/4 1/1/4
f 2/2/5 6/6/5 8/8/5 4/4/5
f 1/1/6 5/5/6 6/6/6 2/2/6
f 9/9/7 17/17/8 24/24/9 16/16/7
f 10/10/6 18/18/10 17/17/11 9/9/12
f 11/11/13 19/19/14 18/18/10 10/10/6
f 12/12/15 20/20/16 19/19/17 11/11/15
f 13/13/18 21/21/19 20/20/20 12/12/18
f 14/14/3 22/22/21 21/21/22 13/13/23
f 15/15/24 23/23/25 22/22/21 14/14/3
f 16/16/26 24/24/27 23/23/28 15/15/26
f 17/17/8 25/25/29 32/32/30 24/24/9
f 18/18/10 26/26/31 25/25/32 17/17/11
f 19/19/14 27/27/33 26/26/31 18/18/10
f 20/20/16 28/28/34 27/27/35 19/19/17
f 21/21/19 29/29/36 28/28/37 20/20/20
f 22/22/21 30/30/38 29/29/39 21/21/22
f 23/23/25 31/31/40 30/30/38 22/22/21
f 24/24/27 32/32/41 31/31/42 23/23/28
f 25/25/29 33/33/43 40/40/44 32/32/30
f 26/26/31 34/34/45 33/33/46 25/25/32
f 27/27/33 35/35/47 34/34/45 26/26/31
f 28/28/34 36/36/48 35/35/49 27/27/35
f 29/29/36 37/37/50 36/36/51 28/28/37
f 30/30/38 38/38/52 37/37/53 29/29/39
f 31/31/40 39/39/54 38/38/52 30/30/38
f 32/32/41 40/40/55 39/39/56 31/31/42
f 33/33/43 41/41/57 48/48/58 40/40/44
f 34/34/45 42/42/59 41/41/60 33/33/46
f 35/35/47 43/43/61 42/42/59 34/34/45
f 36/36/48 44/44/62 43/43/63 35/35/49
f 37/37/50 45/45/64 44/44/65 36/36/51
f 38/38/52 46/46/66 45/45/67 37/37/53
f 39/39/54 47/47/68 46/46/66 38/38/52
f 40/40/55 48/48/69 47/47/70 39/39/56
f 41/41/57 49/49/71 56/56/72 48/48/58
f 42/42/59 50/50/73 49/49/74 41/41/60
f 43/43/61 51/51/75 50/50/73 42/42/59
f 44/44/62 52/52/76 51/51/77 43/43/63
f 45/45/64 53/53/78 52/52/79 44/44/65
f 46/46/66 54/54/80 53/53/81 45/45/67
f 47/47/68 55/55/82 54/54/80 46/46/66
f 48/48/69 56/56/83 55/55/84 47/47/70
f 49/49/71 57/57/85 64/64/86 56/56/72
f 50/50/73 58/58/87 57/57/88 49/49/74
f 51/51/75 59/59/89 58/58/87 50/50/73
f 52/52/76 60/60/90 59/59/91 51/51/77
f 53/53/78 61/61/92 60/60/93 52/52/79
f 54/54/80 62/62/94 61/61/95 53/53/81
f 55/55/82 63/63/96 62/62/94 54/54/80
f 56/56/83 64/64/97 63/63/98 55/55/84
f 57/57/85 65/65/99 72/72/100 64/64/86
f 58/58/87 66/66/101 65/65/102 57/57/88
f 59/59/89 67/67/103 66/66/101 58/58/87
f 60/60/90 68/68/104 67/67/105 59/59/91
f 61/61/92 69/69/106 68/68/107 60/60/93
f 62/62/94 70/70/108 69/69/109 61/61/95
f 63/63/96 71/71/110 70/70/108 62/62/94
f 64/64/97 72/72/111 71/71/112 63/63/98
f 65/65/99 73/73/113 80/80/114 72/72/100
f 66/66/101 74/74/115 73/73/116 65/65/102
f 67/67/103 75/75/117 74/74/115 66/66/101
f 68/68/104 76/76/118 75/75/119 67/67/105
f 69/69/106 77/77/120 76/76/121 68/68/107
f 70/70/108 78/78/122 77/77/123 69/69/109
f 71/71/110 79/79/124 78/78/122 70/70/108
f 72/72/111 80/80/125 79/79/126 71/71/112
f 73/73/113 81/81/127 88/88/128 80/80/114
f 74/74/115 82/82/129 81/81/130 73/73/116
f 75/75/117 83/83/131 82/82/129 74/74/115
f 76/76/118 84/84/132 83/83/133 75/75/119
f 77/77/120 85/85/134 84/84/135 76/76/121
f 78/78/122 86/86/136 85/85/137 77/77/123
f 79/79/124 87/87/138 86/86/136 78/78/122
f 80/80/125 88/88/139 87/87/140 79/79/126
f 81/81/127 89/89/141 96/96/142 88/88/128
f 82/82/129 90/90/143 89/89/144 81/81/130
f 83/83/131 91/91/145 90/90/143 82/82/129
f 84/84/132 92/92/146 91/91/147 83/83/133
f 85/85/134 93/93/148 92/92/149 84/84/135
f 86/86/136 94/94/150 93/93/151 85/85/137
f 87/87/138 95/95/152 94/94/150 86/86/136
f 88/88/139 96/96/153 95/95/154 87/87/140
f 89/89/141 97/97/155 104/104/155 96/96/142
f 90/90/143 98/98/156 97/97/157 89/89/144
f 91/91/145 99/99/158 98/98/156 90/90/143
f 92/92/146 100/100/159 99/99/159 91/91/147
f 93/93/148 101/101/160 100/100/160 92/92/149
f 94/94/150 102/102/161 101/101/162 93/93/151
f 95/95/152 103/103/163 102/102/161 94/94/150
f 96/96/153 104/104/164 103/103/164 95/95/154
f 12/12/1 11/11/1 108/108/1 109/109/1
f 14/14/1 13/13/1 110/110/1 111/111/1
f 9/9/1 16/16/1 106/106/1 105/105/1
f 16/16/1 15/15/1 112/112/1 106/106/1
f 109/109/165 108/108/165 116/116/165 117/117/165
f 112/112/166 111/111/3 119/119/3 120/120/166
f 107/107/6 105/105/167 113/113/167 115/115/6
f 110/110/168 109/109/168 117/117/168 118/118/168
f 106/106/169 112/112/169 120/120/169 114/114/169
f 105/105/170 106/106/170 114/114/170 113/113/170
f 108/108/171 107/107/6 115/115/6 116/116/171
f 111/111/3 110/110/172 118/118/172 119/119/3
f 10/10/1 9/9/1 105/105/1 107/107/1
f 15/15/1 14/14/1 111/111/1 112/112/1
f 113/113/2 114/114/2 120/120/2 119/119/2 118/118/2 117/117/2 116/116/2 115/115/2
f 13/13/1 12/12/1 109/109/1 110/110/1
f 11/11/1 10/10/1 107/107/1 108/108/1
f 104/104/173 97/97/173 98/98/173 99/99/173 100/100/173 101/101/173 102/102/173 103/103/173
f 165/165/174 166/166/175 146/146/176 147/147/176
f 172/172/177 173/173/177 131/131/177 132/132/177
f 164/164/178 165/165/174 147/147/179 148/148/179
f 171/171/180 172/172/180 132/132/180 133/133/180
f 163/163/181 164/164/181 148/148/181 149/149/181
f 170/170/182 171/171/183 133/133/184 134/134/185
f 162/162/186 163/163/186 149/149/186 150/150/186
f 169/169/187 170/170/182 134/134/185 136/136/188
f 161/161/189 162/162/190 150/150/191 152/152/191
f 140/140/180 124/124/180 125/125/180 141/141/180
f 144/144/192 128/128/192 121/121/192 137/137/192
f 137/137/193 121/121/194 122/122/195 138/138/193
f 138/138/196 122/122/195 123/123/197 139/139/196
f 141/141/184 125/125/198 126/126/199 142/142/185
f 142/142/185 126/126/199 127/127/200 143/143/188
f 143/143/201 127/127/201 128/128/201 144/144/201
f 139/139/177 123/123/177 124/124/177 140/140/177
f 175/175/201 169/169/201 136/136/201 135/135/201
f 176/176/192 175/175/192 135/135/192 129/129/192
f 167/167/202 161/161/189 152/152/203 151/151/203
f 168/168/204 167/167/204 151/151/204 145/145/204
f 174/174/205 176/176/206 129/129/193 130/130/193
f 151/151/1 152/152/1 150/150/1 149/149/1 148/148/1 147/147/1 146/146/1 145/145/1
f 135/135/1 136/136/1 134/134/1 133/133/1 132/132/1 131/131/1 130/130/1 129/129/1
f 122/122/195 121/121/194 176/176/206 174/174/205
f 157/157/207 156/156/207 164/164/207 163/163/207
f 124/124/208 123/123/197 173/173/209 172/172/208
f 159/159/210 158/158/211 162/162/190 161/161/189
f 154/154/212 153/153/213 168/168/213 166/166/175
f 126/126/199 125/125/198 171/171/183 170/170/182
f 156/156/214 155/155/215 165/165/174 164/164/178
f 121/121/216 128/128/216 175/175/216 176/176/216
f 123/123/197 122/122/195 174/174/205 173/173/209
f 158/158/211 157/157/217 163/163/217 162/162/190
f 128/128/218 127/127/200 169/169/187 175/175/218
f 125/125/219 124/124/219 172/172/219 171/171/219
f 153/153/220 160/160/220 167/167/220 168/168/220
f 155/155/215 154/154/212 166/166/175 165/165/174
f 166/166/221 168/168/221 145/145/221 146/146/221
f 173/173/209 174/174/205 130/130/196 131/131/196
f 127/127/200 126/126/199 170/170/182 169/169/187
f 160/160/222 159/159/210 161/161/189 167/167/202
f 180/180/181 156/156/181 157/157/181 181/181/181
f 184/184/204 160/160/204 153/153/204 177/177/204
f 177/177/221 153/153/221 154/154/221 178/178/221
f 178/178/176 154/154/212 155/155/215 179/179/176
f 181/181/186 157/157/186 158/158/186 182/182/186
f 182/182/191 158/158/211 159/159/210 183/183/191
f 183/183/203 159/159/210 160/160/222 184/184/203
f 179/179/179 155/155/215 156/156/214 180/180/179
