# Blender 3.4.1
# www.blender.org
mtllib floorlamp015.mtl
o floor_lamp.014
v -0.049368 1.038379 0.282072
v -0.049368 -0.175229 0.282071
v 0.062068 1.038379 0.279640
v 0.062068 -0.175229 0.279639
v 0.164091 1.038379 0.234749
v 0.164091 -0.175229 0.234748
v 0.241169 1.038379 0.154233
v 0.241169 -0.175229 0.154232
v 0.281567 1.038379 0.050349
v 0.281568 -0.175229 0.050348
v 0.279136 1.038380 -0.061088
v 0.279136 -0.175229 -0.061088
v 0.234245 1.038380 -0.163111
v 0.234245 -0.175229 -0.163112
v 0.153728 1.038380 -0.240188
v 0.153728 -0.175229 -0.240189
v 0.049844 1.038380 -0.280587
v 0.049844 -0.175229 -0.280588
v -0.061592 1.038380 -0.278155
v -0.061592 -0.175229 -0.278156
v -0.163615 1.038380 -0.233264
v -0.163615 -0.175229 -0.233265
v -0.240693 1.038380 -0.152747
v -0.240693 -0.175229 -0.152748
v -0.281091 1.038379 -0.048863
v -0.281091 -0.175229 -0.048864
v -0.278660 1.038379 0.062573
v -0.278659 -0.175229 0.062572
v -0.233769 1.038379 0.164596
v -0.233768 -0.175229 0.164595
v -0.153252 1.038379 0.241674
v -0.153252 -0.175229 0.241673
v -0.051810 1.038379 0.295919
v 0.065112 1.038379 0.293368
v 0.065112 -0.175229 0.293367
v -0.051809 -0.175229 0.295918
v 0.172156 1.038379 0.246267
v 0.172157 -0.175229 0.246266
v 0.253028 1.038379 0.161788
v 0.253028 -0.175229 0.161787
v 0.295415 1.038379 0.052790
v 0.295415 -0.175229 0.052789
v 0.292864 1.038380 -0.064131
v 0.292864 -0.175229 -0.064132
v 0.245763 1.038380 -0.171176
v 0.245763 -0.175229 -0.171177
v 0.161283 1.038380 -0.252047
v 0.161283 -0.175229 -0.252048
v 0.052286 1.038380 -0.294434
v 0.052286 -0.175229 -0.294435
v -0.064635 1.038380 -0.291883
v -0.064635 -0.175229 -0.291884
v -0.171680 1.038380 -0.244782
v -0.171680 -0.175229 -0.244783
v -0.252552 1.038380 -0.160302
v -0.252552 -0.175229 -0.160303
v -0.294939 1.038379 -0.051305
v -0.294939 -0.175229 -0.051306
v -0.292387 1.038379 0.065616
v -0.292387 -0.175229 0.065615
v -0.245287 1.038379 0.172661
v -0.245287 -0.175229 0.172660
v -0.160807 1.038379 0.253533
v -0.160807 -0.175229 0.253532
v -0.049440 -0.137185 0.282058
v 0.061996 -0.137185 0.279626
v 0.164019 -0.137185 0.234735
v 0.241097 -0.137185 0.154219
v 0.281496 -0.137185 0.050335
v 0.279064 -0.137185 -0.061101
v 0.234173 -0.137185 -0.163124
v 0.153656 -0.137185 -0.240202
v 0.049772 -0.137184 -0.280601
v -0.061664 -0.137185 -0.278169
v -0.163687 -0.137185 -0.233278
v -0.240765 -0.137185 -0.152761
v -0.281163 -0.137185 -0.048877
v -0.278732 -0.137185 0.062559
v -0.233840 -0.137185 0.164582
v -0.153324 -0.137185 0.241660
v 0.061996 -0.142654 0.279626
v -0.049440 -0.142654 0.282058
v 0.164019 -0.142654 0.234735
v 0.241097 -0.142654 0.154219
v 0.281496 -0.142654 0.050335
v 0.279064 -0.142654 -0.061101
v 0.234173 -0.142653 -0.163124
v 0.153656 -0.142653 -0.240202
v 0.049772 -0.142653 -0.280601
v -0.061664 -0.142653 -0.278169
v -0.163687 -0.142653 -0.233278
v -0.240765 -0.142654 -0.152761
v -0.281163 -0.142654 -0.048877
v -0.278732 -0.142654 0.062559
v -0.233840 -0.142654 0.164582
v -0.153324 -0.142654 0.241660
v -0.011580 -0.131879 0.281217
v -0.011580 -0.152809 0.281217
v 0.023993 -0.131879 0.280441
v 0.023993 -0.152809 0.280441
v 0.280596 -0.134042 0.012390
v 0.280596 -0.154972 0.012390
v 0.279820 -0.134042 -0.023183
v 0.279820 -0.154972 -0.023183
v 0.011768 -0.131878 -0.279786
v 0.011768 -0.152808 -0.279786
v -0.023804 -0.131878 -0.279010
v -0.023804 -0.152808 -0.279010
v -0.280407 -0.134042 -0.010958
v -0.280407 -0.154972 -0.010958
v -0.279631 -0.134042 0.024614
v -0.279631 -0.154972 0.024614
v -0.051810 0.988311 0.295919
v 0.065112 0.988311 0.293368
v 0.172156 0.988311 0.246267
v 0.253028 0.988311 0.161788
v 0.295415 0.988311 0.052790
v 0.292864 0.988311 -0.064131
v 0.245763 0.988311 -0.171176
v 0.161283 0.988311 -0.252047
v 0.052286 0.988311 -0.294434
v -0.064635 0.988311 -0.291883
v -0.171680 0.988311 -0.244782
v -0.252552 0.988311 -0.160303
v -0.294939 0.988311 -0.051305
v -0.292387 0.988311 0.065616
v -0.245287 0.988311 0.172661
v -0.160807 0.988311 0.253533
v -0.051809 -0.105179 0.295919
v 0.065112 -0.105179 0.293367
v 0.172157 -0.105179 0.246266
v 0.253028 -0.105179 0.161787
v 0.295415 -0.105178 0.052789
v 0.292864 -0.105178 -0.064132
v 0.245763 -0.105178 -0.171177
v 0.161283 -0.105178 -0.252048
v 0.052286 -0.105178 -0.294435
v -0.064635 -0.105178 -0.291884
v -0.171680 -0.105178 -0.244783
v -0.252552 -0.105178 -0.160303
v -0.294939 -0.105178 -0.051306
v -0.292387 -0.105179 0.065615
v -0.245287 -0.105179 0.172660
v -0.160807 -0.105179 0.253532
v -0.293580 0.403215 0.015731
v -0.314463 0.403215 0.015731
v -0.324905 0.403215 -0.002511
v -0.314463 0.403215 -0.020752
v -0.293580 0.403215 -0.020752
v -0.283138 0.403215 -0.002511
v -0.293580 -2.469189 0.015731
v -0.314463 -2.469189 0.015731
v -0.324905 -2.469189 -0.002511
v -0.314463 -2.469189 -0.020752
v -0.293580 -2.469189 -0.020752
v -0.283138 -2.469189 -0.002511
v 0.313045 0.403215 0.015752
v 0.292161 0.403215 0.015752
v 0.281719 0.403215 -0.002490
v 0.292161 0.403215 -0.020732
v 0.313045 0.403215 -0.020732
v 0.323486 0.403215 -0.002490
v 0.313045 -2.469189 0.015751
v 0.292161 -2.469189 0.015751
v 0.281719 -2.469189 -0.002490
v 0.292161 -2.469189 -0.020732
v 0.313045 -2.469189 -0.020732
v 0.323486 -2.469189 -0.002490
v 0.017423 0.403215 0.290250
v 0.017423 0.403215 0.311134
v -0.000819 0.403215 0.321575
v -0.019061 0.403215 0.311134
v -0.019061 0.403215 0.290250
v -0.000819 0.403215 0.279809
v 0.017423 -2.469189 0.290250
v 0.017423 -2.469189 0.311134
v -0.000819 -2.469189 0.321575
v -0.019061 -2.469189 0.311134
v -0.019061 -2.469189 0.290250
v -0.000819 -2.469189 0.279808
v 0.017376 0.403215 -0.316311
v 0.017376 0.403215 -0.295428
v -0.000865 0.403215 -0.284986
v -0.019107 0.403215 -0.295428
v -0.019107 0.403215 -0.316311
v -0.000865 0.403215 -0.326753
v 0.017376 -2.469189 -0.316311
v 0.017376 -2.469189 -0.295428
v -0.000865 -2.469189 -0.284986
v -0.019107 -2.469189 -0.295428
v -0.019107 -2.469189 -0.316311
v -0.000865 -2.469189 -0.326753
v -0.011612 -2.246921 0.281211
v -0.011612 -2.267851 0.281211
v 0.023961 -2.246921 0.280435
v 0.023961 -2.267851 0.280435
v 0.280564 -2.249085 0.012383
v 0.280564 -2.270015 0.012383
v 0.279788 -2.249085 -0.023189
v 0.279788 -2.270015 -0.023189
v 0.011736 -2.246921 -0.279792
v 0.011736 -2.267851 -0.279792
v -0.023836 -2.246921 -0.279016
v -0.023836 -2.267851 -0.279016
v -0.280439 -2.249085 -0.010965
v -0.280439 -2.270015 -0.010965
v -0.279663 -2.249085 0.024608
v -0.279663 -2.270015 0.024608
v -0.011612 -1.936361 0.281211
v -0.011612 -1.957291 0.281211
v 0.023961 -1.936361 0.280435
v 0.023961 -1.957291 0.280435
v 0.280564 -1.938525 0.012384
v 0.280564 -1.959455 0.012384
v 0.279788 -1.938525 -0.023189
v 0.279788 -1.959455 -0.023189
v 0.011736 -1.936361 -0.279792
v 0.011736 -1.957291 -0.279792
v -0.023836 -1.936361 -0.279016
v -0.023836 -1.957291 -0.279016
v -0.280439 -1.938525 -0.010965
v -0.280439 -1.959455 -0.010965
v -0.279663 -1.938525 0.024608
v -0.279663 -1.959455 0.024608
vn -0.1736 -0.0000 0.9848
vn 0.2164 -0.0000 0.9763
vn 0.5736 -0.0000 0.8192
vn 0.8434 -0.0000 0.5373
vn 0.9848 -0.0000 0.1736
vn 0.9763 -0.0000 -0.2164
vn 0.8192 -0.0000 -0.5736
vn 0.5373 -0.0000 -0.8434
vn 0.1736 -0.0000 -0.9848
vn -0.2164 -0.0000 -0.9763
vn -0.5736 -0.0000 -0.8192
vn -0.8434 -0.0000 -0.5373
vn -0.9848 -0.0000 -0.1736
vn -0.9763 -0.0000 0.2164
vn -0.8192 -0.0000 0.5736
vn -0.5373 -0.0000 0.8434
vn -0.0000 1.0000 -0.0000
vn -0.0000 -1.0000 -0.0000
vn -0.9998 -0.0000 0.0218
vn -0.0218 -0.0000 -0.9998
vn 0.9998 -0.0000 -0.0218
vn 0.0218 -0.0000 0.9998
vn 0.8679 -0.0000 0.4968
vn -0.0000 -0.0000 -1.0000
vn -0.8679 -0.0000 0.4968
vn -0.8679 -0.0000 -0.4968
vn 0.8679 -0.0000 -0.4968
vn -0.0000 -0.0000 1.0000
vn 0.4968 -0.0000 -0.8679
vn -1.0000 -0.0000 -0.0000
vn 0.4968 -0.0000 0.8679
vn -0.4968 -0.0000 0.8679
vn -0.4968 -0.0000 -0.8679
vn 1.0000 -0.0000 -0.0000
vt 0.452996 0.877535
vt 0.471598 0.936443
vt 0.456097 0.858933
vt 0.471598 0.936443
vt 0.452996 0.877535
vt 0.471598 0.936443
vt 0.456097 0.858933
vt 0.471598 0.936443
vt 0.452996 0.877535
vt 0.471598 0.936443
vt 0.456097 0.858933
vt 0.471598 0.936443
vt 0.452996 0.877535
vt 0.471598 0.936443
vt 0.456097 0.858933
vt 0.471598 0.936443
vt 0.452996 0.877535
vt 0.471598 0.936443
vt 0.456097 0.858933
vt 0.471598 0.936443
vt 0.452996 0.877535
vt 0.471598 0.936443
vt 0.456097 0.858933
vt 0.471598 0.936443
vt 0.452996 0.877535
vt 0.471598 0.936443
vt 0.456097 0.858933
vt 0.471598 0.936443
vt 0.452996 0.877535
vt 0.471598 0.936443
vt 0.456097 0.858933
vt 0.471598 0.936443
vt 0.452996 0.877535
vt 0.471598 0.936443
vt 0.456097 0.858933
vt 0.471598 0.936443
vt 0.452996 0.877535
vt 0.471598 0.936443
vt 0.456097 0.858933
vt 0.471598 0.936443
vt 0.452996 0.877535
vt 0.471598 0.936443
vt 0.456097 0.858933
vt 0.471598 0.936443
vt 0.452996 0.877535
vt 0.471598 0.936443
vt 0.456097 0.858933
vt 0.471598 0.936443
vt 0.452996 0.877535
vt 0.471598 0.936443
vt 0.456097 0.858933
vt 0.471598 0.936443
vt 0.452996 0.877535
vt 0.471598 0.936443
vt 0.456097 0.858933
vt 0.471598 0.936443
vt 0.452996 0.877535
vt 0.471598 0.936443
vt 0.456097 0.858933
vt 0.471598 0.936443
vt 0.471598 0.936443
vt 0.452996 0.877535
vt 0.471598 0.936443
vt 0.456097 0.858933
vt 0.452996 0.877535
vt 0.459197 0.880636
vt 0.452996 0.877535
vt 0.459197 0.880636
vt 0.459197 0.862033
vt 0.456097 0.858933
vt 0.459197 0.862033
vt 0.456097 0.858933
vt 0.452996 0.877535
vt 0.459197 0.880636
vt 0.459197 0.862033
vt 0.456097 0.858933
vt 0.452996 0.877535
vt 0.459197 0.880636
vt 0.459197 0.862033
vt 0.456097 0.858933
vt 0.452996 0.877535
vt 0.459197 0.880636
vt 0.459197 0.862033
vt 0.456097 0.858933
vt 0.452996 0.877535
vt 0.459197 0.880636
vt 0.459197 0.862033
vt 0.456097 0.858933
vt 0.452996 0.877535
vt 0.459197 0.880636
vt 0.459197 0.862033
vt 0.456097 0.858933
vt 0.452996 0.877535
vt 0.459197 0.880636
vt 0.459197 0.862033
vt 0.456097 0.858933
vt 0.452996 0.877535
vt 0.459197 0.880636
vt 0.459197 0.862033
vt 0.456097 0.858933
vt 0.452996 0.877535
vt 0.459197 0.880636
vt 0.459197 0.862033
vt 0.456097 0.858933
vt 0.452996 0.877535
vt 0.459197 0.880636
vt 0.459197 0.862033
vt 0.456097 0.858933
vt 0.452996 0.877535
vt 0.459197 0.880636
vt 0.459197 0.862033
vt 0.456097 0.858933
vt 0.452996 0.877535
vt 0.459197 0.880636
vt 0.459197 0.862033
vt 0.456097 0.858933
vt 0.452996 0.877535
vt 0.459197 0.880636
vt 0.459197 0.862033
vt 0.456097 0.858933
vt 0.452996 0.877535
vt 0.459197 0.880636
vt 0.459197 0.862033
vt 0.456097 0.858933
vt 0.452996 0.877535
vt 0.459197 0.880636
vt 0.459197 0.862033
vt 0.456097 0.858933
vt 0.471598 0.936443
vt 0.471598 0.936443
vt 0.471598 0.936443
vt 0.471598 0.936443
vt 0.471598 0.936443
vt 0.471598 0.936443
vt 0.471598 0.936443
vt 0.471598 0.936443
vt 0.471598 0.936443
vt 0.471598 0.936443
vt 0.471598 0.936443
vt 0.471598 0.936443
vt 0.471598 0.936443
vt 0.471598 0.936443
vt 0.471598 0.936443
vt 0.471598 0.936443
vt 0.471598 0.936443
vt 0.471598 0.936443
vt 0.471598 0.936443
vt 0.471598 0.936443
vt 0.471598 0.936443
vt 0.471598 0.936443
vt 0.471598 0.936443
vt 0.471598 0.936443
vt 0.471598 0.936443
vt 0.471598 0.936443
vt 0.471598 0.936443
vt 0.471598 0.936443
vt 0.471598 0.936443
vt 0.471598 0.936443
vt 0.471598 0.936443
vt 0.471598 0.936443
vt 0.688626 0.105537
vt 0.688626 0.105537
vt 0.688626 0.105537
vt 0.688626 0.105537
vt 0.688626 0.105537
vt 0.688626 0.105537
vt 0.688626 0.105537
vt 0.688626 0.105537
vt 0.688626 0.105537
vt 0.688626 0.105537
vt 0.688626 0.105537
vt 0.688626 0.105537
vt 0.688626 0.105537
vt 0.688626 0.105537
vt 0.688626 0.105537
vt 0.688626 0.105537
vt 0.459197 0.880636
vt 0.471598 0.936443
vt 0.459197 0.880636
vt 0.471598 0.936443
vt 0.459197 0.880636
vt 0.471598 0.936443
vt 0.459197 0.880636
vt 0.471598 0.936443
vt 0.459197 0.880636
vt 0.471598 0.936443
vt 0.459197 0.880636
vt 0.471598 0.936443
vt 0.459197 0.880636
vt 0.471598 0.936443
vt 0.459197 0.880636
vt 0.471598 0.936443
vt 0.459197 0.880636
vt 0.471598 0.936443
vt 0.459197 0.880636
vt 0.471598 0.936443
vt 0.459197 0.880636
vt 0.471598 0.936443
vt 0.459197 0.880636
vt 0.471598 0.936443
vt 0.459197 0.880636
vt 0.471598 0.936443
vt 0.459197 0.880636
vt 0.471598 0.936443
vt 0.459197 0.880636
vt 0.471598 0.936443
vt 0.459197 0.880636
vt 0.471598 0.936443
vt 0.459197 0.862033
vt 0.471598 0.936443
vt 0.459197 0.862033
vt 0.471598 0.936443
vt 0.459197 0.862033
vt 0.471598 0.936443
vt 0.459197 0.862033
vt 0.471598 0.936443
vt 0.459197 0.862033
vt 0.471598 0.936443
vt 0.459197 0.862033
vt 0.471598 0.936443
vt 0.459197 0.862033
vt 0.471598 0.936443
vt 0.459197 0.862033
vt 0.471598 0.936443
vt 0.459197 0.862033
vt 0.471598 0.936443
vt 0.459197 0.862033
vt 0.471598 0.936443
vt 0.459197 0.862033
vt 0.471598 0.936443
vt 0.459197 0.862033
vt 0.471598 0.936443
vt 0.459197 0.862033
vt 0.471598 0.936443
vt 0.459197 0.862033
vt 0.471598 0.936443
vt 0.459197 0.862033
vt 0.471598 0.936443
vt 0.459197 0.862033
vt 0.471598 0.936443
vt 0.437494 0.093136
vt 0.437494 0.093136
vt 0.437494 0.093136
vt 0.437494 0.093136
vt 0.437494 0.093136
vt 0.437494 0.093136
vt 0.437494 0.093136
vt 0.437494 0.093136
vt 0.437494 0.093136
vt 0.437494 0.093136
vt 0.437494 0.093136
vt 0.437494 0.093136
vt 0.437494 0.093136
vt 0.437494 0.093136
vt 0.437494 0.093136
vt 0.437494 0.093136
vt 0.437494 0.093136
vt 0.437494 0.093136
vt 0.437494 0.093136
vt 0.437494 0.093136
vt 0.437494 0.093136
vt 0.437494 0.093136
vt 0.437494 0.093136
vt 0.437494 0.093136
vt 0.437494 0.093136
vt 0.437494 0.093136
vt 0.437494 0.093136
vt 0.437494 0.093136
vt 0.437494 0.093136
vt 0.437494 0.093136
vt 0.437494 0.093136
vt 0.437494 0.093136
vt 0.437494 0.093136
vt 0.437494 0.093136
vt 0.437494 0.093136
vt 0.437494 0.093136
vt 0.437494 0.093136
vt 0.437494 0.093136
vt 0.437494 0.093136
vt 0.437494 0.093136
vt 0.437494 0.093136
vt 0.437494 0.093136
vt 0.437494 0.093136
vt 0.437494 0.093136
vt 0.437494 0.093136
vt 0.437494 0.093136
vt 0.437494 0.093136
vt 0.437494 0.093136
vt 0.437494 0.093136
vt 0.437494 0.093136
vt 0.437494 0.093136
vt 0.437494 0.093136
vt 0.437494 0.093136
vt 0.437494 0.093136
vt 0.437494 0.093136
vt 0.437494 0.093136
vt 0.437494 0.093136
vt 0.437494 0.093136
vt 0.437494 0.093136
vt 0.437494 0.093136
vt 0.437494 0.093136
vt 0.437494 0.093136
vt 0.437494 0.093136
vt 0.437494 0.093136
vt 0.437494 0.093136
vt 0.437494 0.093136
vt 0.437494 0.093136
vt 0.437494 0.093136
vt 0.437494 0.093136
vt 0.437494 0.093136
vt 0.437494 0.093136
vt 0.437494 0.093136
vt 0.437494 0.093136
vt 0.437494 0.093136
vt 0.437494 0.093136
vt 0.437494 0.093136
vt 0.437494 0.093136
vt 0.437494 0.093136
vt 0.437494 0.093136
vt 0.437494 0.093136
s 1
usemtl Material
f 129/209/1 36/71/1 35/69/2 130/211/2
f 130/211/2 35/69/2 38/75/3 131/213/3
f 131/213/3 38/75/3 40/79/4 132/215/4
f 132/215/4 40/79/4 42/83/5 133/217/5
f 133/217/5 42/83/5 44/87/6 134/219/6
f 134/219/6 44/87/6 46/91/7 135/221/7
f 135/221/7 46/91/7 48/95/8 136/223/8
f 136/223/8 48/95/8 50/99/9 137/225/9
f 137/225/9 50/99/9 52/103/10 138/227/10
f 138/227/10 52/103/10 54/107/11 139/229/11
f 139/229/11 54/107/11 56/111/12 140/231/12
f 140/231/12 56/111/12 58/115/13 141/233/13
f 141/233/13 58/115/13 60/119/14 142/235/14
f 142/235/14 60/119/14 62/123/15 143/237/15
f 32/63/8 30/60/7 29/58/7 31/61/8
f 143/237/15 62/123/15 64/127/16 144/239/16
f 144/239/16 64/127/16 36/71/1 129/209/1
f 2/4/9 32/63/8 31/61/8 1/2/9
f 3/5/17 1/1/17 33/65/17 34/67/17
f 2/3/18 4/7/18 35/70/18 36/72/18
f 5/9/17 3/5/17 34/67/17 37/73/17
f 4/7/18 6/11/18 38/76/18 35/70/18
f 7/13/17 5/9/17 37/73/17 39/77/17
f 6/11/18 8/15/18 40/80/18 38/76/18
f 9/17/17 7/13/17 39/77/17 41/81/17
f 8/15/18 10/19/18 42/84/18 40/80/18
f 11/21/17 9/17/17 41/81/17 43/85/17
f 10/19/18 12/23/18 44/88/18 42/84/18
f 13/25/17 11/21/17 43/85/17 45/89/17
f 12/23/18 14/27/18 46/92/18 44/88/18
f 15/29/17 13/25/17 45/89/17 47/93/17
f 14/27/18 16/31/18 48/96/18 46/92/18
f 17/33/17 15/29/17 47/93/17 49/97/17
f 16/31/18 18/35/18 50/100/18 48/96/18
f 19/37/17 17/33/17 49/97/17 51/101/17
f 18/35/18 20/39/18 52/104/18 50/100/18
f 21/41/17 19/37/17 51/101/17 53/105/17
f 20/39/18 22/43/18 54/108/18 52/104/18
f 23/45/17 21/41/17 53/105/17 55/109/17
f 22/43/18 24/47/18 56/112/18 54/108/18
f 25/49/17 23/45/17 55/109/17 57/113/17
f 24/47/18 26/51/18 58/116/18 56/112/18
f 27/53/17 25/49/17 57/113/17 59/117/17
f 26/51/18 28/55/18 60/120/18 58/116/18
f 29/57/17 27/53/17 59/117/17 61/121/17
f 28/55/18 30/59/18 62/124/18 60/120/18
f 31/62/17 29/57/17 61/121/17 63/125/17
f 30/59/18 32/64/18 64/128/18 62/124/18
f 1/1/17 31/62/17 63/125/17 33/65/17
f 32/64/18 2/3/18 36/72/18 64/128/18
f 30/60/7 28/56/6 27/54/6 29/58/7
f 28/56/6 26/52/5 25/50/5 27/54/6
f 26/52/5 24/48/4 23/46/4 25/50/5
f 24/48/4 22/44/3 21/42/3 23/46/4
f 22/44/3 20/40/2 19/38/2 21/42/3
f 20/40/2 18/36/1 17/34/1 19/38/2
f 18/36/1 16/32/16 15/30/16 17/34/1
f 16/32/16 14/28/15 13/26/15 15/30/16
f 14/28/15 12/24/14 11/22/14 13/26/15
f 12/24/14 10/20/13 9/18/13 11/22/14
f 10/20/13 8/16/12 7/14/12 9/18/13
f 8/16/12 6/12/11 5/10/11 7/14/12
f 6/12/11 4/8/10 3/6/10 5/10/11
f 4/8/10 2/4/9 1/2/9 3/6/10
f 66/130/17 67/131/17 68/132/17 69/133/17 70/134/17 71/135/17 72/136/17 73/137/17 74/138/17 75/139/17 76/140/17 77/141/17 78/142/17 79/143/17 80/144/17 65/129/17
f 81/145/18 82/146/18 96/160/18 95/159/18 94/158/18 93/157/18 92/156/18 91/155/18 90/154/18 89/153/18 88/152/18 87/151/18 86/150/18 85/149/18 84/148/18 83/147/18
f 72/136/8 88/152/8 89/153/9 73/137/9
f 65/129/1 82/146/1 81/145/2 66/130/2
f 80/144/16 96/160/16 82/146/1 65/129/1
f 73/137/9 89/153/9 90/154/10 74/138/10
f 66/130/2 81/145/2 83/147/3 67/131/3
f 74/138/10 90/154/10 91/155/11 75/139/11
f 67/131/3 83/147/3 84/148/4 68/132/4
f 75/139/11 91/155/11 92/156/12 76/140/12
f 68/132/4 84/148/4 85/149/5 69/133/5
f 76/140/12 92/156/12 93/157/13 77/141/13
f 69/133/5 85/149/5 86/150/6 70/134/6
f 77/141/13 93/157/13 94/158/14 78/142/14
f 70/134/6 86/150/6 87/151/7 71/135/7
f 78/142/14 94/158/14 95/159/15 79/143/15
f 71/135/7 87/151/7 88/152/8 72/136/8
f 79/143/15 95/159/15 96/160/16 80/144/16
f 112/176/19 111/175/19 109/173/19 110/174/19
f 108/172/20 107/171/20 105/169/20 106/170/20
f 104/168/21 103/167/21 101/165/21 102/166/21
f 100/164/22 99/163/22 97/161/22 98/162/22
f 109/173/20 103/167/20 104/168/20 110/174/20
f 110/174/18 104/168/18 102/166/18 112/176/18
f 112/176/22 102/166/22 101/165/22 111/175/22
f 111/175/17 101/165/17 103/167/17 109/173/17
f 105/169/21 99/163/21 100/164/21 106/170/21
f 106/170/18 100/164/18 98/162/18 108/172/18
f 108/172/19 98/162/19 97/161/19 107/171/19
f 107/171/17 97/161/17 99/163/17 105/169/17
f 63/126/16 128/207/16 113/177/1 33/66/1
f 61/122/15 127/205/15 128/207/16 63/126/16
f 59/118/14 126/203/14 127/205/15 61/122/15
f 57/114/13 125/201/13 126/203/14 59/118/14
f 55/110/12 124/199/12 125/201/13 57/114/13
f 53/106/11 123/197/11 124/199/12 55/110/12
f 51/102/10 122/195/10 123/197/11 53/106/11
f 49/98/9 121/193/9 122/195/10 51/102/10
f 47/94/8 120/191/8 121/193/9 49/98/9
f 45/90/7 119/189/7 120/191/8 47/94/8
f 43/86/6 118/187/6 119/189/7 45/90/7
f 41/82/5 117/185/5 118/187/6 43/86/6
f 39/78/4 116/183/4 117/185/5 41/82/5
f 37/74/3 115/181/3 116/183/4 39/78/4
f 34/68/2 114/179/2 115/181/3 37/74/3
f 33/66/1 113/177/1 114/179/2 34/68/2
f 128/208/16 144/240/16 129/210/1 113/178/1
f 127/206/15 143/238/15 144/240/16 128/208/16
f 126/204/14 142/236/14 143/238/15 127/206/15
f 125/202/13 141/234/13 142/236/14 126/204/14
f 124/200/12 140/232/12 141/234/13 125/202/13
f 123/198/11 139/230/11 140/232/12 124/200/12
f 122/196/10 138/228/10 139/230/11 123/198/11
f 121/194/9 137/226/9 138/228/10 122/196/10
f 120/192/8 136/224/8 137/226/9 121/194/9
f 119/190/7 135/222/7 136/224/8 120/192/8
f 118/188/6 134/220/6 135/222/7 119/190/7
f 117/186/5 133/218/5 134/220/6 118/188/6
f 116/184/4 132/216/4 133/218/5 117/186/5
f 115/182/3 131/214/3 132/216/4 116/184/4
f 114/180/2 130/212/2 131/214/3 115/182/3
f 113/178/1 129/210/1 130/212/2 114/180/2
f 145/241/23 151/247/23 156/252/23 150/246/23
f 150/246/17 149/245/17 148/244/17 147/243/17 146/242/17 145/241/17
f 149/245/24 155/251/24 154/250/24 148/244/24
f 147/243/25 153/249/25 152/248/25 146/242/25
f 148/244/26 154/250/26 153/249/26 147/243/26
f 150/246/27 156/252/27 155/251/27 149/245/27
f 146/242/28 152/248/28 151/247/28 145/241/28
f 156/252/18 151/247/18 152/248/18 153/249/18 154/250/18 155/251/18
f 157/253/23 163/259/23 168/264/23 162/258/23
f 162/258/17 161/257/17 160/256/17 159/255/17 158/254/17 157/253/17
f 161/257/24 167/263/24 166/262/24 160/256/24
f 159/255/25 165/261/25 164/260/25 158/254/25
f 160/256/26 166/262/26 165/261/26 159/255/26
f 162/258/27 168/264/27 167/263/27 161/257/27
f 158/254/28 164/260/28 163/259/28 157/253/28
f 168/264/18 163/259/18 164/260/18 165/261/18 166/262/18 167/263/18
f 169/265/29 175/271/29 180/276/29 174/270/29
f 174/270/17 173/269/17 172/268/17 171/267/17 170/266/17 169/265/17
f 173/269/30 179/275/30 178/274/30 172/268/30
f 171/267/31 177/273/31 176/272/31 170/266/31
f 172/268/32 178/274/32 177/273/32 171/267/32
f 174/270/33 180/276/33 179/275/33 173/269/33
f 170/266/34 176/272/34 175/271/34 169/265/34
f 180/276/18 175/271/18 176/272/18 177/273/18 178/274/18 179/275/18
f 181/277/29 187/283/29 192/288/29 186/282/29
f 186/282/17 185/281/17 184/280/17 183/279/17 182/278/17 181/277/17
f 185/281/30 191/287/30 190/286/30 184/280/30
f 183/279/31 189/285/31 188/284/31 182/278/31
f 184/280/32 190/286/32 189/285/32 183/279/32
f 186/282/33 192/288/33 191/287/33 185/281/33
f 182/278/34 188/284/34 187/283/34 181/277/34
f 192/288/18 187/283/18 188/284/18 189/285/18 190/286/18 191/287/18
f 208/304/19 207/303/19 205/301/19 206/302/19
f 204/300/20 203/299/20 201/297/20 202/298/20
f 200/296/21 199/295/21 197/293/21 198/294/21
f 196/292/22 195/291/22 193/289/22 194/290/22
f 205/301/20 199/295/20 200/296/20 206/302/20
f 206/302/18 200/296/18 198/294/18 208/304/18
f 208/304/22 198/294/22 197/293/22 207/303/22
f 207/303/17 197/293/17 199/295/17 205/301/17
f 201/297/21 195/291/21 196/292/21 202/298/21
f 202/298/18 196/292/18 194/290/18 204/300/18
f 204/300/19 194/290/19 193/289/19 203/299/19
f 203/299/17 193/289/17 195/291/17 201/297/17
f 224/320/19 223/319/19 221/317/19 222/318/19
f 220/316/20 219/315/20 217/313/20 218/314/20
f 216/312/21 215/311/21 213/309/21 214/310/21
f 212/308/22 211/307/22 209/305/22 210/306/22
f 221/317/20 215/311/20 216/312/20 222/318/20
f 222/318/18 216/312/18 214/310/18 224/320/18
f 224/320/22 214/310/22 213/309/22 223/319/22
f 223/319/17 213/309/17 215/311/17 221/317/17
f 217/313/21 211/307/21 212/308/21 218/314/21
f 218/314/18 212/308/18 210/306/18 220/316/18
f 220/316/19 210/306/19 209/305/19 219/315/19
f 219/315/17 209/305/17 211/307/17 217/313/17
