# Blender 3.4.1
# www.blender.org
mtllib floorlamp017.mtl
o floor_lamp.016
v -0.034165 0.858763 0.015434
v -0.001786 0.858763 0.038920
v 0.034743 0.858763 0.022622
v 0.038894 0.858763 -0.017162
v 0.006515 0.858763 -0.040648
v -0.030014 0.858763 -0.024350
v -0.034165 0.814535 0.015434
v -0.001786 0.814535 0.038920
v 0.034743 0.814535 0.022622
v 0.038894 0.814535 -0.017162
v 0.006515 0.814535 -0.040648
v -0.030014 0.814535 -0.024350
v -0.073979 0.765831 0.033197
v -0.065306 0.765831 -0.049949
v -0.006309 0.765831 0.082282
v 0.070035 0.765831 0.048221
v 0.078708 0.765831 -0.034926
v 0.011038 0.765831 -0.084011
v -0.101063 0.589542 0.045281
v -0.089312 0.589542 -0.067362
v -0.009386 0.589542 0.111779
v 0.094041 0.589542 0.065634
v 0.105792 0.589542 -0.047009
v 0.014115 0.589542 -0.113507
v -0.072165 0.540928 0.032388
v -0.063698 0.540928 -0.048783
v -0.006103 0.540928 0.080306
v 0.068427 0.540928 0.047054
v 0.076894 0.540928 -0.034116
v 0.010832 0.540928 -0.082035
v 0.329657 0.846932 -0.345587
v 0.329657 0.882616 -0.345587
v 0.370870 0.846932 -0.301072
v 0.370870 0.882616 -0.301072
v 0.346523 0.850621 0.331120
v 0.346523 0.886305 0.331120
v 0.302008 0.850621 0.372333
v 0.302008 0.886305 0.372333
v -0.330184 0.846932 0.347986
v -0.330184 0.882616 0.347986
v -0.371397 0.846932 0.303471
v -0.371397 0.882616 0.303471
v -0.347050 0.850621 -0.328721
v -0.347050 0.886305 -0.328721
v -0.302535 0.850621 -0.369934
v -0.302535 0.886305 -0.369934
v 0.285711 0.462540 -0.393053
v 0.285711 0.920841 -0.393053
v 0.414816 0.462540 -0.253605
v 0.414816 0.920841 -0.253605
v 0.480730 0.462540 -0.075365
v 0.480730 0.920841 -0.075365
v 0.473416 0.462540 0.114531
v 0.473416 0.920841 0.114531
v 0.393990 0.462540 0.287174
v 0.393990 0.920841 0.287174
v 0.254541 0.462540 0.416280
v 0.254541 0.920841 0.416280
v 0.076301 0.462540 0.482193
v 0.076301 0.920841 0.482193
v -0.113595 0.462540 0.474880
v -0.113595 0.920841 0.474880
v -0.286238 0.462540 0.395453
v -0.286238 0.920841 0.395453
v -0.415344 0.462540 0.256005
v -0.415344 0.920841 0.256005
v -0.481257 0.462540 0.077765
v -0.481257 0.920841 0.077765
v -0.473944 0.462540 -0.112132
v -0.473944 0.920841 -0.112132
v -0.394517 0.462540 -0.284774
v -0.394517 0.920841 -0.284774
v -0.255069 0.462540 -0.413880
v -0.255069 0.920841 -0.413880
v -0.076829 0.462540 -0.479794
v -0.076829 0.920841 -0.479794
v 0.113068 0.462540 -0.472480
v 0.113068 0.920841 -0.472480
v 0.299787 0.462540 -0.412459
v 0.435247 0.462540 -0.266147
v 0.435247 0.920841 -0.266147
v 0.299787 0.920841 -0.412459
v 0.504405 0.462540 -0.079134
v 0.504405 0.920841 -0.079134
v 0.496732 0.462540 0.120110
v 0.496732 0.920841 0.120110
v 0.413395 0.462540 0.301250
v 0.413395 0.920841 0.301250
v 0.267083 0.462540 0.436711
v 0.267083 0.920841 0.436711
v 0.080070 0.462540 0.505869
v 0.080070 0.920841 0.505869
v -0.119174 0.462540 0.498195
v -0.119174 0.920841 0.498195
v -0.300314 0.462540 0.414859
v -0.300314 0.920841 0.414859
v -0.435774 0.462540 0.268547
v -0.435774 0.920841 0.268547
v -0.504932 0.462540 0.081533
v -0.504932 0.920841 0.081533
v -0.497259 0.462540 -0.117710
v -0.497259 0.920841 -0.117710
v -0.413923 0.462540 -0.298850
v -0.413923 0.920841 -0.298850
v -0.267610 0.462540 -0.434311
v -0.267610 0.920841 -0.434311
v -0.080597 0.462540 -0.503469
v -0.080597 0.920841 -0.503469
v 0.118646 0.462540 -0.495795
v 0.118646 0.920841 -0.495795
v 0.285711 0.855978 -0.393053
v 0.414816 0.855978 -0.253605
v 0.480730 0.855978 -0.075365
v 0.473416 0.855978 0.114531
v 0.393990 0.855978 0.287174
v 0.254541 0.855978 0.416280
v 0.076301 0.855978 0.482193
v -0.113595 0.855978 0.474880
v -0.286238 0.855978 0.395453
v -0.415344 0.855978 0.256005
v -0.481257 0.855978 0.077765
v -0.473944 0.855978 -0.112132
v -0.394517 0.855978 -0.284774
v -0.255069 0.855978 -0.413880
v -0.076829 0.855978 -0.479794
v 0.113068 0.855978 -0.472480
v 0.414816 0.865302 -0.253605
v 0.285711 0.865302 -0.393053
v 0.480730 0.865302 -0.075365
v 0.473416 0.865302 0.114531
v 0.393990 0.865302 0.287174
v 0.254541 0.865302 0.416280
v 0.076301 0.865302 0.482193
v -0.113595 0.865302 0.474880
v -0.286238 0.865302 0.395453
v -0.415344 0.865302 0.256005
v -0.481257 0.865302 0.077765
v -0.473944 0.865302 -0.112132
v -0.394517 0.865302 -0.284774
v -0.255069 0.865302 -0.413880
v -0.076829 0.865302 -0.479794
v 0.113068 0.865302 -0.472480
v 0.329657 0.470766 -0.345587
v 0.329657 0.506451 -0.345587
v 0.370870 0.470766 -0.301072
v 0.370870 0.506451 -0.301072
v 0.346523 0.474456 0.331120
v 0.346523 0.510140 0.331120
v 0.302008 0.474456 0.372333
v 0.302008 0.510140 0.372333
v -0.330184 0.470766 0.347986
v -0.330184 0.506451 0.347986
v -0.371397 0.470766 0.303471
v -0.371397 0.506451 0.303471
v -0.347050 0.474456 -0.328721
v -0.347050 0.510140 -0.328721
v -0.302535 0.474456 -0.369934
v -0.302535 0.510140 -0.369934
v 0.299787 0.433236 -0.412459
v 0.435247 0.433236 -0.266147
v 0.504405 0.433236 -0.079134
v 0.496732 0.433236 0.120110
v 0.413395 0.433236 0.301250
v 0.267083 0.433236 0.436711
v 0.080070 0.433236 0.505869
v -0.119174 0.433236 0.498195
v -0.300314 0.433236 0.414859
v -0.435774 0.433236 0.268547
v -0.504932 0.433236 0.081533
v -0.497259 0.433236 -0.117710
v -0.413923 0.433236 -0.298850
v -0.267610 0.433236 -0.434311
v -0.080597 0.433236 -0.503469
v 0.118646 0.433236 -0.495795
v 0.285711 0.433236 -0.393053
v 0.414816 0.433236 -0.253605
v 0.480730 0.433236 -0.075365
v 0.473416 0.433236 0.114531
v 0.393990 0.433236 0.287174
v 0.254541 0.433236 0.416280
v 0.076301 0.433236 0.482193
v -0.113595 0.433236 0.474880
v -0.286238 0.433236 0.395453
v -0.415344 0.433236 0.256005
v -0.481257 0.433236 0.077765
v -0.473944 0.433236 -0.112132
v -0.394517 0.433236 -0.284774
v -0.255069 0.433236 -0.413880
v -0.076829 0.433236 -0.479794
v 0.113068 0.433236 -0.472480
v 0.435247 0.950436 -0.266147
v 0.299787 0.950436 -0.412459
v 0.504405 0.950436 -0.079134
v 0.496732 0.950436 0.120110
v 0.413395 0.950436 0.301250
v 0.267083 0.950436 0.436711
v 0.080070 0.950436 0.505869
v -0.119174 0.950436 0.498195
v -0.300314 0.950436 0.414859
v -0.435774 0.950436 0.268547
v -0.504932 0.950436 0.081533
v -0.497259 0.950436 -0.117710
v -0.413923 0.950436 -0.298850
v -0.267610 0.950436 -0.434311
v -0.080597 0.950436 -0.503469
v 0.118646 0.950436 -0.495795
v 0.414816 0.950436 -0.253605
v 0.285711 0.950436 -0.393053
v 0.480730 0.950436 -0.075365
v 0.473416 0.950436 0.114531
v 0.393990 0.950436 0.287174
v 0.254541 0.950436 0.416280
v 0.076301 0.950436 0.482193
v -0.113595 0.950436 0.474880
v -0.286238 0.950436 0.395453
v -0.415344 0.950436 0.256005
v -0.481257 0.950436 0.077765
v -0.473944 0.950436 -0.112132
v -0.394517 0.950436 -0.284774
v -0.255069 0.950436 -0.413880
v -0.076829 0.950436 -0.479794
v 0.113068 0.950436 -0.472480
v -0.067758 0.480557 -0.118834
v 0.068296 0.480557 -0.118834
v 0.135662 0.480389 -0.001845
v 0.068296 0.480557 0.115145
v -0.067758 0.480557 0.115145
v -0.135124 0.480389 -0.001845
v -0.119019 -2.523154 -0.207197
v 0.119633 -2.523154 -0.207197
v 0.238067 -2.523154 -0.001845
v 0.119633 -2.523154 0.203508
v -0.119019 -2.523154 0.203508
v -0.237454 -2.523154 -0.001845
vn 0.5872 -0.0000 -0.8095
vn 0.4074 -0.0000 0.9132
vn -0.9946 -0.0000 -0.1038
vn -0.4074 -0.0000 -0.9132
vn 0.9946 -0.0000 0.1038
vn -0.5872 -0.0000 0.8095
vn -0.7861 0.6127 -0.0820
vn -0.9296 0.3555 -0.0970
vn 0.5488 0.3555 -0.7566
vn 0.5810 0.1442 -0.8010
vn -0.3220 0.6127 -0.7218
vn -0.3808 0.3555 -0.8536
vn 0.7861 0.6127 0.0820
vn 0.9296 0.3555 0.0970
vn -0.4640 0.6127 0.6397
vn -0.5488 0.3555 0.7566
vn 0.4640 0.6127 -0.6397
vn 0.3220 0.6127 0.7218
vn 0.3808 0.3555 0.8536
vn -0.3549 -0.4911 -0.7955
vn 0.4032 0.1442 0.9037
vn -0.9842 0.1442 -0.1027
vn -0.4032 0.1442 -0.9037
vn 0.9842 0.1442 0.1027
vn -0.5810 0.1442 0.8010
vn -0.0000 -1.0000 -0.0000
vn 0.8664 -0.4911 0.0904
vn -0.5115 -0.4911 0.7052
vn 0.5115 -0.4911 -0.7052
vn 0.3549 -0.4911 0.7955
vn -0.8664 -0.4911 -0.0904
vn -0.6794 -0.0000 -0.7338
vn -0.7338 -0.0000 0.6794
vn 0.6794 -0.0000 0.7338
vn 0.7338 -0.0000 -0.6794
vn -0.0000 1.0000 -0.0000
vn 0.8522 -0.0000 -0.5232
vn 0.9876 -0.0000 -0.1572
vn 0.9726 -0.0000 0.2327
vn 0.8095 -0.0000 0.5872
vn 0.5232 -0.0000 0.8522
vn 0.1572 -0.0000 0.9876
vn -0.2327 -0.0000 0.9726
vn -0.8522 -0.0000 0.5232
vn -0.9876 -0.0000 0.1572
vn -0.9726 -0.0000 -0.2327
vn -0.8095 -0.0000 -0.5872
vn -0.5232 -0.0000 -0.8522
vn -0.1572 -0.0000 -0.9876
vn 0.2327 -0.0000 -0.9726
vn -0.8660 0.0295 -0.4992
vn -0.0000 0.0294 0.9996
vn 0.8660 0.0295 -0.4992
vn 0.8660 0.0295 0.4992
vn -0.8660 0.0295 0.4992
vn -0.0000 0.0294 -0.9996
vt 0.701028 0.955045
vt 0.701028 0.955045
vt 0.701028 0.955045
vt 0.701028 0.955045
vt 0.701028 0.955045
vt 0.701028 0.955045
vt 0.701028 0.955045
vt 0.701028 0.955045
vt 0.701028 0.955045
vt 0.701028 0.955045
vt 0.701028 0.955045
vt 0.701028 0.955045
vt 0.701028 0.955045
vt 0.701028 0.955045
vt 0.701028 0.955045
vt 0.701028 0.955045
vt 0.701028 0.955045
vt 0.701028 0.955045
vt 0.701028 0.955045
vt 0.701028 0.955045
vt 0.701028 0.955045
vt 0.701028 0.955045
vt 0.701028 0.955045
vt 0.701028 0.955045
vt 0.701028 0.955045
vt 0.701028 0.955045
vt 0.701028 0.955045
vt 0.701028 0.955045
vt 0.701028 0.955045
vt 0.701028 0.955045
vt 0.738232 0.102437
vt 0.738232 0.102437
vt 0.738232 0.102437
vt 0.738232 0.102437
vt 0.738232 0.102437
vt 0.738232 0.102437
vt 0.738232 0.102437
vt 0.738232 0.102437
vt 0.738232 0.102437
vt 0.738232 0.102437
vt 0.738232 0.102437
vt 0.738232 0.102437
vt 0.738232 0.102437
vt 0.738232 0.102437
vt 0.738232 0.102437
vt 0.738232 0.102437
vt 0.260772 0.920941
vt 0.274724 0.894587
vt 0.260772 0.920941
vt 0.260772 0.863583
vt 0.260772 0.920941
vt 0.274724 0.894587
vt 0.260772 0.920941
vt 0.260772 0.863583
vt 0.260772 0.920941
vt 0.274724 0.894587
vt 0.260772 0.920941
vt 0.260772 0.863583
vt 0.260772 0.920941
vt 0.274724 0.894587
vt 0.260772 0.863583
vt 0.260772 0.920941
vt 0.274724 0.894587
vt 0.260772 0.920941
vt 0.260772 0.863583
vt 0.260772 0.920941
vt 0.274724 0.894587
vt 0.260772 0.920941
vt 0.260772 0.920941
vt 0.260772 0.863583
vt 0.274724 0.894587
vt 0.260772 0.920941
vt 0.260772 0.920941
vt 0.260772 0.863583
vt 0.260772 0.920941
vt 0.274724 0.894587
vt 0.260772 0.920941
vt 0.260772 0.863583
vt 0.260772 0.920941
vt 0.274724 0.894587
vt 0.260772 0.920941
vt 0.260772 0.863583
vt 0.260772 0.920941
vt 0.274724 0.894587
vt 0.260772 0.863583
vt 0.260772 0.920941
vt 0.260772 0.920941
vt 0.274724 0.894587
vt 0.260772 0.863583
vt 0.260772 0.920941
vt 0.274724 0.894587
vt 0.260772 0.920941
vt 0.260772 0.920941
vt 0.260772 0.863583
vt 0.274724 0.894587
vt 0.260772 0.920941
vt 0.260772 0.920941
vt 0.260772 0.863583
vt 0.260772 0.920941
vt 0.274724 0.894587
vt 0.260772 0.920941
vt 0.260772 0.863583
vt 0.260772 0.920941
vt 0.274724 0.894587
vt 0.260772 0.920941
vt 0.260772 0.863583
vt 0.260772 0.920941
vt 0.274724 0.894587
vt 0.260772 0.920941
vt 0.260772 0.863583
vt 0.260772 0.920941
vt 0.274724 0.894587
vt 0.260772 0.920941
vt 0.274724 0.894587
vt 0.260772 0.920941
vt 0.260772 0.863583
vt 0.260772 0.920941
vt 0.260772 0.863583
vt 0.260772 0.920941
vt 0.274724 0.894587
vt 0.260772 0.920941
vt 0.260772 0.863583
vt 0.260772 0.920941
vt 0.274724 0.894587
vt 0.260772 0.920941
vt 0.260772 0.863583
vt 0.260772 0.920941
vt 0.274724 0.894587
vt 0.260772 0.920941
vt 0.260772 0.863583
vt 0.260772 0.920941
vt 0.274724 0.894587
vt 0.260772 0.920941
vt 0.260772 0.863583
vt 0.260772 0.920941
vt 0.274724 0.894587
vt 0.260772 0.920941
vt 0.260772 0.863583
vt 0.260772 0.920941
vt 0.274724 0.894587
vt 0.260772 0.920941
vt 0.260772 0.863583
vt 0.260772 0.920941
vt 0.274724 0.894587
vt 0.260772 0.920941
vt 0.260772 0.863583
vt 0.260772 0.920941
vt 0.274724 0.894587
vt 0.260772 0.920941
vt 0.260772 0.863583
vt 0.260772 0.920941
vt 0.274724 0.894587
vt 0.260772 0.920941
vt 0.260772 0.863583
vt 0.260772 0.920941
vt 0.274724 0.894587
vt 0.260772 0.920941
vt 0.260772 0.863583
vt 0.260772 0.920941
vt 0.274724 0.894587
vt 0.260772 0.920941
vt 0.260772 0.863583
vt 0.260772 0.920941
vt 0.274724 0.894587
vt 0.260772 0.920941
vt 0.260772 0.863583
vt 0.260772 0.920941
vt 0.274724 0.894587
vt 0.260772 0.920941
vt 0.260772 0.863583
vt 0.260772 0.920941
vt 0.274724 0.894587
vt 0.260772 0.920941
vt 0.260772 0.863583
vt 0.260772 0.920941
vt 0.260772 0.920941
vt 0.260772 0.920941
vt 0.260772 0.920941
vt 0.260772 0.920941
vt 0.260772 0.920941
vt 0.260772 0.920941
vt 0.260772 0.920941
vt 0.260772 0.920941
vt 0.260772 0.920941
vt 0.260772 0.920941
vt 0.260772 0.920941
vt 0.260772 0.920941
vt 0.260772 0.920941
vt 0.260772 0.920941
vt 0.260772 0.920941
vt 0.260772 0.920941
vt 0.260772 0.920941
vt 0.260772 0.920941
vt 0.260772 0.920941
vt 0.260772 0.920941
vt 0.260772 0.920941
vt 0.260772 0.920941
vt 0.260772 0.920941
vt 0.260772 0.920941
vt 0.260772 0.920941
vt 0.260772 0.920941
vt 0.260772 0.920941
vt 0.260772 0.920941
vt 0.260772 0.920941
vt 0.260772 0.920941
vt 0.260772 0.920941
vt 0.738232 0.102437
vt 0.738232 0.102437
vt 0.738232 0.102437
vt 0.738232 0.102437
vt 0.738232 0.102437
vt 0.738232 0.102437
vt 0.738232 0.102437
vt 0.738232 0.102437
vt 0.738232 0.102437
vt 0.738232 0.102437
vt 0.738232 0.102437
vt 0.738232 0.102437
vt 0.738232 0.102437
vt 0.738232 0.102437
vt 0.738232 0.102437
vt 0.738232 0.102437
vt 0.274724 0.894587
vt 0.274724 0.894587
vt 0.274724 0.894587
vt 0.274724 0.894587
vt 0.274724 0.894587
vt 0.274724 0.894587
vt 0.274724 0.894587
vt 0.274724 0.894587
vt 0.274724 0.894587
vt 0.274724 0.894587
vt 0.274724 0.894587
vt 0.274724 0.894587
vt 0.274724 0.894587
vt 0.274724 0.894587
vt 0.274724 0.894587
vt 0.274724 0.894587
vt 0.274724 0.894587
vt 0.274724 0.894587
vt 0.274724 0.894587
vt 0.274724 0.894587
vt 0.274724 0.894587
vt 0.274724 0.894587
vt 0.274724 0.894587
vt 0.274724 0.894587
vt 0.274724 0.894587
vt 0.274724 0.894587
vt 0.274724 0.894587
vt 0.274724 0.894587
vt 0.274724 0.894587
vt 0.274724 0.894587
vt 0.274724 0.894587
vt 0.274724 0.894587
vt 0.260772 0.863583
vt 0.260772 0.863583
vt 0.260772 0.863583
vt 0.260772 0.863583
vt 0.260772 0.863583
vt 0.260772 0.863583
vt 0.260772 0.863583
vt 0.260772 0.863583
vt 0.260772 0.863583
vt 0.260772 0.863583
vt 0.260772 0.863583
vt 0.260772 0.863583
vt 0.260772 0.863583
vt 0.260772 0.863583
vt 0.260772 0.863583
vt 0.260772 0.863583
vt 0.260772 0.863583
vt 0.260772 0.863583
vt 0.260772 0.863583
vt 0.260772 0.863583
vt 0.260772 0.863583
vt 0.260772 0.863583
vt 0.260772 0.863583
vt 0.260772 0.863583
vt 0.260772 0.863583
vt 0.260772 0.863583
vt 0.260772 0.863583
vt 0.260772 0.863583
vt 0.260772 0.863583
vt 0.260772 0.863583
vt 0.260772 0.863583
vt 0.260772 0.863583
vt 0.725831 0.111738
vt 0.725831 0.111738
vt 0.725831 0.111738
vt 0.725831 0.111738
vt 0.725831 0.111738
vt 0.725831 0.111738
vt 0.725831 0.111738
vt 0.725831 0.111738
vt 0.725831 0.111738
vt 0.725831 0.111738
vt 0.725831 0.111738
vt 0.725831 0.111738
s 1
usemtl Material
f 4/4/1 10/10/1 11/11/1 5/5/1
f 2/2/2 8/8/2 9/9/2 3/3/2
f 6/6/3 12/12/3 7/7/3 1/1/3
f 5/5/4 11/11/4 12/12/4 6/6/4
f 3/3/5 9/9/5 10/10/5 4/4/5
f 1/1/6 7/7/6 8/8/6 2/2/6
f 7/7/7 12/12/7 14/14/8 13/13/8
f 18/18/9 17/17/9 23/23/10 24/24/10
f 12/12/11 11/11/11 18/18/12 14/14/12
f 10/10/13 9/9/13 16/16/14 17/17/14
f 8/8/15 7/7/15 13/13/16 15/15/16
f 11/11/17 10/10/17 17/17/9 18/18/9
f 9/9/18 8/8/18 15/15/19 16/16/19
f 20/20/20 24/24/20 30/30/20 26/26/20
f 16/16/19 15/15/19 21/21/21 22/22/21
f 13/13/8 14/14/8 20/20/22 19/19/22
f 14/14/12 18/18/12 24/24/23 20/20/23
f 17/17/14 16/16/14 22/22/24 23/23/24
f 15/15/16 13/13/16 19/19/25 21/21/25
f 25/25/26 26/26/26 30/30/26 29/29/26 28/28/26 27/27/26
f 23/23/27 22/22/27 28/28/27 29/29/27
f 21/21/28 19/19/28 25/25/28 27/27/28
f 24/24/29 23/23/29 29/29/29 30/30/29
f 22/22/30 21/21/30 27/27/30 28/28/30
f 19/19/31 20/20/31 26/26/31 25/25/31
f 46/46/32 45/45/32 43/43/32 44/44/32
f 42/42/33 41/41/33 39/39/33 40/40/33
f 38/38/34 37/37/34 35/35/34 36/36/34
f 34/34/35 33/33/35 31/31/35 32/32/35
f 43/43/33 37/37/33 38/38/33 44/44/33
f 44/44/36 38/38/36 36/36/36 46/46/36
f 46/46/35 36/36/35 35/35/35 45/45/35
f 45/45/26 35/35/26 37/37/26 43/43/26
f 39/39/34 33/33/34 34/34/34 40/40/34
f 40/40/36 34/34/36 32/32/36 42/42/36
f 42/42/32 32/32/32 31/31/32 41/41/32
f 41/41/26 31/31/26 33/33/26 39/39/26
f 79/111/1 82/117/1 81/115/37 80/113/37
f 80/113/37 81/115/37 84/121/38 83/119/38
f 83/119/38 84/121/38 86/125/39 85/123/39
f 85/123/39 86/125/39 88/129/40 87/127/40
f 87/127/40 88/129/40 90/133/41 89/131/41
f 89/131/41 90/133/41 92/137/42 91/135/42
f 91/135/42 92/137/42 94/141/43 93/139/43
f 93/139/43 94/141/43 96/145/6 95/143/6
f 95/143/6 96/145/6 98/149/44 97/147/44
f 97/147/44 98/149/44 100/153/45 99/151/45
f 99/151/45 100/153/45 102/157/46 101/155/46
f 101/155/46 102/157/46 104/161/47 103/159/47
f 103/159/47 104/161/47 106/165/48 105/163/48
f 105/163/48 106/165/48 108/169/49 107/167/49
f 78/109/43 76/105/42 75/103/42 77/107/43
f 107/167/49 108/169/49 110/173/50 109/171/50
f 109/171/50 110/173/50 82/117/1 79/111/1
f 48/49/6 78/109/43 77/107/43 47/47/6
f 61/76/50 59/71/49 181/245/49 182/246/50
f 110/174/50 108/170/49 205/269/49 206/270/50
f 109/172/50 79/112/1 159/223/1 174/238/50
f 92/138/42 90/134/41 196/260/41 197/261/42
f 91/136/42 93/140/43 166/230/43 165/229/42
f 56/65/47 58/70/48 212/276/48 211/275/47
f 73/100/41 71/95/40 187/251/40 188/252/41
f 100/154/45 98/150/44 200/264/44 201/265/45
f 59/71/49 57/67/48 180/244/48 181/245/49
f 68/89/38 70/94/39 218/282/39 217/281/38
f 99/152/45 101/156/46 170/234/46 169/233/45
f 54/61/46 56/65/47 211/275/47 210/274/46
f 80/114/37 83/120/38 161/225/38 160/224/37
f 81/116/37 82/118/1 192/256/1 191/255/37
f 71/95/40 69/91/39 186/250/39 187/251/40
f 108/170/49 106/166/48 204/268/48 205/269/49
f 107/168/49 109/172/50 174/238/50 173/237/49
f 90/134/41 88/130/40 195/259/40 196/260/41
f 89/132/41 91/136/42 165/229/42 164/228/41
f 66/85/37 68/89/38 217/281/38 216/280/37
f 57/67/48 55/63/47 179/243/47 180/244/48
f 52/58/45 54/61/46 210/274/46 209/273/45
f 97/148/44 99/152/45 169/233/45 168/232/44
f 98/150/44 96/146/6 199/263/6 200/264/44
f 69/91/39 67/88/38 185/249/38 186/250/39
f 78/110/43 48/50/6 208/272/6 222/286/43
f 55/63/47 53/60/46 178/242/46 179/243/47
f 64/82/1 66/85/37 216/280/37 215/279/1
f 79/112/1 80/114/37 160/224/37 159/223/1
f 106/166/48 104/162/47 203/267/47 204/268/48
f 105/164/48 107/168/49 173/237/49 172/236/48
f 88/130/40 86/126/39 194/258/39 195/259/40
f 76/105/42 74/101/41 73/99/41 75/103/42
f 74/101/41 72/97/40 71/96/40 73/99/41
f 72/97/40 70/93/39 69/92/39 71/96/40
f 70/93/39 68/90/38 67/87/38 69/92/39
f 68/90/38 66/86/37 65/83/37 67/87/38
f 66/86/37 64/81/1 63/79/1 65/83/37
f 64/81/1 62/77/50 61/75/50 63/79/1
f 62/77/50 60/73/49 59/72/49 61/75/50
f 60/73/49 58/69/48 57/68/48 59/72/49
f 58/69/48 56/66/47 55/64/47 57/68/48
f 56/66/47 54/62/46 53/59/46 55/64/47
f 54/62/46 52/57/45 51/55/45 53/59/46
f 52/57/45 50/53/44 49/51/44 51/55/45
f 50/53/44 48/49/6 47/47/6 49/51/44
f 112/176/26 113/177/26 114/178/26 115/179/26 116/180/26 117/181/26 118/182/26 119/183/26 120/184/26 121/185/26 122/186/26 123/187/26 124/188/26 125/189/26 126/190/26 111/175/26
f 127/191/36 128/192/36 142/206/36 141/205/36 140/204/36 139/203/36 138/202/36 137/201/36 136/200/36 135/199/36 134/198/36 133/197/36 132/196/36 131/195/36 130/194/36 129/193/36
f 118/182/43 134/198/43 135/199/6 119/183/6
f 111/175/1 128/192/1 127/191/37 112/176/37
f 126/190/50 142/206/50 128/192/1 111/175/1
f 119/183/6 135/199/6 136/200/44 120/184/44
f 112/176/37 127/191/37 129/193/38 113/177/38
f 120/184/44 136/200/44 137/201/45 121/185/45
f 113/177/38 129/193/38 130/194/39 114/178/39
f 121/185/45 137/201/45 138/202/46 122/186/46
f 114/178/39 130/194/39 131/195/40 115/179/40
f 122/186/46 138/202/46 139/203/47 123/187/47
f 115/179/40 131/195/40 132/196/41 116/180/41
f 123/187/47 139/203/47 140/204/48 124/188/48
f 116/180/41 132/196/41 133/197/42 117/181/42
f 124/188/48 140/204/48 141/205/49 125/189/49
f 117/181/42 133/197/42 134/198/43 118/182/43
f 125/189/49 141/205/49 142/206/50 126/190/50
f 158/222/32 157/221/32 155/219/32 156/220/32
f 154/218/33 153/217/33 151/215/33 152/216/33
f 150/214/34 149/213/34 147/211/34 148/212/34
f 146/210/35 145/209/35 143/207/35 144/208/35
f 155/219/33 149/213/33 150/214/33 156/220/33
f 156/220/36 150/214/36 148/212/36 158/222/36
f 158/222/35 148/212/35 147/211/35 157/221/35
f 157/221/26 147/211/26 149/213/26 155/219/26
f 151/215/34 145/209/34 146/210/34 152/216/34
f 152/216/36 146/210/36 144/208/36 154/218/36
f 154/218/32 144/208/32 143/207/32 153/217/32
f 153/217/26 143/207/26 145/209/26 151/215/26
f 176/240/26 175/239/26 159/223/26 160/224/26
f 177/241/26 176/240/26 160/224/26 161/225/26
f 178/242/26 177/241/26 161/225/26 162/226/26
f 179/243/26 178/242/26 162/226/26 163/227/26
f 180/244/26 179/243/26 163/227/26 164/228/26
f 181/245/26 180/244/26 164/228/26 165/229/26
f 182/246/26 181/245/26 165/229/26 166/230/26
f 183/247/26 182/246/26 166/230/26 167/231/26
f 184/248/26 183/247/26 167/231/26 168/232/26
f 185/249/26 184/248/26 168/232/26 169/233/26
f 186/250/26 185/249/26 169/233/26 170/234/26
f 187/251/26 186/250/26 170/234/26 171/235/26
f 188/252/26 187/251/26 171/235/26 172/236/26
f 189/253/26 188/252/26 172/236/26 173/237/26
f 190/254/26 189/253/26 173/237/26 174/238/26
f 175/239/26 190/254/26 174/238/26 159/223/26
f 75/104/42 73/100/41 188/252/41 189/253/42
f 83/120/38 85/124/39 162/226/39 161/225/38
f 101/156/46 103/160/47 171/235/47 170/234/46
f 49/52/44 47/48/6 175/239/6 176/240/44
f 63/80/1 61/76/50 182/246/50 183/247/1
f 93/140/43 95/144/6 167/231/6 166/230/43
f 77/108/43 75/104/42 189/253/42 190/254/43
f 51/56/45 49/52/44 176/240/44 177/241/45
f 85/124/39 87/128/40 163/227/40 162/226/39
f 103/160/47 105/164/48 172/236/48 171/235/47
f 65/84/37 63/80/1 183/247/1 184/248/37
f 47/48/6 77/108/43 190/254/43 175/239/6
f 95/144/6 97/148/44 168/232/44 167/231/6
f 53/60/46 51/56/45 177/241/45 178/242/46
f 67/88/38 65/84/37 184/248/37 185/249/38
f 87/128/40 89/132/41 164/228/41 163/227/40
f 208/272/36 207/271/36 191/255/36 192/256/36
f 207/271/36 209/273/36 193/257/36 191/255/36
f 209/273/36 210/274/36 194/258/36 193/257/36
f 210/274/36 211/275/36 195/259/36 194/258/36
f 211/275/36 212/276/36 196/260/36 195/259/36
f 212/276/36 213/277/36 197/261/36 196/260/36
f 213/277/36 214/278/36 198/262/36 197/261/36
f 214/278/36 215/279/36 199/263/36 198/262/36
f 215/279/36 216/280/36 200/264/36 199/263/36
f 216/280/36 217/281/36 201/265/36 200/264/36
f 217/281/36 218/282/36 202/266/36 201/265/36
f 218/282/36 219/283/36 203/267/36 202/266/36
f 219/283/36 220/284/36 204/268/36 203/267/36
f 220/284/36 221/285/36 205/269/36 204/268/36
f 221/285/36 222/286/36 206/270/36 205/269/36
f 222/286/36 208/272/36 192/256/36 206/270/36
f 70/94/39 72/98/40 219/283/40 218/282/39
f 84/122/38 81/116/37 191/255/37 193/257/38
f 102/158/46 100/154/45 201/265/45 202/266/46
f 58/70/48 60/74/49 213/277/49 212/276/48
f 72/98/40 74/102/41 220/284/41 219/283/40
f 94/142/43 92/138/42 197/261/42 198/262/43
f 82/118/1 110/174/50 206/270/50 192/256/1
f 60/74/49 62/78/50 214/278/50 213/277/49
f 74/102/41 76/106/42 221/285/42 220/284/41
f 86/126/39 84/122/38 193/257/38 194/258/39
f 104/162/47 102/158/46 202/266/46 203/267/47
f 48/50/6 50/54/44 207/271/44 208/272/6
f 62/78/50 64/82/1 215/279/1 214/278/50
f 96/146/6 94/142/43 198/262/43 199/263/6
f 76/106/42 78/110/43 222/286/43 221/285/42
f 50/54/44 52/58/45 209/273/45 207/271/44
f 223/287/51 229/293/51 234/298/51 228/292/51
f 228/292/36 227/291/36 226/290/36 225/289/36 224/288/36 223/287/36
f 227/291/52 233/297/52 232/296/52 226/290/52
f 225/289/53 231/295/53 230/294/53 224/288/53
f 226/290/54 232/296/54 231/295/54 225/289/54
f 228/292/55 234/298/55 233/297/55 227/291/55
f 224/288/56 230/294/56 229/293/56 223/287/56
f 234/298/26 229/293/26 230/294/26 231/295/26 232/296/26 233/297/26
