# Blender 3.4.1
# www.blender.org
mtllib homeappliance028.mtl
o home_appliance.027
v -0.189397 -0.169127 -0.061499
v 0.219645 -0.169127 -0.061499
v -0.189397 0.451247 -0.061499
v 0.219645 0.451247 -0.061499
v -0.173034 0.434884 0.010137
v -0.189397 0.451247 -0.006226
v -0.184604 0.446455 0.005344
v -0.189397 -0.169127 -0.006226
v -0.173034 -0.152764 0.010137
v -0.184604 -0.164335 0.005344
v 0.219645 -0.169127 -0.006226
v 0.203283 -0.152764 0.010137
v 0.214853 -0.164335 0.005344
v 0.219645 0.451247 -0.006226
v 0.203283 0.434884 0.010137
v 0.214853 0.446455 0.005344
v -0.133482 0.434884 0.004220
v -0.133482 -0.152764 0.004220
v 0.057356 -0.152764 0.004220
v 0.057356 0.434884 0.004220
v -0.133482 -0.152764 0.061720
v -0.119964 -0.139246 0.075239
v -0.119964 0.421365 0.075239
v -0.133482 0.434884 0.061720
v 0.057356 -0.152764 0.061720
v 0.043837 -0.139246 0.075239
v 0.057356 0.434884 0.061720
v 0.043837 0.421365 0.075239
v -0.028096 -0.139960 0.054195
v -0.045944 -0.138763 0.054418
v -0.054964 -0.135984 0.039098
v -0.046039 -0.134423 0.023625
v -0.028190 -0.135612 0.023403
v -0.019170 -0.138386 0.038724
v -0.013393 -0.386167 -0.022627
v -0.030192 -0.380777 -0.022963
v -0.038292 -0.377066 -0.037559
v -0.030555 -0.378433 -0.053239
v -0.013305 -0.383860 -0.054497
v -0.004116 -0.387938 -0.038707
v -0.086265 -0.492250 -0.022553
v -0.094534 -0.475314 -0.023286
v -0.097928 -0.468395 -0.037537
v -0.095379 -0.473766 -0.052265
v -0.087256 -0.490363 -0.055360
v -0.082231 -0.500589 -0.039615
v -0.264352 -0.457744 -0.022917
v -0.254612 -0.442672 -0.022773
v -0.249716 -0.435038 -0.037447
v -0.253702 -0.441259 -0.053008
v -0.263322 -0.456154 -0.054920
v -0.269135 -0.465132 -0.039531
v -0.350139 -0.345489 -0.022807
v -0.331743 -0.344675 -0.023023
v -0.323293 -0.344293 -0.037516
v -0.330083 -0.344602 -0.052678
v -0.348194 -0.345403 -0.055039
v -0.359078 -0.345883 -0.039534
v -0.337287 -0.188815 -0.024163
v -0.319185 -0.189824 -0.021856
v -0.308356 -0.190428 -0.037335
v -0.317247 -0.189932 -0.054025
v -0.335623 -0.188908 -0.053863
v -0.344121 -0.188438 -0.039353
v -0.291227 -0.061874 -0.023249
v -0.273627 -0.058659 -0.022538
v -0.264204 -0.056922 -0.037415
v -0.271905 -0.058343 -0.053278
v -0.289431 -0.061547 -0.054624
v -0.299435 -0.063364 -0.039492
v -0.302791 0.199703 -0.022683
v -0.284737 0.196520 -0.023051
v -0.276495 0.194995 -0.037510
v -0.283130 0.196234 -0.052653
v -0.300857 0.199362 -0.055148
v -0.311758 0.201282 -0.039551
v -0.257247 0.327681 -0.022512
v -0.241536 0.316860 -0.023372
v -0.235390 0.312680 -0.037632
v -0.240194 0.315934 -0.052200
v -0.255567 0.326528 -0.055332
v -0.264923 0.332962 -0.039556
v -0.171596 0.368786 -0.023289
v -0.172288 0.351351 -0.022287
v -0.172582 0.341274 -0.037361
v -0.172346 0.349576 -0.053591
v -0.171677 0.367015 -0.054566
v -0.171183 0.377061 -0.039502
v 0.081735 -0.038472 0.008016
v 0.093531 -0.026676 0.008016
v 0.093531 -0.065313 0.008016
v 0.081735 -0.053517 0.008016
v 0.122634 -0.053517 0.008016
v 0.110838 -0.065313 0.008016
v 0.110838 -0.026676 0.008016
v 0.122634 -0.038472 0.008016
v 0.093531 -0.026676 0.022926
v 0.081735 -0.038472 0.022926
v 0.081735 -0.053517 0.022926
v 0.093531 -0.065313 0.022925
v 0.110838 -0.065313 0.022925
v 0.122634 -0.053517 0.022926
v 0.122634 -0.038472 0.022926
v 0.110838 -0.026676 0.022926
v 0.140823 -0.038472 0.008016
v 0.152619 -0.026676 0.008016
v 0.152619 -0.065313 0.008016
v 0.140823 -0.053517 0.008016
v 0.181722 -0.053517 0.008016
v 0.169926 -0.065313 0.008016
v 0.169926 -0.026676 0.008016
v 0.181722 -0.038472 0.008016
v 0.152619 -0.026676 0.022926
v 0.140823 -0.038472 0.022926
v 0.140823 -0.053517 0.022926
v 0.152619 -0.065313 0.022925
v 0.169926 -0.065313 0.022925
v 0.181722 -0.053517 0.022926
v 0.181722 -0.038472 0.022926
v 0.169926 -0.026676 0.022926
v 0.081735 0.039754 0.008016
v 0.093531 0.051550 0.008016
v 0.093531 0.012913 0.008016
v 0.081735 0.024709 0.008016
v 0.122634 0.024709 0.008016
v 0.110838 0.012913 0.008016
v 0.110838 0.051550 0.008016
v 0.122634 0.039754 0.008016
v 0.093531 0.051550 0.022926
v 0.081735 0.039754 0.022926
v 0.081735 0.024709 0.022926
v 0.093531 0.012913 0.022925
v 0.110838 0.012913 0.022925
v 0.122634 0.024709 0.022926
v 0.122634 0.039754 0.022926
v 0.110838 0.051550 0.022926
v 0.140823 0.039754 0.008016
v 0.152619 0.051550 0.008016
v 0.152619 0.012913 0.008016
v 0.140823 0.024709 0.008016
v 0.181722 0.024709 0.008016
v 0.169926 0.012913 0.008016
v 0.169926 0.051550 0.008016
v 0.181722 0.039754 0.008016
v 0.152619 0.051550 0.022926
v 0.140823 0.039754 0.022926
v 0.140823 0.024709 0.022926
v 0.152619 0.012913 0.022925
v 0.169926 0.012913 0.022925
v 0.181722 0.024709 0.022926
v 0.181722 0.039754 0.022926
v 0.169926 0.051550 0.022926
v 0.081735 0.116847 0.008016
v 0.093531 0.128643 0.008016
v 0.093531 0.090006 0.008016
v 0.081735 0.101802 0.008016
v 0.122634 0.101802 0.008016
v 0.110838 0.090006 0.008016
v 0.110838 0.128643 0.008016
v 0.122634 0.116847 0.008016
v 0.093531 0.128643 0.022926
v 0.081735 0.116847 0.022926
v 0.081735 0.101802 0.022926
v 0.093531 0.090006 0.022925
v 0.110838 0.090006 0.022925
v 0.122634 0.101802 0.022926
v 0.122634 0.116847 0.022926
v 0.110838 0.128643 0.022926
v 0.140823 0.116847 0.008016
v 0.152619 0.128643 0.008016
v 0.152619 0.090006 0.008016
v 0.140823 0.101802 0.008016
v 0.181722 0.101802 0.008016
v 0.169926 0.090006 0.008016
v 0.169926 0.128643 0.008016
v 0.181722 0.116847 0.008016
v 0.152619 0.128643 0.022926
v 0.140823 0.116847 0.022926
v 0.140823 0.101802 0.022926
v 0.152619 0.090006 0.022925
v 0.169926 0.090006 0.022925
v 0.181722 0.101802 0.022926
v 0.181722 0.116847 0.022926
v 0.169926 0.128643 0.022926
vn -0.0000 -0.0000 -1.0000
vn -0.0000 1.0000 -0.0000
vn -0.0000 0.9856 0.1693
vn -0.0000 -1.0000 -0.0000
vn -0.0000 -0.9856 0.1693
vn 1.0000 -0.0000 -0.0000
vn 0.9856 -0.0000 0.1693
vn -0.1481 -0.1481 0.9778
vn 0.1481 -0.1481 0.9778
vn 0.1481 0.1481 0.9778
vn -0.1481 0.1481 0.9778
vn -0.9856 -0.0000 0.1693
vn -0.9239 -0.0000 0.3827
vn -0.3827 -0.0000 0.9239
vn -0.0000 -0.9239 0.3827
vn -0.0000 -0.3827 0.9239
vn 0.9239 -0.0000 0.3827
vn 0.3827 -0.0000 0.9239
vn -0.0000 0.9239 0.3827
vn -0.0000 0.3827 0.9239
vn -1.0000 -0.0000 -0.0000
vn -0.0000 -0.0000 1.0000
vn -0.7071 -0.0000 0.7071
vn -0.0000 -0.7071 0.7071
vn 0.7071 -0.0000 0.7071
vn -0.0000 0.7071 0.7071
vn 0.8613 -0.1031 0.4975
vn 0.8197 -0.3030 0.4861
vn 0.8118 -0.3278 0.4832
vn -0.0609 -0.3041 0.9507
vn -0.0449 -0.1480 0.9880
vn -0.0443 -0.1417 0.9889
vn -0.8682 -0.2027 0.4529
vn -0.8784 0.0903 -0.4693
vn -0.8426 0.3250 -0.4294
vn -0.8496 0.2973 -0.4356
vn 0.0165 0.3008 -0.9535
vn -0.0473 0.1853 -0.9815
vn -0.0443 0.1909 -0.9806
vn 0.8645 0.1964 -0.4627
vn 0.7341 -0.5085 0.4500
vn -0.0111 0.0178 0.9998
vn -0.0126 0.0177 0.9998
vn -0.7336 0.4886 0.4723
vn -0.7722 0.5129 -0.3749
vn -0.0423 0.1118 -0.9928
vn -0.0354 0.1159 -0.9926
vn 0.6976 -0.4798 -0.5321
vn 0.0028 0.0101 0.9999
vn 0.0027 0.0099 0.9999
vn 0.1858 0.8738 0.4493
vn 0.1947 0.9129 -0.3587
vn 0.0695 0.1189 -0.9905
vn 0.0685 0.1199 -0.9904
vn -0.1616 -0.8381 -0.5210
vn -0.7211 -0.5475 0.4246
vn -0.0241 0.0033 0.9997
vn -0.0337 0.0039 0.9994
vn 0.6904 0.5520 0.4676
vn 0.7230 0.5791 -0.3767
vn 0.0785 0.0301 -0.9965
vn 0.0859 0.0445 -0.9953
vn -0.6779 -0.5155 -0.5242
vn -0.0729 0.0185 0.9972
vn -0.0700 0.0161 0.9974
vn 0.8383 -0.0770 0.5397
vn 0.8249 -0.1803 0.5357
vn 0.8268 -0.1695 0.5364
vn 0.8940 -0.0821 -0.4406
vn 0.8809 -0.1814 -0.4371
vn 0.8792 -0.1907 -0.4366
vn 0.0484 -0.0084 -0.9988
vn 0.0457 -0.0090 -0.9989
vn -0.8377 0.0758 -0.5409
vn -0.8331 0.1793 -0.5232
vn -0.8321 0.1905 -0.5210
vn -0.8833 0.2008 0.4237
vn -0.8898 0.1183 0.4407
vn -0.8875 0.1519 0.4351
vn -0.8846 0.1913 0.4253
vn -0.0389 0.0110 0.9992
vn -0.0551 0.0174 0.9983
vn 0.8439 -0.0991 0.5273
vn 0.8383 -0.1337 0.5285
vn 0.8919 -0.1391 -0.4303
vn 0.8964 -0.1092 -0.4295
vn 0.0640 -0.0051 -0.9979
vn 0.0798 -0.0015 -0.9968
vn -0.8330 0.1469 -0.5334
vn -0.8340 0.1081 -0.5411
vn 0.0108 -0.0056 0.9999
vn 0.0115 -0.0058 0.9999
vn 0.8554 -0.1264 0.5023
vn 0.8551 -0.1300 0.5019
vn 0.9032 -0.1362 -0.4071
vn 0.9035 -0.1330 -0.4074
vn 0.1279 -0.0237 -0.9915
vn 0.1273 -0.0228 -0.9916
vn -0.8095 0.1215 -0.5744
vn -0.8100 0.1186 -0.5743
vn -0.1712 -0.8912 0.4200
vn -0.8727 0.1284 0.4711
vn -0.8325 0.2959 0.4684
vn -0.8723 0.1309 0.4711
vn 0.0131 -0.0034 0.9999
vn 0.0161 -0.0046 0.9999
vn 0.8302 -0.2932 0.4742
vn 0.8713 -0.3079 -0.3820
vn 0.1051 -0.0810 -0.9912
vn 0.0972 -0.0865 -0.9915
vn -0.7728 0.2746 -0.5721
vn -0.3881 0.8207 0.4193
vn -0.0035 0.0031 1.0000
vn 0.3778 -0.8009 0.4646
vn 0.3963 -0.8387 -0.3735
vn 0.0533 -0.1174 -0.9917
vn -0.3657 0.7731 -0.5182
vn -0.8936 0.0808 0.4415
vn -0.7071 0.7071 -0.0000
vn 0.7071 0.7071 -0.0000
vn 0.7071 -0.7071 -0.0000
vn -0.7071 -0.7071 -0.0000
vt 0.718578 0.132604
vt 0.718578 0.132604
vt 0.718578 0.132604
vt 0.718578 0.132604
vt 0.718578 0.132604
vt 0.718578 0.132604
vt 0.718578 0.132604
vt 0.718578 0.132604
vt 0.718578 0.132604
vt 0.718578 0.132604
vt 0.718578 0.132604
vt 0.718578 0.132604
vt 0.718578 0.132604
vt 0.718578 0.132604
vt 0.718578 0.132604
vt 0.718578 0.132604
vt 0.718578 0.132604
vt 0.718578 0.132604
vt 0.718578 0.132604
vt 0.718578 0.132604
vt 0.718578 0.132604
vt 0.718578 0.132604
vt 0.718578 0.132604
vt 0.718578 0.132604
vt 0.718578 0.132604
vt 0.718578 0.132604
vt 0.718578 0.132604
vt 0.718578 0.132604
vt 0.718578 0.132604
vt 0.718578 0.132604
vt 0.718578 0.132604
vt 0.718578 0.132604
vt 0.718578 0.132604
vt 0.718578 0.132604
vt 0.718578 0.132604
vt 0.718578 0.132604
vt 0.718578 0.132604
vt 0.718578 0.132604
vt 0.718578 0.132604
vt 0.718578 0.132604
vt 0.718578 0.132604
vt 0.718578 0.132604
vt 0.718578 0.132604
vt 0.718578 0.132604
vt 0.718578 0.132604
vt 0.718578 0.132604
vt 0.718578 0.132604
vt 0.718578 0.132604
vt 0.718578 0.132604
vt 0.718578 0.132604
vt 0.718578 0.132604
vt 0.718578 0.132604
vt 0.718578 0.132604
vt 0.718578 0.132604
vt 0.718578 0.132604
vt 0.718578 0.132604
vt 0.718578 0.132604
vt 0.718578 0.132604
vt 0.718578 0.132604
vt 0.718578 0.132604
vt 0.718578 0.132604
vt 0.718578 0.132604
vt 0.718578 0.132604
vt 0.718578 0.132604
vt 0.718578 0.132604
vt 0.718578 0.132604
vt 0.718578 0.132604
vt 0.718578 0.132604
vt 0.718578 0.132604
vt 0.718578 0.132604
vt 0.718578 0.132604
vt 0.718578 0.132604
vt 0.718578 0.132604
vt 0.718578 0.132604
vt 0.718578 0.132604
vt 0.718578 0.132604
vt 0.718578 0.132604
vt 0.718578 0.132604
vt 0.718578 0.132604
vt 0.718578 0.132604
vt 0.718578 0.132604
vt 0.718578 0.132604
vt 0.718578 0.132604
vt 0.718578 0.132604
vt 0.718578 0.132604
vt 0.718578 0.132604
vt 0.718578 0.132604
vt 0.718578 0.132604
vt 0.527903 0.496900
vt 0.527903 0.496900
vt 0.527903 0.496900
vt 0.527903 0.496900
vt 0.527903 0.496900
vt 0.527903 0.496900
vt 0.527903 0.496900
vt 0.527903 0.496900
vt 0.527903 0.496900
vt 0.527903 0.496900
vt 0.527903 0.496900
vt 0.527903 0.496900
vt 0.527903 0.496900
vt 0.527903 0.496900
vt 0.527903 0.496900
vt 0.527903 0.496900
vt 0.527903 0.496900
vt 0.527903 0.496900
vt 0.527903 0.496900
vt 0.527903 0.496900
vt 0.527903 0.496900
vt 0.527903 0.496900
vt 0.527903 0.496900
vt 0.527903 0.496900
vt 0.527903 0.496900
vt 0.527903 0.496900
vt 0.527903 0.496900
vt 0.527903 0.496900
vt 0.527903 0.496900
vt 0.527903 0.496900
vt 0.527903 0.496900
vt 0.527903 0.496900
vt 0.527903 0.496900
vt 0.527903 0.496900
vt 0.527903 0.496900
vt 0.527903 0.496900
vt 0.527903 0.496900
vt 0.527903 0.496900
vt 0.527903 0.496900
vt 0.527903 0.496900
vt 0.527903 0.496900
vt 0.527903 0.496900
vt 0.527903 0.496900
vt 0.527903 0.496900
vt 0.527903 0.496900
vt 0.527903 0.496900
vt 0.527903 0.496900
vt 0.527903 0.496900
vt 0.527903 0.496900
vt 0.527903 0.496900
vt 0.527903 0.496900
vt 0.527903 0.496900
vt 0.527903 0.496900
vt 0.527903 0.496900
vt 0.527903 0.496900
vt 0.527903 0.496900
vt 0.527903 0.496900
vt 0.527903 0.496900
vt 0.527903 0.496900
vt 0.527903 0.496900
vt 0.527903 0.496900
vt 0.527903 0.496900
vt 0.527903 0.496900
vt 0.527903 0.496900
vt 0.527903 0.496900
vt 0.527903 0.496900
vt 0.527903 0.496900
vt 0.527903 0.496900
vt 0.527903 0.496900
vt 0.527903 0.496900
vt 0.527903 0.496900
vt 0.527903 0.496900
vt 0.527903 0.496900
vt 0.527903 0.496900
vt 0.527903 0.496900
vt 0.527903 0.496900
vt 0.527903 0.496900
vt 0.527903 0.496900
vt 0.527903 0.496900
vt 0.527903 0.496900
vt 0.527903 0.496900
vt 0.527903 0.496900
vt 0.527903 0.496900
vt 0.527903 0.496900
vt 0.527903 0.496900
vt 0.527903 0.496900
vt 0.527903 0.496900
vt 0.527903 0.496900
vt 0.527903 0.496900
vt 0.527903 0.496900
vt 0.527903 0.496900
vt 0.527903 0.496900
vt 0.527903 0.496900
vt 0.527903 0.496900
vt 0.527903 0.496900
vt 0.527903 0.496900
s 1
usemtl Material
f 1/1/1 3/3/1 4/4/1 2/2/1
f 4/4/2 3/3/2 6/6/3 14/14/3
f 1/1/4 2/2/4 11/11/5 8/8/5
f 2/2/6 4/4/6 14/14/7 11/11/7
f 9/9/8 12/12/9 15/15/10 5/5/11
f 6/6/12 8/8/12 10/10/13 7/7/13
f 7/7/14 10/10/14 9/9/8 5/5/11
f 8/8/5 11/11/5 13/13/15 10/10/15
f 10/10/16 13/13/16 12/12/9 9/9/8
f 11/11/7 14/14/7 16/16/17 13/13/17
f 13/13/18 16/16/18 15/15/10 12/12/9
f 14/14/3 6/6/3 7/7/19 16/16/19
f 16/16/20 7/7/20 5/5/11 15/15/10
f 3/3/21 1/1/21 8/8/12 6/6/12
f 18/18/1 17/17/1 20/20/1 19/19/1
f 18/18/4 19/19/4 25/25/4 21/21/4
f 22/22/22 26/26/22 28/28/22 23/23/22
f 19/19/6 20/20/6 27/27/6 25/25/6
f 20/20/2 17/17/2 24/24/2 27/27/2
f 22/22/23 23/23/23 24/24/23 21/21/23
f 26/26/24 22/22/24 21/21/24 25/25/24
f 28/28/25 26/26/25 25/25/25 27/27/25
f 23/23/26 28/28/26 27/27/26 24/24/26
f 17/17/21 18/18/21 21/21/21 24/24/21
f 29/29/27 35/35/28 40/40/29 34/34/27
f 30/30/30 36/36/31 35/35/32 29/29/30
f 31/31/33 37/37/33 36/36/33 30/30/33
f 32/32/34 38/38/35 37/37/36 31/31/34
f 33/33/37 39/39/38 38/38/39 32/32/37
f 34/34/40 40/40/40 39/39/40 33/33/40
f 35/35/28 41/41/41 46/46/41 40/40/29
f 36/36/31 42/42/42 41/41/43 35/35/32
f 37/37/44 43/43/44 42/42/44 36/36/44
f 38/38/35 44/44/45 43/43/45 37/37/36
f 39/39/38 45/45/46 44/44/47 38/38/39
f 40/40/48 46/46/48 45/45/48 39/39/48
f 42/42/42 48/48/49 47/47/50 41/41/43
f 43/43/51 49/49/51 48/48/51 42/42/51
f 44/44/52 50/50/52 49/49/52 43/43/52
f 45/45/46 51/51/53 50/50/54 44/44/47
f 46/46/55 52/52/55 51/51/55 45/45/55
f 47/47/56 53/53/56 58/58/56 52/52/56
f 48/48/49 54/54/57 53/53/58 47/47/50
f 49/49/59 55/55/59 54/54/59 48/48/59
f 50/50/60 56/56/60 55/55/60 49/49/60
f 51/51/53 57/57/61 56/56/62 50/50/54
f 52/52/63 58/58/63 57/57/63 51/51/63
f 54/54/57 60/60/64 59/59/65 53/53/58
f 55/55/66 61/61/67 60/60/68 54/54/66
f 56/56/69 62/62/70 61/61/71 55/55/69
f 57/57/61 63/63/72 62/62/73 56/56/62
f 58/58/74 64/64/75 63/63/76 57/57/74
f 59/59/77 65/65/78 70/70/79 64/64/80
f 60/60/64 66/66/81 65/65/82 59/59/65
f 61/61/67 67/67/83 66/66/84 60/60/68
f 62/62/70 68/68/85 67/67/86 61/61/71
f 63/63/72 69/69/87 68/68/88 62/62/73
f 64/64/75 70/70/89 69/69/90 63/63/76
f 66/66/81 72/72/91 71/71/92 65/65/82
f 67/67/83 73/73/93 72/72/94 66/66/84
f 68/68/85 74/74/95 73/73/96 67/67/86
f 69/69/87 75/75/97 74/74/98 68/68/88
f 70/70/89 76/76/99 75/75/100 69/69/90
f 41/41/101 47/47/101 52/52/101 46/46/101
f 71/71/102 77/77/103 82/82/103 76/76/104
f 72/72/91 78/78/105 77/77/106 71/71/92
f 73/73/93 79/79/107 78/78/107 72/72/94
f 74/74/95 80/80/108 79/79/108 73/73/96
f 75/75/97 81/81/109 80/80/110 74/74/98
f 76/76/99 82/82/111 81/81/111 75/75/100
f 77/77/112 83/83/112 88/88/112 82/82/112
f 78/78/105 84/84/113 83/83/113 77/77/106
f 79/79/114 85/85/114 84/84/114 78/78/114
f 80/80/115 86/86/115 85/85/115 79/79/115
f 81/81/109 87/87/116 86/86/116 80/80/110
f 82/82/117 88/88/117 87/87/117 81/81/117
f 65/65/78 71/71/102 76/76/104 70/70/79
f 53/53/118 59/59/77 64/64/80 58/58/118
f 95/95/2 90/90/2 97/97/2 104/104/2
f 91/91/4 94/94/4 101/101/4 100/100/4
f 93/93/6 96/96/6 103/103/6 102/102/6
f 99/99/22 100/100/22 101/101/22 102/102/22 103/103/22 104/104/22 97/97/22 98/98/22
f 91/91/1 92/92/1 89/89/1 90/90/1 95/95/1 96/96/1 93/93/1 94/94/1
f 89/89/119 98/98/119 97/97/119 90/90/119
f 103/103/120 96/96/120 95/95/120 104/104/120
f 93/93/121 102/102/121 101/101/121 94/94/121
f 99/99/122 92/92/122 91/91/122 100/100/122
f 89/89/21 92/92/21 99/99/21 98/98/21
f 111/111/2 106/106/2 113/113/2 120/120/2
f 107/107/4 110/110/4 117/117/4 116/116/4
f 109/109/6 112/112/6 119/119/6 118/118/6
f 115/115/22 116/116/22 117/117/22 118/118/22 119/119/22 120/120/22 113/113/22 114/114/22
f 107/107/1 108/108/1 105/105/1 106/106/1 111/111/1 112/112/1 109/109/1 110/110/1
f 105/105/119 114/114/119 113/113/119 106/106/119
f 119/119/120 112/112/120 111/111/120 120/120/120
f 109/109/121 118/118/121 117/117/121 110/110/121
f 115/115/122 108/108/122 107/107/122 116/116/122
f 105/105/21 108/108/21 115/115/21 114/114/21
f 127/127/2 122/122/2 129/129/2 136/136/2
f 123/123/4 126/126/4 133/133/4 132/132/4
f 125/125/6 128/128/6 135/135/6 134/134/6
f 131/131/22 132/132/22 133/133/22 134/134/22 135/135/22 136/136/22 129/129/22 130/130/22
f 123/123/1 124/124/1 121/121/1 122/122/1 127/127/1 128/128/1 125/125/1 126/126/1
f 121/121/119 130/130/119 129/129/119 122/122/119
f 135/135/120 128/128/120 127/127/120 136/136/120
f 125/125/121 134/134/121 133/133/121 126/126/121
f 131/131/122 124/124/122 123/123/122 132/132/122
f 121/121/21 124/124/21 131/131/21 130/130/21
f 143/143/2 138/138/2 145/145/2 152/152/2
f 139/139/4 142/142/4 149/149/4 148/148/4
f 141/141/6 144/144/6 151/151/6 150/150/6
f 147/147/22 148/148/22 149/149/22 150/150/22 151/151/22 152/152/22 145/145/22 146/146/22
f 139/139/1 140/140/1 137/137/1 138/138/1 143/143/1 144/144/1 141/141/1 142/142/1
f 137/137/119 146/146/119 145/145/119 138/138/119
f 151/151/120 144/144/120 143/143/120 152/152/120
f 141/141/121 150/150/121 149/149/121 142/142/121
f 147/147/122 140/140/122 139/139/122 148/148/122
f 137/137/21 140/140/21 147/147/21 146/146/21
f 159/159/2 154/154/2 161/161/2 168/168/2
f 155/155/4 158/158/4 165/165/4 164/164/4
f 157/157/6 160/160/6 167/167/6 166/166/6
f 163/163/22 164/164/22 165/165/22 166/166/22 167/167/22 168/168/22 161/161/22 162/162/22
f 155/155/1 156/156/1 153/153/1 154/154/1 159/159/1 160/160/1 157/157/1 158/158/1
f 153/153/119 162/162/119 161/161/119 154/154/119
f 167/167/120 160/160/120 159/159/120 168/168/120
f 157/157/121 166/166/121 165/165/121 158/158/121
f 163/163/122 156/156/122 155/155/122 164/164/122
f 153/153/21 156/156/21 163/163/21 162/162/21
f 175/175/2 170/170/2 177/177/2 184/184/2
f 171/171/4 174/174/4 181/181/4 180/180/4
f 173/173/6 176/176/6 183/183/6 182/182/6
f 179/179/22 180/180/22 181/181/22 182/182/22 183/183/22 184/184/22 177/177/22 178/178/22
f 171/171/1 172/172/1 169/169/1 170/170/1 175/175/1 176/176/1 173/173/1 174/174/1
f 169/169/119 178/178/119 177/177/119 170/170/119
f 183/183/120 176/176/120 175/175/120 184/184/120
f 173/173/121 182/182/121 181/181/121 174/174/121
f 179/179/122 172/172/122 171/171/122 180/180/122
f 169/169/21 172/172/21 179/179/21 178/178/21
