# Blender 3.4.1
# www.blender.org
mtllib homeappliance055.mtl
o home_appliance.054
v -3.264128 -1.175768 0.090686
v -3.264128 2.227913 0.090686
v 3.200930 -1.175768 0.090686
v 3.200930 2.227913 0.090686
v -3.264128 -1.175768 0.090686
v -3.264128 2.199687 0.090686
v -3.377274 -1.539584 -0.090686
v -3.377274 2.292715 -0.090686
v 3.200930 -1.175768 0.090686
v 3.200930 2.199687 0.090686
v 3.314077 -1.539584 -0.090686
v 3.314077 2.292715 -0.090686
v -3.377274 -1.539584 0.090686
v -3.377274 2.292715 0.090686
v 3.314077 2.292715 0.090686
v 3.314077 -1.539584 0.090686
v 2.423434 -1.539584 -0.025719
v 2.612999 -1.539584 -0.025719
v 2.423434 -1.539584 0.051451
v 2.612999 -1.539584 0.051451
v 3.345595 -2.292715 -0.025719
v 3.345595 -2.292715 0.051451
v 3.418453 -2.292715 -0.025719
v 3.418453 -2.292715 0.051451
v -2.423435 -1.539584 0.051451
v -2.613000 -1.539584 0.051451
v -2.423435 -1.539584 -0.025719
v -2.613000 -1.539584 -0.025719
v -3.345596 -2.292715 0.051451
v -3.345596 -2.292715 -0.025719
v -3.418453 -2.292715 0.051451
v -3.418453 -2.292715 -0.025718
vn -0.0000 -0.0000 1.0000
vn -1.0000 -0.0000 -0.0000
vn -0.0000 -0.0000 -1.0000
vn 1.0000 -0.0000 -0.0000
vn -0.0000 -1.0000 -0.0000
vn -0.0000 1.0000 -0.0000
vn 0.6830 0.7304 -0.0000
vn -0.6326 -0.7745 -0.0000
vn -0.6830 0.7304 -0.0000
vn 0.6326 -0.7745 -0.0000
vt 0.710938 0.089844
vt 0.710938 0.089844
vt 0.710938 0.089844
vt 0.710938 0.089844
vt 0.804688 0.093750
vt 0.804688 0.093750
vt 0.804688 0.093750
vt 0.804688 0.093750
vt 0.804688 0.093750
vt 0.804688 0.093750
vt 0.804688 0.093750
vt 0.804688 0.093750
vt 0.804688 0.093750
vt 0.804688 0.093750
vt 0.804688 0.093750
vt 0.804688 0.093750
vt 0.804688 0.093750
vt 0.804688 0.093750
vt 0.804688 0.093750
vt 0.804688 0.093750
vt 0.804688 0.093750
vt 0.804688 0.093750
vt 0.804688 0.093750
vt 0.804688 0.093750
vt 0.804688 0.093750
vt 0.804688 0.093750
vt 0.804688 0.093750
vt 0.804688 0.093750
vt 0.804688 0.093750
vt 0.804688 0.093750
vt 0.804688 0.093750
vt 0.804688 0.093750
s 1
usemtl Material
f 3/3/1 4/4/1 2/2/1 1/1/1
f 13/13/2 14/14/2 8/8/2 7/7/2
f 7/7/3 8/8/3 12/12/3 11/11/3
f 11/11/4 12/12/4 15/15/4 16/16/4
f 7/7/5 11/11/5 16/16/5 13/13/5
f 12/12/6 8/8/6 14/14/6 15/15/6
f 5/5/1 6/6/1 14/14/1 13/13/1
f 10/10/1 9/9/1 16/16/1 15/15/1
f 9/9/1 5/5/1 13/13/1 16/16/1
f 6/6/1 10/10/1 15/15/1 14/14/1
f 17/17/6 19/19/6 20/20/6 18/18/6
f 21/21/5 23/23/5 24/24/5 22/22/5
f 20/20/1 19/19/1 22/22/1 24/24/1
f 17/17/3 18/18/3 23/23/3 21/21/3
f 18/18/7 20/20/7 24/24/7 23/23/7
f 19/19/8 17/17/8 21/21/8 22/22/8
f 25/25/6 27/27/6 28/28/6 26/26/6
f 29/29/5 31/31/5 32/32/5 30/30/5
f 28/28/3 27/27/3 30/30/3 32/32/3
f 25/25/1 26/26/1 31/31/1 29/29/1
f 26/26/9 28/28/9 32/32/9 31/31/9
f 27/27/10 25/25/10 29/29/10 30/30/10
