# Blender 3.4.1
# www.blender.org
mtllib homeappliance058.mtl
o home_appliance.057
v -1.558215 -0.669579 0.300116
v -1.558215 1.110716 0.300116
v 1.558215 1.110716 0.300116
v -1.558215 -0.669579 0.300116
v -1.558215 1.092491 0.300116
v -0.982447 -0.289840 -0.020229
v -0.982447 0.537917 -0.020229
v 1.558215 -0.669579 0.300116
v 1.558215 1.092491 0.300116
v 0.982447 -0.289840 -0.020229
v 0.982447 0.537917 -0.020229
v -1.631269 -0.904478 0.300116
v -1.631269 1.152555 0.300116
v 1.631269 1.152555 0.300116
v 1.631269 -0.904478 0.300116
v -1.631269 1.152555 0.183013
v -1.631269 -0.904478 0.183013
v 1.631269 -0.904478 0.183013
v 1.631269 1.152555 0.183013
v -0.214556 -0.099096 -0.020229
v -0.214556 0.347173 -0.020229
v 0.214551 -0.099096 -0.020229
v 0.214551 0.347173 -0.020229
v -0.214556 0.347173 -0.159401
v -0.214556 -0.099096 -0.159401
v 0.214551 -0.099096 -0.159401
v 0.214551 0.347173 -0.159401
v -0.214556 -1.152555 -0.159401
v -0.214556 -0.099096 -0.265586
v 0.214551 -0.099096 -0.265586
v 0.214551 -1.152555 -0.159401
v 0.214551 -1.077132 -0.159401
v -0.214556 -1.077132 -0.159401
v 0.214551 -1.077132 -0.265586
v -0.214556 -1.077132 -0.265586
v 0.214551 -1.152555 -0.265586
v -0.214556 -1.152555 -0.265586
v 0.654409 -1.113525 -0.403069
v 0.654409 -1.152555 -0.403069
v 0.654409 -1.152555 0.403069
v -0.654415 -1.152555 -0.403069
v -0.654415 -1.152555 0.403069
v 0.654409 -1.113525 0.403069
v -0.654415 -1.113525 0.403069
v -0.654415 -1.113525 -0.403069
vn -0.0000 -0.0000 1.0000
vn -1.0000 -0.0000 -0.0000
vn -0.5502 -0.0000 -0.8351
vn -0.0000 -0.0000 -1.0000
vn 0.5502 -0.0000 -0.8351
vn 1.0000 -0.0000 -0.0000
vn -0.0000 -0.5645 -0.8254
vn -0.0000 -1.0000 -0.0000
vn -0.0000 0.5645 -0.8254
vn -0.0000 1.0000 -0.0000
vn -0.2989 -0.0000 -0.9543
vn -0.0000 -0.3139 -0.9494
vn -0.0000 0.3139 -0.9494
vn 0.2989 -0.0000 -0.9543
vn -0.0000 0.4331 -0.9013
vn -0.0000 0.2315 -0.9728
vn -0.0545 0.9983 0.0220
vn -0.0531 0.9942 -0.0932
vn -0.0044 0.9701 -0.2427
vn -0.0011 0.9980 0.0637
vn 0.0531 0.9942 -0.0932
vn 0.0044 0.9701 -0.2427
vn 0.0545 0.9983 0.0220
vn 0.0011 0.9980 0.0637
vt 0.710938 0.089844
vt 0.710938 0.089844
vt 0.710938 0.089844
vt 0.820312 0.113281
vt 0.820312 0.113281
vt 0.820312 0.113281
vt 0.820312 0.113281
vt 0.710938 0.089844
vt 0.820312 0.113281
vt 0.820312 0.113281
vt 0.820312 0.113281
vt 0.820312 0.113281
vt 0.820312 0.113281
vt 0.820312 0.113281
vt 0.820312 0.113281
vt 0.820312 0.113281
vt 0.820312 0.113281
vt 0.820312 0.113281
vt 0.820312 0.113281
vt 0.820312 0.113281
vt 0.820312 0.113281
vt 0.820312 0.113281
vt 0.820312 0.113281
vt 0.820312 0.113281
vt 0.820312 0.113281
vt 0.820312 0.113281
vt 0.820312 0.113281
vt 0.820312 0.113281
vt 0.820312 0.113281
vt 0.820312 0.113281
vt 0.820312 0.113281
vt 0.820312 0.113281
vt 0.820312 0.113281
vt 0.820312 0.113281
vt 0.820312 0.113281
vt 0.820312 0.113281
vt 0.820312 0.113281
vt 0.820312 0.113281
vt 0.820312 0.113281
vt 0.820312 0.113281
vt 0.820312 0.113281
vt 0.820312 0.113281
vt 0.820312 0.113281
vt 0.820312 0.113281
vt 0.820312 0.113281
vt 0.820312 0.113281
s 1
usemtl Material
f 8/8/1 3/3/1 2/2/1 1/1/1
f 12/13/2 13/14/2 16/17/3 17/18/3
f 6/6/4 7/7/4 11/12/4 10/11/4
f 18/19/5 19/20/5 14/15/6 15/16/6
f 17/18/7 18/19/7 15/16/8 12/13/8
f 19/20/9 16/17/9 13/14/10 14/15/10
f 4/4/1 5/5/1 13/14/1 12/13/1
f 9/10/1 8/9/1 15/16/1 14/15/1
f 8/9/1 4/4/1 12/13/1 15/16/1
f 5/5/1 9/10/1 14/15/1 13/14/1
f 7/7/11 6/6/11 17/18/3 16/17/3
f 6/6/12 10/11/12 18/19/7 17/18/7
f 11/12/13 7/7/13 16/17/9 19/20/9
f 10/11/14 11/12/14 19/20/5 18/19/5
f 20/21/1 22/23/1 23/24/1 21/22/1
f 24/25/15 27/28/15 30/31/16 29/30/16
f 21/22/10 23/24/10 27/28/15 24/25/15
f 20/21/2 21/22/2 24/25/2 25/26/2
f 23/24/6 22/23/6 26/27/6 27/28/6
f 22/23/8 20/21/8 25/26/8 26/27/8
f 31/32/8 28/29/8 37/38/8 36/37/8
f 25/26/2 24/25/2 29/30/2
f 27/28/6 26/27/6 30/31/6
f 30/31/6 26/27/6 32/33/6 34/35/6
f 33/34/17 35/36/18 45/46/19 44/45/20
f 29/30/4 30/31/4 34/35/4 35/36/4
f 25/26/2 29/30/2 35/36/2 33/34/2
f 26/27/1 25/26/1 33/34/1 32/33/1
f 37/38/8 28/29/8 42/43/8 41/42/8
f 28/29/8 31/32/8 40/41/8 42/43/8
f 35/36/18 34/35/21 38/39/22 45/46/19
f 45/46/4 38/39/4 39/40/4 41/42/4
f 44/45/2 45/46/2 41/42/2 42/43/2
f 43/44/1 44/45/1 42/43/1 40/41/1
f 38/39/6 43/44/6 40/41/6 39/40/6
f 32/33/23 33/34/17 44/45/20 43/44/24
f 36/37/8 37/38/8 41/42/8 39/40/8
f 31/32/8 36/37/8 39/40/8 40/41/8
f 34/35/21 32/33/23 43/44/24 38/39/22
