# Blender 3.4.1
# www.blender.org
mtllib homeappliance066.mtl
o home_appliance.065
v -3.230433 1.753555 0.139661
v 3.234625 1.753555 0.139661
v -3.234625 1.753555 -0.139661
v 3.230433 1.753555 -0.139661
v -3.230433 2.103582 0.139661
v 3.234625 2.103582 0.139661
v -3.234625 2.103582 -0.139661
v 3.230433 2.103582 -0.139661
v -3.230433 -2.103582 0.023028
v -3.230433 1.753555 0.023028
v 3.234625 -2.103582 0.023028
v 3.234625 1.753555 0.023028
v -3.081143 -1.560927 0.023028
v -3.081143 1.394065 0.023028
v 3.085335 1.394065 0.023028
v 3.085335 -1.560927 0.023028
v -3.234625 -2.103582 -0.023028
v -3.234625 1.753555 -0.023028
v 3.230433 -2.103582 -0.023028
v 3.230433 1.753555 -0.023028
vn -0.0000 -1.0000 -0.0000
vn -0.0000 1.0000 -0.0000
vn -0.0000 -0.0000 -1.0000
vn -0.9999 -0.0000 0.0150
vn -0.0000 -0.0000 1.0000
vn 0.9999 -0.0000 -0.0150
vn 0.9959 -0.0000 -0.0906
vn -0.9959 -0.0000 0.0906
vt 0.490810 0.099145
vt 0.490810 0.099145
vt 0.490810 0.099145
vt 0.490810 0.099145
vt 0.490810 0.099145
vt 0.490810 0.099145
vt 0.490810 0.099145
vt 0.490810 0.099145
vt 0.810150 0.111547
vt 0.810150 0.111547
vt 0.810150 0.111547
vt 0.810150 0.111547
vt 0.422601 0.108446
vt 0.810150 0.111547
vt 0.422601 0.108446
vt 0.810150 0.111547
vt 0.422601 0.108446
vt 0.810150 0.111547
vt 0.422601 0.108446
vt 0.810150 0.111547
vt 0.810150 0.111547
vt 0.810150 0.111547
vt 0.810150 0.111547
vt 0.810150 0.111547
s 1
usemtl Material
f 1/1/1 3/3/1 4/4/1 2/2/1
f 5/5/2 6/6/2 8/8/2 7/7/2
f 4/4/3 3/3/3 7/7/3 8/8/3
f 3/3/4 1/1/4 5/5/4 7/7/4
f 1/1/5 2/2/5 6/6/5 5/5/5
f 2/2/6 4/4/6 8/8/6 6/6/6
f 16/19/5 15/17/5 14/15/5 13/13/5
f 13/14/5 14/16/5 10/10/5 9/9/5
f 15/18/5 16/20/5 11/11/5 12/12/5
f 16/20/5 13/14/5 9/9/5 11/11/5
f 14/16/5 15/18/5 12/12/5 10/10/5
f 10/10/2 12/12/2 20/24/2 18/22/2
f 12/12/7 11/11/7 19/23/7 20/24/7
f 11/11/1 9/9/1 17/21/1 19/23/1
f 9/9/8 10/10/8 18/22/8 17/21/8
f 17/21/3 18/22/3 20/24/3 19/23/3
