# Blender 3.4.1
# www.blender.org
mtllib homeappliance061.mtl
o home_appliance.060
v -1.558215 -0.670277 0.339719
v -1.558215 1.110018 0.339719
v 1.558215 1.110018 0.339719
v -1.558215 -0.670277 0.339719
v -1.558215 1.091793 0.339719
v -0.982447 -0.290538 0.019374
v -0.982447 0.537219 0.019374
v 1.558215 -0.670277 0.339719
v 1.558215 1.091793 0.339719
v 0.982447 -0.290538 0.019374
v 0.982447 0.537220 0.019374
v -1.631269 -0.905176 0.339719
v -1.631269 1.151857 0.339719
v 1.631269 1.151857 0.339719
v 1.631269 -0.905176 0.339719
v -1.631269 1.151857 0.222616
v -1.631269 -0.905176 0.222616
v 1.631269 -0.905176 0.222616
v 1.631269 1.151857 0.222616
v -0.214557 -0.099794 0.019374
v -0.214557 0.346475 0.019374
v 0.214550 -0.099794 0.019374
v 0.214550 0.346475 0.019374
v -0.214557 0.346475 -0.119798
v -0.214557 -0.099794 -0.119798
v 0.214550 -0.099794 -0.119798
v 0.214550 0.346475 -0.119798
v -0.214557 -0.099794 -0.225983
v 0.214550 -0.099794 -0.225983
v 0.214550 -1.077829 -0.119798
v -0.214557 -1.077829 -0.119798
v 0.214550 -1.077829 -0.225983
v -0.214557 -1.077829 -0.225983
v 0.009683 -1.151857 -0.755714
v -0.368174 -1.151857 -0.654467
v -0.644784 -1.151857 -0.377857
v -0.746031 -1.151857 0.000000
v -0.644784 -1.151857 0.377857
v -0.368174 -1.151857 0.654468
v 0.009683 -1.151857 0.755714
v 0.387540 -1.151857 0.654468
v 0.664151 -1.151857 0.377857
v 0.765397 -1.151857 0.000000
v 0.664151 -1.151857 -0.377857
v 0.387541 -1.151857 -0.654467
v 0.009683 -1.057721 -0.755714
v -0.368174 -1.057721 -0.654467
v -0.644784 -1.057721 -0.377857
v -0.746031 -1.057721 0.000000
v -0.644784 -1.057721 0.377857
v -0.368174 -1.057721 0.654468
v 0.009683 -1.057721 0.755714
v 0.387540 -1.057721 0.654468
v 0.664151 -1.057721 0.377857
v 0.765397 -1.057721 0.000000
v 0.664151 -1.057721 -0.377857
v 0.387541 -1.057721 -0.654467
vn -0.0000 -0.0000 1.0000
vn -1.0000 -0.0000 -0.0000
vn -0.5502 -0.0000 -0.8351
vn -0.0000 -0.0000 -1.0000
vn 0.5502 -0.0000 -0.8351
vn 1.0000 -0.0000 -0.0000
vn -0.0000 -0.5645 -0.8254
vn -0.0000 -1.0000 -0.0000
vn -0.0000 0.5645 -0.8254
vn -0.0000 1.0000 -0.0000
vn -0.2989 -0.0000 -0.9543
vn -0.0000 -0.3139 -0.9494
vn -0.0000 0.3139 -0.9494
vn 0.2989 -0.0000 -0.9543
vn -0.0000 0.4331 -0.9013
vn -0.0000 0.2315 -0.9728
vn -0.3898 -0.0000 -0.9209
vn -0.8446 -0.0000 -0.5354
vn 0.8446 -0.0000 0.5354
vn -0.3898 -0.0000 0.9209
vn -0.2588 -0.0000 0.9659
vn 0.8446 -0.0000 -0.5354
vn 0.2588 -0.0000 0.9659
vn 0.3898 -0.0000 0.9209
vn -0.8446 -0.0000 0.5354
vn 0.3898 -0.0000 -0.9209
vn -0.2588 -0.0000 -0.9659
vn 0.2588 -0.0000 -0.9659
vt 0.710938 0.089844
vt 0.710938 0.089844
vt 0.710938 0.089844
vt 0.820312 0.113281
vt 0.820312 0.113281
vt 0.820312 0.113281
vt 0.820312 0.113281
vt 0.710938 0.089844
vt 0.820312 0.113281
vt 0.820312 0.113281
vt 0.820312 0.113281
vt 0.820312 0.113281
vt 0.820312 0.113281
vt 0.820312 0.113281
vt 0.820312 0.113281
vt 0.820312 0.113281
vt 0.820312 0.113281
vt 0.820312 0.113281
vt 0.820312 0.113281
vt 0.820312 0.113281
vt 0.820312 0.113281
vt 0.820312 0.113281
vt 0.820312 0.113281
vt 0.820312 0.113281
vt 0.820312 0.113281
vt 0.820312 0.113281
vt 0.820312 0.113281
vt 0.820312 0.113281
vt 0.820312 0.113281
vt 0.820312 0.113281
vt 0.820312 0.113281
vt 0.820312 0.113281
vt 0.820312 0.113281
vt 0.820312 0.113281
vt 0.823917 0.110987
vt 0.823917 0.110987
vt 0.823917 0.110987
vt 0.823917 0.110987
vt 0.823917 0.110987
vt 0.823917 0.110987
vt 0.823917 0.110987
vt 0.823917 0.110987
vt 0.823917 0.110987
vt 0.823917 0.110987
vt 0.823917 0.110987
vt 0.823917 0.110987
vt 0.823917 0.110987
vt 0.823917 0.110987
vt 0.823917 0.110987
vt 0.823917 0.110987
vt 0.823917 0.110987
vt 0.823917 0.110987
vt 0.823917 0.110987
vt 0.823917 0.110987
vt 0.823917 0.110987
vt 0.823917 0.110987
vt 0.823917 0.110987
vt 0.823917 0.110987
s 1
usemtl Material
f 8/8/1 3/3/1 2/2/1 1/1/1
f 12/13/2 13/14/2 16/17/3 17/18/3
f 6/6/4 7/7/4 11/12/4 10/11/4
f 18/19/5 19/20/5 14/15/6 15/16/6
f 17/18/7 18/19/7 15/16/8 12/13/8
f 19/20/9 16/17/9 13/14/10 14/15/10
f 4/4/1 5/5/1 13/14/1 12/13/1
f 9/10/1 8/9/1 15/16/1 14/15/1
f 8/9/1 4/4/1 12/13/1 15/16/1
f 5/5/1 9/10/1 14/15/1 13/14/1
f 7/7/11 6/6/11 17/18/3 16/17/3
f 6/6/12 10/11/12 18/19/7 17/18/7
f 11/12/13 7/7/13 16/17/9 19/20/9
f 10/11/14 11/12/14 19/20/5 18/19/5
f 20/21/1 22/23/1 23/24/1 21/22/1
f 24/25/15 27/28/15 29/30/16 28/29/16
f 21/22/10 23/24/10 27/28/15 24/25/15
f 20/21/2 21/22/2 24/25/2 25/26/2
f 23/24/6 22/23/6 26/27/6 27/28/6
f 22/23/8 20/21/8 25/26/8 26/27/8
f 25/26/2 24/25/2 28/29/2
f 27/28/6 26/27/6 29/30/6
f 29/30/6 26/27/6 30/31/6 32/33/6
f 28/29/4 29/30/4 32/33/4 33/34/4
f 25/26/2 28/29/2 33/34/2 31/32/2
f 26/27/1 25/26/1 31/32/1 30/31/1
f 35/36/17 36/37/18 48/49/18 47/48/17
f 42/43/19 43/44/6 55/56/6 54/55/19
f 39/40/20 40/41/21 52/53/21 51/52/20
f 36/37/18 37/38/2 49/50/2 48/49/18
f 43/44/6 44/45/22 56/57/22 55/56/6
f 40/41/23 41/42/24 53/54/24 52/53/23
f 37/38/2 38/39/25 50/51/25 49/50/2
f 44/45/22 45/46/26 57/58/26 56/57/22
f 34/35/27 35/36/17 47/48/17 46/47/27
f 41/42/24 42/43/19 54/55/19 53/54/24
f 38/39/25 39/40/20 51/52/20 50/51/25
f 45/46/26 34/35/28 46/47/28 57/58/26
f 47/48/10 48/49/10 49/50/10 50/51/10 51/52/10 52/53/10 53/54/10 54/55/10 55/56/10 56/57/10 57/58/10 46/47/10
f 35/36/8 34/35/8 45/46/8 44/45/8 43/44/8 42/43/8 41/42/8 40/41/8 39/40/8 38/39/8 37/38/8 36/37/8
