# Blender 3.4.1
# www.blender.org
mtllib homeappliance023.mtl
o home_appliance.022
v -0.336188 -0.227079 -0.061757
v 0.580629 -0.227079 -0.061757
v -0.336188 0.393295 -0.061757
v 0.580629 0.393295 -0.061757
v -0.319825 0.376933 0.009878
v -0.336188 0.393295 -0.006485
v -0.331395 0.388503 0.005086
v -0.336188 -0.227079 -0.006485
v -0.319825 -0.210716 0.009878
v -0.331395 -0.222287 0.005086
v 0.580629 -0.227079 -0.006485
v 0.564266 -0.210716 0.009878
v 0.575836 -0.222287 0.005086
v 0.580629 0.393295 -0.006485
v 0.564266 0.376933 0.009878
v 0.575836 0.388503 0.005086
v -0.064933 0.216008 0.009878
v -0.064933 -0.030671 0.009878
v 0.546185 -0.030671 0.009878
v 0.546185 0.216008 0.009878
v -0.064933 0.216008 0.028249
v -0.064933 -0.030671 0.028249
v 0.546185 -0.030671 0.028249
v 0.546185 0.216008 0.028249
v -0.280273 0.376933 0.003962
v -0.280273 -0.210716 0.003962
v -0.089435 -0.210716 0.003962
v -0.089435 0.376933 0.003962
v -0.280273 -0.210716 0.061462
v -0.266754 -0.197197 0.074981
v -0.266754 0.363414 0.074981
v -0.280273 0.376933 0.061462
v -0.089435 -0.210716 0.061462
v -0.102954 -0.197197 0.074981
v -0.089435 0.376933 0.061462
v -0.102954 0.363414 0.074981
v -0.174887 -0.197911 0.053936
v -0.192735 -0.196715 0.054160
v -0.201755 -0.193936 0.038840
v -0.192830 -0.192375 0.023367
v -0.174981 -0.193564 0.023145
v -0.165961 -0.196338 0.038466
v -0.160184 -0.444119 -0.022885
v -0.176983 -0.438729 -0.023222
v -0.185083 -0.435018 -0.037818
v -0.177346 -0.436385 -0.053497
v -0.160096 -0.441812 -0.054755
v -0.150907 -0.445890 -0.038965
v -0.233056 -0.550202 -0.022811
v -0.241325 -0.533266 -0.023544
v -0.244719 -0.526346 -0.037796
v -0.242170 -0.531718 -0.052524
v -0.234047 -0.548315 -0.055618
v -0.229022 -0.558541 -0.039873
v -0.411143 -0.515696 -0.023176
v -0.401403 -0.500624 -0.023031
v -0.396507 -0.492990 -0.037705
v -0.400493 -0.499211 -0.053266
v -0.410113 -0.514106 -0.055179
v -0.415926 -0.523084 -0.039790
v -0.496930 -0.403440 -0.023066
v -0.478534 -0.402627 -0.023281
v -0.470084 -0.402244 -0.037774
v -0.476874 -0.402553 -0.052936
v -0.494985 -0.403354 -0.055298
v -0.505869 -0.403835 -0.039792
v -0.484078 -0.246767 -0.024421
v -0.465976 -0.247775 -0.022114
v -0.455147 -0.248379 -0.037593
v -0.464038 -0.247883 -0.054284
v -0.482414 -0.246859 -0.054122
v -0.490912 -0.246390 -0.039612
v -0.438018 -0.119825 -0.023508
v -0.420418 -0.116611 -0.022797
v -0.410995 -0.114874 -0.037674
v -0.418696 -0.116294 -0.053536
v -0.436222 -0.119499 -0.054882
v -0.446226 -0.121316 -0.039750
v -0.449582 0.141752 -0.022942
v -0.431528 0.138568 -0.023310
v -0.423286 0.137043 -0.037768
v -0.429921 0.138283 -0.052911
v -0.447648 0.141411 -0.055407
v -0.458549 0.143331 -0.039809
v -0.404038 0.269730 -0.022771
v -0.388328 0.258909 -0.023631
v -0.382181 0.254728 -0.037890
v -0.386985 0.257982 -0.052458
v -0.402358 0.268576 -0.055590
v -0.411714 0.275010 -0.039814
v -0.318387 0.310835 -0.023547
v -0.319079 0.293399 -0.022546
v -0.319373 0.283322 -0.037619
v -0.319137 0.291624 -0.053849
v -0.318468 0.309063 -0.054824
v -0.317974 0.319109 -0.039760
v -0.024753 -0.084628 0.007757
v -0.024753 -0.123265 0.007757
v 0.056410 -0.123265 0.007757
v 0.056410 -0.084628 0.007757
v -0.024753 -0.084628 0.026128
v -0.024753 -0.123265 0.026128
v 0.056410 -0.123265 0.026128
v 0.056410 -0.084628 0.026128
v 0.090723 -0.084628 0.007757
v 0.090723 -0.123265 0.007757
v 0.171886 -0.123265 0.007757
v 0.171886 -0.084628 0.007757
v 0.090723 -0.084628 0.026128
v 0.090723 -0.123265 0.026128
v 0.171886 -0.123265 0.026128
v 0.171886 -0.084628 0.026128
v 0.203604 -0.084628 0.007757
v 0.203604 -0.123265 0.007757
v 0.284767 -0.123265 0.007757
v 0.284767 -0.084628 0.007757
v 0.203604 -0.084628 0.026128
v 0.203604 -0.123265 0.026128
v 0.284767 -0.123265 0.026128
v 0.284767 -0.084628 0.026128
v 0.319080 -0.084628 0.007757
v 0.319080 -0.123265 0.007757
v 0.400243 -0.123265 0.007757
v 0.400243 -0.084628 0.007757
v 0.319080 -0.084628 0.026128
v 0.319080 -0.123265 0.026128
v 0.400243 -0.123265 0.026128
v 0.400243 -0.084628 0.026128
v 0.431961 -0.084628 0.007757
v 0.431961 -0.123265 0.007757
v 0.513124 -0.123265 0.007757
v 0.513124 -0.084628 0.007757
v 0.431961 -0.084628 0.026128
v 0.431961 -0.123265 0.026128
v 0.513124 -0.123265 0.026128
v 0.513124 -0.084628 0.026128
v -0.024753 0.308675 0.007757
v -0.024753 0.270037 0.007757
v 0.056410 0.270037 0.007757
v 0.056410 0.308675 0.007757
v -0.024753 0.308675 0.026128
v -0.024753 0.270037 0.026128
v 0.056410 0.270037 0.026128
v 0.056410 0.308675 0.026128
v 0.090723 0.308675 0.007757
v 0.090723 0.270037 0.007757
v 0.171886 0.270037 0.007757
v 0.171886 0.308675 0.007757
v 0.090723 0.308675 0.026128
v 0.090723 0.270037 0.026128
v 0.171886 0.270037 0.026128
v 0.171886 0.308675 0.026128
v 0.203604 0.308675 0.007757
v 0.203604 0.270037 0.007757
v 0.284767 0.270037 0.007757
v 0.284767 0.308675 0.007757
v 0.203604 0.308675 0.026128
v 0.203604 0.270037 0.026128
v 0.284767 0.270037 0.026128
v 0.284767 0.308675 0.026128
v 0.319080 0.308675 0.007757
v 0.319080 0.270037 0.007757
v 0.400243 0.270037 0.007757
v 0.400243 0.308675 0.007757
v 0.319080 0.308675 0.026128
v 0.319080 0.270037 0.026128
v 0.400243 0.270037 0.026128
v 0.400243 0.308675 0.026128
v 0.431961 0.308675 0.007757
v 0.431961 0.270037 0.007757
v 0.513124 0.270037 0.007757
v 0.513124 0.308675 0.007757
v 0.431961 0.308675 0.026128
v 0.431961 0.270037 0.026128
v 0.513124 0.270037 0.026128
v 0.513124 0.308675 0.026128
vn -0.0000 -0.0000 -1.0000
vn -0.0000 1.0000 -0.0000
vn -0.0000 0.9856 0.1693
vn -0.0000 -1.0000 -0.0000
vn -0.0000 -0.9856 0.1693
vn 1.0000 -0.0000 -0.0000
vn 0.9856 -0.0000 0.1693
vn -0.1481 -0.1481 0.9778
vn 0.1481 -0.1481 0.9778
vn 0.1481 0.1481 0.9778
vn -0.1481 0.1481 0.9778
vn -0.9856 -0.0000 0.1693
vn -0.9239 -0.0000 0.3827
vn -0.3827 -0.0000 0.9239
vn -0.0000 -0.9239 0.3827
vn -0.0000 -0.3827 0.9239
vn 0.9239 -0.0000 0.3827
vn 0.3827 -0.0000 0.9239
vn -0.0000 0.9239 0.3827
vn -0.0000 0.3827 0.9239
vn -1.0000 -0.0000 -0.0000
vn -0.0000 -0.0000 1.0000
vn -0.7071 -0.0000 0.7071
vn -0.0000 -0.7071 0.7071
vn 0.7071 -0.0000 0.7071
vn -0.0000 0.7071 0.7071
vn 0.8613 -0.1031 0.4975
vn 0.8197 -0.3030 0.4861
vn 0.8118 -0.3278 0.4832
vn -0.0609 -0.3041 0.9507
vn -0.0449 -0.1480 0.9880
vn -0.0443 -0.1417 0.9889
vn -0.8682 -0.2027 0.4529
vn -0.8784 0.0903 -0.4693
vn -0.8426 0.3250 -0.4294
vn -0.8496 0.2973 -0.4356
vn 0.0165 0.3008 -0.9535
vn -0.0473 0.1853 -0.9815
vn -0.0443 0.1909 -0.9806
vn 0.8645 0.1964 -0.4627
vn 0.7341 -0.5085 0.4500
vn -0.0111 0.0178 0.9998
vn -0.0126 0.0177 0.9998
vn -0.7336 0.4886 0.4723
vn -0.7722 0.5129 -0.3749
vn -0.0423 0.1118 -0.9928
vn -0.0354 0.1159 -0.9926
vn 0.6976 -0.4798 -0.5321
vn 0.0028 0.0101 0.9999
vn 0.0027 0.0099 0.9999
vn 0.1858 0.8738 0.4493
vn 0.1947 0.9129 -0.3587
vn 0.0695 0.1189 -0.9905
vn 0.0685 0.1199 -0.9904
vn -0.1616 -0.8381 -0.5210
vn -0.7211 -0.5475 0.4246
vn -0.0241 0.0033 0.9997
vn -0.0337 0.0039 0.9994
vn 0.6904 0.5520 0.4676
vn 0.7230 0.5791 -0.3767
vn 0.0785 0.0301 -0.9965
vn 0.0859 0.0445 -0.9953
vn -0.6779 -0.5155 -0.5242
vn -0.0729 0.0185 0.9972
vn -0.0700 0.0161 0.9974
vn 0.8383 -0.0770 0.5397
vn 0.8249 -0.1803 0.5357
vn 0.8268 -0.1695 0.5364
vn 0.8940 -0.0821 -0.4406
vn 0.8809 -0.1814 -0.4371
vn 0.8792 -0.1907 -0.4366
vn 0.0484 -0.0084 -0.9988
vn 0.0457 -0.0090 -0.9989
vn -0.8377 0.0758 -0.5409
vn -0.8331 0.1793 -0.5232
vn -0.8321 0.1905 -0.5210
vn -0.8833 0.2008 0.4237
vn -0.8898 0.1183 0.4407
vn -0.8875 0.1519 0.4351
vn -0.8846 0.1913 0.4253
vn -0.0389 0.0110 0.9992
vn -0.0551 0.0174 0.9983
vn 0.8439 -0.0991 0.5273
vn 0.8383 -0.1337 0.5285
vn 0.8919 -0.1391 -0.4303
vn 0.8964 -0.1092 -0.4295
vn 0.0640 -0.0051 -0.9979
vn 0.0798 -0.0015 -0.9968
vn -0.8330 0.1469 -0.5334
vn -0.8340 0.1081 -0.5411
vn 0.0108 -0.0056 0.9999
vn 0.0115 -0.0058 0.9999
vn 0.8554 -0.1264 0.5023
vn 0.8551 -0.1300 0.5019
vn 0.9032 -0.1362 -0.4071
vn 0.9035 -0.1330 -0.4074
vn 0.1279 -0.0237 -0.9915
vn 0.1273 -0.0228 -0.9916
vn -0.8095 0.1215 -0.5744
vn -0.8100 0.1186 -0.5743
vn -0.1712 -0.8912 0.4200
vn -0.8727 0.1284 0.4711
vn -0.8325 0.2959 0.4684
vn -0.8723 0.1309 0.4711
vn 0.0131 -0.0034 0.9999
vn 0.0161 -0.0046 0.9999
vn 0.8302 -0.2932 0.4742
vn 0.8713 -0.3079 -0.3820
vn 0.1051 -0.0810 -0.9912
vn 0.0972 -0.0865 -0.9915
vn -0.7728 0.2746 -0.5721
vn -0.3881 0.8207 0.4193
vn -0.0035 0.0031 1.0000
vn 0.3778 -0.8009 0.4646
vn 0.3963 -0.8387 -0.3735
vn 0.0533 -0.1174 -0.9917
vn -0.3657 0.7731 -0.5182
vn -0.8936 0.0808 0.4415
vt 0.406988 0.096949
vt 0.406988 0.096949
vt 0.406988 0.096949
vt 0.406988 0.096949
vt 0.406988 0.096949
vt 0.406988 0.096949
vt 0.406988 0.096949
vt 0.406988 0.096949
vt 0.406988 0.096949
vt 0.406988 0.096949
vt 0.406988 0.096949
vt 0.406988 0.096949
vt 0.406988 0.096949
vt 0.406988 0.096949
vt 0.406988 0.096949
vt 0.406988 0.096949
vt 0.810039 0.100049
vt 0.810039 0.100049
vt 0.810039 0.100049
vt 0.810039 0.100049
vt 0.810039 0.100049
vt 0.810039 0.100049
vt 0.810039 0.100049
vt 0.810039 0.100049
vt 0.406988 0.096949
vt 0.406988 0.096949
vt 0.406988 0.096949
vt 0.406988 0.096949
vt 0.406988 0.096949
vt 0.406988 0.096949
vt 0.406988 0.096949
vt 0.406988 0.096949
vt 0.406988 0.096949
vt 0.406988 0.096949
vt 0.406988 0.096949
vt 0.406988 0.096949
vt 0.428691 0.112451
vt 0.428691 0.112451
vt 0.428691 0.112451
vt 0.428691 0.112451
vt 0.428691 0.112451
vt 0.428691 0.112451
vt 0.428691 0.112451
vt 0.428691 0.112451
vt 0.428691 0.112451
vt 0.428691 0.112451
vt 0.428691 0.112451
vt 0.428691 0.112451
vt 0.428691 0.112451
vt 0.428691 0.112451
vt 0.428691 0.112451
vt 0.428691 0.112451
vt 0.428691 0.112451
vt 0.428691 0.112451
vt 0.428691 0.112451
vt 0.428691 0.112451
vt 0.428691 0.112451
vt 0.428691 0.112451
vt 0.428691 0.112451
vt 0.428691 0.112451
vt 0.428691 0.112451
vt 0.428691 0.112451
vt 0.428691 0.112451
vt 0.428691 0.112451
vt 0.428691 0.112451
vt 0.428691 0.112451
vt 0.428691 0.112451
vt 0.428691 0.112451
vt 0.428691 0.112451
vt 0.428691 0.112451
vt 0.428691 0.112451
vt 0.428691 0.112451
vt 0.428691 0.112451
vt 0.428691 0.112451
vt 0.428691 0.112451
vt 0.428691 0.112451
vt 0.428691 0.112451
vt 0.428691 0.112451
vt 0.428691 0.112451
vt 0.428691 0.112451
vt 0.428691 0.112451
vt 0.428691 0.112451
vt 0.428691 0.112451
vt 0.428691 0.112451
vt 0.428691 0.112451
vt 0.428691 0.112451
vt 0.428691 0.112451
vt 0.428691 0.112451
vt 0.428691 0.112451
vt 0.428691 0.112451
vt 0.428691 0.112451
vt 0.428691 0.112451
vt 0.428691 0.112451
vt 0.428691 0.112451
vt 0.428691 0.112451
vt 0.428691 0.112451
vt 0.267471 0.930955
vt 0.267471 0.930955
vt 0.267471 0.930955
vt 0.267471 0.930955
vt 0.267471 0.930955
vt 0.267471 0.930955
vt 0.267471 0.930955
vt 0.267471 0.930955
vt 0.267471 0.930955
vt 0.267471 0.930955
vt 0.267471 0.930955
vt 0.267471 0.930955
vt 0.267471 0.930955
vt 0.267471 0.930955
vt 0.267471 0.930955
vt 0.267471 0.930955
vt 0.267471 0.930955
vt 0.267471 0.930955
vt 0.267471 0.930955
vt 0.267471 0.930955
vt 0.267471 0.930955
vt 0.267471 0.930955
vt 0.267471 0.930955
vt 0.267471 0.930955
vt 0.267471 0.930955
vt 0.267471 0.930955
vt 0.267471 0.930955
vt 0.267471 0.930955
vt 0.267471 0.930955
vt 0.267471 0.930955
vt 0.267471 0.930955
vt 0.267471 0.930955
vt 0.267471 0.930955
vt 0.267471 0.930955
vt 0.267471 0.930955
vt 0.267471 0.930955
vt 0.267471 0.930955
vt 0.267471 0.930955
vt 0.267471 0.930955
vt 0.267471 0.930955
vt 0.267471 0.930955
vt 0.267471 0.930955
vt 0.267471 0.930955
vt 0.267471 0.930955
vt 0.267471 0.930955
vt 0.267471 0.930955
vt 0.267471 0.930955
vt 0.267471 0.930955
vt 0.267471 0.930955
vt 0.267471 0.930955
vt 0.267471 0.930955
vt 0.267471 0.930955
vt 0.267471 0.930955
vt 0.267471 0.930955
vt 0.267471 0.930955
vt 0.267471 0.930955
vt 0.267471 0.930955
vt 0.267471 0.930955
vt 0.267471 0.930955
vt 0.267471 0.930955
vt 0.267471 0.930955
vt 0.267471 0.930955
vt 0.267471 0.930955
vt 0.267471 0.930955
vt 0.267471 0.930955
vt 0.267471 0.930955
vt 0.267471 0.930955
vt 0.267471 0.930955
vt 0.267471 0.930955
vt 0.267471 0.930955
vt 0.267471 0.930955
vt 0.267471 0.930955
vt 0.267471 0.930955
vt 0.267471 0.930955
vt 0.267471 0.930955
vt 0.267471 0.930955
vt 0.267471 0.930955
vt 0.267471 0.930955
vt 0.267471 0.930955
vt 0.267471 0.930955
s 1
usemtl Material
f 1/1/1 3/3/1 4/4/1 2/2/1
f 4/4/2 3/3/2 6/6/3 14/14/3
f 1/1/4 2/2/4 11/11/5 8/8/5
f 2/2/6 4/4/6 14/14/7 11/11/7
f 9/9/8 12/12/9 15/15/10 5/5/11
f 6/6/12 8/8/12 10/10/13 7/7/13
f 7/7/14 10/10/14 9/9/8 5/5/11
f 8/8/5 11/11/5 13/13/15 10/10/15
f 10/10/16 13/13/16 12/12/9 9/9/8
f 11/11/7 14/14/7 16/16/17 13/13/17
f 13/13/18 16/16/18 15/15/10 12/12/9
f 14/14/3 6/6/3 7/7/19 16/16/19
f 16/16/20 7/7/20 5/5/11 15/15/10
f 3/3/21 1/1/21 8/8/12 6/6/12
f 18/18/1 17/17/1 20/20/1 19/19/1
f 22/22/22 23/23/22 24/24/22 21/21/22
f 20/20/2 17/17/2 21/21/2 24/24/2
f 18/18/4 19/19/4 23/23/4 22/22/4
f 19/19/6 20/20/6 24/24/6 23/23/6
f 17/17/21 18/18/21 22/22/21 21/21/21
f 26/26/1 25/25/1 28/28/1 27/27/1
f 26/26/4 27/27/4 33/33/4 29/29/4
f 30/30/22 34/34/22 36/36/22 31/31/22
f 27/27/6 28/28/6 35/35/6 33/33/6
f 28/28/2 25/25/2 32/32/2 35/35/2
f 30/30/23 31/31/23 32/32/23 29/29/23
f 34/34/24 30/30/24 29/29/24 33/33/24
f 36/36/25 34/34/25 33/33/25 35/35/25
f 31/31/26 36/36/26 35/35/26 32/32/26
f 25/25/21 26/26/21 29/29/21 32/32/21
f 37/37/27 43/43/28 48/48/29 42/42/27
f 38/38/30 44/44/31 43/43/32 37/37/30
f 39/39/33 45/45/33 44/44/33 38/38/33
f 40/40/34 46/46/35 45/45/36 39/39/34
f 41/41/37 47/47/38 46/46/39 40/40/37
f 42/42/40 48/48/40 47/47/40 41/41/40
f 43/43/28 49/49/41 54/54/41 48/48/29
f 44/44/31 50/50/42 49/49/43 43/43/32
f 45/45/44 51/51/44 50/50/44 44/44/44
f 46/46/35 52/52/45 51/51/45 45/45/36
f 47/47/38 53/53/46 52/52/47 46/46/39
f 48/48/48 54/54/48 53/53/48 47/47/48
f 50/50/42 56/56/49 55/55/50 49/49/43
f 51/51/51 57/57/51 56/56/51 50/50/51
f 52/52/52 58/58/52 57/57/52 51/51/52
f 53/53/46 59/59/53 58/58/54 52/52/47
f 54/54/55 60/60/55 59/59/55 53/53/55
f 55/55/56 61/61/56 66/66/56 60/60/56
f 56/56/49 62/62/57 61/61/58 55/55/50
f 57/57/59 63/63/59 62/62/59 56/56/59
f 58/58/60 64/64/60 63/63/60 57/57/60
f 59/59/53 65/65/61 64/64/62 58/58/54
f 60/60/63 66/66/63 65/65/63 59/59/63
f 62/62/57 68/68/64 67/67/65 61/61/58
f 63/63/66 69/69/67 68/68/68 62/62/66
f 64/64/69 70/70/70 69/69/71 63/63/69
f 65/65/61 71/71/72 70/70/73 64/64/62
f 66/66/74 72/72/75 71/71/76 65/65/74
f 67/67/77 73/73/78 78/78/79 72/72/80
f 68/68/64 74/74/81 73/73/82 67/67/65
f 69/69/67 75/75/83 74/74/84 68/68/68
f 70/70/70 76/76/85 75/75/86 69/69/71
f 71/71/72 77/77/87 76/76/88 70/70/73
f 72/72/75 78/78/89 77/77/90 71/71/76
f 74/74/81 80/80/91 79/79/92 73/73/82
f 75/75/83 81/81/93 80/80/94 74/74/84
f 76/76/85 82/82/95 81/81/96 75/75/86
f 77/77/87 83/83/97 82/82/98 76/76/88
f 78/78/89 84/84/99 83/83/100 77/77/90
f 49/49/101 55/55/101 60/60/101 54/54/101
f 79/79/102 85/85/103 90/90/103 84/84/104
f 80/80/91 86/86/105 85/85/106 79/79/92
f 81/81/93 87/87/107 86/86/107 80/80/94
f 82/82/95 88/88/108 87/87/108 81/81/96
f 83/83/97 89/89/109 88/88/110 82/82/98
f 84/84/99 90/90/111 89/89/111 83/83/100
f 85/85/112 91/91/112 96/96/112 90/90/112
f 86/86/105 92/92/113 91/91/113 85/85/106
f 87/87/114 93/93/114 92/92/114 86/86/114
f 88/88/115 94/94/115 93/93/115 87/87/115
f 89/89/109 95/95/116 94/94/116 88/88/110
f 90/90/117 96/96/117 95/95/117 89/89/117
f 73/73/78 79/79/102 84/84/104 78/78/79
f 61/61/118 67/67/77 72/72/80 66/66/118
f 98/98/1 97/97/1 100/100/1 99/99/1
f 102/102/22 103/103/22 104/104/22 101/101/22
f 100/100/2 97/97/2 101/101/2 104/104/2
f 98/98/4 99/99/4 103/103/4 102/102/4
f 99/99/6 100/100/6 104/104/6 103/103/6
f 97/97/21 98/98/21 102/102/21 101/101/21
f 106/106/1 105/105/1 108/108/1 107/107/1
f 110/110/22 111/111/22 112/112/22 109/109/22
f 108/108/2 105/105/2 109/109/2 112/112/2
f 106/106/4 107/107/4 111/111/4 110/110/4
f 107/107/6 108/108/6 112/112/6 111/111/6
f 105/105/21 106/106/21 110/110/21 109/109/21
f 114/114/1 113/113/1 116/116/1 115/115/1
f 118/118/22 119/119/22 120/120/22 117/117/22
f 116/116/2 113/113/2 117/117/2 120/120/2
f 114/114/4 115/115/4 119/119/4 118/118/4
f 115/115/6 116/116/6 120/120/6 119/119/6
f 113/113/21 114/114/21 118/118/21 117/117/21
f 122/122/1 121/121/1 124/124/1 123/123/1
f 126/126/22 127/127/22 128/128/22 125/125/22
f 124/124/2 121/121/2 125/125/2 128/128/2
f 122/122/4 123/123/4 127/127/4 126/126/4
f 123/123/6 124/124/6 128/128/6 127/127/6
f 121/121/21 122/122/21 126/126/21 125/125/21
f 130/130/1 129/129/1 132/132/1 131/131/1
f 134/134/22 135/135/22 136/136/22 133/133/22
f 132/132/2 129/129/2 133/133/2 136/136/2
f 130/130/4 131/131/4 135/135/4 134/134/4
f 131/131/6 132/132/6 136/136/6 135/135/6
f 129/129/21 130/130/21 134/134/21 133/133/21
f 138/138/1 137/137/1 140/140/1 139/139/1
f 142/142/22 143/143/22 144/144/22 141/141/22
f 140/140/2 137/137/2 141/141/2 144/144/2
f 138/138/4 139/139/4 143/143/4 142/142/4
f 139/139/6 140/140/6 144/144/6 143/143/6
f 137/137/21 138/138/21 142/142/21 141/141/21
f 146/146/1 145/145/1 148/148/1 147/147/1
f 150/150/22 151/151/22 152/152/22 149/149/22
f 148/148/2 145/145/2 149/149/2 152/152/2
f 146/146/4 147/147/4 151/151/4 150/150/4
f 147/147/6 148/148/6 152/152/6 151/151/6
f 145/145/21 146/146/21 150/150/21 149/149/21
f 154/154/1 153/153/1 156/156/1 155/155/1
f 158/158/22 159/159/22 160/160/22 157/157/22
f 156/156/2 153/153/2 157/157/2 160/160/2
f 154/154/4 155/155/4 159/159/4 158/158/4
f 155/155/6 156/156/6 160/160/6 159/159/6
f 153/153/21 154/154/21 158/158/21 157/157/21
f 162/162/1 161/161/1 164/164/1 163/163/1
f 166/166/22 167/167/22 168/168/22 165/165/22
f 164/164/2 161/161/2 165/165/2 168/168/2
f 162/162/4 163/163/4 167/167/4 166/166/4
f 163/163/6 164/164/6 168/168/6 167/167/6
f 161/161/21 162/162/21 166/166/21 165/165/21
f 170/170/1 169/169/1 172/172/1 171/171/1
f 174/174/22 175/175/22 176/176/22 173/173/22
f 172/172/2 169/169/2 173/173/2 176/176/2
f 170/170/4 171/171/4 175/175/4 174/174/4
f 171/171/6 172/172/6 176/176/6 175/175/6
f 169/169/21 170/170/21 174/174/21 173/173/21
