# Blender 3.4.1
# www.blender.org
mtllib homeappliance019.mtl
o home_appliance.018
v -0.869285 -0.586098 0.763386
v -0.869285 0.096136 0.763386
v -0.869285 -0.586098 -1.392522
v -0.869285 0.096136 -1.392522
v 0.997713 -0.586098 0.763386
v 0.997713 0.096136 0.763386
v 0.997713 -0.586098 -1.392522
v 0.997713 0.096136 -1.392522
v -0.832242 -0.105023 0.726343
v -0.832242 -0.043822 0.726343
v 0.960670 -0.043822 0.726343
v 0.960670 -0.105023 0.726343
v -0.832242 -0.275581 0.726343
v -0.832242 -0.214381 0.726343
v 0.960670 -0.214381 0.726343
v 0.960670 -0.275581 0.726343
v -0.832242 -0.446140 0.726343
v -0.832242 -0.384940 0.726343
v 0.960670 -0.384940 0.726343
v 0.960670 -0.446140 0.726343
v -0.869285 -0.384940 0.763386
v -0.869285 -0.446140 0.763386
v -0.869285 -0.214381 0.763386
v -0.869285 -0.275581 0.763386
v -0.869285 -0.043822 0.763386
v -0.869285 -0.105023 0.763386
v -0.869285 -0.105023 -1.392522
v -0.869285 -0.043822 -1.392522
v -0.869285 -0.275581 -1.392522
v -0.869285 -0.214381 -1.392522
v -0.869285 -0.446140 -1.392522
v -0.869285 -0.384940 -1.392522
v 0.997713 -0.105023 -1.392522
v 0.997713 -0.043822 -1.392522
v 0.997713 -0.275581 -1.392522
v 0.997713 -0.214381 -1.392522
v 0.997713 -0.446140 -1.392522
v 0.997713 -0.384940 -1.392522
v 0.997713 -0.105023 0.763386
v 0.997713 -0.043822 0.763386
v 0.997713 -0.275581 0.763386
v 0.997713 -0.214381 0.763386
v 0.997713 -0.446140 0.763386
v 0.997713 -0.384940 0.763386
v 0.960670 -0.446140 -1.355479
v 0.960670 -0.384940 -1.355479
v 0.960670 -0.275581 -1.355479
v 0.960670 -0.214381 -1.355479
v 0.960670 -0.105023 -1.355479
v 0.960670 -0.043822 -1.355479
v -0.832242 -0.446140 -1.355479
v -0.832242 -0.384940 -1.355479
v -0.832242 -0.275581 -1.355479
v -0.832242 -0.214381 -1.355479
v -0.832242 -0.105023 -1.355479
v -0.832242 -0.043822 -1.355479
v -0.150903 0.089910 0.712223
v -0.379392 -0.004733 0.712223
v -0.474035 -0.233222 0.712223
v -0.379392 -0.461711 0.712223
v -0.150903 -0.556354 0.712223
v 0.077586 -0.461711 0.712223
v 0.172229 -0.233222 0.712223
v 0.077586 -0.004733 0.712223
v -0.362218 -0.021907 0.832187
v -0.150903 0.065622 0.832187
v -0.449747 -0.233222 0.832187
v -0.362218 -0.444537 0.832187
v -0.150903 -0.532066 0.832187
v 0.060412 -0.444537 0.832187
v 0.147941 -0.233222 0.832187
v 0.060412 -0.021907 0.832187
v -0.379392 -0.004733 0.832187
v -0.150903 0.089910 0.832187
v -0.474035 -0.233222 0.832187
v -0.379392 -0.461711 0.832187
v -0.150903 -0.556354 0.832187
v 0.077586 -0.461711 0.832187
v 0.172229 -0.233222 0.832187
v 0.077586 -0.004733 0.832187
v -0.261858 -0.122267 0.795755
v -0.150903 -0.076308 0.795755
v -0.307817 -0.233222 0.795755
v -0.261858 -0.344177 0.795755
v -0.150903 -0.390137 0.795755
v -0.039948 -0.344177 0.795755
v 0.006011 -0.233222 0.795755
v -0.039948 -0.122267 0.795755
v -0.362218 -0.021907 0.795755
v -0.150903 0.065622 0.795755
v -0.449747 -0.233222 0.795755
v -0.362218 -0.444537 0.795755
v -0.150903 -0.532066 0.795755
v 0.060412 -0.444537 0.795755
v 0.147941 -0.233222 0.795755
v 0.060412 -0.021907 0.795755
v -0.415917 0.300431 0.065953
v -0.415917 0.300431 -0.479239
v 0.544345 0.300431 0.065953
v 0.544345 0.300431 -0.479239
v -0.415917 0.515646 0.065953
v -0.415917 0.343935 -0.479239
v 0.544345 0.343935 -0.479239
v 0.544345 0.515646 0.065953
v -0.415917 0.649018 0.065953
v -0.415917 0.649018 -0.201787
v 0.544345 0.649018 -0.201787
v 0.544345 0.649018 0.065953
v -0.415917 0.491350 -0.856132
v 0.544345 0.491350 -0.856132
v -0.415917 0.955322 -0.479239
v 0.544345 0.955322 -0.479239
v -0.415917 0.955322 -0.856132
v 0.544345 0.955322 -0.856132
v -0.095830 0.300431 -0.479239
v 0.224258 0.300431 -0.479239
v 0.224258 0.300431 0.065953
v -0.095830 0.300431 0.065953
v -0.415917 0.072808 0.065953
v -0.415917 0.072808 -0.479239
v 0.224258 0.072808 -0.479239
v 0.544345 0.072808 -0.479239
v 0.544345 0.072808 0.065953
v -0.095830 0.072808 0.065953
v -0.095830 0.072808 -0.479239
v 0.224258 0.072808 0.065953
v -0.095830 0.955322 -0.479239
v 0.224258 0.955322 -0.479239
v -0.095830 0.955322 -0.856132
v 0.224258 0.955322 -0.856132
v -0.095830 1.780350 -0.479239
v 0.224258 1.780350 -0.479239
v -0.095830 1.780350 -0.856132
v 0.224258 1.780350 -0.856132
vn -0.0000 -0.0000 -1.0000
vn 1.0000 -0.0000 -0.0000
vn -1.0000 -0.0000 -0.0000
vn -0.0000 -1.0000 -0.0000
vn -0.0000 1.0000 -0.0000
vn -0.0000 -0.0000 1.0000
vn 0.9239 -0.3827 -0.0000
vn 0.3827 -0.9239 -0.0000
vn -0.9239 -0.3827 -0.0000
vn -0.3827 0.9239 -0.0000
vn 0.3827 0.9239 -0.0000
vn -0.3827 -0.9239 -0.0000
vn -0.9239 0.3827 -0.0000
vn 0.9239 0.3827 -0.0000
vn -0.0000 -0.9313 -0.3643
vn -0.0000 0.6713 0.7411
vn -0.0000 0.5103 0.8600
vt 0.509301 0.096949
vt 0.509301 0.096949
vt 0.509301 0.096949
vt 0.509301 0.096949
vt 0.509301 0.096949
vt 0.509301 0.096949
vt 0.509301 0.096949
vt 0.509301 0.096949
vt 0.828642 0.106250
vt 0.509301 0.096949
vt 0.509301 0.096949
vt 0.828642 0.106250
vt 0.509301 0.096949
vt 0.828642 0.106250
vt 0.828642 0.106250
vt 0.509301 0.096949
vt 0.828642 0.106250
vt 0.509301 0.096949
vt 0.509301 0.096949
vt 0.828642 0.106250
vt 0.828642 0.106250
vt 0.509301 0.096949
vt 0.828642 0.106250
vt 0.509301 0.096949
vt 0.509301 0.096949
vt 0.828642 0.106250
vt 0.828642 0.106250
vt 0.509301 0.096949
vt 0.828642 0.106250
vt 0.509301 0.096949
vt 0.828642 0.106250
vt 0.509301 0.096949
vt 0.509301 0.096949
vt 0.509301 0.096949
vt 0.509301 0.096949
vt 0.509301 0.096949
vt 0.509301 0.096949
vt 0.509301 0.096949
vt 0.509301 0.096949
vt 0.509301 0.096949
vt 0.509301 0.096949
vt 0.509301 0.096949
vt 0.509301 0.096949
vt 0.509301 0.096949
vt 0.509301 0.096949
vt 0.509301 0.096949
vt 0.509301 0.096949
vt 0.509301 0.096949
vt 0.509301 0.096949
vt 0.509301 0.096949
vt 0.509301 0.096949
vt 0.509301 0.096949
vt 0.509301 0.096949
vt 0.509301 0.096949
vt 0.509301 0.096949
vt 0.509301 0.096949
vt 0.828642 0.106250
vt 0.509301 0.096949
vt 0.828642 0.106250
vt 0.509301 0.096949
vt 0.509301 0.096949
vt 0.828642 0.106250
vt 0.828642 0.106250
vt 0.509301 0.096949
vt 0.828642 0.106250
vt 0.509301 0.096949
vt 0.828642 0.106250
vt 0.509301 0.096949
vt 0.828642 0.106250
vt 0.509301 0.096949
vt 0.828642 0.106250
vt 0.509301 0.096949
vt 0.509301 0.096949
vt 0.828642 0.106250
vt 0.509301 0.096949
vt 0.828642 0.106250
vt 0.828642 0.106250
vt 0.509301 0.096949
vt 0.828642 0.106250
vt 0.509301 0.096949
vt 0.449557 0.114715
vt 0.449557 0.114715
vt 0.449557 0.114715
vt 0.449557 0.114715
vt 0.449557 0.114715
vt 0.449557 0.114715
vt 0.449557 0.114715
vt 0.449557 0.114715
vt 0.449557 0.114715
vt 0.449557 0.114715
vt 0.449557 0.114715
vt 0.449557 0.114715
vt 0.449557 0.114715
vt 0.449557 0.114715
vt 0.449557 0.114715
vt 0.449557 0.114715
vt 0.449557 0.114715
vt 0.449557 0.114715
vt 0.449557 0.114715
vt 0.449557 0.114715
vt 0.449557 0.114715
vt 0.449557 0.114715
vt 0.449557 0.114715
vt 0.449557 0.114715
vt 0.865009 0.120915
vt 0.449557 0.114715
vt 0.865009 0.120915
vt 0.449557 0.114715
vt 0.865009 0.120915
vt 0.449557 0.114715
vt 0.865009 0.120915
vt 0.449557 0.114715
vt 0.865009 0.120915
vt 0.449557 0.114715
vt 0.865009 0.120915
vt 0.449557 0.114715
vt 0.865009 0.120915
vt 0.449557 0.114715
vt 0.865009 0.120915
vt 0.449557 0.114715
vt 0.449557 0.114715
vt 0.449557 0.114715
vt 0.449557 0.114715
vt 0.449557 0.114715
vt 0.449557 0.114715
vt 0.449557 0.114715
vt 0.449557 0.114715
vt 0.449557 0.114715
vt 0.509301 0.096949
vt 0.509301 0.096949
vt 0.509301 0.096949
vt 0.509301 0.096949
vt 0.509301 0.096949
vt 0.509301 0.096949
vt 0.509301 0.096949
vt 0.509301 0.096949
vt 0.509301 0.096949
vt 0.509301 0.096949
vt 0.509301 0.096949
vt 0.509301 0.096949
vt 0.509301 0.096949
vt 0.509301 0.096949
vt 0.509301 0.096949
vt 0.509301 0.096949
vt 0.509301 0.096949
vt 0.509301 0.096949
vt 0.509301 0.096949
vt 0.509301 0.096949
vt 0.509301 0.096949
vt 0.509301 0.096949
vt 0.509301 0.096949
vt 0.509301 0.096949
vt 0.509301 0.096949
vt 0.509301 0.096949
vt 0.509301 0.096949
vt 0.509301 0.096949
vt 0.509301 0.096949
vt 0.509301 0.096949
vt 0.509301 0.096949
vt 0.509301 0.096949
vt 0.509301 0.096949
vt 0.509301 0.096949
vt 0.509301 0.096949
vt 0.509301 0.096949
vt 0.509301 0.096949
vt 0.509301 0.096949
s 1
usemtl Material
f 28/40/1 4/4/1 8/8/1 34/46/1
f 30/42/1 27/39/1 33/45/1 36/48/1
f 36/48/2 33/45/2 39/51/2 42/54/2
f 25/37/3 2/2/3 4/4/3 28/40/3
f 3/3/4 7/7/4 5/5/4 1/1/4
f 8/8/5 4/4/5 2/2/5 6/6/5
f 21/33/3 24/36/3 29/41/3 32/44/3
f 23/35/3 26/38/3 27/39/3 30/42/3
f 40/52/6 6/6/6 2/2/6 25/37/6
f 19/29/6 18/27/6 17/26/6 20/31/6
f 7/7/2 37/49/2 43/55/2 5/5/2
f 38/50/2 35/47/2 41/53/2 44/56/2
f 34/46/2 8/8/2 6/6/2 40/52/2
f 3/3/1 31/43/1 37/49/1 7/7/1
f 32/44/1 29/41/1 35/47/1 38/50/1
f 5/5/6 43/55/6 22/34/6 1/1/6
f 44/56/6 41/53/6 24/36/6 21/33/6
f 42/54/6 39/51/6 26/38/6 23/35/6
f 42/54/4 23/35/4 14/19/4 15/22/4
f 25/37/4 28/40/4 56/80/4 10/11/4
f 34/46/4 40/52/4 11/13/4 50/68/4
f 35/47/5 29/41/5 53/73/5 47/61/5
f 26/38/5 39/51/5 12/16/5 9/10/5
f 29/41/5 24/36/5 13/18/5 53/73/5
f 22/34/5 43/55/5 20/32/5 17/25/5
f 30/42/4 36/48/4 48/64/4 54/75/4
f 23/35/4 30/42/4 54/75/4 14/19/4
f 41/53/5 35/47/5 47/61/5 16/24/5
f 40/52/4 25/37/4 10/11/4 11/13/4
f 31/43/5 22/34/5 17/25/5 51/70/5
f 1/1/3 22/34/3 31/43/3 3/3/3
f 15/21/6 14/20/6 13/17/6 16/23/6
f 11/14/6 10/12/6 9/9/6 12/15/6
f 46/59/2 19/29/2 20/31/2 45/57/2
f 48/63/2 15/21/2 16/23/2 47/62/2
f 50/67/2 11/14/2 12/15/2 49/65/2
f 52/71/1 46/59/1 45/57/1 51/69/1
f 54/76/1 48/63/1 47/62/1 53/74/1
f 56/79/1 50/67/1 49/65/1 55/77/1
f 18/27/3 52/71/3 51/69/3 17/26/3
f 14/20/3 54/76/3 53/74/3 13/17/3
f 10/12/3 56/79/3 55/77/3 9/9/3
f 39/51/5 33/45/5 49/66/5 12/16/5
f 27/39/5 26/38/5 9/10/5 55/78/5
f 38/50/4 44/56/4 19/30/4 46/60/4
f 28/40/4 34/46/4 50/68/4 56/80/4
f 43/55/5 37/49/5 45/58/5 20/32/5
f 33/45/5 27/39/5 55/78/5 49/66/5
f 24/36/5 41/53/5 16/24/5 13/18/5
f 32/44/4 38/50/4 46/60/4 52/72/4
f 21/33/4 32/44/4 52/72/4 18/28/4
f 37/49/5 31/43/5 51/70/5 45/58/5
f 44/56/4 21/33/4 18/28/4 19/30/4
f 36/48/4 42/54/4 15/22/4 48/64/4
f 58/82/1 57/81/1 64/88/1 63/87/1 62/86/1 61/85/1 60/84/1 59/83/1
f 65/89/7 67/91/2 91/123/2 89/121/7
f 61/85/8 62/86/8 78/102/8 77/101/8
f 59/83/3 60/84/9 76/100/9 75/99/3
f 57/81/10 58/82/10 73/97/10 74/98/10
f 64/88/11 57/81/11 74/98/11 80/104/11
f 62/86/7 63/87/2 79/103/2 78/102/7
f 60/84/12 61/85/12 77/101/12 76/100/12
f 58/82/13 59/83/3 75/99/3 73/97/13
f 63/87/2 64/88/14 80/104/14 79/103/2
f 65/89/6 66/90/6 74/98/6 73/97/6
f 67/91/6 65/89/6 73/97/6 75/99/6
f 68/92/6 67/91/6 75/99/6 76/100/6
f 69/93/6 68/92/6 76/100/6 77/101/6
f 70/94/6 69/93/6 77/101/6 78/102/6
f 71/95/6 70/94/6 78/102/6 79/103/6
f 72/96/6 71/95/6 79/103/6 80/104/6
f 66/90/6 72/96/6 80/104/6 74/98/6
f 81/105/6 83/109/6 84/111/6 85/113/6 86/115/6 87/117/6 88/119/6 82/107/6
f 71/95/3 72/96/9 96/128/9 95/127/3
f 69/93/10 70/94/10 94/126/10 93/125/10
f 67/91/2 68/92/14 92/124/14 91/123/2
f 66/90/8 65/89/8 89/121/8 90/122/8
f 72/96/12 66/90/12 90/122/12 96/128/12
f 70/94/13 71/95/3 95/127/3 94/126/13
f 68/92/11 69/93/11 93/125/11 92/124/11
f 81/106/6 82/108/6 90/122/6 89/121/6
f 83/110/6 81/106/6 89/121/6 91/123/6
f 84/112/6 83/110/6 91/123/6 92/124/6
f 85/114/6 84/112/6 92/124/6 93/125/6
f 86/116/6 85/114/6 93/125/6 94/126/6
f 87/118/6 86/116/6 94/126/6 95/127/6
f 88/120/6 87/118/6 95/127/6 96/128/6
f 82/108/6 88/120/6 96/128/6 90/122/6
f 99/131/6 117/149/6 126/158/6 123/155/6
f 104/136/2 103/135/2 107/139/2 108/140/2
f 100/132/1 116/148/1 115/147/1 98/130/1 102/134/1 103/135/1
f 99/131/2 100/132/2 103/135/2 104/136/2
f 98/130/3 97/129/3 101/133/3 102/134/3
f 97/129/6 118/150/6 117/149/6 99/131/6 104/136/6 101/133/6
f 107/139/5 106/138/5 105/137/5 108/140/5
f 102/134/3 101/133/3 105/137/3 106/138/3
f 101/133/6 104/136/6 108/140/6 105/137/6
f 102/134/3 106/138/3 109/141/3
f 110/142/1 109/141/1 113/145/1 129/161/1 130/162/1 114/146/1
f 103/135/15 102/134/15 109/141/15 110/142/15
f 107/139/2 103/135/2 110/142/2
f 128/160/5 112/144/5 114/146/5 130/162/5
f 107/139/2 110/142/2 114/146/2 112/144/2
f 106/138/16 107/139/16 112/144/16 128/160/17 127/159/17 111/143/16
f 109/141/3 106/138/3 111/143/3 113/145/3
f 117/149/3 116/148/3 121/153/3 126/158/3
f 116/148/4 117/149/4 118/150/4 115/147/4
f 125/157/4 124/156/4 119/151/4 120/152/4
f 122/154/4 123/155/4 126/158/4 121/153/4
f 100/132/2 99/131/2 123/155/2 122/154/2
f 98/130/1 115/147/1 125/157/1 120/152/1
f 97/129/3 98/130/3 120/152/3 119/151/3
f 115/147/2 118/150/2 124/156/2 125/157/2
f 118/150/6 97/129/6 119/151/6 124/156/6
f 116/148/1 100/132/1 122/154/1 121/153/1
f 111/143/5 127/159/5 129/161/5 113/145/5
f 129/161/3 127/159/3 131/163/3 133/165/3
f 131/163/5 132/164/5 134/166/5 133/165/5
f 128/160/2 130/162/2 134/166/2 132/164/2
f 130/162/1 129/161/1 133/165/1 134/166/1
f 127/159/17 128/160/17 132/164/6 131/163/6
