# Blender 3.4.1
# www.blender.org
mtllib homeappliance039.mtl
o home_appliance.038
v -0.013572 0.019919 -0.110513
v 0.013692 0.020001 -0.110513
v 0.013692 0.030788 -0.027592
v -0.013572 0.031564 -0.027592
v -0.013572 0.046359 -0.110513
v 0.013692 0.046395 -0.110513
v 0.013692 0.061389 -0.027592
v -0.013572 0.061707 -0.027592
v -0.013572 0.064355 -0.093322
v 0.013692 0.064366 -0.093322
v 0.013692 0.067610 -0.044784
v -0.013572 0.067643 -0.044784
v -0.067569 -0.062592 0.238980
v -0.138360 -0.062592 0.168011
v 0.067570 -0.062592 0.238980
v 0.138360 -0.062592 0.168011
v -0.138360 -0.062592 -0.123705
v 0.138360 -0.062592 -0.123705
v -0.102013 -0.067172 -0.198987
v 0.102013 -0.067172 -0.198987
v -0.060046 -0.069864 -0.238980
v 0.060046 -0.069864 -0.238980
v -0.067569 -0.000363 0.238980
v -0.138360 -0.000363 0.168011
v 0.067570 -0.000363 0.238980
v 0.138360 -0.000363 0.168011
v -0.138360 -0.001662 -0.123705
v 0.138360 -0.001621 -0.123705
v -0.102013 -0.021251 -0.198987
v 0.102013 -0.021251 -0.198987
v -0.060046 -0.027741 -0.238980
v 0.060046 -0.027741 -0.238980
v -0.060352 0.039092 0.210149
v -0.123581 0.039092 0.146761
v 0.060352 0.039092 0.210149
v 0.123581 0.039092 0.146761
v -0.123581 0.036219 -0.113796
v 0.123581 0.036243 -0.113796
v -0.091116 0.012755 -0.181037
v 0.091116 0.012788 -0.181037
v -0.053633 0.003534 -0.216758
v 0.053633 0.003534 -0.216758
v 0.123581 0.056469 0.016482
v -0.123581 0.056469 0.016482
v -0.000000 0.030498 -0.113796
v -0.000000 0.008092 -0.181037
v -0.000000 0.003534 -0.216758
v -0.000000 0.056469 0.016482
v 0.009122 0.043796 -0.114798
v 0.120297 0.049125 -0.114798
v 0.120297 0.069864 0.002401
v 0.009122 0.023433 -0.175288
v 0.091091 0.027710 -0.175288
v 0.002843 0.007709 -0.213849
v 0.054798 0.007709 -0.213849
v 0.009122 0.069864 0.002401
v -0.090613 0.025545 -0.174951
v -0.119628 0.046945 -0.114857
v -0.054717 0.007073 -0.213678
v -0.119628 0.067823 0.001576
v -0.009180 0.067823 0.001576
v -0.009180 0.041645 -0.114857
v -0.009180 0.021354 -0.174951
v -0.002861 0.007073 -0.213678
vn -0.0126 -0.9909 0.1340
vn -1.0000 -0.0000 -0.0000
vn -0.0000 -0.0000 -1.0000
vn 1.0000 -0.0000 -0.0000
vn -0.0000 -0.0000 1.0000
vn 0.0033 0.9907 0.1359
vn 0.0004 0.9977 -0.0671
vn 0.0061 0.9428 0.3334
vn -0.0006 0.6910 -0.7228
vn -0.0000 -1.0000 -0.0000
vn -0.0000 -0.9997 0.0253
vn -0.0000 -0.9980 0.0625
vn -0.0000 -0.9977 0.0672
vn -0.5203 0.5434 -0.6588
vn -0.7504 0.2515 -0.6113
vn -0.6677 0.4296 -0.6080
vn -0.5396 0.5004 -0.6771
vn 0.9922 0.1243 -0.0009
vn 0.9414 0.2144 -0.2603
vn 0.9259 0.2908 -0.2412
vn 0.9603 0.2787 -0.0107
vn 0.9550 0.2967 -0.0022
vn 0.7504 0.2514 -0.6113
vn 0.6878 0.3907 -0.6117
vn 0.5203 0.5432 -0.6589
vn 0.5533 0.4740 -0.6850
vn -0.7080 -0.0000 0.7062
vn 0.8048 -0.0000 -0.5936
vn 0.6899 -0.0000 -0.7239
vn 0.9739 -0.0000 -0.2268
vn -0.6899 -0.0000 -0.7239
vn -0.8048 -0.0000 -0.5936
vn 0.7080 -0.0000 0.7062
vn -0.9739 -0.0000 -0.2268
vn -0.9414 0.2144 -0.2603
vn -0.9923 0.1242 -0.0009
vn -0.0000 0.9961 0.0883
vn -0.0000 1.0000 -0.0000
vn -0.8287 0.5480 -0.1138
vn -0.8308 0.5359 -0.1502
vn -0.8342 0.5328 -0.1427
vn -0.8212 0.5493 -0.1544
vn 0.7966 0.2204 -0.5629
vn 0.9455 0.2101 -0.2487
vn -0.0000 0.5754 -0.8179
vn -0.0000 0.5933 -0.8050
vn -0.0000 0.5717 -0.8204
vn 0.5948 0.5424 0.5933
vn -0.9110 0.3321 -0.2445
vn -0.9550 0.2966 -0.0022
vn -0.9544 0.2983 -0.0131
vn -0.0000 0.5900 0.8074
vn -0.0000 0.5792 -0.8152
vn -0.0000 0.6193 -0.7852
vn -0.5948 0.5424 0.5933
vn -0.0000 0.9912 0.1322
vn -0.0000 0.9648 0.2631
vn -0.0000 0.9312 0.3644
vn -0.9177 0.2920 -0.2694
vn -0.7659 0.3022 -0.5675
vn -0.0000 0.7955 0.6060
vn 0.7845 0.5971 -0.1674
vn 0.7795 0.6136 -0.1260
vn 0.7692 0.6149 -0.1738
vn 0.7886 0.5937 -0.1602
vn -0.0235 0.9804 -0.1958
vn -0.0334 0.9686 -0.2463
vn -0.0355 0.9658 -0.2568
vn -0.0418 0.9383 -0.3432
vn -0.0377 0.9305 -0.3644
vn -0.0292 0.9130 -0.4068
vn -0.0000 0.7245 0.6893
vn 0.6178 0.2938 -0.7294
vn -0.8483 0.5182 -0.1090
vn -0.8340 0.5462 -0.0786
vn 0.9743 0.2224 -0.0368
vn 0.0416 0.9414 -0.3348
vn 0.0375 0.9366 -0.3484
vn 0.0120 0.7854 -0.6188
vn 0.0188 0.8476 -0.5303
vn 0.0333 0.9681 -0.2482
vn 0.0353 0.9653 -0.2586
vn 0.0235 0.9799 -0.1980
vn 0.8095 0.5744 -0.1214
vn 0.7863 0.6116 -0.0880
vn -0.5834 0.3816 -0.7170
vn -0.9513 0.3040 -0.0507
vt 0.636417 0.112451
vt 0.636417 0.112451
vt 0.636417 0.112451
vt 0.636417 0.112451
vt 0.636417 0.112451
vt 0.636417 0.112451
vt 0.636417 0.112451
vt 0.636417 0.112451
vt 0.636417 0.112451
vt 0.636417 0.112451
vt 0.636417 0.112451
vt 0.636417 0.112451
vt 0.834842 0.118652
vt 0.834842 0.118652
vt 0.834842 0.118652
vt 0.834842 0.118652
vt 0.834842 0.118652
vt 0.834842 0.118652
vt 0.834842 0.118652
vt 0.834842 0.118652
vt 0.834842 0.118652
vt 0.834842 0.118652
vt 0.834842 0.118652
vt 0.834842 0.118652
vt 0.834842 0.118652
vt 0.834842 0.118652
vt 0.834842 0.118652
vt 0.834842 0.118652
vt 0.834842 0.118652
vt 0.834842 0.118652
vt 0.834842 0.118652
vt 0.834842 0.118652
vt 0.834842 0.118652
vt 0.834842 0.118652
vt 0.834842 0.118652
vt 0.834842 0.118652
vt 0.834842 0.118652
vt 0.834842 0.118652
vt 0.834842 0.118652
vt 0.834842 0.118652
vt 0.834842 0.118652
vt 0.834842 0.118652
vt 0.834842 0.118652
vt 0.834842 0.118652
vt 0.834842 0.118652
vt 0.834842 0.118652
vt 0.834842 0.118652
vt 0.834842 0.118652
vt 0.834842 0.118652
vt 0.834842 0.118652
vt 0.834842 0.118652
vt 0.834842 0.118652
vt 0.834842 0.118652
vt 0.834842 0.118652
vt 0.834842 0.118652
vt 0.834842 0.118652
vt 0.834842 0.118652
vt 0.834842 0.118652
vt 0.834842 0.118652
vt 0.834842 0.118652
vt 0.834842 0.118652
vt 0.834842 0.118652
vt 0.834842 0.118652
vt 0.834842 0.118652
s 1
usemtl Material
f 4/4/1 1/1/1 2/2/1 3/3/1
f 5/5/2 8/8/2 12/12/2 9/9/2
f 2/2/3 1/1/3 5/5/3 6/6/3
f 1/1/2 4/4/2 8/8/2 5/5/2
f 3/3/4 2/2/4 6/6/4 7/7/4
f 4/4/5 3/3/5 7/7/5 8/8/5
f 12/12/6 11/11/6 10/10/7 9/9/7
f 7/7/4 6/6/4 10/10/4 11/11/4
f 8/8/8 7/7/8 11/11/6 12/12/6
f 6/6/9 5/5/9 9/9/9 10/10/9
f 16/16/10 15/15/10 13/13/10 14/14/10
f 14/14/10 17/17/11 18/18/11 16/16/10
f 17/17/11 19/19/12 20/20/12 18/18/11
f 19/19/12 21/21/13 22/22/13 20/20/12
f 31/31/14 29/29/15 39/39/16 41/41/17
f 26/26/18 28/28/19 38/38/20 43/43/21 36/36/22
f 28/28/19 30/30/23 40/40/24 38/38/20
f 30/30/23 32/32/25 42/42/26 40/40/24
f 14/14/27 13/13/27 23/23/27 24/24/27
f 20/20/28 22/22/29 32/32/29 30/30/23
f 18/18/30 20/20/28 30/30/23 28/28/19
f 16/16/4 18/18/30 28/28/19 26/26/18
f 21/21/31 19/19/32 29/29/15 31/31/31
f 15/15/33 16/16/33 26/26/33 25/25/33
f 19/19/32 17/17/34 27/27/35 29/29/15
f 17/17/34 14/14/2 24/24/36 27/27/35
f 13/13/5 15/15/5 25/25/5 23/23/5
f 22/22/3 21/21/3 31/31/3 32/32/3
f 36/36/37 34/34/37 33/33/38 35/35/38
f 46/46/39 45/45/40 49/49/41 52/52/42
f 38/38/20 40/40/24 53/53/43 50/50/44
f 42/42/45 47/47/46 54/54/47 55/55/47
f 25/25/48 26/26/48 36/36/48 35/35/48
f 29/29/15 27/27/35 37/37/49 39/39/16
f 27/27/35 24/24/36 34/34/50 44/44/51 37/37/49
f 23/23/52 25/25/52 35/35/52 33/33/52
f 32/32/53 31/31/53 41/41/54 47/47/46 42/42/45
f 24/24/55 23/23/55 33/33/55 34/34/55
f 34/34/37 36/36/37 43/43/56 48/48/57 44/44/58
f 39/39/16 37/37/49 58/58/59 57/57/60
f 44/44/58 48/48/57 61/61/61 60/60/61
f 45/45/62 46/46/63 63/63/64 62/62/65
f 56/56/66 51/51/66 50/50/67 49/49/68
f 49/49/68 50/50/67 53/53/69 52/52/70
f 52/52/70 53/53/69 55/55/71 54/54/71
f 48/48/72 43/43/72 51/51/72 56/56/72
f 40/40/24 42/42/26 55/55/73 53/53/43
f 45/45/40 48/48/74 56/56/74 49/49/41
f 47/47/75 46/46/39 52/52/42 54/54/75
f 43/43/21 38/38/20 50/50/44 51/51/76
f 57/57/77 63/63/78 64/64/79 59/59/80
f 58/58/81 62/62/82 63/63/78 57/57/77
f 60/60/83 61/61/83 62/62/82 58/58/81
f 48/48/84 45/45/62 62/62/65 61/61/84
f 46/46/63 47/47/85 64/64/85 63/63/64
f 47/47/46 41/41/54 59/59/80 64/64/79
f 41/41/17 39/39/16 57/57/60 59/59/86
f 37/37/49 44/44/51 60/60/87 58/58/59
