# Blender 3.4.1
# www.blender.org
mtllib homeappliance063.mtl
o home_appliance.062
v -3.225094 -0.332477 0.041201
v -3.225094 3.071203 0.041201
v 3.239963 -0.332477 0.041201
v 3.239963 3.071203 0.041201
v -3.225094 -0.332477 0.041201
v -3.225094 3.042977 0.041201
v -3.338241 -0.696293 -0.140172
v -3.338241 3.136006 -0.140172
v 3.239963 -0.332477 0.041201
v 3.239963 3.042977 0.041201
v 3.353110 -0.696293 -0.140172
v 3.353110 3.136006 -0.140172
v -3.338241 -0.696293 0.041201
v -3.338241 3.136006 0.041201
v 3.353110 3.136006 0.041201
v 3.353110 -0.696293 0.041201
v -3.372558 -0.689755 -0.531679
v 3.372558 -0.689755 -0.531679
v -3.290488 -0.771827 0.531681
v 3.290489 -0.771827 0.531681
v -3.372558 -1.845283 -0.531680
v 3.372558 -1.845283 -0.531680
v -3.290488 -1.763215 0.531680
v 3.290489 -1.763215 0.531680
v 3.435601 -0.689756 0.531681
v 3.435601 -0.689755 -0.531679
v -3.435601 -0.689755 -0.531679
v -3.435601 -0.689756 0.531681
v 3.435601 -1.845285 0.531680
v 3.435601 -1.845283 -0.531680
v -3.435601 -1.845283 -0.531680
v -3.435601 -1.845285 0.531680
v 3.372558 -3.059568 0.531679
v 3.372558 -3.059566 -0.531681
v -3.372558 -3.059566 -0.531681
v -3.372558 -3.059568 0.531679
v 3.435601 -3.059568 0.531679
v 3.435601 -3.059566 -0.531681
v -3.435601 -3.059566 -0.531681
v -3.435601 -3.059568 0.531679
v 3.372558 -3.136006 0.531679
v 3.372558 -3.136004 -0.531681
v -3.372558 -3.136004 -0.531681
v -3.372558 -3.136006 0.531679
v 3.435601 -3.136006 0.531679
v 3.435601 -3.136004 -0.531681
v -3.435601 -3.136004 -0.531681
v -3.435601 -3.136006 0.531679
v -3.372558 -0.689756 0.531681
v 3.372558 -0.689756 0.531681
v -3.372558 -1.845285 0.531680
v 3.372558 -1.845285 0.531680
v -3.290488 -0.771827 0.531681
v 3.290489 -0.771827 0.531681
v -3.290488 -1.763215 0.531680
v 3.290489 -1.763215 0.531680
vn -0.0000 -0.0000 1.0000
vn -1.0000 -0.0000 -0.0000
vn -0.0000 -0.0000 -1.0000
vn 1.0000 -0.0000 -0.0000
vn -0.0000 -1.0000 -0.0000
vn -0.0000 1.0000 -0.0000
vt 0.710938 0.089844
vt 0.710938 0.089844
vt 0.710938 0.089844
vt 0.710938 0.089844
vt 0.804688 0.093750
vt 0.804688 0.093750
vt 0.804688 0.093750
vt 0.804688 0.093750
vt 0.804688 0.093750
vt 0.804688 0.093750
vt 0.804688 0.093750
vt 0.804688 0.093750
vt 0.804688 0.093750
vt 0.804688 0.093750
vt 0.804688 0.093750
vt 0.804688 0.093750
vt 0.804688 0.093750
vt 0.804688 0.093750
vt 0.804687 0.093750
vt 0.804687 0.093750
vt 0.804688 0.093750
vt 0.804688 0.093750
vt 0.804688 0.093750
vt 0.804688 0.093750
vt 0.804688 0.093750
vt 0.804688 0.093750
vt 0.804688 0.093750
vt 0.804688 0.093750
vt 0.804688 0.093750
vt 0.804688 0.093750
vt 0.804688 0.093750
vt 0.804688 0.093750
vt 0.804688 0.093750
vt 0.804688 0.093750
vt 0.804688 0.093750
vt 0.804688 0.093750
vt 0.804688 0.093750
vt 0.804688 0.093750
vt 0.804688 0.093750
vt 0.804688 0.093750
vt 0.804688 0.093750
vt 0.804688 0.093750
vt 0.804688 0.093750
vt 0.804688 0.093750
vt 0.804688 0.093750
vt 0.804688 0.093750
vt 0.804688 0.093750
vt 0.804688 0.093750
vt 0.804688 0.093750
vt 0.804688 0.093750
vt 0.804688 0.093750
vt 0.804688 0.093750
vt 0.451243 0.896752
vt 0.451243 0.896752
vt 0.451243 0.896752
vt 0.451243 0.896752
s 1
usemtl Material
f 3/3/1 4/4/1 2/2/1 1/1/1
f 13/13/2 14/14/2 8/8/2 7/7/2
f 7/7/3 8/8/3 12/12/3 11/11/3
f 11/11/4 12/12/4 15/15/4 16/16/4
f 7/7/5 11/11/5 16/16/5 13/13/5
f 12/12/6 8/8/6 14/14/6 15/15/6
f 5/5/1 6/6/1 14/14/1 13/13/1
f 10/10/1 9/9/1 16/16/1 15/15/1
f 9/9/1 5/5/1 13/13/1 16/16/1
f 6/6/1 10/10/1 15/15/1 14/14/1
f 17/17/6 49/49/6 50/50/6 18/18/6
f 21/21/5 22/22/5 52/52/5 51/51/5
f 51/51/1 49/49/1 28/28/1 32/32/1
f 17/17/3 18/18/3 22/22/3 21/21/3
f 22/22/3 18/18/3 26/26/3 30/30/3
f 26/26/4 25/25/4 29/29/4 30/30/4
f 28/28/2 27/27/2 31/31/2 32/32/2
f 22/22/3 30/30/3 38/38/3 34/34/3
f 18/18/6 50/50/6 25/25/6 26/26/6
f 17/17/3 21/21/3 31/31/3 27/27/3
f 50/50/1 52/52/1 29/29/1 25/25/1
f 51/51/1 32/32/1 40/40/1 36/36/1
f 49/49/6 17/17/6 27/27/6 28/28/6
f 34/34/3 38/38/3 46/46/3 42/42/3
f 37/37/1 33/33/1 41/41/1 45/45/1
f 52/52/2 22/22/2 34/34/2 33/33/2
f 31/31/3 21/21/3 35/35/3 39/39/3
f 32/32/2 31/31/2 39/39/2 40/40/2
f 29/29/1 52/52/1 33/33/1 37/37/1
f 21/21/4 51/51/4 36/36/4 35/35/4
f 30/30/4 29/29/4 37/37/4 38/38/4
f 41/41/5 42/42/5 46/46/5 45/45/5
f 43/43/5 44/44/5 48/48/5 47/47/5
f 38/38/4 37/37/4 45/45/4 46/46/4
f 44/44/5 43/43/5 42/42/5 41/41/5
f 39/39/3 35/35/3 43/43/3 47/47/3
f 36/36/1 40/40/1 48/48/1 44/44/1
f 40/40/2 39/39/2 47/47/2 48/48/2
f 36/36/1 44/44/1 41/41/1 33/33/1
f 43/43/3 35/35/3 34/34/3 42/42/3
f 35/35/6 36/36/6 33/33/6 34/34/6
f 19/19/1 20/20/1 50/50/1 49/49/1
f 24/24/1 23/23/1 51/51/1 52/52/1
f 23/23/1 19/19/1 49/49/1 51/51/1
f 20/20/1 24/24/1 52/52/1 50/50/1
f 54/54/1 53/53/1 55/55/1 56/56/1
