# Blender 3.4.1
# www.blender.org
mtllib homeappliance054.mtl
o home_appliance.053
v -2.413395 -1.229172 0.090686
v -2.413395 1.528186 0.090686
v 2.413395 1.528186 0.090686
v -2.413395 -1.229172 0.090686
v -2.413395 1.499960 0.090686
v -2.526542 -1.592988 -0.090686
v -2.526542 1.592988 -0.090686
v 2.413395 -1.229172 0.090686
v 2.413395 1.499960 0.090686
v 2.526542 -1.592988 -0.090686
v 2.526542 1.592988 -0.090686
v -2.526542 -1.592988 0.090686
v -2.526542 1.592988 0.090686
v 2.526542 1.592988 0.090686
v 2.526542 -1.592988 0.090686
vn -0.0000 -0.0000 1.0000
vn -1.0000 -0.0000 -0.0000
vn -0.0000 -0.0000 -1.0000
vn 1.0000 -0.0000 -0.0000
vn -0.0000 -1.0000 -0.0000
vn -0.0000 1.0000 -0.0000
vt 0.710938 0.089844
vt 0.710938 0.089844
vt 0.710938 0.089844
vt 0.804688 0.093750
vt 0.804688 0.093750
vt 0.804688 0.093750
vt 0.804688 0.093750
vt 0.710938 0.089844
vt 0.804688 0.093750
vt 0.804688 0.093750
vt 0.804688 0.093750
vt 0.804688 0.093750
vt 0.804688 0.093750
vt 0.804688 0.093750
vt 0.804688 0.093750
vt 0.804688 0.093750
s 1
usemtl Material
f 8/8/1 3/3/1 2/2/1 1/1/1
f 12/13/2 13/14/2 7/7/2 6/6/2
f 6/6/3 7/7/3 11/12/3 10/11/3
f 10/11/4 11/12/4 14/15/4 15/16/4
f 6/6/5 10/11/5 15/16/5 12/13/5
f 11/12/6 7/7/6 13/14/6 14/15/6
f 4/4/1 5/5/1 13/14/1 12/13/1
f 9/10/1 8/9/1 15/16/1 14/15/1
f 8/9/1 4/4/1 12/13/1 15/16/1
f 5/5/1 9/10/1 14/15/1 13/14/1
