# Blender 3.4.1
# www.blender.org
mtllib homeappliance067.mtl
o home_appliance.066
v -3.278254 4.141111 -0.242671
v 3.282507 4.141111 -0.242671
v -3.282507 4.141111 -0.521994
v 3.278254 4.141111 -0.521994
v -3.278254 4.214864 -0.242671
v 3.282507 4.214864 -0.242671
v -3.282507 4.214864 -0.521994
v 3.278254 4.214864 -0.521994
v -3.230433 0.299829 -0.359305
v -3.230433 4.156965 -0.359305
v 3.234625 0.299829 -0.359305
v 3.234625 4.156965 -0.359305
v -3.081143 0.842483 -0.359305
v -3.081143 3.797476 -0.359305
v 3.085335 3.797476 -0.359305
v 3.085335 0.842483 -0.359305
v -3.234625 0.299829 -0.405360
v -3.234625 4.156965 -0.405360
v 3.230433 0.299829 -0.405360
v 3.230433 4.156965 -0.405360
v -3.294448 0.045705 -0.242671
v 3.298723 0.045705 -0.242671
v -3.298723 0.045705 -0.521994
v 3.294448 0.045705 -0.521994
v -3.294448 0.395732 -0.242671
v 3.298723 0.395732 -0.242671
v -3.298723 0.395732 -0.521994
v 3.294448 0.395732 -0.521994
v 0.027998 -2.804016 0.439808
v 0.027998 -2.694604 0.439808
v -0.684626 -2.804016 -0.769777
v 0.687087 -2.804016 -0.762276
v -0.684626 -2.694604 -0.769777
v 0.687087 -2.694604 -0.762276
v 0.025399 -2.804016 0.271441
v -0.538530 -2.804016 -0.685753
v 0.546962 -2.804016 -0.679817
v 0.025399 -2.694604 0.271441
v 0.546962 -2.694604 -0.679817
v -0.538530 -2.694604 -0.685753
v 0.086982 0.352656 -0.455386
v -0.054516 0.352656 -0.455386
v -0.054516 0.352656 -0.289694
v 0.086982 0.352656 -0.289694
v 0.086982 -1.318896 -0.455386
v -0.054516 -1.318896 -0.455386
v -0.054516 -1.318896 -0.289694
v 0.086982 -1.318896 -0.289694
v -0.054516 -0.564751 -0.455386
v -0.054516 -0.401489 -0.455386
v -0.054516 -0.401489 -0.289694
v -0.054516 -0.564751 -0.289694
v 0.086982 -0.564751 -0.289694
v 0.086982 -0.401489 -0.289694
v 0.086982 -0.401489 -0.455386
v 0.086982 -0.564751 -0.455386
v 0.192071 -0.564751 -0.289694
v 0.192071 -0.401489 -0.289694
v 0.192071 -0.401489 -0.455386
v 0.192071 -0.564751 -0.455386
v 0.296101 -0.564751 -0.289694
v 0.296101 -0.401489 -0.289694
v 0.296101 -0.401489 -0.455386
v 0.296101 -0.564751 -0.455386
v 0.192071 -0.169762 -0.455386
v 0.192071 -0.169762 -0.289694
v 0.296101 -0.169762 -0.455386
v 0.296101 -0.169762 -0.289694
v 0.335898 -0.564751 -0.289694
v 0.335898 -0.401489 -0.289694
v 0.335898 -0.401489 -0.455386
v 0.335898 -0.564751 -0.455386
v -0.066613 -1.309473 -0.443289
v -0.066613 -1.309473 -0.301791
v 0.099079 -1.309473 -0.301791
v 0.099079 -1.309473 -0.443289
v -0.066612 -4.214864 1.119620
v -0.066611 -4.214864 1.261118
v 0.099080 -4.214864 1.261118
v 0.099080 -4.214864 1.119620
v -0.003614 -1.309473 -0.265419
v 0.118927 -1.309473 -0.336168
v 0.036081 -1.309473 -0.479661
v -0.086461 -1.309473 -0.408912
v 1.349903 -4.214864 -1.046876
v 1.472444 -4.214864 -1.117625
v 1.389598 -4.214864 -1.261118
v 1.267056 -4.214864 -1.190369
v 0.118927 -1.309473 -0.408912
v -0.003615 -1.309473 -0.479661
v -0.086460 -1.309473 -0.336168
v 0.036081 -1.309473 -0.265419
v -1.234594 -4.214864 -1.190364
v -1.357136 -4.214864 -1.261113
v -1.439981 -4.214864 -1.117619
v -1.317440 -4.214864 -1.046870
vn -0.0000 -1.0000 -0.0000
vn -0.0000 1.0000 -0.0000
vn -0.0000 -0.0000 -1.0000
vn -0.9999 -0.0000 0.0152
vn -0.0000 -0.0000 1.0000
vn 0.9999 -0.0000 -0.0152
vn 0.9959 -0.0000 -0.0906
vn -0.9959 -0.0000 0.0906
vn -0.9999 -0.0000 0.0153
vn 0.9999 -0.0000 -0.0153
vn 0.0055 -0.0000 -1.0000
vn -0.8616 -0.0000 0.5076
vn -0.0055 -0.0000 1.0000
vn -0.8768 -0.0000 -0.4808
vn 0.8768 -0.0000 0.4808
vn 0.8616 -0.0000 -0.5076
vn 1.0000 -0.0000 -0.0000
vn -1.0000 -0.0000 -0.0000
vn -0.0000 0.4737 0.8807
vn -0.0000 -0.4737 -0.8807
vn 0.7627 0.4737 -0.4403
vn -0.7627 -0.4737 0.4403
vn 0.5000 -0.0000 0.8660
vn -0.5000 -0.0000 -0.8660
vn -0.7627 0.4737 -0.4403
vn 0.7627 -0.4737 0.4403
vn 0.5000 -0.0000 -0.8660
vn -0.5000 -0.0000 0.8660
vt 0.490810 0.099145
vt 0.490810 0.099145
vt 0.490810 0.099145
vt 0.490810 0.099145
vt 0.490810 0.099145
vt 0.490810 0.099145
vt 0.490810 0.099145
vt 0.490810 0.099145
vt 0.810150 0.111547
vt 0.810150 0.111547
vt 0.810150 0.111547
vt 0.810150 0.111547
vt 0.422601 0.108446
vt 0.810150 0.111547
vt 0.422601 0.108446
vt 0.810150 0.111547
vt 0.422601 0.108446
vt 0.810150 0.111547
vt 0.422601 0.108446
vt 0.810150 0.111547
vt 0.810150 0.111547
vt 0.810150 0.111547
vt 0.810150 0.111547
vt 0.810150 0.111547
vt 0.490810 0.099145
vt 0.490810 0.099145
vt 0.490810 0.099145
vt 0.490810 0.099145
vt 0.490810 0.099145
vt 0.490810 0.099145
vt 0.490810 0.099145
vt 0.490810 0.099145
vt 0.828642 0.096949
vt 0.828642 0.096949
vt 0.828642 0.096949
vt 0.828642 0.096949
vt 0.828642 0.096949
vt 0.828642 0.096949
vt 0.828642 0.096949
vt 0.828642 0.096949
vt 0.828642 0.096949
vt 0.828642 0.096949
vt 0.828642 0.096949
vt 0.828642 0.096949
vt 0.828642 0.096949
vt 0.828642 0.096949
vt 0.828642 0.096949
vt 0.828642 0.096949
vt 0.828642 0.096949
vt 0.828642 0.096949
vt 0.828642 0.096949
vt 0.828642 0.096949
vt 0.828642 0.096949
vt 0.828642 0.096949
vt 0.828642 0.096949
vt 0.828642 0.096949
vt 0.828642 0.096949
vt 0.828642 0.096949
vt 0.828642 0.096949
vt 0.828642 0.096949
vt 0.828642 0.096949
vt 0.828642 0.096949
vt 0.828642 0.096949
vt 0.828642 0.096949
vt 0.828642 0.096949
vt 0.828642 0.096949
vt 0.828642 0.096949
vt 0.828642 0.096949
vt 0.828642 0.096949
vt 0.828642 0.096949
vt 0.828642 0.096949
vt 0.828642 0.096949
vt 0.828642 0.096949
vt 0.828642 0.096949
vt 0.828642 0.096949
vt 0.828642 0.096949
vt 0.828642 0.096949
vt 0.828642 0.096949
vt 0.828642 0.096949
vt 0.828642 0.096949
vt 0.828642 0.096949
vt 0.828642 0.096949
vt 0.828642 0.096949
vt 0.828642 0.096949
vt 0.828642 0.096949
vt 0.828642 0.096949
vt 0.828642 0.096949
vt 0.828642 0.096949
vt 0.828642 0.096949
vt 0.828642 0.096949
vt 0.828642 0.096949
vt 0.828642 0.096949
vt 0.828642 0.096949
vt 0.828642 0.096949
vt 0.828642 0.096949
vt 0.828642 0.096949
vt 0.828642 0.096949
vt 0.828642 0.096949
vt 0.828642 0.096949
vt 0.828642 0.096949
s 1
usemtl Material
f 1/1/1 3/3/1 4/4/1 2/2/1
f 5/5/2 6/6/2 8/8/2 7/7/2
f 4/4/3 3/3/3 7/7/3 8/8/3
f 3/3/4 1/1/4 5/5/4 7/7/4
f 1/1/5 2/2/5 6/6/5 5/5/5
f 2/2/6 4/4/6 8/8/6 6/6/6
f 16/19/5 15/17/5 14/15/5 13/13/5
f 13/14/5 14/16/5 10/10/5 9/9/5
f 15/18/5 16/20/5 11/11/5 12/12/5
f 16/20/5 13/14/5 9/9/5 11/11/5
f 14/16/5 15/18/5 12/12/5 10/10/5
f 10/10/2 12/12/2 20/24/2 18/22/2
f 12/12/7 11/11/7 19/23/7 20/24/7
f 11/11/1 9/9/1 17/21/1 19/23/1
f 9/9/8 10/10/8 18/22/8 17/21/8
f 17/21/3 18/22/3 20/24/3 19/23/3
f 21/25/1 23/27/1 24/28/1 22/26/1
f 25/29/2 26/30/2 28/32/2 27/31/2
f 24/28/3 23/27/3 27/31/3 28/32/3
f 23/27/9 21/25/9 25/29/9 27/31/9
f 21/25/5 22/26/5 26/30/5 25/29/5
f 22/26/10 24/28/10 28/32/10 26/30/10
f 34/38/11 32/36/11 31/35/11 33/37/11
f 30/34/12 33/37/12 31/35/12 29/33/12
f 39/43/13 40/44/13 36/40/13 37/41/13
f 38/42/14 39/43/14 37/41/14 35/39/14
f 30/34/15 29/33/15 32/36/15 34/38/15
f 29/33/1 31/35/1 36/40/1 35/39/1
f 31/35/1 32/36/1 37/41/1 36/40/1
f 32/36/1 29/33/1 35/39/1 37/41/1
f 30/34/2 34/38/2 39/43/2 38/42/2
f 34/38/2 33/37/2 40/44/2 39/43/2
f 33/37/2 30/34/2 38/42/2 40/44/2
f 40/44/16 38/42/16 35/39/16 36/40/16
f 42/46/2 43/47/2 44/48/2 41/45/2
f 46/50/1 45/49/1 48/52/1 47/51/1
f 42/46/3 41/45/3 55/59/3 50/54/3
f 41/45/17 44/48/17 54/58/17 55/59/17
f 43/47/18 42/46/18 50/54/18 51/55/18
f 56/60/17 53/57/17 48/52/17 45/49/17
f 53/57/5 52/56/5 47/51/5 48/52/5
f 44/48/5 43/47/5 51/55/5 54/58/5
f 52/56/18 49/53/18 46/50/18 47/51/18
f 52/56/5 53/57/5 54/58/5 51/55/5
f 56/60/3 49/53/3 50/54/3 55/59/3
f 56/60/3 55/59/3 59/63/3 60/64/3
f 49/53/18 52/56/18 51/55/18 50/54/18
f 49/53/3 56/60/3 45/49/3 46/50/3
f 57/61/1 60/64/1 64/68/1 61/65/1
f 54/58/5 53/57/5 57/61/5 58/62/5
f 55/59/2 54/58/2 58/62/2 59/63/2
f 53/57/1 56/60/1 60/64/1 57/61/1
f 61/65/1 64/68/1 72/76/1 69/73/1
f 58/62/5 57/61/5 61/65/5 62/66/5
f 63/67/3 59/63/3 65/69/3 67/71/3
f 60/64/3 59/63/3 63/67/3 64/68/3
f 65/69/2 66/70/2 68/72/2 67/71/2
f 62/66/17 63/67/17 67/71/17 68/72/17
f 59/63/18 58/62/18 66/70/18 65/69/18
f 58/62/5 62/66/5 68/72/5 66/70/5
f 69/73/17 72/76/17 71/75/17 70/74/17
f 62/66/5 61/65/5 69/73/5 70/74/5
f 63/67/2 62/66/2 70/74/2 71/75/2
f 64/68/3 63/67/3 71/75/3 72/76/3
f 74/78/2 75/79/2 76/80/2 73/77/2
f 78/82/1 77/81/1 80/84/1 79/83/1
f 75/79/19 74/78/19 78/82/19 79/83/19
f 73/77/20 76/80/20 80/84/20 77/81/20
f 74/78/18 73/77/18 77/81/18 78/82/18
f 76/80/17 75/79/17 79/83/17 80/84/17
f 82/86/2 83/87/2 84/88/2 81/85/2
f 86/90/1 85/89/1 88/92/1 87/91/1
f 83/87/21 82/86/21 86/90/21 87/91/21
f 81/85/22 84/88/22 88/92/22 85/89/22
f 82/86/23 81/85/23 85/89/23 86/90/23
f 84/88/24 83/87/24 87/91/24 88/92/24
f 90/94/2 91/95/2 92/96/2 89/93/2
f 94/98/1 93/97/1 96/100/1 95/99/1
f 91/95/25 90/94/25 94/98/25 95/99/25
f 89/93/26 92/96/26 96/100/26 93/97/26
f 90/94/27 89/93/27 93/97/27 94/98/27
f 92/96/28 91/95/28 95/99/28 96/100/28
