# Blender 3.4.1
# www.blender.org
mtllib homeappliance014.mtl
o home_appliance.013
v -0.017527 -2.090830 0.770586
v -0.017527 -1.981419 0.770586
v -0.730151 -2.090830 -0.439000
v 0.641562 -2.090830 -0.431498
v -0.730151 -1.981419 -0.439000
v 0.641562 -1.981419 -0.431498
v -0.020126 -2.090830 0.602219
v -0.584054 -2.090830 -0.354975
v 0.501438 -2.090830 -0.349039
v -0.020126 -1.981419 0.602219
v 0.501438 -1.981419 -0.349039
v -0.584054 -1.981419 -0.354975
v -0.913842 1.381375 0.519433
v -0.913842 4.420569 0.519433
v -0.913842 1.381375 -0.602958
v -0.913842 4.420569 -0.602958
v 0.844443 1.381375 0.519433
v 0.844443 1.381375 -0.602958
v 0.844443 4.420569 -0.602958
v -0.873809 1.381375 -0.562924
v 0.804409 1.381375 -0.562924
v 0.804409 1.381375 0.479400
v -0.873809 1.381375 0.479400
v 0.804409 1.256130 -0.562924
v -0.873809 1.256130 -0.562924
v -0.873809 1.256130 0.479400
v 0.804409 1.256130 0.479400
v 0.880010 1.241603 -0.638526
v -0.949410 1.241603 -0.638526
v -0.949410 1.241603 0.555001
v 0.880010 1.241603 0.555001
v 0.880010 1.065842 -0.638526
v -0.949410 1.065842 -0.638526
v -0.949410 1.065842 0.555001
v 0.880010 1.065842 0.555001
v -0.913842 2.186065 0.519433
v -0.913842 4.420569 0.519433
v 0.844442 2.186065 0.519433
v 0.844442 4.420569 0.519433
v -0.886079 2.225245 0.546520
v -0.886079 4.381389 0.546520
v 0.816680 4.381389 0.546520
v 0.816680 2.225245 0.546520
v 0.041458 1.065842 -0.124608
v -0.100041 1.065842 -0.124608
v -0.100041 1.065842 0.041084
v 0.041458 1.065842 0.041084
v 0.041458 -0.605710 -0.124608
v -0.100041 -0.605710 -0.124608
v -0.100041 -0.605710 0.041084
v 0.041458 -0.605710 0.041084
v -0.100041 0.148435 -0.124608
v -0.100041 0.311697 -0.124608
v -0.100041 0.311697 0.041084
v -0.100041 0.148435 0.041084
v 0.041458 0.148435 0.041084
v 0.041458 0.311697 0.041084
v 0.041458 0.311697 -0.124608
v 0.041458 0.148435 -0.124608
v 0.146546 0.148435 0.041084
v 0.146546 0.311697 0.041084
v 0.146546 0.311697 -0.124608
v 0.146546 0.148435 -0.124608
v 0.250576 0.148435 0.041084
v 0.250576 0.311697 0.041084
v 0.250576 0.311697 -0.124608
v 0.250576 0.148435 -0.124608
v 0.146546 0.543424 -0.124608
v 0.146546 0.543424 0.041084
v 0.250576 0.543424 -0.124608
v 0.250576 0.543424 0.041084
v 0.290373 0.148435 0.041084
v 0.290373 0.311697 0.041084
v 0.290373 0.311697 -0.124608
v 0.290373 0.148435 -0.124608
v -0.112138 -0.596287 -0.112511
v -0.112138 -0.596287 0.028987
v 0.053554 -0.596287 0.028987
v 0.053554 -0.596287 -0.112511
v -0.112136 -3.501678 1.450398
v -0.112136 -3.501678 1.591896
v 0.053556 -3.501678 1.591896
v 0.053556 -3.501678 1.450398
v -0.049139 -0.596287 0.065359
v 0.073402 -0.596287 -0.005390
v -0.009444 -0.596287 -0.148883
v -0.131985 -0.596287 -0.078134
v 1.304378 -3.501678 -0.716098
v 1.426920 -3.501678 -0.786847
v 1.344073 -3.501678 -0.930341
v 1.221532 -3.501678 -0.859591
v 0.073402 -0.596287 -0.078134
v -0.049140 -0.596287 -0.148883
v -0.131985 -0.596287 -0.005390
v -0.009444 -0.596287 0.065359
v -1.280119 -3.501678 -0.859586
v -1.402660 -3.501678 -0.930335
v -1.485506 -3.501678 -0.786841
v -1.362964 -3.501678 -0.716092
vn 0.0055 -0.0000 -1.0000
vn -0.8616 -0.0000 0.5076
vn -0.0055 -0.0000 1.0000
vn -0.8768 -0.0000 -0.4808
vn 0.8768 -0.0000 0.4808
vn -0.0000 -1.0000 -0.0000
vn -0.0000 1.0000 -0.0000
vn 0.8616 -0.0000 -0.5076
vn -1.0000 -0.0000 -0.0000
vn -0.0000 -0.0000 -1.0000
vn 1.0000 -0.0000 -0.0000
vn -0.0000 -0.0000 1.0000
vn 0.0952 0.9909 -0.0952
vn 0.0952 0.9909 0.0952
vn -0.0952 0.9909 -0.0952
vn -0.0952 0.9909 0.0952
vn -0.0000 -0.5687 0.8226
vn -0.6983 -0.0000 0.7158
vn -0.0000 0.5687 0.8226
vn 0.6983 -0.0000 0.7158
vn -0.0000 0.4737 0.8807
vn -0.0000 -0.4737 -0.8807
vn 0.7627 0.4737 -0.4403
vn -0.7627 -0.4737 0.4403
vn 0.5000 -0.0000 0.8660
vn -0.5000 -0.0000 -0.8660
vn -0.7627 0.4737 -0.4403
vn 0.7627 -0.4737 0.4403
vn 0.5000 -0.0000 -0.8660
vn -0.5000 -0.0000 0.8660
vt 0.828642 0.096949
vt 0.828642 0.096949
vt 0.828642 0.096949
vt 0.828642 0.096949
vt 0.828642 0.096949
vt 0.828642 0.096949
vt 0.828642 0.096949
vt 0.828642 0.096949
vt 0.828642 0.096949
vt 0.828642 0.096949
vt 0.828642 0.096949
vt 0.828642 0.096949
vt 0.500123 0.482862
vt 0.500123 0.482862
vt 0.500123 0.482862
vt 0.500123 0.482862
vt 0.500123 0.482862
vt 0.500123 0.482862
vt 0.500123 0.482862
vt 0.500123 0.482862
vt 0.828642 0.096949
vt 0.500123 0.482862
vt 0.828642 0.096949
vt 0.500123 0.482862
vt 0.828642 0.096949
vt 0.500123 0.482862
vt 0.828642 0.096949
vt 0.828642 0.096949
vt 0.828642 0.096949
vt 0.828642 0.096949
vt 0.828642 0.096949
vt 0.828642 0.096949
vt 0.828642 0.096949
vt 0.828642 0.096949
vt 0.828642 0.096949
vt 0.828642 0.096949
vt 0.828642 0.096949
vt 0.828642 0.096949
vt 0.828642 0.096949
vt 0.834842 0.121605
vt 0.834842 0.121605
vt 0.834842 0.121605
vt 0.500123 0.482862
vt 0.834842 0.121605
vt 0.834842 0.121605
vt 0.834842 0.121605
vt 0.834842 0.121605
vt 0.834842 0.121605
vt 0.828642 0.096949
vt 0.828642 0.096949
vt 0.828642 0.096949
vt 0.828642 0.096949
vt 0.828642 0.096949
vt 0.828642 0.096949
vt 0.828642 0.096949
vt 0.828642 0.096949
vt 0.828642 0.096949
vt 0.828642 0.096949
vt 0.828642 0.096949
vt 0.828642 0.096949
vt 0.828642 0.096949
vt 0.828642 0.096949
vt 0.828642 0.096949
vt 0.828642 0.096949
vt 0.828642 0.096949
vt 0.828642 0.096949
vt 0.828642 0.096949
vt 0.828642 0.096949
vt 0.828642 0.096949
vt 0.828642 0.096949
vt 0.828642 0.096949
vt 0.828642 0.096949
vt 0.828642 0.096949
vt 0.828642 0.096949
vt 0.828642 0.096949
vt 0.828642 0.096949
vt 0.828642 0.096949
vt 0.828642 0.096949
vt 0.828642 0.096949
vt 0.828642 0.096949
vt 0.828642 0.096949
vt 0.828642 0.096949
vt 0.828642 0.096949
vt 0.828642 0.096949
vt 0.828642 0.096949
vt 0.828642 0.096949
vt 0.828642 0.096949
vt 0.828642 0.096949
vt 0.828642 0.096949
vt 0.828642 0.096949
vt 0.828642 0.096949
vt 0.828642 0.096949
vt 0.828642 0.096949
vt 0.828642 0.096949
vt 0.828642 0.096949
vt 0.828642 0.096949
vt 0.828642 0.096949
vt 0.828642 0.096949
vt 0.828642 0.096949
vt 0.828642 0.096949
vt 0.828642 0.096949
vt 0.828642 0.096949
vt 0.828642 0.096949
vt 0.828642 0.096949
s 1
usemtl Material
f 6/6/1 4/4/1 3/3/1 5/5/1
f 2/2/2 5/5/2 3/3/2 1/1/2
f 11/11/3 12/12/3 8/8/3 9/9/3
f 10/10/4 11/11/4 9/9/4 7/7/4
f 2/2/5 1/1/5 4/4/5 6/6/5
f 1/1/6 3/3/6 8/8/6 7/7/6
f 3/3/6 4/4/6 9/9/6 8/8/6
f 4/4/6 1/1/6 7/7/6 9/9/6
f 2/2/7 6/6/7 11/11/7 10/10/7
f 6/6/7 5/5/7 12/12/7 11/11/7
f 5/5/7 2/2/7 10/10/7 12/12/7
f 12/12/8 10/10/8 7/7/8 8/8/8
f 13/13/9 14/14/9 16/16/9 15/15/9
f 15/15/10 16/16/10 19/19/10 18/18/10
f 18/18/11 19/19/11 39/43/11 17/17/11
f 17/17/12 39/43/12 14/14/12 13/13/12
f 22/25/12 23/27/12 26/30/12 27/31/12
f 19/19/7 16/16/7 14/14/7 39/43/7
f 15/15/6 18/18/6 21/22/6 20/20/6
f 18/18/6 17/17/6 22/24/6 21/22/6
f 17/17/6 13/13/6 23/26/6 22/24/6
f 13/13/6 15/15/6 20/20/6 23/26/6
f 24/28/13 27/31/14 31/35/14 28/32/13
f 23/27/9 20/21/9 25/29/9 26/30/9
f 21/23/11 22/25/11 27/31/11 24/28/11
f 20/21/10 21/23/10 24/28/10 25/29/10
f 29/33/10 28/32/10 32/36/10 33/37/10
f 25/29/15 24/28/13 28/32/13 29/33/15
f 27/31/14 26/30/16 30/34/16 31/35/14
f 26/30/16 25/29/15 29/33/15 30/34/16
f 33/37/6 32/36/6 35/39/6 34/38/6
f 31/35/12 30/34/12 34/38/12 35/39/12
f 30/34/9 29/33/9 33/37/9 34/38/9
f 28/32/11 31/35/11 35/39/11 32/36/11
f 38/42/10 36/40/10 37/41/10 39/44/10
f 43/48/12 42/47/12 41/46/12 40/45/12
f 36/40/17 38/42/17 43/48/17 40/45/17
f 37/41/18 36/40/18 40/45/18 41/46/18
f 39/44/19 37/41/19 41/46/19 42/47/19
f 38/42/20 39/44/20 42/47/20 43/48/20
f 45/50/7 46/51/7 47/52/7 44/49/7
f 49/54/6 48/53/6 51/56/6 50/55/6
f 45/50/10 44/49/10 58/63/10 53/58/10
f 44/49/11 47/52/11 57/62/11 58/63/11
f 46/51/9 45/50/9 53/58/9 54/59/9
f 59/64/11 56/61/11 51/56/11 48/53/11
f 56/61/12 55/60/12 50/55/12 51/56/12
f 47/52/12 46/51/12 54/59/12 57/62/12
f 55/60/9 52/57/9 49/54/9 50/55/9
f 55/60/12 56/61/12 57/62/12 54/59/12
f 59/64/10 52/57/10 53/58/10 58/63/10
f 59/64/10 58/63/10 62/67/10 63/68/10
f 52/57/9 55/60/9 54/59/9 53/58/9
f 52/57/10 59/64/10 48/53/10 49/54/10
f 60/65/6 63/68/6 67/72/6 64/69/6
f 57/62/12 56/61/12 60/65/12 61/66/12
f 58/63/7 57/62/7 61/66/7 62/67/7
f 56/61/6 59/64/6 63/68/6 60/65/6
f 64/69/6 67/72/6 75/80/6 72/77/6
f 61/66/12 60/65/12 64/69/12 65/70/12
f 66/71/10 62/67/10 68/73/10 70/75/10
f 63/68/10 62/67/10 66/71/10 67/72/10
f 68/73/7 69/74/7 71/76/7 70/75/7
f 65/70/11 66/71/11 70/75/11 71/76/11
f 62/67/9 61/66/9 69/74/9 68/73/9
f 61/66/12 65/70/12 71/76/12 69/74/12
f 72/77/11 75/80/11 74/79/11 73/78/11
f 65/70/12 64/69/12 72/77/12 73/78/12
f 66/71/7 65/70/7 73/78/7 74/79/7
f 67/72/10 66/71/10 74/79/10 75/80/10
f 77/82/7 78/83/7 79/84/7 76/81/7
f 81/86/6 80/85/6 83/88/6 82/87/6
f 78/83/21 77/82/21 81/86/21 82/87/21
f 76/81/22 79/84/22 83/88/22 80/85/22
f 77/82/9 76/81/9 80/85/9 81/86/9
f 79/84/11 78/83/11 82/87/11 83/88/11
f 85/90/7 86/91/7 87/92/7 84/89/7
f 89/94/6 88/93/6 91/96/6 90/95/6
f 86/91/23 85/90/23 89/94/23 90/95/23
f 84/89/24 87/92/24 91/96/24 88/93/24
f 85/90/25 84/89/25 88/93/25 89/94/25
f 87/92/26 86/91/26 90/95/26 91/96/26
f 93/98/7 94/99/7 95/100/7 92/97/7
f 97/102/6 96/101/6 99/104/6 98/103/6
f 94/99/27 93/98/27 97/102/27 98/103/27
f 92/97/28 95/100/28 99/104/28 96/101/28
f 93/98/29 92/97/29 96/101/29 97/102/29
f 95/100/30 94/99/30 98/103/30 99/104/30
