# Blender 3.4.1
# www.blender.org
mtllib homeappliance029.mtl
o home_appliance.028
v -0.924606 0.782730 0.979971
v -0.758583 0.782730 0.979971
v -0.924606 0.942793 0.979971
v -0.758583 0.942793 0.979971
v -0.758583 0.862761 0.979971
v -0.758583 0.782730 1.027449
v -0.924606 0.782730 1.027449
v -0.758583 0.942793 1.027449
v -0.924606 0.942793 1.027449
v -0.758583 0.862761 1.027449
v -1.252327 0.634921 0.979971
v -1.252327 0.634921 -1.613738
v 1.341382 0.634921 0.979971
v 1.341382 0.634921 -1.613738
v -1.252327 1.090602 0.979971
v -1.252327 1.090602 -1.613738
v 1.341382 1.090602 -1.613738
v 1.341382 1.090602 0.979971
v 1.341382 0.862761 -1.613738
v 1.341382 0.862761 0.979971
v 1.341382 1.090602 -1.142124
v 1.341382 1.090602 0.508357
v 1.341382 0.862761 -1.244155
v 1.341382 0.862761 0.610389
v -0.323185 1.090602 -1.142124
v -0.323185 1.090602 0.508357
v -0.323185 0.993293 -1.244155
v -0.323185 0.993293 0.610389
v -1.113682 -1.832891 0.979971
v -1.252327 -1.832891 0.841326
v -1.183005 -1.832891 0.961396
v -1.233752 -1.832891 0.910649
v -1.252327 0.062509 0.841326
v -1.113682 0.062509 0.979971
v -1.233752 0.062509 0.910649
v -1.183005 0.062509 0.961396
v -1.252327 -1.832891 -1.475093
v -1.113682 -1.832891 -1.613738
v -1.233752 -1.832891 -1.544415
v -1.183005 -1.832891 -1.595163
v -1.113682 0.062509 -1.613738
v -1.252327 0.062509 -1.475093
v -1.183005 0.062509 -1.595163
v -1.233752 0.062509 -1.544415
v 1.341382 -1.832891 0.841326
v 1.202737 -1.832891 0.979971
v 1.322807 -1.832891 0.910649
v 1.272060 -1.832891 0.961396
v 1.202737 0.062509 0.979971
v 1.341382 0.062509 0.841326
v 1.272060 0.062509 0.961396
v 1.322807 0.062509 0.910649
v 1.202737 -1.832891 -1.613738
v 1.341382 -1.832891 -1.475093
v 1.272060 -1.832891 -1.595163
v 1.322807 -1.832891 -1.544415
v 1.341382 0.062509 -1.475093
v 1.202737 0.062509 -1.613738
v 1.322807 0.062509 -1.544415
v 1.272060 0.062509 -1.595163
v 1.374872 -0.474001 -1.479502
v 1.374872 -0.400107 -1.479502
v 1.352061 -0.474001 -1.561305
v 1.352061 -0.400107 -1.561305
v 1.207146 -0.400107 -1.647228
v 1.207146 -0.474001 -1.647228
v 1.288949 -0.474001 -1.624416
v 1.288949 -0.400107 -1.624416
v 1.207146 -0.474001 1.013461
v 1.207146 -0.400107 1.013461
v 1.288949 -0.474001 0.990650
v 1.288949 -0.400107 0.990650
v 1.374872 -0.400107 0.845736
v 1.374872 -0.474001 0.845736
v 1.352061 -0.474001 0.927538
v 1.352061 -0.400107 0.927538
v -1.113682 -0.474001 0.979971
v -1.113682 -0.400107 0.979971
v -1.183005 -0.474001 0.961396
v -1.183005 -0.400107 0.961396
v -1.233752 -0.474001 0.910649
v -1.233752 -0.400107 0.910649
v -1.252327 -0.400107 0.841326
v -1.252327 -0.474001 0.841326
v -1.113682 -0.400107 -1.613738
v -1.113682 -0.474001 -1.613738
v -1.183005 -0.400107 -1.595163
v -1.183005 -0.474001 -1.595163
v -1.233752 -0.400107 -1.544415
v -1.233752 -0.474001 -1.544415
v -1.252327 -0.474001 -1.475093
v -1.252327 -0.400107 -1.475093
v 1.341382 -0.400107 -1.475093
v 1.341382 -0.474001 -1.475093
v 1.322807 -0.400107 -1.544415
v 1.322807 -0.474001 -1.544415
v 1.272060 -0.400107 -1.595163
v 1.272060 -0.474001 -1.595163
v 1.202737 -0.474001 -1.613738
v 1.202737 -0.400107 -1.613738
v 1.202737 -0.400107 0.979971
v 1.202737 -0.474001 0.979971
v 1.272060 -0.400107 0.961396
v 1.272060 -0.474001 0.961396
v 1.322807 -0.400107 0.910649
v 1.322807 -0.474001 0.910649
v 1.341382 -0.474001 0.841326
v 1.341382 -0.400107 0.841326
v -1.263006 -0.400107 -1.561305
v -1.263006 -0.474001 -1.561305
v -1.285817 -0.474001 -1.479502
v -1.285817 -0.400107 -1.479502
v -1.199894 -0.400107 -1.624416
v -1.199894 -0.474001 -1.624416
v -1.118091 -0.400107 -1.647228
v -1.118091 -0.474001 -1.647228
v -1.263006 -0.474001 0.927538
v -1.263006 -0.400107 0.927538
v -1.285817 -0.400107 0.845736
v -1.285817 -0.474001 0.845736
v -1.199894 -0.474001 0.990650
v -1.199894 -0.400107 0.990650
v -1.118091 -0.474001 1.013461
v -1.118091 -0.400107 1.013461
v -1.169168 0.634921 1.014957
v -1.169168 0.634921 0.296730
v -0.665457 0.634921 1.014957
v -0.665457 0.634921 0.296730
v -1.169168 0.000702 1.014957
v -1.169168 0.000702 0.296730
v -0.665457 0.000702 0.296730
v -0.665457 0.000702 1.014957
v -1.169168 0.634921 -1.643989
v -0.665457 0.634921 -1.643989
v -1.169168 0.000702 -1.643989
v -0.665457 0.000702 -1.643989
v 1.125367 0.634921 0.296730
v 1.125367 0.000702 0.296730
v 1.125367 0.634921 -1.643989
v 1.125367 0.000702 -1.643989
v 0.690527 0.782730 0.979971
v 0.856550 0.782730 0.979971
v 0.690527 0.942793 0.979971
v 0.856550 0.942793 0.979971
v 0.856550 0.862761 0.979971
v 0.856550 0.782730 1.027449
v 0.690527 0.782730 1.027449
v 0.856550 0.942793 1.027449
v 0.690527 0.942793 1.027449
v 0.856550 0.862761 1.027449
v 0.481373 0.782730 0.979971
v 0.647395 0.782730 0.979971
v 0.481373 0.942793 0.979971
v 0.647395 0.942793 0.979971
v 0.647395 0.862761 0.979971
v 0.647395 0.782730 1.027449
v 0.481373 0.782730 1.027449
v 0.647395 0.942793 1.027449
v 0.481373 0.942793 1.027449
v 0.647395 0.862761 1.027449
v -1.133760 0.782730 0.979971
v -0.967738 0.782730 0.979971
v -1.133760 0.942793 0.979971
v -0.967738 0.942793 0.979971
v -0.967738 0.862761 0.979971
v -0.967738 0.782730 1.027449
v -1.133760 0.782730 1.027449
v -0.967738 0.942793 1.027449
v -1.133760 0.942793 1.027449
v -0.967738 0.862761 1.027449
vn -0.0000 -0.0000 -1.0000
vn -0.0000 -0.0000 1.0000
vn -1.0000 -0.0000 -0.0000
vn -0.0000 1.0000 -0.0000
vn 1.0000 -0.0000 -0.0000
vn -0.0000 -1.0000 -0.0000
vn -0.5352 -0.0000 0.8447
vn -0.9201 -0.0000 0.3918
vn 0.9659 -0.0000 -0.2588
vn 0.9201 -0.0000 -0.3918
vn -0.1328 -0.0000 -0.9911
vn 0.1328 -0.0000 -0.9911
vn -0.5352 -0.0000 -0.8447
vn 0.0782 0.9969 -0.0000
vn -0.0208 -0.5315 -0.8468
vn -0.0208 -0.5315 0.8468
vn 0.1328 -0.0000 0.9911
vn -0.1328 -0.0000 0.9911
vn -0.9659 -0.0000 0.2588
vn -0.9201 -0.0000 -0.3918
vn -0.9659 -0.0000 -0.2588
vn 0.5352 -0.0000 -0.8447
vn 0.5352 -0.0000 0.8447
vn 0.9201 -0.0000 0.3918
vn 0.9659 -0.0000 0.2588
vn 0.9156 -0.0000 0.4020
vn 0.9632 -0.0000 0.2686
vn 0.5385 -0.0000 0.8426
vn 0.1381 -0.0000 0.9904
vn 0.5385 -0.0000 -0.8426
vn 0.1381 -0.0000 -0.9904
vn 0.9156 -0.0000 -0.4020
vn 0.9632 -0.0000 -0.2686
vn -0.9156 -0.0000 -0.4020
vn -0.9632 -0.0000 -0.2686
vn -0.5385 -0.0000 -0.8426
vn -0.1381 -0.0000 -0.9904
vn -0.9156 -0.0000 0.4020
vn -0.9632 -0.0000 0.2686
vn -0.5385 -0.0000 0.8426
vn -0.1381 -0.0000 0.9904
vt 0.270571 0.924513
vt 0.270571 0.924513
vt 0.270571 0.924513
vt 0.270571 0.924513
vt 0.270571 0.924513
vt 0.270571 0.924513
vt 0.270571 0.924513
vt 0.270571 0.924513
vt 0.270571 0.924513
vt 0.270571 0.924513
vt 0.422490 0.099809
vt 0.422490 0.099809
vt 0.422490 0.099809
vt 0.422490 0.099809
vt 0.422490 0.099809
vt 0.422490 0.099809
vt 0.422490 0.099809
vt 0.422490 0.099809
vt 0.422490 0.099809
vt 0.422490 0.099809
vt 0.422490 0.099809
vt 0.422490 0.099809
vt 0.810039 0.090508
vt 0.422490 0.099809
vt 0.810039 0.090508
vt 0.422490 0.099809
vt 0.422490 0.099809
vt 0.422490 0.099809
vt 0.810039 0.090508
vt 0.422490 0.099809
vt 0.810039 0.090508
vt 0.422490 0.099809
vt 0.422490 0.099809
vt 0.422490 0.099809
vt 0.422490 0.099809
vt 0.422490 0.099809
vt 0.803838 0.106010
vt 0.422490 0.099809
vt 0.803838 0.106010
vt 0.422490 0.099809
vt 0.803838 0.106010
vt 0.422490 0.099809
vt 0.803838 0.106010
vt 0.422490 0.099809
vt 0.422490 0.099809
vt 0.422490 0.099809
vt 0.422490 0.099809
vt 0.422490 0.099809
vt 0.803838 0.106010
vt 0.422490 0.099809
vt 0.803838 0.106010
vt 0.422490 0.099809
vt 0.803838 0.106010
vt 0.422490 0.099809
vt 0.803838 0.106010
vt 0.422490 0.099809
vt 0.422490 0.099809
vt 0.422490 0.099809
vt 0.422490 0.099809
vt 0.422490 0.099809
vt 0.803838 0.106010
vt 0.422490 0.099809
vt 0.803838 0.106010
vt 0.422490 0.099809
vt 0.803838 0.106010
vt 0.422490 0.099809
vt 0.803838 0.106010
vt 0.422490 0.099809
vt 0.422490 0.099809
vt 0.422490 0.099809
vt 0.422490 0.099809
vt 0.422490 0.099809
vt 0.803838 0.106010
vt 0.422490 0.099809
vt 0.803838 0.106010
vt 0.422490 0.099809
vt 0.803838 0.106010
vt 0.422490 0.099809
vt 0.803838 0.106010
vt 0.422490 0.099809
vt 0.810039 0.099809
vt 0.810039 0.099809
vt 0.810039 0.099809
vt 0.810039 0.099809
vt 0.810039 0.099809
vt 0.810039 0.099809
vt 0.810039 0.099809
vt 0.810039 0.099809
vt 0.810039 0.099809
vt 0.810039 0.099809
vt 0.810039 0.099809
vt 0.810039 0.099809
vt 0.810039 0.099809
vt 0.810039 0.099809
vt 0.810039 0.099809
vt 0.810039 0.099809
vt 0.422490 0.099809
vt 0.810039 0.099809
vt 0.422490 0.099809
vt 0.810039 0.099809
vt 0.422490 0.099809
vt 0.810039 0.099809
vt 0.422490 0.099809
vt 0.810039 0.099809
vt 0.422490 0.099809
vt 0.810039 0.099809
vt 0.422490 0.099809
vt 0.810039 0.099809
vt 0.422490 0.099809
vt 0.810039 0.099809
vt 0.422490 0.099809
vt 0.810039 0.099809
vt 0.422490 0.099809
vt 0.810039 0.099809
vt 0.422490 0.099809
vt 0.810039 0.099809
vt 0.422490 0.099809
vt 0.810039 0.099809
vt 0.422490 0.099809
vt 0.810039 0.099809
vt 0.422490 0.099809
vt 0.810039 0.099809
vt 0.422490 0.099809
vt 0.810039 0.099809
vt 0.422490 0.099809
vt 0.810039 0.099809
vt 0.422490 0.099809
vt 0.810039 0.099809
vt 0.422490 0.099809
vt 0.810039 0.099809
vt 0.422490 0.099809
vt 0.810039 0.099809
vt 0.422490 0.099809
vt 0.810039 0.099809
vt 0.422490 0.099809
vt 0.810039 0.099809
vt 0.422490 0.099809
vt 0.810039 0.099809
vt 0.422490 0.099809
vt 0.810039 0.099809
vt 0.422490 0.099809
vt 0.810039 0.099809
vt 0.422490 0.099809
vt 0.810039 0.099809
vt 0.422490 0.099809
vt 0.810039 0.099809
vt 0.422490 0.099809
vt 0.810039 0.099809
vt 0.422490 0.099809
vt 0.810039 0.099809
vt 0.422490 0.099809
vt 0.810039 0.099809
vt 0.422490 0.099809
vt 0.810039 0.099809
vt 0.422490 0.099809
vt 0.810039 0.099809
vt 0.422490 0.099809
vt 0.810039 0.099809
vt 0.422490 0.099809
vt 0.810039 0.099809
vt 0.810039 0.099809
vt 0.810039 0.099809
vt 0.810039 0.099809
vt 0.810039 0.099809
vt 0.810039 0.099809
vt 0.810039 0.099809
vt 0.810039 0.099809
vt 0.810039 0.099809
vt 0.810039 0.099809
vt 0.810039 0.099809
vt 0.810039 0.099809
vt 0.810039 0.099809
vt 0.810039 0.099809
vt 0.810039 0.099809
vt 0.810039 0.099809
vt 0.810039 0.099809
vt 0.422490 0.099809
vt 0.422490 0.099809
vt 0.422490 0.099809
vt 0.422490 0.099809
vt 0.422490 0.099809
vt 0.422490 0.099809
vt 0.422490 0.099809
vt 0.422490 0.099809
vt 0.422490 0.099809
vt 0.422490 0.099809
vt 0.422490 0.099809
vt 0.422490 0.099809
vt 0.422490 0.099809
vt 0.422490 0.099809
vt 0.422490 0.099809
vt 0.422490 0.099809
vt 0.270571 0.924513
vt 0.270571 0.924513
vt 0.270571 0.924513
vt 0.270571 0.924513
vt 0.270571 0.924513
vt 0.270571 0.924513
vt 0.270571 0.924513
vt 0.270571 0.924513
vt 0.270571 0.924513
vt 0.270571 0.924513
vt 0.270571 0.924513
vt 0.270571 0.924513
vt 0.270571 0.924513
vt 0.270571 0.924513
vt 0.270571 0.924513
vt 0.270571 0.924513
vt 0.270571 0.924513
vt 0.270571 0.924513
vt 0.270571 0.924513
vt 0.270571 0.924513
vt 0.270571 0.924513
vt 0.270571 0.924513
vt 0.270571 0.924513
vt 0.270571 0.924513
vt 0.270571 0.924513
vt 0.270571 0.924513
vt 0.270571 0.924513
vt 0.270571 0.924513
vt 0.270571 0.924513
vt 0.270571 0.924513
s 1
usemtl Material
f 1/1/1 3/3/1 4/4/1 5/5/1 2/2/1
f 7/7/2 6/6/2 10/10/2 8/8/2 9/9/2
f 3/3/3 1/1/3 7/7/3 9/9/3
f 4/4/4 3/3/4 9/9/4 8/8/4
f 5/5/5 4/4/5 8/8/5 10/10/5
f 2/2/5 5/5/5 10/10/5 6/6/5
f 1/1/6 2/2/6 6/6/6 7/7/6
f 31/35/7 79/101/7 81/105/8 32/36/8
f 57/74/9 93/129/9 95/133/10 59/78/10
f 57/73/4 59/77/4 60/79/4 58/75/4 41/49/4 43/53/4 44/55/4 42/51/4 33/37/4 35/41/4 36/43/4 34/39/4 49/61/4 51/65/4 52/67/4 50/63/4
f 38/46/11 86/115/11 99/141/12 53/69/12
f 41/50/11 85/113/11 87/117/13 43/54/13
f 14/14/6 13/13/6 11/11/6 12/12/6
f 17/17/4 16/16/4 15/15/4 18/18/4 22/22/4 26/28/4 25/27/4 21/21/4
f 23/24/5 19/19/5 17/17/5 21/21/5
f 12/12/3 11/11/3 15/15/3 16/16/3
f 11/11/2 13/13/2 20/20/2 18/18/2 15/15/2
f 14/14/1 12/12/1 16/16/1 17/17/1 19/19/1
f 13/13/5 14/14/5 19/19/5 23/24/5 24/26/5 20/20/5
f 20/20/5 24/26/5 22/22/5 18/18/5
f 24/25/14 23/23/14 27/29/14 28/31/14
f 28/32/5 27/30/5 25/27/5 26/28/5
f 22/22/15 24/26/15 28/32/15 26/28/15
f 23/24/16 21/21/16 25/27/16 27/30/16
f 46/58/17 102/147/17 77/97/18 29/33/18
f 32/36/8 81/105/8 84/111/19 30/34/19
f 30/34/3 84/111/3 91/125/3 37/45/3
f 85/113/11 41/50/11 58/76/12 100/143/12
f 44/56/20 89/121/20 92/127/21 42/52/21
f 54/70/5 94/131/5 107/157/5 45/57/5
f 93/129/5 57/74/5 50/64/5 108/159/5
f 60/80/22 97/137/22 100/143/12 58/76/12
f 102/147/17 46/58/17 48/60/23 104/151/23
f 49/62/17 101/145/17 103/149/23 51/66/23
f 52/68/24 105/153/24 108/159/25 50/64/25
f 75/95/26 74/94/27 73/93/27 76/96/26
f 37/45/6 39/47/6 40/48/6 38/46/6 53/69/6 55/71/6 56/72/6 54/70/6 45/57/6 47/59/6 48/60/6 46/58/6 29/33/6 31/35/6 32/36/6 30/34/6
f 106/155/24 47/59/24 45/57/25 107/157/25
f 104/151/23 48/60/23 47/59/24 106/155/24
f 51/66/23 103/149/23 105/153/24 52/68/24
f 98/139/22 55/71/22 53/69/12 99/141/12
f 96/135/10 56/72/10 55/71/22 98/139/22
f 59/78/10 95/133/10 97/137/22 60/80/22
f 90/123/20 39/47/20 37/45/21 91/125/21
f 88/119/13 40/48/13 39/47/20 90/123/20
f 43/54/13 87/117/13 89/121/20 44/56/20
f 82/107/8 35/42/8 33/38/19 83/109/19
f 80/103/7 36/44/7 35/42/8 82/107/8
f 101/145/17 49/62/17 34/40/18 78/99/18
f 86/115/11 38/46/11 40/48/13 88/119/13
f 83/109/3 33/38/3 42/52/3 92/127/3
f 94/131/9 54/70/9 56/72/10 96/135/10
f 29/33/18 77/97/18 79/101/7 31/35/7
f 108/160/4 105/154/4 76/96/4 73/93/4
f 91/126/6 84/112/6 120/172/6 111/163/6
f 97/138/4 95/134/4 64/84/4 68/88/4
f 87/118/4 85/114/4 115/167/4 113/165/4
f 83/110/4 92/128/4 112/164/4 119/171/4
f 96/136/6 98/140/6 67/87/6 63/83/6
f 86/116/6 88/120/6 114/166/6 116/168/6
f 106/156/6 107/158/6 74/94/6 75/95/6
f 99/142/6 86/116/6 116/168/6 66/86/6
f 85/114/4 100/144/4 65/85/4 115/167/4
f 100/144/4 97/138/4 68/88/4 65/85/4
f 89/122/4 87/118/4 113/165/4 109/161/4
f 79/102/6 77/98/6 123/175/6 121/173/6
f 88/120/6 90/124/6 110/162/6 114/166/6
f 78/100/4 80/104/4 122/174/4 124/176/4
f 98/140/6 99/142/6 66/86/6 67/87/6
f 78/99/18 34/40/18 36/44/7 80/103/7
f 71/91/28 75/95/26 76/96/26 72/92/28
f 69/89/29 71/91/28 72/92/28 70/90/29
f 67/87/30 66/86/31 65/85/31 68/88/30
f 63/83/32 67/87/30 68/88/30 64/84/32
f 61/81/33 63/83/32 64/84/32 62/82/33
f 110/162/34 111/163/35 112/164/35 109/161/34
f 114/166/36 110/162/34 109/161/34 113/165/36
f 116/168/37 114/166/36 113/165/36 115/167/37
f 118/170/38 119/171/39 120/172/39 117/169/38
f 122/174/40 118/170/38 117/169/38 121/173/40
f 124/176/41 122/174/40 121/173/40 123/175/41
f 115/167/37 65/85/31 66/86/31 116/168/37
f 119/171/3 112/164/3 111/163/3 120/172/3
f 62/82/5 73/93/5 74/94/5 61/81/5
f 70/90/29 124/176/41 123/175/41 69/89/29
f 93/130/4 108/160/4 73/93/4 62/82/4
f 82/108/4 83/110/4 119/171/4 118/170/4
f 94/132/6 96/136/6 63/83/6 61/81/6
f 107/158/6 94/132/6 61/81/6 74/94/6
f 104/152/6 106/156/6 75/95/6 71/91/6
f 95/134/4 93/130/4 62/82/4 64/84/4
f 101/146/4 78/100/4 124/176/4 70/90/4
f 105/154/4 103/150/4 72/92/4 76/96/4
f 84/112/6 81/106/6 117/169/6 120/172/6
f 77/98/6 102/148/6 69/89/6 123/175/6
f 90/124/6 91/126/6 111/163/6 110/162/6
f 102/148/6 104/152/6 71/91/6 69/89/6
f 80/104/4 82/108/4 118/170/4 122/174/4
f 103/150/4 101/146/4 70/90/4 72/92/4
f 81/106/6 79/102/6 121/173/6 117/169/6
f 92/128/4 89/122/4 109/161/4 112/164/4
f 128/180/4 126/178/4 125/177/4 127/179/4
f 131/183/6 132/184/6 129/181/6 130/182/6
f 131/183/6 130/182/6 135/187/6 136/188/6
f 128/180/5 127/179/5 132/184/5 131/183/5
f 125/177/3 126/178/3 130/182/3 129/181/3
f 127/179/2 125/177/2 129/181/2 132/184/2
f 133/185/1 134/186/1 136/188/1 135/187/1
f 126/178/4 128/180/4 134/186/4 133/185/4
f 136/188/1 134/186/1 139/191/1 140/192/1
f 130/182/3 126/178/3 133/185/3 135/187/3
f 137/189/5 138/190/5 140/192/5 139/191/5
f 128/180/2 131/183/2 138/190/2 137/189/2
f 131/183/6 136/188/6 140/192/6 138/190/6
f 134/186/4 128/180/4 137/189/4 139/191/4
f 141/193/1 143/195/1 144/196/1 145/197/1 142/194/1
f 147/199/2 146/198/2 150/202/2 148/200/2 149/201/2
f 143/195/3 141/193/3 147/199/3 149/201/3
f 144/196/4 143/195/4 149/201/4 148/200/4
f 145/197/5 144/196/5 148/200/5 150/202/5
f 142/194/5 145/197/5 150/202/5 146/198/5
f 141/193/6 142/194/6 146/198/6 147/199/6
f 151/203/1 153/205/1 154/206/1 155/207/1 152/204/1
f 157/209/2 156/208/2 160/212/2 158/210/2 159/211/2
f 153/205/3 151/203/3 157/209/3 159/211/3
f 154/206/4 153/205/4 159/211/4 158/210/4
f 155/207/5 154/206/5 158/210/5 160/212/5
f 152/204/5 155/207/5 160/212/5 156/208/5
f 151/203/6 152/204/6 156/208/6 157/209/6
f 161/213/1 163/215/1 164/216/1 165/217/1 162/214/1
f 167/219/2 166/218/2 170/222/2 168/220/2 169/221/2
f 163/215/3 161/213/3 167/219/3 169/221/3
f 164/216/4 163/215/4 169/221/4 168/220/4
f 165/217/5 164/216/5 168/220/5 170/222/5
f 162/214/5 165/217/5 170/222/5 166/218/5
f 161/213/6 162/214/6 166/218/6 167/219/6
