# Blender 3.4.1
# www.blender.org
mtllib kitchen026.mtl
o kitchen.025
v 0.108305 -0.498956 0.129920
v 0.103889 -0.085636 0.125508
v -0.145956 -0.498956 0.129920
v -0.141540 -0.085636 0.125508
v 0.108305 -0.498956 -0.124337
v 0.103889 -0.085636 -0.119925
v -0.145956 -0.498956 -0.124337
v -0.141540 -0.085636 -0.119925
v 0.137540 -0.188947 0.159152
v -0.175192 -0.188947 0.159152
v -0.175192 -0.188947 -0.153573
v 0.137540 -0.188947 -0.153573
v 0.039812 0.137078 0.061420
v -0.077449 0.137078 0.061420
v -0.077449 0.137078 -0.055841
v 0.039812 0.137078 -0.055841
v 0.078751 0.038330 -0.094790
v 0.078751 0.038330 0.100369
v -0.116402 0.038330 0.100369
v -0.116402 0.038330 -0.094790
v 0.165669 -0.339364 0.187277
v -0.203306 -0.339364 0.187277
v -0.203306 -0.339364 -0.181698
v 0.165669 -0.339364 -0.181698
v -0.018826 -0.511654 0.155470
v 0.156532 -0.255011 0.178144
v -0.018826 -0.188947 0.217789
v -0.188813 -0.435458 0.172780
v -0.171509 -0.511654 0.002789
v -0.233815 -0.188947 0.002789
v -0.188813 -0.435458 -0.167198
v -0.018826 -0.511654 -0.149891
v -0.018826 -0.188947 -0.212207
v 0.151162 -0.435458 -0.167198
v 0.133858 -0.511654 0.002789
v 0.196178 -0.188947 0.002789
v -0.018826 -0.085636 0.171524
v -0.187553 -0.085636 0.002789
v -0.018826 -0.085636 -0.165945
v 0.149916 -0.085636 0.002789
v 0.119240 -0.136376 0.140852
v -0.156878 -0.136376 0.140852
v -0.156878 -0.136376 -0.135273
v 0.119240 -0.136376 -0.135273
v -0.018826 0.144291 0.072643
v -0.088675 0.144291 0.002789
v -0.018826 0.144291 -0.067064
v 0.051024 0.144291 0.002789
v 0.062569 0.099997 -0.078605
v 0.091182 -0.026540 0.112800
v -0.100220 0.099997 0.084184
v -0.128833 -0.026540 -0.107221
v 0.091182 -0.026540 -0.107221
v 0.062569 0.099997 0.084184
v -0.128833 -0.026540 0.112800
v -0.100220 0.099997 -0.078605
v -0.018826 0.038330 0.136962
v -0.018826 0.038330 -0.131380
v -0.152988 0.038330 0.002789
v 0.115351 0.038330 0.002789
v 0.151162 -0.435458 0.172780
v -0.194170 -0.255011 0.178144
v -0.194170 -0.255011 -0.172565
v 0.156532 -0.255011 -0.172565
v 0.234854 -0.339364 0.002789
v -0.018826 -0.339364 -0.250880
v -0.272491 -0.339364 0.002789
v -0.018826 -0.339364 0.256462
v -0.018826 -0.255011 0.243900
v -0.259936 -0.255011 0.002789
v -0.018826 -0.255011 -0.238321
v 0.222285 -0.255011 0.002789
v -0.018826 -0.538302 0.002789
v 0.092829 0.100708 0.002789
v -0.018826 -0.136376 0.192623
v -0.208663 -0.136376 0.002789
v -0.018826 -0.136376 -0.187044
v 0.171012 -0.136376 0.002789
v -0.018826 0.159429 0.002789
v -0.130466 0.100708 0.002789
v -0.018826 0.100708 -0.108858
v -0.018826 0.100708 0.114437
v -0.018826 -0.026540 0.154054
v -0.018826 -0.026540 -0.148475
v -0.170084 -0.026540 0.002789
v 0.132446 -0.026540 0.002789
v 0.214588 -0.436710 0.002789
v -0.018826 -0.436710 -0.230624
v -0.252239 -0.436710 0.002789
v -0.018826 -0.436710 0.236203
v -0.020597 0.125858 -0.024155
v -0.028972 0.297645 0.031059
v -0.036655 0.300824 0.014448
v -0.014437 0.125858 -0.007662
v 0.008098 0.125858 -0.016071
v -0.008319 0.307248 0.023349
v -0.015988 0.310427 0.006738
v 0.001938 0.125858 -0.032565
v -0.026121 0.265942 0.015182
v -0.035686 0.263369 -0.013659
v 0.003336 0.279631 0.004191
v -0.006229 0.277057 -0.024647
v -0.037015 0.185147 -0.001907
v -0.042884 0.203906 0.041770
v 0.012168 0.185147 -0.020262
v 0.045210 0.203906 0.008898
v -0.021566 0.219631 0.105218
v 0.070681 0.219631 0.070798
v 0.022550 0.205223 0.150179
v 0.066791 0.205223 0.133668
v 0.057752 0.182513 0.183705
v 0.062167 0.182514 0.182065
v -0.012513 0.166432 -0.011313
v 0.001066 0.185020 0.025055
v 0.024612 0.200867 0.088153
v 0.044809 0.187012 0.142285
v 0.060160 0.174334 0.183442
v -0.039313 0.178299 0.001512
v -0.044988 0.196759 0.044643
v 0.016141 0.178299 -0.019179
v 0.048699 0.196759 0.009683
v -0.024293 0.212291 0.106803
v 0.073768 0.212291 0.070206
v 0.018148 0.198571 0.150621
v 0.070418 0.198571 0.131121
v 0.051882 0.177154 0.184484
v 0.067109 0.177155 0.178802
v -0.011586 0.158893 -0.008835
v 0.001855 0.177353 0.027163
v 0.024737 0.192886 0.088506
v 0.044283 0.179166 0.140873
v 0.005551 0.186867 0.001499
v 0.043674 0.204826 -0.016580
v -0.034841 0.186867 -0.028408
v -0.028668 0.204826 -0.070144
v 0.083485 0.219880 -0.066790
v 0.007738 0.219880 -0.122877
v 0.096552 0.206087 -0.125663
v 0.060229 0.206087 -0.152563
v 0.105107 0.184346 -0.171413
v 0.101494 0.184346 -0.174091
v -0.014784 0.168950 -0.013268
v 0.007323 0.186745 -0.043137
v 0.045695 0.201916 -0.094953
v 0.078612 0.188652 -0.139409
v 0.103640 0.176515 -0.173209
v 0.009496 0.180311 0.001554
v 0.047079 0.197983 -0.016383
v -0.036046 0.180311 -0.032163
v -0.029858 0.197983 -0.073348
v 0.086184 0.212854 -0.065427
v 0.005634 0.212854 -0.125057
v 0.099210 0.199719 -0.122361
v 0.056298 0.199719 -0.154137
v 0.108789 0.179215 -0.167101
v 0.096289 0.179215 -0.176361
v -0.013275 0.161733 -0.015303
v 0.008610 0.179405 -0.044867
v 0.045916 0.194276 -0.095244
v 0.077754 0.181141 -0.138249
vn 0.7068 -0.0280 0.7068
vn 0.6831 0.2582 0.6831
vn -0.0000 0.2529 0.9675
vn -0.0000 -0.0275 0.9996
vn 0.6462 0.4059 0.6462
vn -0.0000 0.3971 0.9178
vn -0.6463 0.4059 0.6462
vn -0.6831 0.2582 0.6831
vn -0.7068 -0.0280 0.7068
vn -0.9675 0.2529 -0.0000
vn -0.9996 -0.0274 -0.0000
vn -0.9178 0.3971 -0.0000
vn -0.6463 0.4059 -0.6462
vn -0.6831 0.2582 -0.6831
vn -0.7068 -0.0280 -0.7068
vn -0.0000 0.2529 -0.9675
vn -0.0000 -0.0275 -0.9996
vn -0.0000 0.3971 -0.9178
vn 0.6462 0.4059 -0.6462
vn 0.6831 0.2582 -0.6831
vn 0.7068 -0.0280 -0.7068
vn 0.9675 0.2530 -0.0000
vn 0.9996 -0.0275 -0.0000
vn 0.9178 0.3971 -0.0000
vn -0.3874 -0.8365 0.3874
vn -0.4742 -0.8804 -0.0000
vn -0.0000 -1.0000 -0.0000
vn -0.0000 -0.8804 0.4741
vn -0.3874 -0.8365 -0.3874
vn -0.0000 -0.8804 -0.4742
vn 0.3874 -0.8365 -0.3874
vn 0.4742 -0.8804 -0.0000
vn 0.3874 -0.8365 0.3874
vn 0.6741 0.3017 0.6742
vn 0.9556 0.2947 -0.0000
vn 0.8683 0.4961 -0.0000
vn 0.6105 0.5046 0.6105
vn 0.6741 0.3017 -0.6742
vn 0.6105 0.5046 -0.6105
vn 0.4183 0.8062 -0.4183
vn 0.5085 0.8611 -0.0000
vn 0.4183 0.8062 0.4183
vn 0.6631 0.3473 0.6631
vn -0.0000 0.3380 0.9411
vn -0.0000 0.4102 0.9120
vn 0.6416 0.4203 0.6416
vn -0.6631 0.3473 0.6631
vn -0.6416 0.4203 0.6416
vn -0.9411 0.3380 -0.0000
vn -0.9120 0.4102 -0.0000
vn -0.6631 0.3473 -0.6631
vn -0.6416 0.4203 -0.6416
vn -0.0000 0.3380 -0.9411
vn -0.0000 0.4102 -0.9120
vn 0.6631 0.3473 -0.6631
vn 0.6416 0.4203 -0.6416
vn 0.9411 0.3380 -0.0000
vn 0.9120 0.4102 -0.0000
vn -0.4183 0.8063 -0.4183
vn -0.5085 0.8611 -0.0000
vn -0.0000 1.0000 -0.0000
vn -0.0000 0.8611 -0.5085
vn -0.4183 0.8063 0.4183
vn -0.0000 0.8611 0.5085
vn -0.6742 0.3017 -0.6741
vn -0.9556 0.2947 -0.0000
vn -0.8683 0.4961 -0.0000
vn -0.6105 0.5046 -0.6105
vn -0.6742 0.3017 0.6741
vn -0.6105 0.5046 0.6105
vn -0.0000 0.2947 -0.9556
vn -0.0000 0.4961 -0.8683
vn -0.0000 0.2947 0.9556
vn -0.0000 0.4961 0.8682
vn -0.0000 0.2700 0.9628
vn -0.6794 0.2774 0.6793
vn 0.6793 0.2774 0.6794
vn -0.0000 0.2700 -0.9628
vn 0.6793 0.2773 -0.6794
vn -0.6794 0.2774 -0.6794
vn -0.9628 0.2701 -0.0000
vn 0.9628 0.2701 -0.0000
vn 0.6288 -0.4573 -0.6288
vn 0.8925 -0.4511 -0.0000
vn 0.6288 -0.4573 0.6288
vn -0.6289 -0.4573 -0.6288
vn -0.0000 -0.4510 -0.8925
vn -0.6288 -0.4573 0.6288
vn -0.8925 -0.4510 -0.0000
vn -0.0000 -0.4510 0.8925
vn -0.8912 0.0824 -0.4460
vn -0.7098 -0.5968 -0.3742
vn -0.3087 -0.6486 0.6957
vn -0.9174 -0.2121 0.3368
vn 0.3254 0.3945 -0.8594
vn 0.9503 0.1222 0.2863
vn 0.7624 -0.5774 0.2923
vn 0.9412 0.0704 -0.3305
vn -0.3565 0.0308 -0.9338
vn -0.7673 0.4767 0.4290
vn 0.2741 0.9608 0.0404
vn 0.0736 0.9313 -0.3568
vn -0.8702 0.4926 -0.0046
vn 0.4194 -0.2243 0.8797
vn 0.4688 -0.3614 0.8060
vn -0.1138 0.9456 -0.3049
vn -0.0972 0.9606 -0.2602
vn 0.2441 0.8101 -0.5330
vn -0.5099 0.8515 -0.1225
vn -0.5338 0.8100 -0.2427
vn -0.3403 0.9150 0.2165
vn -0.0176 0.9987 -0.0470
vn 0.0189 0.8885 0.4585
vn 0.0503 0.9896 0.1349
vn 0.7006 0.6991 -0.1430
vn 0.0545 0.9876 0.1470
vn 0.2860 0.8885 0.3588
vn -0.6230 0.6991 0.3509
vn 0.3988 0.9151 -0.0593
vn 0.3049 0.8515 -0.4266
vn -0.1280 -0.9306 -0.3430
vn 0.4805 -0.5345 -0.6953
vn 0.8363 -0.3645 -0.4095
vn 0.0984 -0.9596 0.2637
vn 0.0165 -0.9989 0.0443
vn -0.3416 -0.9187 0.1984
vn -0.9000 -0.3647 0.2385
vn -0.0519 -0.9889 -0.1391
vn -0.4757 -0.8787 0.0405
vn -0.0553 -0.9875 -0.1479
vn -0.5299 -0.8464 0.0533
vn 0.3859 -0.8787 -0.2810
vn 0.4352 -0.8465 -0.3068
vn 0.3881 -0.9187 -0.0738
vn -0.8185 -0.5346 -0.2103
vn -0.8247 -0.0381 -0.5643
vn -0.3347 -0.2890 -0.8969
vn 0.2534 -0.0379 -0.9666
vn 0.9026 0.4020 -0.1536
vn -0.7826 0.4018 0.4754
vn 0.8765 0.4326 0.2111
vn -0.5241 0.4324 0.7337
vn 0.7734 0.2828 0.5673
vn 0.5542 0.0042 0.8324
vn 0.7882 0.3098 0.5317
vn -0.2130 0.2834 0.9351
vn -0.2471 0.3100 0.9181
vn 0.1267 0.0054 0.9919
vn -0.1937 0.9455 0.2616
vn -0.1652 0.9606 0.2233
vn -0.5796 0.8103 0.0859
vn 0.1751 0.8514 0.4943
vn 0.0873 0.8101 0.5797
vn 0.3668 0.9151 0.1673
vn -0.0298 0.9987 0.0404
vn 0.3740 0.8885 -0.2658
vn 0.0856 0.9896 -0.1156
vn -0.5019 0.6989 -0.5095
vn 0.1451 0.8885 -0.4352
vn 0.6337 0.6990 0.3313
vn -0.2668 0.9153 -0.3019
vn -0.5239 0.8515 -0.0231
vn -0.2178 -0.9306 0.2942
vn -0.8448 -0.5345 -0.0241
vn -0.7993 -0.3642 -0.4780
vn 0.1675 -0.9596 -0.2262
vn 0.0282 -0.9989 -0.0380
vn 0.3525 -0.9187 0.1783
vn 0.6904 -0.3646 0.6248
vn -0.0883 -0.9889 0.1193
vn 0.2932 -0.8787 0.3768
vn -0.0940 -0.9875 0.1268
vn 0.3335 -0.8463 0.4153
vn -0.4459 -0.8787 -0.1705
vn -0.4945 -0.8464 -0.1977
vn -0.2733 -0.9187 -0.2852
vn 0.2697 -0.5346 0.8009
vn -0.0237 -0.0382 0.9990
vn -0.5696 -0.2892 0.7694
vn -0.9486 -0.0379 0.3143
vn -0.6206 0.4028 -0.6727
vn 0.8249 0.4024 0.3970
vn -0.3006 0.4327 -0.8499
vn 0.9007 0.4327 0.0394
vn 0.0540 0.2831 -0.9576
vn 0.3957 0.0049 -0.9184
vn 0.0161 0.3101 -0.9506
vn 0.9003 0.2831 -0.3306
vn 0.9046 0.3099 -0.2926
vn 0.7634 0.0051 -0.6459
vt 0.337371 0.962417
vt 0.337371 0.962417
vt 0.337371 0.962417
vt 0.337371 0.962417
vt 0.337371 0.962417
vt 0.337371 0.962417
vt 0.337371 0.962417
vt 0.337371 0.962417
vt 0.337371 0.962417
vt 0.337371 0.962417
vt 0.337371 0.962417
vt 0.337371 0.962417
vt 0.337371 0.962417
vt 0.337371 0.962417
vt 0.337371 0.962417
vt 0.337371 0.962417
vt 0.337371 0.962417
vt 0.337371 0.962417
vt 0.337371 0.962417
vt 0.337371 0.962417
vt 0.337371 0.962417
vt 0.337371 0.962417
vt 0.337371 0.962417
vt 0.337371 0.962417
vt 0.337371 0.962417
vt 0.337371 0.962417
vt 0.337371 0.962417
vt 0.337371 0.962417
vt 0.337371 0.962417
vt 0.337371 0.962417
vt 0.337371 0.962417
vt 0.337371 0.962417
vt 0.337371 0.962417
vt 0.337371 0.962417
vt 0.337371 0.962417
vt 0.337371 0.962417
vt 0.337371 0.962417
vt 0.337371 0.962417
vt 0.337371 0.962417
vt 0.337371 0.962417
vt 0.337371 0.962417
vt 0.337371 0.962417
vt 0.337371 0.962417
vt 0.337371 0.962417
vt 0.337371 0.962417
vt 0.337371 0.962417
vt 0.337371 0.962417
vt 0.337371 0.962417
vt 0.337371 0.962417
vt 0.337371 0.962417
vt 0.337371 0.962417
vt 0.337371 0.962417
vt 0.337371 0.962417
vt 0.337371 0.962417
vt 0.337371 0.962417
vt 0.337371 0.962417
vt 0.337371 0.962417
vt 0.337371 0.962417
vt 0.337371 0.962417
vt 0.337371 0.962417
vt 0.337371 0.962417
vt 0.337371 0.962417
vt 0.337371 0.962417
vt 0.337371 0.962417
vt 0.337371 0.962417
vt 0.337371 0.962417
vt 0.337371 0.962417
vt 0.337371 0.962417
vt 0.337371 0.962417
vt 0.337371 0.962417
vt 0.337371 0.962417
vt 0.337371 0.962417
vt 0.337371 0.962417
vt 0.337371 0.962417
vt 0.337371 0.962417
vt 0.337371 0.962417
vt 0.337371 0.962417
vt 0.337371 0.962417
vt 0.337371 0.962417
vt 0.337371 0.962417
vt 0.337371 0.962417
vt 0.337371 0.962417
vt 0.337371 0.962417
vt 0.337371 0.962417
vt 0.337371 0.962417
vt 0.337371 0.962417
vt 0.337371 0.962417
vt 0.337371 0.962417
vt 0.337371 0.962417
vt 0.337371 0.962417
vt 0.301548 0.893047
vt 0.301548 0.893047
vt 0.301548 0.893047
vt 0.301548 0.893047
vt 0.301548 0.893047
vt 0.301548 0.893047
vt 0.301548 0.893047
vt 0.301548 0.893047
vt 0.301548 0.893047
vt 0.301548 0.893047
vt 0.301548 0.893047
vt 0.301548 0.893047
vt 0.507753 0.690217
vt 0.507753 0.690217
vt 0.507753 0.690217
vt 0.507753 0.690217
vt 0.507753 0.690217
vt 0.507753 0.690217
vt 0.507753 0.690217
vt 0.507753 0.690217
vt 0.507753 0.690217
vt 0.507753 0.690217
vt 0.507753 0.690217
vt 0.507753 0.690217
vt 0.507753 0.690217
vt 0.507753 0.690217
vt 0.507753 0.690217
vt 0.507753 0.690217
vt 0.507753 0.690217
vt 0.507753 0.690217
vt 0.507753 0.690217
vt 0.507753 0.690217
vt 0.507753 0.690217
vt 0.507753 0.690217
vt 0.507753 0.690217
vt 0.507753 0.690217
vt 0.507753 0.690217
vt 0.507753 0.690217
vt 0.507753 0.690217
vt 0.507753 0.690217
vt 0.507753 0.690217
vt 0.507753 0.690217
vt 0.507753 0.690217
vt 0.507753 0.690217
vt 0.507753 0.690217
vt 0.507753 0.690217
vt 0.507753 0.690217
vt 0.507753 0.690217
vt 0.507753 0.690217
vt 0.507753 0.690217
vt 0.507753 0.690217
vt 0.507753 0.690217
vt 0.507753 0.690217
vt 0.507753 0.690217
vt 0.507753 0.690217
vt 0.507753 0.690217
vt 0.507753 0.690217
vt 0.507753 0.690217
vt 0.507753 0.690217
vt 0.507753 0.690217
vt 0.507753 0.690217
vt 0.507753 0.690217
vt 0.507753 0.690217
vt 0.507753 0.690217
vt 0.507753 0.690217
vt 0.507753 0.690217
vt 0.507753 0.690217
vt 0.507753 0.690217
vt 0.507753 0.690217
vt 0.507753 0.690217
s 1
usemtl Material
f 21/21/1 26/26/2 69/69/3 68/68/4
f 26/26/2 9/9/5 27/27/6 69/69/3
f 69/69/3 27/27/6 10/10/7 62/62/8
f 68/68/4 69/69/3 62/62/8 22/22/9
f 22/22/9 62/62/8 70/70/10 67/67/11
f 62/62/8 10/10/7 30/30/12 70/70/10
f 70/70/10 30/30/12 11/11/13 63/63/14
f 67/67/11 70/70/10 63/63/14 23/23/15
f 23/23/15 63/63/14 71/71/16 66/66/17
f 63/63/14 11/11/13 33/33/18 71/71/16
f 71/71/16 33/33/18 12/12/19 64/64/20
f 66/66/17 71/71/16 64/64/20 24/24/21
f 24/24/21 64/64/20 72/72/22 65/65/23
f 64/64/20 12/12/19 36/36/24 72/72/22
f 72/72/22 36/36/24 9/9/5 26/26/2
f 65/65/23 72/72/22 26/26/2 21/21/1
f 3/3/25 29/29/26 73/73/27 25/25/28
f 29/29/26 7/7/29 32/32/30 73/73/27
f 73/73/27 32/32/30 5/5/31 35/35/32
f 25/25/28 73/73/27 35/35/32 1/1/33
f 18/18/34 60/60/35 74/74/36 54/54/37
f 60/60/35 17/17/38 49/49/39 74/74/36
f 74/74/36 49/49/39 16/16/40 48/48/41
f 54/54/37 74/74/36 48/48/41 13/13/42
f 2/2/43 37/37/44 75/75/45 41/41/46
f 37/37/44 4/4/47 42/42/48 75/75/45
f 75/75/45 42/42/48 10/10/7 27/27/6
f 41/41/46 75/75/45 27/27/6 9/9/5
f 4/4/47 38/38/49 76/76/50 42/42/48
f 38/38/49 8/8/51 43/43/52 76/76/50
f 76/76/50 43/43/52 11/11/13 30/30/12
f 42/42/48 76/76/50 30/30/12 10/10/7
f 8/8/51 39/39/53 77/77/54 43/43/52
f 39/39/53 6/6/55 44/44/56 77/77/54
f 77/77/54 44/44/56 12/12/19 33/33/18
f 43/43/52 77/77/54 33/33/18 11/11/13
f 6/6/55 40/40/57 78/78/58 44/44/56
f 40/40/57 2/2/43 41/41/46 78/78/58
f 78/78/58 41/41/46 9/9/5 36/36/24
f 44/44/56 78/78/58 36/36/24 12/12/19
f 15/15/59 46/46/60 79/79/61 47/47/62
f 46/46/60 14/14/63 45/45/64 79/79/61
f 79/79/61 45/45/64 13/13/42 48/48/41
f 47/47/62 79/79/61 48/48/41 16/16/40
f 20/20/65 59/59/66 80/80/67 56/56/68
f 59/59/66 19/19/69 51/51/70 80/80/67
f 80/80/67 51/51/70 14/14/63 46/46/60
f 56/56/68 80/80/67 46/46/60 15/15/59
f 17/17/38 58/58/71 81/81/72 49/49/39
f 58/58/71 20/20/65 56/56/68 81/81/72
f 81/81/72 56/56/68 15/15/59 47/47/62
f 49/49/39 81/81/72 47/47/62 16/16/40
f 19/19/69 57/57/73 82/82/74 51/51/70
f 57/57/73 18/18/34 54/54/37 82/82/74
f 82/82/74 54/54/37 13/13/42 45/45/64
f 51/51/70 82/82/74 45/45/64 14/14/63
f 4/4/47 37/37/44 83/83/75 55/55/76
f 37/37/44 2/2/43 50/50/77 83/83/75
f 83/83/75 50/50/77 18/18/34 57/57/73
f 55/55/76 83/83/75 57/57/73 19/19/69
f 6/6/55 39/39/53 84/84/78 53/53/79
f 39/39/53 8/8/51 52/52/80 84/84/78
f 84/84/78 52/52/80 20/20/65 58/58/71
f 53/53/79 84/84/78 58/58/71 17/17/38
f 8/8/51 38/38/49 85/85/81 52/52/80
f 38/38/49 4/4/47 55/55/76 85/85/81
f 85/85/81 55/55/76 19/19/69 59/59/66
f 52/52/80 85/85/81 59/59/66 20/20/65
f 2/2/43 40/40/57 86/86/82 50/50/77
f 40/40/57 6/6/55 53/53/79 86/86/82
f 86/86/82 53/53/79 17/17/38 60/60/35
f 50/50/77 86/86/82 60/60/35 18/18/34
f 5/5/31 34/34/83 87/87/84 35/35/32
f 34/34/83 24/24/21 65/65/23 87/87/84
f 87/87/84 65/65/23 21/21/1 61/61/85
f 35/35/32 87/87/84 61/61/85 1/1/33
f 7/7/29 31/31/86 88/88/87 32/32/30
f 31/31/86 23/23/15 66/66/17 88/88/87
f 88/88/87 66/66/17 24/24/21 34/34/83
f 32/32/30 88/88/87 34/34/83 5/5/31
f 3/3/25 28/28/88 89/89/89 29/29/26
f 28/28/88 22/22/9 67/67/11 89/89/89
f 89/89/89 67/67/11 23/23/15 31/31/86
f 29/29/26 89/89/89 31/31/86 7/7/29
f 1/1/33 61/61/85 90/90/90 25/25/28
f 61/61/85 21/21/1 68/68/4 90/90/90
f 90/90/90 68/68/4 22/22/9 28/28/88
f 25/25/28 90/90/90 28/28/88 3/3/25
f 100/100/91 91/91/92 94/94/93 99/99/94
f 102/102/95 101/101/96 95/95/97 98/98/98
f 91/91/92 98/98/27 95/95/97 94/94/93
f 100/100/91 102/102/95 98/98/99 91/91/92
f 92/92/100 96/96/101 97/97/102 93/93/103
f 99/99/104 101/101/96 96/96/105 92/92/105
f 94/94/93 95/95/97 101/101/96 99/99/104
f 93/93/103 97/97/102 102/102/95 100/100/91
f 97/97/102 96/96/101 101/101/96 102/102/95
f 93/93/103 100/100/91 99/99/94 92/92/100
f 113/113/106 114/114/107 106/106/108 105/105/109
f 114/114/107 104/104/110 107/107/111 115/115/112
f 115/115/112 107/107/111 109/109/113 116/116/114
f 116/116/114 109/109/113 111/111/115 117/117/116
f 110/110/117 116/116/114 117/117/116 112/112/118
f 108/108/119 115/115/112 116/116/114 110/110/117
f 106/106/108 114/114/107 115/115/112 108/108/119
f 103/103/120 104/104/110 114/114/107 113/113/106
f 128/128/121 120/120/122 121/121/123 129/129/124
f 129/129/124 130/130/125 122/122/126 119/119/127
f 130/130/125 131/131/128 124/124/129 122/122/126
f 131/131/128 117/117/130 126/126/131 124/124/129
f 125/125/132 127/127/133 117/117/130 131/131/128
f 123/123/134 125/125/132 131/131/128 130/130/125
f 121/121/123 123/123/134 130/130/125 129/129/124
f 118/118/135 128/128/121 129/129/124 119/119/127
f 103/103/136 113/113/137 128/128/121 118/118/135
f 104/104/110 103/103/136 118/118/135 119/119/127
f 105/105/138 106/106/108 121/121/123 120/120/122
f 106/106/108 108/108/119 123/123/139 121/121/123
f 107/107/111 104/104/110 119/119/127 122/122/140
f 108/108/119 110/110/117 125/125/141 123/123/139
f 109/109/113 107/107/111 122/122/140 124/124/142
f 112/112/143 117/117/144 127/127/145
f 110/110/117 112/112/143 127/127/145 125/125/141
f 111/111/146 109/109/113 124/124/142 126/126/147
f 113/113/137 105/105/138 120/120/122 128/128/121
f 117/117/148 111/111/146 126/126/147
f 142/142/149 143/143/150 135/135/151 134/134/152
f 143/143/150 133/133/153 136/136/154 144/144/155
f 144/144/155 136/136/154 138/138/156 145/145/157
f 145/145/157 138/138/156 140/140/158 146/146/158
f 139/139/159 145/145/157 146/146/160 141/141/160
f 137/137/161 144/144/155 145/145/157 139/139/159
f 135/135/151 143/143/150 144/144/155 137/137/161
f 132/132/162 133/133/153 143/143/150 142/142/149
f 157/157/163 149/149/164 150/150/165 158/158/166
f 158/158/166 159/159/167 151/151/168 148/148/169
f 159/159/167 160/160/170 153/153/171 151/151/168
f 160/160/170 146/146/172 155/155/173 153/153/171
f 154/154/174 156/156/175 146/146/172 160/160/170
f 152/152/176 154/154/174 160/160/170 159/159/167
f 150/150/165 152/152/176 159/159/167 158/158/166
f 147/147/177 157/157/163 158/158/166 148/148/169
f 132/132/178 142/142/179 157/157/163 147/147/177
f 133/133/153 132/132/178 147/147/177 148/148/169
f 134/134/180 135/135/151 150/150/165 149/149/164
f 135/135/151 137/137/161 152/152/181 150/150/165
f 136/136/154 133/133/153 148/148/169 151/151/182
f 137/137/161 139/139/159 154/154/183 152/152/181
f 138/138/156 136/136/154 151/151/182 153/153/184
f 141/141/185 146/146/186 156/156/187
f 139/139/159 141/141/185 156/156/187 154/154/183
f 140/140/188 138/138/156 153/153/184 155/155/189
f 142/142/179 134/134/180 149/149/164 157/157/163
f 146/146/190 140/140/188 155/155/189
