# Blender 3.4.1
# www.blender.org
mtllib kitchen005.mtl
o kitchen.004
v -3.061673 -5.686728 0.080097
v -3.061673 -5.686728 -3.391071
v 2.863757 -5.686728 0.080097
v 2.863757 -5.686728 -3.391071
v 2.863757 4.309183 0.080097
v 2.863757 4.309183 -3.391071
v -3.061673 4.309183 0.080097
v -3.061673 4.309183 -3.391071
v -0.853311 4.309182 0.080099
v 2.863762 4.309182 0.080099
v 2.863762 -1.676516 0.080099
v -0.853311 -1.676516 0.080099
v -0.853311 4.309182 0.292867
v -0.781104 4.236975 0.365074
v 2.791555 4.236975 0.365074
v 2.863762 4.309182 0.292867
v -0.853311 -1.676516 0.292867
v -0.781104 -1.604309 0.365074
v 2.791555 -1.604309 0.365074
v 2.863762 -1.676516 0.292867
v -0.853311 -1.699774 0.080099
v 2.863762 -1.699774 0.080099
v 2.863762 -4.980149 0.080099
v -0.853311 -4.980149 0.080099
v -0.853311 -1.699774 0.292866
v -0.781104 -1.771981 0.365073
v 2.791555 -1.771981 0.365073
v 2.863762 -1.699774 0.292866
v -0.853311 -4.980149 0.292866
v -0.781104 -4.907942 0.365073
v 2.791555 -4.907942 0.365073
v 2.863762 -4.980149 0.292866
v -3.030874 4.840303 -3.526618
v 2.863762 4.840303 -3.526618
v 2.863762 4.300003 -3.526618
v -3.030874 4.300003 -3.526618
v -3.030874 4.840303 0.292866
v -2.958667 4.768097 0.365073
v 2.791555 4.768097 0.365073
v 2.863762 4.840303 0.292866
v -3.030874 4.300003 0.292866
v -2.958667 4.372211 0.365073
v 2.791555 4.372211 0.365073
v 2.863762 4.300003 0.292866
v -0.761879 -1.191357 0.318874
v 2.772330 -1.191357 0.318874
v 2.772330 -1.387444 0.318874
v -0.761879 -1.387444 0.318874
v -0.761879 -1.191357 0.502575
v -0.693224 -1.195047 0.564917
v 2.703675 -1.195047 0.564917
v 2.772330 -1.191357 0.502575
v -0.761879 -1.387444 0.502575
v -0.693224 -1.383754 0.564917
v 2.703675 -1.383754 0.564917
v 2.772330 -1.387444 0.502575
v -0.761879 -1.799770 0.318874
v 2.772330 -1.799770 0.318874
v 2.772330 -1.976795 0.318874
v -0.761879 -1.976795 0.318874
v -0.761879 -1.799770 0.502575
v -0.693224 -1.803460 0.564917
v 2.703675 -1.803460 0.564917
v 2.772330 -1.799770 0.502575
v -0.761879 -1.976795 0.502575
v -0.693224 -1.973105 0.564917
v 2.703675 -1.973105 0.564917
v 2.772330 -1.976795 0.502575
v -3.027045 4.309182 0.080099
v -0.844329 4.309182 0.080099
v -0.844329 -4.939329 0.080099
v -3.027045 -4.939329 0.080099
v -3.027045 4.309182 0.292867
v -2.954838 4.236975 0.365073
v -0.916536 4.236975 0.365073
v -0.844329 4.309182 0.292867
v -3.027045 -4.939329 0.292867
v -2.954838 -4.867123 0.365073
v -0.916536 -4.867123 0.365073
v -0.844329 -4.939329 0.292867
v -2.711471 1.921712 0.340945
v -1.159903 1.921712 0.340945
v -2.711471 0.889116 0.340945
v -1.159903 0.889116 0.340945
v -2.625659 1.848150 0.425930
v -1.245714 1.848150 0.425930
v -2.625659 0.962677 0.425930
v -1.245714 0.962677 0.425930
v -2.711471 1.921712 0.425930
v -1.159903 1.921712 0.425930
v -2.711471 0.889116 0.425930
v -1.159903 0.889116 0.425930
vn -0.0000 -1.0000 -0.0000
vn -0.0000 -0.0000 1.0000
vn 1.0000 -0.0000 -0.0000
vn -1.0000 -0.0000 -0.0000
vn -0.0000 -0.0000 -1.0000
vn -0.0000 1.0000 -0.0000
vn -0.0000 0.7071 0.7071
vn -0.7071 -0.0000 0.7071
vn 0.7071 -0.0000 0.7071
vn -0.0000 -0.7071 0.7071
vn -0.0000 -0.9998 0.0189
vn -0.0000 0.9983 0.0591
vn -0.0000 0.9998 0.0189
vn -0.6723 -0.0000 0.7403
vn 0.6723 -0.0000 0.7403
vn -0.0000 -0.9983 0.0591
vt 0.797638 0.078347
vt 0.797638 0.078347
vt 0.797638 0.078347
vt 0.797638 0.078347
vt 0.797638 0.078347
vt 0.797638 0.078347
vt 0.797638 0.078347
vt 0.797638 0.078347
vt 0.797638 0.078347
vt 0.797638 0.078347
vt 0.797638 0.078347
vt 0.797638 0.078347
vt 0.797638 0.078347
vt 0.797638 0.078347
vt 0.797638 0.078347
vt 0.797638 0.078347
vt 0.797638 0.078347
vt 0.797638 0.078347
vt 0.797638 0.078347
vt 0.797638 0.078347
vt 0.797638 0.078347
vt 0.797638 0.078347
vt 0.797638 0.078347
vt 0.797638 0.078347
vt 0.797638 0.078347
vt 0.797638 0.078347
vt 0.797638 0.078347
vt 0.797638 0.078347
vt 0.797638 0.078347
vt 0.797638 0.078347
vt 0.797638 0.078347
vt 0.797638 0.078347
vt 0.797638 0.078347
vt 0.797638 0.078347
vt 0.797638 0.078347
vt 0.797638 0.078347
vt 0.797638 0.078347
vt 0.797638 0.078347
vt 0.797638 0.078347
vt 0.797638 0.078347
vt 0.797638 0.078347
vt 0.797638 0.078347
vt 0.797638 0.078347
vt 0.797638 0.078347
vt 0.434892 0.109351
vt 0.434892 0.109351
vt 0.434892 0.109351
vt 0.434892 0.109351
vt 0.434892 0.109351
vt 0.434892 0.109351
vt 0.434892 0.109351
vt 0.434892 0.109351
vt 0.434892 0.109351
vt 0.434892 0.109351
vt 0.434892 0.109351
vt 0.434892 0.109351
vt 0.434892 0.109351
vt 0.434892 0.109351
vt 0.434892 0.109351
vt 0.434892 0.109351
vt 0.434892 0.109351
vt 0.434892 0.109351
vt 0.434892 0.109351
vt 0.434892 0.109351
vt 0.434892 0.109351
vt 0.434892 0.109351
vt 0.434892 0.109351
vt 0.434892 0.109351
vt 0.797638 0.078347
vt 0.797638 0.078347
vt 0.797638 0.078347
vt 0.797638 0.078347
vt 0.797638 0.078347
vt 0.797638 0.078347
vt 0.797638 0.078347
vt 0.797638 0.078347
vt 0.797638 0.078347
vt 0.797638 0.078347
vt 0.797638 0.078347
vt 0.797638 0.078347
vt 0.453494 0.103150
vt 0.453494 0.103150
vt 0.453494 0.103150
vt 0.453494 0.103150
vt 0.856545 0.112451
vt 0.453494 0.103150
vt 0.856545 0.112451
vt 0.453494 0.103150
vt 0.856545 0.112451
vt 0.453494 0.103150
vt 0.856545 0.112451
vt 0.453494 0.103150
vt 0.453494 0.103150
vt 0.453494 0.103150
vt 0.453494 0.103150
vt 0.453494 0.103150
s 1
usemtl Material
f 2/2/1 4/4/1 3/3/1 1/1/1
f 3/3/2 5/5/2 7/7/2 1/1/2
f 4/4/3 6/6/3 5/5/3 3/3/3
f 1/1/4 7/7/4 8/8/4 2/2/4
f 2/2/5 8/8/5 6/6/5 4/4/5
f 8/8/6 7/7/6 5/5/6 6/6/6
f 11/11/5 12/12/5 9/9/5 10/10/5
f 9/9/4 12/12/4 17/17/4 13/13/4
f 11/11/3 10/10/3 16/16/3 20/20/3
f 12/12/1 11/11/1 20/20/1 17/17/1
f 19/19/2 15/15/2 14/14/2 18/18/2
f 14/14/7 15/15/7 16/16/7 13/13/7
f 13/13/8 17/17/8 18/18/8 14/14/8
f 20/20/9 16/16/9 15/15/9 19/19/9
f 17/17/10 20/20/10 19/19/10 18/18/10
f 10/10/6 9/9/6 13/13/6 16/16/6
f 23/23/5 24/24/5 21/21/5 22/22/5
f 21/21/4 24/24/4 29/29/4 25/25/4
f 23/23/3 22/22/3 28/28/3 32/32/3
f 24/24/1 23/23/1 32/32/1 29/29/1
f 31/31/2 27/27/2 26/26/2 30/30/2
f 26/26/7 27/27/7 28/28/7 25/25/7
f 25/25/8 29/29/8 30/30/8 26/26/8
f 32/32/9 28/28/9 27/27/9 31/31/9
f 29/29/10 32/32/10 31/31/10 30/30/10
f 22/22/6 21/21/6 25/25/6 28/28/6
f 35/35/5 36/36/5 33/33/5 34/34/5
f 33/33/4 36/36/4 41/41/4 37/37/4
f 35/35/3 34/34/3 40/40/3 44/44/3
f 36/36/1 35/35/1 44/44/1 41/41/1
f 43/43/2 39/39/2 38/38/2 42/42/2
f 38/38/7 39/39/7 40/40/7 37/37/7
f 37/37/8 41/41/8 42/42/8 38/38/8
f 44/44/9 40/40/9 39/39/9 43/43/9
f 41/41/10 44/44/10 43/43/10 42/42/10
f 34/34/6 33/33/6 37/37/6 40/40/6
f 47/47/5 48/48/5 45/45/5 46/46/5
f 45/45/4 48/48/4 53/53/4 49/49/4
f 47/47/3 46/46/3 52/52/3 56/56/3
f 48/48/1 47/47/1 56/56/11 53/53/11
f 55/55/2 51/51/2 50/50/2 54/54/2
f 50/50/12 51/51/12 52/52/13 49/49/13
f 49/49/14 53/53/14 54/54/14 50/50/14
f 56/56/15 52/52/15 51/51/15 55/55/15
f 53/53/11 56/56/11 55/55/16 54/54/16
f 46/46/6 45/45/6 49/49/13 52/52/13
f 59/59/5 60/60/5 57/57/5 58/58/5
f 57/57/4 60/60/4 65/65/4 61/61/4
f 59/59/3 58/58/3 64/64/3 68/68/3
f 60/60/1 59/59/1 68/68/11 65/65/11
f 67/67/2 63/63/2 62/62/2 66/66/2
f 62/62/12 63/63/12 64/64/13 61/61/13
f 61/61/14 65/65/14 66/66/14 62/62/14
f 68/68/15 64/64/15 63/63/15 67/67/15
f 65/65/11 68/68/11 67/67/16 66/66/16
f 58/58/6 57/57/6 61/61/13 64/64/13
f 71/71/5 72/72/5 69/69/5 70/70/5
f 69/69/4 72/72/4 77/77/4 73/73/4
f 71/71/3 70/70/3 76/76/3 80/80/3
f 72/72/1 71/71/1 80/80/1 77/77/1
f 79/79/2 75/75/2 74/74/2 78/78/2
f 74/74/7 75/75/7 76/76/7 73/73/7
f 73/73/8 77/77/8 78/78/8 74/74/8
f 80/80/9 76/76/9 75/75/9 79/79/9
f 77/77/10 80/80/10 79/79/10 78/78/10
f 70/70/6 69/69/6 73/73/6 76/76/6
f 84/84/5 83/83/5 81/81/5 82/82/5
f 88/91/2 86/87/2 85/85/2 87/89/2
f 81/81/4 83/83/4 91/95/4 89/93/4
f 84/84/3 82/82/3 90/94/3 92/96/3
f 82/82/6 81/81/6 89/93/6 90/94/6
f 83/83/1 84/84/1 92/96/1 91/95/1
f 85/86/2 86/88/2 90/94/2 89/93/2
f 87/90/2 85/86/2 89/93/2 91/95/2
f 86/88/2 88/92/2 92/96/2 90/94/2
f 88/92/2 87/90/2 91/95/2 92/96/2
