# Blender 3.4.1
# www.blender.org
mtllib kitchen032.mtl
o kitchen.031
v -0.053266 0.128819 -0.051003
v -0.047577 -0.279518 -0.045313
v 0.049598 0.128819 -0.051003
v 0.043895 -0.279518 -0.045313
v -0.053266 0.128819 0.051851
v -0.047577 -0.279518 0.046162
v 0.049598 0.128819 0.051851
v 0.043895 -0.279518 0.046162
v 0.147853 0.118618 -0.149261
v -0.151521 0.118618 -0.149261
v -0.142537 -0.275439 -0.140274
v 0.138869 -0.275439 -0.140274
v 0.147853 0.118618 0.150109
v 0.138869 -0.275439 0.141122
v -0.151521 0.118618 0.150109
v -0.142537 -0.275439 0.141122
v -0.221219 -0.073324 -0.218955
v 0.217550 -0.073324 -0.218955
v 0.217550 -0.073324 0.219803
v -0.221219 -0.073324 0.219803
v -0.001841 0.118618 -0.205393
v -0.195776 -0.193298 -0.193516
v -0.001841 -0.275439 -0.193038
v 0.197783 0.042084 -0.199195
v 0.203984 0.118618 0.000422
v 0.191623 -0.275439 0.000422
v 0.197783 0.042084 0.200043
v -0.001841 0.118618 0.206241
v -0.001841 -0.275439 0.193887
v -0.201451 0.042084 0.200043
v -0.207653 0.118618 0.000422
v -0.195291 -0.275439 0.000422
v -0.001841 0.126099 -0.055668
v -0.001841 -0.275811 -0.049082
v 0.054263 0.126099 0.000422
v 0.047674 -0.275811 0.000422
v -0.001841 0.126099 0.056516
v -0.001841 -0.275811 0.049930
v -0.057931 0.126099 0.000422
v -0.051342 -0.275811 0.000422
v 0.090752 0.136873 -0.092160
v -0.094420 0.136873 -0.092160
v -0.086087 -0.291724 -0.083827
v 0.082419 -0.291724 -0.083827
v 0.090752 0.136873 0.093005
v 0.082419 -0.291724 0.084675
v -0.094420 0.136873 0.093005
v -0.086087 -0.291724 0.084675
v -0.201451 0.042084 -0.199195
v 0.192107 -0.193298 -0.193516
v 0.192107 -0.193298 0.194364
v -0.195776 -0.193298 0.194364
v -0.303485 -0.073324 0.000422
v -0.001841 -0.073324 0.302070
v 0.299817 -0.073324 0.000422
v -0.001841 -0.073324 -0.301225
v -0.001841 -0.193298 -0.266245
v 0.264836 -0.193298 0.000422
v -0.001841 -0.193298 0.267093
v -0.268505 -0.193298 0.000422
v -0.001841 0.120390 0.000422
v -0.001841 -0.268030 0.000422
v -0.001841 0.136605 -0.125535
v -0.001841 -0.291358 -0.114146
v 0.124126 0.136605 0.000422
v 0.112734 -0.291358 0.000422
v -0.001841 0.136605 0.126383
v -0.001841 -0.291358 0.114994
v -0.127795 0.136605 0.000422
v -0.116403 -0.291358 0.000422
v -0.276312 0.042084 0.000422
v -0.001841 0.042084 0.274900
v 0.272644 0.042084 0.000422
v -0.001841 0.042084 -0.274052
v 0.035478 0.111118 0.019470
v 0.017179 0.181322 -0.014566
v 0.021110 0.181322 0.010403
v 0.031603 0.111118 -0.024332
v -0.021885 0.111118 -0.019587
v -0.009953 0.181322 -0.012160
v -0.006022 0.181322 0.012812
v -0.018009 0.111118 0.024214
v 0.005108 0.112837 -0.001277
v -0.005579 0.112828 -0.228320
v 0.224167 0.112828 0.001429
v -0.005579 0.112828 0.231179
v -0.235338 0.112828 0.001429
v -0.115212 0.136326 -0.084391
v -0.070680 0.127845 -0.078487
v -0.075041 0.136326 -0.123815
v 0.066278 0.136326 -0.139436
v 0.072244 0.127845 -0.095534
v 0.110907 0.136326 -0.091832
v 0.131726 0.136326 0.079249
v 0.082723 0.127845 0.077536
v 0.082640 0.136326 0.123878
v -0.063150 0.136326 0.132799
v -0.060188 0.127845 0.090648
v -0.101826 0.136326 0.091147
v 0.005122 0.121189 -0.001284
v -0.005579 0.121180 -0.228320
v 0.224167 0.121180 0.001429
v -0.005579 0.121180 0.231179
v -0.235338 0.121180 0.001429
v -0.113842 0.144563 -0.084478
v -0.069573 0.135074 -0.077653
v -0.074889 0.144562 -0.122441
v 0.066430 0.144570 -0.138107
v 0.071469 0.135090 -0.094489
v 0.109259 0.144513 -0.091731
v 0.130328 0.144560 0.079332
v 0.081643 0.135078 0.076699
v 0.082502 0.144553 0.122445
v -0.063261 0.144584 0.131557
v -0.059385 0.135085 0.089583
v -0.100276 0.144533 0.091050
vn -0.7069 -0.0252 -0.7069
vn -0.0000 -0.0248 -0.9997
vn -0.0000 -0.4647 -0.8855
vn -0.6241 -0.4701 -0.6241
vn -0.0000 -0.8354 -0.5496
vn -0.3882 -0.8358 -0.3882
vn 0.6241 -0.4701 -0.6241
vn 0.3882 -0.8358 -0.3882
vn 0.7069 -0.0252 -0.7069
vn 0.9997 -0.0248 -0.0000
vn 0.8855 -0.4647 -0.0000
vn 0.5496 -0.8354 -0.0000
vn 0.6241 -0.4701 0.6241
vn 0.3882 -0.8358 0.3882
vn 0.7069 -0.0252 0.7069
vn -0.0000 -0.0249 0.9997
vn -0.0000 -0.4647 0.8855
vn -0.0000 -0.8354 0.5496
vn -0.6241 -0.4701 0.6241
vn -0.3882 -0.8358 0.3882
vn -0.7069 -0.0252 0.7069
vn -0.9997 -0.0248 -0.0000
vn -0.8855 -0.4647 -0.0000
vn -0.5496 -0.8354 -0.0000
vn -0.0956 0.9908 0.0956
vn -0.0000 0.9934 0.1144
vn -0.0000 1.0000 -0.0000
vn -0.1144 0.9934 -0.0000
vn -0.0000 0.9934 -0.1144
vn -0.0956 0.9908 -0.0956
vn 0.1144 0.9934 -0.0000
vn 0.0957 0.9908 -0.0956
vn 0.0956 0.9908 0.0956
vn -0.1492 -0.9775 -0.1492
vn -0.0000 -0.9839 -0.1785
vn -0.0000 -1.0000 -0.0000
vn -0.1785 -0.9839 -0.0000
vn -0.0000 -0.9839 0.1785
vn -0.1492 -0.9775 0.1492
vn 0.1785 -0.9839 -0.0000
vn 0.1492 -0.9775 0.1492
vn 0.1492 -0.9775 -0.1492
vn 0.0617 0.9962 -0.0617
vn -0.0000 0.9967 -0.0810
vn -0.0617 0.9962 -0.0617
vn -0.0000 0.8316 -0.5553
vn -0.3919 0.8323 -0.3919
vn 0.3919 0.8323 -0.3919
vn -0.0309 -0.9990 -0.0309
vn -0.0000 -0.9994 -0.0345
vn 0.0309 -0.9990 -0.0309
vn 0.0617 0.9962 0.0617
vn 0.0810 0.9967 -0.0000
vn 0.5553 0.8316 -0.0000
vn 0.3919 0.8323 0.3919
vn 0.0345 -0.9994 -0.0000
vn 0.0309 -0.9990 0.0309
vn -0.0617 0.9962 0.0617
vn -0.0000 0.9967 0.0810
vn -0.0000 0.8316 0.5553
vn -0.3919 0.8323 0.3919
vn -0.0000 -0.9994 0.0345
vn -0.0309 -0.9990 0.0309
vn -0.0810 0.9967 -0.0000
vn -0.5553 0.8316 -0.0000
vn -0.0345 -0.9994 -0.0000
vn -0.8973 0.4415 -0.0000
vn -0.6328 0.4462 0.6328
vn -0.6328 0.4462 -0.6328
vn -0.0000 0.4415 0.8973
vn 0.6328 0.4462 0.6328
vn 0.8973 0.4415 -0.0000
vn 0.6328 0.4462 -0.6328
vn -0.0000 0.4415 -0.8973
vn 0.5752 0.6597 0.4837
vn 0.6818 -0.4894 0.5437
vn 0.5688 -0.4904 -0.6603
vn 0.4492 0.6671 -0.5943
vn -0.5578 -0.4922 0.6683
vn -0.6746 -0.5040 -0.5394
vn -0.4621 0.6665 0.5850
vn -0.5860 0.6449 -0.4906
vn 0.3055 -0.5621 0.7686
vn 0.3653 -0.5545 -0.7477
vn 0.7887 -0.6147 0.0021
vn -0.0024 -1.0000 0.0001
vn -0.3397 -0.8816 -0.3278
vn -0.7937 -0.5606 -0.2359
vn 0.7399 -0.5764 -0.3470
vn 0.3842 -0.8287 -0.4070
vn -0.2400 -0.5692 -0.7864
vn -0.2836 -0.5650 0.7748
vn -0.8065 -0.5912 0.0089
vn -0.7887 -0.5800 0.2036
vn -0.3539 -0.8675 0.3496
vn 0.3664 -0.8568 0.3628
vn 0.7668 -0.5562 0.3204
vn -0.0332 -0.6216 -0.7826
vn -0.0697 -0.6137 0.7865
vn 0.1865 0.6941 0.6953
vn 0.8577 0.5141 -0.0074
vn 0.1937 0.7221 -0.6641
vn 0.0026 1.0000 -0.0000
vn 0.2689 0.9222 -0.2780
vn 0.6579 0.7141 -0.2394
vn -0.6989 0.7049 -0.1207
vn -0.1580 0.9696 -0.1871
vn -0.1210 0.6860 -0.7174
vn -0.8521 0.5233 0.0127
vn -0.1311 0.7120 0.6899
vn -0.6992 0.7029 0.1306
vn 0.6825 0.7079 0.1819
vn 0.2027 0.9530 0.2252
vn -0.2215 0.9552 0.1964
vn -0.0415 0.4966 -0.8670
vn -0.0670 0.5007 0.8630
vt 0.572438 0.971701
vt 0.572438 0.971701
vt 0.572438 0.971701
vt 0.572438 0.971701
vt 0.572438 0.971701
vt 0.572438 0.971701
vt 0.572438 0.971701
vt 0.572438 0.971701
vt 0.572438 0.971701
vt 0.572438 0.971701
vt 0.572438 0.971701
vt 0.572438 0.971701
vt 0.572438 0.971701
vt 0.572438 0.971701
vt 0.572438 0.971701
vt 0.572438 0.971701
vt 0.572438 0.971701
vt 0.572438 0.971701
vt 0.572438 0.971701
vt 0.572438 0.971701
vt 0.572438 0.971701
vt 0.572438 0.971701
vt 0.572438 0.971701
vt 0.572438 0.971701
vt 0.572438 0.971701
vt 0.572438 0.971701
vt 0.572438 0.971701
vt 0.572438 0.971701
vt 0.572438 0.971701
vt 0.572438 0.971701
vt 0.572438 0.971701
vt 0.572438 0.971701
vt 0.572438 0.971701
vt 0.572438 0.971701
vt 0.572438 0.971701
vt 0.572438 0.971701
vt 0.572438 0.971701
vt 0.572438 0.971701
vt 0.572438 0.971701
vt 0.572438 0.971701
vt 0.572438 0.971701
vt 0.572438 0.971701
vt 0.572438 0.971701
vt 0.572438 0.971701
vt 0.572438 0.971701
vt 0.572438 0.971701
vt 0.572438 0.971701
vt 0.572438 0.971701
vt 0.572438 0.971701
vt 0.572438 0.971701
vt 0.572438 0.971701
vt 0.572438 0.971701
vt 0.572438 0.971701
vt 0.572438 0.971701
vt 0.572438 0.971701
vt 0.572438 0.971701
vt 0.572438 0.971701
vt 0.572438 0.971701
vt 0.572438 0.971701
vt 0.572438 0.971701
vt 0.572438 0.971701
vt 0.572438 0.971701
vt 0.572438 0.971701
vt 0.572438 0.971701
vt 0.572438 0.971701
vt 0.572438 0.971701
vt 0.572438 0.971701
vt 0.572438 0.971701
vt 0.572438 0.971701
vt 0.572438 0.971701
vt 0.572438 0.971701
vt 0.572438 0.971701
vt 0.572438 0.971701
vt 0.572438 0.971701
vt 0.473863 0.880469
vt 0.473863 0.880469
vt 0.473863 0.880469
vt 0.473863 0.880469
vt 0.473863 0.880469
vt 0.473863 0.880469
vt 0.473863 0.880469
vt 0.473863 0.880469
vt 0.473863 0.880469
vt 0.473863 0.880469
vt 0.473863 0.880469
vt 0.473863 0.880469
vt 0.473863 0.880469
vt 0.473863 0.880469
vt 0.473863 0.880469
vt 0.473863 0.880469
vt 0.473863 0.880469
vt 0.473863 0.880469
vt 0.473863 0.880469
vt 0.473863 0.880469
vt 0.473863 0.880469
vt 0.473863 0.880469
vt 0.473863 0.880469
vt 0.473863 0.880469
vt 0.473863 0.880469
vt 0.473863 0.880469
vt 0.473863 0.880469
vt 0.473863 0.880469
vt 0.473863 0.880469
vt 0.473863 0.880469
vt 0.473863 0.880469
vt 0.473863 0.880469
vt 0.473863 0.880469
vt 0.473863 0.880469
vt 0.473863 0.880469
vt 0.473863 0.880469
vt 0.473863 0.880469
vt 0.473863 0.880469
vt 0.473863 0.880469
vt 0.473863 0.880469
vt 0.473863 0.880469
vt 0.473863 0.880469
s 1
usemtl Material
f 17/17/1 56/56/2 57/57/3 22/22/4
f 22/22/4 57/57/3 23/23/5 11/11/6
f 57/57/3 50/50/7 12/12/8 23/23/5
f 56/56/2 18/18/9 50/50/7 57/57/3
f 18/18/9 55/55/10 58/58/11 50/50/7
f 50/50/7 58/58/11 26/26/12 12/12/8
f 58/58/11 51/51/13 14/14/14 26/26/12
f 55/55/10 19/19/15 51/51/13 58/58/11
f 19/19/15 54/54/16 59/59/17 51/51/13
f 51/51/13 59/59/17 29/29/18 14/14/14
f 59/59/17 52/52/19 16/16/20 29/29/18
f 54/54/16 20/20/21 52/52/19 59/59/17
f 20/20/21 53/53/22 60/60/23 52/52/19
f 52/52/19 60/60/23 32/32/24 16/16/20
f 60/60/23 22/22/4 11/11/6 32/32/24
f 53/53/22 17/17/1 22/22/4 60/60/23
f 3/3/25 33/33/26 61/61/27 35/35/28
f 35/35/28 61/61/27 37/37/29 7/7/30
f 61/61/27 39/39/31 5/5/32 37/37/29
f 33/33/26 1/1/33 39/39/31 61/61/27
f 8/8/34 38/38/35 62/62/36 36/36/37
f 36/36/37 62/62/36 34/34/38 4/4/39
f 62/62/36 40/40/40 2/2/41 34/34/38
f 38/38/35 6/6/42 40/40/40 62/62/36
f 3/3/25 41/41/43 63/63/44 33/33/26
f 33/33/26 63/63/44 42/42/45 1/1/33
f 63/63/44 21/21/46 10/10/47 42/42/45
f 41/41/43 9/9/48 21/21/46 63/63/44
f 2/2/41 43/43/49 64/64/50 34/34/38
f 34/34/38 64/64/50 44/44/51 4/4/39
f 64/64/50 23/23/5 12/12/8 44/44/51
f 43/43/49 11/11/6 23/23/5 64/64/50
f 7/7/30 45/45/52 65/65/53 35/35/28
f 35/35/28 65/65/53 41/41/43 3/3/25
f 65/65/53 25/25/54 9/9/48 41/41/43
f 45/45/52 13/13/55 25/25/54 65/65/53
f 4/4/39 44/44/51 66/66/56 36/36/37
f 36/36/37 66/66/56 46/46/57 8/8/34
f 66/66/56 26/26/12 14/14/14 46/46/57
f 44/44/51 12/12/8 26/26/12 66/66/56
f 5/5/32 47/47/58 67/67/59 37/37/29
f 37/37/29 67/67/59 45/45/52 7/7/30
f 67/67/59 28/28/60 13/13/55 45/45/52
f 47/47/58 15/15/61 28/28/60 67/67/59
f 8/8/34 46/46/57 68/68/62 38/38/35
f 38/38/35 68/68/62 48/48/63 6/6/42
f 68/68/62 29/29/18 16/16/20 48/48/63
f 46/46/57 14/14/14 29/29/18 68/68/62
f 1/1/33 42/42/45 69/69/64 39/39/31
f 39/39/31 69/69/64 47/47/58 5/5/32
f 69/69/64 31/31/65 15/15/61 47/47/58
f 42/42/45 10/10/47 31/31/65 69/69/64
f 6/6/42 48/48/63 70/70/66 40/40/40
f 40/40/40 70/70/66 43/43/49 2/2/41
f 70/70/66 32/32/24 11/11/6 43/43/49
f 48/48/63 16/16/20 32/32/24 70/70/66
f 15/15/61 31/31/65 71/71/67 30/30/68
f 30/30/68 71/71/67 53/53/22 20/20/21
f 71/71/67 49/49/69 17/17/1 53/53/22
f 31/31/65 10/10/47 49/49/69 71/71/67
f 13/13/55 28/28/60 72/72/70 27/27/71
f 27/27/71 72/72/70 54/54/16 19/19/15
f 72/72/70 30/30/68 20/20/21 54/54/16
f 28/28/60 15/15/61 30/30/68 72/72/70
f 9/9/48 25/25/54 73/73/72 24/24/73
f 24/24/73 73/73/72 55/55/10 18/18/9
f 73/73/72 27/27/71 19/19/15 55/55/10
f 25/25/54 13/13/55 27/27/71 73/73/72
f 10/10/47 21/21/46 74/74/74 49/49/69
f 49/49/69 74/74/74 56/56/2 17/17/1
f 74/74/74 24/24/73 18/18/9 56/56/2
f 21/21/46 9/9/48 24/24/73 74/74/74
f 77/77/75 75/75/76 78/78/77 76/76/78
f 75/75/76 82/82/79 79/79/80 78/78/77
f 81/81/81 80/80/82 79/79/80 82/82/79
f 76/76/78 80/80/82 81/81/81 77/77/75
f 77/77/75 81/81/81 82/82/79 75/75/76
f 78/78/77 79/79/80 80/80/82 76/76/78
f 94/94/83 93/93/84 85/85/85
f 83/83/86 89/89/87 90/90/88 91/91/89 92/92/90
f 88/88/91 99/99/92 87/87/93
f 97/97/94 98/98/95 83/83/86 95/95/96 96/96/97
f 91/91/89 90/90/88 84/84/98
f 83/83/86 98/98/95 99/99/92 88/88/91 89/89/87
f 86/86/99 97/97/94 96/96/97
f 95/95/96 83/83/86 92/92/90 93/93/84 94/94/83
f 111/111/100 102/102/101 110/110/102
f 100/100/103 109/109/104 108/108/105 107/107/106 106/106/107
f 105/105/108 104/104/109 116/116/110
f 114/114/111 113/113/112 112/112/113 100/100/103 115/115/114
f 108/108/105 101/101/115 107/107/106
f 100/100/103 106/106/107 105/105/108 116/116/110 115/115/114
f 103/103/116 113/113/112 114/114/111
f 112/112/113 111/111/100 110/110/102 109/109/104 100/100/103
f 92/92/90 109/109/104 110/110/102 93/93/84
f 98/98/95 115/115/114 116/116/110 99/99/92
f 85/85/85 102/102/101 111/111/100 94/94/83
f 87/87/93 104/104/109 105/105/108 88/88/91
f 99/99/92 116/116/110 104/104/109 87/87/93
f 93/93/84 110/110/102 102/102/101 85/85/85
f 88/88/91 105/105/108 106/106/107 89/89/87
f 94/94/83 111/111/100 112/112/113 95/95/96
f 89/89/87 106/106/107 107/107/106 90/90/88
f 95/95/96 112/112/113 113/113/112 96/96/97
f 84/84/98 101/101/115 108/108/105 91/91/89
f 86/86/99 103/103/116 114/114/111 97/97/94
f 90/90/88 107/107/106 101/101/115 84/84/98
f 96/96/97 113/113/112 103/103/116 86/86/99
f 91/91/89 108/108/105 109/109/104 92/92/90
f 97/97/94 114/114/111 115/115/114 98/98/95
