# Blender 3.4.1
# www.blender.org
mtllib kitchen027.mtl
o kitchen.026
v -0.043370 0.286450 0.067992
v -0.160409 -0.182954 0.154795
v 0.064727 0.286450 0.067992
v 0.151645 -0.182954 0.154795
v -0.043370 0.286450 -0.040102
v -0.160409 -0.182954 -0.157259
v 0.064727 0.286450 -0.040102
v 0.151645 -0.182954 -0.157259
v -0.098394 -0.424104 0.092784
v 0.089630 -0.424104 0.092784
v 0.089630 -0.424104 -0.095244
v -0.098394 -0.424104 -0.095244
v -0.139686 -0.295611 -0.136533
v -0.139686 -0.295611 0.134073
v 0.130923 -0.295611 0.134073
v 0.130923 -0.295611 -0.136533
v -0.190849 0.037578 0.185235
v 0.182085 0.037578 0.185235
v 0.182071 0.037578 -0.187695
v -0.190849 0.037578 -0.187695
v 0.149707 0.284601 0.152888
v -0.151785 0.284601 0.152888
v 0.149707 0.284601 -0.148604
v -0.151785 0.284601 -0.148604
v -0.001039 0.284601 0.209418
v 0.176935 0.181374 0.180099
v 0.206240 0.284601 0.002142
v 0.176935 0.181374 -0.181715
v -0.001039 0.284601 -0.205133
v -0.184869 0.181374 -0.181715
v -0.208318 0.284601 0.002142
v -0.004389 -0.182954 0.213308
v 0.210158 -0.182954 -0.001232
v -0.004389 -0.182954 -0.215768
v -0.218921 -0.182953 -0.001232
v -0.178376 -0.089906 0.172766
v -0.004389 -0.435228 0.112623
v 0.109467 -0.435228 -0.001232
v -0.004389 -0.435228 -0.115084
v -0.118244 -0.435228 -0.001232
v -0.127560 -0.369892 -0.124400
v -0.147909 -0.241078 0.142295
v 0.118783 -0.369892 0.121940
v 0.139145 -0.241078 -0.144755
v -0.147909 -0.241078 -0.144755
v -0.127560 -0.369892 0.121940
v 0.139145 -0.241078 0.142295
v 0.118783 -0.369892 -0.124400
v -0.004389 -0.295611 0.184809
v -0.004389 -0.295611 -0.187273
v 0.181656 -0.295611 -0.001232
v -0.190419 -0.295611 -0.001232
v -0.184869 0.181374 0.180099
v 0.169613 -0.089907 0.172766
v 0.169613 -0.089907 -0.175226
v -0.178376 -0.089906 -0.175226
v -0.260767 0.037578 -0.001232
v -0.004389 0.037578 -0.257618
v 0.252004 0.037578 -0.001232
v -0.004389 0.037578 0.255157
v 0.011779 0.281368 0.073366
v 0.070084 0.281368 0.015054
v 0.011779 0.281368 -0.043258
v -0.046539 0.281368 0.015054
v 0.103542 0.303649 0.106772
v -0.092663 0.303649 0.106772
v 0.103542 0.303649 -0.089437
v -0.092663 0.303649 -0.089437
v 0.234853 -0.089907 -0.001232
v -0.004389 -0.089907 -0.240477
v -0.243630 -0.089906 -0.001232
v 0.014077 0.270703 0.017380
v -0.173711 -0.370989 -0.001232
v -0.004389 -0.458573 -0.001232
v 0.164934 -0.370989 -0.001232
v -0.004389 -0.370989 -0.170554
v -0.004389 -0.370989 0.168091
v -0.004389 -0.241078 0.196115
v -0.004389 -0.241078 -0.198575
v 0.192965 -0.241078 -0.001232
v -0.201729 -0.241078 -0.001232
v -0.252711 0.181374 -0.000810
v -0.003974 0.181374 -0.249558
v 0.244778 0.181374 -0.000810
v -0.003974 0.181374 0.247938
v -0.004389 -0.089907 0.238013
v 0.005550 0.303148 0.142122
v 0.138896 0.303147 0.008776
v 0.005550 0.303148 -0.124569
v -0.127796 0.303148 0.008776
v 0.009371 0.253580 0.010770
v 0.036516 0.425367 -0.038032
v 0.037900 0.428545 -0.019784
v 0.009371 0.253580 -0.006838
v -0.014688 0.253580 -0.006838
v 0.014465 0.434970 -0.038032
v 0.015849 0.438148 -0.019784
v -0.014688 0.253580 0.010770
v 0.028294 0.393664 -0.024152
v 0.027172 0.391090 0.006209
v -0.003143 0.407353 -0.024152
v -0.004264 0.404779 0.006209
vn 0.6796 -0.2762 0.6796
vn 0.9631 -0.2693 -0.0000
vn 0.9813 -0.1927 -0.0000
vn 0.6932 -0.1974 0.6932
vn 0.6796 -0.2763 -0.6796
vn 0.6932 -0.1974 -0.6932
vn 0.7061 -0.0404 -0.7069
vn 0.9992 -0.0409 -0.0003
vn 0.7065 -0.0424 0.7065
vn -0.0000 -0.2693 -0.9630
vn -0.0000 -0.1927 -0.9813
vn -0.6796 -0.2763 -0.6796
vn -0.6932 -0.1974 -0.6932
vn -0.7066 -0.0384 -0.7066
vn -0.0003 -0.0380 -0.9993
vn -0.9630 -0.2693 -0.0000
vn -0.9813 -0.1927 -0.0000
vn -0.6796 -0.2763 0.6796
vn -0.6932 -0.1974 0.6932
vn -0.7069 -0.0404 0.7061
vn -0.9993 -0.0380 -0.0003
vn -0.1966 0.9606 -0.1966
vn -0.2284 0.9736 -0.0052
vn -0.0079 0.9999 -0.0080
vn -0.0052 0.9735 -0.2285
vn -0.1842 0.9676 0.1728
vn -0.0040 0.9799 0.1994
vn 0.1625 0.9732 0.1625
vn 0.1996 0.9799 -0.0040
vn 0.1729 0.9675 -0.1843
vn -0.6905 -0.2157 0.6905
vn -0.9777 -0.2101 -0.0000
vn -0.9099 -0.4148 -0.0000
vn -0.6411 -0.4220 0.6411
vn -0.6905 -0.2157 -0.6905
vn -0.6411 -0.4220 -0.6410
vn -0.4352 -0.7882 -0.4352
vn -0.5336 -0.8457 -0.0000
vn -0.4352 -0.7882 0.4352
vn 0.4352 -0.7882 -0.4352
vn 0.5337 -0.8457 -0.0000
vn -0.0000 -1.0000 -0.0000
vn -0.0000 -0.8457 -0.5336
vn 0.4352 -0.7882 0.4352
vn -0.0000 -0.8457 0.5337
vn 0.6905 -0.2157 -0.6905
vn 0.9777 -0.2101 -0.0000
vn 0.9099 -0.4148 -0.0000
vn 0.6411 -0.4220 -0.6411
vn 0.6905 -0.2157 0.6905
vn 0.6410 -0.4220 0.6411
vn -0.0000 -0.2101 -0.9777
vn -0.0000 -0.4148 -0.9099
vn -0.0000 -0.2101 0.9777
vn -0.0000 -0.4148 0.9099
vn -0.0000 -0.2693 0.9630
vn -0.0000 -0.2457 0.9693
vn 0.6841 -0.2528 0.6841
vn -0.6842 -0.2528 0.6841
vn -0.0000 -0.2457 -0.9693
vn -0.6842 -0.2528 -0.6841
vn 0.6841 -0.2528 -0.6841
vn 0.9693 -0.2458 -0.0000
vn -0.9693 -0.2458 -0.0000
vn -0.4895 0.7216 -0.4895
vn -0.6883 0.2294 -0.6883
vn -0.9753 0.2208 -0.0020
vn -0.6957 0.7183 0.0025
vn -0.6932 0.2124 0.6887
vn -0.5007 0.7019 0.5067
vn 0.5066 0.7020 -0.5006
vn 0.6887 0.2126 -0.6932
vn -0.0020 0.2209 -0.9753
vn 0.0025 0.7184 -0.6956
vn 0.5188 0.6794 0.5188
vn 0.6936 0.1948 0.6936
vn 0.9806 0.1959 -0.0021
vn 0.7262 0.6875 0.0020
vn -0.0021 0.1959 0.9806
vn 0.0019 0.6874 0.7263
vn -0.0003 -0.0409 0.9992
vn -0.0000 -0.1927 0.9813
vn 0.0071 0.9987 0.0500
vn 0.0455 0.9979 0.0456
vn -0.0333 0.9983 0.0481
vn 0.0500 0.9987 0.0071
vn 0.0480 0.9983 -0.0333
vn 0.0050 0.9991 -0.0409
vn -0.0355 0.9987 -0.0354
vn -0.0409 0.9991 0.0051
vn 0.6791 0.0824 0.7294
vn 0.5341 -0.5968 0.5987
vn 0.5326 -0.6485 -0.5439
vn 0.9773 -0.2120 0.0053
vn -0.6053 0.3945 0.6914
vn -0.7903 0.1222 -0.6004
vn -0.6120 -0.5774 -0.5404
vn -0.9973 0.0704 -0.0195
vn 0.0076 0.0308 0.9995
vn 0.8688 0.4767 -0.1336
vn -0.2428 0.9608 -0.1336
vn -0.1936 0.9313 0.3086
vn 0.8137 0.4927 0.3086
vn -0.0854 -0.2243 -0.9708
vn -0.1574 -0.3615 -0.9190
vt 0.111740 0.951239
vt 0.311023 0.972840
vt 0.111740 0.951239
vt 0.311023 0.972840
vt 0.111740 0.951239
vt 0.311023 0.972840
vt 0.111740 0.951239
vt 0.311023 0.972840
vt 0.311023 0.972840
vt 0.311023 0.972840
vt 0.311023 0.972840
vt 0.311023 0.972840
vt 0.311023 0.972840
vt 0.311023 0.972840
vt 0.311023 0.972840
vt 0.311023 0.972840
vt 0.111740 0.951239
vt 0.331511 0.970548
vt 0.111740 0.951239
vt 0.331511 0.970548
vt 0.331511 0.970548
vt 0.111740 0.951239
vt 0.331511 0.970548
vt 0.111740 0.951239
vt 0.111740 0.951239
vt 0.111740 0.951239
vt 0.111740 0.951239
vt 0.111740 0.951239
vt 0.111740 0.951239
vt 0.111740 0.951239
vt 0.111740 0.951239
vt 0.111740 0.951239
vt 0.111740 0.951239
vt 0.111740 0.951239
vt 0.111740 0.951239
vt 0.311023 0.972840
vt 0.311023 0.972840
vt 0.311023 0.972840
vt 0.311023 0.972840
vt 0.311023 0.972840
vt 0.331511 0.970548
vt 0.311023 0.972840
vt 0.311023 0.972840
vt 0.311023 0.972840
vt 0.311023 0.972840
vt 0.311023 0.972840
vt 0.311023 0.972840
vt 0.311023 0.972840
vt 0.311023 0.972840
vt 0.311023 0.972840
vt 0.311023 0.972840
vt 0.311023 0.972840
vt 0.311023 0.972840
vt 0.311023 0.972840
vt 0.311023 0.972840
vt 0.311023 0.972840
vt 0.311023 0.972840
vt 0.111740 0.951239
vt 0.311023 0.972840
vt 0.331511 0.970548
vt 0.311023 0.972840
vt 0.331511 0.970548
vt 0.311023 0.972840
vt 0.331511 0.970548
vt 0.331511 0.970548
vt 0.111740 0.951239
vt 0.331511 0.970548
vt 0.111740 0.951239
vt 0.331511 0.970548
vt 0.111740 0.951239
vt 0.111740 0.951239
vt 0.331511 0.970548
vt 0.111740 0.951239
vt 0.111740 0.951239
vt 0.111740 0.951239
vt 0.111740 0.951239
vt 0.111740 0.951239
vt 0.111740 0.951239
vt 0.111740 0.951239
vt 0.111740 0.951239
vt 0.311023 0.972840
vt 0.331511 0.970548
vt 0.311023 0.972840
vt 0.331511 0.970548
vt 0.311023 0.972840
vt 0.331511 0.970548
vt 0.111740 0.951239
vt 0.311023 0.972840
vt 0.311023 0.972840
vt 0.311023 0.972840
vt 0.311023 0.972840
vt 0.311023 0.972840
vt 0.311023 0.972840
vt 0.311023 0.972840
vt 0.311023 0.972840
vt 0.311023 0.972840
vt 0.111740 0.951239
vt 0.111740 0.951239
vt 0.111740 0.951239
vt 0.111740 0.951239
vt 0.311023 0.972840
vt 0.331511 0.970548
vt 0.111740 0.951239
vt 0.111740 0.951239
vt 0.111740 0.951239
vt 0.111740 0.951239
vt 0.306926 0.913187
vt 0.306926 0.913187
vt 0.306926 0.913187
vt 0.306926 0.913187
vt 0.306926 0.913187
vt 0.306926 0.913187
vt 0.306926 0.913187
vt 0.306926 0.913187
vt 0.306926 0.913187
vt 0.306926 0.913187
vt 0.306926 0.913187
vt 0.306926 0.913187
s 1
usemtl Material
f 4/4/1 33/37/2 69/81/3 54/59/4
f 33/37/2 8/8/5 55/61/6 69/81/3
f 69/82/3 55/62/6 19/21/7 59/69/8
f 54/60/4 69/82/3 59/69/8 18/20/9
f 8/8/5 34/38/10 70/83/11 55/61/6
f 34/38/10 6/6/12 56/63/13 70/83/11
f 70/84/11 56/64/13 20/23/14 58/67/15
f 55/62/6 70/84/11 58/67/15 19/21/7
f 6/6/12 35/39/16 71/85/17 56/63/13
f 35/39/16 2/2/18 36/40/19 71/85/17
f 71/86/17 36/41/19 17/18/20 57/65/21
f 56/64/13 71/86/17 57/65/21 20/23/14
f 3/3/22 62/74/23 72/87/24 61/73/25
f 62/74/23 7/7/26 63/75/27 72/87/24
f 72/87/24 63/75/27 5/5/28 64/76/29
f 61/73/25 72/87/24 64/76/29 1/1/30
f 14/14/31 52/57/32 73/88/33 46/51/34
f 52/57/32 13/13/35 41/46/36 73/88/33
f 73/88/33 41/46/36 12/12/37 40/45/38
f 46/51/34 73/88/33 40/45/38 9/9/39
f 11/11/40 38/43/41 74/89/42 39/44/43
f 38/43/41 10/10/44 37/42/45 74/89/42
f 74/89/42 37/42/45 9/9/39 40/45/38
f 39/44/43 74/89/42 40/45/38 12/12/37
f 16/16/46 51/56/47 75/90/48 48/53/49
f 51/56/47 15/15/50 43/48/51 75/90/48
f 75/90/48 43/48/51 10/10/44 38/43/41
f 48/53/49 75/90/48 38/43/41 11/11/40
f 13/13/35 50/55/52 76/91/53 41/46/36
f 50/55/52 16/16/46 48/53/49 76/91/53
f 76/91/53 48/53/49 11/11/40 39/44/43
f 41/46/36 76/91/53 39/44/43 12/12/37
f 15/15/50 49/54/54 77/92/55 43/48/51
f 49/54/54 14/14/31 46/51/34 77/92/55
f 77/92/55 46/51/34 9/9/39 37/42/45
f 43/48/51 77/92/55 37/42/45 10/10/44
f 4/4/1 32/36/56 78/93/57 47/52/58
f 32/36/56 2/2/18 42/47/59 78/93/57
f 78/93/57 42/47/59 14/14/31 49/54/54
f 47/52/58 78/93/57 49/54/54 15/15/50
f 6/6/12 34/38/10 79/94/60 45/50/61
f 34/38/10 8/8/5 44/49/62 79/94/60
f 79/94/60 44/49/62 16/16/46 50/55/52
f 45/50/61 79/94/60 50/55/52 13/13/35
f 8/8/5 33/37/2 80/95/63 44/49/62
f 33/37/2 4/4/1 47/52/58 80/95/63
f 80/95/63 47/52/58 15/15/50 51/56/47
f 44/49/62 80/95/63 51/56/47 16/16/46
f 2/2/18 35/39/16 81/96/64 42/47/59
f 35/39/16 6/6/12 45/50/61 81/96/64
f 81/96/64 45/50/61 13/13/35 52/57/32
f 42/47/59 81/96/64 52/57/32 14/14/31
f 24/28/65 30/34/66 82/97/67 31/35/68
f 30/34/66 20/24/14 57/66/21 82/97/67
f 82/97/67 57/66/21 17/17/20 53/58/69
f 31/35/68 82/97/67 53/58/69 22/26/70
f 23/27/71 28/32/72 83/98/73 29/33/74
f 28/32/72 19/22/7 58/68/15 83/98/73
f 83/98/73 58/68/15 20/24/14 30/34/66
f 29/33/74 83/98/73 30/34/66 24/28/65
f 21/25/75 26/30/76 84/99/77 27/31/78
f 26/30/76 18/19/9 59/70/8 84/99/77
f 84/99/77 59/70/8 19/22/7 28/32/72
f 27/31/78 84/99/77 28/32/72 23/27/71
f 22/26/70 53/58/69 85/100/79 25/29/80
f 53/58/69 17/17/20 60/71/81 85/100/79
f 85/100/79 60/71/81 18/19/9 26/30/76
f 25/29/80 85/100/79 26/30/76 21/25/75
f 2/2/18 32/36/56 86/101/82 36/40/19
f 32/36/56 4/4/1 54/59/4 86/101/82
f 86/102/82 54/60/4 18/20/9 60/72/81
f 36/41/19 86/102/82 60/72/81 17/18/20
f 3/3/22 61/73/25 87/103/83 65/77/84
f 61/73/25 1/1/30 66/78/85 87/103/83
f 87/103/83 66/78/85 22/26/70 25/29/80
f 65/77/84 87/103/83 25/29/80 21/25/75
f 7/7/26 62/74/23 88/104/86 67/79/87
f 62/74/23 3/3/22 65/77/84 88/104/86
f 88/104/86 65/77/84 21/25/75 27/31/78
f 67/79/87 88/104/86 27/31/78 23/27/71
f 5/5/28 63/75/27 89/105/88 68/80/89
f 63/75/27 7/7/26 67/79/87 89/105/88
f 89/105/88 67/79/87 23/27/71 29/33/74
f 68/80/89 89/105/88 29/33/74 24/28/65
f 1/1/30 64/76/29 90/106/90 66/78/85
f 64/76/29 5/5/28 68/80/89 90/106/90
f 90/106/90 68/80/89 24/28/65 31/35/68
f 66/78/85 90/106/90 31/35/68 22/26/70
f 100/116/91 91/107/92 94/110/93 99/115/94
f 102/118/95 101/117/96 95/111/97 98/114/98
f 91/107/92 98/114/42 95/111/97 94/110/93
f 100/116/91 102/118/95 98/114/99 91/107/92
f 92/108/100 96/112/101 97/113/102 93/109/103
f 99/115/104 101/117/96 96/112/105 92/108/105
f 94/110/93 95/111/97 101/117/96 99/115/104
f 93/109/103 97/113/102 102/118/95 100/116/91
f 97/113/102 96/112/101 101/117/96 102/118/95
f 93/109/103 100/116/91 99/115/94 92/108/100
