# Blender 3.4.1
# www.blender.org
mtllib kitchen022.mtl
o kitchen.021
v 0.170987 0.314060 0.177745
v 0.170987 0.314060 -0.181186
v -0.187951 0.314060 0.177745
v -0.187951 0.314060 -0.181186
v -0.071327 0.394865 0.061118
v 0.054363 0.394865 0.061118
v 0.054363 0.394865 -0.064559
v -0.071327 0.394865 -0.064559
v -0.054772 0.519343 0.074140
v 0.067375 0.519343 0.044569
v 0.037808 0.519343 -0.077581
v -0.084339 0.519343 -0.048010
v -0.030339 0.663840 0.084419
v 0.077660 0.663840 0.020134
v 0.013375 0.663840 -0.087859
v -0.094624 0.663840 -0.023574
v -0.248928 0.359967 -0.279898
v -0.417143 0.336059 -0.351263
v -0.545381 0.159471 -0.458865
v -0.590411 -0.048829 -0.496652
v -0.248928 -0.457624 -0.279898
v -0.417143 -0.433716 -0.351263
v -0.545381 -0.257128 -0.458865
v -0.115970 0.359967 -0.356662
v -0.093655 0.336059 -0.538028
v -0.122725 0.159471 -0.702883
v -0.132941 -0.048829 -0.760776
v -0.115970 -0.457624 -0.356662
v -0.093655 -0.433716 -0.538028
v 0.233127 0.359967 -0.295107
v 0.274198 0.336059 -0.473165
v 0.357890 0.159471 -0.618138
v 0.387278 -0.048829 -0.669044
v -0.122725 -0.257128 -0.702883
v 0.233127 -0.457624 -0.295107
v 0.364991 0.359967 -0.077024
v 0.514284 0.336059 -0.187028
v 0.671591 0.159471 -0.244281
v 0.726837 -0.048829 -0.264387
v 0.274198 -0.433716 -0.473165
v 0.357890 -0.257128 -0.618138
v 0.001166 0.284595 -0.000264
v 0.364991 0.359967 0.076497
v 0.514284 0.336059 0.186501
v 0.671591 0.159471 0.243754
v 0.726837 -0.048829 0.263860
v 0.364991 -0.457624 -0.077024
v 0.514284 -0.433716 -0.187028
v 0.671591 -0.257128 -0.244281
v 0.140520 0.359967 0.348040
v 0.274198 0.336059 0.472638
v 0.357890 0.159471 0.617611
v 0.387278 -0.048829 0.668517
v 0.001166 -0.382252 -0.000264
v 0.364991 -0.457624 0.076497
v -0.010669 0.359967 0.374701
v -0.093655 0.336059 0.537497
v -0.122725 0.159471 0.702355
v -0.132941 -0.048829 0.760249
v 0.514284 -0.433716 0.186501
v 0.671591 -0.257128 0.243754
v -0.317656 0.359967 0.197464
v -0.417143 0.336059 0.350736
v -0.545381 0.159471 0.458338
v -0.590411 -0.048829 0.496125
v 0.140520 -0.457624 0.348040
v 0.274198 -0.433716 0.472638
v 0.357890 -0.257128 0.617611
v -0.370161 0.359967 0.053197
v -0.544896 0.336059 -0.000264
v -0.712295 0.159471 -0.000264
v -0.771084 -0.048829 -0.000264
v -0.010669 -0.457624 0.374701
v -0.093655 -0.433716 0.537497
v -0.122725 -0.257128 0.702355
v -0.511328 0.395092 -0.337736
v -0.629004 0.209175 -0.426840
v -0.671653 -0.048829 -0.458609
v -0.317656 -0.457624 0.197464
v -0.417143 -0.433716 0.350736
v -0.034852 0.395092 -0.612833
v -0.053180 0.209175 -0.759298
v -0.059367 -0.048829 -0.812108
v -0.545381 -0.257128 0.458338
v -0.370161 -0.457624 0.053197
v 0.244519 0.395092 -0.563571
v 0.311836 0.209175 -0.694937
v 0.335714 -0.048829 -0.742445
v -0.544896 -0.433716 -0.000264
v -0.712295 -0.257128 -0.000264
v 0.549665 0.395092 0.274830
v 0.685669 0.209175 0.332194
v 0.734505 -0.048829 0.353235
v -0.511328 -0.492749 -0.337736
v -0.629004 -0.306832 -0.426840
v 0.367331 0.395092 0.492138
v 0.447438 0.209175 0.616120
v 0.476632 -0.048829 0.660554
v -0.034852 -0.492749 -0.612833
v -0.053180 -0.306832 -0.759298
v -0.174510 0.395092 0.587680
v -0.207372 0.209175 0.731581
v -0.219623 -0.048829 0.783324
v 0.244519 -0.492749 -0.563571
v 0.311836 -0.306832 -0.694937
v -0.420175 0.395092 0.445842
v -0.528368 0.209175 0.546259
v -0.567045 -0.048829 0.582735
v 0.549665 -0.492749 0.274830
v 0.685669 -0.306832 0.332194
v -0.608351 0.395092 -0.071169
v -0.755775 0.209175 -0.078554
v -0.808861 -0.048829 -0.081627
v 0.367331 -0.492749 0.492138
v 0.447438 -0.306832 0.616120
v -0.424452 0.405194 -0.453778
v -0.533919 0.215065 -0.556414
v -0.573135 -0.048829 -0.593810
v -0.174510 -0.492749 0.587680
v -0.207372 -0.306832 0.731581
v -0.178787 0.405194 -0.595616
v -0.212937 0.215065 -0.741732
v -0.225714 -0.048829 -0.794396
v -0.420175 -0.492749 0.445842
v -0.528368 -0.306832 0.546259
v 0.373878 0.405194 -0.498164
v 0.455951 0.215066 -0.623789
v 0.485962 -0.048829 -0.668909
v -0.608351 -0.492749 -0.071169
v -0.755775 -0.306832 -0.078554
v 0.556227 0.405194 -0.280860
v 0.694182 0.215066 -0.339864
v 0.743835 -0.048829 -0.361590
v -0.424452 -0.502851 -0.453778
v -0.533919 -0.312723 -0.556414
v 0.246000 0.405194 0.571470
v 0.313760 0.215066 0.705356
v 0.337832 -0.048829 0.753909
v -0.178787 -0.502851 -0.595616
v -0.212937 -0.312723 -0.741732
v -0.033371 0.405194 0.620729
v -0.051242 0.215066 0.769714
v -0.057249 -0.048829 0.823572
v 0.373878 -0.502851 -0.498164
v 0.455951 -0.312723 -0.623789
v -0.519371 0.405194 0.340136
v -0.639455 0.215066 0.430113
v -0.683087 -0.048829 0.462245
v 0.556227 -0.502851 -0.280860
v 0.694182 -0.312723 -0.339864
v -0.616394 0.405194 0.073569
v -0.766226 0.215066 0.081827
v -0.820309 -0.048829 0.085263
v 0.246000 -0.502851 0.571470
v 0.313760 -0.312723 0.705356
v 0.593809 0.389943 -0.142102
v 0.733564 0.206172 -0.185585
v 0.783951 -0.048829 -0.200853
v -0.033371 -0.502851 0.620729
v -0.051242 -0.312723 0.769714
v 0.593809 0.389943 0.141575
v 0.733564 0.206172 0.185054
v 0.783951 -0.048829 0.200326
v -0.519371 -0.502851 0.340136
v -0.639455 -0.312723 0.430113
v -0.616394 -0.502851 0.073569
v -0.766226 -0.312723 0.081827
v 0.593809 -0.487600 -0.142102
v 0.733564 -0.303829 -0.185585
v 0.593809 -0.487600 0.141575
v 0.733564 -0.303829 0.185054
vn -0.5320 0.6780 -0.5072
vn -0.5072 0.6780 0.5320
vn -0.5103 -0.0000 0.8600
vn -0.8600 -0.0000 -0.5103
vn 0.5320 0.6780 0.5072
vn -0.3111 0.8980 0.3111
vn 0.3111 0.8980 0.3111
vn 0.5072 0.6780 -0.5320
vn 0.3111 0.8980 -0.3111
vn -0.3111 0.8980 -0.3111
vn -0.2536 0.5808 0.7735
vn -0.7735 0.5808 -0.2536
vn 0.5103 -0.0000 -0.8600
vn 0.8600 -0.0000 0.5103
vn 0.7735 0.5808 0.2536
vn 0.2536 0.5808 -0.7735
vn -0.0560 -0.9888 -0.1387
vn 0.0048 -0.9887 -0.1498
vn 0.0006 -1.0000 -0.0002
vn 0.0177 -0.8796 0.4754
vn 0.1621 -0.8459 0.5080
vn -0.8875 -0.4287 0.1691
vn -0.5712 -0.4287 -0.7000
vn -0.2024 -0.8459 -0.4934
vn -0.4722 -0.8459 0.2478
vn 0.1483 0.9887 -0.0212
vn 0.0006 1.0000 -0.0002
vn 0.1000 0.9887 0.1116
vn 0.0467 -0.9887 0.1424
vn -0.0972 -0.9894 0.1082
vn -0.5210 -0.8459 0.1137
vn 0.1273 -0.9887 -0.0791
vn 0.4839 -0.8747 0.0274
vn 0.5284 -0.8459 -0.0720
vn -0.1262 -0.9913 -0.0382
vn -0.3632 -0.8554 0.3693
vn -0.3472 -0.4227 0.8371
vn -0.1969 -0.3993 0.8955
vn -0.2167 -0.0000 0.9762
vn -0.0914 -0.0000 0.9958
vn 0.0124 -0.4287 0.9034
vn -0.7935 -0.0000 -0.6085
vn -0.7264 0.3993 -0.5594
vn -0.8041 0.4227 -0.4181
vn -0.8370 -0.0000 -0.5472
vn 0.4913 -0.3993 0.7741
vn 0.6126 -0.4227 0.6679
vn 0.4676 -0.8554 0.2229
vn 0.1459 -0.8796 0.4529
vn -0.2920 0.8796 -0.3756
vn -0.5156 0.8554 -0.0495
vn 0.3307 -0.8568 0.3956
vn 0.7831 -0.4319 0.4474
vn 0.8686 -0.4004 0.2920
vn 0.0467 0.9887 0.1424
vn -0.4651 -0.8796 0.1001
vn -0.4268 -0.8554 -0.2935
vn -0.8847 -0.4227 -0.1966
vn -0.9160 -0.3993 -0.0384
vn -0.7886 -0.4286 0.4409
vn 0.3192 -0.8796 -0.3528
vn 0.4507 -0.8459 -0.2850
vn 0.5902 -0.4286 -0.6840
vn 0.4248 -0.3992 -0.8125
vn 0.9482 -0.0000 0.3177
vn 0.8686 0.4004 0.2920
vn 0.8918 0.4287 0.1446
vn 0.9648 -0.0000 0.2630
vn -0.1969 0.3993 0.8955
vn 0.0124 0.4287 0.9034
vn -0.0972 0.9894 0.1082
vn 0.8918 -0.4287 0.1446
vn -0.9990 -0.0000 -0.0440
vn -0.9160 0.3993 -0.0384
vn -0.8875 0.4287 0.1691
vn -0.9966 -0.0000 0.0829
vn 0.8806 -0.3992 -0.2555
vn 0.8986 -0.4227 -0.1179
vn 0.9737 -0.0000 -0.2279
vn 0.9612 -0.0000 -0.2757
vn 0.3935 -0.0000 -0.9193
vn 0.2721 -0.4227 -0.8644
vn -0.1353 0.9900 0.0411
vn 0.1000 -0.9887 0.1116
vn -0.6770 -0.3992 0.6183
vn -0.5514 -0.4227 0.7192
vn -0.1383 -0.8554 0.4992
vn -0.4206 -0.8796 0.2223
vn 0.5208 -0.8482 0.0963
vn -0.0405 -0.8532 -0.5200
vn 0.5021 -0.8648 0.0027
vn -0.1262 0.9913 -0.0382
vn -0.2920 -0.8796 -0.3756
vn -0.5156 -0.8554 -0.0495
vn 0.9170 -0.0000 0.3990
vn 0.8806 0.3992 -0.2555
vn 0.7831 0.4319 -0.4475
vn 0.9170 -0.0000 -0.3990
vn -0.7264 -0.3993 -0.5594
vn -0.8041 -0.4227 -0.4181
vn 0.4248 0.3992 -0.8125
vn 0.4615 -0.0000 -0.8871
vn 0.5701 -0.0000 -0.8216
vn 0.5902 0.4286 -0.6840
vn 0.4839 0.8747 0.0274
vn 0.5284 0.8459 -0.0720
vn 0.0177 0.8796 0.4754
vn 0.1621 0.8459 0.5080
vn -0.4651 0.8796 0.1001
vn -0.4722 0.8459 0.2478
vn 0.3192 0.8796 -0.3528
vn 0.4507 0.8459 -0.2850
vn -0.0560 0.9888 -0.1387
vn 0.7831 -0.4319 -0.4475
vn 0.3307 -0.8568 -0.3956
vn 0.0399 -0.4227 -0.9054
vn 0.2149 -0.8554 -0.4713
vn -0.2895 -0.0000 0.9572
vn -0.3472 0.4227 0.8371
vn 0.0048 0.9887 -0.1498
vn 0.2721 0.4227 -0.8644
vn -0.3632 0.8554 0.3693
vn 0.1273 0.9887 -0.0791
vn 0.1483 -0.9887 -0.0212
vn -0.0405 0.8532 -0.5200
vn -0.9929 -0.0000 -0.1189
vn -0.8847 0.4227 -0.1966
vn -0.4268 0.8554 -0.2935
vn -0.7101 -0.0000 -0.7041
vn -0.8167 -0.0000 0.5771
vn -0.2024 0.8459 -0.4934
vn -0.5712 0.4287 -0.7000
vn -0.2547 -0.0000 -0.9670
vn -0.3207 0.4287 -0.8447
vn -0.3261 0.8459 -0.4220
vn 0.2973 0.4287 0.8531
vn 0.4265 -0.0000 0.9045
vn 0.0215 0.8458 0.5330
vn 0.0215 -0.8458 0.5330
vn -0.5210 0.8459 0.1137
vn -0.7886 0.4286 0.4409
vn -0.3261 -0.8459 -0.4220
vn -0.1794 -0.8796 -0.4407
vn -0.1353 -0.9900 0.0411
vn -0.1794 0.8796 -0.4407
vn -0.4206 0.8796 0.2223
vn 0.1459 0.8796 0.4529
vn -0.1213 0.3993 -0.9088
vn -0.6770 0.3992 0.6183
vn 0.4913 0.3993 0.7741
vn -0.1302 -0.0000 -0.9915
vn -0.7370 -0.0000 0.6758
vn 0.5376 -0.0000 0.8432
vn -0.3207 -0.4287 -0.8447
vn 0.2973 -0.4287 0.8531
vn -0.1213 -0.3993 -0.9088
vn 0.0399 0.4227 -0.9054
vn -0.0553 -0.0000 -0.9985
vn 0.2149 0.8554 -0.4713
vn 0.5208 0.8482 0.0963
vn 0.8986 0.4227 -0.1179
vn 0.4676 0.8554 0.2229
vn 0.6126 0.4227 0.6679
vn 0.5994 -0.0000 0.8004
vn -0.6842 -0.0000 0.7293
vn -0.5514 0.4227 0.7192
vn -0.1383 0.8554 0.4992
vn 0.5021 0.8648 0.0027
vn 0.3307 0.8568 -0.3956
vn 0.3307 0.8568 0.3956
vn 0.7831 0.4319 0.4474
vt 0.273030 0.685567
vt 0.273030 0.685567
vt 0.273030 0.685567
vt 0.273030 0.685567
vt 0.273030 0.685567
vt 0.273030 0.685567
vt 0.273030 0.685567
vt 0.273030 0.685567
vt 0.273030 0.685567
vt 0.273030 0.685567
vt 0.273030 0.685567
vt 0.273030 0.685567
vt 0.273030 0.685567
vt 0.273030 0.685567
vt 0.273030 0.685567
vt 0.273030 0.685567
vt 0.332876 0.947001
vt 0.332876 0.947001
vt 0.332876 0.947001
vt 0.332876 0.947001
vt 0.332876 0.947001
vt 0.332876 0.947001
vt 0.332876 0.947001
vt 0.332876 0.947001
vt 0.332876 0.947001
vt 0.332876 0.947001
vt 0.332876 0.947001
vt 0.332876 0.947001
vt 0.332876 0.947001
vt 0.332876 0.947001
vt 0.332876 0.947001
vt 0.332876 0.947001
vt 0.332876 0.947001
vt 0.332876 0.947001
vt 0.332876 0.947001
vt 0.332876 0.947001
vt 0.332876 0.947001
vt 0.332876 0.947001
vt 0.332876 0.947001
vt 0.332876 0.947001
vt 0.332876 0.947001
vt 0.332876 0.947001
vt 0.332876 0.947001
vt 0.332876 0.947001
vt 0.332876 0.947001
vt 0.332876 0.947001
vt 0.332876 0.947001
vt 0.332876 0.947001
vt 0.332876 0.947001
vt 0.332876 0.947001
vt 0.332876 0.947001
vt 0.332876 0.947001
vt 0.332876 0.947001
vt 0.332876 0.947001
vt 0.332876 0.947001
vt 0.332876 0.947001
vt 0.332876 0.947001
vt 0.332876 0.947001
vt 0.332876 0.947001
vt 0.332876 0.947001
vt 0.332876 0.947001
vt 0.332876 0.947001
vt 0.332876 0.947001
vt 0.332876 0.947001
vt 0.332876 0.947001
vt 0.332876 0.947001
vt 0.332876 0.947001
vt 0.332876 0.947001
vt 0.332876 0.947001
vt 0.332876 0.947001
vt 0.332876 0.947001
vt 0.332876 0.947001
vt 0.332876 0.947001
vt 0.332876 0.947001
vt 0.332876 0.947001
vt 0.332876 0.947001
vt 0.332876 0.947001
vt 0.332876 0.947001
vt 0.332876 0.947001
vt 0.332876 0.947001
vt 0.332876 0.947001
vt 0.332876 0.947001
vt 0.332876 0.947001
vt 0.332876 0.947001
vt 0.332876 0.947001
vt 0.332876 0.947001
vt 0.332876 0.947001
vt 0.332876 0.947001
vt 0.332876 0.947001
vt 0.332876 0.947001
vt 0.332876 0.947001
vt 0.332876 0.947001
vt 0.332876 0.947001
vt 0.332876 0.947001
vt 0.332876 0.947001
vt 0.332876 0.947001
vt 0.332876 0.947001
vt 0.332876 0.947001
vt 0.332876 0.947001
vt 0.332876 0.947001
vt 0.332876 0.947001
vt 0.332876 0.947001
vt 0.332876 0.947001
vt 0.332876 0.947001
vt 0.332876 0.947001
vt 0.332876 0.947001
vt 0.332876 0.947001
vt 0.332876 0.947001
vt 0.332876 0.947001
vt 0.332876 0.947001
vt 0.332876 0.947001
vt 0.332876 0.947001
vt 0.332876 0.947001
vt 0.332876 0.947001
vt 0.332876 0.947001
vt 0.332876 0.947001
vt 0.332876 0.947001
vt 0.332876 0.947001
vt 0.332876 0.947001
vt 0.332876 0.947001
vt 0.332876 0.947001
vt 0.332876 0.947001
vt 0.332876 0.947001
vt 0.332876 0.947001
vt 0.332876 0.947001
vt 0.332876 0.947001
vt 0.332876 0.947001
vt 0.332876 0.947001
vt 0.332876 0.947001
vt 0.332876 0.947001
vt 0.332876 0.947001
vt 0.332876 0.947001
vt 0.332876 0.947001
vt 0.332876 0.947001
vt 0.332876 0.947001
vt 0.332876 0.947001
vt 0.332876 0.947001
vt 0.332876 0.947001
vt 0.332876 0.947001
vt 0.332876 0.947001
vt 0.332876 0.947001
vt 0.332876 0.947001
vt 0.332876 0.947001
vt 0.332876 0.947001
vt 0.332876 0.947001
vt 0.332876 0.947001
vt 0.332876 0.947001
vt 0.332876 0.947001
vt 0.332876 0.947001
vt 0.332876 0.947001
vt 0.332876 0.947001
vt 0.332876 0.947001
vt 0.332876 0.947001
vt 0.332876 0.947001
vt 0.332876 0.947001
vt 0.332876 0.947001
vt 0.332876 0.947001
vt 0.332876 0.947001
vt 0.332876 0.947001
vt 0.332876 0.947001
vt 0.332876 0.947001
vt 0.332876 0.947001
vt 0.332876 0.947001
vt 0.332876 0.947001
vt 0.332876 0.947001
vt 0.332876 0.947001
vt 0.332876 0.947001
vt 0.332876 0.947001
vt 0.332876 0.947001
vt 0.332876 0.947001
vt 0.332876 0.947001
s 1
usemtl Material
f 8/8/1 5/5/2 9/9/3 12/12/4
f 6/6/5 5/5/2 3/3/6 1/1/7
f 7/7/8 6/6/5 1/1/7 2/2/9
f 8/8/1 7/7/8 2/2/9 4/4/10
f 5/5/2 8/8/1 4/4/10 3/3/6
f 12/12/4 9/9/3 13/13/11 16/16/12
f 6/6/5 7/7/8 11/11/13 10/10/14
f 7/7/8 8/8/1 12/12/4 11/11/13
f 5/5/2 6/6/5 10/10/14 9/9/3
f 14/14/15 15/15/16 16/16/12 13/13/11
f 10/10/14 11/11/13 15/15/16 14/14/15
f 11/11/13 12/12/4 16/16/12 15/15/16
f 9/9/3 10/10/14 14/14/15 13/13/11
f 66/66/17 73/73/18 54/54/19
f 74/74/20 119/119/21 73/73/18
f 130/130/22 95/95/23 94/94/24 129/129/25
f 69/69/26 42/42/27 17/17/28
f 28/28/29 35/35/30 54/54/19
f 119/119/21 124/124/31 79/79/32 73/73/18
f 60/60/33 109/109/34 55/55/35
f 74/74/20 159/159/36 160/160/37 75/75/38
f 59/59/39 103/103/40 120/120/41 75/75/38
f 20/20/42 19/19/43 117/117/44 118/118/45
f 68/68/46 155/155/47 154/154/48 67/67/49
f 19/19/43 18/18/50 116/116/51 117/117/44
f 18/18/50 17/17/28 116/116/51
f 60/60/33 170/170/52 171/171/53 61/61/54
f 17/17/28 42/42/27 24/24/55
f 89/89/56 166/166/57 167/167/58 90/90/59
f 120/120/41 125/125/60 124/124/31 119/119/21
f 40/40/61 104/104/62 105/105/63 41/41/64
f 46/46/65 45/45/66 92/92/67 93/93/68
f 59/59/39 58/58/69 102/102/70 103/103/40
f 24/24/55 42/42/27 30/30/71
f 46/46/65 93/93/68 110/110/72 61/61/54
f 72/72/73 71/71/74 112/112/75 113/113/76
f 49/49/77 150/150/78 133/133/79 39/39/80
f 128/128/81 133/133/79 150/150/78 145/145/82
f 30/30/71 42/42/27 36/36/83
f 21/21/84 28/28/29 54/54/19
f 84/84/85 165/165/86 164/164/87 80/80/88
f 145/145/82 150/150/78 149/149/89 144/144/90
f 48/48/91 149/149/89 150/150/78 49/49/77
f 36/36/83 42/42/27 43/43/92
f 22/22/93 134/134/94 21/21/84
f 61/61/54 171/171/53 163/163/95 46/46/65
f 39/39/80 38/38/96 157/157/97 158/158/98
f 23/23/99 135/135/100 134/134/94 22/22/93
f 32/32/101 33/33/102 88/88/103 87/87/104
f 45/45/66 44/44/105 91/91/106 92/92/67
f 58/58/69 57/57/107 101/101/108 102/102/70
f 71/71/74 70/70/109 111/111/110 112/112/75
f 31/31/111 32/32/101 87/87/104 86/86/112
f 44/44/105 43/43/92 91/91/106
f 43/43/92 42/42/27 50/50/113
f 49/49/77 169/169/114 168/168/115 48/48/91
f 135/135/100 140/140/116 139/139/117 134/134/94
f 58/58/69 59/59/39 143/143/118 142/142/119
f 55/55/35 170/170/52 60/60/33
f 50/50/113 42/42/27 56/56/120
f 20/20/42 118/118/45 135/135/100 23/23/99
f 33/33/102 32/32/101 127/127/121 128/128/81
f 57/57/107 58/58/69 142/142/119 141/141/122
f 57/57/107 56/56/120 101/101/108
f 70/70/109 69/69/26 111/111/110
f 30/30/71 31/31/111 86/86/112
f 56/56/120 42/42/27 62/62/123
f 85/85/124 21/21/84 54/54/19
f 62/62/123 42/42/27 69/69/26
f 72/72/73 113/113/76 130/130/22 90/90/59
f 158/158/98 163/163/95 171/171/53 169/169/114
f 32/32/101 31/31/111 126/126/125 127/127/121
f 56/56/120 57/57/107 141/141/122
f 71/71/74 72/72/73 153/153/126 152/152/127
f 31/31/111 30/30/71 126/126/125
f 70/70/109 71/71/74 152/152/127 151/151/128
f 23/23/99 95/95/23 78/78/129 20/20/42
f 103/103/40 108/108/130 125/125/60 120/120/41
f 112/112/75 111/111/110 76/76/131 77/77/132
f 21/21/84 94/94/24 22/22/93
f 113/113/76 112/112/75 77/77/132 78/78/129
f 111/111/110 69/69/26 17/17/28 76/76/131
f 83/83/133 82/82/134 87/87/104 88/88/103
f 81/81/135 24/24/55 30/30/71 86/86/112
f 33/33/102 128/128/81 145/145/82 41/41/64
f 90/90/59 130/130/22 129/129/25 89/89/56
f 82/82/134 81/81/135 86/86/112 87/87/104
f 55/55/35 66/66/17 54/54/19
f 79/79/32 85/85/124 54/54/19
f 93/93/68 92/92/67 97/97/136 98/98/137
f 91/91/106 43/43/92 50/50/113 96/96/138
f 90/90/59 167/167/58 153/153/126 72/72/73
f 35/35/30 104/104/62 40/40/61
f 92/92/67 91/91/106 96/96/138 97/97/136
f 109/109/34 114/114/139 66/66/17 55/55/35
f 129/129/25 94/94/24 21/21/84 85/85/124
f 102/102/70 101/101/108 106/106/140 107/107/141
f 99/99/142 104/104/62 35/35/30 28/28/29
f 103/103/40 102/102/70 107/107/141 108/108/130
f 101/101/108 56/56/120 62/62/123 106/106/140
f 29/29/143 99/99/142 28/28/29
f 113/113/76 78/78/129 95/95/23 130/130/22
f 89/89/56 129/129/25 85/85/124
f 17/17/28 18/18/50 76/76/131
f 18/18/50 19/19/43 77/77/132 76/76/131
f 19/19/43 20/20/42 78/78/129 77/77/132
f 75/75/38 160/160/37 143/143/118 59/59/39
f 35/35/30 47/47/144 54/54/19
f 47/47/144 55/55/35 54/54/19
f 39/39/80 158/158/98 169/169/114 49/49/77
f 25/25/145 24/24/55 81/81/135
f 62/62/123 63/63/146 106/106/140
f 50/50/113 51/51/147 96/96/138
f 26/26/148 25/25/145 81/81/135 82/82/134
f 63/63/146 64/64/149 107/107/141 106/106/140
f 51/51/147 52/52/150 97/97/136 96/96/138
f 27/27/151 26/26/148 82/82/134 83/83/133
f 64/64/149 65/65/152 108/108/130 107/107/141
f 52/52/150 53/53/153 98/98/137 97/97/136
f 41/41/64 105/105/63 88/88/103 33/33/102
f 83/83/133 88/88/103 105/105/63 100/100/154
f 73/73/18 79/79/32 54/54/19
f 61/61/54 110/110/72 109/109/34 60/60/33
f 22/22/93 94/94/24 95/95/23 23/23/99
f 100/100/154 105/105/63 104/104/62 99/99/142
f 41/41/64 145/145/82 144/144/90 40/40/61
f 75/75/38 120/120/41 119/119/21 74/74/20
f 110/110/72 115/115/155 114/114/139 109/109/34
f 40/40/61 144/144/90 35/35/30
f 93/93/68 98/98/137 115/115/155 110/110/72
f 73/73/18 159/159/36 74/74/20
f 27/27/151 83/83/133 100/100/154 34/34/156
f 118/118/45 117/117/44 122/122/157 123/123/158
f 116/116/51 17/17/28 24/24/55 121/121/159
f 118/118/45 123/123/158 140/140/116 135/135/100
f 80/80/88 124/124/31 125/125/60 84/84/85
f 117/117/44 116/116/51 121/121/159 122/122/157
f 164/164/87 166/166/57 85/85/124 79/79/32
f 144/144/90 149/149/89 47/47/144 35/35/30
f 127/127/121 126/126/125 131/131/160 132/132/161
f 155/155/47 160/160/37 159/159/36 154/154/48
f 128/128/81 127/127/121 132/132/161 133/133/79
f 126/126/125 30/30/71 36/36/83 131/131/160
f 136/136/162 50/50/113 56/56/120 141/141/122
f 34/34/156 140/140/116 123/123/158 27/27/151
f 67/67/49 154/154/48 66/66/17
f 137/137/163 136/136/162 141/141/122 142/142/119
f 29/29/143 139/139/117 140/140/116 34/34/156
f 138/138/164 137/137/163 142/142/119 143/143/118
f 168/168/115 170/170/52 55/55/35 47/47/144
f 148/148/165 147/147/166 152/152/127 153/153/126
f 146/146/167 62/62/123 69/69/26 151/151/128
f 48/48/91 168/168/115 47/47/144
f 169/169/114 171/171/53 170/170/52 168/168/115
f 147/147/166 146/146/167 151/151/128 152/152/127
f 79/79/32 124/124/31 80/80/88
f 66/66/17 114/114/139 67/67/49
f 34/34/156 100/100/154 99/99/142 29/29/143
f 36/36/83 37/37/168 131/131/160
f 24/24/55 25/25/145 121/121/159
f 63/63/146 62/62/123 146/146/167
f 51/51/147 50/50/113 136/136/162
f 37/37/168 38/38/96 132/132/161 131/131/160
f 25/25/145 26/26/148 122/122/157 121/121/159
f 64/64/149 63/63/146 146/146/167 147/147/166
f 52/52/150 51/51/147 136/136/162 137/137/163
f 38/38/96 39/39/80 133/133/79 132/132/161
f 26/26/148 27/27/151 123/123/158 122/122/157
f 65/65/152 64/64/149 147/147/166 148/148/165
f 53/53/153 52/52/150 137/137/163 138/138/164
f 154/154/48 159/159/36 73/73/18 66/66/17
f 67/67/49 114/114/139 115/115/155 68/68/46
f 65/65/152 148/148/165 165/165/86 84/84/85
f 47/47/144 149/149/89 48/48/91
f 138/138/164 143/143/118 160/160/37 155/155/47
f 84/84/85 125/125/60 108/108/130 65/65/152
f 53/53/153 138/138/164 155/155/47 68/68/46
f 28/28/29 139/139/117 29/29/143
f 165/165/86 167/167/58 166/166/57 164/164/87
f 134/134/94 139/139/117 28/28/29 21/21/84
f 85/85/124 166/166/57 89/89/56
f 80/80/88 164/164/87 79/79/32
f 148/148/165 153/153/126 167/167/58 165/165/86
f 68/68/46 115/115/155 98/98/137 53/53/153
f 69/69/26 70/70/109 151/151/128
f 157/157/97 156/156/169 161/161/170 162/162/171
f 158/158/98 157/157/97 162/162/171 163/163/95
f 156/156/169 36/36/83 43/43/92 161/161/170
f 43/43/92 44/44/105 161/161/170
f 37/37/168 36/36/83 156/156/169
f 44/44/105 45/45/66 162/162/171 161/161/170
f 38/38/96 37/37/168 156/156/169 157/157/97
f 45/45/66 46/46/65 163/163/95 162/162/171
