# Blender 3.4.1
# www.blender.org
mtllib kitchen004.mtl
o kitchen.003
v -0.335824 -0.053999 0.967394
v -0.335824 0.177556 0.967394
v 1.305058 0.177556 0.967394
v 0.616491 -0.053999 0.967394
v -0.335824 -0.053999 1.067749
v -0.335824 0.177556 1.067749
v 1.305058 0.177556 1.067749
v 1.305058 -0.053999 1.067749
v -0.447952 -0.053999 0.967394
v -0.447952 0.177556 0.967394
v 1.417186 0.177556 0.967394
v 1.417186 -0.053999 0.967394
v -0.447952 -0.053999 1.067749
v -0.447952 0.177556 1.067749
v 1.417186 0.177556 1.067749
v 1.417186 -0.053999 1.067749
v -0.335824 -0.053999 0.874994
v -0.335824 0.177556 0.874994
v 0.616491 0.177556 0.874994
v 0.616491 -0.053999 0.874994
v -0.447952 -0.053999 0.874994
v -0.447952 0.177556 0.874994
v 0.728619 0.177556 0.874994
v 0.728619 -0.053999 0.874994
v -0.605890 -4.057614 0.720117
v -0.605890 -0.572403 0.720117
v -0.605890 -4.057614 -2.751052
v -0.605890 -0.572403 -2.751052
v 2.919846 -4.057614 0.720117
v 2.919846 -0.572403 0.720117
v 2.919846 -4.057614 -2.751052
v 2.919846 -0.572403 -2.751052
v -0.605890 -0.205809 0.720117
v -0.605890 -0.205809 -2.751052
v 2.919846 -0.205809 -2.751052
v 2.919846 -0.205809 0.720117
v -0.605890 5.936132 0.720117
v -0.605890 5.936132 -2.751052
v 2.919846 5.936132 -2.751052
v 2.919846 5.936132 0.720117
v -0.540250 -3.987660 0.897870
v -0.540250 -0.642357 0.897870
v 2.854206 -0.642357 0.897870
v 2.854206 -3.987660 0.897870
v 2.854206 -0.122164 0.897870
v -0.540250 -0.122164 0.897870
v 2.854206 5.852488 0.897870
v -0.540250 5.852488 0.897870
v -0.335824 -0.962947 0.967394
v -0.335824 -0.731392 0.967394
v 1.305058 -0.731392 0.967394
v 0.616491 -0.962947 0.967394
v -0.335824 -0.962947 1.067749
v -0.335824 -0.731392 1.067749
v 1.305058 -0.731392 1.067749
v 1.305058 -0.962947 1.067749
v -0.447952 -0.962947 0.967394
v -0.447952 -0.731392 0.967394
v 1.417186 -0.731392 0.967394
v 1.417186 -0.962947 0.967394
v -0.447952 -0.962947 1.067749
v -0.447952 -0.731392 1.067749
v 1.417186 -0.731392 1.067749
v 1.417186 -0.962947 1.067749
v -0.335824 -0.962947 0.874994
v -0.335824 -0.731392 0.874994
v 0.616491 -0.731392 0.874994
v 0.616491 -0.962947 0.874994
v -0.447952 -0.962947 0.874994
v -0.447952 -0.731392 0.874994
v 0.728619 -0.731392 0.874994
v 0.728619 -0.962947 0.874994
v -2.998147 -4.057613 0.720116
v -2.998147 -0.572402 0.720116
v -2.998147 -4.057613 -2.751053
v -2.998147 -0.572402 -2.751053
v -0.589737 -4.057613 0.720116
v -0.589737 -0.572402 0.720116
v -0.589737 -4.057613 -2.751053
v -0.589737 -0.572402 -2.751053
v -2.998147 -0.205809 0.720116
v -2.998147 -0.205809 -2.751053
v -0.589737 -0.205809 -2.751053
v -0.589737 -0.205809 0.720116
v -2.998147 5.936133 0.720116
v -2.998147 5.936133 -2.751053
v -0.589737 5.936133 -2.751053
v -0.589737 5.936133 0.720116
v -2.932508 -3.987659 0.897869
v -2.932508 -0.642356 0.897869
v -0.655377 -0.642356 0.897869
v -0.655377 -3.987659 0.897869
v -0.655377 -0.122164 0.897869
v -2.932508 -0.122164 0.897869
v -0.655377 5.852489 0.897869
v -2.932508 5.852489 0.897869
v -2.997615 5.936134 0.720115
v -2.997615 5.936134 -2.751053
v 2.919843 5.936134 -2.751053
v 2.919843 5.936134 0.720115
v -2.997615 6.216471 0.720115
v -2.850904 6.363182 0.573404
v -2.850904 6.363182 -2.604342
v -2.997615 6.216471 -2.751053
v 2.773133 6.363182 -2.604342
v 2.919843 6.216471 -2.751053
v 2.773133 6.363182 0.573404
v 2.919843 6.216471 0.720115
v -2.997615 -4.183946 0.720115
v -2.850904 -4.037235 0.573404
v -2.850904 -4.037235 -2.604342
v -2.997615 -4.183946 -2.751053
v 2.773133 -4.037235 -2.604342
v 2.919843 -4.183946 -2.751053
v 2.773133 -4.037235 0.573404
v 2.919843 -4.183946 0.720115
v -2.952230 -4.464283 0.674731
v -2.997615 -4.418898 0.720115
v -2.997615 -4.418898 -2.751053
v -2.952230 -4.464283 -2.705669
v 2.919843 -4.418898 -2.751053
v 2.874459 -4.464283 -2.705669
v 2.919843 -4.418898 0.720115
v 2.874459 -4.464283 0.674731
vn -0.0000 -0.0000 -1.0000
vn -0.0000 -0.0000 1.0000
vn -0.0000 -1.0000 -0.0000
vn -0.0000 1.0000 -0.0000
vn -1.0000 -0.0000 -0.0000
vn 1.0000 -0.0000 -0.0000
vn 0.1330 -0.0000 -0.9911
vn 0.0666 -0.0000 -0.9978
vn -0.2419 0.3596 0.9012
vn -0.9881 -0.0000 0.1536
vn -0.9952 -0.0000 0.0980
vn 0.9952 -0.0000 0.0980
vn 0.9881 -0.0000 0.1536
vn -0.9381 -0.0000 0.3464
vn -0.0000 -0.9864 0.1644
vn 0.9955 -0.0000 0.0943
vn -0.0000 0.9812 0.1931
vn -0.0000 0.9048 0.4258
vn -0.9955 -0.0000 0.0943
vn 0.9888 -0.0000 0.1491
vn -0.9888 -0.0000 0.1491
vn -0.0000 -0.9305 0.3662
vn -0.0000 -0.9048 0.4258
vn 0.9381 -0.0000 0.3464
vn -0.0000 0.9305 0.3662
vn -0.7071 0.7071 -0.0000
vn -0.0000 0.7071 -0.7071
vn 0.7071 0.7071 -0.0000
vn -0.0000 0.7071 0.7071
vn -0.7071 -0.7071 -0.0000
vn -0.0000 -0.7071 -0.7071
vn 0.7071 -0.7071 -0.0000
vn -0.0000 -0.7071 0.7071
vt 0.569759 0.120202
vt 0.569759 0.120202
vt 0.569759 0.120202
vt 0.569759 0.120202
vt 0.569759 0.120202
vt 0.569759 0.120202
vt 0.569759 0.120202
vt 0.569759 0.120202
vt 0.569759 0.120202
vt 0.569759 0.120202
vt 0.569759 0.120202
vt 0.569759 0.120202
vt 0.569759 0.120202
vt 0.569759 0.120202
vt 0.569759 0.120202
vt 0.569759 0.120202
vt 0.569759 0.120202
vt 0.569759 0.120202
vt 0.569759 0.120202
vt 0.569759 0.120202
vt 0.569759 0.120202
vt 0.569759 0.120202
vt 0.569759 0.120202
vt 0.569759 0.120202
vt 0.820891 0.101600
vt 0.820891 0.101600
vt 0.820891 0.101600
vt 0.820891 0.101600
vt 0.820891 0.101600
vt 0.820891 0.101600
vt 0.820891 0.101600
vt 0.820891 0.101600
vt 0.820891 0.101600
vt 0.820891 0.101600
vt 0.820891 0.101600
vt 0.820891 0.101600
vt 0.820891 0.101600
vt 0.820891 0.101600
vt 0.820891 0.101600
vt 0.820891 0.101600
vt 0.820891 0.101600
vt 0.820891 0.101600
vt 0.820891 0.101600
vt 0.820891 0.101600
vt 0.820891 0.101600
vt 0.820891 0.101600
vt 0.820891 0.101600
vt 0.820891 0.101600
vt 0.569759 0.120202
vt 0.569759 0.120202
vt 0.569759 0.120202
vt 0.569759 0.120202
vt 0.569759 0.120202
vt 0.569759 0.120202
vt 0.569759 0.120202
vt 0.569759 0.120202
vt 0.569759 0.120202
vt 0.569759 0.120202
vt 0.569759 0.120202
vt 0.569759 0.120202
vt 0.569759 0.120202
vt 0.569759 0.120202
vt 0.569759 0.120202
vt 0.569759 0.120202
vt 0.569759 0.120202
vt 0.569759 0.120202
vt 0.569759 0.120202
vt 0.569759 0.120202
vt 0.569759 0.120202
vt 0.569759 0.120202
vt 0.569759 0.120202
vt 0.569759 0.120202
vt 0.820891 0.101600
vt 0.820891 0.101600
vt 0.820891 0.101600
vt 0.820891 0.101600
vt 0.820891 0.101600
vt 0.820891 0.101600
vt 0.820891 0.101600
vt 0.820891 0.101600
vt 0.820891 0.101600
vt 0.820891 0.101600
vt 0.820891 0.101600
vt 0.820891 0.101600
vt 0.820891 0.101600
vt 0.820891 0.101600
vt 0.820891 0.101600
vt 0.820891 0.101600
vt 0.820891 0.101600
vt 0.820891 0.101600
vt 0.820891 0.101600
vt 0.820891 0.101600
vt 0.820891 0.101600
vt 0.820891 0.101600
vt 0.820891 0.101600
vt 0.820891 0.101600
vt 0.563558 0.101600
vt 0.563558 0.101600
vt 0.563558 0.101600
vt 0.563558 0.101600
vt 0.563558 0.101600
vt 0.563558 0.101600
vt 0.563558 0.101600
vt 0.563558 0.101600
vt 0.563558 0.101600
vt 0.563558 0.101600
vt 0.563558 0.101600
vt 0.563558 0.101600
vt 0.563558 0.101600
vt 0.563558 0.101600
vt 0.563558 0.101600
vt 0.563558 0.101600
vt 0.563558 0.101600
vt 0.563558 0.101600
vt 0.563558 0.101600
vt 0.563558 0.101600
vt 0.563558 0.101600
vt 0.563558 0.101600
vt 0.563558 0.101600
vt 0.563558 0.101600
vt 0.563558 0.101600
vt 0.563558 0.101600
vt 0.563558 0.101600
vt 0.563558 0.101600
s 1
usemtl Material
f 4/4/1 1/1/1 2/2/1 3/3/1
f 8/8/2 7/7/2 6/6/2 5/5/2
f 1/1/3 4/4/3 8/8/3 5/5/3
f 3/3/4 7/7/4 15/15/4 11/11/4
f 3/3/4 2/2/4 6/6/4 7/7/4
f 5/5/2 6/6/2 14/14/2 13/13/2
f 10/10/5 9/9/5 13/13/5 14/14/5
f 12/12/6 11/11/6 15/15/6 16/16/6
f 11/11/7 12/12/7 24/24/8 23/23/8
f 1/1/3 5/5/3 13/13/3 9/9/3
f 7/7/2 8/8/2 16/16/2 15/15/2
f 1/1/3 9/9/3 21/21/3 17/17/3
f 6/6/4 2/2/4 10/10/4 14/14/4
f 8/8/3 4/4/3 12/12/3 16/16/3
f 18/18/1 17/17/1 21/21/1 22/22/1
f 20/20/1 19/19/1 23/23/8 24/24/8
f 2/2/6 1/1/6 17/17/6 18/18/6
f 12/12/3 4/4/3 20/20/3 24/24/3
f 10/10/4 2/2/4 18/18/4 22/22/4
f 3/3/4 11/11/4 23/23/4 19/19/4
f 4/4/9 3/3/9 19/19/9 20/20/9
f 9/9/5 10/10/5 22/22/5 21/21/5
f 25/25/10 26/26/11 28/28/5 27/27/5
f 27/27/1 28/28/1 32/32/1 31/31/1
f 31/31/6 32/32/6 30/30/12 29/29/13
f 26/26/11 25/25/10 41/41/14 42/42/14
f 27/27/3 31/31/3 29/29/15 25/25/15
f 30/30/12 32/32/6 35/35/6 36/36/16
f 40/40/17 37/37/17 48/48/18 47/47/18
f 28/28/5 26/26/11 33/33/19 34/34/5
f 26/26/2 30/30/2 36/36/2 33/33/2
f 32/32/1 28/28/1 34/34/1 35/35/1
f 39/39/4 38/38/4 37/37/17 40/40/17
f 35/35/1 34/34/1 38/38/1 39/39/1
f 36/36/16 35/35/6 39/39/6 40/40/20
f 34/34/5 33/33/19 37/37/21 38/38/5
f 44/44/2 43/43/2 42/42/2 41/41/2
f 46/46/2 45/45/2 47/47/2 48/48/2
f 25/25/15 29/29/15 44/44/22 41/41/22
f 33/33/23 36/36/23 45/45/23 46/46/23
f 36/36/16 40/40/20 47/47/24 45/45/24
f 30/30/25 26/26/25 42/42/25 43/43/25
f 29/29/13 30/30/12 43/43/24 44/44/24
f 37/37/21 33/33/19 46/46/14 48/48/14
f 52/52/1 49/49/1 50/50/1 51/51/1
f 56/56/2 55/55/2 54/54/2 53/53/2
f 49/49/3 52/52/3 56/56/3 53/53/3
f 51/51/4 55/55/4 63/63/4 59/59/4
f 51/51/4 50/50/4 54/54/4 55/55/4
f 53/53/2 54/54/2 62/62/2 61/61/2
f 58/58/5 57/57/5 61/61/5 62/62/5
f 60/60/6 59/59/6 63/63/6 64/64/6
f 59/59/7 60/60/7 72/72/8 71/71/8
f 49/49/3 53/53/3 61/61/3 57/57/3
f 55/55/2 56/56/2 64/64/2 63/63/2
f 49/49/3 57/57/3 69/69/3 65/65/3
f 54/54/4 50/50/4 58/58/4 62/62/4
f 56/56/3 52/52/3 60/60/3 64/64/3
f 66/66/1 65/65/1 69/69/1 70/70/1
f 68/68/1 67/67/1 71/71/8 72/72/8
f 50/50/6 49/49/6 65/65/6 66/66/6
f 60/60/3 52/52/3 68/68/3 72/72/3
f 58/58/4 50/50/4 66/66/4 70/70/4
f 51/51/4 59/59/4 71/71/4 67/67/4
f 52/52/9 51/51/9 67/67/9 68/68/9
f 57/57/5 58/58/5 70/70/5 69/69/5
f 73/73/10 74/74/11 76/76/5 75/75/5
f 75/75/1 76/76/1 80/80/1 79/79/1
f 79/79/6 80/80/6 78/78/12 77/77/13
f 74/74/11 73/73/10 89/89/14 90/90/14
f 75/75/3 79/79/3 77/77/15 73/73/15
f 78/78/12 80/80/6 83/83/6 84/84/16
f 88/88/17 85/85/17 96/96/18 95/95/18
f 76/76/5 74/74/11 81/81/19 82/82/5
f 74/74/2 78/78/2 84/84/2 81/81/2
f 80/80/1 76/76/1 82/82/1 83/83/1
f 87/87/4 86/86/4 85/85/17 88/88/17
f 83/83/1 82/82/1 86/86/1 87/87/1
f 84/84/16 83/83/6 87/87/6 88/88/20
f 82/82/5 81/81/19 85/85/21 86/86/5
f 92/92/2 91/91/2 90/90/2 89/89/2
f 94/94/2 93/93/2 95/95/2 96/96/2
f 73/73/15 77/77/15 92/92/22 89/89/22
f 81/81/23 84/84/23 93/93/23 94/94/23
f 84/84/16 88/88/20 95/95/24 93/93/24
f 78/78/25 74/74/25 90/90/25 91/91/25
f 77/77/13 78/78/12 91/91/24 92/92/24
f 85/85/21 81/81/19 94/94/14 96/96/14
f 99/99/3 100/100/3 97/97/3 98/98/3
f 97/97/2 100/100/2 108/108/2 101/101/2
f 105/105/4 103/103/4 102/102/4 107/107/4
f 99/99/1 98/98/1 104/104/1 106/106/1
f 100/100/6 99/99/6 106/106/6 108/108/6
f 102/102/26 103/103/26 104/104/26 101/101/26
f 103/103/27 105/105/27 106/106/27 104/104/27
f 105/105/28 107/107/28 108/108/28 106/106/28
f 107/107/29 102/102/29 101/101/29 108/108/29
f 98/98/5 97/97/5 101/101/5 104/104/5
f 118/118/2 123/123/2 116/116/2 109/109/2
f 121/121/1 119/119/1 112/112/1 114/114/1
f 113/113/4 111/111/4 110/110/4 115/115/4
f 123/123/6 121/121/6 114/114/6 116/116/6
f 110/110/26 111/111/26 112/112/26 109/109/26
f 111/111/27 113/113/27 114/114/27 112/112/27
f 113/113/28 115/115/28 116/116/28 114/114/28
f 115/115/29 110/110/29 109/109/29 116/116/29
f 122/122/3 124/124/3 117/117/3 120/120/3
f 118/118/30 119/119/30 120/120/30 117/117/30
f 119/119/31 121/121/31 122/122/31 120/120/31
f 121/121/32 123/123/32 124/124/32 122/122/32
f 123/123/33 118/118/33 117/117/33 124/124/33
f 119/119/5 118/118/5 109/109/5 112/112/5
