# Blender 3.4.1
# www.blender.org
mtllib kitchen031.mtl
o kitchen.030
v 0.023711 0.168124 0.021881
v 0.008429 0.231082 -0.009998
v 0.010146 0.231082 0.012638
v 0.023711 0.168124 -0.017584
v -0.030206 0.168124 -0.017584
v -0.018924 0.231082 -0.009998
v -0.017207 0.231082 0.012638
v -0.030206 0.168124 0.021881
v -0.051011 0.183437 -0.051616
v -0.045322 -0.224900 -0.045926
v 0.051840 0.183437 -0.051616
v 0.046150 -0.224900 -0.045926
v -0.051011 0.183437 0.051242
v -0.045322 -0.224900 0.045549
v 0.051840 0.183437 0.051242
v 0.046150 -0.224900 0.045549
v 0.150094 0.173236 -0.149871
v -0.149266 0.173236 -0.149871
v -0.140282 -0.220821 -0.140887
v 0.141110 -0.220821 -0.140887
v 0.150094 0.173236 0.149496
v 0.141110 -0.220821 0.140513
v -0.149266 0.173236 0.149496
v -0.140282 -0.220821 0.140513
v -0.218963 -0.018706 -0.219568
v 0.219792 -0.018706 -0.219568
v 0.219792 -0.018706 0.219194
v -0.218963 -0.018706 0.219194
v 0.000414 0.173236 -0.206002
v -0.193534 -0.138680 -0.194129
v 0.000414 -0.220821 -0.193648
v 0.200038 0.096703 -0.199808
v 0.206226 0.173236 -0.000187
v 0.193878 -0.220821 -0.000187
v 0.200038 0.096703 0.199434
v 0.000414 0.173236 0.205628
v 0.000414 -0.220821 0.193274
v -0.199210 0.096703 0.199434
v -0.205397 0.173236 -0.000187
v -0.193050 -0.220821 -0.000187
v 0.000414 0.180717 -0.056281
v 0.000414 -0.221193 -0.049695
v 0.056504 0.180717 -0.000187
v 0.049915 -0.221192 -0.000187
v 0.000414 0.180717 0.055907
v 0.000414 -0.221192 0.049318
v -0.055676 0.180717 -0.000187
v -0.049101 -0.221193 -0.000187
v 0.092994 0.191491 -0.092770
v -0.092165 0.191491 -0.092770
v -0.083846 -0.237106 -0.084440
v 0.084660 -0.237106 -0.084440
v 0.092994 0.191491 0.092396
v 0.084660 -0.237106 0.084062
v -0.092165 0.191491 0.092396
v -0.083846 -0.237106 0.084062
v -0.199210 0.096703 -0.199808
v 0.194349 -0.138680 -0.194129
v 0.194349 -0.138680 0.193751
v -0.193534 -0.138680 0.193751
v -0.301230 -0.018706 -0.000187
v 0.000414 -0.018706 0.301460
v 0.302058 -0.018706 -0.000187
v 0.000414 -0.018706 -0.301835
v 0.000414 -0.138680 -0.266854
v 0.267078 -0.138680 -0.000187
v 0.000414 -0.138680 0.266480
v -0.266250 -0.138680 -0.000187
v 0.000414 0.175008 -0.000187
v 0.000414 -0.213412 -0.000187
v 0.000414 0.191223 -0.126148
v 0.000414 -0.236740 -0.114759
v 0.126368 0.191223 -0.000187
v 0.114976 -0.236740 -0.000187
v 0.000414 0.191223 0.125770
v 0.000414 -0.236740 0.114381
v -0.125553 0.191223 -0.000187
v -0.114161 -0.236740 -0.000187
v -0.274071 0.096703 -0.000187
v 0.000414 0.096703 0.274291
v 0.274885 0.096703 -0.000187
v 0.000414 0.096703 -0.274665
vn 0.5235 0.6647 0.5330
vn 0.7035 0.2608 0.6611
vn 0.6997 0.2388 -0.6734
vn 0.4899 0.6731 -0.5540
vn -0.0000 -1.0000 -0.0000
vn -0.5031 0.6720 0.5433
vn -0.5350 0.6492 -0.5407
vn -0.9815 0.1896 0.0271
vn -0.6899 0.2312 0.6860
vn -0.0000 0.1196 -0.9928
vn -0.7069 -0.0252 -0.7069
vn -0.0000 -0.0249 -0.9997
vn -0.0000 -0.4647 -0.8855
vn -0.6241 -0.4701 -0.6241
vn -0.0000 -0.8354 -0.5496
vn -0.3882 -0.8358 -0.3882
vn 0.6241 -0.4701 -0.6241
vn 0.3882 -0.8358 -0.3882
vn 0.7069 -0.0252 -0.7069
vn 0.9997 -0.0249 -0.0000
vn 0.8855 -0.4647 -0.0000
vn 0.5496 -0.8354 -0.0000
vn 0.6241 -0.4701 0.6241
vn 0.3882 -0.8358 0.3882
vn 0.7069 -0.0252 0.7069
vn -0.0000 -0.0249 0.9997
vn -0.0000 -0.4647 0.8855
vn -0.0000 -0.8354 0.5496
vn -0.6241 -0.4701 0.6241
vn -0.3882 -0.8358 0.3882
vn -0.7069 -0.0252 0.7069
vn -0.9997 -0.0249 -0.0000
vn -0.8855 -0.4647 -0.0000
vn -0.5496 -0.8354 -0.0000
vn -0.0957 0.9908 0.0956
vn -0.0000 0.9934 0.1144
vn -0.0000 1.0000 -0.0000
vn -0.1144 0.9934 -0.0000
vn -0.0000 0.9934 -0.1144
vn -0.0956 0.9908 -0.0956
vn 0.1144 0.9934 -0.0000
vn 0.0956 0.9908 -0.0957
vn 0.0956 0.9908 0.0956
vn -0.1492 -0.9775 -0.1492
vn -0.0000 -0.9839 -0.1785
vn -0.1785 -0.9839 -0.0000
vn -0.0000 -0.9839 0.1785
vn -0.1492 -0.9775 0.1492
vn 0.1785 -0.9839 -0.0000
vn 0.1492 -0.9775 0.1492
vn 0.1492 -0.9775 -0.1492
vn 0.0617 0.9962 -0.0617
vn -0.0000 0.9967 -0.0810
vn -0.0617 0.9962 -0.0617
vn -0.0000 0.8317 -0.5553
vn -0.3919 0.8324 -0.3919
vn 0.3919 0.8323 -0.3919
vn -0.0309 -0.9990 -0.0309
vn -0.0000 -0.9994 -0.0345
vn 0.0309 -0.9990 -0.0309
vn 0.0617 0.9962 0.0617
vn 0.0810 0.9967 -0.0000
vn 0.5553 0.8317 -0.0000
vn 0.3919 0.8323 0.3919
vn 0.0345 -0.9994 -0.0000
vn 0.0309 -0.9990 0.0309
vn -0.0617 0.9962 0.0617
vn -0.0000 0.9967 0.0810
vn -0.0000 0.8317 0.5553
vn -0.3919 0.8324 0.3919
vn -0.0000 -0.9994 0.0345
vn -0.0309 -0.9990 0.0309
vn -0.0811 0.9967 -0.0000
vn -0.5553 0.8317 -0.0000
vn -0.0345 -0.9994 -0.0000
vn -0.8973 0.4415 -0.0000
vn -0.6328 0.4462 0.6328
vn -0.6328 0.4462 -0.6328
vn -0.0000 0.4415 0.8973
vn 0.6328 0.4462 0.6328
vn 0.8973 0.4415 -0.0000
vn 0.6328 0.4462 -0.6328
vn -0.0000 0.4415 -0.8973
vt 0.303375 0.882689
vt 0.303375 0.882689
vt 0.303375 0.882689
vt 0.303375 0.882689
vt 0.303375 0.882689
vt 0.303375 0.882689
vt 0.303375 0.882689
vt 0.303375 0.882689
vt 0.364623 0.986902
vt 0.364623 0.986902
vt 0.364623 0.986902
vt 0.364623 0.986902
vt 0.364623 0.986902
vt 0.364623 0.986902
vt 0.364623 0.986902
vt 0.364623 0.986902
vt 0.364623 0.986902
vt 0.364623 0.986902
vt 0.364623 0.986902
vt 0.364623 0.986902
vt 0.364623 0.986902
vt 0.364623 0.986902
vt 0.364623 0.986902
vt 0.364623 0.986902
vt 0.364623 0.986902
vt 0.364623 0.986902
vt 0.364623 0.986902
vt 0.364623 0.986902
vt 0.364623 0.986902
vt 0.364623 0.986902
vt 0.364623 0.986902
vt 0.364623 0.986902
vt 0.364623 0.986902
vt 0.364623 0.986902
vt 0.364623 0.986902
vt 0.364623 0.986902
vt 0.364623 0.986902
vt 0.364623 0.986902
vt 0.364623 0.986902
vt 0.364623 0.986902
vt 0.364623 0.986902
vt 0.364623 0.986902
vt 0.364623 0.986902
vt 0.364623 0.986902
vt 0.364623 0.986902
vt 0.364623 0.986902
vt 0.364623 0.986902
vt 0.364623 0.986902
vt 0.364623 0.986902
vt 0.364623 0.986902
vt 0.364623 0.986902
vt 0.364623 0.986902
vt 0.364623 0.986902
vt 0.364623 0.986902
vt 0.364623 0.986902
vt 0.364623 0.986902
vt 0.364623 0.986902
vt 0.364623 0.986902
vt 0.364623 0.986902
vt 0.364623 0.986902
vt 0.364623 0.986902
vt 0.364623 0.986902
vt 0.364623 0.986902
vt 0.364623 0.986902
vt 0.364623 0.986902
vt 0.364623 0.986902
vt 0.364623 0.986902
vt 0.364623 0.986902
vt 0.364623 0.986902
vt 0.364623 0.986902
vt 0.364623 0.986902
vt 0.364623 0.986902
vt 0.364623 0.986902
vt 0.364623 0.986902
vt 0.364623 0.986902
vt 0.364623 0.986902
vt 0.364623 0.986902
vt 0.364623 0.986902
vt 0.364623 0.986902
vt 0.364623 0.986902
vt 0.364623 0.986902
vt 0.364623 0.986902
s 1
usemtl Material
f 3/3/1 1/1/2 4/4/3 2/2/4
f 1/1/5 8/8/5 5/5/5 4/4/5
f 7/7/6 6/6/7 5/5/8 8/8/9
f 2/2/4 6/6/7 7/7/6 3/3/1
f 3/3/1 7/7/6 8/8/9 1/1/2
f 4/4/3 5/5/10 6/6/7 2/2/4
f 25/25/11 64/64/12 65/65/13 30/30/14
f 30/30/14 65/65/13 31/31/15 19/19/16
f 65/65/13 58/58/17 20/20/18 31/31/15
f 64/64/12 26/26/19 58/58/17 65/65/13
f 26/26/19 63/63/20 66/66/21 58/58/17
f 58/58/17 66/66/21 34/34/22 20/20/18
f 66/66/21 59/59/23 22/22/24 34/34/22
f 63/63/20 27/27/25 59/59/23 66/66/21
f 27/27/25 62/62/26 67/67/27 59/59/23
f 59/59/23 67/67/27 37/37/28 22/22/24
f 67/67/27 60/60/29 24/24/30 37/37/28
f 62/62/26 28/28/31 60/60/29 67/67/27
f 28/28/31 61/61/32 68/68/33 60/60/29
f 60/60/29 68/68/33 40/40/34 24/24/30
f 68/68/33 30/30/14 19/19/16 40/40/34
f 61/61/32 25/25/11 30/30/14 68/68/33
f 11/11/35 41/41/36 69/69/37 43/43/38
f 43/43/38 69/69/37 45/45/39 15/15/40
f 69/69/37 47/47/41 13/13/42 45/45/39
f 41/41/36 9/9/43 47/47/41 69/69/37
f 16/16/44 46/46/45 70/70/5 44/44/46
f 44/44/46 70/70/5 42/42/47 12/12/48
f 70/70/5 48/48/49 10/10/50 42/42/47
f 46/46/45 14/14/51 48/48/49 70/70/5
f 11/11/35 49/49/52 71/71/53 41/41/36
f 41/41/36 71/71/53 50/50/54 9/9/43
f 71/71/53 29/29/55 18/18/56 50/50/54
f 49/49/52 17/17/57 29/29/55 71/71/53
f 10/10/50 51/51/58 72/72/59 42/42/47
f 42/42/47 72/72/59 52/52/60 12/12/48
f 72/72/59 31/31/15 20/20/18 52/52/60
f 51/51/58 19/19/16 31/31/15 72/72/59
f 15/15/40 53/53/61 73/73/62 43/43/38
f 43/43/38 73/73/62 49/49/52 11/11/35
f 73/73/62 33/33/63 17/17/57 49/49/52
f 53/53/61 21/21/64 33/33/63 73/73/62
f 12/12/48 52/52/60 74/74/65 44/44/46
f 44/44/46 74/74/65 54/54/66 16/16/44
f 74/74/65 34/34/22 22/22/24 54/54/66
f 52/52/60 20/20/18 34/34/22 74/74/65
f 13/13/42 55/55/67 75/75/68 45/45/39
f 45/45/39 75/75/68 53/53/61 15/15/40
f 75/75/68 36/36/69 21/21/64 53/53/61
f 55/55/67 23/23/70 36/36/69 75/75/68
f 16/16/44 54/54/66 76/76/71 46/46/45
f 46/46/45 76/76/71 56/56/72 14/14/51
f 76/76/71 37/37/28 24/24/30 56/56/72
f 54/54/66 22/22/24 37/37/28 76/76/71
f 9/9/43 50/50/54 77/77/73 47/47/41
f 47/47/41 77/77/73 55/55/67 13/13/42
f 77/77/73 39/39/74 23/23/70 55/55/67
f 50/50/54 18/18/56 39/39/74 77/77/73
f 14/14/51 56/56/72 78/78/75 48/48/49
f 48/48/49 78/78/75 51/51/58 10/10/50
f 78/78/75 40/40/34 19/19/16 51/51/58
f 56/56/72 24/24/30 40/40/34 78/78/75
f 23/23/70 39/39/74 79/79/76 38/38/77
f 38/38/77 79/79/76 61/61/32 28/28/31
f 79/79/76 57/57/78 25/25/11 61/61/32
f 39/39/74 18/18/56 57/57/78 79/79/76
f 21/21/64 36/36/69 80/80/79 35/35/80
f 35/35/80 80/80/79 62/62/26 27/27/25
f 80/80/79 38/38/77 28/28/31 62/62/26
f 36/36/69 23/23/70 38/38/77 80/80/79
f 17/17/57 33/33/63 81/81/81 32/32/82
f 32/32/82 81/81/81 63/63/20 26/26/19
f 81/81/81 35/35/80 27/27/25 63/63/20
f 33/33/63 21/21/64 35/35/80 81/81/81
f 18/18/56 29/29/55 82/82/83 57/57/78
f 57/57/78 82/82/83 64/64/12 25/25/11
f 82/82/83 32/32/82 26/26/19 64/64/12
f 29/29/55 17/17/57 32/32/82 82/82/83
