# Blender 3.4.1
# www.blender.org
mtllib kitchen012.mtl
o kitchen.011
v -0.530491 -0.304870 0.725915
v -0.530491 -0.073315 0.725915
v 1.171824 -0.073315 0.725915
v 1.171824 -0.304870 0.725915
v -0.530491 -0.304870 0.826270
v -0.530491 -0.073315 0.826270
v 1.171824 -0.073315 0.826270
v 1.171824 -0.304870 0.826270
v -0.642619 -0.304870 0.725915
v -0.642619 -0.073315 0.725915
v 1.283952 -0.073315 0.725915
v 1.283952 -0.304870 0.725915
v -0.642619 -0.304870 0.826270
v -0.642619 -0.073315 0.826270
v 1.283952 -0.073315 0.826270
v 1.283952 -0.304870 0.826270
v -0.530491 -0.304870 0.633515
v -0.530491 -0.073315 0.633515
v 1.171824 -0.073315 0.633515
v 1.171824 -0.304870 0.633515
v -0.642619 -0.304870 0.633515
v -0.642619 -0.073315 0.633515
v 1.283952 -0.073315 0.633515
v 1.283952 -0.304870 0.633515
v -2.243335 -4.814606 0.478638
v -2.243335 -0.823274 0.478638
v -2.243335 -4.814606 -2.992531
v -2.243335 -0.823274 -2.992531
v 1.473737 -4.814606 0.478638
v 1.473737 -0.823274 0.478638
v 1.473737 -4.814606 -2.992531
v 1.473737 -0.823274 -2.992531
v -2.243335 -0.456681 0.478638
v -2.243335 -0.456681 -2.992531
v 1.473737 -0.456681 -2.992531
v 1.473737 -0.456681 0.478638
v -2.243335 4.785948 0.478638
v -2.243335 4.785948 -2.992531
v 1.473737 4.785948 -2.992531
v 1.473737 4.785948 0.478638
v -2.177696 -4.744651 0.656390
v -2.177696 -0.893228 0.656390
v 1.408098 -0.893228 0.656390
v 1.408098 -4.744651 0.656390
v 1.408098 -0.373036 0.656390
v -2.177696 -0.373036 0.656390
v 1.408098 4.702303 0.656390
v -2.177696 4.702303 0.656390
v -0.530491 -1.213818 0.725915
v -0.530491 -0.982263 0.725915
v 1.171824 -0.982263 0.725915
v 1.171824 -1.213818 0.725915
v -0.530491 -1.213818 0.826270
v -0.530491 -0.982263 0.826270
v 1.171824 -0.982263 0.826270
v 1.171824 -1.213818 0.826270
v -0.642619 -1.213818 0.725915
v -0.642619 -0.982263 0.725915
v 1.283952 -0.982263 0.725915
v 1.283952 -1.213818 0.725915
v -0.642619 -1.213818 0.826270
v -0.642619 -0.982263 0.826270
v 1.283952 -0.982263 0.826270
v 1.283952 -1.213818 0.826270
v -0.530491 -1.213818 0.633515
v -0.530491 -0.982263 0.633515
v 1.171824 -0.982263 0.633515
v 1.171824 -1.213818 0.633515
v -0.642619 -1.213818 0.633515
v -0.642619 -0.982263 0.633515
v 1.283952 -0.982263 0.633515
v 1.283952 -1.213818 0.633515
v -2.243335 -5.150671 -2.992531
v -2.243335 -5.150671 0.478638
v 1.473737 -5.150671 -2.992531
v 1.473737 -5.150671 0.478638
v -2.243337 4.785949 0.478636
v -2.243337 4.785949 -2.992533
v 1.473736 4.785949 -2.992533
v 1.473736 4.785949 0.478636
v -2.243337 4.993114 0.478636
v -2.179123 5.057328 0.414422
v -2.179123 5.057328 -2.928319
v -2.243337 4.993114 -2.992533
v 1.409522 5.057328 -2.928319
v 1.473736 4.993114 -2.992533
v 1.409522 5.057328 0.414422
v 1.473736 4.993114 0.478636
vn -0.0000 -0.0000 -1.0000
vn -0.0000 -0.0000 1.0000
vn -0.0000 -1.0000 -0.0000
vn -0.0000 1.0000 -0.0000
vn -1.0000 -0.0000 -0.0000
vn 1.0000 -0.0000 -0.0000
vn -0.9952 -0.0000 0.0980
vn 0.9952 -0.0000 0.0980
vn -0.9381 -0.0000 0.3464
vn 0.9955 -0.0000 0.0943
vn -0.0000 0.9048 0.4258
vn -0.9955 -0.0000 0.0943
vn 0.9888 -0.0000 0.1491
vn -0.9888 -0.0000 0.1491
vn -0.0000 -0.9305 0.3662
vn -0.0000 -0.9048 0.4258
vn 0.9381 -0.0000 0.3464
vn -0.0000 0.9305 0.3662
vn -0.7071 0.7071 -0.0000
vn -0.0000 0.7071 -0.7071
vn 0.7071 0.7071 -0.0000
vn -0.0000 0.7071 0.7071
vt 0.757333 0.143455
vt 0.757333 0.143455
vt 0.757333 0.143455
vt 0.757333 0.143455
vt 0.757333 0.143455
vt 0.757333 0.143455
vt 0.757333 0.143455
vt 0.757333 0.143455
vt 0.757333 0.143455
vt 0.757333 0.143455
vt 0.757333 0.143455
vt 0.757333 0.143455
vt 0.757333 0.143455
vt 0.757333 0.143455
vt 0.757333 0.143455
vt 0.757333 0.143455
vt 0.757333 0.143455
vt 0.757333 0.143455
vt 0.757333 0.143455
vt 0.757333 0.143455
vt 0.757333 0.143455
vt 0.757333 0.143455
vt 0.757333 0.143455
vt 0.757333 0.143455
vt 0.757333 0.143455
vt 0.822441 0.100049
vt 0.757333 0.143455
vt 0.757333 0.143455
vt 0.757333 0.143455
vt 0.757333 0.143455
vt 0.822441 0.100049
vt 0.757333 0.143455
vt 0.757333 0.143455
vt 0.757333 0.143455
vt 0.757333 0.143455
vt 0.822441 0.100049
vt 0.589911 0.096949
vt 0.757333 0.143455
vt 0.589911 0.096949
vt 0.757333 0.143455
vt 0.589911 0.096949
vt 0.757333 0.143455
vt 0.822441 0.100049
vt 0.589911 0.096949
vt 0.589911 0.096949
vt 0.589911 0.096949
vt 0.589911 0.096949
vt 0.589911 0.096949
vt 0.757333 0.143455
vt 0.757333 0.143455
vt 0.757333 0.143455
vt 0.757333 0.143455
vt 0.589911 0.096949
vt 0.589911 0.096949
vt 0.589911 0.096949
vt 0.589911 0.096949
vt 0.757333 0.143455
vt 0.757333 0.143455
vt 0.757333 0.143455
vt 0.757333 0.143455
vt 0.757333 0.143455
vt 0.757333 0.143455
vt 0.757333 0.143455
vt 0.757333 0.143455
vt 0.757333 0.143455
vt 0.757333 0.143455
vt 0.757333 0.143455
vt 0.757333 0.143455
vt 0.757333 0.143455
vt 0.757333 0.143455
vt 0.757333 0.143455
vt 0.757333 0.143455
vt 0.757333 0.143455
vt 0.757333 0.143455
vt 0.757333 0.143455
vt 0.757333 0.143455
vt 0.757333 0.143455
vt 0.757333 0.143455
vt 0.757333 0.143455
vt 0.757333 0.143455
vt 0.757333 0.143455
vt 0.757333 0.143455
vt 0.757333 0.143455
vt 0.757333 0.143455
vt 0.465896 0.096949
vt 0.465896 0.096949
vt 0.465896 0.096949
vt 0.465896 0.096949
vt 0.465896 0.096949
vt 0.465896 0.096949
vt 0.465896 0.096949
vt 0.465896 0.096949
vt 0.465896 0.096949
vt 0.465896 0.096949
vt 0.465896 0.096949
vt 0.465896 0.096949
s 1
usemtl Material
f 4/4/1 1/1/1 2/2/1 3/3/1
f 8/8/2 7/7/2 6/6/2 5/5/2
f 1/1/3 4/4/3 8/8/3 5/5/3
f 3/3/4 7/7/4 15/15/4 11/11/4
f 3/3/4 2/2/4 6/6/4 7/7/4
f 5/5/2 6/6/2 14/14/2 13/13/2
f 10/10/5 9/9/5 13/13/5 14/14/5
f 12/12/6 11/11/6 15/15/6 16/16/6
f 11/11/6 12/12/6 24/24/6 23/23/6
f 1/1/3 5/5/3 13/13/3 9/9/3
f 7/7/2 8/8/2 16/16/2 15/15/2
f 1/1/3 9/9/3 21/21/3 17/17/3
f 6/6/4 2/2/4 10/10/4 14/14/4
f 8/8/3 4/4/3 12/12/3 16/16/3
f 18/18/1 17/17/1 21/21/1 22/22/1
f 20/20/1 19/19/1 23/23/1 24/24/1
f 2/2/6 1/1/6 17/17/6 18/18/6
f 12/12/3 4/4/3 20/20/3 24/24/3
f 10/10/4 2/2/4 18/18/4 22/22/4
f 3/3/4 11/11/4 23/23/4 19/19/4
f 4/4/5 3/3/5 19/19/5 20/20/5
f 9/9/5 10/10/5 22/22/5 21/21/5
f 25/25/7 26/27/7 28/29/5 27/28/5
f 27/28/1 28/29/1 32/34/1 31/33/1
f 31/33/6 32/34/6 30/32/8 29/30/8
f 26/27/7 25/25/7 41/49/9 42/50/9
f 31/33/6 29/30/8 76/84/6 75/83/6
f 30/32/8 32/34/6 35/40/6 36/42/10
f 40/48/11 37/45/11 48/56/11 47/55/11
f 28/29/5 26/27/7 33/35/12 34/38/5
f 26/26/2 30/31/2 36/43/2 33/36/2
f 32/34/1 28/29/1 34/38/1 35/40/1
f 35/41/1 34/39/1 38/46/1 39/47/1
f 36/44/10 35/41/6 39/47/6 40/48/13
f 34/39/5 33/37/12 37/45/14 38/46/5
f 44/52/2 43/51/2 42/50/2 41/49/2
f 46/54/2 45/53/2 47/55/2 48/56/2
f 25/25/15 29/30/15 44/52/15 41/49/15
f 33/37/16 36/44/16 45/53/16 46/54/16
f 36/44/10 40/48/13 47/55/17 45/53/17
f 30/32/18 26/27/18 42/50/18 43/51/18
f 29/30/8 30/32/8 43/51/17 44/52/17
f 37/45/14 33/37/12 46/54/9 48/56/9
f 52/60/1 49/57/1 50/58/1 51/59/1
f 56/64/2 55/63/2 54/62/2 53/61/2
f 49/57/3 52/60/3 56/64/3 53/61/3
f 51/59/4 55/63/4 63/71/4 59/67/4
f 51/59/4 50/58/4 54/62/4 55/63/4
f 53/61/2 54/62/2 62/70/2 61/69/2
f 58/66/5 57/65/5 61/69/5 62/70/5
f 60/68/6 59/67/6 63/71/6 64/72/6
f 59/67/6 60/68/6 72/80/6 71/79/6
f 49/57/3 53/61/3 61/69/3 57/65/3
f 55/63/2 56/64/2 64/72/2 63/71/2
f 49/57/3 57/65/3 69/77/3 65/73/3
f 54/62/4 50/58/4 58/66/4 62/70/4
f 56/64/3 52/60/3 60/68/3 64/72/3
f 66/74/1 65/73/1 69/77/1 70/78/1
f 68/76/1 67/75/1 71/79/1 72/80/1
f 50/58/6 49/57/6 65/73/6 66/74/6
f 60/68/3 52/60/3 68/76/3 72/80/3
f 58/66/4 50/58/4 66/74/4 70/78/4
f 51/59/4 59/67/4 71/79/4 67/75/4
f 52/60/5 51/59/5 67/75/5 68/76/5
f 57/65/5 58/66/5 70/78/5 69/77/5
f 73/81/3 75/83/3 76/84/3 74/82/3
f 29/30/2 25/25/2 74/82/2 76/84/2
f 27/28/1 31/33/1 75/83/1 73/81/1
f 25/25/7 27/28/5 73/81/5 74/82/5
f 79/87/3 80/88/3 77/85/3 78/86/3
f 77/85/2 80/88/2 88/96/2 81/89/2
f 85/93/4 83/91/4 82/90/4 87/95/4
f 79/87/1 78/86/1 84/92/1 86/94/1
f 80/88/6 79/87/6 86/94/6 88/96/6
f 82/90/19 83/91/19 84/92/19 81/89/19
f 83/91/20 85/93/20 86/94/20 84/92/20
f 85/93/21 87/95/21 88/96/21 86/94/21
f 87/95/22 82/90/22 81/89/22 88/96/22
f 78/86/5 77/85/5 81/89/5 84/92/5
