# Blender 3.4.1
# www.blender.org
mtllib mirror012.mtl
o mirror.011
v -0.450540 1.087538 0.001595
v -0.000067 1.177143 0.001595
v -0.832433 0.832366 0.001595
v -1.087605 0.450473 0.001595
v -1.177210 -0.000000 0.001595
v -1.087605 -0.450473 0.001595
v -0.832433 -0.832366 0.001595
v -0.450540 -1.087538 0.001595
v -0.000067 -1.177143 0.001595
v 0.450406 -1.087538 0.001595
v 0.832298 -0.832366 0.001595
v 1.087471 -0.450473 0.001595
v 1.177075 -0.000000 0.001595
v 1.087471 0.450473 0.001595
v 0.832298 0.832366 0.001595
v 0.450406 1.087538 0.001595
v 0.000017 1.177143 0.054064
v -0.450456 1.087538 0.054064
v -0.832349 0.832365 0.054064
v -1.087521 0.450473 0.054064
v -1.177126 -0.000000 0.054064
v -1.087521 -0.450473 0.054064
v -0.832349 -0.832365 0.054064
v -0.450456 -1.087538 0.054064
v 0.000017 -1.177143 0.054064
v 0.450490 -1.087538 0.054064
v 0.832382 -0.832366 0.054064
v 1.087555 -0.450473 0.054064
v 1.177159 0.000000 0.054064
v 1.087555 0.450473 0.054064
v 0.832382 0.832365 0.054064
v 0.450490 1.087538 0.054064
v 0.000017 1.376632 -0.111317
v -0.526798 1.271843 -0.111317
v -0.973409 0.973426 -0.111317
v -1.271826 0.526814 -0.111317
v -1.376616 -0.000000 -0.111317
v -1.271826 -0.526814 -0.111317
v -0.973409 -0.973426 -0.111317
v -0.526798 -1.271843 -0.111317
v 0.000017 -1.376632 -0.111317
v 0.526831 -1.271843 -0.111317
v 0.973443 -0.973426 -0.111317
v 1.271859 -0.526815 -0.111317
v 1.376649 0.000000 -0.111317
v 1.271859 0.526815 -0.111317
v 0.973443 0.973426 -0.111317
v 0.526831 1.271843 -0.111317
v -0.526798 1.271843 0.054064
v 0.000017 1.376632 0.054064
v -0.973409 0.973426 0.054064
v -1.271826 0.526814 0.054064
v -1.376616 -0.000000 0.054064
v -1.271826 -0.526814 0.054064
v -0.973409 -0.973426 0.054064
v -0.526798 -1.271843 0.054064
v 0.000017 -1.376632 0.054064
v 0.526831 -1.271843 0.054064
v 0.973443 -0.973426 0.054064
v 1.271859 -0.526815 0.054064
v 1.376649 0.000000 0.054064
v 1.271859 0.526815 0.054064
v 0.973443 0.973426 0.054064
v 0.526831 1.271843 0.054064
v -0.450456 1.087538 0.001595
v 0.000017 1.177143 0.001595
v -0.832349 0.832365 0.001595
v -1.087521 0.450473 0.001595
v -1.177126 -0.000000 0.001595
v -1.087521 -0.450473 0.001595
v -0.832349 -0.832365 0.001595
v -0.450456 -1.087538 0.001595
v 0.000017 -1.177143 0.001595
v 0.450490 -1.087538 0.001595
v 0.832382 -0.832366 0.001595
v 1.087555 -0.450473 0.001595
v 1.177159 0.000000 0.001595
v 1.087555 0.450473 0.001595
v 0.832382 0.832365 0.001595
v 0.450490 1.087538 0.001595
vn -0.0000 -0.0000 1.0000
vn 0.9808 0.1951 -0.0000
vn -0.8315 -0.5556 -0.0000
vn 0.8315 0.5556 -0.0000
vn -0.5556 -0.8315 -0.0000
vn 0.5556 0.8315 -0.0000
vn -0.1951 -0.9808 -0.0000
vn -0.1951 0.9808 -0.0000
vn 0.1951 0.9808 -0.0000
vn 0.1951 -0.9808 -0.0000
vn -0.5556 0.8315 -0.0000
vn 0.5556 -0.8315 -0.0000
vn -0.8315 0.5556 -0.0000
vn 0.8315 -0.5556 -0.0000
vn -0.9808 0.1951 -0.0000
vn 0.9808 -0.1951 -0.0000
vn -0.9808 -0.1951 -0.0000
vn -0.0000 -0.0000 -1.0000
vt 0.524845 0.515158
vt 0.524845 0.515158
vt 0.524845 0.515158
vt 0.524845 0.515158
vt 0.524845 0.515158
vt 0.524845 0.515158
vt 0.524845 0.515158
vt 0.524845 0.515158
vt 0.524845 0.515158
vt 0.524845 0.515158
vt 0.524845 0.515158
vt 0.524845 0.515158
vt 0.524845 0.515158
vt 0.524845 0.515158
vt 0.524845 0.515158
vt 0.524845 0.515158
vt 0.398819 0.101181
vt 0.398819 0.101181
vt 0.398819 0.101181
vt 0.398819 0.101181
vt 0.398819 0.101181
vt 0.398819 0.101181
vt 0.398819 0.101181
vt 0.398819 0.101181
vt 0.398819 0.101181
vt 0.398819 0.101181
vt 0.398819 0.101181
vt 0.398819 0.101181
vt 0.398819 0.101181
vt 0.398819 0.101181
vt 0.398819 0.101181
vt 0.398819 0.101181
vt 0.398819 0.101181
vt 0.398819 0.101181
vt 0.398819 0.101181
vt 0.398819 0.101181
vt 0.398819 0.101181
vt 0.398819 0.101181
vt 0.398819 0.101181
vt 0.398819 0.101181
vt 0.398819 0.101181
vt 0.398819 0.101181
vt 0.398819 0.101181
vt 0.398819 0.101181
vt 0.398819 0.101181
vt 0.398819 0.101181
vt 0.398819 0.101181
vt 0.398819 0.101181
vt 0.398819 0.101181
vt 0.398819 0.101181
vt 0.398819 0.101181
vt 0.398819 0.101181
vt 0.398819 0.101181
vt 0.398819 0.101181
vt 0.398819 0.101181
vt 0.398819 0.101181
vt 0.398819 0.101181
vt 0.398819 0.101181
vt 0.398819 0.101181
vt 0.398819 0.101181
vt 0.398819 0.101181
vt 0.398819 0.101181
vt 0.398819 0.101181
vt 0.398819 0.101181
vt 0.398819 0.101181
vt 0.398819 0.101181
vt 0.398819 0.101181
vt 0.398819 0.101181
vt 0.398819 0.101181
vt 0.398819 0.101181
vt 0.398819 0.101181
vt 0.398819 0.101181
vt 0.398819 0.101181
vt 0.398819 0.101181
vt 0.398819 0.101181
vt 0.398819 0.101181
vt 0.398819 0.101181
vt 0.398819 0.101181
vt 0.398819 0.101181
vt 0.398819 0.101181
s 1
usemtl Material
f 1/1/1 3/3/1 4/4/1 5/5/1 6/6/1 7/7/1 8/8/1 9/9/1 10/10/1 11/11/1 12/12/1 13/13/1 14/14/1 15/15/1 16/16/1 2/2/1
f 62/62/2 61/61/2 45/45/2 46/46/2
f 55/55/3 54/54/3 38/38/3 39/39/3
f 63/63/4 62/62/4 46/46/4 47/47/4
f 56/56/5 55/55/5 39/39/5 40/40/5
f 64/64/6 63/63/6 47/47/6 48/48/6
f 57/57/7 56/56/7 40/40/7 41/41/7
f 49/49/8 50/50/8 33/33/8 34/34/8
f 50/50/9 64/64/9 48/48/9 33/33/9
f 58/58/10 57/57/10 41/41/10 42/42/10
f 51/51/11 49/49/11 34/34/11 35/35/11
f 59/59/12 58/58/12 42/42/12 43/43/12
f 52/52/13 51/51/13 35/35/13 36/36/13
f 60/60/14 59/59/14 43/43/14 44/44/14
f 53/53/15 52/52/15 36/36/15 37/37/15
f 61/61/16 60/60/16 44/44/16 45/45/16
f 54/54/17 53/53/17 37/37/17 38/38/17
f 34/34/18 33/33/18 48/48/18 47/47/18 46/46/18 45/45/18 44/44/18 43/43/18 42/42/18 41/41/18 40/40/18 39/39/18 38/38/18 37/37/18 36/36/18 35/35/18
f 28/28/15 29/29/15 77/77/15 76/76/15
f 18/18/1 17/17/1 50/50/1 49/49/1
f 19/19/1 18/18/1 49/49/1 51/51/1
f 20/20/1 19/19/1 51/51/1 52/52/1
f 21/21/1 20/20/1 52/52/1 53/53/1
f 22/22/1 21/21/1 53/53/1 54/54/1
f 23/23/1 22/22/1 54/54/1 55/55/1
f 24/24/1 23/23/1 55/55/1 56/56/1
f 25/25/1 24/24/1 56/56/1 57/57/1
f 26/26/1 25/25/1 57/57/1 58/58/1
f 27/27/1 26/26/1 58/58/1 59/59/1
f 28/28/1 27/27/1 59/59/1 60/60/1
f 29/29/1 28/28/1 60/60/1 61/61/1
f 30/30/1 29/29/1 61/61/1 62/62/1
f 31/31/1 30/30/1 62/62/1 63/63/1
f 32/32/1 31/31/1 63/63/1 64/64/1
f 17/17/1 32/32/1 64/64/1 50/50/1
f 21/21/2 22/22/2 70/70/2 69/69/2
f 29/29/17 30/30/17 78/78/17 77/77/17
f 22/22/4 23/23/4 71/71/4 70/70/4
f 30/30/3 31/31/3 79/79/3 78/78/3
f 23/23/6 24/24/6 72/72/6 71/71/6
f 31/31/5 32/32/5 80/80/5 79/79/5
f 24/24/9 25/25/9 73/73/9 72/72/9
f 17/17/10 18/18/10 65/65/10 66/66/10
f 32/32/7 17/17/7 66/66/7 80/80/7
f 25/25/8 26/26/8 74/74/8 73/73/8
f 18/18/12 19/19/12 67/67/12 65/65/12
f 26/26/11 27/27/11 75/75/11 74/74/11
f 19/19/14 20/20/14 68/68/14 67/67/14
f 27/27/13 28/28/13 76/76/13 75/75/13
f 20/20/16 21/21/16 69/69/16 68/68/16
