# Blender 3.4.1
# www.blender.org
mtllib pouffe008.mtl
o pouffes.008
v -0.000004 1.009585 -1.544865
v 0.591192 1.009585 -1.427267
v 1.092382 1.009585 -1.092383
v 1.427268 1.009585 -0.591193
v 1.544860 1.009585 0.000000
v 1.427268 1.009585 0.591194
v 1.092381 1.009585 1.092383
v 0.591192 1.009585 1.427267
v -0.000004 1.009585 1.544863
v -0.591200 1.009585 1.427267
v -1.092384 1.009585 1.092383
v -1.427271 1.009585 0.591193
v -1.544863 1.009585 -0.000000
v -1.427271 1.009585 -0.591194
v -1.092384 1.009585 -1.092383
v -0.591200 1.009585 -1.427267
v 0.660129 0.838503 -1.593697
v -0.000004 0.838503 -1.725005
v 1.219765 0.838503 -1.219762
v 1.593695 0.838503 -0.660131
v 1.725002 0.838503 0.000000
v 1.593695 0.838503 0.660131
v 1.219764 0.838503 1.219763
v 0.660129 0.838503 1.593697
v -0.000004 0.838503 1.725005
v -0.660128 0.838503 1.593697
v -1.219763 0.838503 1.219762
v -1.593699 0.838503 0.660131
v -1.725001 0.838503 -0.000000
v -1.593699 0.838503 -0.660131
v -1.219763 0.838503 -1.219763
v -0.660128 0.838503 -1.593697
v -0.000004 0.021136 -1.725005
v 0.660129 0.021136 -1.593697
v 1.219765 0.021136 -1.219762
v 1.593695 0.021136 -0.660131
v 1.725002 0.021136 0.000000
v 1.593695 0.021136 0.660131
v 1.219764 0.021136 1.219763
v 0.660129 0.021136 1.593697
v -0.000004 0.021136 1.725005
v -0.660128 0.021136 1.593697
v -1.219763 0.021136 1.219762
v -1.593699 0.021136 0.660131
v -1.725001 0.021136 -0.000000
v -1.593699 0.021136 -0.660131
v -1.219763 0.021136 -1.219763
v -0.660128 0.021136 -1.593697
v -0.000004 -0.100437 -1.479745
v 0.566269 -0.100437 -1.367106
v 1.046339 -0.100437 -1.046338
v 1.367107 -0.100437 -0.566274
v 1.479741 -0.100437 0.000000
v 1.367107 -0.100437 0.566274
v 1.046339 -0.100437 1.046338
v 0.566269 -0.100437 1.367106
v -0.000004 -0.100437 1.479745
v -0.566277 -0.100437 1.367106
v -1.046337 -0.100437 1.046338
v -1.367106 -0.100437 0.566274
v -1.479744 -0.100437 -0.000000
v -1.367106 -0.100437 -0.566274
v -1.046337 -0.100437 -1.046338
v -0.566277 -0.100437 -1.367106
v 0.000006 -0.121248 -0.772671
v 0.295692 -0.121248 -0.713855
v 0.546366 -0.121248 -0.546361
v 0.713859 -0.121248 -0.295689
v 0.772673 -0.121248 0.000000
v 0.713859 -0.121248 0.295688
v 0.546365 -0.121248 0.546360
v 0.295692 -0.121248 0.713855
v 0.000006 -0.121248 0.772671
v -0.295681 -0.121248 0.713855
v -0.546355 -0.121248 0.546360
v -0.713848 -0.121248 0.295689
v -0.772661 -0.121248 0.000000
v -0.713848 -0.121248 -0.295689
v -0.546354 -0.121248 -0.546361
v -0.295681 -0.121248 -0.713855
v 0.000006 -0.186886 -0.772671
v 0.295692 -0.186886 -0.713855
v 0.546366 -0.186886 -0.546361
v 0.713859 -0.186886 -0.295689
v 0.772673 -0.186886 0.000000
v 0.713859 -0.186886 0.295688
v 0.546365 -0.186886 0.546360
v 0.295692 -0.186886 0.713855
v 0.000006 -0.186886 0.772671
v -0.295681 -0.186886 0.713855
v -0.546355 -0.186886 0.546360
v -0.713848 -0.186886 0.295689
v -0.772661 -0.186886 0.000000
v -0.713848 -0.186886 -0.295689
v -0.546354 -0.186886 -0.546361
v -0.295681 -0.186886 -0.713855
v 0.639006 0.028043 -1.542706
v -0.000004 0.028043 -1.669815
v 1.180740 0.028043 -1.180737
v 1.542707 0.028043 -0.639009
v 1.669813 0.028043 0.000000
v 1.542707 0.028043 0.639010
v 1.180740 0.028043 1.180737
v 0.639005 0.028043 1.542706
v -0.000004 0.028043 1.669815
v -0.639014 0.028043 1.542706
v -1.180739 0.028043 1.180737
v -1.542706 0.028043 0.639011
v -1.669811 0.028043 -0.000000
v -1.542706 0.028043 -0.639011
v -1.180738 0.028043 -1.180737
v -0.639013 0.028043 -1.542706
v -0.000004 -0.162659 -1.669815
v 0.639006 -0.162659 -1.542706
v 1.180740 -0.162659 -1.180737
v 1.542707 -0.162659 -0.639009
v 1.669813 -0.162659 0.000000
v 1.542707 -0.162659 0.639010
v 1.180740 -0.162659 1.180737
v 0.639005 -0.162659 1.542706
v -0.000004 -0.162659 1.669815
v -0.639014 -0.162659 1.542706
v -1.180739 -0.162659 1.180737
v -1.542706 -0.162659 0.639011
v -1.669811 -0.162659 -0.000000
v -1.542706 -0.162659 -0.639011
v -1.180738 -0.162659 -1.180737
v -0.639013 -0.162659 -1.542706
v 0.616098 0.028043 -1.487396
v -0.000004 0.028043 -1.609946
v 1.138407 0.028043 -1.138403
v 1.487394 0.028043 -0.616100
v 1.609941 0.028043 0.000000
v 1.487394 0.028043 0.616100
v 1.138407 0.028043 1.138404
v 0.616098 0.028043 1.487397
v -0.000004 0.028043 1.609946
v -0.616097 0.028043 1.487397
v -1.138405 0.028043 1.138403
v -1.487397 0.028043 0.616100
v -1.609945 0.028043 -0.000000
v -1.487397 0.028043 -0.616101
v -1.138405 0.028043 -1.138404
v -0.616097 0.028043 -1.487396
v -0.000004 -0.162659 -1.609946
v 0.616098 -0.162659 -1.487396
v 1.138407 -0.162659 -1.138403
v 1.487394 -0.162659 -0.616100
v 1.609941 -0.162659 0.000000
v 1.487394 -0.162659 0.616100
v 1.138407 -0.162659 1.138404
v 0.616098 -0.162659 1.487397
v -0.000004 -0.162659 1.609946
v -0.616097 -0.162659 1.487397
v -1.138405 -0.162659 1.138403
v -1.487397 -0.162659 0.616100
v -1.609945 -0.162659 -0.000000
v -1.487397 -0.162659 -0.616101
v -1.138405 -0.162659 -1.138404
v -0.616097 -0.162659 -1.487396
v 0.651737 -0.161577 -1.573435
v -0.000004 -0.161577 -1.703074
v 1.204258 -0.161577 -1.204255
v 1.573435 -0.161577 -0.651739
v 1.703068 -0.161577 0.000000
v 1.573435 -0.161577 0.651739
v 1.204258 -0.161577 1.204255
v 0.651737 -0.161577 1.573435
v -0.000004 -0.161577 1.703074
v -0.651736 -0.161577 1.573435
v -1.204256 -0.161577 1.204255
v -1.573433 -0.161577 0.651739
v -1.703076 -0.161577 -0.000000
v -1.573433 -0.161577 -0.651739
v -1.204256 -0.161577 -1.204255
v -0.651735 -0.161577 -1.573435
v -0.000004 -0.434135 -1.703074
v 0.651737 -0.434135 -1.573435
v 1.204258 -0.434135 -1.204255
v 1.573435 -0.434135 -0.651739
v 1.703068 -0.434135 0.000000
v 1.573435 -0.434135 0.651739
v 1.204258 -0.434135 1.204255
v 0.651737 -0.434135 1.573435
v -0.000004 -0.434135 1.703074
v -0.651736 -0.434135 1.573435
v -1.204256 -0.434135 1.204255
v -1.573433 -0.434135 0.651739
v -1.703076 -0.434135 -0.000000
v -1.573433 -0.434135 -0.651739
v -1.204256 -0.434135 -1.204255
v -0.651735 -0.434135 -1.573435
v 0.616098 -0.161577 -1.487396
v -0.000004 -0.161577 -1.609946
v 1.138407 -0.161577 -1.138403
v 1.487394 -0.161577 -0.616100
v 1.609941 -0.161577 0.000000
v 1.487394 -0.161577 0.616100
v 1.138407 -0.161577 1.138404
v 0.616098 -0.161577 1.487397
v -0.000004 -0.161577 1.609946
v -0.616097 -0.161577 1.487397
v -1.138405 -0.161577 1.138403
v -1.487397 -0.161577 0.616100
v -1.609945 -0.161577 -0.000000
v -1.487397 -0.161577 -0.616101
v -1.138405 -0.161577 -1.138404
v -0.616097 -0.161577 -1.487396
v -0.000004 -0.434135 -1.609946
v 0.616098 -0.434135 -1.487396
v 1.138407 -0.434135 -1.138403
v 1.487394 -0.434135 -0.616100
v 1.609941 -0.434135 0.000000
v 1.487394 -0.434135 0.616100
v 1.138407 -0.434135 1.138404
v 0.616098 -0.434135 1.487397
v -0.000004 -0.434135 1.609946
v -0.616097 -0.434135 1.487397
v -1.138405 -0.434135 1.138403
v -1.487397 -0.434135 0.616100
v -1.609945 -0.434135 -0.000000
v -1.487397 -0.434135 -0.616101
v -1.138405 -0.434135 -1.138404
v -0.616097 -0.434135 -1.487396
vn -0.0000 -0.0000 -1.0000
vn -0.0000 0.3778 -0.9259
vn 0.3543 0.3778 -0.8554
vn 0.3827 -0.0000 -0.9239
vn 0.6547 0.3778 -0.6547
vn 0.7071 -0.0000 -0.7071
vn 0.8554 0.3778 -0.3543
vn 0.9239 -0.0000 -0.3827
vn 0.9259 0.3778 -0.0000
vn 1.0000 -0.0000 -0.0000
vn 0.8554 0.3778 0.3543
vn 0.9239 -0.0000 0.3827
vn 0.6547 0.3778 0.6547
vn 0.7071 -0.0000 0.7071
vn 0.3543 0.3778 0.8554
vn 0.3827 -0.0000 0.9239
vn -0.0000 0.3778 0.9259
vn -0.0000 -0.0000 1.0000
vn -0.3543 0.3778 0.8554
vn -0.3827 -0.0000 0.9239
vn -0.6547 0.3778 0.6547
vn -0.7071 -0.0000 0.7071
vn -0.8554 0.3778 0.3543
vn -0.9239 -0.0000 0.3827
vn -0.9259 0.3778 -0.0000
vn -1.0000 -0.0000 -0.0000
vn -0.8554 0.3778 -0.3543
vn -0.9239 -0.0000 -0.3827
vn -0.6547 0.3778 -0.6547
vn -0.7071 -0.0000 -0.7071
vn 0.1566 0.9124 -0.3781
vn -0.0000 0.9124 -0.4093
vn -0.1566 0.9124 -0.3781
vn -0.2894 0.9124 -0.2894
vn -0.3781 0.9124 -0.1566
vn -0.4093 0.9124 -0.0000
vn -0.3781 0.9124 0.1566
vn -0.2894 0.9124 0.2894
vn -0.1566 0.9124 0.3781
vn -0.0000 0.9124 0.4093
vn 0.1566 0.9124 0.3781
vn 0.2894 0.9124 0.2894
vn 0.3781 0.9124 0.1566
vn 0.4093 0.9124 -0.0000
vn 0.3781 0.9124 -0.1566
vn 0.2894 0.9124 -0.2894
vn -0.3543 0.3778 -0.8554
vn -0.3827 -0.0000 -0.9239
vn 0.1700 -0.8960 -0.4103
vn 0.3140 -0.8960 -0.3140
vn 0.1801 -0.9670 -0.1801
vn 0.0975 -0.9670 -0.2353
vn -0.0000 -0.9670 -0.2547
vn 0.2353 -0.9670 -0.0975
vn 0.2547 -0.9670 -0.0000
vn 0.2353 -0.9670 0.0975
vn 0.1801 -0.9670 0.1801
vn 0.0975 -0.9670 0.2353
vn -0.0000 -0.9670 0.2547
vn -0.0975 -0.9670 0.2353
vn -0.1801 -0.9670 0.1801
vn -0.2353 -0.9670 0.0975
vn -0.2547 -0.9670 -0.0000
vn -0.2353 -0.9670 -0.0975
vn -0.1801 -0.9670 -0.1801
vn -0.0975 -0.9670 -0.2353
vn 0.3140 -0.8960 0.3140
vn 0.1700 -0.8960 0.4103
vn -0.4103 -0.8960 0.1700
vn -0.4441 -0.8960 -0.0000
vn 0.4441 -0.8960 -0.0000
vn 0.4103 -0.8960 0.1700
vn -0.1700 -0.8960 0.4103
vn -0.3140 -0.8960 0.3140
vn -0.3140 -0.8960 -0.3140
vn -0.1700 -0.8960 -0.4103
vn 0.4103 -0.8960 -0.1700
vn -0.0000 -0.8960 0.4441
vn -0.0000 -0.8960 -0.4441
vn -0.4103 -0.8960 -0.1700
vn -0.0000 1.0000 -0.0000
vn -0.0000 -1.0000 -0.0000
vt 0.664872 0.290722
vt 0.664872 0.290722
vt 0.664872 0.290722
vt 0.664872 0.290722
vt 0.664872 0.290722
vt 0.664872 0.290722
vt 0.664872 0.290722
vt 0.664872 0.290722
vt 0.664872 0.290722
vt 0.664872 0.290722
vt 0.664872 0.290722
vt 0.664872 0.290722
vt 0.664872 0.290722
vt 0.664872 0.290722
vt 0.664872 0.290722
vt 0.664872 0.290722
vt 0.664872 0.290722
vt 0.664872 0.290722
vt 0.664872 0.290722
vt 0.664872 0.290722
vt 0.664872 0.290722
vt 0.664872 0.290722
vt 0.664872 0.290722
vt 0.664872 0.290722
vt 0.664872 0.290722
vt 0.664872 0.290722
vt 0.664872 0.290722
vt 0.664872 0.290722
vt 0.664872 0.290722
vt 0.664872 0.290722
vt 0.664872 0.290722
vt 0.664872 0.290722
vt 0.664872 0.290722
vt 0.664872 0.290722
vt 0.664872 0.290722
vt 0.664872 0.290722
vt 0.664872 0.290722
vt 0.664872 0.290722
vt 0.664872 0.290722
vt 0.664872 0.290722
vt 0.664872 0.290722
vt 0.664872 0.290722
vt 0.664872 0.290722
vt 0.664872 0.290722
vt 0.664872 0.290722
vt 0.664872 0.290722
vt 0.664872 0.290722
vt 0.664872 0.290722
vt 0.664872 0.290722
vt 0.664872 0.290722
vt 0.664872 0.290722
vt 0.664872 0.290722
vt 0.664872 0.290722
vt 0.664872 0.290722
vt 0.664872 0.290722
vt 0.664872 0.290722
vt 0.664872 0.290722
vt 0.664872 0.290722
vt 0.664872 0.290722
vt 0.664872 0.290722
vt 0.664872 0.290722
vt 0.664872 0.290722
vt 0.664872 0.290722
vt 0.664872 0.290722
vt 0.751000 0.942829
vt 0.751000 0.942829
vt 0.751000 0.942829
vt 0.751000 0.942829
vt 0.751000 0.942829
vt 0.751000 0.942829
vt 0.751000 0.942829
vt 0.751000 0.942829
vt 0.751000 0.942829
vt 0.751000 0.942829
vt 0.751000 0.942829
vt 0.751000 0.942829
vt 0.751000 0.942829
vt 0.751000 0.942829
vt 0.751000 0.942829
vt 0.751000 0.942829
vt 0.751000 0.942829
vt 0.751000 0.942829
vt 0.751000 0.942829
vt 0.751000 0.942829
vt 0.751000 0.942829
vt 0.751000 0.942829
vt 0.751000 0.942829
vt 0.751000 0.942829
vt 0.751000 0.942829
vt 0.751000 0.942829
vt 0.751000 0.942829
vt 0.751000 0.942829
vt 0.751000 0.942829
vt 0.751000 0.942829
vt 0.751000 0.942829
vt 0.751000 0.942829
vt 0.751000 0.942829
vt 0.751000 0.942829
vt 0.751000 0.942829
vt 0.751000 0.942829
vt 0.751000 0.942829
vt 0.751000 0.942829
vt 0.751000 0.942829
vt 0.751000 0.942829
vt 0.751000 0.942829
vt 0.751000 0.942829
vt 0.751000 0.942829
vt 0.751000 0.942829
vt 0.751000 0.942829
vt 0.751000 0.942829
vt 0.751000 0.942829
vt 0.751000 0.942829
vt 0.751000 0.942829
vt 0.751000 0.942829
vt 0.751000 0.942829
vt 0.751000 0.942829
vt 0.751000 0.942829
vt 0.751000 0.942829
vt 0.751000 0.942829
vt 0.751000 0.942829
vt 0.751000 0.942829
vt 0.751000 0.942829
vt 0.751000 0.942829
vt 0.751000 0.942829
vt 0.751000 0.942829
vt 0.751000 0.942829
vt 0.751000 0.942829
vt 0.751000 0.942829
vt 0.751000 0.942829
vt 0.751000 0.942829
vt 0.751000 0.942829
vt 0.751000 0.942829
vt 0.751000 0.942829
vt 0.751000 0.942829
vt 0.751000 0.942829
vt 0.751000 0.942829
vt 0.751000 0.942829
vt 0.751000 0.942829
vt 0.751000 0.942829
vt 0.751000 0.942829
vt 0.751000 0.942829
vt 0.751000 0.942829
vt 0.751000 0.942829
vt 0.751000 0.942829
vt 0.751000 0.942829
vt 0.751000 0.942829
vt 0.751000 0.942829
vt 0.751000 0.942829
vt 0.751000 0.942829
vt 0.751000 0.942829
vt 0.751000 0.942829
vt 0.751000 0.942829
vt 0.751000 0.942829
vt 0.751000 0.942829
vt 0.751000 0.942829
vt 0.751000 0.942829
vt 0.751000 0.942829
vt 0.751000 0.942829
vt 0.751000 0.942829
vt 0.751000 0.942829
vt 0.664872 0.290722
vt 0.664872 0.290722
vt 0.664872 0.290722
vt 0.664872 0.290722
vt 0.664872 0.290722
vt 0.664872 0.290722
vt 0.664872 0.290722
vt 0.664872 0.290722
vt 0.664872 0.290722
vt 0.664872 0.290722
vt 0.664872 0.290722
vt 0.664872 0.290722
vt 0.664872 0.290722
vt 0.664872 0.290722
vt 0.664872 0.290722
vt 0.664872 0.290722
vt 0.664872 0.290722
vt 0.664872 0.290722
vt 0.664872 0.290722
vt 0.664872 0.290722
vt 0.664872 0.290722
vt 0.664872 0.290722
vt 0.664872 0.290722
vt 0.664872 0.290722
vt 0.664872 0.290722
vt 0.664872 0.290722
vt 0.664872 0.290722
vt 0.664872 0.290722
vt 0.664872 0.290722
vt 0.664872 0.290722
vt 0.664872 0.290722
vt 0.664872 0.290722
vt 0.664872 0.290722
vt 0.664872 0.290722
vt 0.664872 0.290722
vt 0.664872 0.290722
vt 0.664872 0.290722
vt 0.664872 0.290722
vt 0.664872 0.290722
vt 0.664872 0.290722
vt 0.664872 0.290722
vt 0.664872 0.290722
vt 0.664872 0.290722
vt 0.664872 0.290722
vt 0.664872 0.290722
vt 0.664872 0.290722
vt 0.664872 0.290722
vt 0.664872 0.290722
vt 0.664872 0.290722
vt 0.664872 0.290722
vt 0.664872 0.290722
vt 0.664872 0.290722
vt 0.664872 0.290722
vt 0.664872 0.290722
vt 0.664872 0.290722
vt 0.664872 0.290722
vt 0.664872 0.290722
vt 0.664872 0.290722
vt 0.664872 0.290722
vt 0.664872 0.290722
vt 0.664872 0.290722
vt 0.664872 0.290722
vt 0.664872 0.290722
vt 0.664872 0.290722
s 1
usemtl Material
f 33/33/1 18/18/2 17/17/3 34/34/4
f 34/34/4 17/17/3 19/19/5 35/35/6
f 35/35/6 19/19/5 20/20/7 36/36/8
f 36/36/8 20/20/7 21/21/9 37/37/10
f 37/37/10 21/21/9 22/22/11 38/38/12
f 38/38/12 22/22/11 23/23/13 39/39/14
f 39/39/14 23/23/13 24/24/15 40/40/16
f 40/40/16 24/24/15 25/25/17 41/41/18
f 41/41/18 25/25/17 26/26/19 42/42/20
f 42/42/20 26/26/19 27/27/21 43/43/22
f 43/43/22 27/27/21 28/28/23 44/44/24
f 44/44/24 28/28/23 29/29/25 45/45/26
f 45/45/26 29/29/25 30/30/27 46/46/28
f 46/46/28 30/30/27 31/31/29 47/47/30
f 2/2/31 1/1/32 16/16/33 15/15/34 14/14/35 13/13/36 12/12/37 11/11/38 10/10/39 9/9/40 8/8/41 7/7/42 6/6/43 5/5/44 4/4/45 3/3/46
f 47/47/30 31/31/29 32/32/47 48/48/48
f 48/48/48 32/32/47 18/18/2 33/33/1
f 1/1/32 2/2/31 17/17/3 18/18/2
f 2/2/31 3/3/46 19/19/5 17/17/3
f 3/3/46 4/4/45 20/20/7 19/19/5
f 4/4/45 5/5/44 21/21/9 20/20/7
f 5/5/44 6/6/43 22/22/11 21/21/9
f 6/6/43 7/7/42 23/23/13 22/22/11
f 7/7/42 8/8/41 24/24/15 23/23/13
f 8/8/41 9/9/40 25/25/17 24/24/15
f 9/9/40 10/10/39 26/26/19 25/25/17
f 10/10/39 11/11/38 27/27/21 26/26/19
f 11/11/38 12/12/37 28/28/23 27/27/21
f 12/12/37 13/13/36 29/29/25 28/28/23
f 13/13/36 14/14/35 30/30/27 29/29/25
f 14/14/35 15/15/34 31/31/29 30/30/27
f 15/15/34 16/16/33 32/32/47 31/31/29
f 16/16/33 1/1/32 18/18/2 32/32/47
f 34/34/49 35/35/50 51/51/51 50/50/52
f 49/49/53 50/50/52 51/51/51 52/52/54 53/53/55 54/54/56 55/55/57 56/56/58 57/57/59 58/58/60 59/59/61 60/60/62 61/61/63 62/62/64 63/63/65 64/64/66
f 39/39/67 40/40/68 56/56/58 55/55/57
f 44/44/69 45/45/70 61/61/63 60/60/62
f 37/37/71 38/38/72 54/54/56 53/53/55
f 42/42/73 43/43/74 59/59/61 58/58/60
f 47/47/75 48/48/76 64/64/66 63/63/65
f 35/35/50 36/36/77 52/52/54 51/51/51
f 40/40/68 41/41/78 57/57/59 56/56/58
f 33/33/79 34/34/49 50/50/52 49/49/53
f 45/45/70 46/46/80 62/62/64 61/61/63
f 38/38/72 39/39/67 55/55/57 54/54/56
f 43/43/74 44/44/69 60/60/62 59/59/61
f 48/48/76 33/33/79 49/49/53 64/64/66
f 36/36/77 37/37/71 53/53/55 52/52/54
f 41/41/78 42/42/73 58/58/60 57/57/59
f 46/46/80 47/47/75 63/63/65 62/62/64
f 65/65/81 80/80/81 79/79/81 78/78/81 77/77/81 76/76/81 75/75/81 74/74/81 73/73/81 72/72/81 71/71/81 70/70/81 69/69/81 68/68/81 67/67/81 66/66/81
f 81/81/82 82/82/82 83/83/82 84/84/82 85/85/82 86/86/82 87/87/82 88/88/82 89/89/82 90/90/82 91/91/82 92/92/82 93/93/82 94/94/82 95/95/82 96/96/82
f 76/76/24 77/77/26 93/93/26 92/92/24
f 69/69/10 70/70/12 86/86/12 85/85/10
f 77/77/26 78/78/28 94/94/28 93/93/26
f 70/70/12 71/71/14 87/87/14 86/86/12
f 78/78/28 79/79/30 95/95/30 94/94/28
f 71/71/14 72/72/16 88/88/16 87/87/14
f 79/79/30 80/80/48 96/96/48 95/95/30
f 72/72/16 73/73/18 89/89/18 88/88/16
f 65/65/1 66/66/4 82/82/4 81/81/1
f 80/80/48 65/65/1 81/81/1 96/96/48
f 73/73/18 74/74/20 90/90/20 89/89/18
f 66/66/4 67/67/6 83/83/6 82/82/4
f 74/74/20 75/75/22 91/91/22 90/90/20
f 67/67/6 68/68/8 84/84/8 83/83/6
f 75/75/22 76/76/24 92/92/24 91/91/22
f 68/68/8 69/69/10 85/85/10 84/84/8
f 113/113/1 98/98/1 97/97/4 114/114/4
f 114/114/4 97/97/4 99/99/6 115/115/6
f 115/115/6 99/99/6 100/100/8 116/116/8
f 116/116/8 100/100/8 101/101/10 117/117/10
f 117/117/10 101/101/10 102/102/12 118/118/12
f 118/118/12 102/102/12 103/103/14 119/119/14
f 119/119/14 103/103/14 104/104/16 120/120/16
f 120/120/16 104/104/16 105/105/18 121/121/18
f 121/121/18 105/105/18 106/106/20 122/122/20
f 122/122/20 106/106/20 107/107/22 123/123/22
f 123/123/22 107/107/22 108/108/24 124/124/24
f 124/124/24 108/108/24 109/109/26 125/125/26
f 125/125/26 109/109/26 110/110/28 126/126/28
f 126/126/28 110/110/28 111/111/30 127/127/30
f 127/127/30 111/111/30 112/112/48 128/128/48
f 128/128/48 112/112/48 98/98/1 113/113/1
f 145/145/18 146/146/20 129/129/20 130/130/18
f 146/146/20 147/147/22 131/131/22 129/129/20
f 147/147/22 148/148/24 132/132/24 131/131/22
f 148/148/24 149/149/26 133/133/26 132/132/24
f 149/149/26 150/150/28 134/134/28 133/133/26
f 150/150/28 151/151/30 135/135/30 134/134/28
f 151/151/30 152/152/48 136/136/48 135/135/30
f 152/152/48 153/153/1 137/137/1 136/136/48
f 153/153/1 154/154/4 138/138/4 137/137/1
f 154/154/4 155/155/6 139/139/6 138/138/4
f 155/155/6 156/156/8 140/140/8 139/139/6
f 156/156/8 157/157/10 141/141/10 140/140/8
f 157/157/10 158/158/12 142/142/12 141/141/10
f 158/158/12 159/159/14 143/143/14 142/142/12
f 159/159/14 160/160/16 144/144/16 143/143/14
f 160/160/16 145/145/18 130/130/18 144/144/16
f 107/107/81 139/139/81 140/140/81 108/108/81
f 120/120/82 152/152/82 151/151/82 119/119/82
f 113/113/82 145/145/82 160/160/82 128/128/82
f 103/103/81 135/135/81 136/136/81 104/104/81
f 112/112/81 144/144/81 130/130/81 98/98/81
f 116/116/82 148/148/82 147/147/82 115/115/82
f 125/125/82 157/157/82 156/156/82 124/124/82
f 99/99/81 131/131/81 132/132/81 100/100/81
f 108/108/81 140/140/81 141/141/81 109/109/81
f 121/121/82 153/153/82 152/152/82 120/120/82
f 104/104/81 136/136/81 137/137/81 105/105/81
f 117/117/82 149/149/82 148/148/82 116/116/82
f 126/126/82 158/158/82 157/157/82 125/125/82
f 100/100/81 132/132/81 133/133/81 101/101/81
f 109/109/81 141/141/81 142/142/81 110/110/81
f 122/122/82 154/154/82 153/153/82 121/121/82
f 105/105/81 137/137/81 138/138/81 106/106/81
f 118/118/82 150/150/82 149/149/82 117/117/82
f 127/127/82 159/159/82 158/158/82 126/126/82
f 114/114/82 146/146/82 145/145/82 113/113/82
f 101/101/81 133/133/81 134/134/81 102/102/81
f 110/110/81 142/142/81 143/143/81 111/111/81
f 98/98/81 130/130/81 129/129/81 97/97/81
f 123/123/82 155/155/82 154/154/82 122/122/82
f 106/106/81 138/138/81 139/139/81 107/107/81
f 119/119/82 151/151/82 150/150/82 118/118/82
f 128/128/82 160/160/82 159/159/82 127/127/82
f 102/102/81 134/134/81 135/135/81 103/103/81
f 111/111/81 143/143/81 144/144/81 112/112/81
f 115/115/82 147/147/82 146/146/82 114/114/82
f 124/124/82 156/156/82 155/155/82 123/123/82
f 97/97/81 129/129/81 131/131/81 99/99/81
f 177/177/1 162/162/1 161/161/4 178/178/4
f 178/178/4 161/161/4 163/163/6 179/179/6
f 179/179/6 163/163/6 164/164/8 180/180/8
f 180/180/8 164/164/8 165/165/10 181/181/10
f 181/181/10 165/165/10 166/166/12 182/182/12
f 182/182/12 166/166/12 167/167/14 183/183/14
f 183/183/14 167/167/14 168/168/16 184/184/16
f 184/184/16 168/168/16 169/169/18 185/185/18
f 185/185/18 169/169/18 170/170/20 186/186/20
f 186/186/20 170/170/20 171/171/22 187/187/22
f 187/187/22 171/171/22 172/172/24 188/188/24
f 188/188/24 172/172/24 173/173/26 189/189/26
f 189/189/26 173/173/26 174/174/28 190/190/28
f 190/190/28 174/174/28 175/175/30 191/191/30
f 191/191/30 175/175/30 176/176/48 192/192/48
f 192/192/48 176/176/48 162/162/1 177/177/1
f 209/209/18 210/210/20 193/193/20 194/194/18
f 210/210/20 211/211/22 195/195/22 193/193/20
f 211/211/22 212/212/24 196/196/24 195/195/22
f 212/212/24 213/213/26 197/197/26 196/196/24
f 213/213/26 214/214/28 198/198/28 197/197/26
f 214/214/28 215/215/30 199/199/30 198/198/28
f 215/215/30 216/216/48 200/200/48 199/199/30
f 216/216/48 217/217/1 201/201/1 200/200/48
f 217/217/1 218/218/4 202/202/4 201/201/1
f 218/218/4 219/219/6 203/203/6 202/202/4
f 219/219/6 220/220/8 204/204/8 203/203/6
f 220/220/8 221/221/10 205/205/10 204/204/8
f 221/221/10 222/222/12 206/206/12 205/205/10
f 222/222/12 223/223/14 207/207/14 206/206/12
f 223/223/14 224/224/16 208/208/16 207/207/14
f 224/224/16 209/209/18 194/194/18 208/208/16
f 171/171/81 203/203/81 204/204/81 172/172/81
f 184/184/82 216/216/82 215/215/82 183/183/82
f 177/177/82 209/209/82 224/224/82 192/192/82
f 167/167/81 199/199/81 200/200/81 168/168/81
f 176/176/81 208/208/81 194/194/81 162/162/81
f 180/180/82 212/212/82 211/211/82 179/179/82
f 189/189/82 221/221/82 220/220/82 188/188/82
f 163/163/81 195/195/81 196/196/81 164/164/81
f 172/172/81 204/204/81 205/205/81 173/173/81
f 185/185/82 217/217/82 216/216/82 184/184/82
f 168/168/81 200/200/81 201/201/81 169/169/81
f 181/181/82 213/213/82 212/212/82 180/180/82
f 190/190/82 222/222/82 221/221/82 189/189/82
f 164/164/81 196/196/81 197/197/81 165/165/81
f 173/173/81 205/205/81 206/206/81 174/174/81
f 186/186/82 218/218/82 217/217/82 185/185/82
f 169/169/81 201/201/81 202/202/81 170/170/81
f 182/182/82 214/214/82 213/213/82 181/181/82
f 191/191/82 223/223/82 222/222/82 190/190/82
f 178/178/82 210/210/82 209/209/82 177/177/82
f 165/165/81 197/197/81 198/198/81 166/166/81
f 174/174/81 206/206/81 207/207/81 175/175/81
f 162/162/81 194/194/81 193/193/81 161/161/81
f 187/187/82 219/219/82 218/218/82 186/186/82
f 170/170/81 202/202/81 203/203/81 171/171/81
f 183/183/82 215/215/82 214/214/82 182/182/82
f 192/192/82 224/224/82 223/223/82 191/191/82
f 166/166/81 198/198/81 199/199/81 167/167/81
f 175/175/81 207/207/81 208/208/81 176/176/81
f 179/179/82 211/211/82 210/210/82 178/178/82
f 188/188/82 220/220/82 219/219/82 187/187/82
f 161/161/81 193/193/81 195/195/81 163/163/81
