# Blender 3.4.1
# www.blender.org
mtllib pouffe017.mtl
o pouffes.017
v 0.000000 -1.092790 -1.352615
v 0.000000 0.295790 -1.254531
v 0.517623 -1.092790 -1.249653
v 0.480088 0.295790 -1.159036
v 0.956444 -1.092790 -0.956443
v 0.887088 0.295790 -0.887087
v 1.249653 -1.092790 -0.517623
v 1.159035 0.295790 -0.480088
v 1.352615 -1.092790 0.000000
v 1.254531 0.295790 0.000000
v 1.249653 -1.092790 0.517623
v 1.159035 0.295790 0.480088
v 0.956443 -1.092790 0.956443
v 0.887088 0.295790 0.887087
v 0.517623 -1.092790 1.249653
v 0.480088 0.295790 1.159036
v -0.000000 -1.092790 1.352615
v -0.000000 0.295790 1.254531
v -0.517623 -1.092790 1.249653
v -0.480088 0.295790 1.159036
v -0.956444 -1.092790 0.956443
v -0.887088 0.295790 0.887088
v -1.249653 -1.092790 0.517623
v -1.159035 0.295790 0.480088
v -1.352615 -1.092790 -0.000000
v -1.254531 0.295790 -0.000000
v -1.249653 -1.092790 -0.517624
v -1.159035 0.295790 -0.480089
v -0.956443 -1.092790 -0.956443
v -0.887088 0.295790 -0.887087
v -0.517623 -1.092790 -1.249653
v -0.480088 0.295790 -1.159036
v 0.517623 0.166076 -1.249653
v 0.000000 0.166076 -1.352615
v 0.956444 0.166076 -0.956443
v 1.249653 0.166076 -0.517623
v 1.352615 0.166076 0.000000
v 1.249653 0.166076 0.517623
v 0.956443 0.166076 0.956443
v 0.517623 0.166076 1.249653
v -0.000000 0.166076 1.352615
v -0.517623 0.166076 1.249653
v -0.956444 0.166076 0.956443
v -1.249653 0.166076 0.517623
v -1.352615 0.166076 -0.000000
v -1.249653 0.166076 -0.517624
v -0.956443 0.166076 -0.956443
v -0.517623 0.166076 -1.249653
v 0.688764 0.336493 -0.930494
v 0.372756 0.336493 -1.115628
v -0.372755 0.336493 -1.115628
v -0.688764 0.336493 -0.930494
v 0.210916 0.336493 -1.178606
v 0.000000 0.336493 -1.215391
v -0.210916 0.336493 -1.178606
v 0.839251 0.336493 -0.852393
v -0.839251 0.336493 -0.852393
v -1.096534 0.336493 -0.514783
v 1.096534 0.336493 -0.514783
v 0.728381 0.336493 0.925170
v -0.728381 0.336493 0.925170
v -0.394197 0.336493 1.120953
v 0.394196 0.336493 1.120953
v 1.096534 0.336493 0.514783
v -1.096534 0.336493 0.514783
v -0.839251 0.336493 0.852393
v 0.839251 0.336493 0.852393
v 1.186880 0.336493 0.040925
v -1.186880 0.336493 0.040925
v -1.096534 0.336493 0.439163
v 1.096534 0.336493 0.439163
v 0.215888 0.336493 1.178317
v -0.215888 0.336493 1.178317
v -0.000000 0.336493 1.215969
v 1.096534 0.336493 -0.439163
v -1.096534 0.336493 -0.439164
v -1.186880 0.336493 -0.040925
v 1.186880 0.336493 -0.040925
vn -0.0000 -0.0000 -1.0000
vn -0.0000 0.3068 -0.9518
vn 0.3642 0.3068 -0.8793
vn 0.3827 -0.0000 -0.9239
vn 0.6730 0.3068 -0.6730
vn 0.7071 -0.0000 -0.7071
vn 0.8793 0.3068 -0.3642
vn 0.9239 -0.0000 -0.3827
vn 0.9518 0.3068 -0.0000
vn 1.0000 -0.0000 -0.0000
vn 0.8793 0.3068 0.3642
vn 0.9239 -0.0000 0.3827
vn 0.6730 0.3068 0.6730
vn 0.7071 -0.0000 0.7071
vn 0.3642 0.3068 0.8793
vn 0.3827 -0.0000 0.9239
vn -0.0000 0.3068 0.9518
vn -0.0000 -0.0000 1.0000
vn -0.3642 0.3068 0.8793
vn -0.3827 -0.0000 0.9239
vn -0.6730 0.3068 0.6730
vn -0.7071 -0.0000 0.7071
vn -0.8793 0.3068 0.3642
vn -0.9239 -0.0000 0.3827
vn -0.9518 0.3068 -0.0000
vn -1.0000 -0.0000 -0.0000
vn -0.8793 0.3068 -0.3642
vn -0.9239 -0.0000 -0.3827
vn -0.6730 0.3068 -0.6730
vn -0.7071 -0.0000 -0.7071
vn -0.3642 0.3068 -0.8793
vn -0.3827 -0.0000 -0.9239
vn -0.0000 -1.0000 -0.0000
vn -0.0000 0.6287 -0.7777
vn 0.2590 0.7359 -0.6256
vn 0.4751 0.6856 -0.5516
vn 0.6096 0.7156 -0.3409
vn 0.7133 0.7009 -0.0000
vn 0.6096 0.7156 0.3409
vn 0.4770 0.6812 0.5554
vn 0.2694 0.7085 0.6523
vn -0.0000 0.6255 0.7802
vn -0.2694 0.7085 0.6523
vn -0.4770 0.6812 0.5554
vn -0.6096 0.7156 0.3409
vn -0.7133 0.7009 -0.0000
vn -0.6096 0.7156 -0.3409
vn -0.4751 0.6856 -0.5516
vn -0.2590 0.7359 -0.6256
vn 0.1268 0.9766 0.1735
vn 0.0392 0.9273 -0.3722
vn -0.0392 0.9273 -0.3722
vn -0.1268 0.9766 0.1735
vn -0.0000 0.7295 0.6840
vn 0.1374 0.6828 -0.7176
vn -0.0000 0.8929 -0.4503
vn -0.1374 0.6828 -0.7176
vn -0.0000 0.4333 0.9012
vn 0.1551 0.8893 -0.4303
vn -0.1551 0.8893 -0.4303
vn -0.2938 0.9367 0.1905
vn 0.2938 0.9367 0.1905
vn -0.0000 0.6487 0.7610
vn 0.1585 0.9735 -0.1650
vn -0.1585 0.9735 -0.1650
vn -0.0496 0.9124 0.4063
vn 0.0496 0.9124 0.4063
vn -0.0000 0.6832 -0.7302
vn 0.2938 0.9367 -0.1905
vn -0.2938 0.9367 -0.1905
vn -0.1551 0.8893 0.4303
vn 0.1551 0.8893 0.4303
vn -0.0000 0.6487 -0.7610
vn 0.2222 0.9349 -0.2768
vn -0.2222 0.9349 -0.2768
vn -0.1800 0.9213 0.3446
vn 0.1800 0.9213 0.3446
vn -0.0000 0.7090 -0.7052
vn 0.1384 0.6766 0.7233
vn -0.1384 0.6766 0.7233
vn -0.0000 0.8907 0.4545
vn -0.0000 0.4281 -0.9037
vn 0.1800 0.9213 -0.3446
vn -0.1800 0.9213 -0.3446
vn -0.2222 0.9349 0.2768
vn 0.2222 0.9349 0.2768
vn -0.0000 0.7090 0.7052
vt 0.874039 0.285800
vt 0.874039 0.285800
vt 0.874039 0.285800
vt 0.874039 0.285800
vt 0.874039 0.285800
vt 0.874039 0.285800
vt 0.874039 0.285800
vt 0.874039 0.285800
vt 0.874039 0.285800
vt 0.874039 0.285800
vt 0.874039 0.285800
vt 0.874039 0.285800
vt 0.874039 0.285800
vt 0.874039 0.285800
vt 0.874039 0.285800
vt 0.874039 0.285800
vt 0.874039 0.285800
vt 0.874039 0.285800
vt 0.874039 0.285800
vt 0.874039 0.285800
vt 0.874039 0.285800
vt 0.874039 0.285800
vt 0.874039 0.285800
vt 0.874039 0.285800
vt 0.874039 0.285800
vt 0.874039 0.285800
vt 0.874039 0.285800
vt 0.874039 0.285800
vt 0.874039 0.285800
vt 0.874039 0.285800
vt 0.874039 0.285800
vt 0.874039 0.285800
vt 0.874039 0.285800
vt 0.874039 0.285800
vt 0.874039 0.285800
vt 0.874039 0.285800
vt 0.874039 0.285800
vt 0.874039 0.285800
vt 0.874039 0.285800
vt 0.874039 0.285800
vt 0.874039 0.285800
vt 0.874039 0.285800
vt 0.874039 0.285800
vt 0.874039 0.285800
vt 0.874039 0.285800
vt 0.874039 0.285800
vt 0.874039 0.285800
vt 0.874039 0.285800
vt 0.874039 0.285800
vt 0.874039 0.285800
vt 0.874039 0.285800
vt 0.874039 0.285800
vt 0.874039 0.285800
vt 0.874039 0.285800
vt 0.874039 0.285800
vt 0.874039 0.285800
vt 0.874039 0.285800
vt 0.874039 0.285800
vt 0.874039 0.285800
vt 0.874039 0.285800
vt 0.874039 0.285800
vt 0.874039 0.285800
vt 0.874039 0.285800
vt 0.874039 0.285800
vt 0.874039 0.285800
vt 0.874039 0.285800
vt 0.874039 0.285800
vt 0.874039 0.285800
vt 0.874039 0.285800
vt 0.874039 0.285800
vt 0.874039 0.285800
vt 0.874039 0.285800
vt 0.874039 0.285800
vt 0.874039 0.285800
vt 0.874039 0.285800
vt 0.874039 0.285800
vt 0.874039 0.285800
vt 0.874039 0.285800
s 1
usemtl Material
f 1/1/1 34/34/2 33/33/3 3/3/4
f 3/3/4 33/33/3 35/35/5 5/5/6
f 5/5/6 35/35/5 36/36/7 7/7/8
f 7/7/8 36/36/7 37/37/9 9/9/10
f 9/9/10 37/37/9 38/38/11 11/11/12
f 11/11/12 38/38/11 39/39/13 13/13/14
f 13/13/14 39/39/13 40/40/15 15/15/16
f 15/15/16 40/40/15 41/41/17 17/17/18
f 17/17/18 41/41/17 42/42/19 19/19/20
f 19/19/20 42/42/19 43/43/21 21/21/22
f 21/21/22 43/43/21 44/44/23 23/23/24
f 23/23/24 44/44/23 45/45/25 25/25/26
f 25/25/26 45/45/25 46/46/27 27/27/28
f 27/27/28 46/46/27 47/47/29 29/29/30
f 29/29/30 47/47/29 48/48/31 31/31/32
f 31/31/32 48/48/31 34/34/2 1/1/1
f 1/1/33 3/3/33 5/5/33 7/7/33 9/9/33 11/11/33 13/13/33 15/15/33 17/17/33 19/19/33 21/21/33 23/23/33 25/25/33 27/27/33 29/29/33 31/31/33
f 2/2/34 4/4/35 33/33/3 34/34/2
f 4/4/35 6/6/36 35/35/5 33/33/3
f 6/6/36 8/8/37 36/36/7 35/35/5
f 8/8/37 10/10/38 37/37/9 36/36/7
f 10/10/38 12/12/39 38/38/11 37/37/9
f 12/12/39 14/14/40 39/39/13 38/38/11
f 14/14/40 16/16/41 40/40/15 39/39/13
f 16/16/41 18/18/42 41/41/17 40/40/15
f 18/18/42 20/20/43 42/42/19 41/41/17
f 20/20/43 22/22/44 43/43/21 42/42/19
f 22/22/44 24/24/45 44/44/23 43/43/21
f 24/24/45 26/26/46 45/45/25 44/44/23
f 26/26/46 28/28/47 46/46/27 45/45/25
f 28/28/47 30/30/48 47/47/29 46/46/27
f 30/30/48 32/32/49 48/48/31 47/47/29
f 32/32/49 2/2/34 34/34/2 48/48/31
f 49/49/50 50/50/51 51/51/52 52/52/53
f 4/4/35 50/50/51 49/49/50 6/6/36
f 32/32/49 51/51/52 50/50/51 4/4/35
f 30/30/48 52/52/53 51/51/52 32/32/49
f 6/6/54 49/49/50 52/52/53 30/30/54
f 53/53/55 54/54/56 55/55/57
f 2/2/34 54/54/56 53/53/55 4/4/35
f 32/32/49 55/55/57 54/54/56 2/2/34
f 4/4/58 53/53/58 55/55/58 32/32/58
f 56/56/59 57/57/60 58/58/61 59/59/62
f 30/30/48 57/57/60 56/56/59 6/6/36
f 28/28/47 58/58/61 57/57/60 30/30/48
f 8/8/63 59/59/62 58/58/61 28/28/63
f 6/6/36 56/56/59 59/59/62 8/8/37
f 60/60/64 61/61/65 62/62/66 63/63/67
f 22/22/68 61/61/65 60/60/64 14/14/68
f 20/20/43 62/62/66 61/61/65 22/22/44
f 16/16/41 63/63/67 62/62/66 20/20/43
f 14/14/40 60/60/64 63/63/67 16/16/41
f 64/64/69 65/65/70 66/66/71 67/67/72
f 24/24/73 65/65/70 64/64/69 12/12/73
f 22/22/44 66/66/71 65/65/70 24/24/45
f 14/14/40 67/67/72 66/66/71 22/22/44
f 12/12/39 64/64/69 67/67/72 14/14/40
f 68/68/74 69/69/75 70/70/76 71/71/77
f 26/26/78 69/69/75 68/68/74 10/10/78
f 24/24/45 70/70/76 69/69/75 26/26/46
f 12/12/39 71/71/77 70/70/76 24/24/45
f 10/10/38 68/68/74 71/71/77 12/12/39
f 72/72/79 73/73/80 74/74/81
f 20/20/82 73/73/82 72/72/82 16/16/82
f 18/18/42 74/74/81 73/73/80 20/20/43
f 16/16/41 72/72/79 74/74/81 18/18/42
f 75/75/83 76/76/84 77/77/85 78/78/86
f 28/28/47 76/76/84 75/75/83 8/8/37
f 26/26/46 77/77/85 76/76/84 28/28/47
f 10/10/87 78/78/86 77/77/85 26/26/87
f 8/8/37 75/75/83 78/78/86 10/10/38
