# Blender 3.4.1
# www.blender.org
mtllib pouffe020.mtl
o pouffes.020
v -1.231765 0.146467 1.236160
v -1.231765 0.264522 1.354214
v -1.349820 0.264522 1.236160
v -1.231765 0.693901 1.354214
v -1.231765 0.811956 1.236160
v -1.349820 0.693901 1.236160
v -1.231765 0.146467 -1.218876
v -1.349820 0.264522 -1.218876
v -1.231765 0.264522 -1.336930
v -1.231765 0.811956 -1.218876
v -1.231765 0.693901 -1.336930
v -1.349820 0.693901 -1.218876
v 1.223269 0.146467 1.236160
v 1.341324 0.264522 1.236160
v 1.223269 0.264522 1.354214
v 1.223269 0.811956 1.236160
v 1.223269 0.693901 1.354214
v 1.341324 0.693901 1.236160
v 1.223269 0.146467 -1.218876
v 1.223269 0.264522 -1.336930
v 1.341324 0.264522 -1.218876
v 1.223269 0.811956 -1.218876
v 1.341324 0.693901 -1.218876
v 1.223269 0.693901 -1.336930
v -1.167130 -0.852438 1.145564
v -1.218414 -0.040722 1.195257
v -1.097154 -0.852438 1.145564
v -1.045870 -0.040722 1.164780
v -1.167130 -0.852438 1.077760
v -1.186828 -0.040722 1.028067
v -1.077456 -0.040722 1.058543
v -1.097154 -0.852438 1.077760
v -1.218414 0.174343 1.195257
v -1.045870 0.174343 1.195257
v -1.218414 0.174343 1.028067
v -1.045870 0.174343 1.028067
v 1.171377 -0.852438 1.145564
v 1.222661 -0.040722 1.195257
v 1.101404 -0.852438 1.145564
v 1.050120 -0.040722 1.164781
v 1.171377 -0.852438 1.077760
v 1.189130 -0.040722 1.028067
v 1.083651 -0.040722 1.058544
v 1.101404 -0.852438 1.077760
v 1.222661 0.174343 1.195257
v 1.050120 0.174343 1.195257
v 1.222661 0.174343 1.028067
v 1.050120 0.174343 1.028067
v -1.167130 -0.852438 -1.086403
v -1.186828 -0.040722 -1.036710
v -1.097154 -0.852438 -1.086403
v -1.077456 -0.040722 -1.070868
v -1.167130 -0.852438 -1.154206
v -1.218414 -0.040722 -1.203899
v -1.045870 -0.040722 -1.169741
v -1.097154 -0.852438 -1.154206
v -1.218414 0.174343 -1.036710
v -1.045870 0.174343 -1.036710
v -1.218414 0.174343 -1.203899
v -1.045870 0.174343 -1.203899
v 1.171377 -0.852438 -1.086402
v 1.189130 -0.040722 -1.036709
v 1.101404 -0.852438 -1.086402
v 1.083651 -0.040722 -1.070868
v 1.171377 -0.852438 -1.154206
v 1.222661 -0.040722 -1.203899
v 1.050120 -0.040722 -1.169740
v 1.101404 -0.852438 -1.154206
v 1.222661 0.174343 -1.036709
v 1.050120 0.174343 -1.036709
v 1.222661 0.174343 -1.203899
v 1.050120 0.174343 -1.203899
vn 0.3416 -0.3416 0.8756
vn 0.3416 0.3416 0.8756
vn -0.3416 0.3416 0.8756
vn -0.3416 -0.3416 0.8756
vn 0.8756 -0.3416 -0.3416
vn 0.8756 0.3416 -0.3416
vn 0.8756 0.3416 0.3416
vn 0.8756 -0.3416 0.3416
vn 0.3416 0.8756 -0.3416
vn -0.3416 0.8756 -0.3416
vn -0.3416 0.8756 0.3416
vn 0.3416 0.8756 0.3416
vn -0.8756 -0.3416 0.3416
vn -0.8756 0.3416 0.3416
vn -0.8756 0.3416 -0.3416
vn -0.8756 -0.3416 -0.3416
vn -0.3416 -0.3416 -0.8756
vn -0.3416 0.3416 -0.8756
vn 0.3416 0.3416 -0.8756
vn 0.3416 -0.3416 -0.8756
vn -0.3416 -0.8756 0.3416
vn -0.3416 -0.8756 -0.3416
vn 0.3416 -0.8756 0.3416
vn 0.3416 -0.8756 -0.3416
vn 0.1246 -0.0421 0.9913
vn 0.0702 -0.0851 0.9939
vn 0.1058 -0.0566 0.9928
vn 0.1674 -0.0418 -0.9850
vn -0.0000 -1.0000 -0.0000
vn -0.9919 -0.0585 -0.1130
vn -0.9933 -0.0880 -0.0750
vn -0.9902 -0.0433 -0.1331
vn -0.0000 1.0000 -0.0000
vn 0.9830 -0.0430 -0.1784
vn 0.0439 -0.1055 0.9934
vn 0.0878 -0.0704 0.9937
vn -0.9929 -0.0729 -0.0938
vn -0.9929 -0.1093 -0.0470
vn 0.9910 -0.0601 -0.1199
vn 0.9891 -0.0421 -0.1411
vn 0.9926 -0.0921 -0.0796
vn -0.1710 -0.0418 -0.9844
vn -0.1246 -0.0421 0.9913
vn -0.1058 -0.0566 0.9928
vn -0.0702 -0.0851 0.9939
vn -0.0439 -0.1055 0.9934
vn -0.9811 -0.0417 -0.1890
vn -0.0878 -0.0704 0.9937
vn 0.9920 -0.1159 -0.0498
vn 0.9920 -0.0773 -0.0995
vn -0.0000 -0.1403 -0.9901
vn 0.1869 -0.0394 0.9816
vn 0.1394 -0.0398 -0.9894
vn 0.1183 -0.0598 -0.9912
vn 0.0785 -0.0928 -0.9926
vn -0.9933 -0.0880 0.0750
vn -0.9919 -0.0585 0.1130
vn -0.9902 -0.0433 0.1331
vn 0.0982 -0.0788 -0.9920
vn 0.0492 -0.1181 -0.9918
vn 0.9816 -0.0429 0.1860
vn 0.9894 -0.1453 -0.0000
vn -0.9929 -0.1093 0.0470
vn -0.9929 -0.0729 0.0938
vn 0.9926 -0.0921 0.0796
vn 0.9891 -0.0421 0.1411
vn 0.9910 -0.0601 0.1199
vn -0.1394 -0.0398 -0.9894
vn -0.0785 -0.0928 -0.9926
vn -0.1183 -0.0598 -0.9912
vn -0.0492 -0.1181 -0.9918
vn -0.0982 -0.0788 -0.9920
vn -0.1910 -0.0394 0.9808
vn -0.0000 -0.1569 0.9876
vn -0.9795 -0.0417 0.1971
vn 0.9920 -0.1159 0.0498
vn 0.9920 -0.0773 0.0995
vn -0.9881 -0.1541 -0.0000
vt 0.524608 0.470359
vt 0.524608 0.470359
vt 0.524608 0.470359
vt 0.524608 0.470359
vt 0.524608 0.470359
vt 0.524608 0.470359
vt 0.524608 0.470359
vt 0.524608 0.470359
vt 0.524608 0.470359
vt 0.524608 0.470359
vt 0.524608 0.470359
vt 0.524608 0.470359
vt 0.524608 0.470359
vt 0.524608 0.470359
vt 0.524608 0.470359
vt 0.524608 0.470359
vt 0.524608 0.470359
vt 0.524608 0.470359
vt 0.524608 0.470359
vt 0.524608 0.470359
vt 0.524608 0.470359
vt 0.524608 0.470359
vt 0.524608 0.470359
vt 0.524608 0.470359
vt 0.448324 0.096320
vt 0.448324 0.096320
vt 0.448324 0.096320
vt 0.448324 0.096320
vt 0.448324 0.096320
vt 0.448324 0.096320
vt 0.448324 0.096320
vt 0.448324 0.096320
vt 0.448324 0.096320
vt 0.448324 0.096320
vt 0.448324 0.096320
vt 0.448324 0.096320
vt 0.448324 0.096320
vt 0.448324 0.096320
vt 0.448324 0.096320
vt 0.448324 0.096320
vt 0.448324 0.096320
vt 0.448324 0.096320
vt 0.448324 0.096320
vt 0.448324 0.096320
vt 0.448324 0.096320
vt 0.448324 0.096320
vt 0.448324 0.096320
vt 0.448324 0.096320
vt 0.448324 0.096320
vt 0.448324 0.096320
vt 0.448324 0.096320
vt 0.448324 0.096320
vt 0.448324 0.096320
vt 0.448324 0.096320
vt 0.448324 0.096320
vt 0.448324 0.096320
vt 0.448324 0.096320
vt 0.448324 0.096320
vt 0.448324 0.096320
vt 0.448324 0.096320
vt 0.448324 0.096320
vt 0.448324 0.096320
vt 0.448324 0.096320
vt 0.448324 0.096320
vt 0.448324 0.096320
vt 0.448324 0.096320
vt 0.448324 0.096320
vt 0.448324 0.096320
vt 0.448324 0.096320
vt 0.448324 0.096320
vt 0.448324 0.096320
vt 0.448324 0.096320
s 1
usemtl Material
f 15/15/1 17/17/2 4/4/3 2/2/4
f 21/21/5 23/23/6 18/18/7 14/14/8
f 22/22/9 10/10/10 5/5/11 16/16/12
f 3/3/13 6/6/14 12/12/15 8/8/16
f 9/9/17 11/11/18 24/24/19 20/20/20
f 1/1/21 2/2/4 3/3/13
f 4/4/3 5/5/11 6/6/14
f 7/7/22 8/8/16 9/9/17
f 10/10/10 11/11/18 12/12/15
f 13/13/23 14/14/8 15/15/1
f 16/16/12 17/17/2 18/18/7
f 19/19/24 20/20/20 21/21/5
f 22/22/9 23/23/6 24/24/19
f 7/7/22 1/1/21 3/3/13 8/8/16
f 2/2/4 4/4/3 6/6/14 3/3/13
f 5/5/11 10/10/10 12/12/15 6/6/14
f 11/11/18 9/9/17 8/8/16 12/12/15
f 19/19/24 7/7/22 9/9/17 20/20/20
f 10/10/10 22/22/9 24/24/19 11/11/18
f 23/23/6 21/21/5 20/20/20 24/24/19
f 13/13/23 19/19/24 21/21/5 14/14/8
f 22/22/9 16/16/12 18/18/7 23/23/6
f 17/17/2 15/15/1 14/14/8 18/18/7
f 1/1/21 13/13/23 15/15/1 2/2/4
f 16/16/12 5/5/11 4/4/3 17/17/2
f 7/7/22 19/19/24 13/13/23 1/1/21
f 27/27/25 28/28/26 26/26/27 25/25/25
f 32/32/28 29/29/28 30/30/28 31/31/28
f 25/25/29 29/29/29 32/32/29 27/27/29
f 26/26/30 30/30/31 29/29/32 25/25/32
f 58/58/33 57/57/33 35/35/33 36/36/33
f 27/27/34 32/32/34 31/31/34 28/28/34
f 34/34/33 36/36/33 35/35/33 33/33/33
f 26/26/27 28/28/26 34/34/35 33/33/36
f 30/30/31 26/26/30 33/33/37 35/35/38
f 37/37/29 39/39/29 44/44/29 41/41/29
f 38/38/39 37/37/40 41/41/40 42/42/41
f 44/44/42 43/43/42 42/42/42 41/41/42
f 69/69/33 70/70/33 48/48/33 47/47/33
f 39/39/43 37/37/43 38/38/44 40/40/45
f 48/48/33 36/36/33 34/34/33 46/46/33
f 46/46/46 34/34/35 28/28/26 40/40/45
f 40/40/29 28/28/29 31/31/29 43/43/29
f 39/39/47 40/40/47 43/43/47 44/44/47
f 46/46/33 45/45/33 47/47/33 48/48/33
f 38/38/44 45/45/48 46/46/46 40/40/45
f 42/42/41 47/47/49 45/45/50 38/38/39
f 43/43/51 31/31/51 36/36/51 48/48/51
f 51/51/52 52/52/52 50/50/52 49/49/52
f 56/56/53 53/53/53 54/54/54 55/55/55
f 49/49/29 53/53/29 56/56/29 51/51/29
f 50/50/56 54/54/57 53/53/58 49/49/58
f 55/55/55 54/54/54 59/59/59 60/60/60
f 51/51/61 56/56/61 55/55/61 52/52/61
f 58/58/33 60/60/33 59/59/33 57/57/33
f 52/52/62 58/58/62 36/36/62 31/31/62
f 54/54/57 50/50/56 57/57/63 59/59/64
f 61/61/29 63/63/29 68/68/29 65/65/29
f 62/62/65 61/61/66 65/65/66 66/66/67
f 68/68/68 67/67/69 66/66/70 65/65/68
f 67/67/69 72/72/71 71/71/72 66/66/70
f 63/63/73 61/61/73 62/62/73 64/64/73
f 72/72/33 60/60/33 58/58/33 70/70/33
f 70/70/74 58/58/74 52/52/74 64/64/74
f 64/64/29 52/52/29 55/55/29 67/67/29
f 63/63/75 64/64/75 67/67/75 68/68/75
f 70/70/33 69/69/33 71/71/33 72/72/33
f 62/62/65 69/69/76 47/47/49 42/42/41
f 66/66/67 71/71/77 69/69/76 62/62/65
f 67/67/69 55/55/55 60/60/60 72/72/71
f 70/70/78 64/64/78 43/43/78 48/48/78
f 64/64/29 62/62/29 42/42/29 43/43/29
f 57/57/63 50/50/56 30/30/31 35/35/38
f 50/50/29 52/52/29 31/31/29 30/30/29
