# Blender 3.4.1
# www.blender.org
mtllib pouffe007.mtl
o pouffes.007
v -0.866885 0.597179 0.902268
v -0.866885 0.723748 1.028838
v -0.993452 0.723748 0.902268
v -0.866885 1.317510 1.028838
v -0.884242 1.412080 0.928453
v -0.993452 1.317510 0.902268
v -0.866885 0.597179 -0.916081
v -0.993452 0.723748 -0.916081
v -0.866885 0.723748 -1.042649
v -0.884242 1.412080 -0.942264
v -0.866885 1.317510 -1.042649
v -0.993452 1.317510 -0.916081
v 0.867829 0.597179 0.902268
v 0.994396 0.723748 0.902268
v 0.867829 0.723748 1.028838
v 0.885186 1.412080 0.928453
v 0.867829 1.317510 1.028838
v 0.994396 1.317510 0.902268
v 0.867829 0.597179 -0.916081
v 0.867829 0.723748 -1.042649
v 0.994396 0.723748 -0.916081
v 0.885186 1.412080 -0.942264
v 0.994396 1.317510 -0.916081
v 0.867829 1.317510 -1.042649
v -0.808540 -0.069169 0.841110
v -0.808540 0.048886 0.959165
v -0.926590 0.048886 0.841110
v -0.808540 0.573531 0.959165
v -0.824728 0.661740 0.865533
v -0.926590 0.573531 0.841110
v -0.808539 -0.069169 -0.854923
v -0.926590 0.048886 -0.854923
v -0.808539 0.048886 -0.972977
v -0.824728 0.661740 -0.879346
v -0.808539 0.573531 -0.972977
v -0.926590 0.573531 -0.854923
v 0.809483 -0.069169 0.841110
v 0.927539 0.048886 0.841110
v 0.809483 0.048886 0.959165
v 0.825672 0.661740 0.865533
v 0.809483 0.573531 0.959165
v 0.927539 0.573531 0.841110
v 0.809483 -0.069169 -0.854923
v 0.809483 0.048886 -0.972977
v 0.927539 0.048886 -0.854923
v 0.825672 0.661740 -0.879345
v 0.927539 0.573531 -0.854923
v 0.809483 0.573531 -0.972977
v -0.788079 -0.069169 0.808440
v -0.788078 -0.069169 -0.823365
v 0.764560 -0.069169 0.808440
v 0.764561 -0.069169 -0.823365
v -0.788078 -0.132202 -0.823365
v -0.788079 -0.132202 0.808440
v 0.764561 -0.132202 -0.823365
v 0.764560 -0.132202 0.808440
v -0.818806 -0.373733 0.830933
v -0.726466 -0.128373 0.830933
v -0.818806 -0.373733 0.568772
v -0.726466 -0.128373 0.568772
v -0.573445 -0.466074 0.830934
v -0.481110 -0.220713 0.830934
v -0.573445 -0.466074 0.568772
v -0.481110 -0.220714 0.568772
v -0.855808 -0.390499 0.699852
v -0.799523 -0.240935 0.859658
v -0.743237 -0.091372 0.699852
v -0.799523 -0.240935 0.540047
v -0.706244 -0.446787 0.540047
v -0.593672 -0.147660 0.540047
v -0.500393 -0.353511 0.540047
v -0.556679 -0.503075 0.699852
v -0.444107 -0.203947 0.699852
v -0.500393 -0.353511 0.859658
v -0.706244 -0.446787 0.859658
v -0.593672 -0.147660 0.859658
v -0.855942 -0.219703 0.699852
v -0.649958 -0.297223 0.479767
v -0.443974 -0.374744 0.699852
v -0.649958 -0.297223 0.919939
v -0.727477 -0.503205 0.699852
v -0.572434 -0.091242 0.699852
v -0.818806 -0.373733 -0.561250
v -0.726466 -0.128373 -0.561250
v -0.818806 -0.373733 -0.823410
v -0.726466 -0.128373 -0.823410
v -0.573444 -0.466074 -0.561250
v -0.481110 -0.220713 -0.561250
v -0.573444 -0.466074 -0.823410
v -0.481110 -0.220714 -0.823410
v -0.855808 -0.390499 -0.692330
v -0.799523 -0.240935 -0.532525
v -0.743237 -0.091372 -0.692330
v -0.799522 -0.240935 -0.852135
v -0.706244 -0.446787 -0.852135
v -0.593672 -0.147660 -0.852135
v -0.500393 -0.353511 -0.852135
v -0.556679 -0.503075 -0.692330
v -0.444107 -0.203947 -0.692330
v -0.500393 -0.353511 -0.532525
v -0.706244 -0.446787 -0.532525
v -0.593672 -0.147660 -0.532525
v -0.855942 -0.219703 -0.692330
v -0.649958 -0.297223 -0.912415
v -0.443974 -0.374744 -0.692330
v -0.649958 -0.297223 -0.472245
v -0.727477 -0.503205 -0.692330
v -0.572434 -0.091242 -0.692330
v 0.482483 -0.373733 0.830934
v 0.574817 -0.128373 0.830934
v 0.482483 -0.373733 0.568772
v 0.574817 -0.128373 0.568772
v 0.727839 -0.466074 0.830934
v 0.820179 -0.220713 0.830934
v 0.727839 -0.466074 0.568772
v 0.820179 -0.220714 0.568772
v 0.445480 -0.390499 0.699852
v 0.501766 -0.240935 0.859658
v 0.558052 -0.091372 0.699852
v 0.501766 -0.240935 0.540047
v 0.595045 -0.446787 0.540047
v 0.707617 -0.147660 0.540047
v 0.800896 -0.353511 0.540047
v 0.744605 -0.503075 0.699852
v 0.857181 -0.203947 0.699852
v 0.800895 -0.353511 0.859658
v 0.595045 -0.446787 0.859658
v 0.707617 -0.147660 0.859658
v 0.445347 -0.219703 0.699852
v 0.651331 -0.297223 0.479767
v 0.857315 -0.374744 0.699852
v 0.651331 -0.297223 0.919939
v 0.573807 -0.503205 0.699852
v 0.728850 -0.091242 0.699852
v 0.482483 -0.373733 -0.561250
v 0.574818 -0.128373 -0.561250
v 0.482483 -0.373733 -0.823410
v 0.574818 -0.128373 -0.823410
v 0.727839 -0.466074 -0.561250
v 0.820179 -0.220713 -0.561250
v 0.727839 -0.466074 -0.823410
v 0.820179 -0.220714 -0.823410
v 0.445480 -0.390499 -0.692330
v 0.501766 -0.240935 -0.532525
v 0.558052 -0.091372 -0.692330
v 0.501766 -0.240935 -0.852135
v 0.595045 -0.446787 -0.852135
v 0.707617 -0.147660 -0.852135
v 0.800896 -0.353511 -0.852135
v 0.744605 -0.503075 -0.692330
v 0.857181 -0.203947 -0.692330
v 0.800896 -0.353511 -0.532525
v 0.595045 -0.446787 -0.532525
v 0.707617 -0.147660 -0.532525
v 0.445347 -0.219703 -0.692330
v 0.651331 -0.297223 -0.912415
v 0.857315 -0.374744 -0.692330
v 0.651331 -0.297223 -0.472244
v 0.573807 -0.503205 -0.692330
v 0.728850 -0.091242 -0.692330
vn 0.3416 -0.3416 0.8756
vn 0.3328 0.3439 0.8781
vn -0.3328 0.3439 0.8781
vn -0.3416 -0.3416 0.8756
vn 0.8756 -0.3416 -0.3416
vn 0.8745 0.3577 -0.3276
vn 0.8745 0.3577 0.3276
vn 0.8756 -0.3416 0.3416
vn 0.3414 0.8693 -0.3573
vn -0.3414 0.8693 -0.3573
vn -0.3414 0.8693 0.3573
vn 0.3414 0.8693 0.3573
vn -0.8756 -0.3416 0.3416
vn -0.8745 0.3577 0.3276
vn -0.8745 0.3577 -0.3276
vn -0.8756 -0.3416 -0.3416
vn -0.3416 -0.3416 -0.8756
vn -0.3328 0.3439 -0.8781
vn 0.3328 0.3439 -0.8781
vn 0.3416 -0.3416 -0.8756
vn -0.3416 -0.8756 0.3416
vn -0.3416 -0.8756 -0.3416
vn 0.3416 -0.8756 0.3416
vn 0.3416 -0.8756 -0.3416
vn 0.8745 0.3577 -0.3277
vn 0.8745 0.3577 0.3277
vn -0.0000 1.0000 -0.0000
vn -0.0000 -1.0000 -0.0000
vn -0.0000 -0.0000 1.0000
vn -0.0000 -0.0000 -1.0000
vn 1.0000 -0.0000 -0.0000
vn -1.0000 -0.0000 -0.0000
vn -0.7437 -0.3370 0.5774
vn -0.6618 0.2491 0.7071
vn -0.9359 0.3522 -0.0000
vn -0.9109 -0.4127 -0.0000
vn -0.3370 0.7437 0.5774
vn -0.4127 0.9109 -0.0000
vn -0.3370 0.7437 -0.5774
vn -0.6618 0.2491 -0.7071
vn -0.7437 -0.3370 -0.5774
vn -0.2491 -0.6618 -0.7071
vn 0.2491 0.6618 -0.7071
vn 0.7437 0.3370 -0.5774
vn 0.6618 -0.2491 -0.7071
vn 0.3370 -0.7437 -0.5774
vn 0.9359 -0.3522 -0.0000
vn 0.4127 -0.9109 -0.0000
vn 0.9109 0.4127 -0.0000
vn 0.7437 0.3370 0.5774
vn 0.6618 -0.2491 0.7071
vn 0.3370 -0.7437 0.5774
vn -0.2491 -0.6618 0.7071
vn 0.2491 0.6618 0.7071
vn -0.3522 -0.9359 -0.0000
vn 0.3522 0.9359 -0.0000
vn 0.3370 -0.7437 0.5773
vt 0.113657 0.883771
vt 0.113657 0.883770
vt 0.113657 0.883770
vt 0.113657 0.883770
vt 0.113657 0.883770
vt 0.113657 0.883770
vt 0.113657 0.883770
vt 0.113657 0.883770
vt 0.113657 0.883770
vt 0.113657 0.883770
vt 0.113657 0.883770
vt 0.113657 0.883770
vt 0.113657 0.883771
vt 0.113657 0.883770
vt 0.113657 0.883770
vt 0.113657 0.883770
vt 0.113657 0.883770
vt 0.113657 0.883770
vt 0.113657 0.883770
vt 0.113657 0.883770
vt 0.113657 0.883770
vt 0.113657 0.883770
vt 0.113657 0.883770
vt 0.113657 0.883770
vt 0.113657 0.883770
vt 0.113657 0.883770
vt 0.113657 0.883770
vt 0.113657 0.883770
vt 0.113657 0.883770
vt 0.113657 0.883770
vt 0.113657 0.883771
vt 0.113657 0.883771
vt 0.113657 0.883771
vt 0.113657 0.883770
vt 0.113657 0.883770
vt 0.113657 0.883771
vt 0.113657 0.883770
vt 0.113657 0.883770
vt 0.113657 0.883770
vt 0.113657 0.883770
vt 0.113657 0.883770
vt 0.113657 0.883770
vt 0.113657 0.883771
vt 0.113657 0.883770
vt 0.113657 0.883770
vt 0.113657 0.883770
vt 0.113657 0.883770
vt 0.113657 0.883770
vt 0.726392 0.940369
vt 0.726392 0.940369
vt 0.726392 0.940369
vt 0.726392 0.940369
vt 0.726392 0.940369
vt 0.726392 0.940369
vt 0.726392 0.940369
vt 0.726392 0.940369
vt 0.726392 0.940368
vt 0.726392 0.940369
vt 0.726392 0.940369
vt 0.726392 0.940369
vt 0.726392 0.940369
vt 0.726392 0.940369
vt 0.726392 0.940369
vt 0.726392 0.940369
vt 0.726392 0.940369
vt 0.726392 0.940369
vt 0.726392 0.940369
vt 0.726392 0.940369
vt 0.726392 0.940368
vt 0.726392 0.940368
vt 0.726392 0.940369
vt 0.726392 0.940369
vt 0.726392 0.940368
vt 0.726392 0.940369
vt 0.726392 0.940369
vt 0.726392 0.940369
vt 0.726392 0.940369
vt 0.726392 0.940369
vt 0.726392 0.940369
vt 0.726392 0.940369
vt 0.726392 0.940369
vt 0.726392 0.940369
vt 0.726392 0.940368
vt 0.726392 0.940369
vt 0.726392 0.940368
vt 0.726392 0.940369
vt 0.726392 0.940369
vt 0.726392 0.940369
vt 0.726392 0.940369
vt 0.726392 0.940369
vt 0.726392 0.940368
vt 0.726392 0.940369
vt 0.726392 0.940369
vt 0.726392 0.940369
vt 0.726392 0.940368
vt 0.726392 0.940369
vt 0.726392 0.940369
vt 0.726392 0.940369
vt 0.726392 0.940369
vt 0.726392 0.940369
vt 0.726392 0.940369
vt 0.726392 0.940369
vt 0.726392 0.940368
vt 0.726392 0.940369
vt 0.726392 0.940369
vt 0.726392 0.940369
vt 0.726392 0.940369
vt 0.726392 0.940369
vt 0.726392 0.940369
vt 0.726392 0.940369
vt 0.726392 0.940369
vt 0.726392 0.940369
vt 0.726392 0.940369
vt 0.726392 0.940368
vt 0.726392 0.940369
vt 0.726392 0.940369
vt 0.726392 0.940369
vt 0.726392 0.940369
vt 0.726392 0.940369
vt 0.726392 0.940369
vt 0.726392 0.940369
vt 0.726392 0.940368
vt 0.726392 0.940368
vt 0.726392 0.940369
vt 0.726392 0.940369
vt 0.726392 0.940369
vt 0.726392 0.940369
vt 0.726392 0.940369
vt 0.726392 0.940369
vt 0.726392 0.940369
vt 0.726392 0.940369
vt 0.726392 0.940368
vt 0.726392 0.940369
vt 0.726392 0.940369
vt 0.726392 0.940368
vt 0.726392 0.940369
vt 0.726392 0.940369
vt 0.726392 0.940369
vt 0.726392 0.940369
vt 0.726392 0.940369
vt 0.726392 0.940369
vt 0.726392 0.940369
vt 0.726392 0.940369
vt 0.726392 0.940369
vt 0.726392 0.940369
vt 0.726392 0.940369
vt 0.726392 0.940369
vt 0.726392 0.940369
vt 0.726392 0.940369
vt 0.726392 0.940369
vt 0.726392 0.940369
vt 0.726392 0.940369
vt 0.726392 0.940369
vt 0.726392 0.940369
vt 0.726392 0.940369
vt 0.726392 0.940369
vt 0.726392 0.940369
vt 0.726392 0.940368
vt 0.726392 0.940368
vt 0.726392 0.940369
s 1
usemtl Material
f 15/15/1 17/17/2 4/4/3 2/2/4
f 21/21/5 23/23/6 18/18/7 14/14/8
f 22/22/9 10/10/10 5/5/11 16/16/12
f 3/3/13 6/6/14 12/12/15 8/8/16
f 9/9/17 11/11/18 24/24/19 20/20/20
f 1/1/21 2/2/4 3/3/13
f 4/4/3 5/5/11 6/6/14
f 7/7/22 8/8/16 9/9/17
f 10/10/10 11/11/18 12/12/15
f 13/13/23 14/14/8 15/15/1
f 16/16/12 17/17/2 18/18/7
f 19/19/24 20/20/20 21/21/5
f 22/22/9 23/23/6 24/24/19
f 7/7/22 1/1/21 3/3/13 8/8/16
f 2/2/4 4/4/3 6/6/14 3/3/13
f 5/5/11 10/10/10 12/12/15 6/6/14
f 11/11/18 9/9/17 8/8/16 12/12/15
f 19/19/24 7/7/22 9/9/17 20/20/20
f 10/10/10 22/22/9 24/24/19 11/11/18
f 23/23/6 21/21/5 20/20/20 24/24/19
f 13/13/23 19/19/24 21/21/5 14/14/8
f 22/22/9 16/16/12 18/18/7 23/23/6
f 17/17/2 15/15/1 14/14/8 18/18/7
f 1/1/21 13/13/23 15/15/1 2/2/4
f 16/16/12 5/5/11 4/4/3 17/17/2
f 7/7/22 19/19/24 13/13/23 1/1/21
f 39/39/1 41/41/2 28/28/3 26/26/4
f 45/45/5 47/47/25 42/42/26 38/38/8
f 46/46/9 34/34/10 29/29/11 40/40/12
f 27/27/13 30/30/14 36/36/15 32/32/16
f 33/33/17 35/35/18 48/48/19 44/44/20
f 25/25/21 26/26/4 27/27/13
f 28/28/3 29/29/11 30/30/14
f 31/31/22 32/32/16 33/33/17
f 34/34/10 35/35/18 36/36/15
f 37/37/23 38/38/8 39/39/1
f 40/40/12 41/41/2 42/42/26
f 43/43/24 44/44/20 45/45/5
f 46/46/9 47/47/25 48/48/19
f 31/31/22 25/25/21 27/27/13 32/32/16
f 26/26/4 28/28/3 30/30/14 27/27/13
f 29/29/11 34/34/10 36/36/15 30/30/14
f 35/35/18 33/33/17 32/32/16 36/36/15
f 43/43/24 31/31/22 33/33/17 44/44/20
f 34/34/10 46/46/9 48/48/19 35/35/18
f 47/47/25 45/45/5 44/44/20 48/48/19
f 37/37/23 43/43/24 45/45/5 38/38/8
f 46/46/9 40/40/12 42/42/26 47/47/25
f 41/41/2 39/39/1 38/38/8 42/42/26
f 25/25/21 37/37/23 39/39/1 26/26/4
f 40/40/12 29/29/11 28/28/3 41/41/2
f 31/31/22 43/43/24 37/37/23 25/25/21
f 50/50/27 49/49/27 51/51/27 52/52/27
f 53/53/28 55/55/28 56/56/28 54/54/28
f 51/51/29 49/49/29 54/54/29 56/56/29
f 50/50/30 52/52/30 55/55/30 53/53/30
f 52/52/31 51/51/31 56/56/31 55/55/31
f 49/49/32 50/50/32 53/53/32 54/54/32
f 57/57/33 66/66/34 77/77/35 65/65/36
f 66/66/34 58/58/37 67/67/38 77/77/35
f 77/77/35 67/67/38 60/60/39 68/68/40
f 65/65/36 77/77/35 68/68/40 59/59/41
f 59/59/41 68/68/40 78/78/30 69/69/42
f 68/68/40 60/60/39 70/70/43 78/78/30
f 78/78/30 70/70/43 64/64/44 71/71/45
f 69/69/42 78/78/30 71/71/45 63/63/46
f 63/63/46 71/71/45 79/79/47 72/72/48
f 71/71/45 64/64/44 73/73/49 79/79/47
f 79/79/47 73/73/49 62/62/50 74/74/51
f 72/72/48 79/79/47 74/74/51 61/61/52
f 61/61/52 74/74/51 80/80/29 75/75/53
f 74/74/51 62/62/50 76/76/54 80/80/29
f 80/80/29 76/76/54 58/58/37 66/66/34
f 75/75/53 80/80/29 66/66/34 57/57/33
f 59/59/41 69/69/42 81/81/55 65/65/36
f 69/69/42 63/63/46 72/72/48 81/81/55
f 81/81/55 72/72/48 61/61/52 75/75/53
f 65/65/36 81/81/55 75/75/53 57/57/33
f 64/64/44 70/70/43 82/82/56 73/73/49
f 70/70/43 60/60/39 67/67/38 82/82/56
f 82/82/56 67/67/38 58/58/37 76/76/54
f 73/73/49 82/82/56 76/76/54 62/62/50
f 83/83/33 92/92/34 103/103/35 91/91/36
f 92/92/34 84/84/37 93/93/38 103/103/35
f 103/103/35 93/93/38 86/86/39 94/94/40
f 91/91/36 103/103/35 94/94/40 85/85/41
f 85/85/41 94/94/40 104/104/30 95/95/42
f 94/94/40 86/86/39 96/96/43 104/104/30
f 104/104/30 96/96/43 90/90/44 97/97/45
f 95/95/42 104/104/30 97/97/45 89/89/46
f 89/89/46 97/97/45 105/105/47 98/98/48
f 97/97/45 90/90/44 99/99/49 105/105/47
f 105/105/47 99/99/49 88/88/50 100/100/51
f 98/98/48 105/105/47 100/100/51 87/87/52
f 87/87/52 100/100/51 106/106/29 101/101/53
f 100/100/51 88/88/50 102/102/54 106/106/29
f 106/106/29 102/102/54 84/84/37 92/92/34
f 101/101/53 106/106/29 92/92/34 83/83/33
f 85/85/41 95/95/42 107/107/55 91/91/36
f 95/95/42 89/89/46 98/98/48 107/107/55
f 107/107/55 98/98/48 87/87/52 101/101/53
f 91/91/36 107/107/55 101/101/53 83/83/33
f 90/90/44 96/96/43 108/108/56 99/99/49
f 96/96/43 86/86/39 93/93/38 108/108/56
f 108/108/56 93/93/38 84/84/37 102/102/54
f 99/99/49 108/108/56 102/102/54 88/88/50
f 109/109/33 118/118/34 129/129/35 117/117/36
f 118/118/34 110/110/37 119/119/38 129/129/35
f 129/129/35 119/119/38 112/112/39 120/120/40
f 117/117/36 129/129/35 120/120/40 111/111/41
f 111/111/41 120/120/40 130/130/30 121/121/42
f 120/120/40 112/112/39 122/122/43 130/130/30
f 130/130/30 122/122/43 116/116/44 123/123/45
f 121/121/42 130/130/30 123/123/45 115/115/46
f 115/115/46 123/123/45 131/131/47 124/124/48
f 123/123/45 116/116/44 125/125/49 131/131/47
f 131/131/47 125/125/49 114/114/50 126/126/51
f 124/124/48 131/131/47 126/126/51 113/113/57
f 113/113/57 126/126/51 132/132/29 127/127/53
f 126/126/51 114/114/50 128/128/54 132/132/29
f 132/132/29 128/128/54 110/110/37 118/118/34
f 127/127/53 132/132/29 118/118/34 109/109/33
f 111/111/41 121/121/42 133/133/55 117/117/36
f 121/121/42 115/115/46 124/124/48 133/133/55
f 133/133/55 124/124/48 113/113/57 127/127/53
f 117/117/36 133/133/55 127/127/53 109/109/33
f 116/116/44 122/122/43 134/134/56 125/125/49
f 122/122/43 112/112/39 119/119/38 134/134/56
f 134/134/56 119/119/38 110/110/37 128/128/54
f 125/125/49 134/134/56 128/128/54 114/114/50
f 135/135/33 144/144/34 155/155/35 143/143/36
f 144/144/34 136/136/37 145/145/38 155/155/35
f 155/155/35 145/145/38 138/138/39 146/146/40
f 143/143/36 155/155/35 146/146/40 137/137/41
f 137/137/41 146/146/40 156/156/30 147/147/42
f 146/146/40 138/138/39 148/148/43 156/156/30
f 156/156/30 148/148/43 142/142/44 149/149/45
f 147/147/42 156/156/30 149/149/45 141/141/46
f 141/141/46 149/149/45 157/157/47 150/150/48
f 149/149/45 142/142/44 151/151/49 157/157/47
f 157/157/47 151/151/49 140/140/50 152/152/51
f 150/150/48 157/157/47 152/152/51 139/139/52
f 139/139/52 152/152/51 158/158/29 153/153/53
f 152/152/51 140/140/50 154/154/54 158/158/29
f 158/158/29 154/154/54 136/136/37 144/144/34
f 153/153/53 158/158/29 144/144/34 135/135/33
f 137/137/41 147/147/42 159/159/55 143/143/36
f 147/147/42 141/141/46 150/150/48 159/159/55
f 159/159/55 150/150/48 139/139/52 153/153/53
f 143/143/36 159/159/55 153/153/53 135/135/33
f 142/142/44 148/148/43 160/160/56 151/151/49
f 148/148/43 138/138/39 145/145/38 160/160/56
f 160/160/56 145/145/38 136/136/37 154/154/54
f 151/151/49 160/160/56 154/154/54 140/140/50
