# Blender 3.4.1
# www.blender.org
mtllib pouffe014.mtl
o pouffes.014
v -1.226677 -0.458792 1.230312
v -1.226677 -0.340738 1.348367
v -1.344732 -0.340738 1.230312
v -1.226677 0.088642 1.348367
v -1.226677 0.206697 1.230312
v -1.344732 0.088642 1.230312
v -1.226677 -0.458792 -1.224724
v -1.344732 -0.340738 -1.224724
v -1.226677 -0.340738 -1.342778
v -1.226677 0.206697 -1.224724
v -1.226677 0.088642 -1.342778
v -1.344732 0.088642 -1.224724
v 1.228357 -0.458792 1.230312
v 1.346413 -0.340738 1.230312
v 1.228357 -0.340738 1.348367
v 1.228357 0.206697 1.230312
v 1.228357 0.088642 1.348367
v 1.346413 0.088642 1.230312
v 1.228357 -0.458792 -1.224723
v 1.228357 -0.340738 -1.342778
v 1.346413 -0.340738 -1.224723
v 1.228357 0.206697 -1.224723
v 1.346413 0.088642 -1.224723
v 1.228357 0.088642 -1.342778
v -1.226677 0.206697 0.411967
v -1.226677 0.206697 -0.406379
v -0.408331 0.206697 -1.224724
v 0.410013 0.206697 -1.224724
v 1.228357 0.206697 -0.406378
v 1.228357 0.206697 0.411967
v 0.410013 0.206697 1.230312
v -0.408331 0.206697 1.230312
v 0.410013 0.292014 -0.406378
v 0.410013 0.292014 0.411967
v -0.408331 0.292014 -0.406378
v -0.408331 0.292014 0.411967
v -0.481079 0.333562 0.479807
v -1.172522 0.254877 0.479464
v -1.172863 0.261439 1.171592
v -0.480737 0.254877 1.171250
v 1.155612 0.254877 0.479465
v 0.464168 0.333562 0.479807
v 0.463828 0.254877 1.171250
v 1.155954 0.261439 1.171592
v 0.337352 0.333606 0.479379
v -0.354262 0.333606 0.479379
v -0.354262 0.261430 1.171676
v 0.337352 0.261430 1.171676
v 1.155954 0.261439 -1.157227
v 0.463828 0.254877 -1.156885
v 0.464169 0.333562 -0.465441
v 1.155612 0.254877 -0.465099
v 1.156039 0.261430 -0.338625
v 0.463742 0.333606 -0.338625
v 0.463742 0.333606 0.352989
v 1.156039 0.261430 0.352989
v 0.337353 0.261430 -1.157311
v -0.354262 0.261430 -1.157311
v -0.354262 0.333606 -0.465014
v 0.337353 0.333606 -0.465014
v 0.337353 0.340177 -0.338625
v -0.354262 0.340177 -0.338625
v -0.354262 0.340177 0.352989
v 0.337352 0.340177 0.352989
v -0.480737 0.254877 -1.156885
v -1.172863 0.261439 -1.157227
v -1.172522 0.254877 -0.465099
v -0.481079 0.333562 -0.465441
v -0.480651 0.333606 -0.338625
v -1.172949 0.261430 -0.338625
v -1.172949 0.261430 0.352989
v -0.480651 0.333606 0.352989
v -1.162042 -1.457697 1.139716
v -1.213324 -0.645981 1.189409
v -1.092066 -1.457697 1.139716
v -1.040782 -0.645981 1.158933
v -1.162042 -1.457697 1.071913
v -1.181740 -0.645981 1.022220
v -1.072368 -0.645981 1.052696
v -1.092066 -1.457697 1.071913
v -1.213324 -0.430916 1.189409
v -1.040782 -0.430916 1.189409
v -1.213324 -0.430916 1.022220
v -1.040782 -0.430916 1.022220
v 1.176466 -1.457697 1.139717
v 1.227749 -0.645981 1.189409
v 1.106492 -1.457697 1.139717
v 1.055208 -0.645981 1.158933
v 1.176466 -1.457697 1.071913
v 1.194218 -0.645981 1.022220
v 1.088739 -0.645981 1.052696
v 1.106492 -1.457697 1.071913
v 1.227749 -0.430916 1.189409
v 1.055208 -0.430916 1.189409
v 1.227749 -0.430916 1.022220
v 1.055208 -0.430916 1.022220
v -1.162042 -1.457697 -1.092250
v -1.181740 -0.645981 -1.042557
v -1.092066 -1.457697 -1.092250
v -1.072368 -0.645981 -1.076716
v -1.162042 -1.457697 -1.160054
v -1.213324 -0.645981 -1.209747
v -1.040782 -0.645981 -1.175588
v -1.092066 -1.457697 -1.160054
v -1.213324 -0.430916 -1.042557
v -1.040782 -0.430916 -1.042557
v -1.213324 -0.430916 -1.209747
v -1.040782 -0.430916 -1.209747
v 1.176466 -1.457697 -1.092250
v 1.194218 -0.645981 -1.042557
v 1.106492 -1.457697 -1.092250
v 1.088740 -0.645981 -1.076716
v 1.176466 -1.457697 -1.160054
v 1.227749 -0.645981 -1.209747
v 1.055208 -0.645981 -1.175588
v 1.106492 -1.457697 -1.160054
v 1.227749 -0.430916 -1.042557
v 1.055208 -0.430916 -1.042557
v 1.227749 -0.430916 -1.209747
v 1.055208 -0.430916 -1.209747
v -0.410773 0.286795 -0.467451
v -0.452332 0.286795 -0.450237
v -0.469545 0.286795 -0.408679
v -0.452332 0.286795 -0.367122
v -0.410773 0.286795 -0.349908
v -0.369216 0.286795 -0.367122
v -0.352003 0.286795 -0.408679
v -0.369216 0.286795 -0.450237
v -0.410773 0.323584 -0.467451
v -0.452332 0.323584 -0.450237
v -0.469545 0.323584 -0.408679
v -0.452332 0.323584 -0.367122
v -0.410773 0.323584 -0.349908
v -0.369216 0.323584 -0.367122
v -0.352003 0.323584 -0.408679
v -0.369216 0.323584 -0.450237
v -0.444649 0.333904 -0.442554
v -0.458681 0.333904 -0.408679
v -0.444649 0.333904 -0.374804
v -0.410773 0.333904 -0.360773
v -0.376898 0.333904 -0.374804
v -0.362867 0.333904 -0.408679
v -0.376898 0.333904 -0.442554
v -0.410773 0.333904 -0.456585
v 0.409271 0.286795 -0.467451
v 0.367714 0.286795 -0.450237
v 0.350500 0.286795 -0.408679
v 0.367714 0.286795 -0.367122
v 0.409271 0.286795 -0.349908
v 0.450829 0.286795 -0.367122
v 0.468043 0.286795 -0.408679
v 0.450829 0.286795 -0.450237
v 0.409271 0.323584 -0.467451
v 0.367714 0.323584 -0.450237
v 0.350500 0.323584 -0.408679
v 0.367714 0.323584 -0.367122
v 0.409271 0.323584 -0.349908
v 0.450829 0.323584 -0.367122
v 0.468043 0.323584 -0.408679
v 0.450829 0.323584 -0.450237
v 0.375396 0.333904 -0.442554
v 0.361365 0.333904 -0.408679
v 0.375396 0.333904 -0.374804
v 0.409271 0.333904 -0.360773
v 0.443147 0.333904 -0.374804
v 0.457178 0.333904 -0.408679
v 0.443147 0.333904 -0.442554
v 0.409271 0.333904 -0.456585
v -0.410773 0.286795 0.352594
v -0.452332 0.286795 0.369808
v -0.469545 0.286795 0.411366
v -0.452332 0.286795 0.452923
v -0.410773 0.286795 0.470137
v -0.369217 0.286795 0.452923
v -0.352003 0.286795 0.411366
v -0.369217 0.286795 0.369808
v -0.410773 0.323584 0.352594
v -0.452332 0.323584 0.369808
v -0.469545 0.323584 0.411366
v -0.452332 0.323584 0.452923
v -0.410773 0.323584 0.470137
v -0.369217 0.323584 0.452923
v -0.352003 0.323584 0.411366
v -0.369217 0.323584 0.369808
v -0.444649 0.333904 0.377491
v -0.458681 0.333904 0.411366
v -0.444649 0.333904 0.445241
v -0.410773 0.333904 0.459272
v -0.376898 0.333904 0.445241
v -0.362867 0.333904 0.411366
v -0.376898 0.333904 0.377491
v -0.410773 0.333904 0.363459
v 0.409271 0.286795 0.352594
v 0.367714 0.286795 0.369808
v 0.350500 0.286795 0.411366
v 0.367714 0.286795 0.452923
v 0.409271 0.286795 0.470137
v 0.450829 0.286795 0.452923
v 0.468043 0.286795 0.411366
v 0.450829 0.286795 0.369808
v 0.409271 0.323584 0.352594
v 0.367714 0.323584 0.369808
v 0.350500 0.323584 0.411366
v 0.367714 0.323584 0.452923
v 0.409271 0.323584 0.470137
v 0.450829 0.323584 0.452923
v 0.468043 0.323584 0.411366
v 0.450829 0.323584 0.369808
v 0.375396 0.333904 0.377491
v 0.361365 0.333904 0.411366
v 0.375396 0.333904 0.445241
v 0.409271 0.333904 0.459272
v 0.443147 0.333904 0.445241
v 0.457178 0.333904 0.411366
v 0.443147 0.333904 0.377491
v 0.409271 0.333904 0.363460
vn 0.3416 -0.3416 0.8756
vn 0.3416 0.3416 0.8756
vn -0.3416 0.3416 0.8756
vn -0.3416 -0.3416 0.8756
vn 0.8756 -0.3416 -0.3416
vn 0.8756 0.3416 -0.3416
vn 0.8756 0.3416 0.3416
vn 0.8756 -0.3416 0.3416
vn 0.1613 0.9704 -0.1798
vn -0.3404 0.9165 -0.2100
vn -0.3043 0.9096 0.2830
vn 0.1958 0.9256 0.3239
vn -0.8756 -0.3416 0.3416
vn -0.8756 0.3416 0.3416
vn -0.8756 0.3416 -0.3416
vn -0.8756 -0.3416 -0.3416
vn -0.3416 -0.3416 -0.8756
vn -0.3416 0.3416 -0.8756
vn 0.3416 0.3416 -0.8756
vn 0.3416 -0.3416 -0.8756
vn -0.3416 -0.8756 0.3416
vn -0.4359 0.7861 0.4382
vn -0.3416 -0.8756 -0.3416
vn -0.4285 0.7925 -0.4340
vn 0.3416 -0.8756 0.3416
vn 0.4281 0.7985 0.4232
vn 0.3416 -0.8756 -0.3416
vn 0.4221 0.8031 -0.4205
vn -0.6375 0.7646 -0.0949
vn -0.7052 0.7090 0.0006
vn 0.0794 0.7849 -0.6145
vn -0.0002 0.8180 -0.5752
vn 0.5698 0.8218 -0.0029
vn 0.5700 0.8216 0.0076
vn 0.0924 0.7741 0.6263
vn 0.0873 0.7737 0.6275
vn 0.2778 0.9374 -0.2103
vn -0.2259 0.9600 -0.1654
vn -0.2595 0.9132 0.3141
vn 0.2408 0.9258 0.2914
vn 0.2190 0.9633 -0.1553
vn -0.2828 0.9476 -0.1486
vn -0.2834 0.8979 0.3367
vn 0.2195 0.9120 0.3465
vn 0.2441 0.9340 -0.2609
vn -0.2600 0.9225 -0.2853
vn -0.2179 0.9564 0.1945
vn 0.2737 0.9313 0.2404
vn 0.3000 0.9247 -0.2343
vn -0.2035 0.9535 -0.2224
vn -0.1995 0.9471 0.2513
vn 0.2960 0.9178 0.2647
vn 0.2196 0.9227 -0.3168
vn -0.2840 0.9081 -0.3078
vn -0.2747 0.9449 0.1780
vn 0.2122 0.9594 0.1858
vn 0.2203 0.9462 -0.2369
vn -0.2845 0.9309 -0.2291
vn -0.2801 0.9245 0.2586
vn 0.2168 0.9389 0.2673
vn 0.1959 0.9354 -0.2943
vn -0.3085 0.9168 -0.2534
vn -0.3355 0.9110 0.2397
vn 0.1548 0.9653 0.2105
vn 0.1390 0.9614 -0.2375
vn -0.3628 0.9021 -0.2339
vn -0.3580 0.8957 0.2637
vn 0.1361 0.9538 0.2677
vn -0.0894 0.8244 -0.5589
vn 0.5276 0.8445 0.0916
vn 0.0907 0.8357 -0.5416
vn -0.6409 0.7631 0.0828
vn 0.3244 0.9204 -0.2182
vn -0.0000 0.8511 -0.5251
vn -0.6666 0.7414 0.0773
vn -0.6329 0.7697 -0.0835
vn 0.0867 0.7990 0.5950
vn 0.0852 0.8176 -0.5695
vn -0.6121 0.7908 -0.0000
vn 0.0811 0.7782 0.6227
vn -0.6596 0.7476 -0.0779
vn -0.0000 0.8156 0.5786
vn 0.5468 0.8328 -0.0868
vn 0.3113 0.8998 -0.3058
vn -0.0000 0.8151 -0.5794
vn -0.6651 0.7467 -0.0000
vn -0.0000 0.7745 0.6325
vn 0.3328 0.8886 0.3157
vn -0.0852 0.7860 0.6123
vn 0.5195 0.8495 -0.0922
vn 0.2273 0.9192 -0.3216
vn -0.0841 0.8067 -0.5850
vn -0.0798 0.7659 0.6380
vn 0.4985 0.8669 -0.0000
vn 0.1246 -0.0421 0.9913
vn 0.0702 -0.0851 0.9939
vn 0.1058 -0.0566 0.9928
vn 0.1674 -0.0418 -0.9850
vn -0.0000 -1.0000 -0.0000
vn -0.9919 -0.0585 -0.1130
vn -0.9933 -0.0880 -0.0750
vn -0.9902 -0.0433 -0.1331
vn -0.0000 1.0000 -0.0000
vn 0.9830 -0.0430 -0.1784
vn 0.0439 -0.1055 0.9934
vn 0.0878 -0.0704 0.9937
vn -0.9929 -0.0729 -0.0938
vn -0.9929 -0.1093 -0.0470
vn 0.9910 -0.0601 -0.1199
vn 0.9891 -0.0421 -0.1411
vn 0.9926 -0.0921 -0.0796
vn -0.1710 -0.0418 -0.9844
vn -0.1246 -0.0421 0.9913
vn -0.1058 -0.0566 0.9928
vn -0.0702 -0.0851 0.9939
vn -0.0439 -0.1055 0.9934
vn -0.9811 -0.0417 -0.1890
vn -0.0878 -0.0704 0.9937
vn 0.9920 -0.1159 -0.0498
vn 0.9920 -0.0773 -0.0995
vn -0.0000 -0.1403 -0.9901
vn 0.1869 -0.0394 0.9816
vn 0.1394 -0.0398 -0.9894
vn 0.1183 -0.0598 -0.9912
vn 0.0785 -0.0928 -0.9926
vn -0.9933 -0.0880 0.0750
vn -0.9919 -0.0585 0.1130
vn -0.9902 -0.0433 0.1331
vn 0.0982 -0.0788 -0.9920
vn 0.0492 -0.1181 -0.9918
vn 0.9816 -0.0429 0.1860
vn 0.9894 -0.1453 -0.0000
vn -0.9929 -0.1093 0.0470
vn -0.9929 -0.0729 0.0938
vn 0.9926 -0.0921 0.0796
vn 0.9891 -0.0421 0.1411
vn 0.9910 -0.0601 0.1199
vn -0.1394 -0.0398 -0.9894
vn -0.0785 -0.0928 -0.9926
vn -0.1183 -0.0598 -0.9912
vn -0.0492 -0.1181 -0.9918
vn -0.0982 -0.0788 -0.9920
vn -0.1910 -0.0394 0.9808
vn -0.0000 -0.1569 0.9876
vn -0.9795 -0.0417 0.1971
vn 0.9920 -0.1159 0.0498
vn 0.9920 -0.0773 0.0995
vn -0.9881 -0.1541 -0.0000
vn -0.7071 -0.0000 0.7071
vn -0.0000 -0.0000 1.0000
vn -0.0000 0.3634 0.9316
vn -0.6588 0.3634 0.6588
vn -0.7071 -0.0000 -0.7071
vn -1.0000 -0.0000 -0.0000
vn -0.9316 0.3634 -0.0000
vn -0.6588 0.3634 -0.6588
vn 1.0000 -0.0000 -0.0000
vn 0.7071 -0.0000 -0.7071
vn 0.6588 0.3634 -0.6588
vn 0.9316 0.3634 -0.0000
vn 0.7071 -0.0000 0.7071
vn 0.6588 0.3634 0.6588
vn -0.0000 -0.0000 -1.0000
vn -0.0000 0.3634 -0.9316
vn -0.3146 0.8956 -0.3146
vn -0.4449 0.8956 -0.0000
vn -0.3146 0.8956 0.3146
vn -0.0000 0.8956 0.4449
vn 0.3146 0.8956 0.3146
vn 0.4449 0.8956 -0.0000
vn 0.3146 0.8956 -0.3146
vn -0.0000 0.8956 -0.4448
vt 0.303137 0.920682
vt 0.303137 0.920682
vt 0.303137 0.920682
vt 0.303137 0.920682
vt 0.303137 0.920682
vt 0.303137 0.920682
vt 0.303137 0.920682
vt 0.303137 0.920682
vt 0.303137 0.920682
vt 0.303137 0.920682
vt 0.303137 0.920682
vt 0.303137 0.920682
vt 0.303137 0.920682
vt 0.303137 0.920682
vt 0.303137 0.920682
vt 0.303137 0.920682
vt 0.303137 0.920682
vt 0.303137 0.920682
vt 0.303137 0.920682
vt 0.303137 0.920682
vt 0.303137 0.920682
vt 0.303137 0.920682
vt 0.303137 0.920682
vt 0.303137 0.920682
vt 0.303137 0.920682
vt 0.303137 0.920682
vt 0.303137 0.920682
vt 0.303137 0.920682
vt 0.303137 0.920682
vt 0.303137 0.920682
vt 0.303137 0.920682
vt 0.303137 0.920682
vt 0.303137 0.920682
vt 0.303137 0.920682
vt 0.303137 0.920682
vt 0.303137 0.920682
vt 0.303137 0.920682
vt 0.303137 0.920682
vt 0.303137 0.920682
vt 0.303137 0.920682
vt 0.303137 0.920682
vt 0.303137 0.920682
vt 0.303137 0.920682
vt 0.303137 0.920682
vt 0.303137 0.920682
vt 0.303137 0.920682
vt 0.303137 0.920682
vt 0.303137 0.920682
vt 0.303137 0.920682
vt 0.303137 0.920682
vt 0.303137 0.920682
vt 0.303137 0.920682
vt 0.303137 0.920682
vt 0.303137 0.920682
vt 0.303137 0.920682
vt 0.303137 0.920682
vt 0.303137 0.920682
vt 0.303137 0.920682
vt 0.303137 0.920682
vt 0.303137 0.920682
vt 0.303137 0.920682
vt 0.303137 0.920682
vt 0.303137 0.920682
vt 0.303137 0.920682
vt 0.303137 0.920682
vt 0.303137 0.920682
vt 0.303137 0.920682
vt 0.303137 0.920682
vt 0.303137 0.920682
vt 0.303137 0.920682
vt 0.303137 0.920682
vt 0.303137 0.920682
vt 0.849431 0.106163
vt 0.849431 0.106163
vt 0.849431 0.106163
vt 0.849431 0.106163
vt 0.849431 0.106163
vt 0.849431 0.106163
vt 0.849431 0.106163
vt 0.849431 0.106163
vt 0.849431 0.106163
vt 0.849431 0.106163
vt 0.849431 0.106163
vt 0.849431 0.106163
vt 0.849431 0.106163
vt 0.849431 0.106163
vt 0.849431 0.106163
vt 0.849431 0.106163
vt 0.849431 0.106163
vt 0.849431 0.106163
vt 0.849431 0.106163
vt 0.849431 0.106163
vt 0.849431 0.106163
vt 0.849431 0.106163
vt 0.849431 0.106163
vt 0.849431 0.106163
vt 0.849431 0.106163
vt 0.849431 0.106163
vt 0.849431 0.106163
vt 0.849431 0.106163
vt 0.849431 0.106163
vt 0.849431 0.106163
vt 0.849431 0.106163
vt 0.849431 0.106163
vt 0.849431 0.106163
vt 0.849431 0.106163
vt 0.849431 0.106163
vt 0.849431 0.106163
vt 0.849431 0.106163
vt 0.849431 0.106163
vt 0.849431 0.106163
vt 0.849431 0.106163
vt 0.849431 0.106163
vt 0.849431 0.106163
vt 0.849431 0.106163
vt 0.849431 0.106163
vt 0.849431 0.106163
vt 0.849431 0.106163
vt 0.849431 0.106163
vt 0.849431 0.106163
vt 0.851892 0.106163
vt 0.851892 0.106163
vt 0.851892 0.106163
vt 0.851892 0.106163
vt 0.851892 0.106163
vt 0.851892 0.106163
vt 0.851892 0.106163
vt 0.851892 0.106163
vt 0.851892 0.106163
vt 0.851892 0.106163
vt 0.851892 0.106163
vt 0.851892 0.106163
vt 0.851892 0.106163
vt 0.851892 0.106163
vt 0.851892 0.106163
vt 0.851892 0.106163
vt 0.851892 0.106163
vt 0.851892 0.106163
vt 0.851892 0.106163
vt 0.851892 0.106163
vt 0.851892 0.106163
vt 0.851892 0.106163
vt 0.851892 0.106163
vt 0.851892 0.106163
vt 0.851892 0.106163
vt 0.851892 0.106163
vt 0.851892 0.106163
vt 0.851892 0.106163
vt 0.851892 0.106163
vt 0.851892 0.106163
vt 0.851892 0.106163
vt 0.851892 0.106163
vt 0.851892 0.106163
vt 0.851892 0.106163
vt 0.851892 0.106163
vt 0.851892 0.106163
vt 0.851892 0.106163
vt 0.851892 0.106163
vt 0.851892 0.106163
vt 0.851892 0.106163
vt 0.851892 0.106163
vt 0.851892 0.106163
vt 0.851892 0.106163
vt 0.851892 0.106163
vt 0.851892 0.106163
vt 0.851892 0.106163
vt 0.851892 0.106163
vt 0.851892 0.106163
vt 0.851892 0.106163
vt 0.851892 0.106163
vt 0.851892 0.106163
vt 0.851892 0.106163
vt 0.851892 0.106163
vt 0.851892 0.106163
vt 0.851892 0.106163
vt 0.851892 0.106163
vt 0.851892 0.106163
vt 0.851892 0.106163
vt 0.851892 0.106163
vt 0.851892 0.106163
vt 0.851892 0.106163
vt 0.851892 0.106163
vt 0.851892 0.106163
vt 0.851892 0.106163
vt 0.851892 0.106163
vt 0.851892 0.106163
vt 0.851892 0.106163
vt 0.851892 0.106163
vt 0.851892 0.106163
vt 0.851892 0.106163
vt 0.851892 0.106163
vt 0.851892 0.106163
vt 0.851892 0.106163
vt 0.851892 0.106163
vt 0.851892 0.106163
vt 0.851892 0.106163
vt 0.851892 0.106163
vt 0.851892 0.106163
vt 0.851892 0.106163
vt 0.851892 0.106163
vt 0.851892 0.106163
vt 0.851892 0.106163
vt 0.851892 0.106163
vt 0.851892 0.106163
vt 0.851892 0.106163
vt 0.851892 0.106163
vt 0.851892 0.106163
vt 0.851892 0.106163
vt 0.851892 0.106163
vt 0.851892 0.106163
vt 0.851892 0.106163
vt 0.851892 0.106163
vt 0.851892 0.106163
vt 0.851892 0.106163
vt 0.851892 0.106163
vt 0.851892 0.106163
s 1
usemtl Material
f 15/15/1 17/17/2 4/4/3 2/2/4
f 21/21/5 23/23/6 18/18/7 14/14/8
f 37/37/9 38/38/10 39/39/11 40/40/12
f 3/3/13 6/6/14 12/12/15 8/8/16
f 9/9/17 11/11/18 24/24/19 20/20/20
f 1/1/21 2/2/4 3/3/13
f 4/4/3 5/5/22 6/6/14
f 7/7/23 8/8/16 9/9/17
f 10/10/24 11/11/18 12/12/15
f 13/13/25 14/14/8 15/15/1
f 16/16/26 17/17/2 18/18/7
f 19/19/27 20/20/20 21/21/5
f 22/22/28 23/23/6 24/24/19
f 7/7/23 1/1/21 3/3/13 8/8/16
f 2/2/4 4/4/3 6/6/14 3/3/13
f 5/5/22 25/25/29 26/26/30 10/10/24 12/12/15 6/6/14
f 11/11/18 9/9/17 8/8/16 12/12/15
f 19/19/27 7/7/23 9/9/17 20/20/20
f 10/10/24 27/27/31 28/28/32 22/22/28 24/24/19 11/11/18
f 23/23/6 21/21/5 20/20/20 24/24/19
f 13/13/25 19/19/27 21/21/5 14/14/8
f 22/22/28 29/29/33 30/30/34 16/16/26 18/18/7 23/23/6
f 17/17/2 15/15/1 14/14/8 18/18/7
f 1/1/21 13/13/25 15/15/1 2/2/4
f 16/16/26 31/31/35 32/32/36 5/5/22 4/4/3 17/17/2
f 7/7/23 19/19/27 13/13/25 1/1/21
f 41/41/37 42/42/38 43/43/39 44/44/40
f 45/45/41 46/46/42 47/47/43 48/48/44
f 49/49/45 50/50/46 51/51/47 52/52/48
f 53/53/49 54/54/50 55/55/51 56/56/52
f 57/57/53 58/58/54 59/59/55 60/60/56
f 61/61/57 62/62/58 63/63/59 64/64/60
f 65/65/61 66/66/62 67/67/63 68/68/64
f 69/69/65 70/70/66 71/71/67 72/72/68
f 36/36/69 25/25/29 38/38/10 37/37/9
f 25/25/29 5/5/22 39/39/11 38/38/10
f 5/5/22 32/32/36 40/40/12 39/39/11
f 32/32/36 36/36/70 37/37/9 40/40/12
f 30/30/34 34/34/71 42/42/38 41/41/37
f 34/34/72 31/31/72 43/43/39 42/42/38
f 31/31/35 16/16/26 44/44/40 43/43/39
f 16/16/26 30/30/34 41/41/37 44/44/40
f 34/34/73 36/36/74 46/46/42 45/45/41
f 36/36/75 32/32/75 47/47/43 46/46/42
f 32/32/36 31/31/35 48/48/44 47/47/43
f 31/31/35 34/34/73 45/45/41 48/48/44
f 22/22/28 28/28/32 50/50/46 49/49/45
f 28/28/32 33/33/76 51/51/47 50/50/46
f 33/33/77 29/29/33 52/52/48 51/51/47
f 29/29/33 22/22/28 49/49/45 52/52/48
f 29/29/33 33/33/78 54/54/50 53/53/49
f 33/33/79 34/34/79 55/55/51 54/54/50
f 34/34/80 30/30/34 56/56/52 55/55/51
f 30/30/34 29/29/33 53/53/49 56/56/52
f 28/28/32 27/27/31 58/58/54 57/57/53
f 27/27/81 35/35/81 59/59/55 58/58/54
f 35/35/82 33/33/82 60/60/56 59/59/55
f 33/33/83 28/28/32 57/57/53 60/60/56
f 33/33/84 35/35/85 62/62/58 61/61/57
f 35/35/86 36/36/86 63/63/59 62/62/58
f 36/36/87 34/34/88 64/64/60 63/63/59
f 34/34/88 33/33/84 61/61/57 64/64/60
f 27/27/31 10/10/24 66/66/62 65/65/61
f 10/10/24 26/26/30 67/67/63 66/66/62
f 26/26/89 35/35/89 68/68/64 67/67/63
f 35/35/90 27/27/31 65/65/61 68/68/64
f 35/35/91 26/26/92 70/70/66 69/69/65
f 26/26/30 25/25/29 71/71/67 70/70/66
f 25/25/93 36/36/93 72/72/68 71/71/67
f 36/36/94 35/35/91 69/69/65 72/72/68
f 75/75/95 76/76/96 74/74/97 73/73/95
f 80/80/98 77/77/98 78/78/98 79/79/98
f 73/73/99 77/77/99 80/80/99 75/75/99
f 74/74/100 78/78/101 77/77/102 73/73/102
f 106/106/103 105/105/103 83/83/103 84/84/103
f 75/75/104 80/80/104 79/79/104 76/76/104
f 82/82/103 84/84/103 83/83/103 81/81/103
f 74/74/97 76/76/96 82/82/105 81/81/106
f 78/78/101 74/74/100 81/81/107 83/83/108
f 85/85/99 87/87/99 92/92/99 89/89/99
f 86/86/109 85/85/110 89/89/110 90/90/111
f 92/92/112 91/91/112 90/90/112 89/89/112
f 117/117/103 118/118/103 96/96/103 95/95/103
f 87/87/113 85/85/113 86/86/114 88/88/115
f 96/96/103 84/84/103 82/82/103 94/94/103
f 94/94/116 82/82/105 76/76/96 88/88/115
f 88/88/99 76/76/99 79/79/99 91/91/99
f 87/87/117 88/88/117 91/91/117 92/92/117
f 94/94/103 93/93/103 95/95/103 96/96/103
f 86/86/114 93/93/118 94/94/116 88/88/115
f 90/90/111 95/95/119 93/93/120 86/86/109
f 91/91/121 79/79/121 84/84/121 96/96/121
f 99/99/122 100/100/122 98/98/122 97/97/122
f 104/104/123 101/101/123 102/102/124 103/103/125
f 97/97/99 101/101/99 104/104/99 99/99/99
f 98/98/126 102/102/127 101/101/128 97/97/128
f 103/103/125 102/102/124 107/107/129 108/108/130
f 99/99/131 104/104/131 103/103/131 100/100/131
f 106/106/103 108/108/103 107/107/103 105/105/103
f 100/100/132 106/106/132 84/84/132 79/79/132
f 102/102/127 98/98/126 105/105/133 107/107/134
f 109/109/99 111/111/99 116/116/99 113/113/99
f 110/110/135 109/109/136 113/113/136 114/114/137
f 116/116/138 115/115/139 114/114/140 113/113/138
f 115/115/139 120/120/141 119/119/142 114/114/140
f 111/111/143 109/109/143 110/110/143 112/112/143
f 120/120/103 108/108/103 106/106/103 118/118/103
f 118/118/144 106/106/144 100/100/144 112/112/144
f 112/112/99 100/100/99 103/103/99 115/115/99
f 111/111/145 112/112/145 115/115/145 116/116/145
f 118/118/103 117/117/103 119/119/103 120/120/103
f 110/110/135 117/117/146 95/95/119 90/90/111
f 114/114/137 119/119/147 117/117/146 110/110/135
f 115/115/139 103/103/125 108/108/130 120/120/141
f 118/118/148 112/112/148 91/91/148 96/96/148
f 112/112/99 110/110/99 90/90/99 91/91/99
f 105/105/133 98/98/126 78/78/101 83/83/108
f 98/98/99 100/100/99 79/79/99 78/78/99
f 124/124/149 125/125/150 133/133/151 132/132/152
f 122/122/153 123/123/154 131/131/155 130/130/156
f 127/127/157 128/128/158 136/136/159 135/135/160
f 125/125/150 126/126/161 134/134/162 133/133/151
f 123/123/154 124/124/149 132/132/152 131/131/155
f 121/121/163 122/122/153 130/130/156 129/129/164
f 128/128/158 121/121/163 129/129/164 136/136/159
f 126/126/161 127/127/157 135/135/160 134/134/162
f 137/137/165 138/138/166 139/139/167 140/140/168 141/141/169 142/142/170 143/143/171 144/144/172
f 130/130/156 131/131/155 138/138/166 137/137/165
f 131/131/155 132/132/152 139/139/167 138/138/166
f 132/132/152 133/133/151 140/140/168 139/139/167
f 133/133/151 134/134/162 141/141/169 140/140/168
f 134/134/162 135/135/160 142/142/170 141/141/169
f 135/135/160 136/136/159 143/143/171 142/142/170
f 136/136/159 129/129/164 144/144/172 143/143/171
f 129/129/164 130/130/156 137/137/165 144/144/172
f 148/148/149 149/149/150 157/157/151 156/156/152
f 146/146/153 147/147/154 155/155/155 154/154/156
f 151/151/157 152/152/158 160/160/159 159/159/160
f 149/149/150 150/150/161 158/158/162 157/157/151
f 147/147/154 148/148/149 156/156/152 155/155/155
f 145/145/163 146/146/153 154/154/156 153/153/164
f 152/152/158 145/145/163 153/153/164 160/160/159
f 150/150/161 151/151/157 159/159/160 158/158/162
f 161/161/165 162/162/166 163/163/167 164/164/168 165/165/169 166/166/170 167/167/171 168/168/172
f 154/154/156 155/155/155 162/162/166 161/161/165
f 155/155/155 156/156/152 163/163/167 162/162/166
f 156/156/152 157/157/151 164/164/168 163/163/167
f 157/157/151 158/158/162 165/165/169 164/164/168
f 158/158/162 159/159/160 166/166/170 165/165/169
f 159/159/160 160/160/159 167/167/171 166/166/170
f 160/160/159 153/153/164 168/168/172 167/167/171
f 153/153/164 154/154/156 161/161/165 168/168/172
f 172/172/149 173/173/150 181/181/151 180/180/152
f 170/170/153 171/171/154 179/179/155 178/178/156
f 175/175/157 176/176/158 184/184/159 183/183/160
f 173/173/150 174/174/161 182/182/162 181/181/151
f 171/171/154 172/172/149 180/180/152 179/179/155
f 169/169/163 170/170/153 178/178/156 177/177/164
f 176/176/158 169/169/163 177/177/164 184/184/159
f 174/174/161 175/175/157 183/183/160 182/182/162
f 185/185/165 186/186/166 187/187/167 188/188/168 189/189/169 190/190/170 191/191/171 192/192/172
f 178/178/156 179/179/155 186/186/166 185/185/165
f 179/179/155 180/180/152 187/187/167 186/186/166
f 180/180/152 181/181/151 188/188/168 187/187/167
f 181/181/151 182/182/162 189/189/169 188/188/168
f 182/182/162 183/183/160 190/190/170 189/189/169
f 183/183/160 184/184/159 191/191/171 190/190/170
f 184/184/159 177/177/164 192/192/172 191/191/171
f 177/177/164 178/178/156 185/185/165 192/192/172
f 196/196/149 197/197/150 205/205/151 204/204/152
f 194/194/153 195/195/154 203/203/155 202/202/156
f 199/199/157 200/200/158 208/208/159 207/207/160
f 197/197/150 198/198/161 206/206/162 205/205/151
f 195/195/154 196/196/149 204/204/152 203/203/155
f 193/193/163 194/194/153 202/202/156 201/201/164
f 200/200/158 193/193/163 201/201/164 208/208/159
f 198/198/161 199/199/157 207/207/160 206/206/162
f 209/209/165 210/210/166 211/211/167 212/212/168 213/213/169 214/214/170 215/215/171 216/216/172
f 202/202/156 203/203/155 210/210/166 209/209/165
f 203/203/155 204/204/152 211/211/167 210/210/166
f 204/204/152 205/205/151 212/212/168 211/211/167
f 205/205/151 206/206/162 213/213/169 212/212/168
f 206/206/162 207/207/160 214/214/170 213/213/169
f 207/207/160 208/208/159 215/215/171 214/214/170
f 208/208/159 201/201/164 216/216/172 215/215/171
f 201/201/164 202/202/156 209/209/165 216/216/172
