# Blender 3.4.1
# www.blender.org
mtllib pouffe004.mtl
o pouffes.004
v -1.138240 0.397578 1.127035
v -1.138240 0.436217 1.165673
v -1.176874 0.436217 1.127035
v -1.138240 0.739653 1.165673
v -1.138240 0.765041 1.127035
v -1.176874 0.739653 1.127035
v -1.138240 0.397578 -1.121524
v -1.176874 0.436217 -1.121524
v -1.138240 0.436217 -1.160165
v -1.138240 0.765041 -1.121524
v -1.138240 0.739653 -1.160165
v -1.176874 0.739653 -1.121524
v 1.129502 0.397578 1.127035
v 1.168135 0.436217 1.127035
v 1.129502 0.436217 1.165673
v 1.129502 0.765041 1.127035
v 1.129502 0.739653 1.165673
v 1.168135 0.739653 1.127035
v 1.129502 0.397578 -1.121524
v 1.129502 0.436217 -1.160165
v 1.168135 0.436217 -1.121524
v 1.129502 0.765041 -1.121524
v 1.168135 0.739653 -1.121524
v 1.129502 0.739653 -1.160165
v 1.018809 -0.805790 1.047348
v 1.087845 -0.805790 1.047348
v 1.018809 0.334660 1.047348
v 1.087845 -0.805790 0.979518
v 1.018809 -0.805790 0.979518
v 1.018809 0.334660 0.979518
v 1.087845 0.334660 1.047348
v 1.087845 0.334660 0.979518
v 1.087845 -0.905088 1.047348
v 1.018809 -0.905088 1.047348
v 1.087845 -0.905088 0.979518
v 1.018809 -0.905088 0.979518
v -1.085617 -0.805790 1.047348
v -1.016580 -0.805790 1.047348
v -1.085617 0.334660 1.047348
v -1.016580 -0.805790 0.979518
v -1.085617 -0.805790 0.979518
v -1.085617 0.334660 0.979518
v -1.016580 0.334660 1.047348
v -1.016580 0.334660 0.979518
v -1.016580 -0.905088 1.047348
v -1.085617 -0.905088 1.047348
v -1.016580 -0.905088 0.979518
v -1.085617 -0.905088 0.979518
v -1.085617 -0.805790 -0.982107
v -1.016580 -0.805790 -0.982107
v -1.085617 0.334660 -0.982107
v -1.016580 -0.805790 -1.049934
v -1.085617 -0.805790 -1.049934
v -1.085617 0.334660 -1.049934
v -1.016580 0.334660 -0.982107
v -1.016580 0.334660 -1.049934
v -1.016580 -0.905088 -0.982107
v -1.085617 -0.905088 -0.982107
v -1.016580 -0.905088 -1.049934
v -1.085617 -0.905088 -1.049934
v 1.018809 -0.805790 -0.982106
v 1.087845 -0.805790 -0.982106
v 1.018809 0.334660 -0.982106
v 1.087845 -0.805790 -1.049934
v 1.018809 -0.805790 -1.049934
v 1.018809 0.334660 -1.049934
v 1.087845 0.334660 -0.982106
v 1.087845 0.334660 -1.049934
v 1.087845 -0.905088 -0.982106
v 1.018809 -0.905088 -0.982106
v 1.087845 -0.905088 -1.049934
v 1.018809 -0.905088 -1.049934
v 1.018809 0.415018 1.047348
v 1.018809 0.415018 0.979518
v 1.087845 0.415018 1.047348
v 1.087845 0.415018 0.979518
v -1.085617 0.415018 1.047348
v -1.085617 0.415018 0.979518
v -1.016580 0.415018 1.047348
v -1.016580 0.415018 0.979518
v -1.085617 0.415018 -0.982107
v -1.085617 0.415018 -1.049934
v -1.016580 0.415018 -0.982107
v -1.016580 0.415018 -1.049934
v 1.018809 0.415018 -0.982106
v 1.018809 0.415018 -1.049934
v 1.087845 0.415018 -0.982106
v 1.087845 0.415018 -1.049934
v 1.020163 0.042432 0.986263
v -1.015970 0.042432 0.986263
v 1.020163 0.122791 0.986263
v -1.015970 0.122791 0.986263
v -1.015970 0.042432 -0.984178
v -1.015970 0.122791 -0.984178
v 1.020163 0.122791 -0.984178
v 1.020163 0.042432 -0.984178
v -1.090623 0.122791 1.060919
v 1.094817 0.122791 1.060919
v -1.090623 0.042432 1.060919
v 1.094817 0.042432 1.060919
v -1.090623 0.122791 -1.058835
v 1.094817 0.122791 -1.058834
v -1.090623 0.042432 -1.058835
v 1.094817 0.042432 -1.058834
vn 0.3416 -0.3416 0.8756
vn 0.3301 0.4225 0.8441
vn -0.3301 0.4225 0.8441
vn -0.3416 -0.3416 0.8756
vn 0.8756 -0.3416 -0.3416
vn 0.8441 0.4225 -0.3300
vn 0.8441 0.4225 0.3300
vn 0.8756 -0.3416 0.3416
vn 0.2661 0.9265 -0.2661
vn -0.2661 0.9265 -0.2661
vn -0.2661 0.9265 0.2661
vn 0.2661 0.9265 0.2661
vn -0.8756 -0.3416 0.3416
vn -0.8441 0.4225 0.3300
vn -0.8441 0.4225 -0.3300
vn -0.8756 -0.3416 -0.3416
vn -0.3416 -0.3416 -0.8756
vn -0.3301 0.4226 -0.8441
vn 0.3301 0.4226 -0.8441
vn 0.3416 -0.3416 -0.8756
vn -0.3416 -0.8756 0.3416
vn -0.3416 -0.8756 -0.3416
vn 0.3416 -0.8756 0.3416
vn 0.3416 -0.8756 -0.3416
vn 0.3015 -0.3015 -0.9045
vn -0.7071 -0.0000 -0.7071
vn -0.5774 0.5774 -0.5774
vn -0.0000 0.7071 -0.7071
vn -0.2272 -0.8040 0.5495
vn 0.2965 -0.6304 -0.7174
vn 0.2272 -0.8040 -0.5495
vn -0.2965 -0.6304 0.7174
vn 0.7071 -0.0000 0.7071
vn 0.7071 -0.0000 -0.7071
vn 0.9045 -0.3015 -0.3015
vn -0.3015 -0.3015 0.9045
vn -0.5774 -0.5774 -0.5774
vn -0.0945 0.4821 -0.8710
vn -0.5266 0.1546 0.8359
vn 0.5774 -0.5774 -0.5774
vn 0.5774 -0.5774 0.5774
vn -0.7071 -0.0000 0.7071
vn 0.3015 -0.3015 0.9045
vn -0.0000 0.7071 0.7071
vn -0.5774 0.5774 0.5774
vn 0.5266 0.1546 0.8359
vn -0.5774 -0.5774 0.5774
vn 0.2965 -0.6304 0.7174
vn 0.0945 0.4821 -0.8710
vn -0.9045 -0.3015 -0.3015
vn -0.2272 -0.8040 -0.5495
vn -0.2965 -0.6304 -0.7174
vn 0.2272 -0.8040 0.5495
vn -0.3015 0.9045 0.3015
vn 0.3015 0.9045 0.3015
vn 0.0945 0.4821 0.8710
vn 0.5266 0.1546 -0.8359
vn -0.9045 -0.3015 0.3015
vn -0.0945 0.4821 0.8710
vn 0.9045 -0.3015 0.3015
vn -0.3015 -0.3015 -0.9045
vn -0.5266 0.1546 -0.8359
vn 0.5774 0.5774 0.5774
vn 0.7071 0.7071 -0.0000
vn -0.3015 0.9045 -0.3015
vn 0.3015 0.9045 -0.3015
vn -0.7071 0.7071 -0.0000
vn 0.5774 0.5774 -0.5774
vn 0.3015 -0.9045 0.3015
vn -0.3015 -0.9045 0.3015
vn 0.3015 -0.9045 -0.3015
vn -0.3015 -0.9045 -0.3015
vt 0.121039 0.891153
vt 0.121039 0.891153
vt 0.121039 0.891153
vt 0.121039 0.891153
vt 0.121039 0.891153
vt 0.121039 0.891153
vt 0.121039 0.891153
vt 0.121039 0.891153
vt 0.121039 0.891153
vt 0.121039 0.891153
vt 0.121039 0.891153
vt 0.121039 0.891153
vt 0.121039 0.891153
vt 0.121039 0.891153
vt 0.121039 0.891153
vt 0.121039 0.891153
vt 0.121039 0.891153
vt 0.121039 0.891153
vt 0.121039 0.891153
vt 0.121039 0.891153
vt 0.121039 0.891153
vt 0.121039 0.891153
vt 0.121039 0.891153
vt 0.121039 0.891153
vt 0.846970 0.098781
vt 0.846970 0.098781
vt 0.846970 0.098781
vt 0.846970 0.098781
vt 0.846970 0.098781
vt 0.846970 0.098781
vt 0.846970 0.098781
vt 0.846970 0.098781
vt 0.846970 0.098781
vt 0.846970 0.098781
vt 0.846970 0.098781
vt 0.846970 0.098781
vt 0.846970 0.098781
vt 0.846970 0.098781
vt 0.846970 0.098781
vt 0.846970 0.098781
vt 0.846970 0.098781
vt 0.846970 0.098781
vt 0.846970 0.098781
vt 0.846970 0.098781
vt 0.846970 0.098781
vt 0.846970 0.098781
vt 0.846970 0.098781
vt 0.846970 0.098781
vt 0.846970 0.098781
vt 0.846970 0.098781
vt 0.846970 0.098781
vt 0.846970 0.098781
vt 0.846970 0.098781
vt 0.846970 0.098781
vt 0.846970 0.098781
vt 0.846970 0.098781
vt 0.846970 0.098781
vt 0.846970 0.098781
vt 0.846970 0.098781
vt 0.846970 0.098781
vt 0.846970 0.098781
vt 0.846970 0.098781
vt 0.846970 0.098781
vt 0.846970 0.098781
vt 0.846970 0.098781
vt 0.846970 0.098781
vt 0.846970 0.098781
vt 0.846970 0.098781
vt 0.846970 0.098781
vt 0.846970 0.098781
vt 0.846970 0.098781
vt 0.846970 0.098781
vt 0.846970 0.098781
vt 0.846970 0.098781
vt 0.846970 0.098781
vt 0.846970 0.098781
vt 0.846970 0.098781
vt 0.846970 0.098781
vt 0.846970 0.098781
vt 0.846970 0.098781
vt 0.846970 0.098781
vt 0.846970 0.098781
vt 0.846970 0.098781
vt 0.846970 0.098781
vt 0.846970 0.098781
vt 0.846970 0.098781
vt 0.846970 0.098781
vt 0.846970 0.098781
vt 0.846970 0.098781
vt 0.846970 0.098781
vt 0.846970 0.098781
vt 0.846970 0.098781
vt 0.846970 0.098781
vt 0.846970 0.098781
vt 0.846970 0.098781
vt 0.846970 0.098781
vt 0.846970 0.098781
vt 0.846970 0.098781
vt 0.846970 0.098781
vt 0.846970 0.098781
vt 0.846970 0.098781
vt 0.846970 0.098781
vt 0.846970 0.098781
vt 0.846970 0.098781
s 1
usemtl Material
f 15/15/1 17/17/2 4/4/3 2/2/4
f 21/21/5 23/23/6 18/18/7 14/14/8
f 22/22/9 10/10/10 5/5/11 16/16/12
f 3/3/13 6/6/14 12/12/15 8/8/16
f 9/9/17 11/11/18 24/24/19 20/20/20
f 1/1/21 2/2/4 3/3/13
f 4/4/3 5/5/11 6/6/14
f 7/7/22 8/8/16 9/9/17
f 10/10/10 11/11/18 12/12/15
f 13/13/23 14/14/8 15/15/1
f 16/16/12 17/17/2 18/18/7
f 19/19/24 20/20/20 21/21/5
f 22/22/9 23/23/6 24/24/19
f 7/7/22 1/1/21 3/3/13 8/8/16
f 2/2/4 4/4/3 6/6/14 3/3/13
f 5/5/11 10/10/10 12/12/15 6/6/14
f 11/11/18 9/9/17 8/8/16 12/12/15
f 19/19/24 7/7/22 9/9/17 20/20/20
f 10/10/10 22/22/9 24/24/19 11/11/18
f 23/23/6 21/21/5 20/20/20 24/24/19
f 13/13/23 19/19/24 21/21/5 14/14/8
f 22/22/9 16/16/12 18/18/7 23/23/6
f 17/17/2 15/15/1 14/14/8 18/18/7
f 1/1/21 13/13/23 15/15/1 2/2/4
f 16/16/12 5/5/11 4/4/3 17/17/2
f 7/7/22 19/19/24 13/13/23 1/1/21
f 56/56/25 54/54/26 82/82/27 84/84/28
f 57/57/29 59/59/30 36/36/31 34/34/32
f 26/26/33 28/28/34 32/32/35 31/31/33
f 27/27/36 30/30/37 29/29/38 25/25/39
f 29/29/38 30/30/37 32/32/35 28/28/34
f 25/25/39 26/26/33 31/31/33 27/27/36
f 34/34/32 36/36/31 35/35/40 33/33/41
f 29/29/38 28/28/34 35/35/40 36/36/31
f 26/26/33 25/25/39 34/34/32 33/33/41
f 28/28/34 26/26/33 33/33/41 35/35/40
f 39/39/42 43/43/43 79/79/44 77/77/45
f 38/38/46 37/37/42 46/46/47 45/45/48
f 38/38/46 40/40/49 44/44/40 43/43/43
f 39/39/42 42/42/50 41/41/26 37/37/42
f 41/41/26 42/42/50 44/44/40 40/40/49
f 37/37/42 38/38/46 43/43/43 39/39/42
f 46/46/47 48/48/37 47/47/51 45/45/48
f 72/72/52 70/70/53 45/45/48 47/47/51
f 37/37/42 41/41/26 48/48/37 46/46/47
f 41/41/26 40/40/49 47/47/51 48/48/37
f 85/85/54 86/86/28 84/84/28 83/83/55
f 50/50/56 57/57/29 34/34/32 25/25/39
f 50/50/56 52/52/57 56/56/25 55/55/41
f 51/51/58 54/54/26 53/53/26 49/49/42
f 53/53/26 54/54/26 56/56/25 52/52/57
f 49/49/42 50/50/56 55/55/41 51/51/58
f 58/58/47 60/60/37 59/59/30 57/57/29
f 49/49/42 53/53/26 60/60/37 58/58/47
f 53/53/26 52/52/57 59/59/30 60/60/37
f 50/50/56 49/49/42 58/58/47 57/57/29
f 63/63/47 85/85/54 83/83/55 55/55/41
f 62/62/33 61/61/59 70/70/53 69/69/41
f 62/62/33 64/64/34 68/68/34 67/67/60
f 63/63/47 66/66/61 65/65/62 61/61/59
f 65/65/62 66/66/61 68/68/34 64/64/34
f 61/61/59 62/62/33 67/67/60 63/63/47
f 70/70/53 72/72/52 71/71/40 69/69/41
f 64/64/34 62/62/33 69/69/41 71/71/40
f 65/65/62 72/72/52 47/47/51 40/40/49
f 65/65/62 64/64/34 71/71/40 72/72/52
f 59/59/30 52/52/57 29/29/38 36/36/31
f 52/52/57 50/50/56 25/25/39 29/29/38
f 70/70/53 61/61/59 38/38/46 45/45/48
f 61/61/59 65/65/62 40/40/49 38/38/46
f 75/75/63 76/76/64 74/74/65 73/73/44
f 79/79/44 80/80/66 78/78/67 77/77/45
f 83/83/55 84/84/28 82/82/27 81/81/67
f 87/87/64 88/88/68 86/86/28 85/85/54
f 54/54/26 51/51/58 81/81/67 82/82/27
f 80/80/66 79/79/44 73/73/44 74/74/65
f 27/27/36 31/31/33 75/75/63 73/73/44
f 87/87/64 85/85/54 74/74/65 76/76/64
f 83/83/55 81/81/67 78/78/67 80/80/66
f 42/42/50 39/39/42 77/77/45 78/78/67
f 31/31/33 32/32/35 76/76/64 75/75/63
f 67/67/60 68/68/34 88/88/68 87/87/64
f 67/67/60 87/87/64 76/76/64 32/32/35
f 55/55/41 83/83/55 80/80/66 44/44/40
f 44/44/40 80/80/66 74/74/65 30/30/37
f 68/68/34 66/66/61 86/86/28 88/88/68
f 79/79/44 43/43/43 27/27/36 73/73/44
f 43/43/43 44/44/40 30/30/37 27/27/36
f 86/86/28 66/66/61 56/56/25 84/84/28
f 66/66/61 63/63/47 55/55/41 56/56/25
f 85/85/54 63/63/47 30/30/37 74/74/65
f 63/63/47 67/67/60 32/32/35 30/30/37
f 81/81/67 51/51/58 42/42/50 78/78/67
f 51/51/58 55/55/41 44/44/40 42/42/50
f 97/97/45 99/99/47 100/100/41 98/98/63
f 101/101/27 102/102/68 104/104/40 103/103/37
f 93/93/69 96/96/70 95/95/54 94/94/55
f 97/97/45 101/101/27 103/103/37 99/99/47
f 90/90/71 93/93/69 94/94/55 92/92/66
f 100/100/41 104/104/40 102/102/68 98/98/63
f 91/91/65 92/92/66 97/97/45 98/98/63
f 90/90/71 89/89/72 100/100/41 99/99/47
f 94/94/55 95/95/54 102/102/68 101/101/27
f 96/96/70 93/93/69 103/103/37 104/104/40
f 92/92/66 94/94/55 101/101/27 97/97/45
f 95/95/54 91/91/65 98/98/63 102/102/68
f 93/93/69 90/90/71 99/99/47 103/103/37
f 89/89/72 96/96/70 104/104/40 100/100/41
f 96/96/70 89/89/72 91/91/65 95/95/54
f 89/89/72 90/90/71 92/92/66 91/91/65
