# Blender 3.4.1
# www.blender.org
mtllib pouffe012.mtl
o pouffes.012
v 0.000001 -0.892154 -0.956873
v 0.000001 0.769793 -0.887486
v 0.366178 -0.892154 -0.884035
v 0.339626 0.769793 -0.819930
v 0.676611 -0.892154 -0.676611
v 0.627547 0.769793 -0.627548
v 0.884036 -0.892154 -0.366179
v 0.819930 0.769793 -0.339626
v 0.956872 -0.892154 0.000000
v 0.887485 0.769793 0.000000
v 0.884036 -0.892154 0.366179
v 0.819930 0.769793 0.339626
v 0.676611 -0.892154 0.676611
v 0.627547 0.769793 0.627548
v 0.366178 -0.892154 0.884035
v 0.339626 0.769793 0.819930
v 0.000001 -0.892154 0.956873
v 0.000001 0.769793 0.887486
v -0.366179 -0.892154 0.884035
v -0.339626 0.769793 0.819930
v -0.676612 -0.892154 0.676611
v -0.627548 0.769793 0.627547
v -0.884036 -0.892154 0.366179
v -0.819930 0.769793 0.339626
v -0.956873 -0.892154 -0.000000
v -0.887486 0.769793 -0.000000
v -0.884036 -0.892154 -0.366179
v -0.819930 0.769793 -0.339626
v -0.676612 -0.892154 -0.676611
v -0.627548 0.769793 -0.627547
v -0.366179 -0.892154 -0.884035
v -0.339626 0.769793 -0.819930
v 0.366178 0.646031 -0.884035
v 0.000001 0.646031 -0.956873
v 0.676611 0.646031 -0.676611
v 0.884036 0.646031 -0.366179
v 0.956872 0.646031 0.000000
v 0.884036 0.646031 0.366179
v 0.676611 0.646031 0.676611
v 0.366178 0.646031 0.884035
v 0.000001 0.646031 0.956873
v -0.366179 0.646031 0.884035
v -0.676612 0.646031 0.676611
v -0.884036 0.646031 0.366179
v -0.956873 0.646031 -0.000000
v -0.884036 0.646031 -0.366179
v -0.676612 0.646031 -0.676611
v -0.366179 0.646031 -0.884035
v 0.487247 0.798587 -0.658255
v 0.263697 0.798587 -0.789223
v -0.263697 0.798587 -0.789223
v -0.487248 0.798587 -0.658255
v 0.149208 0.798587 -0.833774
v 0.000001 0.798587 -0.859797
v -0.149206 0.798587 -0.833774
v 0.593706 0.798587 -0.603004
v -0.593707 0.798587 -0.603003
v -0.775713 0.798587 -0.364170
v 0.775715 0.798587 -0.364169
v 0.515276 0.798587 0.654488
v -0.515274 0.798587 0.654488
v -0.278863 0.798587 0.792989
v 0.278865 0.798587 0.792989
v 0.775715 0.798587 0.364170
v -0.775713 0.798587 0.364170
v -0.593707 0.798587 0.603003
v 0.593706 0.798587 0.603004
v 0.839628 0.798587 0.028952
v -0.839628 0.798587 0.028952
v -0.775713 0.798587 0.310675
v 0.775715 0.798587 0.310675
v 0.152725 0.798587 0.833570
v -0.152725 0.798587 0.833570
v 0.000001 0.798587 0.860206
v 0.775715 0.798587 -0.310674
v -0.775713 0.798587 -0.310674
v -0.839628 0.798587 -0.028951
v 0.839628 0.798587 -0.028951
v 0.000001 -0.885750 -0.848603
v 0.324746 -0.885750 -0.784007
v 0.600053 -0.885750 -0.600053
v 0.784007 -0.885750 -0.324746
v 0.848604 -0.885750 0.000000
v 0.784007 -0.885750 0.324746
v 0.600053 -0.885750 0.600053
v 0.324746 -0.885750 0.784007
v 0.000001 -0.885750 0.848603
v -0.324747 -0.885750 0.784007
v -0.600053 -0.885750 0.600053
v -0.784008 -0.885750 0.324747
v -0.848602 -0.885750 -0.000000
v -0.784008 -0.885750 -0.324746
v -0.600053 -0.885750 -0.600053
v -0.324747 -0.885750 -0.784007
v 0.000001 -1.135271 -0.848603
v 0.324746 -1.135271 -0.784007
v 0.600053 -1.135271 -0.600053
v 0.784007 -1.135271 -0.324746
v 0.848604 -1.135271 0.000000
v 0.784007 -1.135271 0.324746
v 0.600053 -1.135271 0.600053
v 0.324746 -1.135271 0.784007
v 0.000001 -1.135271 0.848603
v -0.324747 -1.135271 0.784007
v -0.600053 -1.135271 0.600053
v -0.784008 -1.135271 0.324747
v -0.848602 -1.135271 -0.000000
v -0.784008 -1.135271 -0.324746
v -0.600053 -1.135271 -0.600053
v -0.324747 -1.135271 -0.784007
vn -0.0000 -0.0000 -1.0000
vn -0.0000 0.2454 -0.9694
vn 0.3710 0.2454 -0.8956
vn 0.3827 -0.0000 -0.9239
vn 0.6855 0.2454 -0.6855
vn 0.7071 -0.0000 -0.7071
vn 0.8956 0.2454 -0.3710
vn 0.9239 -0.0000 -0.3827
vn 0.9694 0.2454 -0.0000
vn 1.0000 -0.0000 -0.0000
vn 0.8956 0.2454 0.3710
vn 0.9239 -0.0000 0.3827
vn 0.6855 0.2454 0.6855
vn 0.7071 -0.0000 0.7071
vn 0.3710 0.2454 0.8956
vn 0.3827 -0.0000 0.9239
vn -0.0000 0.2454 0.9694
vn -0.0000 -0.0000 1.0000
vn -0.3710 0.2454 0.8956
vn -0.3827 -0.0000 0.9239
vn -0.6855 0.2454 0.6855
vn -0.7071 -0.0000 0.7071
vn -0.8956 0.2454 0.3710
vn -0.9239 -0.0000 0.3827
vn -0.9694 0.2454 -0.0000
vn -1.0000 -0.0000 -0.0000
vn -0.8956 0.2454 -0.3710
vn -0.9239 -0.0000 -0.3827
vn -0.6855 0.2454 -0.6855
vn -0.7071 -0.0000 -0.7071
vn -0.3710 0.2454 -0.8956
vn -0.3827 -0.0000 -0.9239
vn -0.0000 -1.0000 -0.0000
vn -0.0000 0.5704 -0.8214
vn 0.3237 0.4989 -0.8039
vn 0.6025 0.5772 -0.5513
vn 0.7244 0.6225 -0.2960
vn 0.7714 0.6363 -0.0000
vn 0.7244 0.6225 0.2960
vn 0.5802 0.6038 0.5466
vn 0.2883 0.6555 0.6980
vn -0.0000 0.5670 0.8237
vn -0.2883 0.6555 0.6980
vn -0.5802 0.6038 0.5466
vn -0.7244 0.6226 0.2960
vn -0.7714 0.6363 -0.0000
vn -0.7244 0.6226 -0.2960
vn -0.6024 0.5772 -0.5513
vn -0.3237 0.4989 -0.8039
vn 0.2030 0.9250 -0.3211
vn 0.0392 0.9273 -0.3722
vn -0.0392 0.9273 -0.3722
vn -0.2030 0.9250 -0.3211
vn 0.1953 0.8754 -0.4422
vn 0.2384 0.8950 -0.3770
vn -0.1953 0.8754 -0.4422
vn -0.2384 0.8950 -0.3770
vn -0.0000 0.7295 0.6840
vn -0.0000 1.0000 -0.0000
vn -0.0000 0.6578 -0.7532
vn 0.1427 0.6511 -0.7455
vn -0.1427 0.6511 -0.7455
vn -0.0000 0.4333 0.9012
vn -0.0000 0.6487 -0.7610
vn -0.5470 0.7414 -0.3888
vn -0.0000 0.6487 0.7610
vn 0.5470 0.7414 -0.3888
vn -0.0000 0.6832 -0.7302
vn -0.0810 0.7440 0.6633
vn -0.2824 0.8485 0.4475
vn 0.0810 0.7440 0.6633
vn 0.2824 0.8485 0.4475
vn -0.5470 0.7414 0.3888
vn 0.5470 0.7414 0.3888
vn -0.0000 0.7090 -0.7052
vn -0.5270 0.8425 0.1115
vn -0.0000 0.7090 0.7052
vn 0.5270 0.8425 0.1115
vn -0.0000 0.4281 -0.9037
vn -0.0000 0.6511 0.7590
vn -0.1437 0.6443 0.7512
vn 0.1437 0.6443 0.7512
vn -0.5270 0.8425 -0.1115
vn 0.5270 0.8425 -0.1115
vt 0.507382 0.472820
vt 0.507382 0.472820
vt 0.507382 0.472820
vt 0.507382 0.472820
vt 0.507382 0.472820
vt 0.507382 0.472820
vt 0.507382 0.472820
vt 0.507382 0.472820
vt 0.507382 0.472820
vt 0.507382 0.472820
vt 0.507382 0.472820
vt 0.507382 0.472820
vt 0.507382 0.472820
vt 0.507382 0.472820
vt 0.507382 0.472820
vt 0.507382 0.472820
vt 0.507382 0.472820
vt 0.507382 0.472820
vt 0.507382 0.472820
vt 0.507382 0.472820
vt 0.507382 0.472820
vt 0.507382 0.472820
vt 0.507382 0.472820
vt 0.507382 0.472820
vt 0.507382 0.472820
vt 0.507382 0.472820
vt 0.507382 0.472820
vt 0.507382 0.472820
vt 0.507382 0.472820
vt 0.507382 0.472820
vt 0.507382 0.472820
vt 0.507382 0.472820
vt 0.507382 0.472820
vt 0.507382 0.472820
vt 0.507382 0.472820
vt 0.507382 0.472820
vt 0.507382 0.472820
vt 0.507382 0.472820
vt 0.507382 0.472820
vt 0.507382 0.472820
vt 0.507382 0.472820
vt 0.507382 0.472820
vt 0.507382 0.472820
vt 0.507382 0.472820
vt 0.507382 0.472820
vt 0.507382 0.472820
vt 0.507382 0.472820
vt 0.507382 0.472820
vt 0.507382 0.472820
vt 0.507382 0.472820
vt 0.507382 0.472820
vt 0.507382 0.472820
vt 0.507382 0.472820
vt 0.507382 0.472820
vt 0.507382 0.472820
vt 0.507382 0.472820
vt 0.507382 0.472820
vt 0.507382 0.472820
vt 0.507382 0.472820
vt 0.507382 0.472820
vt 0.507382 0.472820
vt 0.507382 0.472820
vt 0.507382 0.472820
vt 0.507382 0.472820
vt 0.507382 0.472820
vt 0.507382 0.472820
vt 0.507382 0.472820
vt 0.507382 0.472820
vt 0.507382 0.472820
vt 0.507382 0.472820
vt 0.507382 0.472820
vt 0.507382 0.472820
vt 0.507382 0.472820
vt 0.507382 0.472820
vt 0.507382 0.472820
vt 0.507382 0.472820
vt 0.507382 0.472820
vt 0.507382 0.472820
vt 0.706706 0.945290
vt 0.706706 0.945290
vt 0.706706 0.945290
vt 0.706706 0.945290
vt 0.706706 0.945290
vt 0.706706 0.945290
vt 0.706706 0.945290
vt 0.706706 0.945290
vt 0.706706 0.945290
vt 0.706706 0.945290
vt 0.706706 0.945290
vt 0.706706 0.945290
vt 0.706706 0.945290
vt 0.706706 0.945290
vt 0.706706 0.945290
vt 0.706706 0.945290
vt 0.706706 0.945290
vt 0.706706 0.945290
vt 0.706706 0.945290
vt 0.706706 0.945290
vt 0.706706 0.945290
vt 0.706706 0.945290
vt 0.706706 0.945290
vt 0.706706 0.945290
vt 0.706706 0.945290
vt 0.706706 0.945290
vt 0.706706 0.945290
vt 0.706706 0.945290
vt 0.706706 0.945290
vt 0.706706 0.945290
vt 0.706706 0.945290
vt 0.706706 0.945290
s 1
usemtl Material
f 1/1/1 34/34/2 33/33/3 3/3/4
f 3/3/4 33/33/3 35/35/5 5/5/6
f 5/5/6 35/35/5 36/36/7 7/7/8
f 7/7/8 36/36/7 37/37/9 9/9/10
f 9/9/10 37/37/9 38/38/11 11/11/12
f 11/11/12 38/38/11 39/39/13 13/13/14
f 13/13/14 39/39/13 40/40/15 15/15/16
f 15/15/16 40/40/15 41/41/17 17/17/18
f 17/17/18 41/41/17 42/42/19 19/19/20
f 19/19/20 42/42/19 43/43/21 21/21/22
f 21/21/22 43/43/21 44/44/23 23/23/24
f 23/23/24 44/44/23 45/45/25 25/25/26
f 25/25/26 45/45/25 46/46/27 27/27/28
f 27/27/28 46/46/27 47/47/29 29/29/30
f 29/29/30 47/47/29 48/48/31 31/31/32
f 31/31/32 48/48/31 34/34/2 1/1/1
f 1/1/33 3/3/33 5/5/33 7/7/33 9/9/33 11/11/33 13/13/33 15/15/33 17/17/33 19/19/33 21/21/33 23/23/33 25/25/33 27/27/33 29/29/33 31/31/33
f 2/2/34 4/4/35 33/33/3 34/34/2
f 4/4/35 6/6/36 35/35/5 33/33/3
f 6/6/36 8/8/37 36/36/7 35/35/5
f 8/8/37 10/10/38 37/37/9 36/36/7
f 10/10/38 12/12/39 38/38/11 37/37/9
f 12/12/39 14/14/40 39/39/13 38/38/11
f 14/14/40 16/16/41 40/40/15 39/39/13
f 16/16/41 18/18/42 41/41/17 40/40/15
f 18/18/42 20/20/43 42/42/19 41/41/17
f 20/20/43 22/22/44 43/43/21 42/42/19
f 22/22/44 24/24/45 44/44/23 43/43/21
f 24/24/45 26/26/46 45/45/25 44/44/23
f 26/26/46 28/28/47 46/46/27 45/45/25
f 28/28/47 30/30/48 47/47/29 46/46/27
f 30/30/48 32/32/49 48/48/31 47/47/29
f 32/32/49 2/2/34 34/34/2 48/48/31
f 49/49/50 50/50/51 51/51/52 52/52/53
f 4/4/54 50/50/51 49/49/50 6/6/55
f 32/32/56 51/51/52 50/50/51 4/4/54
f 30/30/57 52/52/53 51/51/52 32/32/56
f 6/6/58 49/49/58 52/52/58 30/30/58
f 53/53/59 54/54/59 55/55/59
f 2/2/34 54/54/60 53/53/61 4/4/35
f 32/32/49 55/55/62 54/54/60 2/2/34
f 4/4/63 53/53/63 55/55/63 32/32/63
f 56/56/59 57/57/59 58/58/59 59/59/59
f 30/30/64 57/57/64 56/56/64 6/6/64
f 28/28/47 58/58/65 57/57/65 30/30/48
f 8/8/66 59/59/66 58/58/66 28/28/66
f 6/6/36 56/56/67 59/59/67 8/8/37
f 60/60/59 61/61/59 62/62/59 63/63/59
f 22/22/68 61/61/68 60/60/68 14/14/68
f 20/20/43 62/62/69 61/61/70 22/22/44
f 16/16/41 63/63/71 62/62/69 20/20/43
f 14/14/40 60/60/72 63/63/71 16/16/41
f 64/64/59 65/65/59 66/66/59 67/67/59
f 24/24/64 65/65/64 64/64/64 12/12/64
f 22/22/44 66/66/73 65/65/73 24/24/45
f 14/14/66 67/67/66 66/66/66 22/22/66
f 12/12/39 64/64/74 67/67/74 14/14/40
f 68/68/59 69/69/59 70/70/59 71/71/59
f 26/26/75 69/69/75 68/68/75 10/10/75
f 24/24/45 70/70/76 69/69/76 26/26/46
f 12/12/77 71/71/77 70/70/77 24/24/77
f 10/10/38 68/68/78 71/71/78 12/12/39
f 72/72/59 73/73/59 74/74/59
f 20/20/79 73/73/79 72/72/79 16/16/79
f 18/18/42 74/74/80 73/73/81 20/20/43
f 16/16/41 72/72/82 74/74/80 18/18/42
f 75/75/59 76/76/59 77/77/59 78/78/59
f 28/28/75 76/76/75 75/75/75 8/8/75
f 26/26/46 77/77/83 76/76/83 28/28/47
f 10/10/77 78/78/77 77/77/77 26/26/77
f 8/8/37 75/75/84 78/78/84 10/10/38
f 79/79/59 94/94/59 93/93/59 92/92/59 91/91/59 90/90/59 89/89/59 88/88/59 87/87/59 86/86/59 85/85/59 84/84/59 83/83/59 82/82/59 81/81/59 80/80/59
f 95/95/33 96/96/33 97/97/33 98/98/33 99/99/33 100/100/33 101/101/33 102/102/33 103/103/33 104/104/33 105/105/33 106/106/33 107/107/33 108/108/33 109/109/33 110/110/33
f 91/91/26 92/92/28 108/108/28 107/107/26
f 84/84/12 85/85/14 101/101/14 100/100/12
f 92/92/28 93/93/30 109/109/30 108/108/28
f 85/85/14 86/86/16 102/102/16 101/101/14
f 93/93/30 94/94/32 110/110/32 109/109/30
f 86/86/16 87/87/18 103/103/18 102/102/16
f 79/79/1 80/80/4 96/96/4 95/95/1
f 94/94/32 79/79/1 95/95/1 110/110/32
f 87/87/18 88/88/20 104/104/20 103/103/18
f 80/80/4 81/81/6 97/97/6 96/96/4
f 88/88/20 89/89/22 105/105/22 104/104/20
f 81/81/6 82/82/8 98/98/8 97/97/6
f 89/89/22 90/90/24 106/106/24 105/105/22
f 82/82/8 83/83/10 99/99/10 98/98/8
f 90/90/24 91/91/26 107/107/26 106/106/24
f 83/83/10 84/84/12 100/100/12 99/99/10
