# Blender 3.4.1
# www.blender.org
mtllib pouffe013.mtl
o pouffes.013
v -0.823285 0.376827 1.112263
v -1.369855 0.376827 0.565694
v -1.096570 0.376827 1.039036
v -1.296627 0.376827 0.838979
v -1.369855 0.376827 -0.565694
v -0.823285 0.376827 -1.112263
v -1.296627 0.376827 -0.838979
v -1.096570 0.376827 -1.039037
v 1.369854 0.376827 0.565695
v 0.823286 0.376827 1.112263
v 1.296626 0.376827 0.838979
v 1.096569 0.376827 1.039036
v 0.823286 0.376827 -1.112263
v 1.369854 0.376827 -0.565694
v 1.096569 0.376827 -1.039037
v 1.296626 0.376827 -0.838978
v -1.369855 0.676893 0.565694
v -0.823285 0.676893 1.112263
v -1.296627 0.676893 0.838979
v -1.096570 0.676893 1.039036
v -0.823285 0.676893 -1.112263
v -1.369855 0.676893 -0.565694
v -1.096570 0.676893 -1.039037
v -1.296627 0.676893 -0.838979
v 1.369854 0.676893 -0.565694
v 0.823286 0.676893 -1.112263
v 1.296626 0.676893 -0.838978
v 1.096569 0.676893 -1.039037
v 0.823286 0.676893 1.112263
v 1.369854 0.676893 0.565695
v 1.096569 0.676893 1.039036
v 1.296626 0.676893 0.838979
v 1.229761 0.809156 -0.514522
v 1.163159 0.809156 -0.763086
v 0.981198 0.809156 -0.945047
v 0.732635 0.809156 -1.011649
v -0.732633 0.809156 -1.011649
v -0.981199 0.809156 -0.945047
v -1.163160 0.809156 -0.763086
v -1.229760 0.809156 -0.514522
v -1.229760 0.809156 0.514522
v -1.163160 0.809156 0.763085
v -0.981199 0.809156 0.945046
v -0.732634 0.809156 1.011649
v 0.732635 0.809156 1.011649
v 0.981198 0.809156 0.945046
v 1.163159 0.809156 0.763085
v 1.229761 0.809156 0.514522
v 0.729998 0.238781 -1.008722
v 0.977843 0.238781 -0.942312
v 1.159275 0.238781 -0.760878
v 1.225684 0.238781 -0.513033
v 1.225684 0.238781 0.513034
v 1.159275 0.238781 0.760878
v 0.977843 0.238781 0.942312
v 0.729998 0.238781 1.008722
v -0.729997 0.238781 1.008722
v -0.977842 0.238781 0.942312
v -1.159276 0.238781 0.760877
v -1.225685 0.238781 0.513034
v -1.225685 0.238781 -0.513033
v -1.159276 0.238781 -0.760878
v -0.977842 0.238781 -0.942312
v -0.729997 0.238781 -1.008722
v -0.823285 -0.481656 1.112263
v -1.369855 -0.481656 0.565694
v -1.096570 -0.481656 1.039036
v -1.296627 -0.481656 0.838979
v -1.369855 -0.481656 -0.565694
v -0.823285 -0.481656 -1.112263
v -1.296627 -0.481656 -0.838979
v -1.096570 -0.481656 -1.039037
v 1.369854 -0.481656 0.565695
v 0.823286 -0.481656 1.112263
v 1.296626 -0.481656 0.838979
v 1.096569 -0.481656 1.039036
v 0.823286 -0.481656 -1.112263
v 1.369854 -0.481656 -0.565694
v 1.096569 -0.481656 -1.039037
v 1.296626 -0.481656 -0.838978
v -1.369855 0.113861 0.565694
v -0.823285 0.113861 1.112263
v -1.296627 0.113861 0.838979
v -1.096570 0.113861 1.039036
v -0.823285 0.113861 -1.112263
v -1.369855 0.113861 -0.565694
v -1.096570 0.113861 -1.039037
v -1.296627 0.113861 -0.838979
v 1.369854 0.113861 -0.565694
v 0.823286 0.113861 -1.112263
v 1.296626 0.113861 -0.838978
v 1.096569 0.113861 -1.039037
v 0.823286 0.113861 1.112263
v 1.369854 0.113861 0.565695
v 1.096569 0.113861 1.039036
v 1.296626 0.113861 0.838979
v 1.229761 0.251010 -0.514522
v 1.163159 0.251010 -0.763086
v 0.981198 0.251010 -0.945047
v 0.732635 0.251010 -1.011649
v -0.732633 0.251010 -1.011649
v -0.981199 0.251010 -0.945047
v -1.163160 0.251010 -0.763086
v -1.229760 0.251010 -0.514522
v -1.229760 0.251010 0.514522
v -1.163160 0.251010 0.763085
v -0.981199 0.251010 0.945046
v -0.732634 0.251010 1.011649
v 0.732635 0.251010 1.011649
v 0.981198 0.251010 0.945046
v 1.163159 0.251010 0.763085
v 1.229761 0.251010 0.514522
v 0.729998 -0.619703 -1.008722
v 0.977843 -0.619703 -0.942312
v 1.159275 -0.619703 -0.760878
v 1.225684 -0.619703 -0.513033
v 1.225684 -0.619703 0.513034
v 1.159275 -0.619703 0.760878
v 0.977843 -0.619703 0.942312
v 0.729998 -0.619703 1.008722
v -0.729997 -0.619703 1.008722
v -0.977842 -0.619703 0.942312
v -1.159276 -0.619703 0.760877
v -1.225685 -0.619703 0.513034
v -1.225685 -0.619703 -0.513033
v -1.159276 -0.619703 -0.760878
v -0.977842 -0.619703 -0.942312
v -0.729997 -0.619703 -1.008722
v 0.729998 -0.619703 -1.008722
v 0.977843 -0.619703 -0.942312
v 1.159278 -0.619703 -0.760878
v 1.225687 -0.619703 -0.513033
v 1.225687 -0.619703 0.513034
v 1.159277 -0.619703 0.760878
v 0.977843 -0.619703 0.942312
v 0.729998 -0.619703 1.008722
v -0.729997 -0.619703 1.008722
v -0.977842 -0.619703 0.942312
v -1.159276 -0.619703 0.760877
v -1.225685 -0.619703 0.513034
v -1.225685 -0.619703 -0.513033
v -1.159276 -0.619703 -0.760878
v -0.977842 -0.619703 -0.942312
v -0.729997 -0.619703 -1.008722
v 0.977843 -0.745466 -0.942312
v 0.729998 -0.745466 -1.008722
v 1.159278 -0.745466 -0.760878
v 1.225687 -0.745466 -0.513033
v 1.225687 -0.745466 0.513034
v 1.159277 -0.745466 0.760878
v 0.977843 -0.745466 0.942312
v 0.729998 -0.745466 1.008722
v -0.729997 -0.745466 1.008722
v -0.977842 -0.745466 0.942312
v -1.159276 -0.745466 0.760877
v -1.225685 -0.745466 0.513034
v -1.225685 -0.745466 -0.513033
v -1.159276 -0.745466 -0.760878
v -0.977842 -0.745466 -0.942312
v -0.729997 -0.745466 -1.008722
vn -0.1355 -0.3360 0.9321
vn 0.1355 -0.3360 0.9321
vn 0.1353 0.3392 0.9309
vn -0.1353 0.3392 0.9309
vn 0.1355 -0.3360 -0.9321
vn -0.1355 -0.3360 -0.9321
vn -0.1353 0.3392 -0.9309
vn 0.1353 0.3392 -0.9309
vn 0.9122 -0.3903 0.1246
vn 0.9122 -0.3903 -0.1246
vn 0.9109 0.3933 -0.1244
vn 0.9109 0.3933 0.1244
vn 0.7966 0.3927 0.4596
vn 0.7976 -0.3899 0.4602
vn 0.4749 0.3754 0.7960
vn 0.4755 -0.3724 0.7970
vn -0.9109 0.3933 0.1244
vn -0.9122 -0.3903 0.1246
vn -0.7976 -0.3899 0.4602
vn -0.7966 0.3927 0.4596
vn -0.4755 -0.3724 0.7970
vn -0.4749 0.3754 0.7960
vn -0.9122 -0.3903 -0.1246
vn -0.9109 0.3933 -0.1244
vn -0.7966 0.3927 -0.4596
vn -0.7976 -0.3899 -0.4602
vn -0.4749 0.3754 -0.7960
vn -0.4755 -0.3724 -0.7970
vn 0.7976 -0.3899 -0.4602
vn 0.7966 0.3927 -0.4596
vn 0.4755 -0.3724 -0.7970
vn 0.4749 0.3754 -0.7960
vn 0.3843 0.9221 -0.0448
vn 0.3436 0.9178 -0.1988
vn 0.1936 0.9040 -0.3811
vn 0.0425 0.8902 -0.4537
vn -0.0425 0.8902 -0.4537
vn -0.1936 0.9040 -0.3811
vn -0.3436 0.9178 -0.1988
vn -0.3843 0.9221 -0.0448
vn -0.3843 0.9221 0.0448
vn -0.3436 0.9178 0.1988
vn -0.1936 0.9040 0.3811
vn -0.0425 0.8902 0.4537
vn 0.0425 0.8902 0.4537
vn 0.1936 0.9041 0.3811
vn 0.3436 0.9178 0.1988
vn 0.3843 0.9221 0.0448
vn 0.0429 -0.8885 -0.4568
vn 0.1953 -0.9024 -0.3841
vn 0.3466 -0.9163 -0.2006
vn 0.3877 -0.9207 -0.0452
vn 0.3877 -0.9207 0.0452
vn 0.3466 -0.9163 0.2006
vn 0.1953 -0.9024 0.3841
vn 0.0429 -0.8885 0.4568
vn -0.0429 -0.8885 0.4568
vn -0.1953 -0.9024 0.3841
vn -0.3466 -0.9163 0.2006
vn -0.3877 -0.9207 0.0452
vn -0.3877 -0.9207 -0.0452
vn -0.3466 -0.9163 -0.2006
vn -0.1953 -0.9024 -0.3841
vn -0.0429 -0.8885 -0.4568
vn 0.1356 0.3311 0.9338
vn -0.1356 0.3311 0.9338
vn -0.1356 0.3311 -0.9338
vn 0.1356 0.3311 -0.9338
vn 0.9142 0.3855 -0.1248
vn 0.9142 0.3855 0.1248
vn 0.7993 0.3854 0.4612
vn 0.4764 0.3678 0.7986
vn -0.9142 0.3855 0.1248
vn -0.7993 0.3854 0.4612
vn -0.4764 0.3678 0.7986
vn -0.9142 0.3855 -0.1248
vn -0.7993 0.3854 -0.4612
vn -0.4764 0.3678 -0.7986
vn 0.7993 0.3854 -0.4612
vn 0.4764 0.3678 -0.7986
vn 0.3930 0.9184 -0.0459
vn 0.3515 0.9138 -0.2034
vn 0.1980 0.8998 -0.3888
vn 0.0436 0.8859 -0.4617
vn -0.0436 0.8859 -0.4617
vn -0.1980 0.8998 -0.3888
vn -0.3515 0.9138 -0.2034
vn -0.3930 0.9184 -0.0459
vn -0.3930 0.9184 0.0459
vn -0.3515 0.9138 0.2034
vn -0.1980 0.8998 0.3888
vn -0.0436 0.8859 0.4617
vn 0.0436 0.8859 0.4617
vn 0.1980 0.8998 0.3888
vn 0.3515 0.9138 0.2034
vn 0.3930 0.9184 0.0459
vn -0.0000 1.0000 -0.0000
vn -0.0000 -1.0000 -0.0000
vn 0.8660 -0.0000 0.5000
vn 0.5000 -0.0000 0.8660
vn -0.8660 -0.0000 -0.5000
vn -0.5000 -0.0000 -0.8660
vn 0.1305 -0.0000 0.9914
vn -0.1305 -0.0000 -0.9914
vn -0.1305 -0.0000 0.9914
vn 0.1305 -0.0000 -0.9914
vn 0.5000 -0.0000 -0.8660
vn -0.5000 -0.0000 0.8660
vn 0.8660 -0.0000 -0.5000
vn -0.8660 -0.0000 0.5000
vn 0.9914 -0.0000 -0.1305
vn -0.9914 -0.0000 0.1305
vn 0.9914 -0.0000 0.1305
vn -0.9914 -0.0000 -0.1305
vt 0.736235 0.925604
vt 0.736235 0.925604
vt 0.736235 0.925604
vt 0.736235 0.925604
vt 0.736235 0.925604
vt 0.736235 0.925604
vt 0.736235 0.925604
vt 0.736235 0.925604
vt 0.736235 0.925604
vt 0.736235 0.925604
vt 0.736235 0.925604
vt 0.736235 0.925604
vt 0.736235 0.925604
vt 0.736235 0.925604
vt 0.736235 0.925604
vt 0.736235 0.925604
vt 0.736235 0.925604
vt 0.736235 0.925604
vt 0.736235 0.925604
vt 0.736235 0.925604
vt 0.736235 0.925604
vt 0.736235 0.925604
vt 0.736235 0.925604
vt 0.736235 0.925604
vt 0.736235 0.925604
vt 0.736235 0.925604
vt 0.736235 0.925604
vt 0.736235 0.925604
vt 0.736235 0.925604
vt 0.736235 0.925604
vt 0.736235 0.925604
vt 0.736235 0.925604
vt 0.736235 0.925604
vt 0.736235 0.925604
vt 0.736235 0.925604
vt 0.736235 0.925604
vt 0.736235 0.925604
vt 0.736235 0.925604
vt 0.736235 0.925604
vt 0.736235 0.925604
vt 0.736235 0.925604
vt 0.736235 0.925604
vt 0.736235 0.925604
vt 0.736235 0.925604
vt 0.736235 0.925604
vt 0.736235 0.925604
vt 0.736235 0.925604
vt 0.736235 0.925604
vt 0.736235 0.925604
vt 0.736235 0.925604
vt 0.736235 0.925604
vt 0.736235 0.925604
vt 0.736235 0.925604
vt 0.736235 0.925604
vt 0.736235 0.925604
vt 0.736235 0.925604
vt 0.736235 0.925604
vt 0.736235 0.925604
vt 0.736235 0.925604
vt 0.736235 0.925604
vt 0.736235 0.925604
vt 0.736235 0.925604
vt 0.736235 0.925604
vt 0.736235 0.925604
vt 0.733774 0.900996
vt 0.733774 0.900996
vt 0.733774 0.900996
vt 0.733774 0.900996
vt 0.733774 0.900996
vt 0.733774 0.900996
vt 0.733774 0.900996
vt 0.733774 0.900996
vt 0.733774 0.900996
vt 0.733774 0.900996
vt 0.733774 0.900996
vt 0.733774 0.900996
vt 0.733774 0.900996
vt 0.733774 0.900996
vt 0.733774 0.900996
vt 0.733774 0.900996
vt 0.733774 0.900996
vt 0.733774 0.900996
vt 0.733774 0.900996
vt 0.733774 0.900996
vt 0.733774 0.900996
vt 0.733774 0.900996
vt 0.733774 0.900996
vt 0.733774 0.900996
vt 0.733774 0.900996
vt 0.733774 0.900996
vt 0.733774 0.900996
vt 0.733774 0.900996
vt 0.733774 0.900996
vt 0.733774 0.900996
vt 0.733774 0.900996
vt 0.733774 0.900996
vt 0.733774 0.900996
vt 0.733774 0.900996
vt 0.733774 0.900996
vt 0.733774 0.900996
vt 0.733774 0.900996
vt 0.733774 0.900996
vt 0.733774 0.900996
vt 0.733774 0.900996
vt 0.733774 0.900996
vt 0.733774 0.900996
vt 0.733774 0.900996
vt 0.733774 0.900996
vt 0.733774 0.900996
vt 0.733774 0.900996
vt 0.733774 0.900996
vt 0.733774 0.900996
vt 0.733774 0.900996
vt 0.733774 0.900996
vt 0.733774 0.900996
vt 0.733774 0.900996
vt 0.733774 0.900996
vt 0.733774 0.900996
vt 0.733774 0.900996
vt 0.733774 0.900996
vt 0.733774 0.900996
vt 0.733774 0.900996
vt 0.733774 0.900996
vt 0.733774 0.900996
vt 0.733774 0.900996
vt 0.733774 0.900996
vt 0.733774 0.900996
vt 0.733774 0.900996
vt 0.837127 0.106163
vt 0.837127 0.106163
vt 0.837127 0.106163
vt 0.837127 0.106163
vt 0.837127 0.106163
vt 0.837127 0.106163
vt 0.837127 0.106163
vt 0.837127 0.106163
vt 0.837127 0.106163
vt 0.837127 0.106163
vt 0.837127 0.106163
vt 0.837127 0.106163
vt 0.837127 0.106163
vt 0.837127 0.106163
vt 0.837127 0.106163
vt 0.837127 0.106163
vt 0.837127 0.106163
vt 0.837127 0.106163
vt 0.837127 0.106163
vt 0.837127 0.106163
vt 0.837127 0.106163
vt 0.837127 0.106163
vt 0.837127 0.106163
vt 0.837127 0.106163
vt 0.837127 0.106163
vt 0.837127 0.106163
vt 0.837127 0.106163
vt 0.837127 0.106163
vt 0.837127 0.106163
vt 0.837127 0.106163
vt 0.837127 0.106163
vt 0.837127 0.106163
s 1
usemtl Material
f 1/1/1 10/10/2 29/29/3 18/18/4
f 13/13/5 6/6/6 21/21/7 26/26/8
f 9/9/9 14/14/10 25/25/11 30/30/12
f 9/9/9 30/30/12 32/32/13 11/11/14
f 11/11/14 32/32/13 31/31/15 12/12/16
f 12/12/16 31/31/15 29/29/3 10/10/2
f 17/17/17 2/2/18 4/4/19 19/19/20
f 19/19/20 4/4/19 3/3/21 20/20/22
f 20/20/22 3/3/21 1/1/1 18/18/4
f 5/5/23 22/22/24 24/24/25 7/7/26
f 7/7/26 24/24/25 23/23/27 8/8/28
f 8/8/28 23/23/27 21/21/7 6/6/6
f 25/25/11 14/14/10 16/16/29 27/27/30
f 27/27/30 16/16/29 15/15/31 28/28/32
f 28/28/32 15/15/31 13/13/5 26/26/8
f 5/5/23 2/2/18 17/17/17 22/22/24
f 33/33/33 34/34/34 35/35/35 36/36/36 37/37/37 38/38/38 39/39/39 40/40/40 41/41/41 42/42/42 43/43/43 44/44/44 45/45/45 46/46/46 47/47/47 48/48/48
f 27/27/30 34/34/34 33/33/33 25/25/11
f 28/28/32 35/35/35 34/34/34 27/27/30
f 26/26/8 36/36/36 35/35/35 28/28/32
f 21/21/7 37/37/37 36/36/36 26/26/8
f 23/23/27 38/38/38 37/37/37 21/21/7
f 24/24/25 39/39/39 38/38/38 23/23/27
f 22/22/24 40/40/40 39/39/39 24/24/25
f 17/17/17 41/41/41 40/40/40 22/22/24
f 19/19/20 42/42/42 41/41/41 17/17/17
f 20/20/22 43/43/43 42/42/42 19/19/20
f 18/18/4 44/44/44 43/43/43 20/20/22
f 29/29/3 45/45/45 44/44/44 18/18/4
f 31/31/15 46/46/46 45/45/45 29/29/3
f 32/32/13 47/47/47 46/46/46 31/31/15
f 30/30/12 48/48/48 47/47/47 32/32/13
f 25/25/11 33/33/33 48/48/48 30/30/12
f 49/49/49 50/50/50 51/51/51 52/52/52 53/53/53 54/54/54 55/55/55 56/56/56 57/57/57 58/58/58 59/59/59 60/60/60 61/61/61 62/62/62 63/63/63 64/64/64
f 15/15/31 50/50/50 49/49/49 13/13/5
f 16/16/29 51/51/51 50/50/50 15/15/31
f 14/14/10 52/52/52 51/51/51 16/16/29
f 9/9/9 53/53/53 52/52/52 14/14/10
f 11/11/14 54/54/54 53/53/53 9/9/9
f 12/12/16 55/55/55 54/54/54 11/11/14
f 10/10/2 56/56/56 55/55/55 12/12/16
f 1/1/1 57/57/57 56/56/56 10/10/2
f 3/3/21 58/58/58 57/57/57 1/1/1
f 4/4/19 59/59/59 58/58/58 3/3/21
f 2/2/18 60/60/60 59/59/59 4/4/19
f 5/5/23 61/61/61 60/60/60 2/2/18
f 7/7/26 62/62/62 61/61/61 5/5/23
f 8/8/28 63/63/63 62/62/62 7/7/26
f 6/6/6 64/64/64 63/63/63 8/8/28
f 13/13/5 49/49/49 64/64/64 6/6/6
f 65/65/1 74/74/2 93/93/65 82/82/66
f 77/77/5 70/70/6 85/85/67 90/90/68
f 73/73/9 78/78/10 89/89/69 94/94/70
f 73/73/9 94/94/70 96/96/71 75/75/14
f 75/75/14 96/96/71 95/95/72 76/76/16
f 76/76/16 95/95/72 93/93/65 74/74/2
f 81/81/73 66/66/18 68/68/19 83/83/74
f 83/83/74 68/68/19 67/67/21 84/84/75
f 84/84/75 67/67/21 65/65/1 82/82/66
f 69/69/23 86/86/76 88/88/77 71/71/26
f 71/71/26 88/88/77 87/87/78 72/72/28
f 72/72/28 87/87/78 85/85/67 70/70/6
f 89/89/69 78/78/10 80/80/29 91/91/79
f 91/91/79 80/80/29 79/79/31 92/92/80
f 92/92/80 79/79/31 77/77/5 90/90/68
f 69/69/23 66/66/18 81/81/73 86/86/76
f 97/97/81 98/98/82 99/99/83 100/100/84 101/101/85 102/102/86 103/103/87 104/104/88 105/105/89 106/106/90 107/107/91 108/108/92 109/109/93 110/110/94 111/111/95 112/112/96
f 91/91/79 98/98/82 97/97/81 89/89/69
f 92/92/80 99/99/83 98/98/82 91/91/79
f 90/90/68 100/100/84 99/99/83 92/92/80
f 85/85/67 101/101/85 100/100/84 90/90/68
f 87/87/78 102/102/86 101/101/85 85/85/67
f 88/88/77 103/103/87 102/102/86 87/87/78
f 86/86/76 104/104/88 103/103/87 88/88/77
f 81/81/73 105/105/89 104/104/88 86/86/76
f 83/83/74 106/106/90 105/105/89 81/81/73
f 84/84/75 107/107/91 106/106/90 83/83/74
f 82/82/66 108/108/92 107/107/91 84/84/75
f 93/93/65 109/109/93 108/108/92 82/82/66
f 95/95/72 110/110/94 109/109/93 93/93/65
f 96/96/71 111/111/95 110/110/94 95/95/72
f 94/94/70 112/112/96 111/111/95 96/96/71
f 89/89/69 97/97/81 112/112/96 94/94/70
f 113/113/49 114/114/50 115/115/51 116/116/52 117/117/53 118/118/54 119/119/55 120/120/56 121/121/57 122/122/58 123/123/59 124/124/60 125/125/61 126/126/62 127/127/63 128/128/64
f 79/79/31 114/114/50 113/113/49 77/77/5
f 80/80/29 115/115/51 114/114/50 79/79/31
f 78/78/10 116/116/52 115/115/51 80/80/29
f 73/73/9 117/117/53 116/116/52 78/78/10
f 75/75/14 118/118/54 117/117/53 73/73/9
f 76/76/16 119/119/55 118/118/54 75/75/14
f 74/74/2 120/120/56 119/119/55 76/76/16
f 65/65/1 121/121/57 120/120/56 74/74/2
f 67/67/21 122/122/58 121/121/57 65/65/1
f 68/68/19 123/123/59 122/122/58 67/67/21
f 66/66/18 124/124/60 123/123/59 68/68/19
f 69/69/23 125/125/61 124/124/60 66/66/18
f 71/71/26 126/126/62 125/125/61 69/69/23
f 72/72/28 127/127/63 126/126/62 71/71/26
f 70/70/6 128/128/64 127/127/63 72/72/28
f 77/77/5 113/113/49 128/128/64 70/70/6
f 129/129/97 144/144/97 143/143/97 142/142/97 141/141/97 140/140/97 139/139/97 138/138/97 137/137/97 136/136/97 135/135/97 134/134/97 133/133/97 132/132/97 131/131/97 130/130/97
f 146/146/98 145/145/98 147/147/98 148/148/98 149/149/98 150/150/98 151/151/98 152/152/98 153/153/98 154/154/98 155/155/98 156/156/98 157/157/98 158/158/98 159/159/98 160/160/98
f 134/134/99 135/135/100 151/151/100 150/150/99
f 142/142/101 143/143/102 159/159/102 158/158/101
f 135/135/100 136/136/103 152/152/103 151/151/100
f 143/143/102 144/144/104 160/160/104 159/159/102
f 136/136/103 137/137/105 153/153/105 152/152/103
f 129/129/106 130/130/107 145/145/107 146/146/106
f 144/144/104 129/129/106 146/146/106 160/160/104
f 137/137/105 138/138/108 154/154/108 153/153/105
f 130/130/107 131/131/109 147/147/109 145/145/107
f 138/138/108 139/139/110 155/155/110 154/154/108
f 131/131/109 132/132/111 148/148/111 147/147/109
f 139/139/110 140/140/112 156/156/112 155/155/110
f 132/132/111 133/133/113 149/149/113 148/148/111
f 140/140/112 141/141/114 157/157/114 156/156/112
f 133/133/113 134/134/99 150/150/99 149/149/113
f 141/141/114 142/142/101 158/158/101 157/157/114
