# Blender 3.4.1
# www.blender.org
mtllib pouffe011.mtl
o pouffes.011
v -1.669857 0.060071 0.993540
v -1.669857 0.178126 1.111595
v -1.787912 0.178126 0.993540
v -1.669857 1.216670 1.111595
v -1.542253 1.460806 0.865935
v -1.787912 1.216670 0.993540
v -1.669857 0.060071 -1.000915
v -1.787912 0.178126 -1.000915
v -1.669857 0.178126 -1.118969
v -1.542253 1.460806 -0.873310
v -1.669857 1.216670 -1.118969
v -1.787912 1.216670 -1.000915
v 1.682718 0.060071 0.993540
v 1.800774 0.178126 0.993540
v 1.682718 0.178126 1.111595
v 1.555114 1.460806 0.865936
v 1.682718 1.216670 1.111595
v 1.800774 1.216670 0.993540
v 1.682718 0.060071 -1.000915
v 1.682718 0.178126 -1.118969
v 1.800774 0.178126 -1.000915
v 1.555114 1.460806 -0.873309
v 1.800774 1.216670 -1.000915
v 1.682718 1.216670 -1.118969
v -1.560451 0.060071 0.806271
v -1.560451 0.060071 -0.825535
v 1.534587 0.060071 0.806271
v 1.534587 0.060071 -0.825535
v -1.560451 -0.002962 -0.825535
v -1.560451 -0.002962 0.806271
v 1.534587 -0.002962 -0.825535
v 1.534587 -0.002962 0.806271
v -1.591184 -0.244493 0.828764
v -1.498844 0.000867 0.828764
v -1.591184 -0.244493 0.566603
v -1.498844 0.000867 0.566603
v -1.345825 -0.336834 0.828764
v -1.253483 -0.091474 0.828764
v -1.345825 -0.336834 0.566603
v -1.253483 -0.091474 0.566603
v -1.628186 -0.261259 0.697683
v -1.571898 -0.111696 0.857488
v -1.515610 0.037868 0.697683
v -1.571898 -0.111696 0.537878
v -1.478621 -0.317547 0.537878
v -1.366047 -0.018420 0.537878
v -1.272771 -0.224272 0.537878
v -1.329059 -0.373835 0.697683
v -1.216483 -0.074708 0.697683
v -1.272771 -0.224272 0.857488
v -1.478621 -0.317547 0.857488
v -1.366047 -0.018420 0.857488
v -1.628315 -0.090463 0.697683
v -1.422336 -0.167984 0.477597
v -1.216354 -0.245504 0.697683
v -1.422336 -0.167984 0.917769
v -1.499855 -0.373965 0.697683
v -1.344814 0.037998 0.697683
v -1.591184 -0.244493 -0.563419
v -1.498844 0.000867 -0.563419
v -1.591184 -0.244493 -0.825580
v -1.498844 0.000867 -0.825580
v -1.345825 -0.336834 -0.563419
v -1.253483 -0.091474 -0.563419
v -1.345825 -0.336834 -0.825580
v -1.253483 -0.091474 -0.825580
v -1.628186 -0.261259 -0.694500
v -1.571898 -0.111696 -0.534694
v -1.515610 0.037868 -0.694500
v -1.571898 -0.111696 -0.854305
v -1.478621 -0.317547 -0.854305
v -1.366047 -0.018420 -0.854305
v -1.272771 -0.224272 -0.854305
v -1.329059 -0.373835 -0.694500
v -1.216483 -0.074708 -0.694500
v -1.272771 -0.224272 -0.534694
v -1.478621 -0.317547 -0.534694
v -1.366047 -0.018420 -0.534694
v -1.628315 -0.090463 -0.694500
v -1.422336 -0.167984 -0.914586
v -1.216354 -0.245504 -0.694500
v -1.422336 -0.167984 -0.474414
v -1.499855 -0.373965 -0.694500
v -1.344814 0.037998 -0.694500
v 1.252506 -0.244493 0.828764
v 1.344846 0.000867 0.828764
v 1.252506 -0.244493 0.566603
v 1.344846 0.000867 0.566603
v 1.497868 -0.336834 0.828764
v 1.590207 -0.091474 0.828764
v 1.497868 -0.336834 0.566603
v 1.590207 -0.091474 0.566603
v 1.215504 -0.261259 0.697683
v 1.271794 -0.111696 0.857488
v 1.328080 0.037868 0.697683
v 1.271794 -0.111696 0.537878
v 1.365069 -0.317547 0.537878
v 1.477645 -0.018420 0.537878
v 1.570919 -0.224272 0.537878
v 1.514633 -0.373835 0.697683
v 1.627210 -0.074708 0.697683
v 1.570919 -0.224272 0.857488
v 1.365069 -0.317547 0.857488
v 1.477645 -0.018420 0.857488
v 1.215375 -0.090463 0.697683
v 1.421357 -0.167984 0.477597
v 1.627339 -0.245504 0.697683
v 1.421357 -0.167984 0.917769
v 1.343835 -0.373965 0.697683
v 1.498879 0.037998 0.697683
v 1.252506 -0.244493 -0.563419
v 1.344846 0.000867 -0.563419
v 1.252506 -0.244493 -0.825580
v 1.344846 0.000867 -0.825580
v 1.497868 -0.336834 -0.563419
v 1.590207 -0.091474 -0.563419
v 1.497868 -0.336834 -0.825580
v 1.590207 -0.091474 -0.825580
v 1.215504 -0.261259 -0.694500
v 1.271794 -0.111696 -0.534694
v 1.328080 0.037868 -0.694500
v 1.271794 -0.111696 -0.854304
v 1.365069 -0.317547 -0.854304
v 1.477645 -0.018420 -0.854304
v 1.570919 -0.224272 -0.854304
v 1.514633 -0.373835 -0.694500
v 1.627210 -0.074708 -0.694500
v 1.570919 -0.224272 -0.534694
v 1.365069 -0.317547 -0.534694
v 1.477645 -0.018420 -0.534694
v 1.215375 -0.090463 -0.694500
v 1.421357 -0.167984 -0.914586
v 1.627339 -0.245504 -0.694500
v 1.421357 -0.167984 -0.474414
v 1.343835 -0.373965 -0.694500
v 1.498879 0.037998 -0.694500
vn 0.3416 -0.3416 0.8756
vn 0.3582 0.3774 0.8540
vn -0.3582 0.3774 0.8540
vn -0.3416 -0.3416 0.8756
vn 0.8756 -0.3416 -0.3416
vn 0.8540 0.3774 -0.3582
vn 0.8540 0.3774 0.3582
vn 0.8756 -0.3416 0.3416
vn 0.3063 0.9013 -0.3063
vn -0.3063 0.9013 -0.3063
vn -0.3063 0.9013 0.3063
vn 0.3063 0.9013 0.3063
vn -0.8756 -0.3416 0.3416
vn -0.8540 0.3774 0.3582
vn -0.8540 0.3774 -0.3582
vn -0.8756 -0.3416 -0.3416
vn -0.3416 -0.3416 -0.8756
vn -0.3582 0.3774 -0.8540
vn 0.3582 0.3774 -0.8540
vn 0.3416 -0.3416 -0.8756
vn -0.3416 -0.8756 0.3416
vn -0.3416 -0.8756 -0.3416
vn 0.3416 -0.8756 0.3416
vn 0.3416 -0.8756 -0.3416
vn -0.0000 1.0000 -0.0000
vn -0.0000 -1.0000 -0.0000
vn -0.0000 -0.0000 1.0000
vn -0.0000 -0.0000 -1.0000
vn 1.0000 -0.0000 -0.0000
vn -1.0000 -0.0000 -0.0000
vn -0.7437 -0.3370 0.5774
vn -0.6618 0.2491 0.7071
vn -0.9359 0.3522 -0.0000
vn -0.9109 -0.4127 -0.0000
vn -0.3370 0.7437 0.5773
vn -0.4127 0.9109 -0.0000
vn -0.3370 0.7437 -0.5773
vn -0.6618 0.2491 -0.7071
vn -0.7437 -0.3370 -0.5774
vn -0.2491 -0.6618 -0.7071
vn 0.2491 0.6618 -0.7071
vn 0.7437 0.3370 -0.5773
vn 0.6618 -0.2491 -0.7071
vn 0.3370 -0.7437 -0.5773
vn 0.9359 -0.3522 -0.0000
vn 0.4127 -0.9109 -0.0000
vn 0.9109 0.4127 -0.0000
vn 0.7437 0.3370 0.5773
vn 0.6618 -0.2491 0.7071
vn 0.3370 -0.7437 0.5773
vn -0.2491 -0.6618 0.7071
vn 0.2491 0.6618 0.7071
vn -0.3522 -0.9359 -0.0000
vn 0.3522 0.9359 -0.0000
vn -0.3370 0.7437 0.5774
vn -0.3370 0.7437 -0.5774
vn 0.7437 0.3370 -0.5774
vn 0.3370 -0.7437 -0.5774
vn 0.7437 0.3370 0.5774
vn 0.3370 -0.7437 0.5774
vt 0.273608 0.930525
vt 0.273608 0.930525
vt 0.273608 0.930525
vt 0.273608 0.930525
vt 0.273608 0.930525
vt 0.273608 0.930525
vt 0.273608 0.930525
vt 0.273608 0.930525
vt 0.273608 0.930525
vt 0.273608 0.930525
vt 0.273608 0.930525
vt 0.273608 0.930525
vt 0.273608 0.930525
vt 0.273608 0.930525
vt 0.273608 0.930525
vt 0.273608 0.930525
vt 0.273608 0.930525
vt 0.273608 0.930525
vt 0.273608 0.930525
vt 0.273608 0.930525
vt 0.273608 0.930525
vt 0.273608 0.930525
vt 0.273608 0.930525
vt 0.273608 0.930525
vt 0.726392 0.942829
vt 0.726392 0.942829
vt 0.726392 0.942829
vt 0.726392 0.942829
vt 0.726392 0.942829
vt 0.726392 0.942829
vt 0.726392 0.942829
vt 0.726392 0.942829
vt 0.726392 0.942829
vt 0.726392 0.942829
vt 0.726392 0.942829
vt 0.726392 0.942829
vt 0.726392 0.942829
vt 0.726392 0.942829
vt 0.726392 0.942829
vt 0.726392 0.942829
vt 0.726392 0.942829
vt 0.726392 0.942829
vt 0.726392 0.942829
vt 0.726392 0.942829
vt 0.726392 0.942829
vt 0.726392 0.942829
vt 0.726392 0.942829
vt 0.726392 0.942829
vt 0.726392 0.942829
vt 0.726392 0.942829
vt 0.726392 0.942829
vt 0.726392 0.942829
vt 0.726392 0.942829
vt 0.726392 0.942829
vt 0.726392 0.942829
vt 0.726392 0.942829
vt 0.726392 0.942829
vt 0.726392 0.942829
vt 0.726392 0.942829
vt 0.726392 0.942829
vt 0.726392 0.942829
vt 0.726392 0.942829
vt 0.726392 0.942829
vt 0.726392 0.942829
vt 0.726392 0.942829
vt 0.726392 0.942829
vt 0.726392 0.942829
vt 0.726392 0.942829
vt 0.726392 0.942829
vt 0.726392 0.942829
vt 0.726392 0.942829
vt 0.726392 0.942829
vt 0.726392 0.942829
vt 0.726392 0.942829
vt 0.726392 0.942829
vt 0.726392 0.942829
vt 0.726392 0.942829
vt 0.726392 0.942829
vt 0.726392 0.942829
vt 0.726392 0.942829
vt 0.726392 0.942829
vt 0.726392 0.942829
vt 0.726392 0.942829
vt 0.726392 0.942829
vt 0.726392 0.942829
vt 0.726392 0.942829
vt 0.726392 0.942829
vt 0.726392 0.942829
vt 0.726392 0.942829
vt 0.726392 0.942829
vt 0.726392 0.942829
vt 0.726392 0.942829
vt 0.726392 0.942829
vt 0.726392 0.942829
vt 0.726392 0.942829
vt 0.726392 0.942829
vt 0.726392 0.942829
vt 0.726392 0.942829
vt 0.726392 0.942829
vt 0.726392 0.942829
vt 0.726392 0.942829
vt 0.726392 0.942829
vt 0.726392 0.942829
vt 0.726392 0.942829
vt 0.726392 0.942829
vt 0.726392 0.942829
vt 0.726392 0.942829
vt 0.726392 0.942829
vt 0.726392 0.942829
vt 0.726392 0.942829
vt 0.726392 0.942829
vt 0.726392 0.942829
vt 0.726392 0.942829
vt 0.726392 0.942829
vt 0.726392 0.942829
vt 0.726392 0.942829
vt 0.726392 0.942829
vt 0.726392 0.942829
vt 0.726392 0.942829
vt 0.726392 0.942829
vt 0.726392 0.942829
vt 0.726392 0.942829
vt 0.726392 0.942829
vt 0.726392 0.942829
vt 0.726392 0.942829
vt 0.726392 0.942829
vt 0.726392 0.942829
vt 0.726392 0.942829
vt 0.726392 0.942829
vt 0.726392 0.942829
vt 0.726392 0.942829
vt 0.726392 0.942829
vt 0.726392 0.942829
vt 0.726392 0.942829
vt 0.726392 0.942829
vt 0.726392 0.942829
s 1
usemtl Material
f 15/15/1 17/17/2 4/4/3 2/2/4
f 21/21/5 23/23/6 18/18/7 14/14/8
f 22/22/9 10/10/10 5/5/11 16/16/12
f 3/3/13 6/6/14 12/12/15 8/8/16
f 9/9/17 11/11/18 24/24/19 20/20/20
f 1/1/21 2/2/4 3/3/13
f 4/4/3 5/5/11 6/6/14
f 7/7/22 8/8/16 9/9/17
f 10/10/10 11/11/18 12/12/15
f 13/13/23 14/14/8 15/15/1
f 16/16/12 17/17/2 18/18/7
f 19/19/24 20/20/20 21/21/5
f 22/22/9 23/23/6 24/24/19
f 7/7/22 1/1/21 3/3/13 8/8/16
f 2/2/4 4/4/3 6/6/14 3/3/13
f 5/5/11 10/10/10 12/12/15 6/6/14
f 11/11/18 9/9/17 8/8/16 12/12/15
f 19/19/24 7/7/22 9/9/17 20/20/20
f 10/10/10 22/22/9 24/24/19 11/11/18
f 23/23/6 21/21/5 20/20/20 24/24/19
f 13/13/23 19/19/24 21/21/5 14/14/8
f 22/22/9 16/16/12 18/18/7 23/23/6
f 17/17/2 15/15/1 14/14/8 18/18/7
f 1/1/21 13/13/23 15/15/1 2/2/4
f 16/16/12 5/5/11 4/4/3 17/17/2
f 7/7/22 19/19/24 13/13/23 1/1/21
f 26/26/25 25/25/25 27/27/25 28/28/25
f 29/29/26 31/31/26 32/32/26 30/30/26
f 27/27/27 25/25/27 30/30/27 32/32/27
f 26/26/28 28/28/28 31/31/28 29/29/28
f 28/28/29 27/27/29 32/32/29 31/31/29
f 25/25/30 26/26/30 29/29/30 30/30/30
f 33/33/31 42/42/32 53/53/33 41/41/34
f 42/42/32 34/34/35 43/43/36 53/53/33
f 53/53/33 43/43/36 36/36/37 44/44/38
f 41/41/34 53/53/33 44/44/38 35/35/39
f 35/35/39 44/44/38 54/54/28 45/45/40
f 44/44/38 36/36/37 46/46/41 54/54/28
f 54/54/28 46/46/41 40/40/42 47/47/43
f 45/45/40 54/54/28 47/47/43 39/39/44
f 39/39/44 47/47/43 55/55/45 48/48/46
f 47/47/43 40/40/42 49/49/47 55/55/45
f 55/55/45 49/49/47 38/38/48 50/50/49
f 48/48/46 55/55/45 50/50/49 37/37/50
f 37/37/50 50/50/49 56/56/27 51/51/51
f 50/50/49 38/38/48 52/52/52 56/56/27
f 56/56/27 52/52/52 34/34/35 42/42/32
f 51/51/51 56/56/27 42/42/32 33/33/31
f 35/35/39 45/45/40 57/57/53 41/41/34
f 45/45/40 39/39/44 48/48/46 57/57/53
f 57/57/53 48/48/46 37/37/50 51/51/51
f 41/41/34 57/57/53 51/51/51 33/33/31
f 40/40/42 46/46/41 58/58/54 49/49/47
f 46/46/41 36/36/37 43/43/36 58/58/54
f 58/58/54 43/43/36 34/34/35 52/52/52
f 49/49/47 58/58/54 52/52/52 38/38/48
f 59/59/31 68/68/32 79/79/33 67/67/34
f 68/68/32 60/60/35 69/69/36 79/79/33
f 79/79/33 69/69/36 62/62/37 70/70/38
f 67/67/34 79/79/33 70/70/38 61/61/39
f 61/61/39 70/70/38 80/80/28 71/71/40
f 70/70/38 62/62/37 72/72/41 80/80/28
f 80/80/28 72/72/41 66/66/42 73/73/43
f 71/71/40 80/80/28 73/73/43 65/65/44
f 65/65/44 73/73/43 81/81/45 74/74/46
f 73/73/43 66/66/42 75/75/47 81/81/45
f 81/81/45 75/75/47 64/64/48 76/76/49
f 74/74/46 81/81/45 76/76/49 63/63/50
f 63/63/50 76/76/49 82/82/27 77/77/51
f 76/76/49 64/64/48 78/78/52 82/82/27
f 82/82/27 78/78/52 60/60/35 68/68/32
f 77/77/51 82/82/27 68/68/32 59/59/31
f 61/61/39 71/71/40 83/83/53 67/67/34
f 71/71/40 65/65/44 74/74/46 83/83/53
f 83/83/53 74/74/46 63/63/50 77/77/51
f 67/67/34 83/83/53 77/77/51 59/59/31
f 66/66/42 72/72/41 84/84/54 75/75/47
f 72/72/41 62/62/37 69/69/36 84/84/54
f 84/84/54 69/69/36 60/60/35 78/78/52
f 75/75/47 84/84/54 78/78/52 64/64/48
f 85/85/31 94/94/32 105/105/33 93/93/34
f 94/94/32 86/86/55 95/95/36 105/105/33
f 105/105/33 95/95/36 88/88/56 96/96/38
f 93/93/34 105/105/33 96/96/38 87/87/39
f 87/87/39 96/96/38 106/106/28 97/97/40
f 96/96/38 88/88/56 98/98/41 106/106/28
f 106/106/28 98/98/41 92/92/57 99/99/43
f 97/97/40 106/106/28 99/99/43 91/91/58
f 91/91/58 99/99/43 107/107/45 100/100/46
f 99/99/43 92/92/57 101/101/47 107/107/45
f 107/107/45 101/101/47 90/90/59 102/102/49
f 100/100/46 107/107/45 102/102/49 89/89/60
f 89/89/60 102/102/49 108/108/27 103/103/51
f 102/102/49 90/90/59 104/104/52 108/108/27
f 108/108/27 104/104/52 86/86/55 94/94/32
f 103/103/51 108/108/27 94/94/32 85/85/31
f 87/87/39 97/97/40 109/109/53 93/93/34
f 97/97/40 91/91/58 100/100/46 109/109/53
f 109/109/53 100/100/46 89/89/60 103/103/51
f 93/93/34 109/109/53 103/103/51 85/85/31
f 92/92/57 98/98/41 110/110/54 101/101/47
f 98/98/41 88/88/56 95/95/36 110/110/54
f 110/110/54 95/95/36 86/86/55 104/104/52
f 101/101/47 110/110/54 104/104/52 90/90/59
f 111/111/31 120/120/32 131/131/33 119/119/34
f 120/120/32 112/112/55 121/121/36 131/131/33
f 131/131/33 121/121/36 114/114/56 122/122/38
f 119/119/34 131/131/33 122/122/38 113/113/39
f 113/113/39 122/122/38 132/132/28 123/123/40
f 122/122/38 114/114/56 124/124/41 132/132/28
f 132/132/28 124/124/41 118/118/57 125/125/43
f 123/123/40 132/132/28 125/125/43 117/117/58
f 117/117/58 125/125/43 133/133/45 126/126/46
f 125/125/43 118/118/57 127/127/47 133/133/45
f 133/133/45 127/127/47 116/116/59 128/128/49
f 126/126/46 133/133/45 128/128/49 115/115/60
f 115/115/60 128/128/49 134/134/27 129/129/51
f 128/128/49 116/116/59 130/130/52 134/134/27
f 134/134/27 130/130/52 112/112/55 120/120/32
f 129/129/51 134/134/27 120/120/32 111/111/31
f 113/113/39 123/123/40 135/135/53 119/119/34
f 123/123/40 117/117/58 126/126/46 135/135/53
f 135/135/53 126/126/46 115/115/60 129/129/51
f 119/119/34 135/135/53 129/129/51 111/111/31
f 118/118/57 124/124/41 136/136/54 127/127/47
f 124/124/41 114/114/56 121/121/36 136/136/54
f 136/136/54 121/121/36 112/112/55 130/130/52
f 127/127/47 136/136/54 130/130/52 116/116/59
