# Blender 3.4.1
# www.blender.org
mtllib sculpture007.mtl
o sculpture.006
v -0.693030 -0.849485 0.600065
v -0.693030 -0.849485 -0.588298
v 0.702178 -0.849485 0.600065
v -0.185316 1.405147 -0.156898
v 0.702178 -0.849485 -0.588298
v -0.338601 2.257616 0.298181
v 0.347749 2.257616 -0.286414
v 0.328408 -0.536682 0.221744
v 0.312590 0.573019 0.208271
v 0.113997 -0.110338 -0.156898
v 0.098179 0.999363 -0.143426
v -0.411266 -0.553973 -0.156898
v -0.395448 0.555728 -0.143426
v -0.084709 0.872968 0.117279
v -0.068891 1.600772 0.103807
v 0.248504 1.600359 0.117279
v -0.173165 2.257616 -0.286414
v -0.173165 2.257616 -0.146549
v -0.338601 2.257616 -0.146549
v 0.234220 2.257616 0.298181
v 0.234220 2.257616 0.105113
v 0.347749 2.257616 0.105113
v 0.666498 -0.536682 0.221744
v 0.617864 -0.110338 -0.516483
v 0.617864 -0.110338 -0.156898
v 0.491279 0.999363 -0.408665
v 0.491279 0.999363 -0.143426
v 0.666498 -0.536682 0.569673
v 0.539912 0.573019 0.461855
v 0.422723 1.600359 0.117279
v 0.539912 0.573019 0.208271
v 0.422723 1.600359 0.362039
v -0.413528 1.600772 0.361999
v -0.496549 0.872968 0.432712
v -0.496549 0.872968 0.117279
v -0.659322 -0.553973 -0.156898
v -0.532737 0.555728 -0.143426
v -0.413528 1.600772 0.103807
v -0.435842 1.405147 -0.156898
v -0.659322 -0.553973 -0.559586
v -0.532737 0.555728 -0.451769
v -0.435842 1.405147 -0.369240
v 0.248504 1.600359 0.362039
v -0.084709 0.872968 0.432712
v 0.328408 -0.536682 0.569673
v 0.312590 0.573019 0.461855
v -0.068891 1.600772 0.361999
v -0.411266 -0.553973 -0.559586
v -0.395448 0.555728 -0.451769
v -0.185316 1.405147 -0.369240
v 0.113997 -0.110338 -0.516483
v 0.098179 0.999363 -0.408665
v -0.818325 -1.433322 0.680248
v -0.818325 -1.095326 0.680248
v -0.818325 -1.433322 -0.664682
v -0.818325 -1.095326 -0.664682
v 0.775992 -1.433322 0.680248
v 0.775992 -1.095326 0.680248
v 0.775992 -1.433322 -0.664682
v 0.775992 -1.095326 -0.664682
v -1.061407 -1.433322 -0.664682
v -1.061407 -1.433322 0.680248
v -1.061407 -1.095326 0.680248
v -1.061407 -1.095326 -0.664682
v 1.019072 -1.095326 -0.664682
v 1.019072 -1.433322 -0.664682
v 1.019072 -1.433322 0.680248
v 1.019072 -1.095326 0.680248
v -0.818325 -1.551458 -0.664682
v -0.818325 -1.551458 0.680248
v 0.775992 -1.551458 0.680248
v 0.775992 -1.551458 -0.664682
v -1.061407 -1.551458 -0.664682
v -1.061407 -1.551458 0.680248
v 1.019072 -1.551458 0.680248
v 1.019072 -1.551458 -0.664682
v -0.187614 -1.097585 0.086790
v -0.187614 -1.097585 -0.071224
v 0.196769 -1.097585 0.086790
v 0.196769 -1.097585 -0.071224
v -0.187614 -0.814312 0.086790
v -0.187614 -0.814312 -0.071224
v 0.196769 -0.814312 -0.071224
v 0.196769 -0.814312 0.086790
vn -0.0000 -1.0000 -0.0000
vn -0.0000 1.0000 -0.0000
vn 0.9936 0.1133 -0.0000
vn -0.9936 0.1133 -0.0000
vn -0.0000 0.0967 0.9953
vn -0.0000 0.0967 -0.9953
vn -0.9999 0.0143 -0.0000
vn -0.0000 0.0121 -0.9999
vn 0.9999 0.0143 -0.0000
vn -0.0000 0.0121 0.9999
vn -0.9998 0.0217 -0.0000
vn -0.0000 0.0185 0.9998
vn 0.9998 0.0217 -0.0000
vn -0.0000 -0.0000 -1.0000
vn -0.0000 -0.0000 1.0000
vn -1.0000 -0.0000 -0.0000
vn 1.0000 -0.0000 -0.0000
vt 0.800738 0.115551
vt 0.800738 0.115551
vt 0.800738 0.115551
vt 0.800738 0.115551
vt 0.800738 0.115551
vt 0.800738 0.115551
vt 0.800738 0.115551
vt 0.800738 0.115551
vt 0.800738 0.115551
vt 0.800738 0.115551
vt 0.800738 0.115551
vt 0.800738 0.115551
vt 0.800738 0.115551
vt 0.800738 0.115551
vt 0.800738 0.115551
vt 0.800738 0.115551
vt 0.800738 0.115551
vt 0.800738 0.115551
vt 0.800738 0.115551
vt 0.800738 0.115551
vt 0.800738 0.115551
vt 0.800738 0.115551
vt 0.800738 0.115551
vt 0.800738 0.115551
vt 0.800738 0.115551
vt 0.800738 0.115551
vt 0.800738 0.115551
vt 0.800738 0.115551
vt 0.800738 0.115551
vt 0.800738 0.115551
vt 0.800738 0.115551
vt 0.800738 0.115551
vt 0.800738 0.115551
vt 0.800738 0.115551
vt 0.800738 0.115551
vt 0.800738 0.115551
vt 0.800738 0.115551
vt 0.800738 0.115551
vt 0.800738 0.115551
vt 0.800738 0.115551
vt 0.800738 0.115551
vt 0.800738 0.115551
vt 0.800738 0.115551
vt 0.800738 0.115551
vt 0.800738 0.115551
vt 0.800738 0.115551
vt 0.800738 0.115551
vt 0.800738 0.115551
vt 0.800738 0.115551
vt 0.800738 0.115551
vt 0.800738 0.115551
vt 0.800738 0.115551
vt 0.831742 0.106250
vt 0.831742 0.106250
vt 0.831742 0.106250
vt 0.831742 0.106250
vt 0.831742 0.106250
vt 0.831742 0.106250
vt 0.831742 0.106250
vt 0.831742 0.106250
vt 0.831742 0.106250
vt 0.831742 0.106250
vt 0.831742 0.106250
vt 0.831742 0.106250
vt 0.831742 0.106250
vt 0.831742 0.106250
vt 0.831742 0.106250
vt 0.831742 0.106250
vt 0.831742 0.106250
vt 0.831742 0.106250
vt 0.831742 0.106250
vt 0.831742 0.106250
vt 0.831742 0.106250
vt 0.831742 0.106250
vt 0.831742 0.106250
vt 0.831742 0.106250
vt 0.751132 0.103150
vt 0.751132 0.103150
vt 0.751132 0.103150
vt 0.751132 0.103150
vt 0.751132 0.103150
vt 0.751132 0.103150
vt 0.751132 0.103150
vt 0.751132 0.103150
s 1
usemtl Material
f 5/5/1 3/3/1 1/1/1 2/2/1
f 22/22/2 7/7/2 17/17/2 18/18/2 19/19/2 6/6/2 20/20/2 21/21/2
f 28/28/3 3/3/3 5/5/3 24/24/3 25/25/3 27/27/3 26/26/3 7/7/3 22/22/3 30/30/3 32/32/3 29/29/3 31/31/3 23/23/3
f 2/2/4 1/1/4 34/34/4 35/35/4 38/38/4 33/33/4 6/6/4 19/19/4 39/39/4 42/42/4 41/41/4 37/37/4 36/36/4 40/40/4
f 29/29/5 32/32/5 43/43/5 20/20/5 6/6/5 33/33/5 47/47/5 44/44/5 34/34/5 1/1/5 3/3/5 28/28/5 45/45/5 46/46/5
f 42/42/6 50/50/6 17/17/6 7/7/6 26/26/6 52/52/6 51/51/6 24/24/6 5/5/6 2/2/6 40/40/6 48/48/6 49/49/6 41/41/6
f 42/42/2 39/39/2 4/4/2 50/50/2
f 50/50/7 4/4/7 18/18/7 17/17/7
f 4/4/8 39/39/8 19/19/8 18/18/8
f 28/28/2 23/23/2 8/8/2 45/45/2
f 9/9/1 31/31/1 29/29/1 46/46/1
f 45/45/9 8/8/9 9/9/9 46/46/9
f 31/31/10 9/9/10 8/8/10 23/23/10
f 51/51/2 10/10/2 25/25/2 24/24/2
f 26/26/1 27/27/1 11/11/1 52/52/1
f 52/52/9 11/11/9 10/10/9 51/51/9
f 25/25/8 10/10/8 11/11/8 27/27/8
f 48/48/2 40/40/2 36/36/2 12/12/2
f 13/13/1 37/37/1 41/41/1 49/49/1
f 48/48/7 12/12/7 13/13/7 49/49/7
f 37/37/8 13/13/8 12/12/8 36/36/8
f 44/44/2 14/14/2 35/35/2 34/34/2
f 38/38/1 15/15/1 47/47/1 33/33/1
f 47/47/11 15/15/11 14/14/11 44/44/11
f 35/35/12 14/14/12 15/15/12 38/38/12
f 32/32/2 30/30/2 16/16/2 43/43/2
f 43/43/13 16/16/13 21/21/13 20/20/13
f 21/21/12 16/16/12 30/30/12 22/22/12
f 60/60/2 58/58/2 68/68/2 65/65/2
f 55/55/14 56/56/14 60/60/14 59/59/14
f 53/53/15 54/54/15 63/63/15 62/62/15
f 57/57/15 58/58/15 54/54/15 53/53/15
f 55/55/1 59/59/1 57/57/1 53/53/1
f 60/60/2 56/56/2 54/54/2 58/58/2
f 62/62/16 63/63/16 64/64/16 61/61/16
f 66/66/17 65/65/17 68/68/17 67/67/17
f 59/59/14 60/60/14 65/65/14 66/66/14
f 54/54/2 56/56/2 64/64/2 63/63/2
f 53/53/15 62/62/15 74/74/15 70/70/15
f 58/58/15 57/57/15 67/67/15 68/68/15
f 62/62/16 61/61/16 73/73/16 74/74/16
f 56/56/14 55/55/14 61/61/14 64/64/14
f 69/69/1 70/70/1 74/74/1 73/73/1
f 71/71/1 72/72/1 76/76/1 75/75/1
f 66/66/17 67/67/17 75/75/17 76/76/17
f 61/61/14 55/55/14 69/69/14 73/73/14
f 59/59/14 66/66/14 76/76/14 72/72/14
f 55/55/17 53/53/17 70/70/17 69/69/17
f 57/57/16 59/59/16 72/72/16 71/71/16
f 67/67/15 57/57/15 71/71/15 75/75/15
f 80/80/1 79/79/1 77/77/1 78/78/1
f 83/83/2 82/82/2 81/81/2 84/84/2
f 79/79/17 80/80/17 83/83/17 84/84/17
f 78/78/16 77/77/16 81/81/16 82/82/16
f 77/77/15 79/79/15 84/84/15 81/81/15
f 80/80/14 78/78/14 82/82/14 83/83/14
