# Blender 3.4.1
# www.blender.org
mtllib sculpture005.mtl
o sculpture.004
v -0.519017 -0.345289 0.483831
v -0.519017 -0.345289 -0.483831
v 0.519016 -0.345289 0.483831
v 0.519016 -0.345289 -0.483831
v 0.655500 2.175285 0.271643
v -0.225034 2.175285 0.672926
v -0.655500 2.175285 -0.271643
v 0.225034 2.175285 -0.672926
v 0.707043 0.494902 0.059669
v 0.592762 1.335094 -0.390005
v 0.347503 1.335094 0.618637
v -0.109075 0.494902 0.701123
v -0.707043 0.494902 -0.059669
v -0.592762 1.335094 0.390005
v -0.347502 1.335094 -0.618637
v 0.109075 0.494902 -0.701123
v -0.519017 -0.683285 0.672465
v -0.519017 -0.345289 0.672465
v -0.519017 -0.683285 -0.672465
v -0.519017 -0.345289 -0.672465
v 0.519016 -0.683285 0.672465
v 0.519016 -0.345289 0.672465
v 0.519016 -0.683285 -0.672465
v 0.519016 -0.345289 -0.672465
v -0.762098 -0.683285 -0.672465
v -0.762098 -0.683285 0.672465
v -0.762098 -0.345289 0.672465
v -0.762098 -0.345289 -0.672465
v 0.762098 -0.345289 -0.672465
v 0.762098 -0.683285 -0.672465
v 0.762098 -0.683285 0.672465
v 0.762098 -0.345289 0.672465
v -0.519017 -0.801421 -0.672465
v -0.519017 -0.801421 0.672465
v 0.519016 -0.801421 0.672465
v 0.519016 -0.801421 -0.672465
v -0.762098 -0.801421 -0.672465
v -0.762098 -0.801421 0.672465
v 0.762098 -0.801421 0.672465
v 0.762098 -0.801421 -0.672465
vn -0.0000 -1.0000 -0.0000
vn -0.0000 1.0000 -0.0000
vn 0.9955 -0.0000 -0.0944
vn -0.9955 -0.0000 0.0944
vn -0.0944 -0.0000 -0.9955
vn 0.0944 -0.0000 0.9955
vn -0.9450 -0.0000 0.3269
vn -0.5410 -0.0000 0.8410
vn 0.9450 -0.0000 -0.3269
vn 0.5410 -0.0000 -0.8410
vn -0.3269 -0.0000 -0.9450
vn -0.8410 -0.0000 -0.5410
vn 0.3269 -0.0000 0.9450
vn 0.8410 -0.0000 0.5410
vn -0.0000 -0.0000 -1.0000
vn -0.0000 -0.0000 1.0000
vn -1.0000 -0.0000 -0.0000
vn 1.0000 -0.0000 -0.0000
vt 0.425591 0.118652
vt 0.425591 0.118652
vt 0.425591 0.118652
vt 0.425591 0.118652
vt 0.425591 0.118652
vt 0.425591 0.118652
vt 0.425591 0.118652
vt 0.425591 0.118652
vt 0.425591 0.118652
vt 0.425591 0.118652
vt 0.425591 0.118652
vt 0.425591 0.118652
vt 0.425591 0.118652
vt 0.425591 0.118652
vt 0.425591 0.118652
vt 0.425591 0.118652
vt 0.831742 0.106250
vt 0.831742 0.106250
vt 0.831742 0.106250
vt 0.831742 0.106250
vt 0.831742 0.106250
vt 0.831742 0.106250
vt 0.831742 0.106250
vt 0.831742 0.106250
vt 0.831742 0.106250
vt 0.831742 0.106250
vt 0.831742 0.106250
vt 0.831742 0.106250
vt 0.831742 0.106250
vt 0.831742 0.106250
vt 0.831742 0.106250
vt 0.831742 0.106250
vt 0.831742 0.106250
vt 0.831742 0.106250
vt 0.831742 0.106250
vt 0.831742 0.106250
vt 0.831742 0.106250
vt 0.831742 0.106250
vt 0.831742 0.106250
vt 0.831742 0.106250
s 1
usemtl Material
f 4/4/1 3/3/1 1/1/1 2/2/1
f 7/7/2 6/6/2 5/5/2 8/8/2
f 11/11/3 10/10/3 8/8/3 5/5/3
f 15/15/4 14/14/4 6/6/4 7/7/4
f 10/10/5 15/15/5 7/7/5 8/8/5
f 14/14/6 11/11/6 5/5/6 6/6/6
f 2/2/7 1/1/7 12/12/7 13/13/7
f 13/13/8 12/12/8 11/11/8 14/14/8
f 3/3/9 4/4/9 16/16/9 9/9/9
f 9/9/10 16/16/10 15/15/10 10/10/10
f 4/4/11 2/2/11 13/13/11 16/16/11
f 16/16/12 13/13/12 14/14/12 15/15/12
f 1/1/13 3/3/13 9/9/13 12/12/13
f 12/12/14 9/9/14 10/10/14 11/11/14
f 24/24/2 22/22/2 32/32/2 29/29/2
f 19/19/15 20/20/15 24/24/15 23/23/15
f 17/17/16 18/18/16 27/27/16 26/26/16
f 21/21/16 22/22/16 18/18/16 17/17/16
f 19/19/1 23/23/1 21/21/1 17/17/1
f 24/24/2 20/20/2 18/18/2 22/22/2
f 26/26/17 27/27/17 28/28/17 25/25/17
f 30/30/18 29/29/18 32/32/18 31/31/18
f 23/23/15 24/24/15 29/29/15 30/30/15
f 18/18/2 20/20/2 28/28/2 27/27/2
f 17/17/16 26/26/16 38/38/16 34/34/16
f 22/22/16 21/21/16 31/31/16 32/32/16
f 26/26/17 25/25/17 37/37/17 38/38/17
f 20/20/15 19/19/15 25/25/15 28/28/15
f 33/33/1 34/34/1 38/38/1 37/37/1
f 35/35/1 36/36/1 40/40/1 39/39/1
f 30/30/18 31/31/18 39/39/18 40/40/18
f 25/25/15 19/19/15 33/33/15 37/37/15
f 23/23/15 30/30/15 40/40/15 36/36/15
f 19/19/18 17/17/18 34/34/18 33/33/18
f 21/21/17 23/23/17 36/36/17 35/35/17
f 31/31/16 21/21/16 35/35/16 39/39/16
