# Blender 3.4.1
# www.blender.org
mtllib toilet006.mtl
o toilet2.005
v -0.190392 0.186148 2.247931
v -0.176106 0.294676 2.139403
v -0.699277 0.294676 1.999219
v -0.755453 0.186148 2.096522
v -1.071806 0.294676 1.626690
v -1.169110 0.186148 1.682868
v -1.211987 0.294676 1.103518
v -1.320515 0.186148 1.117807
v 0.755453 0.186148 2.096522
v 0.699274 0.294676 1.999219
v 0.176103 0.294676 2.139403
v 0.190391 0.186148 2.247931
v 1.169107 0.186148 1.682868
v 1.071803 0.294676 1.626690
v 1.320514 0.186148 1.117807
v 1.211986 0.294676 1.103518
v -1.204415 0.186148 -0.501617
v -1.112209 0.294676 -0.442595
v -1.011496 0.294676 -0.561857
v -1.088314 0.186148 -0.639100
v -1.289406 0.186148 -0.319913
v -1.185003 0.294676 -0.286971
v -1.320515 0.186148 -0.142677
v -1.211987 0.294676 -0.133223
v 1.289406 0.186148 -0.319913
v 1.185000 0.294676 -0.286972
v 1.211986 0.294676 -0.133223
v 1.320514 0.186148 -0.142677
v 1.204417 0.186148 -0.501617
v 1.112211 0.294676 -0.442595
v 1.088316 0.186148 -0.639100
v 1.011495 0.294676 -0.561858
v -0.960646 0.294676 -0.604324
v -0.999999 0.186148 -0.712852
v 1.000001 0.186148 -0.712852
v 0.960643 0.294676 -0.604324
v -0.999999 0.022189 -0.712852
v -0.978160 -0.038040 -0.652623
v 0.978160 -0.038040 -0.652623
v 1.000001 0.022189 -0.712852
v -1.320515 0.022189 1.117807
v -1.260286 -0.038040 1.109877
v -0.182462 -0.038040 2.187702
v -0.190392 0.022189 2.247931
v -1.169110 0.022189 1.682868
v -1.115108 -0.038040 1.651691
v -0.755453 0.022189 2.096522
v -0.724278 -0.038040 2.042523
v 0.190391 0.022189 2.247931
v 0.182461 -0.038040 2.187702
v 1.260285 -0.038040 1.109877
v 1.320514 0.022189 1.117807
v 0.724277 -0.038040 2.042523
v 0.755453 0.022189 2.096522
v 1.115107 -0.038040 1.651691
v 1.169107 0.022189 1.682868
v -1.088314 0.022189 -0.639100
v -1.045685 -0.038040 -0.596233
v -1.260286 -0.038040 -0.137430
v -1.320515 0.022189 -0.142677
v -1.153245 -0.038040 -0.468862
v -1.204415 0.022189 -0.501617
v -1.231466 -0.038040 -0.301631
v -1.289406 0.022189 -0.319913
v 1.320514 0.022189 -0.142677
v 1.260285 -0.038040 -0.137430
v 1.045682 -0.038040 -0.596233
v 1.088316 0.022189 -0.639100
v 1.231465 -0.038040 -0.301631
v 1.289406 0.022189 -0.319913
v 1.153245 -0.038040 -0.468862
v 1.204417 0.022189 -0.501617
v -0.525384 -1.433741 -0.490852
v -0.999999 -0.011660 -0.712852
v 0.525381 -1.433741 -0.490852
v 1.000001 -0.011660 -0.712852
v -0.999999 -0.011660 -1.637757
v -0.525384 -1.433741 -1.163138
v 0.525381 -1.433741 -1.163138
v 1.000001 -0.011660 -1.637757
v -0.127907 -1.433741 1.773312
v -0.845895 -1.433741 1.055322
v -0.509773 -1.433741 1.670990
v -0.743575 -1.433741 1.437187
v -1.320515 -0.011660 1.117807
v -0.190392 -0.011660 2.247931
v -1.169110 -0.011660 1.682868
v -0.755453 -0.011660 2.096522
v 0.845897 -1.433741 1.055322
v 0.127907 -1.433741 1.773312
v 0.743575 -1.433741 1.437187
v 0.509772 -1.433741 1.670990
v 0.190391 -0.011660 2.247931
v 1.320514 -0.011660 1.117807
v 0.755453 -0.011660 2.096522
v 1.169107 -0.011660 1.682868
v -0.845895 -1.433741 -0.101340
v -0.752368 -1.433741 -0.301299
v -0.832820 -1.433741 -0.175851
v -0.801177 -1.433741 -0.243499
v -1.088314 -0.011660 -0.639100
v -1.320515 -0.011660 -0.142677
v -1.204415 -0.011660 -0.501617
v -1.289406 -0.011660 -0.319913
v 1.320514 -0.011660 -0.142677
v 1.088316 -0.011660 -0.639100
v 1.289406 -0.011660 -0.319913
v 1.204417 -0.011660 -0.501617
v 0.752365 -1.433741 -0.301299
v 0.845897 -1.433741 -0.101340
v 0.801177 -1.433741 -0.243499
v 0.832817 -1.433741 -0.175852
v 0.525381 -2.018028 -1.163138
v -0.525384 -2.018028 -1.163138
v -0.525384 -2.018028 -0.490852
v 0.525381 -2.018028 -0.490852
v -0.509773 -2.018028 1.670990
v -0.127907 -2.018028 1.773312
v -0.743575 -2.018028 1.437187
v -0.845895 -2.018028 1.055322
v 0.127907 -2.018028 1.773312
v 0.509772 -2.018028 1.670990
v 0.743575 -2.018028 1.437187
v 0.845897 -2.018028 1.055322
v -0.752368 -2.018028 -0.301299
v -0.801177 -2.018028 -0.243499
v -0.832820 -2.018028 -0.175851
v -0.845895 -2.018028 -0.101340
v 0.845897 -2.018028 -0.101340
v 0.832817 -2.018028 -0.175852
v 0.801177 -2.018028 -0.243499
v 0.752365 -2.018028 -0.301299
v 0.853841 -1.243217 -1.395403
v -0.853839 -1.243217 -1.395403
v -0.853839 -1.243217 -0.587645
v 0.853841 -1.243217 -0.587645
v -0.655961 -1.243217 1.877488
v -0.165263 -1.243217 2.008971
v -1.010752 -1.243217 1.522700
v -1.142230 -1.243217 1.032001
v 0.165260 -1.243217 2.008971
v 0.655961 -1.243217 1.877488
v 1.010749 -1.243217 1.522700
v 1.142230 -1.243217 1.032001
v -0.946727 -1.243217 -0.510078
v -1.044679 -1.243217 -0.394087
v -1.115985 -1.243217 -0.241632
v -1.142230 -1.243217 -0.092101
v 1.142230 -1.243217 -0.092101
v 1.115985 -1.243217 -0.241632
v 1.044676 -1.243217 -0.394087
v 0.946724 -1.243217 -0.510078
v -1.220699 2.319091 -1.089217
v 1.220698 2.319091 -1.089217
v 1.220698 -1.052693 -1.089217
v -1.220699 -1.052693 -1.089217
v -1.220699 2.319091 -2.163489
v 1.220698 2.319091 -2.163489
v -1.220699 -1.052693 -2.163489
v 1.220698 -1.052693 -2.163489
v -1.168361 2.572811 -1.141556
v -1.220699 2.520473 -1.089217
v 1.220698 2.520473 -1.089217
v 1.168360 2.572811 -1.141556
v -1.220699 2.520473 -2.163489
v -1.168361 2.572811 -2.111150
v 1.168360 2.572811 -2.111150
v 1.220698 2.520473 -2.163489
v -1.220699 2.355242 -1.089217
v -1.184545 2.319090 -1.125369
v 1.184547 2.319090 -1.125369
v 1.220698 2.355242 -1.089217
v -1.184545 2.319090 -2.127337
v -1.220699 2.355242 -2.163489
v 1.220698 2.355242 -2.163489
v 1.184547 2.319090 -2.127337
v -0.140419 2.570292 -1.592408
v -0.063915 2.570292 -1.505441
v 0.140424 2.570292 -1.592408
v 0.063922 2.570292 -1.505441
v -0.140419 2.570292 -1.695001
v -0.063915 2.570292 -1.781969
v 0.140424 2.570292 -1.695001
v 0.063922 2.570292 -1.781969
v -0.140419 2.633120 -1.695001
v -0.140419 2.633120 -1.592408
v -0.063915 2.633120 -1.505441
v 0.063922 2.633120 -1.505441
v 0.140424 2.633120 -1.592408
v 0.140424 2.633120 -1.695001
v 0.063922 2.633120 -1.781969
v -0.063915 2.633120 -1.781969
vn -0.0000 -0.0000 -1.0000
vn -0.8660 -0.0000 0.5000
vn -0.5000 -0.0000 0.8660
vn 0.8660 -0.0000 0.5000
vn 0.9914 -0.0000 0.1305
vn 0.1305 -0.0000 0.9914
vn 0.5000 -0.0000 0.8660
vn -0.8422 -0.0000 -0.5391
vn -0.9537 -0.0000 -0.3009
vn 0.9962 -0.0000 -0.0868
vn 0.9537 -0.0000 -0.3009
vn -0.0000 1.0000 -0.0000
vn -0.9962 -0.0000 -0.0868
vn -0.0000 -1.0000 -0.0000
vn -0.9914 -0.0000 0.1305
vn 0.7052 -0.0000 -0.7090
vn 0.6410 -0.0000 -0.7676
vn 0.8422 -0.0000 -0.5391
vn -0.1305 -0.0000 0.9914
vn -0.7052 -0.0000 -0.7090
vn -0.0919 0.7101 0.6980
vn -0.3474 0.7193 0.6017
vn -0.6017 0.7193 0.3474
vn -0.6980 0.7101 0.0919
vn 0.3474 0.7193 0.6017
vn 0.0919 0.7101 0.6980
vn 0.6017 0.7193 0.3474
vn 0.6980 0.7101 0.0919
vn -0.5929 0.7102 -0.3796
vn -0.4977 0.7084 -0.5004
vn -0.6714 0.7102 -0.2118
vn -0.7031 0.7084 -0.0612
vn 0.6714 0.7102 -0.2118
vn 0.7031 0.7084 -0.0612
vn 0.5929 0.7102 -0.3795
vn 0.4977 0.7084 -0.5004
vn -0.2335 0.7286 -0.6439
vn 0.2335 0.7286 -0.6439
vn -0.0919 -0.7101 0.6980
vn -0.3474 -0.7193 0.6017
vn -0.6017 -0.7193 0.3474
vn -0.6980 -0.7101 0.0919
vn 0.3474 -0.7193 0.6017
vn 0.0919 -0.7101 0.6980
vn 0.6017 -0.7193 0.3474
vn 0.6980 -0.7101 0.0919
vn -0.5929 -0.7102 -0.3796
vn -0.4977 -0.7084 -0.5004
vn -0.6714 -0.7102 -0.2118
vn -0.7031 -0.7084 -0.0612
vn 0.6714 -0.7102 -0.2118
vn 0.7031 -0.7084 -0.0612
vn 0.5929 -0.7102 -0.3795
vn 0.4977 -0.7084 -0.5004
vn -0.2335 -0.7286 -0.6439
vn 0.2335 -0.7286 -0.6439
vn -0.6410 -0.0000 -0.7676
vn -0.9962 -0.0000 -0.0867
vn -0.0000 -0.7732 -0.6342
vn -0.4935 -0.1908 0.8485
vn -0.1285 -0.1914 0.9731
vn -0.1277 -0.1914 0.9732
vn -0.4883 -0.1909 0.8515
vn -0.9807 -0.1507 0.1249
vn -0.8569 -0.1733 0.4854
vn -0.8491 -0.1740 0.4988
vn -0.9795 -0.1511 0.1330
vn -0.9930 -0.1179 -0.0000
vn 0.9807 -0.1507 0.1249
vn 0.9857 -0.1461 -0.0843
vn 0.9854 -0.1462 -0.0873
vn 0.9795 -0.1511 0.1330
vn 0.9930 -0.1179 -0.0000
vn -0.6965 -0.1535 -0.7009
vn -0.8323 -0.1544 -0.5324
vn -0.8320 -0.1544 -0.5329
vn -0.6971 -0.1535 -0.7004
vn -0.6335 -0.1523 -0.7586
vn 0.8569 -0.1733 0.4854
vn 0.8491 -0.1740 0.4988
vn 0.1285 -0.1914 0.9731
vn 0.1277 -0.1914 0.9732
vn 0.6965 -0.1535 -0.7009
vn 0.6335 -0.1523 -0.7586
vn 0.6971 -0.1535 -0.7004
vn 0.4935 -0.1908 0.8485
vn 0.4883 -0.1909 0.8515
vn -0.9431 -0.1516 -0.2960
vn -0.9857 -0.1461 -0.0843
vn -0.9854 -0.1462 -0.0873
vn -0.9422 -0.1517 -0.2988
vn 0.9431 -0.1516 -0.2960
vn 0.9422 -0.1517 -0.2988
vn 0.8323 -0.1544 -0.5324
vn 0.8320 -0.1544 -0.5329
vn 1.0000 -0.0000 -0.0000
vn 0.7052 -0.0000 -0.7091
vn -1.0000 -0.0000 -0.0000
vn -0.5018 -0.8650 -0.0000
vn -0.4484 -0.8722 -0.1954
vn -0.4355 -0.8694 -0.2335
vn 0.4355 -0.8694 -0.2335
vn 0.4484 -0.8722 -0.1954
vn 0.5018 -0.8650 -0.0000
vn -0.3067 -0.7979 0.5190
vn -0.2940 -0.7972 0.5274
vn -0.0803 -0.7813 0.6189
vn -0.0824 -0.7813 0.6186
vn -0.4994 -0.8225 0.2723
vn -0.4864 -0.8189 0.3049
vn -0.5433 -0.8371 0.0642
vn -0.5435 -0.8355 0.0806
vn 0.0824 -0.7813 0.6186
vn 0.0803 -0.7813 0.6189
vn 0.2940 -0.7972 0.5274
vn 0.3067 -0.7979 0.5190
vn 0.4864 -0.8189 0.3049
vn 0.4994 -0.8225 0.2723
vn 0.5435 -0.8355 0.0806
vn 0.5433 -0.8371 0.0642
vn -0.3912 -0.8314 -0.3945
vn -0.3925 -0.8314 -0.3934
vn -0.4663 -0.8325 -0.2993
vn -0.4669 -0.8325 -0.2982
vn -0.5230 -0.8355 -0.1685
vn -0.5245 -0.8357 -0.1627
vn -0.5412 -0.8394 -0.0503
vn -0.5413 -0.8397 -0.0443
vn 0.5413 -0.8397 -0.0443
vn 0.5412 -0.8394 -0.0503
vn 0.5230 -0.8355 -0.1685
vn 0.5245 -0.8357 -0.1627
vn 0.4663 -0.8325 -0.2993
vn 0.4669 -0.8325 -0.2982
vn 0.3925 -0.8314 -0.3934
vn 0.3912 -0.8314 -0.3945
vn -0.0000 -0.1931 -0.9812
vn -0.0000 -0.0000 1.0000
vn -0.0000 0.7071 0.7071
vn -0.0000 0.7071 -0.7071
vn -0.7071 0.7071 -0.0000
vn 0.7071 0.7071 -0.0000
vn -0.0000 -0.7071 0.7071
vn -0.0000 -0.7071 -0.7071
vn -0.7071 -0.7071 -0.0000
vn 0.7071 -0.7071 -0.0000
vn 0.7508 -0.0000 0.6605
vn -0.7508 -0.0000 0.6605
vn -0.7508 -0.0000 -0.6605
vn 0.7508 -0.0000 -0.6605
vt 0.410089 0.124853
vt 0.410089 0.124853
vt 0.410089 0.124853
vt 0.410089 0.124853
vt 0.410089 0.124853
vt 0.410089 0.124853
vt 0.410089 0.124853
vt 0.410089 0.124853
vt 0.410089 0.124853
vt 0.410089 0.124853
vt 0.410089 0.124853
vt 0.410089 0.124853
vt 0.410089 0.124853
vt 0.410089 0.124853
vt 0.410089 0.124853
vt 0.410089 0.124853
vt 0.410089 0.124853
vt 0.410089 0.124853
vt 0.410089 0.124853
vt 0.410089 0.124853
vt 0.410089 0.124853
vt 0.410089 0.124853
vt 0.410089 0.124853
vt 0.410089 0.124853
vt 0.410089 0.124853
vt 0.410089 0.124853
vt 0.410089 0.124853
vt 0.410089 0.124853
vt 0.410089 0.124853
vt 0.410089 0.124853
vt 0.410089 0.124853
vt 0.410089 0.124853
vt 0.410089 0.124853
vt 0.410089 0.124853
vt 0.410089 0.124853
vt 0.410089 0.124853
vt 0.410089 0.124853
vt 0.410089 0.124853
vt 0.410089 0.124853
vt 0.410089 0.124853
vt 0.410089 0.124853
vt 0.410089 0.124853
vt 0.410089 0.124853
vt 0.410089 0.124853
vt 0.410089 0.124853
vt 0.410089 0.124853
vt 0.410089 0.124853
vt 0.410089 0.124853
vt 0.410089 0.124853
vt 0.410089 0.124853
vt 0.410089 0.124853
vt 0.410089 0.124853
vt 0.410089 0.124853
vt 0.410089 0.124853
vt 0.410089 0.124853
vt 0.410089 0.124853
vt 0.410089 0.124853
vt 0.410089 0.124853
vt 0.410089 0.124853
vt 0.410089 0.124853
vt 0.410089 0.124853
vt 0.410089 0.124853
vt 0.410089 0.124853
vt 0.410089 0.124853
vt 0.410089 0.124853
vt 0.410089 0.124853
vt 0.410089 0.124853
vt 0.410089 0.124853
vt 0.410089 0.124853
vt 0.410089 0.124853
vt 0.410089 0.124853
vt 0.410089 0.124853
vt 0.410089 0.124853
vt 0.410089 0.124853
vt 0.410089 0.124853
vt 0.410089 0.124853
vt 0.410089 0.124853
vt 0.410089 0.124853
vt 0.410089 0.124853
vt 0.410089 0.124853
vt 0.410089 0.124853
vt 0.410089 0.124853
vt 0.410089 0.124853
vt 0.410089 0.124853
vt 0.410089 0.124853
vt 0.410089 0.124853
vt 0.410089 0.124853
vt 0.410089 0.124853
vt 0.410089 0.124853
vt 0.410089 0.124853
vt 0.410089 0.124853
vt 0.410089 0.124853
vt 0.410089 0.124853
vt 0.410089 0.124853
vt 0.410089 0.124853
vt 0.410089 0.124853
vt 0.410089 0.124853
vt 0.410089 0.124853
vt 0.410089 0.124853
vt 0.410089 0.124853
vt 0.410089 0.124853
vt 0.410089 0.124853
vt 0.410089 0.124853
vt 0.410089 0.124853
vt 0.410089 0.124853
vt 0.410089 0.124853
vt 0.410089 0.124853
vt 0.410089 0.124853
vt 0.410089 0.124853
vt 0.410089 0.124853
vt 0.410089 0.124853
vt 0.410089 0.124853
vt 0.410089 0.124853
vt 0.410089 0.124853
vt 0.410089 0.124853
vt 0.410089 0.124853
vt 0.410089 0.124853
vt 0.410089 0.124853
vt 0.410089 0.124853
vt 0.410089 0.124853
vt 0.410089 0.124853
vt 0.410089 0.124853
vt 0.410089 0.124853
vt 0.410089 0.124853
vt 0.410089 0.124853
vt 0.410089 0.124853
vt 0.410089 0.124853
vt 0.410089 0.124853
vt 0.410089 0.124853
vt 0.410089 0.124853
vt 0.410089 0.124853
vt 0.410089 0.124853
vt 0.410089 0.124853
vt 0.410089 0.124853
vt 0.410089 0.124853
vt 0.410089 0.124853
vt 0.410089 0.124853
vt 0.410089 0.124853
vt 0.410089 0.124853
vt 0.410089 0.124853
vt 0.410089 0.124853
vt 0.410089 0.124853
vt 0.410089 0.124853
vt 0.410089 0.124853
vt 0.410089 0.124853
vt 0.410089 0.124853
vt 0.410089 0.124853
vt 0.410089 0.124853
vt 0.410089 0.124853
vt 0.410089 0.124853
vt 0.410089 0.124853
vt 0.410089 0.124853
vt 0.410089 0.124853
vt 0.410089 0.124853
vt 0.410089 0.124853
vt 0.410089 0.124853
vt 0.410089 0.124853
vt 0.410089 0.124853
vt 0.410089 0.124853
vt 0.410089 0.124853
vt 0.410089 0.124853
vt 0.410089 0.124853
vt 0.410089 0.124853
vt 0.410089 0.124853
vt 0.410089 0.124853
vt 0.410089 0.124853
vt 0.410089 0.124853
vt 0.410089 0.124853
vt 0.410089 0.124853
vt 0.410089 0.124853
vt 0.410089 0.124853
vt 0.410089 0.124853
vt 0.410089 0.124853
vt 0.410089 0.124853
vt 0.410089 0.124853
vt 0.410089 0.124853
vt 0.410089 0.124853
vt 0.410089 0.124853
vt 0.410089 0.124853
vt 0.410089 0.124853
vt 0.410089 0.124853
vt 0.410089 0.124853
vt 0.410089 0.124853
vt 0.410089 0.124853
vt 0.410089 0.124853
vt 0.410089 0.124853
vt 0.410089 0.124853
vt 0.410089 0.124853
vt 0.410089 0.124853
vt 0.410089 0.124853
vt 0.410089 0.124853
vt 0.410089 0.124853
s 1
usemtl Material
f 40/40/1 37/37/1 34/34/1 35/35/1
f 45/45/2 47/47/3 4/4/3 6/6/2
f 56/56/4 52/52/5 15/15/5 13/13/4
f 49/49/6 54/54/7 9/9/7 12/12/6
f 62/62/8 64/64/9 21/21/9 17/17/8
f 65/65/10 70/70/11 25/25/11 28/28/10
f 33/33/12 19/19/12 18/18/12 22/22/12 24/24/12 7/7/12 5/5/12 3/3/12 2/2/12 11/11/12 10/10/12 14/14/12 16/16/12 27/27/12 26/26/12 30/30/12 32/32/12 36/36/12
f 64/64/9 60/60/13 23/23/13 21/21/9
f 38/38/14 39/39/14 67/67/14 71/71/14 69/69/14 66/66/14 51/51/14 55/55/14 53/53/14 50/50/14 43/43/14 48/48/14 46/46/14 42/42/14 59/59/14 63/63/14 61/61/14 58/58/14
f 60/60/13 41/41/15 8/8/15 23/23/13
f 68/68/16 40/40/17 35/35/17 31/31/16
f 72/72/18 68/68/16 31/31/16 29/29/18
f 47/47/3 44/44/19 1/1/19 4/4/3
f 57/57/20 62/62/8 17/17/8 20/20/20
f 70/70/11 72/72/18 29/29/18 25/25/11
f 52/52/5 65/65/10 28/28/10 15/15/5
f 41/41/15 45/45/2 6/6/2 8/8/15
f 54/54/7 56/56/4 13/13/4 9/9/7
f 2/2/21 3/3/22 4/4/22 1/1/21
f 3/3/22 5/5/23 6/6/23 4/4/22
f 5/5/23 7/7/24 8/8/24 6/6/23
f 10/10/25 11/11/26 12/12/26 9/9/25
f 14/14/27 10/10/25 9/9/25 13/13/27
f 16/16/28 14/14/27 13/13/27 15/15/28
f 11/11/26 2/2/21 1/1/21 12/12/26
f 18/18/29 19/19/30 20/20/30 17/17/29
f 22/22/31 18/18/29 17/17/29 21/21/31
f 24/24/32 22/22/31 21/21/31 23/23/32
f 26/26/33 27/27/34 28/28/34 25/25/33
f 30/30/35 26/26/33 25/25/33 29/29/35
f 32/32/36 30/30/35 29/29/35 31/31/36
f 7/7/24 24/24/32 23/23/32 8/8/24
f 19/19/30 33/33/37 34/34/37 20/20/30
f 15/15/28 28/28/34 27/27/34 16/16/28
f 31/31/36 35/35/38 36/36/38 32/32/36
f 33/33/37 36/36/38 35/35/38 34/34/37
f 44/44/19 49/49/6 12/12/6 1/1/19
f 44/44/39 47/47/40 48/48/40 43/43/39
f 47/47/40 45/45/41 46/46/41 48/48/40
f 45/45/41 41/41/42 42/42/42 46/46/41
f 54/54/43 49/49/44 50/50/44 53/53/43
f 56/56/45 54/54/43 53/53/43 55/55/45
f 52/52/46 56/56/45 55/55/45 51/51/46
f 49/49/44 44/44/39 43/43/39 50/50/44
f 62/62/47 57/57/48 58/58/48 61/61/47
f 64/64/49 62/62/47 61/61/47 63/63/49
f 60/60/50 64/64/49 63/63/49 59/59/50
f 70/70/51 65/65/52 66/66/52 69/69/51
f 72/72/53 70/70/51 69/69/51 71/71/53
f 68/68/54 72/72/53 71/71/53 67/67/54
f 41/41/42 60/60/50 59/59/50 42/42/42
f 57/57/48 37/37/55 38/38/55 58/58/48
f 51/51/46 66/66/52 65/65/52 52/52/46
f 67/67/54 39/39/56 40/40/56 68/68/54
f 37/37/55 40/40/56 39/39/56 38/38/55
f 37/37/57 57/57/20 20/20/20 34/34/57
f 82/82/15 97/97/58 128/128/58 120/120/15
f 79/79/59 78/78/59 134/134/59 133/133/59
f 137/137/60 138/138/61 86/86/62 88/88/63
f 74/74/12 101/101/12 103/103/12 104/104/12 102/102/12 85/85/12 87/87/12 88/88/12 86/86/12 93/93/12 95/95/12 96/96/12 94/94/12 105/105/12 107/107/12 108/108/12 106/106/12 76/76/12 80/80/12 77/77/12
f 140/140/64 139/139/65 87/87/66 85/85/67
f 134/134/68 135/135/68 74/74/68 77/77/68
f 144/144/69 149/149/70 105/105/71 94/94/72
f 136/136/73 133/133/73 80/80/73 76/76/73
f 139/139/65 137/137/60 88/88/63 87/87/66
f 145/145/74 146/146/75 103/103/76 101/101/77
f 135/135/78 145/145/74 101/101/77 74/74/78
f 143/143/79 144/144/69 94/94/72 96/96/80
f 138/138/61 141/141/81 93/93/82 86/86/62
f 152/152/83 136/136/84 76/76/84 106/106/85
f 141/141/81 142/142/86 95/95/87 93/93/82
f 147/147/88 148/148/89 102/102/90 104/104/91
f 149/149/70 150/150/92 107/107/93 105/105/71
f 150/150/92 151/151/94 108/108/95 107/107/93
f 151/151/94 152/152/83 106/106/85 108/108/95
f 148/148/89 140/140/64 85/85/67 102/102/90
f 142/142/86 143/143/79 96/96/80 95/95/87
f 146/146/75 147/147/88 104/104/91 103/103/76
f 124/124/14 123/123/14 122/122/14 121/121/14 118/118/14 117/117/14 119/119/14 120/120/14 128/128/14 127/127/14 126/126/14 125/125/14 115/115/14 114/114/14 113/113/14 116/116/14 132/132/14 131/131/14 130/130/14 129/129/14
f 90/90/6 81/81/19 118/118/19 121/121/6
f 79/79/96 75/75/96 116/116/96 113/113/96
f 98/98/20 73/73/57 115/115/57 125/125/20
f 100/100/8 98/98/20 125/125/20 126/126/8
f 81/81/19 83/83/3 117/117/3 118/118/19
f 110/110/10 89/89/5 124/124/5 129/129/10
f 99/99/9 100/100/8 126/126/8 127/127/9
f 83/83/3 84/84/2 119/119/2 117/117/3
f 75/75/17 109/109/97 132/132/97 116/116/17
f 97/97/58 99/99/9 127/127/9 128/128/58
f 84/84/2 82/82/15 120/120/15 119/119/2
f 112/112/11 110/110/10 129/129/10 130/130/11
f 92/92/7 90/90/6 121/121/6 122/122/7
f 111/111/18 112/112/11 130/130/11 131/131/18
f 91/91/4 92/92/7 122/122/7 123/123/4
f 78/78/1 79/79/1 113/113/1 114/114/1
f 109/109/97 111/111/18 131/131/18 132/132/97
f 89/89/5 91/91/4 123/123/4 124/124/5
f 73/73/98 78/78/98 114/114/98 115/115/98
f 134/134/99 78/78/99 73/73/100 135/135/101
f 136/136/102 75/75/103 79/79/104 133/133/104
f 137/137/105 83/83/106 81/81/107 138/138/108
f 139/139/109 84/84/110 83/83/106 137/137/105
f 140/140/111 82/82/112 84/84/110 139/139/109
f 141/141/113 90/90/114 92/92/115 142/142/116
f 142/142/116 92/92/115 91/91/117 143/143/118
f 143/143/118 91/91/117 89/89/119 144/144/120
f 138/138/108 81/81/107 90/90/114 141/141/113
f 145/145/121 98/98/122 100/100/123 146/146/124
f 146/146/124 100/100/123 99/99/125 147/147/126
f 147/147/126 99/99/125 97/97/127 148/148/128
f 149/149/129 110/110/130 112/112/131 150/150/132
f 150/150/132 112/112/131 111/111/133 151/151/134
f 151/151/134 111/111/133 109/109/135 152/152/136
f 148/148/128 97/97/127 82/82/112 140/140/111
f 135/135/101 73/73/100 98/98/122 145/145/121
f 144/144/120 89/89/119 110/110/130 149/149/129
f 152/152/136 109/109/135 75/75/103 136/136/102
f 133/133/137 134/134/137 77/77/137 80/80/137
f 156/156/138 155/155/138 154/154/138 153/153/138
f 159/159/1 157/157/1 158/158/1 160/160/1
f 155/155/14 156/156/14 159/159/14 160/160/14
f 156/156/98 153/153/98 157/157/98 159/159/98
f 153/153/12 154/154/12 158/158/12 157/157/12
f 154/154/96 155/155/96 160/160/96 158/158/96
f 174/174/98 169/169/98 162/162/98 165/165/98
f 172/172/96 175/175/96 168/168/96 163/163/96
f 175/175/1 174/174/1 165/165/1 168/168/1
f 161/161/12 164/164/12 167/167/12 166/166/12
f 162/162/139 163/163/139 164/164/139 161/161/139
f 166/166/140 167/167/140 168/168/140 165/165/140
f 161/161/141 166/166/141 165/165/141 162/162/141
f 163/163/142 168/168/142 167/167/142 164/164/142
f 170/170/14 173/173/14 176/176/14 171/171/14
f 170/170/143 171/171/143 172/172/143 169/169/143
f 174/174/144 175/175/144 176/176/144 173/173/144
f 169/169/145 174/174/145 173/173/145 170/170/145
f 171/171/146 176/176/146 175/175/146 172/172/146
f 169/169/138 172/172/138 163/163/138 162/162/138
f 177/177/14 181/181/14 182/182/14 184/184/14 183/183/14 179/179/14 180/180/14 178/178/14
f 186/186/12 187/187/12 188/188/12 189/189/12 190/190/12 191/191/12 192/192/12 185/185/12
f 180/180/147 179/179/147 189/189/147 188/188/147
f 177/177/148 178/178/148 187/187/148 186/186/148
f 184/184/1 182/182/1 192/192/1 191/191/1
f 179/179/96 183/183/96 190/190/96 189/189/96
f 178/178/138 180/180/138 188/188/138 187/187/138
f 181/181/98 177/177/98 186/186/98 185/185/98
f 182/182/149 181/181/149 185/185/149 192/192/149
f 183/183/150 184/184/150 191/191/150 190/190/150
