# Blender 3.4.1
# www.blender.org
mtllib toilet009.mtl
o toilet2.008
v -1.661902 1.268066 0.119900
v 1.659842 1.268066 0.119900
v -1.661902 0.862947 0.119900
v 1.659842 0.862947 0.119900
v -1.661902 1.268066 0.214497
v 1.659842 1.268066 0.214497
v 1.659842 0.862947 0.214497
v -1.661902 0.862947 0.214497
v -1.638882 -3.343174 0.119900
v -1.638882 3.182397 0.119900
v -1.638882 -3.343174 -0.135146
v -1.638882 3.182397 -0.135146
v -1.463453 -3.343173 0.119900
v -1.463453 3.182397 0.119900
v -1.463453 -3.343173 -0.135146
v -1.463453 3.182397 -0.135146
v -1.638882 2.771041 -0.135146
v -1.638882 2.494672 -0.135146
v -1.638882 -2.496516 -0.135146
v -1.638882 -2.772885 -0.135146
v -1.463453 2.771041 -0.135146
v -1.463453 2.494672 -0.135146
v -1.463453 -2.496516 -0.135146
v -1.463453 -2.772885 -0.135146
v -1.638882 2.771041 -0.526025
v -1.638882 2.494672 -0.526025
v -1.638882 -2.496516 -0.526025
v -1.638882 -2.772885 -0.526025
v -1.463453 2.771041 -0.526025
v -1.463453 2.494672 -0.526025
v -1.463453 -2.496516 -0.526025
v -1.463453 -2.772885 -0.526025
v 1.466204 -3.343173 0.119900
v 1.466204 3.182396 0.119900
v 1.466204 -3.343173 -0.135146
v 1.466204 3.182396 -0.135146
v 1.641633 -3.343173 0.119900
v 1.641633 3.182396 0.119900
v 1.641633 -3.343173 -0.135146
v 1.641633 3.182396 -0.135146
v 1.466204 2.771041 -0.135146
v 1.466204 2.494672 -0.135146
v 1.466204 -2.496516 -0.135146
v 1.466204 -2.772885 -0.135146
v 1.641633 2.771041 -0.135146
v 1.641633 2.494672 -0.135146
v 1.641633 -2.496516 -0.135146
v 1.641633 -2.772885 -0.135146
v 1.466204 2.771041 -0.526025
v 1.466204 2.494672 -0.526025
v 1.466204 -2.496516 -0.526025
v 1.466204 -2.772885 -0.526025
v 1.641633 2.771041 -0.526025
v 1.641633 2.494672 -0.526025
v 1.641633 -2.496516 -0.526025
v 1.641633 -2.772885 -0.526025
v -1.661905 3.001453 0.119900
v 1.659841 3.001454 0.119900
v -1.661905 2.596334 0.119900
v 1.659841 2.596335 0.119900
v -1.661905 3.001453 0.214497
v 1.659841 3.001454 0.214497
v 1.659841 2.596335 0.214497
v -1.661905 2.596334 0.214497
v -1.661905 2.369568 0.119900
v 1.659841 2.369569 0.119900
v -1.661905 1.964449 0.119900
v 1.659841 1.964450 0.119900
v -1.661905 2.369568 0.214497
v 1.659841 2.369569 0.214497
v 1.659841 1.964450 0.214497
v -1.661905 1.964449 0.214497
v -1.661905 0.636181 0.119900
v 1.659841 0.636182 0.119900
v -1.661905 0.231062 0.119900
v 1.659841 0.231063 0.119900
v -1.661905 0.636181 0.214497
v 1.659841 0.636182 0.214497
v 1.659841 0.231063 0.214497
v -1.661905 0.231062 0.214497
v -1.661905 -0.032606 0.119900
v 1.659841 -0.032606 0.119900
v -1.661905 -0.437725 0.119900
v 1.659841 -0.437725 0.119900
v -1.661905 -0.032606 0.214497
v 1.659841 -0.032606 0.214497
v 1.659841 -0.437725 0.214497
v -1.661905 -0.437725 0.214497
v -1.661905 -1.175055 0.119900
v 1.659841 -1.175054 0.119900
v -1.661905 -1.580174 0.119900
v 1.659841 -1.580173 0.119900
v -1.661905 -1.175055 0.214497
v 1.659841 -1.175054 0.214497
v 1.659841 -1.580173 0.214497
v -1.661905 -1.580174 0.214497
v -1.661905 -1.806940 0.119900
v 1.659841 -1.806940 0.119900
v -1.661903 -2.212059 0.119900
v 1.659841 -2.212058 0.119900
v -1.661905 -1.806940 0.214497
v 1.659841 -1.806940 0.214497
v 1.659841 -2.212058 0.214497
v -1.661903 -2.212059 0.214497
v -1.661903 -2.475728 0.119900
v 1.659841 -2.475727 0.119900
v -1.661903 -2.880847 0.119900
v 1.659841 -2.880846 0.119900
v -1.661903 -2.475728 0.214497
v 1.659841 -2.475727 0.214497
v 1.659841 -2.880846 0.214497
v -1.661903 -2.880847 0.214497
vn -0.0000 -0.0000 -1.0000
vn -0.0000 -0.0000 1.0000
vn 1.0000 -0.0000 -0.0000
vn -0.0000 -1.0000 -0.0000
vn -1.0000 -0.0000 -0.0000
vn -0.0000 1.0000 -0.0000
vt 0.410089 0.124853
vt 0.410089 0.124853
vt 0.410089 0.124853
vt 0.410089 0.124853
vt 0.410089 0.124853
vt 0.410089 0.124853
vt 0.410089 0.124853
vt 0.410089 0.124853
vt 0.410089 0.124853
vt 0.410089 0.124853
vt 0.410089 0.124853
vt 0.410089 0.124853
vt 0.410089 0.124853
vt 0.410089 0.124853
vt 0.410089 0.124853
vt 0.410089 0.124853
vt 0.410089 0.124853
vt 0.410089 0.124853
vt 0.410089 0.124853
vt 0.410089 0.124853
vt 0.410089 0.124853
vt 0.410089 0.124853
vt 0.410089 0.124853
vt 0.410089 0.124853
vt 0.410089 0.124853
vt 0.410089 0.124853
vt 0.410089 0.124853
vt 0.410089 0.124853
vt 0.410089 0.124853
vt 0.410089 0.124853
vt 0.410089 0.124853
vt 0.410089 0.124853
vt 0.410089 0.124853
vt 0.410089 0.124853
vt 0.410089 0.124853
vt 0.410089 0.124853
vt 0.410089 0.124853
vt 0.410089 0.124853
vt 0.410089 0.124853
vt 0.410089 0.124853
vt 0.410089 0.124853
vt 0.410089 0.124853
vt 0.410089 0.124853
vt 0.410089 0.124853
vt 0.410089 0.124853
vt 0.410089 0.124853
vt 0.410089 0.124853
vt 0.410089 0.124853
vt 0.410089 0.124853
vt 0.410089 0.124853
vt 0.410089 0.124853
vt 0.410089 0.124853
vt 0.410089 0.124853
vt 0.410089 0.124853
vt 0.410089 0.124853
vt 0.410089 0.124853
vt 0.410089 0.124853
vt 0.410089 0.124853
vt 0.410089 0.124853
vt 0.410089 0.124853
vt 0.410089 0.124853
vt 0.410089 0.124853
vt 0.410089 0.124853
vt 0.410089 0.124853
vt 0.410089 0.124853
vt 0.410089 0.124853
vt 0.410089 0.124853
vt 0.410089 0.124853
vt 0.410089 0.124853
vt 0.410089 0.124853
vt 0.410089 0.124853
vt 0.410089 0.124853
vt 0.410089 0.124853
vt 0.410089 0.124853
vt 0.410089 0.124853
vt 0.410089 0.124853
vt 0.410089 0.124853
vt 0.410089 0.124853
vt 0.410089 0.124853
vt 0.410089 0.124853
vt 0.410089 0.124853
vt 0.410089 0.124853
vt 0.410089 0.124853
vt 0.410089 0.124853
vt 0.410089 0.124853
vt 0.410089 0.124853
vt 0.410089 0.124853
vt 0.410089 0.124853
vt 0.410089 0.124853
vt 0.410089 0.124853
vt 0.410089 0.124853
vt 0.410089 0.124853
vt 0.410089 0.124853
vt 0.410089 0.124853
vt 0.410089 0.124853
vt 0.410089 0.124853
vt 0.410089 0.124853
vt 0.410089 0.124853
vt 0.410089 0.124853
vt 0.410089 0.124853
vt 0.410089 0.124853
vt 0.410089 0.124853
vt 0.410089 0.124853
vt 0.410089 0.124853
vt 0.410089 0.124853
vt 0.410089 0.124853
vt 0.410089 0.124853
vt 0.410089 0.124853
vt 0.410089 0.124853
vt 0.410089 0.124853
vt 0.410089 0.124853
vt 0.410089 0.124853
s 0
usemtl Material
f 3/3/1 1/1/1 2/2/1 4/4/1
f 8/8/2 7/7/2 6/6/2 5/5/2
f 4/4/3 2/2/3 6/6/3 7/7/3
f 3/3/4 4/4/4 7/7/4 8/8/4
f 1/1/5 3/3/5 8/8/5 5/5/5
f 2/2/6 1/1/6 5/5/6 6/6/6
f 9/9/5 10/10/5 12/12/5 17/17/5 18/18/5 19/19/5 20/20/5 11/11/5
f 17/17/1 12/12/1 16/16/1 21/21/1
f 15/15/3 24/24/3 23/23/3 22/22/3 21/21/3 16/16/3 14/14/3 13/13/3
f 13/13/2 14/14/2 10/10/2 9/9/2
f 11/11/4 15/15/4 13/13/4 9/9/4
f 16/16/6 12/12/6 10/10/6 14/14/6
f 11/11/1 20/20/1 24/24/1 15/15/1
f 21/21/3 22/22/3 30/30/3 29/29/3
f 19/19/1 18/18/1 22/22/1 23/23/1
f 23/23/3 24/24/3 32/32/3 31/31/3
f 28/28/1 27/27/1 31/31/1 32/32/1
f 26/26/1 25/25/1 29/29/1 30/30/1
f 20/20/5 19/19/5 27/27/5 28/28/5
f 18/18/5 17/17/5 25/25/5 26/26/5
f 22/22/4 18/18/4 26/26/4 30/30/4
f 24/24/4 20/20/4 28/28/4 32/32/4
f 17/17/6 21/21/6 29/29/6 25/25/6
f 19/19/6 23/23/6 31/31/6 27/27/6
f 33/33/5 34/34/5 36/36/5 41/41/5 42/42/5 43/43/5 44/44/5 35/35/5
f 41/41/1 36/36/1 40/40/1 45/45/1
f 39/39/3 48/48/3 47/47/3 46/46/3 45/45/3 40/40/3 38/38/3 37/37/3
f 37/37/2 38/38/2 34/34/2 33/33/2
f 35/35/4 39/39/4 37/37/4 33/33/4
f 40/40/6 36/36/6 34/34/6 38/38/6
f 35/35/1 44/44/1 48/48/1 39/39/1
f 45/45/3 46/46/3 54/54/3 53/53/3
f 43/43/1 42/42/1 46/46/1 47/47/1
f 47/47/3 48/48/3 56/56/3 55/55/3
f 52/52/1 51/51/1 55/55/1 56/56/1
f 50/50/1 49/49/1 53/53/1 54/54/1
f 44/44/5 43/43/5 51/51/5 52/52/5
f 42/42/5 41/41/5 49/49/5 50/50/5
f 46/46/4 42/42/4 50/50/4 54/54/4
f 48/48/4 44/44/4 52/52/4 56/56/4
f 41/41/6 45/45/6 53/53/6 49/49/6
f 43/43/6 47/47/6 55/55/6 51/51/6
f 59/59/1 57/57/1 58/58/1 60/60/1
f 64/64/2 63/63/2 62/62/2 61/61/2
f 60/60/3 58/58/3 62/62/3 63/63/3
f 59/59/4 60/60/4 63/63/4 64/64/4
f 57/57/5 59/59/5 64/64/5 61/61/5
f 58/58/6 57/57/6 61/61/6 62/62/6
f 67/67/1 65/65/1 66/66/1 68/68/1
f 72/72/2 71/71/2 70/70/2 69/69/2
f 68/68/3 66/66/3 70/70/3 71/71/3
f 67/67/4 68/68/4 71/71/4 72/72/4
f 65/65/5 67/67/5 72/72/5 69/69/5
f 66/66/6 65/65/6 69/69/6 70/70/6
f 75/75/1 73/73/1 74/74/1 76/76/1
f 80/80/2 79/79/2 78/78/2 77/77/2
f 76/76/3 74/74/3 78/78/3 79/79/3
f 75/75/4 76/76/4 79/79/4 80/80/4
f 73/73/5 75/75/5 80/80/5 77/77/5
f 74/74/6 73/73/6 77/77/6 78/78/6
f 83/83/1 81/81/1 82/82/1 84/84/1
f 88/88/2 87/87/2 86/86/2 85/85/2
f 84/84/3 82/82/3 86/86/3 87/87/3
f 83/83/4 84/84/4 87/87/4 88/88/4
f 81/81/5 83/83/5 88/88/5 85/85/5
f 82/82/6 81/81/6 85/85/6 86/86/6
f 91/91/1 89/89/1 90/90/1 92/92/1
f 96/96/2 95/95/2 94/94/2 93/93/2
f 92/92/3 90/90/3 94/94/3 95/95/3
f 91/91/4 92/92/4 95/95/4 96/96/4
f 89/89/5 91/91/5 96/96/5 93/93/5
f 90/90/6 89/89/6 93/93/6 94/94/6
f 99/99/1 97/97/1 98/98/1 100/100/1
f 104/104/2 103/103/2 102/102/2 101/101/2
f 100/100/3 98/98/3 102/102/3 103/103/3
f 99/99/4 100/100/4 103/103/4 104/104/4
f 97/97/5 99/99/5 104/104/5 101/101/5
f 98/98/6 97/97/6 101/101/6 102/102/6
f 107/107/1 105/105/1 106/106/1 108/108/1
f 112/112/2 111/111/2 110/110/2 109/109/2
f 108/108/3 106/106/3 110/110/3 111/111/3
f 107/107/4 108/108/4 111/111/4 112/112/4
f 105/105/5 107/107/5 112/112/5 109/109/5
f 106/106/6 105/105/6 109/109/6 110/110/6
