# Blender 3.4.1
# www.blender.org
mtllib toilet012.mtl
o toilet2.011
v -1.130684 3.001453 0.119900
v 2.191061 3.001454 0.119900
v -1.130684 2.596334 0.119900
v 2.191061 2.596335 0.119900
v -1.130684 3.001453 0.214497
v 2.191061 3.001454 0.214497
v 2.191061 2.596335 0.214497
v -1.130684 2.596334 0.214497
v -1.107665 -3.343173 0.119900
v -1.107665 3.182397 0.119900
v -1.107665 -3.343173 -0.135146
v -1.107665 3.182397 -0.135146
v -0.932237 -3.343173 0.119900
v -0.932237 3.182397 0.119900
v -0.932237 -3.343173 -0.135146
v -0.932237 3.182397 -0.135146
v -1.107665 2.771041 -0.135146
v -1.107665 2.494672 -0.135146
v -1.107665 -2.496516 -0.135146
v -1.107665 -2.772885 -0.135146
v -0.932237 2.771041 -0.135146
v -0.932237 2.494672 -0.135146
v -0.932237 -2.496516 -0.135146
v -0.932237 -2.772885 -0.135146
v -1.107665 2.771041 -0.526025
v -1.107665 2.494672 -0.526025
v -1.107665 -2.496516 -0.526025
v -1.107665 -2.772885 -0.526025
v -0.932237 2.771041 -0.526025
v -0.932237 2.494672 -0.526025
v -0.932237 -2.496516 -0.526025
v -0.932237 -2.772885 -0.526025
v -1.130687 2.369568 0.119900
v 2.191056 2.369569 0.119900
v -1.130687 1.964450 0.119900
v 2.191056 1.964450 0.119900
v -1.130687 2.369568 0.214497
v 2.191056 2.369569 0.214497
v 2.191056 1.964450 0.214497
v -1.130687 1.964450 0.214497
v -1.130687 1.268066 0.119900
v 2.191056 1.268067 0.119900
v -1.130687 0.862947 0.119900
v 2.191056 0.862947 0.119900
v -1.130687 1.268066 0.214497
v 2.191056 1.268067 0.214497
v 2.191056 0.862947 0.214497
v -1.130687 0.862947 0.214497
v -1.130687 0.636181 0.119900
v 2.191056 0.636182 0.119900
v -1.130687 0.231062 0.119900
v 2.191056 0.231063 0.119900
v -1.130687 0.636181 0.214497
v 2.191056 0.636182 0.214497
v 2.191056 0.231063 0.214497
v -1.130687 0.231062 0.214497
v -1.130687 -0.032607 0.119900
v 2.191056 -0.032606 0.119900
v -1.130687 -0.437726 0.119900
v 2.191056 -0.437725 0.119900
v -1.130687 -0.032607 0.214497
v 2.191056 -0.032606 0.214497
v 2.191056 -0.437725 0.214497
v -1.130687 -0.437726 0.214497
v -1.130687 -1.175055 0.119900
v 2.191056 -1.175055 0.119900
v -1.130687 -1.580174 0.119900
v 2.191056 -1.580173 0.119900
v -1.130687 -1.175055 0.214497
v 2.191056 -1.175055 0.214497
v 2.191056 -1.580173 0.214497
v -1.130687 -1.580174 0.214497
v -1.130687 -1.806940 0.119900
v 2.191056 -1.806940 0.119900
v -1.130687 -2.212059 0.119900
v 2.191056 -2.212059 0.119900
v -1.130687 -1.806940 0.214497
v 2.191056 -1.806940 0.214497
v 2.191056 -2.212059 0.214497
v -1.130687 -2.212059 0.214497
v -1.130687 -2.475727 0.119900
v 2.191056 -2.475727 0.119900
v -1.130687 -2.880846 0.119900
v 2.191056 -2.880846 0.119900
v -1.130687 -2.475727 0.214497
v 2.191056 -2.475727 0.214497
v 2.191056 -2.880846 0.214497
v -1.130687 -2.880846 0.214497
v -0.481590 -3.343173 0.119900
v -0.481590 3.182397 0.119900
v -0.481590 -3.343173 -0.135146
v -0.481590 3.182397 -0.135146
v -0.306161 -3.343173 0.119900
v -0.306161 3.182397 0.119900
v -0.306161 -3.343173 -0.135146
v -0.306161 3.182397 -0.135146
v -0.481590 2.771041 -0.135146
v -0.481590 2.494672 -0.135146
v -0.481590 -2.496516 -0.135146
v -0.481590 -2.772885 -0.135146
v -0.306161 2.771041 -0.135146
v -0.306161 2.494672 -0.135146
v -0.306161 -2.496516 -0.135146
v -0.306161 -2.772885 -0.135146
v -0.481590 2.771041 -0.526025
v -0.481590 2.494672 -0.526025
v -0.481590 -2.496516 -0.526025
v -0.481590 -2.772885 -0.526025
v -0.306161 2.771041 -0.526025
v -0.306161 2.494672 -0.526025
v -0.306161 -2.496516 -0.526025
v -0.306161 -2.772885 -0.526025
vn -0.0000 -0.0000 -1.0000
vn -0.0000 -0.0000 1.0000
vn 1.0000 -0.0000 -0.0000
vn -0.0000 -1.0000 -0.0000
vn -1.0000 -0.0000 -0.0000
vn -0.0000 1.0000 -0.0000
vt 0.707726 0.949557
vt 0.707726 0.949557
vt 0.707726 0.949557
vt 0.707726 0.949557
vt 0.707726 0.949557
vt 0.707726 0.949557
vt 0.707726 0.949557
vt 0.707726 0.949557
vt 0.707726 0.949557
vt 0.707726 0.949557
vt 0.707726 0.949557
vt 0.707726 0.949557
vt 0.707726 0.949557
vt 0.707726 0.949557
vt 0.707726 0.949557
vt 0.707726 0.949557
vt 0.707726 0.949557
vt 0.707726 0.949557
vt 0.707726 0.949557
vt 0.707726 0.949557
vt 0.707726 0.949557
vt 0.707726 0.949557
vt 0.707726 0.949557
vt 0.707726 0.949557
vt 0.707726 0.949557
vt 0.707726 0.949557
vt 0.707726 0.949557
vt 0.707726 0.949557
vt 0.707726 0.949557
vt 0.707726 0.949557
vt 0.707726 0.949557
vt 0.707726 0.949557
vt 0.707726 0.949557
vt 0.707726 0.949557
vt 0.707726 0.949557
vt 0.707726 0.949557
vt 0.707726 0.949557
vt 0.707726 0.949557
vt 0.707726 0.949557
vt 0.707726 0.949557
vt 0.707726 0.949557
vt 0.707726 0.949557
vt 0.707726 0.949557
vt 0.707726 0.949557
vt 0.707726 0.949557
vt 0.707726 0.949557
vt 0.707726 0.949557
vt 0.707726 0.949557
vt 0.707726 0.949557
vt 0.707726 0.949557
vt 0.707726 0.949557
vt 0.707726 0.949557
vt 0.707726 0.949557
vt 0.707726 0.949557
vt 0.707726 0.949557
vt 0.707726 0.949557
vt 0.707726 0.949557
vt 0.707726 0.949557
vt 0.707726 0.949557
vt 0.707726 0.949557
vt 0.707726 0.949557
vt 0.707726 0.949557
vt 0.707726 0.949557
vt 0.707726 0.949557
vt 0.707726 0.949557
vt 0.707726 0.949557
vt 0.707726 0.949557
vt 0.707726 0.949557
vt 0.707726 0.949557
vt 0.707726 0.949557
vt 0.707726 0.949557
vt 0.707726 0.949557
vt 0.707726 0.949557
vt 0.707726 0.949557
vt 0.707726 0.949557
vt 0.707726 0.949557
vt 0.707726 0.949557
vt 0.707726 0.949557
vt 0.707726 0.949557
vt 0.707726 0.949557
vt 0.707726 0.949557
vt 0.707726 0.949557
vt 0.707726 0.949557
vt 0.707726 0.949557
vt 0.707726 0.949557
vt 0.707726 0.949557
vt 0.707726 0.949557
vt 0.707726 0.949557
vt 0.707726 0.949557
vt 0.707726 0.949557
vt 0.707726 0.949557
vt 0.707726 0.949557
vt 0.707726 0.949557
vt 0.707726 0.949557
vt 0.707726 0.949557
vt 0.707726 0.949557
vt 0.707726 0.949557
vt 0.707726 0.949557
vt 0.707726 0.949557
vt 0.707726 0.949557
vt 0.707726 0.949557
vt 0.707726 0.949557
vt 0.707726 0.949557
vt 0.707726 0.949557
vt 0.707726 0.949557
vt 0.707726 0.949557
vt 0.707726 0.949557
vt 0.707726 0.949557
vt 0.707726 0.949557
vt 0.707726 0.949557
vt 0.707726 0.949557
vt 0.707726 0.949557
s 0
usemtl Material
f 3/3/1 1/1/1 2/2/1 4/4/1
f 8/8/2 7/7/2 6/6/2 5/5/2
f 4/4/3 2/2/3 6/6/3 7/7/3
f 3/3/4 4/4/4 7/7/4 8/8/4
f 1/1/5 3/3/5 8/8/5 5/5/5
f 2/2/6 1/1/6 5/5/6 6/6/6
f 9/9/5 10/10/5 12/12/5 17/17/5 18/18/5 19/19/5 20/20/5 11/11/5
f 17/17/1 12/12/1 16/16/1 21/21/1
f 15/15/3 24/24/3 23/23/3 22/22/3 21/21/3 16/16/3 14/14/3 13/13/3
f 13/13/2 14/14/2 10/10/2 9/9/2
f 11/11/4 15/15/4 13/13/4 9/9/4
f 16/16/6 12/12/6 10/10/6 14/14/6
f 11/11/1 20/20/1 24/24/1 15/15/1
f 21/21/3 22/22/3 30/30/3 29/29/3
f 19/19/1 18/18/1 22/22/1 23/23/1
f 23/23/3 24/24/3 32/32/3 31/31/3
f 28/28/1 27/27/1 31/31/1 32/32/1
f 26/26/1 25/25/1 29/29/1 30/30/1
f 20/20/5 19/19/5 27/27/5 28/28/5
f 18/18/5 17/17/5 25/25/5 26/26/5
f 22/22/4 18/18/4 26/26/4 30/30/4
f 24/24/4 20/20/4 28/28/4 32/32/4
f 17/17/6 21/21/6 29/29/6 25/25/6
f 19/19/6 23/23/6 31/31/6 27/27/6
f 35/35/1 33/33/1 34/34/1 36/36/1
f 40/40/2 39/39/2 38/38/2 37/37/2
f 36/36/3 34/34/3 38/38/3 39/39/3
f 35/35/4 36/36/4 39/39/4 40/40/4
f 33/33/5 35/35/5 40/40/5 37/37/5
f 34/34/6 33/33/6 37/37/6 38/38/6
f 43/43/1 41/41/1 42/42/1 44/44/1
f 48/48/2 47/47/2 46/46/2 45/45/2
f 44/44/3 42/42/3 46/46/3 47/47/3
f 43/43/4 44/44/4 47/47/4 48/48/4
f 41/41/5 43/43/5 48/48/5 45/45/5
f 42/42/6 41/41/6 45/45/6 46/46/6
f 51/51/1 49/49/1 50/50/1 52/52/1
f 56/56/2 55/55/2 54/54/2 53/53/2
f 52/52/3 50/50/3 54/54/3 55/55/3
f 51/51/4 52/52/4 55/55/4 56/56/4
f 49/49/5 51/51/5 56/56/5 53/53/5
f 50/50/6 49/49/6 53/53/6 54/54/6
f 59/59/1 57/57/1 58/58/1 60/60/1
f 64/64/2 63/63/2 62/62/2 61/61/2
f 60/60/3 58/58/3 62/62/3 63/63/3
f 59/59/4 60/60/4 63/63/4 64/64/4
f 57/57/5 59/59/5 64/64/5 61/61/5
f 58/58/6 57/57/6 61/61/6 62/62/6
f 67/67/1 65/65/1 66/66/1 68/68/1
f 72/72/2 71/71/2 70/70/2 69/69/2
f 68/68/3 66/66/3 70/70/3 71/71/3
f 67/67/4 68/68/4 71/71/4 72/72/4
f 65/65/5 67/67/5 72/72/5 69/69/5
f 66/66/6 65/65/6 69/69/6 70/70/6
f 75/75/1 73/73/1 74/74/1 76/76/1
f 80/80/2 79/79/2 78/78/2 77/77/2
f 76/76/3 74/74/3 78/78/3 79/79/3
f 75/75/4 76/76/4 79/79/4 80/80/4
f 73/73/5 75/75/5 80/80/5 77/77/5
f 74/74/6 73/73/6 77/77/6 78/78/6
f 83/83/1 81/81/1 82/82/1 84/84/1
f 88/88/2 87/87/2 86/86/2 85/85/2
f 84/84/3 82/82/3 86/86/3 87/87/3
f 83/83/4 84/84/4 87/87/4 88/88/4
f 81/81/5 83/83/5 88/88/5 85/85/5
f 82/82/6 81/81/6 85/85/6 86/86/6
f 89/89/5 90/90/5 92/92/5 97/97/5 98/98/5 99/99/5 100/100/5 91/91/5
f 97/97/1 92/92/1 96/96/1 101/101/1
f 95/95/3 104/104/3 103/103/3 102/102/3 101/101/3 96/96/3 94/94/3 93/93/3
f 93/93/2 94/94/2 90/90/2 89/89/2
f 91/91/4 95/95/4 93/93/4 89/89/4
f 96/96/6 92/92/6 90/90/6 94/94/6
f 91/91/1 100/100/1 104/104/1 95/95/1
f 101/101/3 102/102/3 110/110/3 109/109/3
f 99/99/1 98/98/1 102/102/1 103/103/1
f 103/103/3 104/104/3 112/112/3 111/111/3
f 108/108/1 107/107/1 111/111/1 112/112/1
f 106/106/1 105/105/1 109/109/1 110/110/1
f 100/100/5 99/99/5 107/107/5 108/108/5
f 98/98/5 97/97/5 105/105/5 106/106/5
f 102/102/4 98/98/4 106/106/4 110/110/4
f 104/104/4 100/100/4 108/108/4 112/112/4
f 97/97/6 101/101/6 109/109/6 105/105/6
f 99/99/6 103/103/6 111/111/6 107/107/6
