# Blender 3.4.1
# www.blender.org
mtllib toilet010.mtl
o toilet2.009
v 1.723795 1.127213 -0.000772
v 1.723795 1.170085 -0.043644
v -1.725019 1.170083 -0.043644
v -1.725019 1.127212 -0.000772
v 1.723795 1.220546 -0.043644
v 1.723795 1.263417 -0.000772
v -1.725019 1.263416 -0.000772
v -1.725019 1.220545 -0.043644
v 1.723795 1.170085 0.086690
v 1.723795 1.127213 0.043819
v -1.725019 1.127212 0.043819
v -1.725019 1.170083 0.086690
v -1.725019 1.220545 0.086690
v -1.725019 1.263416 0.043819
v 1.723795 1.263417 0.043819
v 1.723795 1.220546 0.086690
v -1.373755 2.964049 -0.174652
v -1.440574 2.964049 -0.241471
v -1.440573 -2.905017 -0.241471
v -1.373754 -2.905017 -0.174652
v -1.519222 2.964049 -0.241471
v -1.586042 2.964049 -0.174652
v -1.586040 -2.905017 -0.174652
v -1.519221 -2.905017 -0.241471
v -1.440574 2.964049 -0.038333
v -1.373755 2.964049 -0.105152
v -1.373754 -2.905017 -0.105152
v -1.440573 -2.905017 -0.038333
v -1.519221 -2.905017 -0.038333
v -1.586040 -2.905017 -0.105152
v -1.586042 2.964049 -0.105152
v -1.519222 2.964049 -0.038333
v 1.594024 2.964049 -0.174652
v 1.527204 2.964049 -0.241471
v 1.527207 -2.905017 -0.241471
v 1.594026 -2.905017 -0.174652
v 1.448557 2.964049 -0.241471
v 1.381738 2.964049 -0.174652
v 1.381738 -2.905017 -0.174652
v 1.448557 -2.905017 -0.241471
v 1.527204 2.964049 -0.038333
v 1.594024 2.964049 -0.105152
v 1.594026 -2.905017 -0.105152
v 1.527207 -2.905017 -0.038333
v 1.448557 -2.905017 -0.038333
v 1.381738 -2.905017 -0.105152
v 1.381738 2.964049 -0.105152
v 1.448557 2.964049 -0.038333
v 1.723792 2.575371 -0.000772
v 1.723792 2.618243 -0.043644
v -1.725022 2.618241 -0.043644
v -1.725022 2.575370 -0.000772
v 1.723792 2.668703 -0.043644
v 1.723792 2.711575 -0.000772
v -1.725022 2.711574 -0.000772
v -1.725022 2.668703 -0.043644
v 1.723792 2.618243 0.086690
v 1.723792 2.575371 0.043819
v -1.725022 2.575370 0.043819
v -1.725022 2.618241 0.086690
v -1.725022 2.668703 0.086690
v -1.725022 2.711574 0.043819
v 1.723792 2.711575 0.043819
v 1.723792 2.668703 0.086690
v 1.723792 2.268559 -0.000772
v 1.723792 2.311430 -0.043644
v -1.725022 2.311429 -0.043644
v -1.725022 2.268558 -0.000772
v 1.723792 2.361891 -0.043644
v 1.723792 2.404763 -0.000772
v -1.725022 2.404762 -0.000772
v -1.725022 2.361890 -0.043644
v 1.723792 2.311430 0.086690
v 1.723792 2.268559 0.043819
v -1.725022 2.268558 0.043819
v -1.725022 2.311429 0.086690
v -1.725022 2.361890 0.086690
v -1.725022 2.404762 0.043819
v 1.723792 2.404763 0.043819
v 1.723792 2.361891 0.086690
v 1.723792 1.949473 -0.000772
v 1.723792 1.992345 -0.043644
v -1.725022 1.992343 -0.043644
v -1.725022 1.949472 -0.000772
v 1.723792 2.042805 -0.043644
v 1.723792 2.085676 -0.000772
v -1.725022 2.085676 -0.000772
v -1.725022 2.042804 -0.043644
v 1.723792 1.992345 0.086690
v 1.723792 1.949473 0.043819
v -1.725022 1.949472 0.043819
v -1.725022 1.992343 0.086690
v -1.725022 2.042804 0.086690
v -1.725022 2.085676 0.043819
v 1.723792 2.085676 0.043819
v 1.723792 2.042805 0.086690
v 1.723792 0.820399 -0.000772
v 1.723792 0.863271 -0.043644
v -1.725022 0.863270 -0.043644
v -1.725022 0.820398 -0.000772
v 1.723792 0.913732 -0.043644
v 1.723792 0.956603 -0.000772
v -1.725022 0.956602 -0.000772
v -1.725022 0.913731 -0.043644
v 1.723792 0.863271 0.086690
v 1.723792 0.820399 0.043819
v -1.725022 0.820398 0.043819
v -1.725022 0.863270 0.086690
v -1.725022 0.913731 0.086690
v -1.725022 0.956602 0.043819
v 1.723792 0.956603 0.043819
v 1.723792 0.913732 0.086690
v 1.723792 0.501314 -0.000772
v 1.723792 0.544186 -0.043644
v -1.725022 0.544184 -0.043644
v -1.725022 0.501313 -0.000772
v 1.723792 0.594646 -0.043644
v 1.723792 0.637518 -0.000772
v -1.725022 0.637517 -0.000772
v -1.725022 0.594645 -0.043644
v 1.723792 0.544186 0.086690
v 1.723792 0.501314 0.043819
v -1.725022 0.501313 0.043819
v -1.725022 0.544184 0.086690
v -1.725022 0.594645 0.086690
v -1.725022 0.637517 0.043819
v 1.723792 0.637518 0.043819
v 1.723792 0.594646 0.086690
v 1.723792 0.185978 -0.000772
v 1.723792 0.228849 -0.043644
v -1.725022 0.228848 -0.043644
v -1.725022 0.185977 -0.000772
v 1.723792 0.279310 -0.043644
v 1.723792 0.322182 -0.000772
v -1.725022 0.322181 -0.000772
v -1.725022 0.279309 -0.043644
v 1.723792 0.228849 0.086690
v 1.723792 0.185978 0.043819
v -1.725022 0.185977 0.043819
v -1.725022 0.228848 0.086690
v -1.725022 0.279309 0.086690
v -1.725022 0.322181 0.043819
v 1.723792 0.322182 0.043819
v 1.723792 0.279310 0.086690
v 1.723792 -0.949301 -0.000772
v 1.723792 -0.906429 -0.043644
v -1.725022 -0.906430 -0.043644
v -1.725022 -0.949302 -0.000772
v 1.723792 -0.855968 -0.043644
v 1.723792 -0.813097 -0.000772
v -1.725022 -0.813098 -0.000772
v -1.725022 -0.855969 -0.043644
v 1.723792 -0.906429 0.086690
v 1.723792 -0.949301 0.043819
v -1.725022 -0.949302 0.043819
v -1.725022 -0.906430 0.086690
v -1.725022 -0.855969 0.086690
v -1.725022 -0.813098 0.043819
v 1.723792 -0.813097 0.043819
v 1.723792 -0.855968 0.086690
v 1.723792 -1.256113 -0.000772
v 1.723792 -1.213242 -0.043644
v -1.725022 -1.213243 -0.043644
v -1.725022 -1.256115 -0.000772
v 1.723792 -1.162782 -0.043644
v 1.723792 -1.119910 -0.000772
v -1.725022 -1.119911 -0.000772
v -1.725022 -1.162782 -0.043644
v 1.723792 -1.213242 0.086690
v 1.723792 -1.256113 0.043819
v -1.725022 -1.256115 0.043819
v -1.725022 -1.213243 0.086690
v -1.725022 -1.162782 0.086690
v -1.725022 -1.119911 0.043819
v 1.723792 -1.119910 0.043819
v 1.723792 -1.162782 0.086690
v 1.723795 -1.575199 -0.000772
v 1.723795 -1.532328 -0.043644
v -1.725022 -1.532330 -0.043644
v -1.725022 -1.575201 -0.000772
v 1.723795 -1.481867 -0.043644
v 1.723795 -1.438996 -0.000772
v -1.725022 -1.438997 -0.000772
v -1.725022 -1.481868 -0.043644
v 1.723795 -1.532328 0.086690
v 1.723795 -1.575199 0.043819
v -1.725022 -1.575201 0.043819
v -1.725022 -1.532330 0.086690
v -1.725022 -1.481868 0.086690
v -1.725022 -1.438997 0.043819
v 1.723795 -1.438996 0.043819
v 1.723795 -1.481867 0.086690
v 1.723795 -1.890535 -0.000772
v 1.723795 -1.847664 -0.043644
v -1.725022 -1.847665 -0.043644
v -1.725022 -1.890537 -0.000772
v 1.723795 -1.797203 -0.043644
v 1.723795 -1.754332 -0.000772
v -1.725022 -1.754333 -0.000772
v -1.725022 -1.797204 -0.043644
v 1.723795 -1.847664 0.086690
v 1.723795 -1.890535 0.043819
v -1.725022 -1.890537 0.043819
v -1.725022 -1.847665 0.086690
v -1.725022 -1.797204 0.086690
v -1.725022 -1.754333 0.043819
v 1.723795 -1.754332 0.043819
v 1.723795 -1.797203 0.086690
v 1.723795 -2.193087 -0.000772
v 1.723795 -2.150216 -0.043644
v -1.725022 -2.150218 -0.043644
v -1.725022 -2.193089 -0.000772
v 1.723795 -2.099755 -0.043644
v 1.723795 -2.056884 -0.000772
v -1.725022 -2.056885 -0.000772
v -1.725022 -2.099756 -0.043644
v 1.723795 -2.150216 0.086690
v 1.723795 -2.193087 0.043819
v -1.725022 -2.193089 0.043819
v -1.725022 -2.150218 0.086690
v -1.725022 -2.099756 0.086690
v -1.725022 -2.056885 0.043819
v 1.723795 -2.056884 0.043819
v 1.723795 -2.099755 0.086690
v 1.723795 -2.508424 -0.000772
v 1.723795 -2.465552 -0.043644
v -1.725022 -2.465554 -0.043644
v -1.725022 -2.508425 -0.000772
v 1.723795 -2.415092 -0.043644
v 1.723795 -2.372220 -0.000772
v -1.725022 -2.372221 -0.000772
v -1.725022 -2.415092 -0.043644
v 1.723795 -2.465552 0.086690
v 1.723795 -2.508424 0.043819
v -1.725022 -2.508425 0.043819
v -1.725022 -2.465554 0.086690
v -1.725022 -2.415092 0.086690
v -1.725022 -2.372221 0.043819
v 1.723795 -2.372220 0.043819
v 1.723795 -2.415092 0.086690
vn 1.0000 -0.0000 -0.0000
vn -0.0000 1.0000 -0.0000
vn -0.0000 -0.0000 1.0000
vn -1.0000 -0.0000 -0.0000
vn -0.0000 -0.0000 -1.0000
vn -0.0000 -0.7071 -0.7071
vn -0.0000 0.7071 -0.7071
vn -0.0000 -0.7071 0.7071
vn -0.0000 0.7071 0.7071
vn -0.0000 -1.0000 -0.0000
vn 0.7071 -0.0000 -0.7071
vn -0.7071 -0.0000 -0.7071
vn 0.7071 -0.0000 0.7071
vn -0.7071 -0.0000 0.7071
vt 0.735630 0.112451
vt 0.735630 0.112451
vt 0.735630 0.112451
vt 0.735630 0.112451
vt 0.735630 0.112451
vt 0.735630 0.112451
vt 0.735630 0.112451
vt 0.735630 0.112451
vt 0.735630 0.112451
vt 0.735630 0.112451
vt 0.735630 0.112451
vt 0.735630 0.112451
vt 0.735630 0.112451
vt 0.735630 0.112451
vt 0.735630 0.112451
vt 0.735630 0.112451
vt 0.735630 0.112451
vt 0.735630 0.112451
vt 0.735630 0.112451
vt 0.735630 0.112451
vt 0.735630 0.112451
vt 0.735630 0.112451
vt 0.735630 0.112451
vt 0.735630 0.112451
vt 0.735630 0.112451
vt 0.735630 0.112451
vt 0.735630 0.112451
vt 0.735630 0.112451
vt 0.735630 0.112451
vt 0.735630 0.112451
vt 0.735630 0.112451
vt 0.735630 0.112451
vt 0.735630 0.112451
vt 0.735630 0.112451
vt 0.735630 0.112451
vt 0.735630 0.112451
vt 0.735630 0.112451
vt 0.735630 0.112451
vt 0.735630 0.112451
vt 0.735630 0.112451
vt 0.735630 0.112451
vt 0.735630 0.112451
vt 0.735630 0.112451
vt 0.735630 0.112451
vt 0.735630 0.112451
vt 0.735630 0.112451
vt 0.735630 0.112451
vt 0.735630 0.112451
vt 0.735630 0.112451
vt 0.735630 0.112451
vt 0.735630 0.112451
vt 0.735630 0.112451
vt 0.735630 0.112451
vt 0.735630 0.112451
vt 0.735630 0.112451
vt 0.735630 0.112451
vt 0.735630 0.112451
vt 0.735630 0.112451
vt 0.735630 0.112451
vt 0.735630 0.112451
vt 0.735630 0.112451
vt 0.735630 0.112451
vt 0.735630 0.112451
vt 0.735630 0.112451
vt 0.735630 0.112451
vt 0.735630 0.112451
vt 0.735630 0.112451
vt 0.735630 0.112451
vt 0.735630 0.112451
vt 0.735630 0.112451
vt 0.735630 0.112451
vt 0.735630 0.112451
vt 0.735630 0.112451
vt 0.735630 0.112451
vt 0.735630 0.112451
vt 0.735630 0.112451
vt 0.735630 0.112451
vt 0.735630 0.112451
vt 0.735630 0.112451
vt 0.735630 0.112451
vt 0.735630 0.112451
vt 0.735630 0.112451
vt 0.735630 0.112451
vt 0.735630 0.112451
vt 0.735630 0.112451
vt 0.735630 0.112451
vt 0.735630 0.112451
vt 0.735630 0.112451
vt 0.735630 0.112451
vt 0.735630 0.112451
vt 0.735630 0.112451
vt 0.735630 0.112451
vt 0.735630 0.112451
vt 0.735630 0.112451
vt 0.735630 0.112451
vt 0.735630 0.112451
vt 0.735630 0.112451
vt 0.735630 0.112451
vt 0.735630 0.112451
vt 0.735630 0.112451
vt 0.735630 0.112451
vt 0.735630 0.112451
vt 0.735630 0.112451
vt 0.735630 0.112451
vt 0.735630 0.112451
vt 0.735630 0.112451
vt 0.735630 0.112451
vt 0.735630 0.112451
vt 0.735630 0.112451
vt 0.735630 0.112451
vt 0.735630 0.112451
vt 0.735630 0.112451
vt 0.735630 0.112451
vt 0.735630 0.112451
vt 0.735630 0.112451
vt 0.735630 0.112451
vt 0.735630 0.112451
vt 0.735630 0.112451
vt 0.735630 0.112451
vt 0.735630 0.112451
vt 0.735630 0.112451
vt 0.735630 0.112451
vt 0.735630 0.112451
vt 0.735630 0.112451
vt 0.735630 0.112451
vt 0.735630 0.112451
vt 0.735630 0.112451
vt 0.735630 0.112451
vt 0.735630 0.112451
vt 0.735630 0.112451
vt 0.735630 0.112451
vt 0.735630 0.112451
vt 0.735630 0.112451
vt 0.735630 0.112451
vt 0.735630 0.112451
vt 0.735630 0.112451
vt 0.735630 0.112451
vt 0.735630 0.112451
vt 0.735630 0.112451
vt 0.735630 0.112451
vt 0.735630 0.112451
vt 0.735630 0.112451
vt 0.735630 0.112451
vt 0.735630 0.112451
vt 0.735630 0.112451
vt 0.735630 0.112451
vt 0.735630 0.112451
vt 0.735630 0.112451
vt 0.735630 0.112451
vt 0.735630 0.112451
vt 0.735630 0.112451
vt 0.735630 0.112451
vt 0.735630 0.112451
vt 0.735630 0.112451
vt 0.735630 0.112451
vt 0.735630 0.112451
vt 0.735630 0.112451
vt 0.735630 0.112451
vt 0.735630 0.112451
vt 0.735630 0.112451
vt 0.735630 0.112451
vt 0.735630 0.112451
vt 0.735630 0.112451
vt 0.735630 0.112451
vt 0.735630 0.112451
vt 0.735630 0.112451
vt 0.735630 0.112451
vt 0.735630 0.112451
vt 0.735630 0.112451
vt 0.735630 0.112451
vt 0.735630 0.112451
vt 0.735630 0.112451
vt 0.735630 0.112451
vt 0.735630 0.112451
vt 0.735630 0.112451
vt 0.735630 0.112451
vt 0.735630 0.112451
vt 0.735630 0.112451
vt 0.735630 0.112451
vt 0.735630 0.112451
vt 0.735630 0.112451
vt 0.735630 0.112451
vt 0.735630 0.112451
vt 0.735630 0.112451
vt 0.735630 0.112451
vt 0.735630 0.112451
vt 0.735630 0.112451
vt 0.735630 0.112451
vt 0.735630 0.112451
vt 0.735630 0.112451
vt 0.735630 0.112451
vt 0.735630 0.112451
vt 0.735630 0.112451
vt 0.735630 0.112451
vt 0.735630 0.112451
vt 0.735630 0.112451
vt 0.735630 0.112451
vt 0.735630 0.112451
vt 0.735630 0.112451
vt 0.735630 0.112451
vt 0.735630 0.112451
vt 0.735630 0.112451
vt 0.735630 0.112451
vt 0.735630 0.112451
vt 0.735630 0.112451
vt 0.735630 0.112451
vt 0.735630 0.112451
vt 0.735630 0.112451
vt 0.735630 0.112451
vt 0.735630 0.112451
vt 0.735630 0.112451
vt 0.735630 0.112451
vt 0.735630 0.112451
vt 0.735630 0.112451
vt 0.735630 0.112451
vt 0.735630 0.112451
vt 0.735630 0.112451
vt 0.735630 0.112451
vt 0.735630 0.112451
vt 0.735630 0.112451
vt 0.735630 0.112451
vt 0.735630 0.112451
vt 0.735630 0.112451
vt 0.735630 0.112451
vt 0.735630 0.112451
vt 0.735630 0.112451
vt 0.735630 0.112451
vt 0.735630 0.112451
vt 0.735630 0.112451
vt 0.735630 0.112451
vt 0.735630 0.112451
vt 0.735630 0.112451
vt 0.735630 0.112451
vt 0.735630 0.112451
vt 0.735630 0.112451
vt 0.735630 0.112451
vt 0.735630 0.112451
vt 0.735630 0.112451
vt 0.735630 0.112451
vt 0.735630 0.112451
s 1
usemtl Material
f 1/1/1 2/2/1 5/5/1 6/6/1 15/15/1 16/16/1 9/9/1 10/10/1
f 6/6/2 7/7/2 14/14/2 15/15/2
f 16/16/3 13/13/3 12/12/3 9/9/3
f 7/7/4 8/8/4 3/3/4 4/4/4 11/11/4 12/12/4 13/13/4 14/14/4
f 5/5/5 2/2/5 3/3/5 8/8/5
f 1/1/6 4/4/6 3/3/6 2/2/6
f 7/7/7 6/6/7 5/5/7 8/8/7
f 9/9/8 12/12/8 11/11/8 10/10/8
f 13/13/9 16/16/9 15/15/9 14/14/9
f 4/4/10 1/1/10 10/10/10 11/11/10
f 17/17/2 18/18/2 21/21/2 22/22/2 31/31/2 32/32/2 25/25/2 26/26/2
f 22/22/4 23/23/4 30/30/4 31/31/4
f 32/32/3 29/29/3 28/28/3 25/25/3
f 23/23/10 24/24/10 19/19/10 20/20/10 27/27/10 28/28/10 29/29/10 30/30/10
f 21/21/5 18/18/5 19/19/5 24/24/5
f 17/17/11 20/20/11 19/19/11 18/18/11
f 23/23/12 22/22/12 21/21/12 24/24/12
f 25/25/13 28/28/13 27/27/13 26/26/13
f 29/29/14 32/32/14 31/31/14 30/30/14
f 20/20/1 17/17/1 26/26/1 27/27/1
f 33/33/2 34/34/2 37/37/2 38/38/2 47/47/2 48/48/2 41/41/2 42/42/2
f 38/38/4 39/39/4 46/46/4 47/47/4
f 48/48/3 45/45/3 44/44/3 41/41/3
f 39/39/10 40/40/10 35/35/10 36/36/10 43/43/10 44/44/10 45/45/10 46/46/10
f 37/37/5 34/34/5 35/35/5 40/40/5
f 33/33/11 36/36/11 35/35/11 34/34/11
f 39/39/12 38/38/12 37/37/12 40/40/12
f 41/41/13 44/44/13 43/43/13 42/42/13
f 45/45/14 48/48/14 47/47/14 46/46/14
f 36/36/1 33/33/1 42/42/1 43/43/1
f 49/49/1 50/50/1 53/53/1 54/54/1 63/63/1 64/64/1 57/57/1 58/58/1
f 54/54/2 55/55/2 62/62/2 63/63/2
f 64/64/3 61/61/3 60/60/3 57/57/3
f 55/55/4 56/56/4 51/51/4 52/52/4 59/59/4 60/60/4 61/61/4 62/62/4
f 53/53/5 50/50/5 51/51/5 56/56/5
f 49/49/6 52/52/6 51/51/6 50/50/6
f 55/55/7 54/54/7 53/53/7 56/56/7
f 57/57/8 60/60/8 59/59/8 58/58/8
f 61/61/9 64/64/9 63/63/9 62/62/9
f 52/52/10 49/49/10 58/58/10 59/59/10
f 65/65/1 66/66/1 69/69/1 70/70/1 79/79/1 80/80/1 73/73/1 74/74/1
f 70/70/2 71/71/2 78/78/2 79/79/2
f 80/80/3 77/77/3 76/76/3 73/73/3
f 71/71/4 72/72/4 67/67/4 68/68/4 75/75/4 76/76/4 77/77/4 78/78/4
f 69/69/5 66/66/5 67/67/5 72/72/5
f 65/65/6 68/68/6 67/67/6 66/66/6
f 71/71/7 70/70/7 69/69/7 72/72/7
f 73/73/8 76/76/8 75/75/8 74/74/8
f 77/77/9 80/80/9 79/79/9 78/78/9
f 68/68/10 65/65/10 74/74/10 75/75/10
f 81/81/1 82/82/1 85/85/1 86/86/1 95/95/1 96/96/1 89/89/1 90/90/1
f 86/86/2 87/87/2 94/94/2 95/95/2
f 96/96/3 93/93/3 92/92/3 89/89/3
f 87/87/4 88/88/4 83/83/4 84/84/4 91/91/4 92/92/4 93/93/4 94/94/4
f 85/85/5 82/82/5 83/83/5 88/88/5
f 81/81/6 84/84/6 83/83/6 82/82/6
f 87/87/7 86/86/7 85/85/7 88/88/7
f 89/89/8 92/92/8 91/91/8 90/90/8
f 93/93/9 96/96/9 95/95/9 94/94/9
f 84/84/10 81/81/10 90/90/10 91/91/10
f 97/97/1 98/98/1 101/101/1 102/102/1 111/111/1 112/112/1 105/105/1 106/106/1
f 102/102/2 103/103/2 110/110/2 111/111/2
f 112/112/3 109/109/3 108/108/3 105/105/3
f 103/103/4 104/104/4 99/99/4 100/100/4 107/107/4 108/108/4 109/109/4 110/110/4
f 101/101/5 98/98/5 99/99/5 104/104/5
f 97/97/6 100/100/6 99/99/6 98/98/6
f 103/103/7 102/102/7 101/101/7 104/104/7
f 105/105/8 108/108/8 107/107/8 106/106/8
f 109/109/9 112/112/9 111/111/9 110/110/9
f 100/100/10 97/97/10 106/106/10 107/107/10
f 113/113/1 114/114/1 117/117/1 118/118/1 127/127/1 128/128/1 121/121/1 122/122/1
f 118/118/2 119/119/2 126/126/2 127/127/2
f 128/128/3 125/125/3 124/124/3 121/121/3
f 119/119/4 120/120/4 115/115/4 116/116/4 123/123/4 124/124/4 125/125/4 126/126/4
f 117/117/5 114/114/5 115/115/5 120/120/5
f 113/113/6 116/116/6 115/115/6 114/114/6
f 119/119/7 118/118/7 117/117/7 120/120/7
f 121/121/8 124/124/8 123/123/8 122/122/8
f 125/125/9 128/128/9 127/127/9 126/126/9
f 116/116/10 113/113/10 122/122/10 123/123/10
f 129/129/1 130/130/1 133/133/1 134/134/1 143/143/1 144/144/1 137/137/1 138/138/1
f 134/134/2 135/135/2 142/142/2 143/143/2
f 144/144/3 141/141/3 140/140/3 137/137/3
f 135/135/4 136/136/4 131/131/4 132/132/4 139/139/4 140/140/4 141/141/4 142/142/4
f 133/133/5 130/130/5 131/131/5 136/136/5
f 129/129/6 132/132/6 131/131/6 130/130/6
f 135/135/7 134/134/7 133/133/7 136/136/7
f 137/137/8 140/140/8 139/139/8 138/138/8
f 141/141/9 144/144/9 143/143/9 142/142/9
f 132/132/10 129/129/10 138/138/10 139/139/10
f 145/145/1 146/146/1 149/149/1 150/150/1 159/159/1 160/160/1 153/153/1 154/154/1
f 150/150/2 151/151/2 158/158/2 159/159/2
f 160/160/3 157/157/3 156/156/3 153/153/3
f 151/151/4 152/152/4 147/147/4 148/148/4 155/155/4 156/156/4 157/157/4 158/158/4
f 149/149/5 146/146/5 147/147/5 152/152/5
f 145/145/6 148/148/6 147/147/6 146/146/6
f 151/151/7 150/150/7 149/149/7 152/152/7
f 153/153/8 156/156/8 155/155/8 154/154/8
f 157/157/9 160/160/9 159/159/9 158/158/9
f 148/148/10 145/145/10 154/154/10 155/155/10
f 161/161/1 162/162/1 165/165/1 166/166/1 175/175/1 176/176/1 169/169/1 170/170/1
f 166/166/2 167/167/2 174/174/2 175/175/2
f 176/176/3 173/173/3 172/172/3 169/169/3
f 167/167/4 168/168/4 163/163/4 164/164/4 171/171/4 172/172/4 173/173/4 174/174/4
f 165/165/5 162/162/5 163/163/5 168/168/5
f 161/161/6 164/164/6 163/163/6 162/162/6
f 167/167/7 166/166/7 165/165/7 168/168/7
f 169/169/8 172/172/8 171/171/8 170/170/8
f 173/173/9 176/176/9 175/175/9 174/174/9
f 164/164/10 161/161/10 170/170/10 171/171/10
f 177/177/1 178/178/1 181/181/1 182/182/1 191/191/1 192/192/1 185/185/1 186/186/1
f 182/182/2 183/183/2 190/190/2 191/191/2
f 192/192/3 189/189/3 188/188/3 185/185/3
f 183/183/4 184/184/4 179/179/4 180/180/4 187/187/4 188/188/4 189/189/4 190/190/4
f 181/181/5 178/178/5 179/179/5 184/184/5
f 177/177/6 180/180/6 179/179/6 178/178/6
f 183/183/7 182/182/7 181/181/7 184/184/7
f 185/185/8 188/188/8 187/187/8 186/186/8
f 189/189/9 192/192/9 191/191/9 190/190/9
f 180/180/10 177/177/10 186/186/10 187/187/10
f 193/193/1 194/194/1 197/197/1 198/198/1 207/207/1 208/208/1 201/201/1 202/202/1
f 198/198/2 199/199/2 206/206/2 207/207/2
f 208/208/3 205/205/3 204/204/3 201/201/3
f 199/199/4 200/200/4 195/195/4 196/196/4 203/203/4 204/204/4 205/205/4 206/206/4
f 197/197/5 194/194/5 195/195/5 200/200/5
f 193/193/6 196/196/6 195/195/6 194/194/6
f 199/199/7 198/198/7 197/197/7 200/200/7
f 201/201/8 204/204/8 203/203/8 202/202/8
f 205/205/9 208/208/9 207/207/9 206/206/9
f 196/196/10 193/193/10 202/202/10 203/203/10
f 209/209/1 210/210/1 213/213/1 214/214/1 223/223/1 224/224/1 217/217/1 218/218/1
f 214/214/2 215/215/2 222/222/2 223/223/2
f 224/224/3 221/221/3 220/220/3 217/217/3
f 215/215/4 216/216/4 211/211/4 212/212/4 219/219/4 220/220/4 221/221/4 222/222/4
f 213/213/5 210/210/5 211/211/5 216/216/5
f 209/209/6 212/212/6 211/211/6 210/210/6
f 215/215/7 214/214/7 213/213/7 216/216/7
f 217/217/8 220/220/8 219/219/8 218/218/8
f 221/221/9 224/224/9 223/223/9 222/222/9
f 212/212/10 209/209/10 218/218/10 219/219/10
f 225/225/1 226/226/1 229/229/1 230/230/1 239/239/1 240/240/1 233/233/1 234/234/1
f 230/230/2 231/231/2 238/238/2 239/239/2
f 240/240/3 237/237/3 236/236/3 233/233/3
f 231/231/4 232/232/4 227/227/4 228/228/4 235/235/4 236/236/4 237/237/4 238/238/4
f 229/229/5 226/226/5 227/227/5 232/232/5
f 225/225/6 228/228/6 227/227/6 226/226/6
f 231/231/7 230/230/7 229/229/7 232/232/7
f 233/233/8 236/236/8 235/235/8 234/234/8
f 237/237/9 240/240/9 239/239/9 238/238/9
f 228/228/10 225/225/10 234/234/10 235/235/10
