<svg width="66" height="77" viewBox="0 0 66 77" fill="none" xmlns="http://www.w3.org/2000/svg">
<rect x="32.9728" width="3.03605" height="38.0737" transform="rotate(60 32.9728 0)" fill="#D9D9D9"/>
<rect x="32.9728" width="3.03605" height="38.0737" transform="rotate(60 32.9728 0)" fill="#3C3FEC"/>
<rect x="17.2249" y="44.9663" width="3.03605" height="19.8402" transform="rotate(60 17.2249 44.9663)" fill="url(#paint0_linear_35_624)"/>
<rect x="32.9792" y="19.0368" width="3.03605" height="19.0368" transform="rotate(60 32.9792 19.0368)" fill="#3C3FEC"/>
<rect x="31.5089" y="2.62576" width="3.03605" height="19.0368" fill="#3C3FEC"/>
<rect x="46.6891" y="47.5956" width="3.03605" height="20.0125" transform="rotate(-60 46.6891 47.5956)" fill="url(#paint1_linear_35_624)"/>
<rect y="19.0368" width="3.03605" height="38.0737" fill="url(#paint2_linear_35_624)"/>
<rect x="47.8312" y="44.9663" width="3.03605" height="19.0368" transform="rotate(60 47.8312 44.9663)" fill="url(#paint3_linear_35_624)"/>
<rect x="31.4269" y="21.6661" width="3.03605" height="19.0368" transform="rotate(-60 31.4269 21.6661)" fill="#3C3FEC"/>
<rect x="16.4929" y="47.5956" width="3.03605" height="19.0368" transform="rotate(-60 16.4929 47.5956)" fill="url(#paint4_linear_35_624)"/>
<rect x="31.5092" y="37.2531" width="3.03605" height="37.6634" fill="url(#paint5_linear_35_624)"/>
<rect x="16.4929" y="28.5553" width="3.03605" height="19.0368" fill="url(#paint6_linear_35_624)"/>
<rect x="46.3609" y="28.5553" width="3.03605" height="19.0368" fill="url(#paint7_linear_35_624)"/>
<rect x="64.482" y="18.3804" width="3.03605" height="38.0737" transform="rotate(60 64.482 18.3804)" fill="#3C3FEC"/>
<rect x="62.9364" y="19.0368" width="3.03605" height="38.0737" fill="url(#paint8_linear_35_624)"/>
<path d="M64.4 54.4847L65.918 57.114L32.9452 76.1508L31.4272 73.5216L64.4 54.4847Z" fill="url(#paint9_linear_35_624)"/>
<rect x="31.5092" y="2.6293" width="3.03605" height="38.0737" transform="rotate(-60 31.5092 2.6293)" fill="#3C3FEC"/>
<rect y="21.0097" width="3.03605" height="38.0737" transform="rotate(-60 0 21.0097)" fill="#D9D9D9"/>
<rect y="21.0097" width="3.03605" height="38.0737" transform="rotate(-60 0 21.0097)" fill="#3C3FEC"/>
<rect y="57.114" width="3.03605" height="38.0737" transform="rotate(-60 0 57.114)" fill="url(#paint10_linear_35_624)"/>
<defs>
<linearGradient id="paint0_linear_35_624" x1="18.7429" y1="44.9663" x2="18.7429" y2="64.8065" gradientUnits="userSpaceOnUse">
<stop offset="1" stop-color="#58D9F0"/>
</linearGradient>
<linearGradient id="paint1_linear_35_624" x1="48.2072" y1="47.5956" x2="48.2072" y2="67.6081" gradientUnits="userSpaceOnUse">
<stop offset="1" stop-color="#58D9F0"/>
</linearGradient>
<linearGradient id="paint2_linear_35_624" x1="1.51802" y1="19.0368" x2="1.51802" y2="57.1105" gradientUnits="userSpaceOnUse">
<stop stop-color="#3C3FEC"/>
<stop offset="1" stop-color="#58D9F0"/>
</linearGradient>
<linearGradient id="paint3_linear_35_624" x1="49.3492" y1="44.9663" x2="49.3492" y2="64.0031" gradientUnits="userSpaceOnUse">
<stop offset="1" stop-color="#58D9F0"/>
</linearGradient>
<linearGradient id="paint4_linear_35_624" x1="18.0109" y1="47.5956" x2="18.0109" y2="66.6324" gradientUnits="userSpaceOnUse">
<stop offset="1" stop-color="#58D9F0"/>
</linearGradient>
<linearGradient id="paint5_linear_35_624" x1="33.0272" y1="37.2531" x2="33.0272" y2="74.9165" gradientUnits="userSpaceOnUse">
<stop stop-color="#3C3FEC"/>
<stop offset="0.526042" stop-color="#58D9F0"/>
</linearGradient>
<linearGradient id="paint6_linear_35_624" x1="18.0109" y1="28.5553" x2="18.0109" y2="47.5921" gradientUnits="userSpaceOnUse">
<stop stop-color="#3C3FEC"/>
<stop offset="1" stop-color="#58D9F0"/>
</linearGradient>
<linearGradient id="paint7_linear_35_624" x1="47.879" y1="28.5553" x2="47.879" y2="47.5921" gradientUnits="userSpaceOnUse">
<stop stop-color="#3C3FEC"/>
<stop offset="1" stop-color="#58D9F0"/>
</linearGradient>
<linearGradient id="paint8_linear_35_624" x1="64.4544" y1="19.0368" x2="64.4544" y2="57.1105" gradientUnits="userSpaceOnUse">
<stop stop-color="#3C3FEC"/>
<stop offset="1" stop-color="#58D9F0"/>
</linearGradient>
<linearGradient id="paint9_linear_35_624" x1="65.159" y1="55.7994" x2="32.1862" y2="74.8362" gradientUnits="userSpaceOnUse">
<stop stop-color="#58D9F0"/>
<stop offset="1" stop-color="#58D9F0"/>
</linearGradient>
<linearGradient id="paint10_linear_35_624" x1="1.51802" y1="57.114" x2="1.51802" y2="95.1877" gradientUnits="userSpaceOnUse">
<stop stop-color="#58D9F0"/>
<stop offset="1" stop-color="#58D9F0"/>
</linearGradient>
</defs>
</svg>
